<svg width="546" height="311" viewBox="0 0 546 311" fill="none" xmlns="http://www.w3.org/2000/svg">
<path d="M184.915 78.4954V69.8809C184.915 69.0446 184.246 68.3755 183.41 68.3755H181.235C180.566 68.3755 179.981 67.9573 179.897 67.2882C179.144 63.9428 177.806 60.8483 176.05 58.0046C175.715 57.4192 175.799 56.7501 176.217 56.2483L177.806 54.7429C178.391 54.1574 178.391 53.1538 177.806 52.5683L171.784 46.5465C171.199 45.9611 170.195 45.9611 169.61 46.5465L168.021 48.1356C167.519 48.6374 166.85 48.6374 166.264 48.3029C163.421 46.5465 160.326 45.2084 156.981 44.4556C156.312 44.2884 155.893 43.7029 155.893 43.1175V40.9429C155.893 40.1066 155.224 39.4375 154.388 39.4375H145.857C145.021 39.4375 144.352 40.1066 144.352 40.9429V43.1175C144.352 43.7866 143.934 44.372 143.264 44.4556C139.919 45.2084 136.824 46.5465 133.981 48.3029C133.395 48.6374 132.726 48.5538 132.225 48.1356L130.635 46.5465C130.05 45.9611 129.046 45.9611 128.461 46.5465L122.439 52.5683C121.854 53.1538 121.854 54.1574 122.439 54.7429L124.028 56.3319C124.53 56.8337 124.53 57.5028 124.195 58.0883C122.439 60.9319 121.101 64.0264 120.348 67.3719C120.181 68.0409 119.595 68.4591 119.01 68.4591H116.836C115.999 68.4591 115.33 69.1282 115.33 69.9646V78.4954C115.33 79.3318 115.999 80.0009 116.836 80.0009H119.01C119.679 80.0009 120.265 80.419 120.348 81.0881C121.101 84.4336 122.439 87.5281 124.195 90.3717C124.53 90.9572 124.446 91.6262 124.028 92.1281L122.439 93.7171C121.854 94.3026 121.854 95.3062 122.439 95.8917L128.461 101.913C129.046 102.499 130.05 102.499 130.635 101.913L132.225 100.324C132.726 99.8226 133.395 99.8226 133.981 100.157C136.824 101.913 139.919 103.168 143.264 104.004C143.934 104.172 144.352 104.757 144.352 105.343V107.517C144.352 108.353 145.021 109.022 145.857 109.022H154.388C155.224 109.022 155.893 108.353 155.893 107.517V105.343C155.893 104.673 156.312 104.088 156.981 104.004C160.326 103.252 163.421 101.913 166.264 100.157C166.85 99.8226 167.519 99.9062 168.021 100.324L169.61 101.913C170.195 102.499 171.199 102.499 171.784 101.913L177.806 95.8917C178.391 95.3062 178.391 94.3026 177.806 93.7171L176.217 92.1281C175.715 91.6262 175.715 90.9572 176.05 90.3717C177.806 87.5281 179.144 84.4336 179.897 81.0881C180.064 80.419 180.65 80.0009 181.235 80.0009H183.41C184.246 80.0009 184.915 79.3318 184.915 78.4954ZM150.123 98.4007C136.741 98.4007 125.952 87.6117 125.952 74.23C125.952 60.9319 136.741 50.0592 150.123 50.0592C163.504 50.0592 174.293 60.8483 174.293 74.23C174.293 87.5281 163.504 98.4007 150.123 98.4007Z" stroke="#3CB4E7" stroke-miterlimit="10"/>
<path d="M224.391 107.517V101.663C224.391 101.077 223.889 100.659 223.388 100.659H221.882C221.464 100.659 221.046 100.324 220.962 99.9062C220.46 97.6481 219.54 95.4735 218.37 93.5499C218.119 93.1317 218.202 92.7135 218.537 92.379L219.624 91.2917C220.042 90.8736 220.042 90.2045 219.624 89.8699L215.526 85.7718C215.108 85.3536 214.439 85.3536 214.104 85.7718L213.017 86.859C212.682 87.1936 212.18 87.1936 211.846 86.9427C209.922 85.7718 207.831 84.8518 205.49 84.35C205.071 84.2663 204.737 83.8482 204.737 83.43V81.9245C204.737 81.3391 204.235 80.9209 203.733 80.9209H197.879C197.293 80.9209 196.875 81.4227 196.875 81.9245V83.43C196.875 83.8482 196.541 84.2663 196.122 84.35C193.864 84.8518 191.69 85.7718 189.766 86.9427C189.348 87.1936 188.93 87.1099 188.595 86.7754L187.508 85.6881C187.09 85.27 186.421 85.27 186.086 85.6881L181.988 89.7863C181.57 90.2045 181.57 90.8736 181.988 91.2081L183.075 92.2954C183.41 92.6299 183.41 93.1317 183.242 93.4663C182.072 95.3899 181.152 97.4808 180.65 99.8226C180.566 100.241 180.148 100.575 179.73 100.575H178.224C177.639 100.575 177.221 101.077 177.221 101.579V107.433C177.221 108.019 177.723 108.437 178.224 108.437H179.73C180.148 108.437 180.566 108.772 180.65 109.19C181.152 111.448 182.072 113.622 183.242 115.546C183.493 115.964 183.41 116.382 183.075 116.717L181.988 117.804C181.57 118.222 181.57 118.892 181.988 119.226L186.086 123.324C186.504 123.742 187.173 123.742 187.508 123.324L188.595 122.237C188.93 121.902 189.432 121.902 189.766 122.07C191.69 123.241 193.781 124.161 196.122 124.662C196.541 124.746 196.875 125.164 196.875 125.582V127.088C196.875 127.673 197.377 128.091 197.879 128.091H203.733C204.319 128.091 204.737 127.59 204.737 127.088V125.582C204.737 125.164 205.071 124.746 205.49 124.662C207.748 124.161 209.922 123.241 211.762 122.07C212.18 121.819 212.599 121.902 212.933 122.237L214.02 123.324C214.439 123.742 215.108 123.742 215.442 123.324L219.54 119.226C219.959 118.808 219.959 118.139 219.54 117.804L218.453 116.717C218.119 116.382 218.119 115.881 218.286 115.546C219.457 113.622 220.377 111.532 220.879 109.19C220.962 108.772 221.38 108.437 221.799 108.437H223.304C223.889 108.521 224.391 108.103 224.391 107.517ZM200.639 120.146C192.024 120.146 185.082 113.204 185.082 104.59C185.082 96.059 192.024 89.0336 200.639 89.0336C209.253 89.0336 216.195 95.9753 216.195 104.59C216.195 113.121 209.253 120.146 200.639 120.146Z" fill="#3CB4E7"/>
<path d="M329.438 294.192H216.279C206.41 294.192 198.465 286.163 198.465 276.378V24.3833C198.465 14.5142 206.494 6.56885 216.279 6.56885H329.438C339.308 6.56885 347.253 14.5979 347.253 24.3833V276.294C347.337 286.163 339.308 294.192 329.438 294.192Z" fill="#25408F"/>
<path d="M328.853 290.094H216.865C208.25 290.094 201.225 283.069 201.225 274.455V24.718C201.225 16.1035 208.25 9.07812 216.865 9.07812H328.853C337.467 9.07812 344.493 16.1035 344.493 24.718V274.455C344.493 283.069 337.551 290.094 328.853 290.094Z" fill="white"/>
<path d="M338.22 24.216V273.618C338.22 279.472 333.453 284.24 327.599 284.24H218.036C212.181 284.24 207.414 279.472 207.414 273.618V24.216C207.414 18.3615 212.181 13.5942 218.036 13.5942H236.352C237.356 13.5942 238.276 14.1797 238.777 15.0997L240.701 18.9469C241.621 20.7033 243.377 21.8742 245.385 21.8742H300.333C302.341 21.8742 304.181 20.7869 305.017 18.9469L306.941 15.0997C307.359 14.1797 308.362 13.5942 309.366 13.5942H327.599C333.537 13.6779 338.22 18.3615 338.22 24.216Z" fill="#F3F3F3"/>
<path d="M295.901 17.3582H251.657C250.654 17.3582 249.817 16.5218 249.817 15.5182C249.817 14.5146 250.654 13.6782 251.657 13.6782H295.901C296.904 13.6782 297.741 14.5146 297.741 15.5182C297.824 16.5218 296.988 17.3582 295.901 17.3582Z" fill="#3CB4E7"/>
<path d="M320.824 275.542H222.301C218.454 275.542 215.275 272.364 215.275 268.517V233.724C215.275 229.877 218.454 226.699 222.301 226.699H320.824C324.671 226.699 327.849 229.877 327.849 233.724V268.517C327.849 272.448 324.755 275.542 320.824 275.542Z" stroke="#698BD1" stroke-miterlimit="10" stroke-linecap="round" stroke-linejoin="round" stroke-dasharray="2.84 2.84"/>
<path d="M315.89 155.859H267.046C264.286 155.859 262.028 153.601 262.028 150.841V126.67C262.028 123.91 264.286 121.652 267.046 121.652H315.89C318.65 121.652 320.908 123.91 320.908 126.67V150.841C320.908 153.601 318.65 155.859 315.89 155.859Z" stroke="#25408F" stroke-miterlimit="10" stroke-linecap="round" stroke-linejoin="round" stroke-dasharray="2.84 2.84"/>
<path d="M327.85 165.644V208.215C327.85 211.56 325.173 214.237 321.828 214.237H221.381C218.036 214.237 215.359 211.56 215.359 208.215V165.644C215.359 162.299 218.036 159.623 221.381 159.623H321.911C325.173 159.623 327.85 162.299 327.85 165.644Z" fill="#3CB4E7"/>
<path d="M254.167 209.804H224.56C222.302 209.804 220.462 207.964 220.462 205.706V176.099C220.462 173.84 222.302 172 224.56 172H254.167C256.425 172 258.265 173.84 258.265 176.099V205.706C258.265 207.964 256.425 209.804 254.167 209.804Z" fill="white"/>
<path d="M289.294 176.851H263.2C262.531 176.851 261.945 176.266 261.945 175.597C261.945 174.928 262.531 174.342 263.2 174.342H289.294C289.963 174.342 290.549 174.928 290.549 175.597C290.549 176.266 290.047 176.851 289.294 176.851Z" fill="white"/>
<path d="M277.418 181.953H263.2C262.531 181.953 261.945 181.368 261.945 180.699C261.945 180.03 262.531 179.444 263.2 179.444H277.418C278.087 179.444 278.672 180.03 278.672 180.699C278.672 181.368 278.087 181.953 277.418 181.953Z" fill="white"/>
<path d="M321.076 181.953H282.687C282.018 181.953 281.433 181.368 281.433 180.699C281.433 180.03 282.018 179.444 282.687 179.444H321.076C321.745 179.444 322.331 180.03 322.331 180.699C322.331 181.368 321.745 181.953 321.076 181.953Z" fill="white"/>
<path d="M285.196 187.055H263.2C262.531 187.055 261.945 186.47 261.945 185.8C261.945 185.131 262.531 184.546 263.2 184.546H285.196C285.865 184.546 286.451 185.131 286.451 185.8C286.451 186.553 285.865 187.055 285.196 187.055Z" fill="white"/>
<path d="M303.847 187.055H290.048C289.378 187.055 288.793 186.47 288.793 185.8C288.793 185.131 289.378 184.546 290.048 184.546H303.847C304.516 184.546 305.102 185.131 305.102 185.8C305.102 186.553 304.516 187.055 303.847 187.055Z" fill="white"/>
<path d="M321.076 187.055H308.363C307.694 187.055 307.108 186.47 307.108 185.8C307.108 185.131 307.694 184.546 308.363 184.546H321.076C321.745 184.546 322.33 185.131 322.33 185.8C322.33 186.553 321.745 187.055 321.076 187.055Z" fill="white"/>
<path d="M321.076 192.24H263.284C262.615 192.24 262.029 191.655 262.029 190.985C262.029 190.316 262.615 189.731 263.284 189.731H321.076C321.745 189.731 322.331 190.316 322.331 190.985C322.331 191.655 321.745 192.24 321.076 192.24Z" fill="white"/>
<path d="M295.065 197.342H263.2C262.531 197.342 261.945 196.757 261.945 196.088C261.945 195.418 262.531 194.833 263.2 194.833H295.065C295.734 194.833 296.32 195.418 296.32 196.088C296.32 196.757 295.734 197.342 295.065 197.342Z" fill="white"/>
<path d="M321.076 197.342H300.167C299.498 197.342 298.912 196.757 298.912 196.088C298.912 195.418 299.498 194.833 300.167 194.833H321.076C321.745 194.833 322.33 195.418 322.33 196.088C322.33 196.757 321.745 197.342 321.076 197.342Z" fill="white"/>
<path d="M281.934 202.444H263.2C262.531 202.444 261.945 201.859 261.945 201.19C261.945 200.521 262.531 199.935 263.2 199.935H281.934C282.603 199.935 283.189 200.521 283.189 201.19C283.189 201.859 282.603 202.444 281.934 202.444Z" fill="white"/>
<path d="M305.687 202.444H286.953C286.284 202.444 285.698 201.859 285.698 201.19C285.698 200.521 286.284 199.935 286.953 199.935H305.687C306.356 199.935 306.942 200.521 306.942 201.19C306.942 201.859 306.356 202.444 305.687 202.444Z" fill="white"/>
<path d="M321.076 202.444H310.204C309.535 202.444 308.949 201.859 308.949 201.19C308.949 200.521 309.535 199.935 310.204 199.935H321.076C321.745 199.935 322.331 200.521 322.331 201.19C322.331 201.859 321.745 202.444 321.076 202.444Z" fill="white"/>
<path d="M289.294 207.629H263.2C262.531 207.629 261.945 207.044 261.945 206.375C261.945 205.706 262.531 205.12 263.2 205.12H289.294C289.963 205.12 290.549 205.706 290.549 206.375C290.549 207.044 290.047 207.629 289.294 207.629Z" fill="white"/>
<path d="M321.075 176.851H294.981C294.312 176.851 293.727 176.266 293.727 175.597C293.727 174.928 294.312 174.342 294.981 174.342H321.075C321.745 174.342 322.33 174.928 322.33 175.597C322.33 176.266 321.745 176.851 321.075 176.851Z" fill="white"/>
<path d="M327.85 165.644V167.401H215.359V165.644C215.359 162.299 218.036 159.623 221.381 159.623H321.911C325.173 159.623 327.85 162.299 327.85 165.644Z" fill="#25408F"/>
<path d="M306.689 163.637C306.689 164.39 306.104 165.059 305.267 165.059C304.515 165.059 303.846 164.473 303.846 163.637C303.846 162.884 304.431 162.215 305.267 162.215C306.02 162.299 306.689 162.884 306.689 163.637Z" fill="#DEE3FC"/>
<path d="M313.799 163.637C313.799 164.39 313.213 165.059 312.377 165.059C311.541 165.059 310.955 164.473 310.955 163.637C310.955 162.884 311.541 162.215 312.377 162.215C313.213 162.215 313.799 162.884 313.799 163.637Z" fill="#DEE3FC"/>
<path d="M320.907 163.637C320.907 164.39 320.322 165.059 319.485 165.059C318.733 165.059 318.063 164.473 318.063 163.637C318.063 162.884 318.649 162.215 319.485 162.215C320.322 162.299 320.907 162.884 320.907 163.637Z" fill="#DEE3FC"/>
<path d="M250.152 155.859H227.905C224.643 155.859 221.883 153.183 221.883 149.837V127.59C221.883 124.328 224.559 121.568 227.905 121.568H250.152C253.414 121.568 256.173 124.245 256.173 127.59V149.837C256.173 153.183 253.497 155.859 250.152 155.859Z" stroke="#25408F" stroke-miterlimit="10"/>
<path d="M233.676 133.78L228.741 138.714L233.759 143.649" stroke="#25408F" stroke-width="1.6716" stroke-miterlimit="10" stroke-linecap="round" stroke-linejoin="round"/>
<path d="M244.381 133.779L249.316 138.714L244.298 143.648" stroke="#25408F" stroke-width="1.6716" stroke-miterlimit="10" stroke-linecap="round" stroke-linejoin="round"/>
<path d="M241.37 133.779L236.687 143.648" stroke="#25408F" stroke-width="1.6716" stroke-miterlimit="10" stroke-linecap="round" stroke-linejoin="round"/>
<path d="M327.849 38.0159V107.684C327.849 111.448 324.755 114.543 320.991 114.543H222.134C218.37 114.543 215.275 111.448 215.275 107.684V38.0159C215.275 34.2522 218.37 31.1577 222.134 31.1577H320.991C324.838 31.1577 327.849 34.2522 327.849 38.0159Z" fill="#3CB4E7"/>
<path d="M305.1 69.5467C314.107 69.5467 321.409 62.2449 321.409 53.2377C321.409 44.2305 314.107 36.9287 305.1 36.9287C296.093 36.9287 288.791 44.2305 288.791 53.2377C288.791 62.2449 296.093 69.5467 305.1 69.5467Z" fill="#F0F4FF"/>
<path d="M281.515 114.543H222.134C218.37 114.543 215.275 111.448 215.275 107.685V96.7285L241.202 51.7324C242.541 49.3906 245.97 49.3906 247.308 51.7324L266.962 85.6886L281.515 110.863C282.268 112.117 282.1 113.456 281.515 114.543Z" fill="white"/>
<path d="M307.023 114.543H250.318L266.962 85.6884L275.911 70.1321C277.165 68.0412 280.176 68.0412 281.431 70.1321L307.023 114.543Z" fill="white"/>
<path d="M419.597 243.928H375.855V309.665H419.597V243.928Z" fill="#3CB4E7"/>
<path d="M419.586 309.644H436.313V243.906H419.586V309.644Z" fill="#25408F"/>
<path d="M368.746 309.665H390.994C390.994 309.665 392.248 305.734 389.572 300.799C389.572 300.799 387.815 302.221 382.463 301.301C382.463 301.301 380.205 303.225 378.699 303.977C377.026 304.647 368.161 306.403 368.746 309.665Z" fill="#1B1B1B"/>
<path d="M370.252 247.021C371.674 255.552 378.281 284.574 381.125 301.635C386.311 302.054 388.82 301.468 390.158 301.217C389.907 295.279 389.405 280.977 389.405 274.705C389.489 264.083 389.991 250.199 385.307 242.505L369.667 243.759C369.751 244.596 369.834 245.265 369.918 245.767C370.085 246.185 370.169 246.603 370.252 247.021Z" fill="#25408F"/>
<path d="M328.518 309.665H350.765C350.765 309.665 352.02 305.734 349.343 300.799C349.343 300.799 347.587 302.221 342.234 301.301C342.234 301.301 339.976 303.225 338.471 303.977C336.798 304.647 327.932 306.403 328.518 309.665Z" fill="#1B1B1B"/>
<path d="M341.481 301.134C345.747 302.221 348.841 302.054 350.263 301.887C351.434 295.029 353.274 279.89 355.03 272.781C357.623 261.741 360.216 246.603 358.376 241.167L342.987 237.32C342.903 237.822 341.649 284.24 341.481 301.134Z" fill="#25408F"/>
<path d="M402.787 221.512C402.453 218.501 402.118 216.243 402.118 216.243L384.889 220.425L370.253 223.77C364.816 224.941 358.293 226.447 352.522 227.701C346.082 229.207 341.733 234.058 343.155 240.581L344.744 248.443C353.777 248.359 396.431 244.261 400.027 242.421C404.293 240.414 405.547 233.054 402.787 221.512Z" fill="#25408F"/>
<path d="M428.546 221.512C428.212 218.502 426.79 215.24 426.79 215.24L410.732 220.509L396.096 223.854C390.659 225.025 384.136 226.531 378.365 227.785C371.925 229.291 367.576 234.141 368.998 240.665L370.587 248.527C379.619 248.443 417.506 247.105 425.87 242.505C429.884 240.247 431.223 233.054 428.546 221.512Z" fill="#25408F"/>
<path d="M380.372 196.84C380.372 196.84 387.983 193.411 390.157 196.84C391.328 198.764 390.492 202.276 387.899 203.698C385.306 205.204 370.587 211.393 356.619 214.905C356.619 214.905 356.034 212.982 355.03 210.974C355.03 210.974 361.303 208.382 367.492 204.033C373.681 199.684 380.372 196.84 380.372 196.84Z" fill="#E5918F"/>
<path d="M382.212 173.004L375.688 199.182C375.688 199.182 376.358 205.789 383.048 202.527C389.739 199.266 394.172 178.44 394.172 178.44L382.212 173.004Z" fill="#FFC2C2"/>
<path d="M393.336 187.64C392.499 187.473 391.747 187.222 390.994 186.971C390.241 186.72 389.488 186.553 388.819 186.302C382.63 184.127 379.201 181.618 379.201 181.618C381.125 173.087 383.55 167.4 385.641 163.636C385.725 163.553 385.725 163.469 385.808 163.386C385.892 163.302 385.892 163.218 385.976 163.135C387.063 161.295 388.736 159.706 390.492 158.367C390.659 158.2 390.827 158.116 391.077 157.949L391.83 171.582L391.997 173.004L393.336 187.64Z" fill="white"/>
<path d="M393.336 187.64C392.499 187.473 391.747 187.222 390.994 186.971C390.241 186.72 389.488 186.553 388.819 186.302C390.158 177.102 391.328 171.331 391.328 171.331L391.998 173.004L393.336 187.64Z" fill="#C7E5F2"/>
<path d="M432.059 163.971C431.891 167.985 431.222 174.509 430.553 181.033C430.386 183.123 430.135 185.214 430.051 187.222C429.968 188.476 428.044 195.167 427.961 196.338C427.626 202.025 424.866 206.291 427.459 214.989C428.128 217.08 428.211 218.167 428.211 219.003C428.211 219.589 427.459 220.258 427.124 220.425C426.037 221.094 423.862 221.512 421.186 221.847C416.001 222.516 408.975 222.6 404.71 222.6C399.023 222.6 390.492 221.68 389.404 220.258C388.401 218.92 389.321 216.996 389.823 214.403C391.914 202.527 391.161 196.254 391.077 187.723C391.077 187.473 391.077 187.305 391.077 187.054C390.826 173.84 389.99 162.465 390.575 158.367C390.743 158.2 390.91 158.116 391.161 157.949C392.081 157.364 392.917 156.778 393.837 156.276C393.921 156.276 394.004 156.193 394.088 156.109C394.339 155.942 394.59 155.858 394.841 155.691C394.924 155.607 395.008 155.607 395.175 155.524C397.099 154.604 399.943 153.6 401.532 153.015C401.699 152.931 401.95 152.847 402.117 152.847C403.623 152.764 405.295 152.764 407.052 152.764C408.557 152.847 410.982 153.015 413.575 153.349C416.502 153.684 419.681 154.269 422.19 154.938C422.19 154.938 422.19 154.938 422.273 154.938C422.775 155.105 425.87 156.276 429.048 159.705C429.968 160.876 431.055 162.298 432.059 163.971Z" fill="white"/>
<path d="M427.459 214.989C428.128 217.08 428.212 218.167 428.212 219.004C428.212 219.589 427.459 220.258 427.125 220.425C426.037 221.094 423.863 221.513 421.187 221.847C422.274 221.68 424.197 220.007 424.197 218.418C424.197 217.331 422.776 209.971 423.194 205.204C423.612 200.436 424.365 192.909 422.859 186.804C421.354 180.782 420.016 172.753 420.016 172.753L428.296 177.771C428.296 177.771 429.383 179.277 430.554 181.117C430.386 183.207 430.136 185.298 430.052 187.306C429.885 188.476 424.783 206.291 427.459 214.989Z" fill="#C7E5F2"/>
<path d="M390.91 129.011C390.91 129.011 391.663 137.709 394.507 138.295C397.35 138.88 396.681 135.2 396.681 135.2L396.263 131.102L390.91 129.011Z" fill="#002C54"/>
<path d="M404.208 160.458C398.604 159.789 400.695 154.269 401.448 153.015C401.615 152.931 402.619 152.68 402.702 152.597C402.87 152.429 403.037 152.262 403.121 151.927C403.706 150.506 403.455 147.578 403.372 147.411V146.909C403.455 146.575 403.539 146.24 403.622 145.906L406.55 143.564L412.822 138.629C412.822 138.629 411.15 146.909 412.488 152.095C412.571 152.513 412.822 153.015 413.324 153.349C413.491 153.433 413.659 153.517 413.91 153.6C415.582 154.353 413.408 161.546 404.208 160.458Z" fill="#FFC2C2"/>
<path d="M409.142 143.898C409.142 143.898 409.058 149.418 403.12 151.927C403.706 150.506 403.455 147.578 403.371 147.411L405.88 145.488L409.142 143.898Z" fill="#CC6362"/>
<path d="M392.248 130.182C392.248 130.182 393.586 148.164 398.437 149.753C398.437 149.753 404.626 150.338 409.059 144.316C410.313 142.56 411.986 142.226 412.488 140.135C413.324 136.789 414.579 130.517 412.99 126.753C410.899 121.4 392.499 117.135 392.248 130.182Z" fill="#FFC2C2"/>
<path d="M413.157 123.826C413.073 120.564 409.728 119.31 409.728 119.31C406.466 117.804 399.608 118.473 392.499 119.979C390.826 120.313 388.735 119.31 387.565 120.146C386.143 121.15 387.565 125.582 387.565 125.582C390.325 133.862 400.361 131.186 403.372 130.099C404.124 132.189 403.957 135.2 405.797 136.706C406.801 137.542 408.557 137.626 410.397 137.291C410.648 137.709 411.484 138.044 411.652 138.629C412.237 140.553 412.153 143.564 412.153 145.906L412.99 145.488C413.073 144.902 421.855 124.077 413.157 123.826Z" fill="#1B1B1B"/>
<path d="M397.266 136.287C397.517 137.793 396.764 139.131 395.593 139.382C394.422 139.549 393.251 138.545 393 137.04C392.749 135.534 393.502 134.196 394.673 133.945C395.844 133.694 397.015 134.782 397.266 136.287Z" stroke="white" stroke-width="0.501" stroke-miterlimit="10"/>
<path d="M403.12 135.2C403.371 136.706 402.619 138.044 401.448 138.295C400.277 138.462 399.106 137.458 398.855 135.953C398.604 134.447 399.357 133.109 400.528 132.858C401.782 132.607 402.869 133.695 403.12 135.2Z" stroke="white" stroke-width="0.501" stroke-miterlimit="10"/>
<path d="M397.266 136.287C397.266 136.287 397.517 135.869 398.855 135.953" stroke="white" stroke-width="0.501" stroke-miterlimit="10"/>
<path d="M403.204 135.535L408.222 134.698" stroke="white" stroke-width="0.501" stroke-miterlimit="10"/>
<path d="M408.641 141.139C412.07 142.477 413.157 133.946 409.895 133.528C407.386 133.277 407.302 136.706 407.302 136.706C407.302 136.706 406.633 140.386 408.641 141.139Z" fill="#FFC2C2"/>
<g opacity="0.5">
<g opacity="0.5">
<path opacity="0.5" d="M409.729 134.866C409.729 134.866 409.478 135.117 409.311 135.451C409.143 135.869 408.892 136.371 408.892 136.873C408.892 137.124 408.892 137.458 408.892 137.709C408.892 137.96 408.892 138.211 408.976 138.462C408.976 138.713 409.06 138.88 409.06 139.048C409.06 139.215 409.06 139.298 409.06 139.298C409.06 139.298 408.976 139.215 408.976 139.131C408.892 139.048 408.809 138.88 408.725 138.629C408.642 138.378 408.558 138.128 408.474 137.877C408.391 137.542 408.391 137.291 408.391 136.957C408.391 136.622 408.474 136.288 408.642 136.037C408.809 135.786 408.976 135.535 409.143 135.368C409.394 134.866 409.729 134.866 409.729 134.866Z" fill="#CC6362"/>
</g>
<g opacity="0.5">
<path opacity="0.5" d="M410.313 136.455C410.313 136.455 410.146 136.455 409.979 136.538C409.811 136.622 409.561 136.706 409.393 136.956C409.226 137.124 409.059 137.375 409.059 137.542C408.975 137.709 408.975 137.876 408.975 137.876L408.39 137.709C408.39 137.709 408.473 137.542 408.557 137.375C408.724 137.207 408.891 136.956 409.226 136.789C409.477 136.622 409.811 136.538 409.979 136.538C410.146 136.455 410.313 136.455 410.313 136.455Z" fill="#CC6362"/>
</g>
</g>
<path d="M441.844 200.353C440.339 202.109 434.568 203.447 431.808 200.938C430.972 200.185 429.968 198.095 428.964 195.585C426.539 189.062 424.197 179.36 424.197 179.36L437.077 172.753C437.077 172.753 438.75 180.197 440.172 187.306C440.172 187.306 440.172 187.389 440.172 187.473C440.674 189.731 441.092 191.989 441.426 193.913C441.426 193.996 441.426 193.996 441.426 194.08C441.844 196.338 442.095 198.68 441.844 200.353Z" fill="#FFC2C2"/>
<path d="M419.347 170.327C420.601 175.513 424.532 185.382 424.532 185.382C427.292 185.8 430.972 185.298 433.983 184.211C437.496 182.956 440.005 180.28 440.005 180.28C440.005 180.28 437.412 173.004 435.07 167.735C432.979 163.051 431.725 161.295 430.805 160.291C429.467 158.869 427.208 157.197 425.703 156.444L419.347 170.327Z" fill="white"/>
<path d="M435.655 173.673L428.045 170.411L422.106 155.022C422.106 155.022 423.194 155.357 424.616 155.942C424.616 155.942 424.699 155.942 424.783 156.026C424.783 156.026 424.866 156.026 424.866 156.109C426.121 156.695 431.139 159.622 434.568 170.327C434.568 170.411 434.652 170.495 434.652 170.578C434.986 171.833 435.321 172.836 435.405 173.338C435.405 173.422 435.405 173.422 435.405 173.505C435.572 173.505 435.655 173.589 435.655 173.673Z" fill="white"/>
<path d="M441.845 200.353C441.761 201.273 441.51 202.025 441.008 202.192C440.925 202.276 439.837 202.862 439.837 202.945C438.248 203.949 435.405 205.538 431.808 207.127C423.194 210.891 410.648 215.156 403.874 217.163C403.874 217.163 403.205 215.24 402.201 213.232C402.201 213.232 408.307 210.389 414.328 205.789C420.35 201.189 429.048 195.585 429.048 195.585L431.223 192.993C431.223 192.993 439.001 185.8 440.255 187.305C440.255 187.305 440.255 187.389 440.255 187.473C440.423 188.225 441.092 190.985 441.51 193.913C441.51 193.996 441.51 193.996 441.51 194.08C441.845 196.338 442.095 198.68 441.845 200.353Z" fill="#FFC2C2"/>
<path d="M403.038 212.731C403.038 212.731 401.532 213.651 399.943 213.316C399.107 213.149 398.772 212.814 398.103 212.647C397.434 212.563 395.761 212.312 394.925 211.894C394.089 211.476 393.754 211.476 393.754 212.312C393.754 213.149 395.427 213.902 395.845 214.069C396.263 214.32 396.849 215.072 396.932 215.156C397.016 215.24 394.172 216.745 393.419 216.411C393.419 216.411 393.169 217.08 393.336 217.498C393.503 217.916 394.005 218 394.089 218.167C394.172 218.334 393.921 218.752 394.089 219.087C394.172 219.422 394.758 219.422 394.925 219.84C395.092 220.342 394.925 220.342 395.092 220.843C395.259 221.345 395.929 221.429 396.012 221.68C396.096 221.931 396.096 222.265 396.347 222.432C396.598 222.6 399.107 221.763 400.11 221.429C401.03 221.011 403.456 217.498 406.216 216.243L403.038 212.731Z" fill="#FFC2C2"/>
<path d="M415.917 228.621H396.263V226.698H415.917C416.419 226.698 416.837 227.116 416.837 227.618C416.921 228.203 416.503 228.621 415.917 228.621Z" fill="#375F84"/>
<path d="M405.296 228.621H356.118C355.532 228.621 355.03 228.203 354.863 227.701L344.827 191.487C344.576 190.651 345.245 189.898 346.081 189.898H393.587C394.674 189.898 395.677 190.651 395.928 191.738L405.965 227.869C406.132 228.203 405.797 228.621 405.296 228.621Z" fill="#375F84"/>
<path d="M403.539 228.621H354.361C353.775 228.621 353.274 228.203 353.106 227.701L343.07 191.487C342.819 190.651 343.488 189.898 344.325 189.898H391.913C393.001 189.898 394.004 190.651 394.255 191.738L404.291 227.869C404.375 228.203 404.04 228.621 403.539 228.621Z" fill="#3CB4E7"/>
<path d="M208.5 205.203L214.187 199.349C214.187 199.349 214.355 196.756 214.689 196.171C215.024 195.585 215.776 193.578 216.194 193.327C216.613 193.076 217.365 193.327 217.365 193.327C217.365 193.327 218.118 193.076 218.536 193.076C218.871 193.076 219.54 193.411 219.54 193.411C219.54 193.411 220.376 193.327 220.711 193.327C221.045 193.327 221.213 193.411 221.213 193.411C221.213 193.411 222.551 191.822 223.22 191.32C223.889 190.818 224.893 189.814 225.227 189.814C225.478 189.814 225.645 190.316 225.394 190.818C225.227 191.32 224.307 192.24 224.307 192.24L221.714 196.171C221.714 196.171 222.133 196.003 222.384 195.836C222.634 195.669 224.224 194.247 224.307 194.164C224.391 194.08 225.144 193.662 225.562 194.08C225.98 194.498 222.802 198.345 222.3 198.847C221.798 199.349 218.954 200.771 218.954 200.771C218.954 200.771 215.944 206.207 215.609 206.625C215.358 207.043 208.5 205.203 208.5 205.203Z" fill="#FFC2C2"/>
<path d="M213.852 178.189C213.852 178.189 210.674 196.673 207.663 197.091C207.663 197.091 195.703 197.593 193.027 183.04C190.685 170.495 199.969 167.735 204.318 168.739C208.751 169.742 214.856 170.328 213.852 178.189Z" fill="#FFC2C2"/>
<path d="M203.315 194.164C203.315 194.164 201.642 196.422 201.057 201.858C201.057 201.858 196.038 202.611 191.438 200.186C191.438 200.186 193.948 192.491 194.198 184.127" fill="#FFC2C2"/>
<path d="M199.969 165.644C193.446 167.066 193.948 171.164 193.948 171.164C190.853 171.917 190.268 173.171 190.268 178.858C190.268 184.546 192.358 191.32 193.446 191.822C194.533 192.407 200.973 192.407 201.475 192.24C201.977 192.073 204.235 186.887 203.733 185.967C203.231 185.047 203.733 181.451 205.238 181.367C206.744 181.2 206.409 183.542 206.409 183.542L207.664 183.291L208.584 180.949C217.198 181.451 219.456 171.582 219.456 171.582C217.449 170.16 206.493 164.222 199.969 165.644Z" fill="#1B1B1B"/>
<path d="M127.373 290.512L133.98 291.432L131.806 299.127L124.613 297.287C124.613 297.287 121.686 293.356 126.119 290.429C126.286 290.345 127.039 290.429 127.373 290.512Z" fill="#E5918F"/>
<path d="M176.718 270.69L166.933 241.167C166.933 241.167 164.006 240.08 162.5 241.167C162.5 241.167 152.38 246.603 153.468 262.159C154.304 273.868 156.73 286.581 157.733 291.683L131.722 290.763C131.722 290.763 128.544 294.61 130.552 299.545C130.552 299.545 163.253 308.326 167.853 309.163C171.617 309.832 175.715 310.334 177.638 308.661C181.151 305.65 176.718 270.69 176.718 270.69Z" fill="#25408F"/>
<path d="M158.151 290.512L164.759 291.432L162.584 299.127L155.391 297.287C155.391 297.287 152.464 293.356 156.897 290.429C157.148 290.345 157.817 290.429 158.151 290.512Z" fill="#E5918F"/>
<path d="M155.725 294.527C155.558 296.032 156.896 297.454 156.645 297.788C156.394 298.207 151.962 305.65 151.962 305.65C151.962 305.65 155.307 307.072 154.805 309.247H146.274C146.274 309.247 144.016 307.239 144.1 304.396C144.1 304.396 144.685 301.134 146.191 298.207C147.696 295.279 151.125 288.672 151.125 288.672C151.125 288.672 152.129 288.254 153.969 288.756C156.06 289.341 158.067 290.596 158.067 290.596C158.067 290.596 156.143 290.763 155.725 294.527Z" fill="#1B1B1B"/>
<path d="M223.806 302.472C221.715 294.61 201.977 261.24 195.286 252.207C181.57 246.269 166.933 241.167 166.933 241.167C160.912 242.589 157.901 254.8 161.33 262.912C163.672 268.516 178.642 282.483 187.759 290.763H162.417C162.417 290.763 159.406 295.196 162.166 299.461C162.166 299.461 204.319 309.079 207.999 309.581C211.679 310.083 219.959 309.581 219.959 309.581C219.959 309.581 225.562 308.996 223.806 302.472Z" fill="#25408F"/>
<path d="M124.948 294.527C124.781 296.032 126.119 297.454 125.868 297.788C125.617 298.207 121.184 305.65 121.184 305.65C121.184 305.65 124.53 307.072 124.028 309.247H115.497C115.497 309.247 113.239 307.239 113.323 304.396C113.323 304.396 113.908 301.134 115.413 298.207C116.919 295.279 120.348 288.672 120.348 288.672C120.348 288.672 121.352 288.254 123.192 288.756C125.283 289.341 127.29 290.596 127.29 290.596C127.29 290.596 125.366 290.763 124.948 294.527Z" fill="#1B1B1B"/>
<path d="M255.587 199.516L241.954 223.436L232.253 213.734L224.224 225.694L226.565 226.781L225.729 227.45C225.729 227.45 244.547 236.567 246.805 234.56C249.063 232.552 259.518 202.109 259.518 202.109L255.587 199.516Z" fill="#FFC2C2"/>
<path d="M233.926 215.24C233.926 215.24 231.333 226.113 226.231 231.215L213.1 226.196C213.1 226.196 206.995 236.484 201.057 244.345C198.799 247.356 197.962 251.622 195.286 252.207C195.119 252.124 194.951 252.124 194.784 252.04C187.508 249.865 176.719 252.207 167.853 248.862C158.068 245.182 159.908 243.175 159.908 243.175C159.908 243.175 165.846 232.469 169.275 221.095C170.781 216.077 171.868 211.393 172.537 207.797C173.791 201.357 178.977 196.338 185.417 195.418C185.5 195.418 185.584 195.418 185.668 195.418C193.111 194.499 212.598 196.757 216.362 198.429C220.126 199.935 233.926 215.24 233.926 215.24Z" fill="#3CB4E7"/>
<path d="M213.101 226.196C213.101 226.196 206.995 236.484 201.057 244.345C198.799 247.356 197.962 251.622 195.286 252.207C196.457 251.789 198.464 245.6 199.133 244.178C199.802 242.756 200.973 241.418 203.399 236.483C205.824 231.633 209.086 224.44 209.086 224.44L213.101 226.196Z" fill="#5996EF"/>
<path d="M187.759 290.763C187.759 290.763 187.926 290.68 188.344 290.68C188.679 290.68 189.264 290.596 189.85 290.512C191.104 290.429 192.777 290.512 194.45 290.763C195.286 290.847 196.122 291.014 196.875 291.181C197.628 291.349 198.381 291.6 198.966 291.767C199.551 291.934 200.053 292.185 200.388 292.352C200.722 292.52 200.89 292.603 200.89 292.603C200.89 292.603 200.639 292.603 200.304 292.52C199.97 292.436 199.468 292.352 198.799 292.269C197.544 292.101 195.955 291.767 194.282 291.6C193.446 291.432 192.61 291.349 191.857 291.265C191.104 291.181 190.352 291.098 189.766 291.014C188.595 290.847 187.759 290.763 187.759 290.763Z" fill="black"/>
<path d="M265.707 190.735C265.456 190.735 264.118 191.822 263.449 192.408L264.202 190.902C264.202 190.902 265.205 189.898 265.624 189.397C265.958 188.811 265.791 188.309 265.54 188.309C265.373 188.309 264.118 189.229 263.365 189.815L263.533 189.48C263.533 189.48 264.536 188.477 264.955 187.975C265.289 187.389 265.122 186.888 264.871 186.888C264.62 186.888 262.195 188.811 262.195 188.811L261.024 190.317L261.86 188.644C261.86 188.644 262.278 188.058 262.613 187.473C262.947 186.888 262.696 186.72 262.529 186.469C262.362 186.302 260.773 187.473 260.355 187.891C259.936 188.393 258.682 190.317 258.598 190.568L257.26 193.327C257.176 192.491 257.009 191.153 256.926 190.317C256.758 189.062 255.671 188.811 255.587 189.397C255.587 189.982 254.918 192.993 255.086 194.582C255.253 196.171 255.504 197.258 255.587 198.178C255.671 199.098 254.751 200.938 254.751 200.938C254.751 200.938 258.515 203.28 259.184 202.611C259.769 201.942 261.107 200.353 261.776 199.266C262.696 197.844 263.282 195.92 263.282 195.92L264.453 193.411C264.453 193.411 265.456 192.408 265.875 191.906C266.209 191.237 266.042 190.735 265.707 190.735Z" fill="#FFC2C2"/>
<path d="M400.278 90.3718H319.402C314.969 90.3718 311.289 86.7755 311.289 82.2592C311.289 77.8265 314.885 74.1465 319.402 74.1465H400.278C404.71 74.1465 408.39 77.7428 408.39 82.2592C408.39 86.6919 404.794 90.3718 400.278 90.3718Z" fill="white" stroke="#3CB4E7" stroke-width="0.8956" stroke-miterlimit="10"/>
<path d="M399.107 81.6736C399.107 84.0154 397.183 85.9391 394.842 85.9391C392.5 85.9391 390.576 84.0154 390.576 81.6736C390.576 79.3318 392.5 77.4082 394.842 77.4082C397.183 77.4082 399.107 79.3318 399.107 81.6736Z" stroke="#3CB4E7" stroke-width="1.6716" stroke-miterlimit="10"/>
<path d="M397.853 84.7681L400.194 87.1099" stroke="#3CB4E7" stroke-width="1.6716" stroke-miterlimit="10" stroke-linecap="round"/>
<path d="M289.399 264H269.2C265.626 264 262.8 261.355 262.8 258.181V239.819C262.8 236.569 265.709 234 269.2 234H289.399C292.974 234 295.8 236.645 295.8 239.819V258.181C295.8 261.431 292.89 264 289.399 264Z" fill="#25408F"/>
<path d="M275.138 242.118L284.672 247.638C285.258 247.972 285.258 248.809 284.672 249.143L275.138 254.663C274.553 254.998 273.8 254.579 273.8 253.91V242.87C273.8 242.201 274.553 241.783 275.138 242.118Z" fill="white"/>
<path d="M480.317 310H453.721C449.037 310 445.273 306.236 445.273 301.553V274.956C445.273 270.273 449.037 266.509 453.721 266.509H480.317C485 266.509 488.764 270.273 488.764 274.956V301.553C488.764 306.236 485 310 480.317 310Z" fill="#3CB4E7"/>
<path d="M472.288 277.214C472.288 280.058 469.946 282.4 467.102 282.4C464.259 282.4 461.917 280.058 461.917 277.214C461.917 274.371 464.259 272.029 467.102 272.029C469.946 272.029 472.288 274.371 472.288 277.214Z" fill="white"/>
<path d="M477.892 294.945V302.639C477.892 303.309 477.306 303.894 476.637 303.894H457.401C456.732 303.894 456.146 303.309 456.146 302.639V294.945C456.146 288.923 460.997 284.072 467.019 284.072C473.041 283.989 477.892 288.923 477.892 294.945Z" fill="white"/>
<path d="M463.118 40.1007C466.615 25.5015 457.616 10.831 443.017 7.3332C428.418 3.83541 413.747 12.8349 410.249 27.434C406.752 42.0332 415.751 56.7037 430.35 60.2015C444.949 63.6993 459.62 54.6998 463.118 40.1007Z" stroke="#25408F" stroke-miterlimit="10"/>
<path d="M446.245 55.4206C458.2 50.1316 463.603 36.1532 458.314 24.1989C453.025 12.2446 439.047 6.84117 427.092 12.1301C415.138 17.419 409.735 31.3974 415.024 43.3518C420.313 55.3061 434.291 60.7095 446.245 55.4206Z" fill="#3CB4E7"/>
<path d="M438.833 33.7502C438.833 34.9211 437.83 35.9247 436.659 35.9247C435.488 35.9247 434.484 34.9211 434.484 33.7502C434.484 32.5793 435.488 31.5757 436.659 31.5757C437.913 31.5757 438.833 32.5793 438.833 33.7502Z" fill="white"/>
<path d="M436.491 33.3321C436.157 33.4994 435.739 33.4158 435.571 33.0812L428.63 20.5359C428.462 20.2013 428.546 19.7831 428.88 19.6159C429.215 19.4486 429.633 19.5322 429.8 19.8668L436.742 32.4121C436.909 32.7467 436.742 33.1649 436.491 33.3321Z" fill="white"/>
<path d="M436.993 34.0847C437.244 33.8338 437.662 33.8338 437.913 34.0847L443.935 40.1064C444.186 40.3574 444.186 40.7755 443.935 41.0264C443.684 41.2773 443.266 41.2773 443.015 41.0264L436.993 35.0047C436.742 34.7538 436.742 34.3356 436.993 34.0847Z" fill="white"/>
<path d="M436.826 14.8484V12.0884" stroke="white" stroke-width="2" stroke-miterlimit="10" stroke-linecap="round"/>
<path d="M455.645 33.9175H458.321" stroke="white" stroke-width="2" stroke-miterlimit="10" stroke-linecap="round"/>
<path d="M436.575 52.6519V55.4118" stroke="white" stroke-width="2" stroke-miterlimit="10" stroke-linecap="round"/>
<path d="M417.757 33.583H415.081" stroke="white" stroke-width="2" stroke-miterlimit="10" stroke-linecap="round"/>
<g opacity="0.5">
<path opacity="0.5" d="M427.376 17.2739L425.954 14.9321" stroke="#DEE3FC" stroke-miterlimit="10" stroke-linecap="round"/>
<path opacity="0.5" d="M453.136 24.3831L455.478 23.0449" stroke="#DEE3FC" stroke-miterlimit="10" stroke-linecap="round"/>
<path opacity="0.5" d="M446.026 50.2266L447.365 52.5684" stroke="#DEE3FC" stroke-miterlimit="10" stroke-linecap="round"/>
<path opacity="0.5" d="M420.266 43.1177L417.841 44.4559" stroke="#DEE3FC" stroke-miterlimit="10" stroke-linecap="round"/>
</g>
<g opacity="0.5">
<path opacity="0.5" d="M420.35 24.1326L418.008 22.7944" stroke="#DEE3FC" stroke-miterlimit="10" stroke-linecap="round"/>
<path opacity="0.5" d="M446.276 17.4414L447.615 15.0996" stroke="#DEE3FC" stroke-miterlimit="10" stroke-linecap="round"/>
<path opacity="0.5" d="M452.968 43.3682L455.31 44.7063" stroke="#DEE3FC" stroke-miterlimit="10" stroke-linecap="round"/>
<path opacity="0.5" d="M427.124 50.0591L425.702 52.4009" stroke="#DEE3FC" stroke-miterlimit="10" stroke-linecap="round"/>
</g>
<path d="M160.276 186.916H127.24C123.727 186.916 120.8 184.072 120.8 180.476V147.44C120.8 143.927 123.643 141 127.24 141H160.276C163.789 141 166.716 143.844 166.716 147.44V180.476C166.632 184.072 163.789 186.916 160.276 186.916Z" fill="#3CB4E7" stroke="white" stroke-miterlimit="10"/>
<path d="M151.661 158.731H151.41V156.138C151.41 151.789 147.897 148.276 143.632 148.276C139.283 148.276 135.854 151.789 135.854 156.138V158.731H135.77C134.599 158.731 133.596 159.734 133.596 160.905V170.774C133.596 171.945 134.599 172.949 135.77 172.949H151.661C152.832 172.949 153.836 171.945 153.836 170.774V160.905C153.836 159.734 152.916 158.731 151.661 158.731ZM137.777 156.138C137.777 152.96 140.37 150.284 143.632 150.284C146.81 150.284 149.487 152.876 149.487 156.138V158.731H137.777V156.138Z" fill="white"/>
<path d="M146.308 163.833C146.308 162.243 144.886 160.989 143.213 161.323C142.21 161.491 141.457 162.327 141.206 163.247C140.955 164.418 141.541 165.505 142.377 166.007C142.544 166.091 142.628 166.342 142.628 166.509L142.21 168.182C141.959 169.185 142.712 170.105 143.715 170.105C144.719 170.105 145.471 169.185 145.221 168.182L144.802 166.592C144.719 166.425 144.886 166.174 145.053 166.091C145.806 165.589 146.308 164.836 146.308 163.833Z" fill="#25408F"/>
<path d="M152.916 176.545H134.516C134.014 176.545 133.596 176.127 133.596 175.625C133.596 175.123 134.014 174.705 134.516 174.705H152.916C153.417 174.705 153.836 175.123 153.836 175.625C153.836 176.127 153.417 176.545 152.916 176.545Z" fill="white"/>
<path d="M152.916 179.723H134.516C134.014 179.723 133.596 179.305 133.596 178.803C133.596 178.301 134.014 177.883 134.516 177.883H152.916C153.417 177.883 153.836 178.301 153.836 178.803C153.836 179.305 153.417 179.723 152.916 179.723Z" fill="white"/>
<path d="M474.881 224.44H457.317C454.725 224.44 452.634 222.349 452.634 219.756V202.193C452.634 199.6 454.725 197.509 457.317 197.509H474.881C477.474 197.509 479.565 199.6 479.565 202.193V219.756C479.648 222.349 477.557 224.44 474.881 224.44Z" fill="#193091"/>
<path d="M473.794 222.098H454.307C452.216 222.098 450.543 220.426 450.543 218.335V198.848C450.543 196.757 452.216 195.084 454.307 195.084H473.794C475.885 195.084 477.557 196.757 477.557 198.848V218.335C477.557 220.426 475.885 222.098 473.794 222.098Z" fill="#3CB4E7" stroke="white" stroke-miterlimit="10"/>
<path d="M458.572 216.662C458.488 216.662 458.405 216.662 458.321 216.662C457.903 216.578 457.652 216.077 457.736 215.658L461.834 201.189C461.918 200.771 462.419 200.52 462.838 200.604C463.256 200.688 463.507 201.189 463.423 201.608L459.325 216.077C459.241 216.495 458.907 216.662 458.572 216.662Z" fill="white"/>
<path d="M465.431 216.662C465.347 216.662 465.263 216.662 465.18 216.662C464.761 216.578 464.511 216.077 464.594 215.658L468.692 201.189C468.776 200.771 469.278 200.52 469.696 200.604C470.114 200.688 470.365 201.189 470.281 201.608L466.183 216.077C466.1 216.495 465.765 216.662 465.431 216.662Z" fill="white"/>
<path d="M471.285 206.207H456.816C456.314 206.207 455.979 205.873 455.979 205.371C455.979 204.869 456.314 204.535 456.816 204.535H471.285C471.787 204.535 472.121 204.869 472.121 205.371C472.121 205.873 471.703 206.207 471.285 206.207Z" fill="white"/>
<path d="M471.285 212.815H456.816C456.314 212.815 455.979 212.48 455.979 211.978C455.979 211.477 456.314 211.142 456.816 211.142H471.285C471.787 211.142 472.121 211.477 472.121 211.978C472.121 212.397 471.703 212.815 471.285 212.815Z" fill="white"/>
<path d="M100.61 295.028C99.2721 295.028 97.9339 295.363 96.8467 296.032C96.4285 292.101 93.0831 289.09 89.0685 289.09C84.7195 289.09 81.2904 292.603 81.2904 296.868C81.2904 297.119 81.2904 297.454 81.374 297.705C81.0395 297.621 80.6213 297.621 80.2868 297.621C77.025 297.621 74.3486 300.298 74.3486 303.559C74.3486 306.821 77.025 309.497 80.2868 309.497H100.694C104.708 309.497 107.97 306.236 107.97 302.221C107.887 298.29 104.625 295.028 100.61 295.028Z" fill="white"/>
<path d="M83.0573 263.665C82.89 262.578 82.89 261.491 83.141 260.403C84.0609 256.807 85.1482 250.032 82.8064 242.756C78.8755 230.545 63.0684 219.756 63.0684 219.756C63.0684 219.756 67.3338 237.738 70.9301 245.433C73.5228 251.036 78.0392 257.392 80.5482 260.822C81.2173 261.742 81.7191 262.829 81.9701 264C84.5628 278.134 84.1446 289.09 84.1446 289.341L85.3155 289.425C85.3155 289.09 85.65 278.05 83.0573 263.665Z" fill="#25408F"/>
<path d="M95.6869 252.207C98.8651 242.254 100.287 230.545 100.287 230.545C100.287 230.545 86.0688 242.254 84.8979 251.287C84.1452 256.807 85.0652 261.323 85.9015 263.916C86.2361 265.003 86.3197 266.174 86.2361 267.345C84.8143 280.643 85.9015 290.93 85.9015 291.098L86.9888 291.014C86.9888 290.847 85.9015 281.312 87.1561 268.767C87.3233 267.011 87.9924 265.422 89.0797 264.083C91.1706 261.491 94.0978 257.309 95.6869 252.207Z" fill="#3CB4E7"/>
<path d="M110.156 230.127C110.156 230.127 94.8503 235.814 90.8358 248.276C88.4104 255.887 89.5813 262.912 90.5013 266.509C90.7522 267.512 90.7522 268.599 90.5013 269.603C86.9049 283.988 86.8213 298.876 86.8213 299.043H88.0758C88.0758 298.876 88.1595 284.323 91.5885 270.188C91.9231 268.767 92.5085 267.512 93.4285 266.341C96.0212 262.829 100.454 256.472 103.047 250.952C106.643 243.174 110.156 230.127 110.156 230.127Z" fill="#25408F"/>
<path d="M83.1415 282.818C82.7233 277.549 81.3015 272.865 79.6287 268.934C79.2942 268.181 79.1269 267.261 79.2942 266.425C79.5451 264.752 79.6287 262.243 78.9597 258.981C77.7051 252.876 69.5925 239.578 57.7998 238.825C57.7998 238.825 61.898 245.349 63.9889 250.785C66.6652 257.727 70.4288 264.92 76.7015 267.68C77.7888 268.181 78.6251 269.101 79.1269 270.189C80.6324 273.869 81.8869 278.134 82.2215 282.818H83.1415Z" fill="#3CB4E7"/>
<path d="M75.1963 309.665H94.5998L99.618 278.887C99.8689 277.549 98.7816 276.294 97.4434 276.294H72.3527C70.9309 276.294 69.9273 277.549 70.1782 278.887L75.1963 309.665Z" fill="#3E3E3E"/>
<path d="M1 309.665H544.8" stroke="white" stroke-width="1.1144" stroke-miterlimit="10" stroke-linecap="round"/>
<rect x="54.7998" y="309" width="457" height="1" fill="#3E3E3E"/>
</svg>
