<svg width="352" height="304" viewBox="0 0 352 304" fill="none" xmlns="http://www.w3.org/2000/svg">
<path opacity="0.5" d="M133.206 287.941L109.108 299.873C109.108 299.873 98.9009 305.211 92.7974 303.745C86.694 302.28 76.2761 296.524 76.2761 296.524L3.7715 250.367C3.7715 250.367 -2.12147 245.867 0.825016 243.669C3.7715 241.471 19.9772 227.027 19.9772 227.027L135.311 265.648L140.678 278.312C140.678 278.312 141.625 281.034 139.941 283.231C138.047 285.325 133.206 287.941 133.206 287.941Z" fill="#232323"/>
<path d="M84.9049 274.44C84.9049 274.44 78.0649 273.812 77.0126 277.057C76.0655 280.302 75.5393 281.453 74.1713 282.081C72.8033 282.709 69.5411 281.139 69.5411 281.139C69.5411 281.139 64.3848 275.278 64.3848 271.51C64.3848 267.637 64.5952 263.032 66.5946 261.462C68.594 259.892 75.855 258.636 75.855 258.636C75.855 258.636 83.7474 263.032 84.9049 265.23C86.0625 267.428 84.9049 274.44 84.9049 274.44Z" fill="#5B6363"/>
<path d="M32.7103 244.507C32.7103 244.507 25.4493 243.46 24.0813 245.867C22.7132 248.275 22.9237 250.996 21.1348 251.205C19.3458 251.414 15.2418 249.844 15.2418 249.844C15.2418 249.844 10.9273 243.041 10.7168 240.425C10.5064 237.808 11.3482 232.994 13.0319 231.11C14.8209 229.121 18.7144 226.4 22.608 228.179C26.5016 229.959 31.6579 233.203 32.605 235.192C33.5521 237.18 33.973 240.425 33.973 240.425L32.7103 244.507Z" fill="#5B6363"/>
<path d="M77.7495 284.279C78.907 287.837 78.8018 293.908 81.2221 294.85C82.5901 295.373 86.3785 291.919 87.7465 291.291C91.7453 289.303 92.5871 282.29 89.8511 276.534C87.3256 271.405 82.9058 269.521 79.8541 271.824C78.2756 272.975 74.4873 274.754 74.1716 277.266C73.9612 279.255 76.9076 282.081 77.7495 284.279Z" fill="#3B3F3F"/>
<path d="M24.2914 253.402C25.4489 256.961 25.3437 263.031 27.764 263.973C29.132 264.497 32.9204 261.043 34.2884 260.415C38.2872 258.426 39.129 251.414 36.393 245.657C33.8675 240.529 29.4477 238.645 26.396 240.947C24.8175 242.099 21.0292 243.878 20.7135 246.39C20.503 248.379 23.5548 251.204 24.2914 253.402Z" fill="#3B3F3F"/>
<path d="M139.942 277.999L115.95 290.977C115.95 290.977 109.109 294.85 105.532 295.478C101.849 296.106 96.9026 296.106 92.6934 293.699C88.4841 291.291 87.4318 288.675 87.4318 288.675C87.4318 288.675 86.6952 280.406 85.3271 278.104C84.0644 275.801 74.383 270.673 74.383 270.673C74.383 270.673 71.3313 269.626 71.0156 272.033C70.9104 272.766 71.0156 277.999 71.0156 277.999C71.0156 277.999 72.2784 283.023 69.7529 281.139C67.1221 279.255 37.0258 261.776 37.0258 261.776C37.0258 261.776 34.9212 260.206 34.1846 257.485C33.448 254.764 32.9218 249.321 31.3433 246.705C29.7649 244.088 20.9254 239.274 20.9254 239.274C20.9254 239.274 18.8208 238.75 18.2946 241.158C17.9789 242.414 18.2946 249.112 18.2946 249.112C18.2946 249.112 18.8208 251.31 15.4534 249.635C12.0859 248.065 7.03483 244.821 7.03483 244.821C7.03483 244.821 5.24589 243.879 4.19358 241.158C3.14126 238.436 1.56279 222.632 2.6151 211.015C3.66742 199.502 8.08715 187.465 8.08715 187.465C8.08715 187.465 16.8214 181.29 32.9218 173.231C47.0228 166.219 51.7583 166.01 51.7583 166.01C51.7583 166.01 55.1257 166.01 61.8605 168.94C63.9651 169.882 77.9609 176.999 90.4835 184.744C103.006 192.489 119.001 207.247 119.001 207.247C119.001 207.247 138.574 242.204 143.099 250.891C147.519 259.578 148.887 264.707 146.782 269.731C144.678 274.755 139.942 277.999 139.942 277.999Z" fill="#E8AB31"/>
<path d="M72.0668 288.36C73.8557 293.907 78.1702 297.361 81.8533 295.477C85.7469 293.489 86.7992 286.476 84.0632 280.72C81.6429 275.487 77.2231 273.603 74.2767 275.905C71.4354 277.999 70.4883 283.336 72.0668 288.36Z" fill="#4A4F4F"/>
<path d="M74.4872 287.419C75.5395 290.768 78.2755 292.966 80.4854 291.814C82.9057 290.558 83.5371 286.267 81.8534 282.709C80.3802 279.569 77.6441 278.313 75.8552 279.778C74.0663 281.034 73.4349 284.383 74.4872 287.419Z" fill="#7B8484"/>
<path d="M18.7144 257.38C20.5033 262.927 24.8178 266.381 28.5009 264.497C32.3945 262.508 33.4468 255.496 30.7108 249.74C28.2905 244.506 23.8707 242.622 20.9242 244.925C18.083 247.018 17.0307 252.356 18.7144 257.38Z" fill="#4A4F4F"/>
<path d="M21.1347 256.438C22.187 259.788 24.923 261.985 27.1329 260.834C29.5532 259.578 30.1846 255.287 28.5009 251.728C27.0276 248.589 24.2916 247.333 22.5027 248.798C20.7137 250.159 20.0823 253.403 21.1347 256.438Z" fill="#7B8484"/>
<path d="M13.0328 226.505C15.9793 228.389 16.9264 228.807 20.8199 230.901C24.7135 232.994 32.2902 237.913 32.2902 237.913C32.2902 237.913 86.9054 267.951 87.7472 268.684C88.4839 269.417 96.3762 271.929 101.533 271.719C105.847 271.51 103.006 263.765 103.006 263.765L114.792 283.232V291.501C112.687 292.652 108.267 294.85 105.637 295.268C101.954 295.896 97.0076 295.896 92.7984 293.489C88.5891 291.082 87.5368 288.465 87.5368 288.465C87.5368 288.465 86.8002 280.197 85.4321 277.894C84.1694 275.592 74.4881 270.463 74.4881 270.463C74.4881 270.463 71.4363 269.417 71.1207 271.824C71.0154 272.557 71.1207 277.79 71.1207 277.79C71.1207 277.79 72.3834 282.814 69.8579 280.93C67.2271 279.046 37.1308 261.567 37.1308 261.567C37.1308 261.567 35.0262 259.997 34.2896 257.276C33.553 254.555 33.0268 249.112 31.4483 246.495C29.8699 243.879 21.0304 239.064 21.0304 239.064C21.0304 239.064 18.9258 238.541 18.3996 240.948C18.0839 242.204 18.3996 248.903 18.3996 248.903C18.3996 248.903 18.9258 251.101 15.5584 249.426C12.1909 247.856 7.13983 244.612 7.13983 244.612C7.13983 244.612 5.24566 243.565 4.19335 240.844C3.35149 238.646 2.19394 224.307 2.29918 214.259C3.45672 215.934 4.40381 219.388 5.24566 220.748C6.82414 223.47 9.56016 224.307 13.0328 226.505Z" fill="#F7C546"/>
<path d="M52.2831 166.01C52.2831 166.01 55.6505 166.01 62.3854 168.94C64.49 169.882 78.0649 177.732 91.0084 184.744C105.215 192.489 119.526 207.247 119.526 207.247C119.526 207.247 139.099 242.204 143.624 250.891C148.044 259.578 149.412 264.707 147.307 269.731C145.203 274.859 140.467 277.894 140.467 277.894L116.369 290.977C116.369 290.977 109.529 294.85 105.951 295.478C104.268 295.792 102.373 295.896 100.479 295.792C104.688 295.059 108.687 286.895 105.425 279.15C103.531 274.754 78.591 228.493 78.591 228.493C78.591 228.493 76.5916 224.516 75.2236 223.365C73.8556 222.318 58.1761 212.061 43.7594 204.316C29.3426 196.571 11.348 186.419 9.66431 186.837C9.66431 186.837 17.5567 181.29 33.5519 173.231C47.4425 166.219 52.2831 166.01 52.2831 166.01Z" fill="#FFCC5A"/>
<path d="M33.4467 173.231C47.5477 166.219 52.2831 166.01 52.2831 166.01C52.2831 166.01 55.6505 166.01 62.3854 168.94C64.49 169.882 77.7492 175.848 92.0607 184.744C103.11 191.652 114.054 200.025 117.948 205.782C117.316 206.933 116.474 207.351 116.474 207.351C116.474 207.351 80.0643 223.679 76.0655 224.621C75.7498 224.098 75.3288 223.679 75.0132 223.47C73.6451 222.423 57.9656 212.166 43.5489 204.421C32.4996 198.455 19.4509 191.547 13.0317 188.512C10.9271 187.256 9.34863 186.942 9.34863 186.942C9.34863 186.942 17.3462 181.29 33.4467 173.231Z" fill="#FFDA8F"/>
<path d="M143.94 274.859C141.73 276.115 140.362 276.848 139.731 274.232C139.52 273.185 139.415 270.359 139.415 270.359C139.415 270.359 139.52 268.789 138.784 268.894C138.152 268.998 118.684 279.151 118.684 279.151C118.684 279.151 118.053 279.883 118.053 280.407C118.053 281.035 118.053 284.698 118.053 284.698C118.053 284.698 118.053 287 117.422 288.256C116.369 290.35 114.475 291.501 113.318 292.024C112.16 292.548 109.74 294.222 109.74 294.222L141.309 277.267L143.94 274.859Z" fill="#CE8D25"/>
<path d="M144.256 252.252L143.309 250.473L138.363 254.45L136.363 257.276L116.264 267.114L111.529 269.417L108.372 269.626L100.795 270.359L95.7439 269.94V273.394L98.6904 280.093L101.426 282.186L106.057 282.918L128.155 271.824L147.097 260.521L147.728 260.416L144.256 252.252Z" fill="#CE8D25"/>
<path d="M107.004 280.929C107.004 280.825 103.636 281.557 101.426 280.406C100.058 279.778 98.6903 278.104 98.2694 277.057C97.8485 276.01 96.9014 273.289 96.9014 272.766C96.9014 272.138 96.9014 271.091 96.9014 271.091L101.426 271.614L101.952 273.708L102.794 276.115L104.794 279.359L107.004 280.929Z" fill="#E55B35"/>
<path d="M132.575 234.249L119.632 212.166C119.632 212.166 109.845 218.027 103.321 220.643C96.7964 223.26 81.7483 229.644 81.7483 229.644L93.6395 253.089C93.6395 253.089 106.793 247.646 116.369 243.146C126.051 238.645 132.575 234.249 132.575 234.249Z" fill="#4F5656"/>
<path d="M101.532 221.795C108.056 219.179 117.842 213.317 117.842 213.317L130.786 235.401C130.786 235.401 128.366 237.285 122.367 240.425C122.367 240.425 113.317 241.158 105.215 235.611C99.1112 231.424 97.217 223.47 97.217 223.47C98.9007 222.842 100.374 222.318 101.532 221.795Z" fill="#6A7271"/>
<path d="M90.1666 253.717L77.8545 230.901L71.2249 227.342C71.2249 227.342 69.436 230.377 68.068 234.982C66.5947 239.588 66.3843 243.983 66.3843 243.983L86.9044 255.706L90.1666 253.717Z" fill="#444747"/>
<path d="M132.575 234.249L134.364 237.18C134.364 237.18 124.999 243.041 116.896 247.123C107.846 251.728 95.7443 256.543 95.7443 256.543L93.7449 253.089C93.7449 253.089 107.004 247.541 114.686 243.983C122.368 240.424 132.575 234.249 132.575 234.249Z" fill="#CE8D25"/>
<path d="M84.9047 274.649L87.746 263.031L91.9552 253.612V253.507L77.3281 226.295L71.2246 222.527L71.1194 222.632C71.1194 222.736 67.4363 228.179 65.7526 235.191C64.1741 241.785 63.0166 249.949 62.7009 254.658C62.3852 258.845 62.7009 270.253 62.7009 270.358V270.463L68.9095 273.916V270.358C68.9095 270.358 68.9095 266.799 69.7514 266.067C69.8566 265.962 70.0671 265.857 70.1723 265.962C71.7508 266.276 84.589 274.544 84.6943 274.649H84.9047ZM91.7448 253.612L87.5355 262.927L84.7995 274.23C83.221 273.184 71.856 265.962 70.2775 265.648C70.0671 265.648 69.7514 265.648 69.5409 265.857C68.4886 266.695 68.5938 270.253 68.5938 270.463V273.498L62.9113 270.358C62.9113 269.311 62.5956 258.845 62.9113 254.763C63.227 250.158 64.3846 241.994 65.963 235.296C67.5415 228.911 70.6985 223.783 71.2246 222.946L77.1176 226.504L91.7448 253.612Z" fill="#3B3F3F"/>
<path d="M85.8522 254.973C85.8522 254.973 84.7999 258.322 80.9063 258.008C77.0127 257.694 76.697 256.543 76.697 256.543C76.697 256.543 76.8022 253.508 79.5383 252.147C82.2743 250.787 85.8522 249.845 85.8522 249.845L86.694 251.205L84.7999 252.043L85.8522 254.973Z" fill="#3B3F3F"/>
<path d="M135.101 235.401C135.101 235.401 137.626 235.192 138.047 233.098C138.468 231.005 138.258 229.645 138.258 229.645C138.258 229.645 136.784 228.179 135.522 228.912C133.733 229.959 132.575 230.691 132.575 230.691L135.101 235.401Z" fill="#3B3F3F"/>
<path d="M147.097 259.16L139.731 264.079L136.363 265.753C136.363 265.753 134.785 262.823 135.416 261.253C136.048 259.683 138.994 254.764 138.994 254.764L143.309 251.414C143.309 251.414 143.624 251.1 145.097 254.24C147.202 258.532 146.992 259.474 147.097 259.16Z" fill="#DEDEFF"/>
<path d="M101.427 271.718L109.635 270.462C109.635 270.462 114.475 270.358 115.738 271.09C116.896 271.823 118.684 275.277 118.684 275.277L112.265 278.522L107.004 280.929C107.004 280.929 104.689 280.091 103.321 276.952C101.953 273.812 101.427 271.718 101.427 271.718Z" fill="#DEDEFF"/>
<path d="M136.784 261.252C136.784 262.508 137.732 263.554 138.994 263.554C140.257 263.554 141.204 262.508 141.204 261.252C141.204 259.996 140.257 258.949 138.994 258.949C137.732 258.949 136.784 259.996 136.784 261.252Z" fill="white"/>
<path d="M111.739 274.231C111.739 275.487 112.686 276.533 113.949 276.533C115.212 276.533 116.159 275.487 116.159 274.231C116.159 272.975 115.212 271.928 113.949 271.928C112.792 271.928 111.739 272.975 111.739 274.231Z" fill="white"/>
<path d="M9.66451 222.633C11.3482 222.633 12.7162 220.958 12.7162 218.865C12.7162 216.772 11.3482 215.097 9.66451 215.097C7.9808 215.097 6.61279 216.772 6.61279 218.865C6.61279 220.958 7.9808 222.633 9.66451 222.633ZM9.66451 215.411C11.243 215.411 12.5058 216.981 12.5058 218.97C12.5058 220.958 11.243 222.528 9.66451 222.528C8.08603 222.528 6.82326 220.958 6.82326 218.97C6.82326 216.981 8.08603 215.411 9.66451 215.411Z" fill="#444747"/>
<path d="M64.7005 225.667C64.7005 225.667 62.4906 230.587 60.4912 239.274C58.4918 247.961 58.3866 249.845 58.3866 249.845C58.3866 249.845 56.5977 251.414 55.0192 250.473C53.3355 249.531 25.0282 233.517 25.0282 233.517L19.7666 230.482C19.7666 230.482 17.4515 229.017 17.8724 227.028C18.2934 225.039 19.8718 216.038 22.2922 209.34C24.7125 202.746 23.9759 201.385 27.9747 201.385L60.9122 220.225C60.9122 220.225 64.3848 222.004 64.7005 223.051C65.0162 223.993 64.7005 225.667 64.7005 225.667Z" fill="#D3972D"/>
<path d="M29.5529 202.746C25.5541 202.746 26.396 204.002 23.8704 210.701C21.4501 217.294 19.8716 226.4 19.4507 228.389C19.2402 229.226 19.5559 229.959 19.9768 230.587L19.8716 230.482C19.8716 230.482 17.5565 229.017 17.9774 227.028C18.3984 225.039 19.9768 216.038 22.3971 209.34C24.8175 202.746 24.0809 201.385 28.0797 201.385L29.5529 202.746Z" fill="#B77A21"/>
<path d="M119.211 206.932C119.211 206.932 118.264 201.176 115.948 198.559C113.633 195.943 109.635 194.163 109.635 194.163L68.9099 212.165C68.9099 212.165 73.8558 214.363 75.4343 217.294C76.9075 220.329 77.3284 225.772 77.3284 225.772L119.211 206.932Z" fill="white"/>
<path d="M69.0151 220.225V212.061C69.0151 212.061 73.8558 213.84 75.1186 216.561C76.2761 219.283 76.4866 219.387 76.8023 221.166C77.118 223.05 77.4337 225.667 77.4337 225.667L69.0151 220.225Z" fill="#C8C6F7"/>
<path d="M72.4878 254.658C72.4878 255.077 72.4878 259.578 72.4878 259.578L66.2791 255.705C66.2791 255.705 65.5425 254.03 65.5425 252.46C65.5425 250.995 65.5425 250.053 65.5425 250.053L72.4878 254.658Z" fill="#3B3F3F"/>
<path d="M66.5948 253.613L72.4878 257.38V259.683L66.1739 255.81L65.5425 252.566L66.5948 253.613Z" fill="white"/>
<path d="M2.40445 221.166C2.40445 221.166 3.66774 223.783 4.6152 224.62C5.56267 225.457 6.19431 235.819 5.24685 235.4C4.29938 234.982 3.14137 234.249 3.14137 234.249C3.14137 234.249 2.40445 230.167 2.40445 226.923C2.29918 223.783 2.40445 221.166 2.40445 221.166Z" fill="#E55B35"/>
<path d="M5.56256 231.319C5.66783 233.622 5.56256 235.506 5.03619 235.401C4.08873 234.982 2.93071 234.25 2.93071 234.25C2.93071 234.25 2.61489 232.156 2.29907 229.854C3.56236 230.377 4.61509 230.9 5.56256 231.319Z" fill="#DEDEFF"/>
<path opacity="0.5" d="M29.4479 122.26C33.7624 126.342 61.6488 140.995 61.6488 140.995C61.6488 140.995 66.4894 143.088 72.8033 142.251C79.2224 141.413 153.516 103.316 153.516 103.316C153.516 103.316 162.882 98.6062 158.041 93.2684C155.515 90.4425 127.629 72.1265 127.629 72.1265L27.9746 109.91L27.4485 117.76L28.0799 120.062L29.4479 122.26Z" fill="#2B2A2A"/>
<path d="M71.8561 121.109C71.8561 121.109 80.8007 122.156 82.3792 123.725C83.9577 125.295 84.9048 127.703 86.2728 128.331C87.6408 128.959 89.3245 128.749 92.7971 127.284C96.2698 125.819 103.636 116.713 103.636 116.713L89.9559 104.363L70.3828 112.736L71.8561 121.109Z" fill="#191919"/>
<path d="M132.575 91.4881C132.575 91.4881 139.52 89.8135 141.309 92.0114C143.098 94.2094 144.045 96.7213 145.413 97.1399C146.781 97.5586 149.833 96.6166 149.833 96.6166C149.833 96.6166 154.042 90.0228 154.042 88.7669C154.147 87.5109 152.043 79.3472 152.043 79.3472L140.888 77.9866L134.259 82.4871L132.575 91.4881Z" fill="#191919"/>
<path d="M86.5888 128.331C85.326 131.366 85.1155 136.704 82.8004 137.436C81.5377 137.855 78.2755 134.61 77.1179 133.878C73.6453 131.889 73.2244 125.714 76.0656 120.795C78.5912 116.399 82.8004 115.038 85.4312 117.132C86.7992 118.283 90.1667 119.958 90.2719 122.26C90.3771 124.144 87.4306 126.447 86.5888 128.331Z" fill="#2B2A2A"/>
<path d="M141.73 99.4436C140.467 102.374 140.257 107.607 138.047 108.34C136.784 108.759 133.627 105.514 132.47 104.886C129.102 102.897 128.576 96.9317 131.417 92.1172C133.943 87.826 137.942 86.4653 140.572 88.5586C141.94 89.7099 145.203 91.3845 145.308 93.5824C145.413 95.3617 142.572 97.6643 141.73 99.4436Z" fill="#2B2A2A"/>
<path d="M90.4822 131.156C88.5881 135.866 84.3788 138.692 81.1166 136.913C77.644 134.924 77.1178 128.749 79.9591 123.83C82.4846 119.434 86.4834 117.969 89.1142 120.167C91.6398 122.155 92.2712 126.865 90.4822 131.156Z" fill="#515151"/>
<path d="M88.3777 130.11C87.2201 133.04 84.5893 134.715 82.6952 133.563C80.5905 132.308 80.2749 128.54 81.9586 125.504C83.537 122.783 85.9574 121.946 87.6411 123.202C89.1143 124.458 89.43 127.388 88.3777 130.11Z" fill="#7B8484"/>
<path d="M146.36 102.584C144.466 107.189 140.362 110.015 137.31 108.131C133.943 106.142 133.417 100.177 136.153 95.2574C138.573 90.9662 142.572 89.5009 145.098 91.5942C147.518 93.7921 148.044 98.3973 146.36 102.584Z" fill="#515151"/>
<path d="M144.255 101.747C143.098 104.572 140.572 106.247 138.678 105.2C136.573 104.049 136.258 100.281 137.941 97.3507C139.415 94.7341 141.835 93.7921 143.414 95.1527C144.992 96.304 145.308 99.1299 144.255 101.747Z" fill="#7B8484"/>
<path d="M53.8615 132.099C56.4923 133.878 62.3853 136.076 62.3853 136.076C62.3853 136.076 65.8579 137.541 68.594 136.495C71.33 135.448 75.9602 132.832 75.9602 132.832L77.7491 125.296C77.7491 125.296 78.591 120.691 82.695 117.655C85.7467 115.353 88.7984 114.62 88.7984 114.62C88.7984 114.62 93.3234 114.202 92.7972 120.167C92.5868 122.784 92.2711 124.563 92.2711 124.563C92.2711 124.563 92.0606 127.075 94.2705 126.552C96.4803 125.924 128.26 108.759 128.26 108.759C128.26 108.759 131.207 105.724 132.049 102.061C132.785 98.3974 134.574 91.385 134.574 91.385C134.574 91.385 135.942 88.1404 140.257 86.2565C143.308 84.8959 146.15 85.8378 146.15 85.8378C146.15 85.8378 147.833 87.6171 147.307 91.2803C146.676 94.9435 148.254 97.2461 149.307 97.0368C150.464 96.9321 153.411 95.4669 153.937 93.5829C154.463 91.699 160.251 76.5228 159.619 73.069C158.883 69.0918 158.883 67.7311 155.305 65.3239C151.727 62.9166 126.787 50.2524 126.787 50.2524C126.787 50.2524 121.841 47.6358 116.895 49.6244C111.949 51.613 111.949 51.613 111.949 51.613L100.9 45.8565C100.9 45.8565 96.1646 44.1819 93.0077 45.9612C87.4304 48.9964 61.9644 62.498 61.9644 62.498L50.4941 81.3373L31.0263 92.7456C31.0263 92.7456 23.4496 97.3508 23.0287 104.154C22.8182 107.084 22.713 109.596 22.713 109.596C22.713 109.596 22.1868 114.097 25.7647 116.19C29.2373 118.283 53.8615 132.099 53.8615 132.099Z" fill="#EA4970"/>
<path d="M159.935 72.9631C159.304 69.0905 159.199 67.8346 156.042 65.532L142.677 70.7651L134.469 61.3455L126.577 61.4501L94.5865 77.1496L84.5895 101.117L61.2281 117.236C61.2281 117.236 61.4385 121.213 61.2281 125.399C60.7019 133.982 61.2281 132.516 62.5961 134.296C63.9641 136.075 69.8571 135.761 69.8571 135.761C72.5931 134.61 75.9605 132.621 75.9605 132.621L77.7494 125.085C77.7494 125.085 78.5913 120.48 82.6953 117.445C85.747 115.142 88.7988 114.41 88.7988 114.41C88.7988 114.41 93.3237 113.991 92.7976 119.957C92.5871 122.573 92.2714 124.353 92.2714 124.353C92.2714 124.353 92.0609 126.865 94.2708 126.341C96.4807 125.713 128.261 108.549 128.261 108.549C128.261 108.549 131.207 105.513 132.049 101.85C132.786 98.1869 134.575 91.1744 134.575 91.1744C134.575 91.1744 135.943 87.9299 140.257 86.0459C143.309 84.6853 146.15 85.6273 146.15 85.6273C146.15 85.6273 147.834 87.4066 147.308 91.0698C146.676 94.733 148.255 97.0356 149.307 96.8262C150.464 96.7216 153.411 95.2563 153.937 93.3724C154.779 91.4884 160.567 76.3123 159.935 72.9631Z" fill="#C42653"/>
<path d="M156.043 68.0449C156.043 68.0449 157.621 68.7776 158.568 67.9403C158.042 67.4169 156.674 65.6377 155.727 65.0097C152.149 62.6024 127.209 49.9382 127.209 49.9382C127.209 49.9382 122.263 47.3216 117.318 49.3102C112.372 51.2988 112.372 51.2988 112.372 51.2988L101.322 45.5423C101.322 45.5423 95.6399 44.2864 91.3254 46.6936C85.7481 49.8335 62.2815 62.0791 62.2815 62.0791L50.4956 81.0231L31.1329 92.4314C31.1329 92.4314 27.976 94.2107 25.5557 97.5599C25.6609 98.5019 25.7661 99.2345 26.2923 99.7578C27.6603 101.328 37.6573 107.817 47.4438 112.945C52.074 115.353 59.335 122.365 60.3873 118.702C61.3344 115.457 85.7481 101.537 85.7481 101.537L85.9586 100.909L95.3242 79.4532L129.63 61.7651L142.889 72.9641L156.043 68.0449Z" fill="#EA4970"/>
<path d="M51.5469 81.9648L63.0171 63.7534L93.1134 80.0809L83.853 99.8622L51.5469 81.9648Z" fill="#586060"/>
<path d="M88.3777 98.7111L96.0596 81.023L111.529 72.7546C111.529 72.7546 112.476 75.6852 113.423 80.8137C114.475 86.5702 114.37 88.5588 114.37 88.5588L90.9033 101.118C90.9033 101.118 88.6934 101.642 88.2725 101.328C87.1149 100.7 88.3777 98.7111 88.3777 98.7111Z" fill="#515151"/>
<path d="M114.791 70.9752C114.791 70.9752 116.369 76.5223 116.895 79.6622C117.421 82.6974 117.947 86.7793 117.947 86.7793L139.625 75.685C139.625 75.685 140.888 74.9524 139.73 73.9057C138.678 72.8591 128.997 63.7534 128.997 63.7534L114.791 70.9752Z" fill="#515151"/>
<path d="M59.2298 134.715C56.2833 133.564 57.3356 130.005 57.3356 130.005L57.6513 125.086L25.5557 107.188C25.5557 107.188 25.24 110.224 25.24 112.945C25.24 115.666 28.2917 117.55 28.2917 117.55C35.7632 121.841 53.5473 131.889 53.5473 131.889C55.0205 132.831 57.3356 133.878 59.2298 134.715Z" fill="#C42653"/>
<path d="M48.3907 82.4883L31.0275 92.6406C31.0275 92.6406 27.8705 94.4199 25.4502 97.7691C25.5554 98.7111 25.6607 99.4437 26.1868 99.967C27.5548 101.537 37.5518 108.026 47.3384 113.155C51.9686 115.562 59.2295 122.574 60.2819 118.911C61.1237 116.085 79.7497 105.2 84.4851 102.479C73.7515 96.4085 57.6511 87.5121 48.3907 82.4883Z" fill="#F97393"/>
<path d="M26.9239 98.6064C26.9239 98.6064 37.1313 104.363 42.7086 107.398C48.6016 110.643 61.966 117.864 61.966 117.864L57.7567 120.69L26.1873 103.212L26.9239 98.6064Z" fill="#701E36"/>
<path d="M95.5334 79.3478L129.418 61.869C129.418 61.869 129.523 60.7177 127.734 59.6711C126.998 59.2525 120.368 55.6939 112.686 51.7167C112.476 51.8214 112.055 51.4027 112.055 51.4027L101.005 45.6462C101.005 45.6462 96.4805 43.7623 91.0085 46.7975C86.273 49.5188 67.0157 59.6711 62.9116 61.7644C73.1191 67.3115 88.4829 75.4753 95.5334 79.3478Z" fill="#F97393"/>
<path d="M51.6531 81.7551L50.706 80.7085L50.4956 81.0225L31.1329 92.4308C31.1329 92.4308 27.976 94.21 25.5557 97.5593C25.6609 98.1872 25.7661 98.6059 25.8714 99.0245L26.3975 98.5012C26.3975 98.5012 28.2917 95.0473 29.9754 94.21C31.6591 93.2681 49.6537 83.1158 49.6537 83.1158L51.6531 81.7551Z" fill="#EA4970"/>
<path d="M63.0171 63.7534L51.5469 81.9648L61.3334 87.4073C65.4375 87.4073 71.9618 87.512 75.4345 85.628C80.8013 82.6975 83.0111 78.6156 80.696 73.3824L63.0171 63.7534Z" fill="#7E8988"/>
<path d="M93.639 93.8965L99.111 96.6177C99.111 96.6177 100.269 97.5597 100.269 97.9783C100.269 98.5017 99.5319 100.281 98.9006 100.7C98.9006 100.7 97.9535 101.223 97.4273 100.909C96.7959 100.7 92.6919 98.2923 92.6919 98.2923C92.6919 98.2923 92.0605 98.6063 91.5343 99.339C91.1134 99.9669 90.7977 100.595 90.6925 100.595C90.482 100.595 90.1663 101.223 89.6402 100.804C89.114 100.281 89.114 99.8623 89.114 99.8623L93.639 93.8965Z" fill="#2B2A2A"/>
<path d="M99.2168 96.6177L93.6395 93.8965L92.4819 95.4664C94.2709 96.3037 98.5854 99.1296 98.6906 99.1296C98.9011 99.1296 98.9011 98.6063 98.4801 99.8623C98.2697 100.595 97.6383 100.7 97.0069 100.7C97.1121 100.804 97.3226 100.804 97.3226 100.909C97.954 101.118 98.7958 100.7 98.7958 100.7C99.5325 100.281 100.164 98.5017 100.164 97.9784C100.374 97.5597 99.2168 96.6177 99.2168 96.6177Z" fill="#7E8988"/>
<path d="M51.2308 79.9761L49.2314 78.6154L48.1791 77.8828C48.1791 77.8828 47.4425 77.1501 47.3372 76.6268C47.232 76.1035 48.2843 73.8009 48.2843 73.8009C48.2843 73.8009 49.0209 73.2776 49.5471 73.4869C50.0732 73.6963 53.6511 75.9988 53.6511 75.9988L51.2308 79.9761Z" fill="#2B2A2A"/>
<path d="M52.5987 77.2548L53.651 75.9988C53.651 75.9988 49.9679 73.6962 49.547 73.4869C49.0208 73.2776 48.2842 73.8009 48.2842 73.8009C48.2842 73.8009 47.1266 76.1035 47.3371 76.6268C47.4423 77.1501 48.179 77.8828 48.179 77.8828L47.8633 76.8361C47.5476 75.5802 48.9156 74.5336 48.9156 74.5336C48.9156 74.5336 49.0208 75.3709 49.8627 75.7895C50.2836 75.8942 51.2307 76.4175 52.5987 77.2548Z" fill="#7E8988"/>
<path d="M85.1155 115.875C87.1149 114.829 88.7986 114.41 88.7986 114.41C88.7986 114.41 93.3235 113.991 92.7974 119.957C92.5869 122.574 92.2712 124.353 92.2712 124.353C92.2712 124.353 92.0608 126.865 94.2706 126.342C96.4805 125.714 128.26 108.549 128.26 108.549C128.26 108.549 131.207 105.514 132.049 101.85C132.785 98.1872 134.574 91.1748 134.574 91.1748C134.574 91.1748 135.521 88.8722 138.363 86.9883L85.1155 115.875Z" fill="#DB315E"/>
<path d="M62.4906 134.296C63.8586 136.075 69.7515 135.761 69.7515 135.761C72.4876 134.61 75.855 132.621 75.855 132.621L77.6439 125.085C77.6439 125.085 78.3805 120.794 82.2741 117.759C78.1701 120.48 71.1195 125.295 67.7521 126.341C65.0161 127.283 62.4906 125.609 61.4382 124.457C60.9121 132.726 61.1225 132.516 62.4906 134.296Z" fill="#DB315E"/>
<path d="M141.52 85.6274C144.045 84.9994 146.15 85.6274 146.15 85.6274C146.15 85.6274 147.833 87.4066 147.307 91.0698C146.676 94.733 148.254 97.0356 149.307 96.8263C150.464 96.7216 153.411 95.2564 153.937 93.3724C154.463 91.4885 160.251 76.3123 159.619 72.8584C158.988 68.9859 159.725 70.7652 157.83 66.9973L156.462 67.5206C158.251 70.3465 156.778 69.6139 154.568 75.8937C152.885 81.0222 144.676 84.4761 141.52 85.6274Z" fill="#DB315E"/>
<path d="M154.673 64.3808C151.096 61.9735 128.366 50.3559 128.366 50.3559C128.366 50.3559 123.42 47.7393 118.474 49.7279C117.842 49.9372 117.316 50.1466 116.895 50.3559C124.998 54.8564 140.783 63.7528 150.464 69.0906L154.989 67.3113C154.989 67.3113 155.621 66.9973 156.568 66.16C156.041 65.7414 155.621 65.0087 154.673 64.3808Z" fill="#F97393"/>
<path d="M158.146 67.4166C158.146 67.4166 155.2 67.312 155.305 69.4052C155.305 71.4985 156.673 76.627 157.831 77.4643C158.672 78.0923 159.093 78.0923 159.093 78.0923C159.093 78.0923 160.882 74.3244 159.725 70.8705C158.672 67.4166 158.146 67.4166 158.146 67.4166Z" fill="#D61D1D"/>
<path d="M160.146 72.8586C159.725 73.382 159.409 73.8006 159.304 73.9053C158.883 74.1146 157.515 74.1146 156.147 73.8006C156.673 75.4752 157.304 77.0452 157.936 77.4638C158.778 78.0918 159.198 78.0918 159.198 78.0918C159.198 78.0918 160.356 75.6845 160.146 72.8586Z" fill="#C8C6F7"/>
<path d="M95.8491 122.155V121.946L95.7438 109.596C95.7438 109.491 96.0595 106.77 93.4287 106.037C90.798 105.2 88.7986 105.514 88.7986 105.514H88.6933L85.5364 101.641V101.537L95.4281 79.2435L112.897 70.2424V70.3471C112.897 70.3471 113.949 74.429 115.001 79.7668C116.054 84.9999 117.527 98.1875 117.632 98.3968L116.58 111.27L95.8491 122.155ZM90.377 105.305C91.2189 105.305 92.2712 105.514 93.4287 105.828C96.1648 106.665 95.8491 109.596 95.8491 109.596L95.9543 121.737L116.369 111.061L117.422 98.2922C117.422 98.1875 115.948 84.9999 114.791 79.7668C113.844 74.9523 112.897 71.1844 112.686 70.5564L95.4281 79.4528L85.8521 101.537L88.7986 105.305C89.009 105.305 89.5352 105.2 90.377 105.305Z" fill="#191919"/>
<path d="M116.369 111.375V111.166L117.421 98.2925C117.421 98.1878 115.738 85.0002 114.791 79.7671C113.949 74.4293 112.686 70.4521 112.686 70.3474V70.2427H112.791L128.892 61.9744L142.467 74.8479L141.73 83.0117C141.625 83.0117 136.153 85.9422 134.469 87.7215C132.891 89.2914 131.522 95.4666 130.891 99.0251C130.47 101.956 128.576 104.258 128.471 104.258L116.369 111.375ZM113.002 70.4521C113.212 71.0801 114.265 74.8479 115.106 79.7671C115.948 85.1049 117.632 98.1878 117.737 98.3971L116.685 111.061L128.471 104.363C128.576 104.154 130.365 102.06 130.786 99.2344C131.207 96.7225 132.575 89.6054 134.364 87.8262C135.942 86.1515 140.993 83.4303 141.625 83.1163L142.361 75.1619L128.892 62.393L113.002 70.4521Z" fill="#191919"/>
<path d="M29.2374 118.178C29.2374 118.178 26.291 113.573 28.1851 114.934C31.4473 117.131 53.4407 129.168 53.4407 129.168C53.4407 129.168 52.0727 131.261 55.5453 132.936C59.2284 134.715 29.2374 118.178 29.2374 118.178Z" fill="#701E36"/>
<path d="M110.16 94.3145L113.949 92.3259C113.949 92.3259 115.738 93.5819 115.632 94.3145C115.527 95.1518 114.896 95.9891 113.633 96.6171C112.37 97.2451 109.95 97.1404 109.845 96.1984C109.634 95.4658 110.16 94.3145 110.16 94.3145Z" fill="#701E36"/>
<path d="M110.792 94.5245C110.792 94.5245 110.161 95.1524 111.002 95.4664C111.844 95.6758 113.002 95.7804 113.633 95.4664C114.791 94.9431 115.212 93.8965 115.212 93.8965C115.212 93.8965 115.527 94.4198 115.527 94.8385C115.527 95.3618 114.791 95.9898 113.949 96.4084C113.002 96.9317 111.318 97.2457 111.108 97.2457C110.897 97.2457 109.529 97.769 109.213 96.9317C108.898 96.0944 109.634 94.4198 110.055 94.3151C110.581 94.3151 110.792 94.5245 110.792 94.5245Z" fill="#F97393"/>
<path d="M134.469 81.755L138.468 79.8711C138.468 79.8711 140.257 81.0224 140.151 81.8597C140.046 82.697 139.415 83.5343 138.152 84.2669C136.889 84.8949 134.153 84.5809 134.048 83.7436C133.838 82.697 134.469 81.755 134.469 81.755Z" fill="#701E36"/>
<path d="M135.416 81.9644C135.416 81.9644 134.785 82.5924 135.626 82.9064C136.468 83.2204 137.626 83.2204 138.257 82.9064C139.415 82.3831 139.836 81.3364 139.836 81.3364C139.836 81.3364 140.151 81.8597 140.151 82.2784C140.151 82.8017 139.415 83.4297 138.573 83.8483C137.626 84.3716 135.942 84.6856 135.732 84.6856C135.521 84.6856 134.153 85.2089 133.837 84.3716C133.522 83.5343 134.258 81.8597 134.679 81.7551C135.1 81.6504 135.416 81.9644 135.416 81.9644Z" fill="#F97393"/>
<path d="M44.392 107.713C44.2867 108.759 43.7604 109.492 43.1287 109.492C42.4971 109.492 41.9707 108.655 42.076 107.608C42.1813 106.561 42.7076 105.829 43.3393 105.829C43.9709 105.829 44.392 106.771 44.392 107.713Z" fill="#992E48"/>
<path d="M43.5498 107.503C43.4445 108.445 43.0234 109.073 42.3918 109.073C41.8654 109.073 41.4443 108.236 41.4443 107.399C41.5496 106.457 41.9707 105.829 42.6023 105.829C43.234 105.829 43.6551 106.561 43.5498 107.503Z" fill="#F0F0FF"/>
<path d="M23.3447 102.165C23.3447 102.165 24.397 99.1294 25.5546 97.5595C27.3435 95.1522 27.7645 94.9429 27.7645 94.9429C27.7645 94.9429 31.4476 98.8154 32.2894 101.641C33.2365 104.363 31.4476 106.351 31.4476 106.351L23.3447 102.165Z" fill="#F0F0FF"/>
<path d="M50.9153 116.922C50.9153 116.922 52.3885 114.305 53.8618 113.572C55.335 112.84 61.8594 113.468 63.5431 113.782C65.2268 114.096 66.9105 114.619 67.0157 115.98C67.121 117.34 66.8053 119.224 66.8053 119.224C66.8053 119.224 66.7 120.48 65.332 121.527C63.4378 122.887 61.4384 122.678 61.4384 122.678L50.9153 116.922Z" fill="#F0F0FF"/>
<path d="M62.4907 116.818C61.1227 118.493 59.9651 120.481 59.5442 121.528L61.5436 122.574C61.5436 122.574 63.543 122.679 65.4372 121.423C66.8052 120.481 66.9104 119.121 66.9104 119.121C66.9104 119.121 67.2261 117.237 67.1209 115.876C67.0156 114.934 66.1738 114.411 65.0162 114.097C63.7535 115.143 62.9116 116.295 62.4907 116.818Z" fill="#F9762D"/>
<path d="M27.9749 95.4668C28.2906 95.0481 28.0802 95.1528 27.6592 94.7341C27.2383 95.1528 26.7121 95.8854 25.7651 97.0367C24.397 98.816 23.3447 102.165 23.3447 102.165L24.5023 102.689C24.5023 102.689 25.7651 98.3973 27.9749 95.4668Z" fill="#F9762D"/>
<path d="M74.0657 62.7067L90.587 71.603C92.0603 72.4404 93.8492 72.4404 95.3225 71.7077L99.8474 69.5098C100.795 68.9865 100.9 67.6258 99.8474 67.1025L83.1156 57.7875C81.7476 57.0549 80.1691 57.0549 78.8011 57.7875L73.9604 60.2994C73.1186 60.8227 73.0133 62.1834 74.0657 62.7067Z" fill="#586060"/>
<path d="M83.1162 57.7875C81.7482 57.0549 80.1697 57.0549 78.8017 57.7875L73.961 60.2994C73.014 60.8227 73.014 62.1834 73.961 62.7067L77.8546 64.7999C80.4854 65.5326 84.6947 66.3699 87.6412 65.4279C89.1144 64.9046 90.9033 64.0673 92.587 63.0207L83.1162 57.7875Z" fill="#7E8988"/>
<path d="M98.6907 99.1301L99.6381 97.0369C99.6381 97.0369 100.691 97.7695 100.27 99.2348C100.059 100.072 99.954 100.491 98.9012 101.014C97.8485 101.537 97.1116 100.805 97.1116 100.805L98.6907 99.1301Z" fill="#F9762D"/>
<path d="M48.1795 77.8822C48.1795 77.8822 47.9689 76.2075 48.39 75.3702C48.8111 74.5329 49.8639 73.591 49.8639 73.591L48.7058 73.1723C48.7058 73.1723 47.9689 73.0676 47.4425 74.3236C46.9162 75.5796 46.8109 76.2075 47.232 76.9402C47.6531 77.6728 48.1795 77.8822 48.1795 77.8822Z" fill="#F9762D"/>
<path opacity="0.5" d="M328.832 135.867L305.997 147.171C305.997 147.171 296.315 152.194 290.422 150.939C284.529 149.683 274.532 144.554 274.532 144.554L204.553 103.003C204.553 103.003 198.871 98.921 201.607 96.8277C204.343 94.8391 219.707 81.2329 219.707 81.2329L330.516 115.248L335.777 126.866C335.777 126.866 336.724 129.378 335.041 131.367C333.567 133.355 328.832 135.867 328.832 135.867Z" fill="#232323"/>
<path d="M282.846 127.284C282.846 127.284 275.374 125.191 272.323 127.388C269.271 129.586 270.849 130.214 269.166 131.47C267.482 132.622 263.167 132.203 263.167 132.203C263.167 132.203 256.012 125.714 255.801 125.295C255.591 124.772 256.327 117.445 256.327 117.445L272.638 112.84L283.477 118.701L282.846 127.284Z" fill="#4F5454"/>
<path d="M227.178 91.9087C227.178 91.9087 222.022 90.6527 219.707 92.8506C217.392 95.0485 218.023 97.2465 216.024 98.3978C214.024 99.5491 212.025 99.7584 211.604 99.8631C211.183 99.9677 207.5 96.3045 207.395 95.8858C207.184 95.3625 207.5 88.2454 207.5 88.2454L212.867 83.1169L220.022 84.2682L227.178 91.9087Z" fill="#4F5454"/>
<path d="M273.796 135.448C274.848 138.483 274.848 143.716 277.058 144.449C278.321 144.868 281.688 141.937 282.846 141.309C286.318 139.53 287.055 133.564 284.529 128.645C282.214 124.249 278.215 122.679 275.585 124.668C274.217 125.714 270.849 127.179 270.639 129.377C270.428 131.157 273.164 133.564 273.796 135.448Z" fill="#363D3D"/>
<path d="M218.023 101.537C219.075 104.468 219.075 109.492 221.18 110.224C222.338 110.643 225.6 107.712 226.757 107.189C230.125 105.41 230.861 99.6533 228.336 94.9434C226.126 90.7569 222.232 89.187 219.707 91.1756C218.339 92.2222 215.077 93.6875 214.866 95.7807C214.656 97.3507 217.287 99.6533 218.023 101.537Z" fill="#363D3D"/>
<path d="M333.778 125.505C333.041 125.505 307.26 138.902 307.26 138.902C307.26 138.902 306.839 140.995 305.786 142.356C304.839 143.716 298.104 145.286 294.632 145.6C291.159 145.914 285.371 145.496 284.319 143.402C283.267 141.309 282.109 131.471 280.32 128.645C278.531 125.819 270.744 121.528 268.955 122.051C267.166 122.574 264.957 123.412 265.272 125.191C265.588 126.97 265.377 130.424 265.377 130.424C265.377 130.424 265.167 132.727 263.168 132.308C261.168 131.785 227.599 109.91 227.599 109.91C227.599 109.91 226.547 109.387 226.021 106.561C225.495 103.735 225.389 93.7921 222.548 92.0129C219.812 90.2336 214.972 87.7217 214.972 87.7217C214.972 87.7217 212.762 88.0357 212.235 89.8149C211.815 91.5942 212.341 98.9206 212.341 98.9206C212.341 98.9206 211.815 100.491 210.341 99.7579C208.868 99.0253 205.08 96.4087 204.238 94.9434C203.501 93.3735 200.87 88.4543 201.291 84.7911C201.712 81.1279 200.87 76.2087 203.08 73.8015C205.29 71.3942 237.07 56.6367 237.07 56.6367C237.07 56.6367 240.543 55.2761 244.015 56.5321C247.488 57.788 263.694 61.6606 264.43 61.9745C265.167 62.1839 273.586 58.9393 273.586 58.9393C273.586 58.9393 276.742 58.6253 278.321 59.4626C279.584 60.0906 293.474 65.4284 301.156 70.0336C302.945 71.0802 311.364 76.2087 311.364 76.2087C311.364 76.2087 313.468 78.302 314.31 79.7673C316.836 84.0585 322.308 91.8035 324.307 93.1641C326.833 94.9434 336.83 99.7579 336.83 99.7579C336.83 99.7579 340.828 104.782 341.355 108.131C341.881 111.48 338.198 120.063 338.198 120.063C338.198 120.063 338.829 121.528 337.145 123.098C335.462 124.668 336.198 127.18 335.356 126.97C335.041 126.552 333.778 125.505 333.778 125.505Z" fill="#005CFF"/>
<path d="M201.502 84.6866C201.923 81.2327 201.186 76.5228 203.08 74.1156C203.712 75.0575 204.764 75.7902 204.764 75.7902L223.495 81.8606L243.279 73.9062L275.585 91.8036L281.162 114.411C281.162 114.411 289.791 121.423 294.316 121.423C295.894 121.423 300.525 121.319 300.525 121.319C300.525 121.319 330.095 106.98 333.146 104.782C336.303 102.584 337.251 99.6534 337.251 99.6534C337.251 99.6534 341.144 101.851 341.881 105.201C343.143 110.643 342.091 116.923 342.091 116.923C342.091 116.923 341.355 122.575 339.566 124.145C337.882 125.715 336.619 127.075 335.777 126.866C335.041 126.656 333.778 125.61 333.778 125.61C333.041 125.61 307.259 139.007 307.259 139.007C307.259 139.007 306.839 141.1 305.786 142.461C304.839 143.821 298.104 145.391 294.632 145.705C291.159 146.019 285.371 145.601 284.319 143.507C283.267 141.414 282.109 131.576 280.32 128.75C278.531 125.924 270.744 121.633 268.955 122.156C267.166 122.679 264.956 123.517 265.272 125.296C265.588 127.075 265.377 130.529 265.377 130.529C265.377 130.529 265.167 132.832 263.167 132.413C261.168 131.89 227.599 110.015 227.599 110.015C227.599 110.015 226.547 109.492 226.021 106.666C225.495 103.84 225.389 93.8969 222.548 92.1176C219.812 90.3384 214.971 87.8265 214.971 87.8265C214.971 87.8265 212.761 88.1404 212.235 89.9197C211.814 91.699 212.341 99.0254 212.341 99.0254C212.341 99.0254 211.814 100.595 210.341 99.8627C208.868 99.1301 205.08 96.5135 204.238 95.0482C203.712 93.2689 201.081 88.3498 201.502 84.6866Z" fill="#135CDA"/>
<path d="M322.307 93.1637C322.307 93.1637 317.677 86.5699 315.362 83.2207C313.047 79.8715 311.153 77.2549 311.153 77.2549L277.268 93.687L282.109 112.108C282.109 112.108 282.846 113.259 283.687 113.259C284.529 113.259 322.413 94.4196 322.413 94.4196L322.307 93.1637Z" fill="#505454"/>
<path d="M273.48 92.9551C273.164 93.4784 270.113 110.12 270.113 110.12L279.268 115.458C279.268 115.458 275.585 95.5716 274.427 93.7924C273.48 92.3271 273.48 92.9551 273.48 92.9551Z" fill="#444747"/>
<path d="M270.533 91.6985L266.64 108.026L249.487 97.9783L255.275 83.0115L270.533 91.6985Z" fill="#444747"/>
<path d="M252.749 81.8607L246.961 96.5136L230.65 86.8846L226.862 84.7913C226.862 84.7913 224.863 83.64 226.862 82.2794C228.861 80.9188 242.647 75.7903 242.647 75.7903L252.749 81.8607Z" fill="#444747"/>
<path d="M309.995 74.953L310.416 75.6857L309.995 76.209L278.005 91.6991C278.005 91.6991 275.374 92.8504 274.111 92.1178C273.164 91.5944 269.797 89.6058 269.797 89.6058L256.853 82.2794L251.381 79.2442L242.542 74.2204L272.323 58.6256C272.323 58.6256 274.848 56.7416 277.268 57.3696C279.689 57.9976 280.215 58.5209 280.215 58.5209L304.629 71.6038L309.995 74.953Z" fill="#6CA1FF"/>
<path d="M258.433 60.2997L218.234 80.1857L204.765 75.7899L203.081 74.1153C203.081 74.1153 206.659 71.2894 219.918 64.9049C233.282 58.5205 237.281 56.6365 237.281 56.6365C237.281 56.6365 238.86 55.6946 241.28 55.9039C243.805 56.1132 246.226 56.7412 246.226 56.7412L258.433 60.2997Z" fill="#6CA1FF"/>
<path d="M311.048 77.2549C311.048 77.2549 312.942 79.8715 315.257 83.2207C317.572 86.5699 322.202 93.1637 322.202 93.1637V94.4196C322.202 94.4196 316.835 97.0362 310.101 100.385L309.89 100.176C309.89 100.176 301.998 100.49 294.105 95.6756C289.16 92.6404 287.897 88.3492 287.897 88.3492L311.048 77.2549Z" fill="#7E8988"/>
<path d="M268.85 139.007C270.533 143.717 274.427 146.647 277.689 144.973C281.162 143.193 281.898 137.228 279.478 132.308C277.268 127.912 273.375 126.343 270.639 128.331C268.113 130.11 267.376 134.716 268.85 139.007Z" fill="#434949"/>
<path d="M270.954 138.17C272.007 141.1 274.427 142.88 276.426 141.833C278.531 140.786 279.057 137.019 277.479 134.088C276.111 131.367 273.69 130.425 272.112 131.576C270.533 132.727 270.007 135.553 270.954 138.17Z" fill="#8D9998"/>
<path d="M213.182 104.572C214.761 109.073 218.549 111.899 221.706 110.329C225.073 108.654 225.81 102.898 223.39 98.0832C221.285 93.792 217.497 92.3267 214.866 94.2106C212.551 95.9899 211.709 100.49 213.182 104.572Z" fill="#434949"/>
<path d="M215.287 103.735C216.234 106.561 218.55 108.235 220.549 107.293C222.654 106.247 223.074 102.688 221.601 99.7577C220.233 97.1411 217.918 96.1992 216.445 97.3504C214.866 98.5017 214.34 101.223 215.287 103.735Z" fill="#8D9998"/>
<path d="M231.914 85.2101C231.914 85.2101 231.177 87.8267 228.02 87.6174C224.863 87.408 224.653 86.4661 224.653 86.4661C224.653 86.4661 224.653 84.0588 226.862 83.0122C229.072 81.9656 231.914 81.2329 231.914 81.2329L232.545 82.2795L231.072 83.0122L231.914 85.2101Z" fill="#363D3D"/>
<path d="M223.811 93.374L269.797 121.947C269.481 121.947 269.271 121.947 269.06 121.947C267.271 122.47 265.061 123.308 265.377 125.087C265.693 126.866 265.482 130.32 265.482 130.32C265.482 130.32 265.272 132.623 263.272 132.204C261.273 131.681 227.704 109.806 227.704 109.806C227.704 109.806 226.652 109.283 226.126 106.457C225.599 104.05 225.494 96.7232 223.811 93.374Z" fill="#4F80FF"/>
<path d="M212.34 89.8141C211.814 91.5934 212.445 98.9198 212.445 98.9198C212.445 98.9198 211.919 100.49 210.446 99.7571C208.973 99.0245 205.184 96.4079 204.343 94.9426C203.606 93.3727 200.975 88.4535 201.396 84.7903C201.712 82.1737 201.396 78.9292 202.028 76.4172L204.974 81.9644L214.445 87.8255C213.919 87.9302 212.656 88.4535 212.34 89.8141Z" fill="#4F80FF"/>
<path d="M297.473 129.691C297.894 127.179 295.789 123.307 295.789 123.307L295.894 122.679C297.578 122.155 299.683 121.527 300.314 121.423L304.418 128.435L301.472 144.344C299.157 144.972 296.42 145.495 294.632 145.704C291.159 146.018 285.371 145.6 284.319 143.507C283.267 141.413 282.109 131.575 280.32 128.749C280.32 128.749 291.896 133.982 293.895 134.087C296 134.087 297.052 132.308 297.473 129.691Z" fill="#4F80FF"/>
<path d="M299.893 137.96C300.735 134.82 300.419 129.482 298.841 126.97C297.578 124.877 295.158 122.784 293.895 122.156C295.578 121.737 300.524 121.214 300.524 121.214C300.524 121.214 330.094 106.875 333.146 104.677C336.303 102.479 337.25 99.5486 337.25 99.5486C337.25 99.5486 341.144 101.747 341.88 105.096C343.143 110.538 342.091 116.818 342.091 116.818C342.091 116.818 341.354 122.47 339.565 124.04C337.882 125.61 336.619 126.97 335.777 126.761C335.04 126.552 333.778 125.505 333.778 125.505C333.041 125.505 309.364 137.751 309.364 137.751C309.364 137.751 308.838 139.844 307.891 141.205C306.417 143.298 298.104 145.286 294.631 145.6C298.63 144.03 299.051 141.1 299.893 137.96Z" fill="#005CFF"/>
<path d="M338.618 100.595C338.618 100.595 340.933 102.793 338.618 104.049C333.462 106.875 304.734 120.9 304.734 120.9C304.734 120.9 299.788 124.772 293.684 122.261C291.79 121.423 291.685 121.423 288.423 119.644C288.002 119.435 287.265 119.016 286.95 118.911C286.213 118.493 286.529 118.074 286.529 118.074L287.055 117.341L288.002 116.818L330.515 96.1995L337.04 99.6533L338.618 100.595Z" fill="#6CA1FF"/>
<path d="M245.804 118.387L246.751 100.071L254.749 80.918L254.643 80.8133L243.173 74.3242H243.068L223.39 82.6973L222.337 87.0931C222.232 87.1978 222.232 87.4071 224.442 89.3957C226.862 91.5936 226.967 95.0475 226.967 95.0475L228.546 107.607H228.651L245.804 118.387ZM254.433 81.0227L246.541 99.9667L245.593 117.759L229.072 107.398L227.494 95.0475C227.494 94.9429 227.388 91.3843 224.863 89.1864C223.39 87.8258 222.969 87.4071 222.863 87.3025L223.916 83.1159L243.384 74.8475L254.433 81.0227Z" fill="#494F4F"/>
<path d="M262.536 128.436V128.122C262.536 128.017 263.483 116.295 264.64 114.202C265.693 112.213 266.85 112.632 266.955 112.736L267.166 112.841V112.632L272.533 91.0711L272.428 90.9665L254.538 80.7095L246.435 99.9675L245.488 118.179L245.594 118.284L262.536 128.436ZM266.535 112.318C266.008 112.318 265.061 112.632 264.325 114.097C263.272 116.086 262.431 126.029 262.22 127.913L245.909 118.074L246.856 100.177L254.749 81.3374L272.217 91.2804L266.955 112.422C266.745 112.318 266.64 112.318 266.535 112.318Z" fill="#494F4F"/>
<path d="M240.227 101.118C240.753 101.851 242.332 102.374 243.279 102.06C244.226 101.851 244.962 100.7 244.752 100.072C244.541 99.2342 243.7 98.5016 242.963 98.1876C242.226 97.8736 241.7 97.769 240.964 97.9783C239.911 98.3969 239.385 99.2343 239.596 99.9669C239.806 100.909 240.227 101.118 240.227 101.118Z" fill="#515656"/>
<path d="M243.489 101.852C243.173 101.852 240.227 99.968 240.227 99.968C240.227 99.968 239.28 99.026 239.701 98.5027C240.122 97.9793 243.384 100.177 243.384 100.177C243.384 100.177 245.594 100.805 244.541 101.538C243.594 102.061 243.489 101.852 243.489 101.852Z" fill="#DEDEFF"/>
<path d="M230.019 82.6978L231.072 85.3143C231.072 85.3143 229.914 87.3029 226.652 86.7796C224.968 86.5703 225.494 86.2563 225.494 86.2563C225.494 86.2563 224.863 86.361 225.915 84.791C226.126 84.3724 226.757 84.0584 227.073 83.849C228.546 83.0117 230.019 82.6978 230.019 82.6978Z" fill="#7E8988"/>
<path d="M206.342 81.8601V83.8487C206.342 83.8487 206.237 85.1046 204.764 84.5813C203.922 84.2673 202.764 83.744 202.764 83.744L201.817 83.116V80.3948H204.448L206.342 81.8601Z" fill="#1358BC"/>
<path d="M202.449 75.2661L203.501 77.0454C203.501 77.0454 204.238 77.8827 204.974 78.1967C205.711 78.406 206.237 78.8247 206.237 78.8247V81.8599C206.237 81.8599 206.237 84.0578 205.08 83.6392C203.922 83.2205 203.185 82.9065 202.449 82.3832C201.923 81.9645 201.607 81.3366 201.607 81.3366C201.607 81.3366 201.502 77.3594 201.817 76.8361C202.133 76.3127 202.449 75.2661 202.449 75.2661Z" fill="#F9762D"/>
<path d="M331.042 110.224L309.364 121.737L303.997 130.633L296.105 132.622L293.684 130.738C293.684 130.738 294.105 133.878 295.263 134.715C296.42 135.553 298.841 137.018 301.366 136.076C309.785 133.145 342.301 115.667 342.301 115.667C342.301 115.667 342.617 113.364 342.512 111.689C342.407 110.015 337.25 109.177 337.25 109.177L331.042 110.224Z" fill="#5F91FF"/>
<path d="M342.197 113.887C342.197 113.887 335.251 118.178 334.199 118.178C333.147 118.178 333.252 117.969 332.62 116.504C331.989 115.038 331.147 110.224 331.147 110.224C331.147 110.224 332.726 109.177 334.094 108.549C335.462 107.921 339.46 105.933 339.46 105.933C339.46 105.933 340.828 105.409 340.828 104.467C340.828 103.525 340.513 102.897 340.513 102.897C340.513 102.897 341.46 104.467 341.67 105.409C341.881 106.456 342.196 108.654 342.302 110.224C342.512 111.794 342.197 113.887 342.197 113.887Z" fill="#EA3636"/>
<path d="M292.948 124.039C292.948 124.039 294.316 125.609 295.579 126.028C297.473 126.551 298.42 126.342 298.42 126.342C298.42 126.342 302.629 124.876 304.944 123.83C307.154 122.888 309.364 121.737 309.364 121.737C309.364 121.737 310.627 125.4 310.732 126.551C310.943 128.016 311.679 129.586 309.785 130.528C307.891 131.47 301.577 134.401 301.577 134.401C301.577 134.401 298.631 134.087 297.368 133.459C295.684 132.517 294.632 132.412 294.632 132.412C294.632 132.412 293.895 132.203 293.369 129.482C292.738 126.865 292.948 124.039 292.948 124.039Z" fill="#EA3636"/>
<path d="M304.944 142.774C305.996 142.251 306.733 140.89 307.364 139.425C307.996 137.855 307.68 133.354 307.68 133.354L334.093 119.958C334.093 119.958 335.356 124.772 336.093 125.191C336.829 125.609 337.987 125.191 337.987 125.191H338.092C336.935 126.237 336.093 126.97 335.461 126.865C334.725 126.656 333.462 125.609 333.462 125.609C332.725 125.609 309.048 137.855 309.048 137.855C309.048 137.855 308.522 139.948 307.575 141.309C307.154 141.937 305.996 142.669 304.523 143.193C304.734 142.983 304.839 142.879 304.944 142.774Z" fill="#1358BC"/>
<path d="M283.582 125.924C283.688 125.924 283.793 125.924 283.793 125.819C284.003 125.715 284.108 125.401 284.108 125.087V122.156C284.108 121.528 283.688 120.796 283.267 120.586L280.11 119.016C279.899 118.912 279.689 118.912 279.478 119.016C279.268 119.121 279.163 119.435 279.163 119.749V122.679C279.163 123.307 279.584 124.04 280.004 124.249L283.056 125.924C283.372 125.924 283.477 125.924 283.582 125.924ZM279.794 119.016C279.899 119.016 280.004 119.016 280.11 119.121L283.161 120.796C283.582 121.005 283.898 121.633 284.003 122.261V125.191C284.003 125.505 283.898 125.715 283.793 125.819C283.688 125.924 283.477 125.924 283.372 125.819L280.32 124.145C279.899 123.935 279.584 123.307 279.478 122.679V119.749C279.478 119.435 279.584 119.226 279.689 119.121C279.689 119.016 279.689 119.016 279.794 119.016Z" fill="#4F5656"/>
<path d="M333.988 108.445C334.409 108.236 334.935 108.027 335.566 107.713L336.724 113.155L337.25 116.714L336.408 117.132C335.356 117.656 334.409 118.074 334.093 118.074C333.041 118.074 333.146 117.865 332.515 116.4C331.883 114.934 331.042 110.12 331.042 110.12C331.042 110.12 332.62 109.178 333.988 108.445Z" fill="#F9762D"/>
<path d="M332.515 116.504C332.305 116.19 332.199 115.667 332.094 115.039C332.41 115.039 332.726 115.143 332.936 115.143C333.567 114.934 333.988 114.725 333.988 114.725L342.512 109.91C342.512 110.015 342.512 110.224 342.512 110.329C342.617 111.899 342.407 113.678 342.407 113.678C342.407 113.678 335.251 118.074 334.199 118.074C333.041 118.283 333.147 117.969 332.515 116.504Z" fill="#F0EFF9"/>
<path d="M304.103 124.25C304.418 124.145 304.734 124.04 304.944 123.936C307.154 122.994 309.364 121.843 309.364 121.843C309.364 121.843 310.627 125.506 310.732 126.657C310.943 128.122 311.679 129.692 309.785 130.634C308.943 131.053 307.365 131.786 305.786 132.623L304.103 124.25Z" fill="#F9762D"/>
<path d="M294.632 132.517C294.632 132.517 293.895 132.307 293.369 129.586C293.264 129.063 293.158 128.54 293.158 128.016C294.421 129.691 296.21 130.424 297.052 130.738C298.104 131.052 299.893 131.156 301.261 130.633C302.314 130.214 308.207 127.702 310.837 126.551C311.048 128.016 311.784 129.586 309.89 130.528C307.996 131.47 301.682 134.401 301.682 134.401C301.682 134.401 298.946 134.924 297.473 134.505C295.684 133.982 294.632 132.517 294.632 132.517Z" fill="#F0EFF9"/>
<path d="M258.221 112.003C258.747 112.736 260.326 113.259 261.273 112.945C262.22 112.736 262.957 111.585 262.746 110.957C262.536 110.12 261.694 109.387 260.957 109.073C260.221 108.759 259.695 108.654 258.958 108.864C257.906 109.282 257.379 110.12 257.59 110.852C257.906 111.689 258.221 112.003 258.221 112.003Z" fill="#515656"/>
<path d="M261.484 112.631C261.168 112.631 258.221 110.747 258.221 110.747C258.221 110.747 257.274 109.806 257.695 109.282C258.116 108.759 261.378 110.957 261.378 110.957C261.378 110.957 263.588 111.585 262.536 112.317C261.589 112.945 261.484 112.631 261.484 112.631Z" fill="#DEDEFF"/>
<path d="M340.407 111.166L342.513 110.015C342.513 110.119 342.513 110.329 342.513 110.433C342.618 112.003 342.407 113.783 342.407 113.783C342.407 113.783 341.565 114.306 340.513 114.934C340.618 114.411 340.618 113.678 340.513 112.527C340.513 112.003 340.407 111.585 340.407 111.166Z" fill="#C8C6F7"/>
<path d="M293.369 129.587C293.264 129.064 293.158 128.54 293.158 128.017C294.421 129.692 296.21 130.424 297.052 130.738C297.999 131.052 299.578 131.157 300.84 130.738C301.156 132.099 301.472 133.46 301.682 134.402C301.367 134.402 298.841 134.925 297.578 134.506C295.789 133.878 294.737 132.413 294.737 132.413C294.737 132.413 293.895 132.204 293.369 129.587Z" fill="#C8C6F7"/>
<path d="M193.714 134.611C190.347 133.878 186.348 134.611 182.034 137.123C170.879 143.507 161.934 158.788 161.934 171.138C161.934 175.848 163.302 179.406 165.617 181.709C166.775 182.86 169.511 184.326 171.089 184.744L177.93 188.512L205.395 140.995L197.818 136.913C196.871 135.762 195.398 134.925 193.714 134.611Z" fill="#F39B13"/>
<path d="M218.97 93.373C211.709 89.5005 199.292 86.4652 182.244 95.9896C163.724 106.247 149.938 126.447 142.256 140.157C138.152 147.379 138.994 155.02 143.835 155.962L146.36 157.322L153.095 161.09L195.293 113.154C200.449 112.736 204.553 114.096 207.5 115.562C210.552 117.132 215.077 114.829 218.339 110.119C219.496 108.444 220.443 106.561 217.497 102.374L229.178 99.8621L218.97 93.373Z" fill="#F39B13"/>
<path d="M241.384 51.927C230.861 46.2752 210.552 40.9374 182.034 55.6949C150.991 71.813 129.418 103.107 119 121.214C114.896 128.331 115.633 135.971 120.368 137.332C120.684 137.437 123.315 139.007 123.63 139.111L130.786 143.089L164.039 97.7694L209.92 69.8244C219.707 69.7197 227.073 72.6503 231.493 75.0575C234.65 76.7321 239.28 74.3249 242.437 69.3011V69.1964C242.542 69.0917 242.542 68.9871 242.647 68.8824L245.594 68.7777L251.487 59.0441L245.699 54.5436L241.384 51.927Z" fill="#F39B13"/>
<path d="M274.427 16.4461L266.009 10.3756C254.328 2.42124 226.336 -9.71968 181.297 13.4109C180.876 13.6202 180.35 13.9342 179.929 14.1435C132.259 39.0533 102.479 82.2792 89.5352 104.572C86.273 110.12 85.4312 115.039 87.7463 118.074L90.0613 120.377L91.4294 121.109C91.9555 121.528 94.0601 122.574 94.6915 122.679L102.479 126.761L116.159 107.817L172.668 42.7165L204.343 25.6564C230.335 18.5394 247.067 26.0751 254.749 31.2036C257.695 33.1922 262.326 30.9943 265.588 26.0751C267.166 23.6678 268.113 21.0513 268.534 18.644L274.427 16.4461Z" fill="#F39B13"/>
<path d="M273.796 32.25C270.639 37.1692 266.114 39.2624 263.168 37.3785C253.697 30.994 229.809 20.737 191.084 41.251C190.663 41.4603 190.242 41.6697 189.926 41.879C149.307 63.9629 124.683 100.804 114.475 118.597C111.213 124.354 105.951 127.807 102.058 126.761C97.2173 125.505 96.4806 117.76 100.585 110.643C113.318 88.4541 142.677 45.5422 189.611 20.5277C190.032 20.3184 190.558 20.0044 190.979 19.7951C235.386 -3.33547 262.957 8.49146 274.533 16.4459C278.005 18.8531 277.689 26.2842 273.796 32.25Z" fill="#FFE465"/>
<path d="M251.276 74.9517C248.119 79.9756 243.489 82.3828 240.437 80.7082C232.44 76.3124 215.287 70.6605 191.505 83.4294C191.189 83.5341 190.979 83.7434 190.663 83.8481C166.881 96.931 150.57 121.422 142.782 135.028C139.626 140.576 134.574 143.925 130.786 142.983C126.051 141.727 125.419 134.086 129.418 127.074C139.731 109.072 160.988 78.0916 191.61 61.8688C221.075 46.3787 241.7 53.2865 251.592 58.9383C255.38 61.2409 255.275 68.6719 251.276 74.9517Z" fill="#FFE465"/>
<path d="M153.937 161.404C149.096 160.462 148.255 152.822 152.253 145.705C159.935 131.994 173.51 112.003 191.715 101.746C208.552 92.3268 220.864 95.2573 227.915 99.0252C231.914 101.223 231.703 109.282 227.284 115.667C224.021 120.376 219.602 122.679 216.55 121.109C211.604 118.597 203.08 116.504 191.821 122.888C179.929 129.691 170.564 143.821 165.302 153.345C162.356 158.893 157.62 162.137 153.937 161.404Z" fill="#FFE465"/>
<path d="M211.183 152.927C211.288 164.963 202.659 179.93 191.82 186.419C180.876 193.013 171.931 188.512 171.826 176.266C171.721 164.021 180.666 148.845 191.61 142.46C202.449 136.181 211.183 140.89 211.183 152.927Z" fill="#FFE465"/>
<path opacity="0.3" d="M202.133 270.149C207.184 275.069 239.595 292.338 239.595 292.338C239.595 292.338 245.173 294.745 252.539 293.699C259.905 292.547 345.248 244.821 345.248 244.821C345.248 244.821 356.087 238.96 350.299 232.575C347.247 229.226 314.836 207.352 314.836 207.352L201.712 260.73L199.818 264.602L200.555 267.428L202.133 270.149Z" fill="#696772"/>
<path d="M249.066 268.684C249.066 268.684 259.379 269.836 261.273 271.615C263.167 273.394 264.325 276.429 265.903 277.162C267.482 277.895 275.9 277.685 280.846 273.708C284.319 270.882 285.792 262.614 285.792 262.614L269.691 247.961L247.277 258.532L249.066 268.684Z" fill="#4F5454"/>
<path d="M313.678 235.925C313.678 235.925 321.676 233.727 323.781 236.448C325.885 239.065 326.938 242.1 328.516 242.623C330.095 243.146 333.567 241.89 333.567 241.89C333.567 241.89 338.303 233.727 338.408 232.261C338.513 230.796 335.882 220.853 335.882 220.853L322.939 219.388L315.362 224.935L313.678 235.925Z" fill="#4F5454"/>
<path d="M266.219 277.162C264.746 280.825 264.64 287.419 262.01 288.361C260.536 288.884 256.748 285.012 255.38 284.174C251.276 281.767 250.75 274.231 253.907 268.266C256.853 262.823 261.589 261.149 264.64 263.66C266.219 265.021 270.112 267.01 270.323 269.731C270.533 271.929 267.166 274.755 266.219 277.162Z" fill="#363D3D"/>
<path d="M324.307 245.449C322.939 249.113 322.728 255.497 320.203 256.334C318.729 256.858 315.046 252.985 313.678 252.253C309.679 249.95 309.153 242.624 312.31 236.658C315.152 231.425 319.782 229.645 322.833 232.157C324.412 233.518 328.2 235.506 328.411 238.123C328.411 240.321 325.149 243.147 324.307 245.449Z" fill="#363D3D"/>
<path d="M270.744 280.617C268.64 286.478 263.799 289.932 260.116 287.734C256.117 285.327 255.381 277.896 258.538 271.825C261.379 266.383 266.009 264.603 269.061 267.115C272.007 269.523 272.744 275.279 270.744 280.617Z" fill="#434949"/>
<path d="M268.324 279.255C266.956 282.814 264.115 285.012 261.799 283.651C259.379 282.186 258.958 277.58 260.852 273.813C262.536 270.463 265.483 269.417 267.377 270.987C269.06 272.452 269.481 276.01 268.324 279.255Z" fill="#7B8484"/>
<path d="M329.673 249.217C327.569 254.869 322.939 258.323 319.255 256.125C315.362 253.822 314.625 246.496 317.782 240.53C320.518 235.192 325.148 233.413 328.095 235.925C330.831 238.332 331.568 243.984 329.673 249.217Z" fill="#434949"/>
<path d="M327.253 248.067C325.99 251.521 323.149 253.614 320.834 252.358C318.414 250.893 317.993 246.392 319.887 242.834C321.571 239.589 324.412 238.542 326.201 240.008C327.99 241.473 328.411 244.927 327.253 248.067Z" fill="#7B8484"/>
<path d="M245.909 287.629C245.909 287.629 244.857 287.525 219.391 273.291C205.08 265.336 200.239 259.37 200.239 259.37L198.976 257.172L194.03 245.555C194.03 245.555 188.874 237.914 195.819 233.205C197.713 231.949 209.92 224.518 209.92 224.518L217.602 204.527C218.339 202.538 219.812 200.968 221.601 200.026L254.012 183.49C256.538 182.234 259.484 182.338 261.905 183.804L278.11 193.537L283.477 193.851L299.578 189.246C299.578 189.246 304.313 189.455 307.996 191.025C310.522 192.072 345.774 210.074 345.774 210.074L305.576 234.356L259.379 253.091L246.962 276.221L245.909 287.629Z" fill="#835EDB"/>
<path d="M255.275 247.962L261.063 225.878L298.315 204.736L317.256 216.563L345.879 210.074C345.879 210.074 349.036 213.528 348.405 217.924C348.405 217.924 348.405 226.402 347.037 229.541C345.669 232.681 344.617 232.891 343.249 234.251C341.881 235.612 339.145 238.229 334.935 240.74C332.62 242.101 330.937 240.008 330.621 239.694C330.305 239.38 332.199 230.693 328.937 229.96C325.57 229.227 316.941 234.147 316.309 238.856C315.152 247.962 314.205 253.195 314.205 253.195C314.205 253.195 312.942 255.812 309.259 258.01C305.576 260.208 279.689 273.814 279.689 273.814L275.795 275.279C275.795 275.279 271.796 274.965 271.691 272.035C271.586 269.104 272.217 265.232 272.217 264.394C272.217 263.557 270.323 258.638 267.166 259.684C264.009 260.731 258.011 264.813 256.432 267.744C254.854 270.674 254.012 281.245 254.012 281.245C254.012 281.245 254.538 284.594 249.908 286.688C244.857 288.885 242.647 284.804 241.279 281.036C239.701 276.745 237.701 271.511 237.07 269.418C235.702 264.499 234.965 260.522 238.227 258.219C244.436 253.509 255.275 247.962 255.275 247.962Z" fill="#653BB7"/>
<path d="M212.13 224.098L220.127 204.944L258.221 225.877L252.539 246.914L212.13 224.098Z" fill="#505454"/>
<path d="M212.13 223.994L227.283 232.577C228.546 232.786 240.963 233.414 243.384 227.658C245.804 221.901 243.173 219.912 239.595 215.517L220.127 204.736L212.13 223.994Z" fill="#7E8988"/>
<path d="M257.695 247.961L263.378 226.61L279.583 217.19C279.583 217.19 280.741 219.598 282.109 226.087C283.477 232.367 283.372 235.192 283.372 235.192L258.537 248.799L257.695 247.961Z" fill="#444747"/>
<path d="M282.846 215.62C282.846 215.62 285.477 222.214 286.108 225.563C286.634 228.808 287.265 233.099 287.265 233.099L312.521 220.539C312.521 220.539 314.626 218.551 313.679 217.4C312.732 216.144 311.469 215.516 311.469 215.516L298.315 207.143L282.846 215.62Z" fill="#444747"/>
<path d="M263.588 250.787L267.903 248.38C267.903 248.38 270.007 249.845 269.902 250.787C269.797 251.729 269.06 252.776 267.692 253.613C266.219 254.45 263.483 254.241 263.272 253.194C263.062 252.252 263.588 250.787 263.588 250.787Z" fill="#3F2877"/>
<path d="M268.008 249.741C268.008 249.741 268.955 250.16 268.324 250.788C267.587 251.416 266.535 252.044 265.798 252.044C264.43 251.939 263.483 251.102 263.483 251.102C263.483 251.102 263.378 251.834 263.694 252.358C264.009 252.881 265.062 253.3 266.009 253.404C267.166 253.509 268.955 253.09 269.06 252.881C269.166 252.776 270.849 252.672 270.744 251.625C270.639 250.578 269.06 249.008 268.64 249.218C268.113 249.322 268.008 249.741 268.008 249.741Z" fill="#A194ED"/>
<path d="M291.475 235.088L296.105 232.681C296.105 232.681 298.21 234.042 298.104 234.983C297.999 235.925 297.263 237.077 295.895 237.914C294.421 238.751 291.264 238.333 291.054 237.286C290.843 236.239 291.475 235.088 291.475 235.088Z" fill="#3F2877"/>
<path d="M237.175 269.835C237.701 271.824 239.806 277.162 241.384 281.453C242.752 285.116 244.962 289.303 250.013 287.105C254.644 285.116 254.117 281.662 254.117 281.662C254.117 281.662 254.959 271.091 256.538 268.161C258.116 265.23 264.114 261.148 267.271 260.102C270.428 259.055 272.322 263.974 272.322 264.811C272.322 265.649 271.691 269.521 271.796 272.452C271.902 275.382 275.9 275.696 275.9 275.696L279.794 274.231C279.794 274.231 305.681 260.625 309.364 258.427C313.047 256.229 314.31 253.612 314.31 253.612C314.31 253.612 315.257 248.379 316.415 239.274C317.046 234.564 325.675 229.645 329.042 230.377C332.41 231.11 330.516 239.797 330.726 240.111C331.042 240.425 332.725 242.518 335.041 241.157C339.355 238.646 342.933 236.238 344.301 234.878C345.669 233.517 345.774 233.098 347.142 229.959C348.51 226.819 348.51 218.341 348.51 218.341C349.142 213.945 345.985 210.491 345.985 210.491L345.143 210.701C345.564 212.375 345.774 213.736 345.774 214.678C345.564 218.864 337.566 222.632 337.566 222.632C337.566 222.632 260.537 262.09 254.223 265.649C249.172 268.475 248.856 270.463 244.436 269.521C239.911 268.579 238.438 258.427 238.438 258.427C235.07 260.939 235.807 264.916 237.175 269.835Z" fill="#7F45DB"/>
<path d="M274.848 271.929V271.72L275.374 263.033C275.374 263.033 276.005 260.835 273.48 257.904C271.06 254.973 269.376 254.764 264.114 256.857C262.325 257.59 259.379 259.474 259.379 259.474L259.274 259.579L255.801 249.008L261.799 225.249L280.53 214.573V214.678C280.53 214.678 281.793 218.341 283.372 224.516C284.95 230.692 285.371 234.459 285.371 234.459L287.371 250.892L286.634 265.44L274.848 271.929ZM275.69 263.033L275.164 271.51L286.634 265.335L287.371 250.892L285.371 234.459C285.371 234.459 284.845 230.692 283.372 224.516C282.004 218.969 280.846 215.515 280.636 214.887L262.22 225.354L256.222 249.008L259.589 259.265C260.116 258.951 262.641 257.381 264.325 256.648C269.586 254.555 271.375 254.764 273.901 257.695C276.216 260.73 275.69 262.823 275.69 263.033Z" fill="#494F4F"/>
<path d="M286.528 265.545L287.265 250.787C287.265 250.578 284.95 232.367 284.003 227.343C282.951 222.319 280.53 214.783 280.53 214.678V214.574H280.636L298.42 204.526H298.525L317.467 216.353L318.098 218.028L319.992 228.494H319.887C319.887 228.494 316.625 231.215 315.467 232.576C314.415 233.832 313.573 236.658 312.836 241.158C311.889 246.705 311.153 251.311 311.153 251.311V251.415L286.528 265.545ZM280.741 214.783C281.056 215.62 283.266 222.633 284.213 227.343C285.266 232.367 287.476 250.683 287.581 250.892L286.949 265.231L311.153 251.415C311.258 250.892 311.889 246.496 312.836 241.263C313.573 236.658 314.52 233.832 315.467 232.576C316.519 231.32 319.361 228.808 319.887 228.494L317.993 218.237L317.361 216.667L298.525 204.84L280.741 214.783Z" fill="#494F4F"/>
<path d="M295.684 234.041C295.684 234.041 296.631 234.46 296 235.088C295.263 235.716 294.211 236.344 293.474 236.344C292.106 236.239 291.159 235.402 291.159 235.402C291.159 235.402 291.054 236.134 291.369 236.658C291.685 237.181 292.737 237.6 293.684 237.704C294.842 237.809 296.631 237.39 296.736 237.181C296.841 237.076 298.525 236.972 298.42 235.925C298.315 234.878 296.736 233.308 296.315 233.518C295.894 233.518 295.684 234.041 295.684 234.041Z" fill="#A194ED"/>
<path d="M235.597 270.359L238.228 258.114L247.488 252.462L207.29 229.646C203.712 231.843 199.398 234.46 198.345 235.088C191.4 239.798 193.926 245.45 193.926 245.45L198.135 250.264L235.597 270.359Z" fill="#9681EA"/>
<path d="M262.325 224.83L298.736 204.212L284.74 196.257L278.531 193.013L262.325 183.279C259.905 181.814 256.959 181.709 254.433 182.965L222.022 199.502C221.18 199.92 220.443 200.548 219.812 201.176L262.325 224.83Z" fill="#9681EA"/>
<path d="M308.206 190.921C306.944 190.397 305.47 189.979 304.208 189.769C301.787 190.293 300.104 190.816 300.104 190.816L287.265 195.212L321.571 215.412L340.513 211.121L341.354 207.562C336.619 205.259 310.522 191.967 308.206 190.921Z" fill="#9681EA"/>
<path d="M342.722 208.503C342.722 208.503 341.775 210.073 342.301 211.015C342.828 211.957 343.985 218.342 343.985 218.342C343.985 218.342 345.353 221.586 346.932 220.121C348.51 218.656 348.615 216.144 348.3 214.783C347.774 212.271 345.985 210.283 345.985 210.283L342.722 208.503Z" fill="#F9762D"/>
<path d="M250.96 195.839L270.218 206.305C271.902 207.247 274.006 207.247 275.69 206.305L280.846 203.479C282.004 202.851 282.004 201.177 280.846 200.549L261.378 189.769C259.8 188.931 258.011 188.931 256.432 189.769L250.96 192.908C249.803 193.432 249.803 195.211 250.96 195.839Z" fill="#505454"/>
<path d="M261.378 189.664C259.8 188.827 258.011 188.827 256.432 189.664L250.96 192.804C249.803 193.432 249.803 195.107 250.96 195.735L255.485 198.142C258.432 198.979 263.378 200.026 266.85 198.77C268.534 198.142 270.639 196.991 272.533 195.735L261.378 189.664Z" fill="#7E8988"/>
<path d="M203.501 252.985L196.766 248.484L200.134 255.915L237.386 277.267L234.334 269.626L237.175 269.312L227.809 266.277L203.501 252.985Z" fill="#653BB7"/>
<path d="M208.658 266.383C208.658 266.383 206.974 265.859 206.132 261.359C205.29 256.858 207.71 256.963 207.71 256.963L225.284 268.266C225.284 268.266 224.547 269.836 225.074 272.558C225.6 275.279 229.599 278.837 229.599 278.837L217.076 271.93L208.658 266.383Z" fill="#653BB7"/>
<path d="M202.133 245.031L231.703 260.835L226.547 265.65L196.766 249.322L202.133 245.031Z" fill="#765ACC"/>
<path d="M227.81 266.277L237.702 271.51C237.702 271.51 241.911 269.836 242.332 266.277C242.963 261.358 242.963 256.544 239.596 257.067C236.334 257.59 234.545 259.579 234.545 259.579C234.545 259.579 227.494 259.056 225.705 262.3C223.916 265.44 227.81 266.277 227.81 266.277Z" fill="#D61D1D"/>
<path d="M195.293 248.38C197.924 249.95 202.87 252.671 202.87 252.671C202.87 252.671 203.922 252.985 204.027 251.311C204.132 249.008 203.396 244.822 198.45 241.263C197.713 240.74 197.187 240.321 196.871 240.112C196.871 240.007 196.135 237.6 193.609 235.611C193.504 235.507 193.399 235.507 193.294 235.402C190.137 240.007 193.925 245.45 193.925 245.45L195.293 248.38Z" fill="#D61D1D"/>
<path d="M204.027 251.52C204.027 250.787 204.133 250.369 203.922 249.427C200.555 247.543 195.293 244.194 192.768 242.833C193.294 244.508 194.03 245.659 194.03 245.659L195.293 248.694C197.924 250.264 202.87 252.985 202.87 252.985C202.87 252.985 203.922 253.195 204.027 251.52Z" fill="#C8C6F7"/>
<path d="M215.814 254.973C216.13 256.125 215.814 257.276 215.182 257.485C214.445 257.695 213.603 256.962 213.287 255.811C212.972 254.659 213.287 253.508 213.919 253.299C214.551 252.985 215.393 253.822 215.814 254.973Z" fill="#3F2877"/>
<path d="M214.762 255.078C215.078 256.125 214.762 257.172 214.13 257.381C213.498 257.59 212.761 256.858 212.446 255.811C212.13 254.764 212.446 253.718 213.077 253.508C213.709 253.299 214.446 253.927 214.762 255.078Z" fill="#F0F0FF"/>
<path d="M200.028 247.124L204.132 249.531C203.817 247.228 202.449 244.193 198.66 241.367C197.924 240.844 197.397 240.425 197.082 240.216C197.082 240.216 197.082 240.216 198.765 242.728C200.554 245.24 200.028 247.124 200.028 247.124Z" fill="#F9762D"/>
<path d="M234.65 259.265C234.65 259.265 227.599 258.742 225.81 261.986C224.968 263.556 225.389 264.498 226.021 265.126L230.651 263.975C230.651 263.975 232.124 261.358 234.018 260.835C235.912 260.312 235.912 260.312 235.912 260.312C235.912 260.312 236.649 259.16 238.122 258.114C239.701 257.067 240.332 257.172 240.332 257.172C236.965 256.962 234.65 259.265 234.65 259.265Z" fill="#F9762D"/>
<path d="M240.964 264.603C238.859 266.173 236.86 266.382 236.86 266.382L226.652 261.359C226.336 261.673 226.126 261.882 225.915 262.301C224.442 264.708 226.863 265.65 226.863 265.65L237.807 271.511C237.807 271.511 242.016 269.836 242.437 266.278C242.542 265.127 242.647 264.08 242.752 263.033C242.121 263.557 241.595 264.185 240.964 264.603Z" fill="#C8C6F7"/>
<path d="M219.391 226.296L243.594 239.902C243.594 239.902 244.331 240.635 244.962 240.007C245.594 239.379 245.068 238.542 245.068 238.542L220.864 225.145C220.864 225.145 220.022 224.412 219.496 225.04C218.865 225.773 219.391 226.296 219.391 226.296Z" fill="#D61D1D"/>
<path d="M219.391 224.935L243.594 238.542C243.594 238.542 244.331 239.274 244.962 238.646C245.594 238.018 245.067 237.181 245.067 237.181L220.864 223.784C220.864 223.784 220.022 223.051 219.496 223.679C218.97 224.307 219.391 224.935 219.391 224.935Z" fill="#F9762D"/>
<path d="M311.469 219.493L313.679 213.736L313.889 213.213L314.205 212.794H314.731H315.362L321.887 216.562C321.887 216.562 322.939 218.969 322.308 219.911C321.676 220.853 320.519 221.795 319.361 221.272C318.204 220.749 314.415 218.132 314.415 218.132L312.416 220.539L311.469 219.493Z" fill="#363D3D"/>
<path d="M314.31 217.295L315.573 213.736L320.624 216.667C320.624 216.667 321.361 218.237 320.729 218.969C320.098 219.807 319.045 219.911 319.045 219.911L314.31 217.295Z" fill="#7E8988"/>
<path d="M320.834 221.272C320.834 221.272 321.571 220.644 321.992 219.179C322.413 217.714 321.992 216.562 321.992 216.562C321.992 216.562 323.361 217.923 323.045 219.388C322.519 221.481 320.834 221.272 320.834 221.272Z" fill="#F9762D"/>
<path d="M252.434 263.451C250.855 263.346 249.698 261.986 249.803 260.416C249.908 258.741 251.171 257.485 252.75 257.59C254.328 257.694 255.486 259.055 255.38 260.625C255.38 262.3 254.012 263.556 252.434 263.451ZM252.75 257.799C251.276 257.694 250.119 258.846 250.014 260.416C249.908 261.881 251.066 263.137 252.434 263.242C253.907 263.346 255.065 262.195 255.17 260.625C255.275 259.16 254.223 257.904 252.75 257.799Z" fill="#475151"/>
<path d="M206.026 259.055C206.026 259.579 206.026 260.207 206.237 260.939C207.079 265.44 208.762 265.963 208.762 265.963L210.236 266.905C209.289 263.033 209.709 261.044 209.709 261.044L206.026 259.055Z" fill="#3F2877"/>
<path d="M233.176 280.93C233.176 280.93 230.335 277.58 229.809 275.592C229.283 273.603 229.493 272.766 229.493 272.766L224.126 269.731C224.126 269.731 224.337 270.777 225.494 273.603C227.073 277.476 229.598 278.836 229.598 278.836L233.176 280.93Z" fill="#765ACC"/>
</svg>
