<svg xmlns="http://www.w3.org/2000/svg" xmlns:xlink="http://www.w3.org/1999/xlink" id="&#x421;&#x43B;&#x43E;&#x439;_1" data-name="&#x421;&#x43B;&#x43E;&#x439; 1" viewBox="0 0 2503.2 1764.45"><defs><style>.cls-1{fill:url(#linear-gradient);}.cls-2{fill:url(#linear-gradient-2);}.cls-3{fill:url(#linear-gradient-3);}.cls-4{fill:url(#linear-gradient-4);}.cls-5{fill:#f7d406;}.cls-6{fill:#1175af;}.cls-7{fill:#449ecc;}.cls-8{fill:#f0f0f0;}.cls-9{fill:#ec5e20;}.cls-10{fill:#c9c9c9;}.cls-11{fill:#d33a05;}.cls-12{fill:#045d89;}.cls-13{fill:#fff;}.cls-14{fill:url(#linear-gradient-5);}.cls-15{fill:#323657;}.cls-16{fill:#252840;}.cls-17{fill:#292c47;}.cls-18{fill:#c4b4af;}.cls-19{fill:#eb4747;}.cls-20{fill:#6880eb;}.cls-21{fill:#4a64e0;}.cls-22{fill:#4860cf;}.cls-23{fill:#eddad3;}.cls-24{fill:#deccc6;}.cls-25{fill:#e3d1ca;}.cls-26{fill:#b39696;}.cls-27{fill:#dbb8b8;}.cls-28{fill:#f2cbcb;}.cls-29{fill:#323438;}.cls-30{fill:#efaa88;}.cls-31{fill:#1d2033;}.cls-32{fill:#eea987;}.cls-33{fill:#a09ea6;}.cls-34{fill:#eae6f2;}.cls-35{fill:#3a4066;}.cls-36{fill:#eea886;}.cls-37{fill:#16202e;}.cls-38{fill:#a77860;}.cls-39{fill:#515269;}.cls-40{fill:#6a6b8a;}.cls-41{fill:#202338;}.cls-42{fill:#020100;}.cls-43{fill:#5e5e5b;}.cls-44{fill:#d6985e;}.cls-45{fill:#807066;}.cls-46{fill:#dbb28a;}.cls-47{fill:#991807;}.cls-48{fill:#50558a;}.cls-49{fill:#49acf1;}.cls-50{fill:#c48a6f;}.cls-51{fill:#3d4169;}.cls-52{fill:#4199d6;}.cls-53{fill:#2e6d99;}.cls-54{fill:#1c1d30;}.cls-55{fill:#33a4ff;}.cls-56{fill:#007fe6;}.cls-57{fill:#0064b5;}.cls-58{fill:#004e8c;}.cls-59{fill:#424773;}.cls-60{fill:#decbc4;}.cls-61{fill:#363a5e;}.cls-62{fill:#5d676c;}.cls-63{fill:#3c4169;}.cls-64{fill:#ad9f99;}.cls-65{fill:#5b629e;}.cls-66{fill:#e09a55;}.cls-67{fill:#f5e2d9;}</style><linearGradient id="linear-gradient" x1="291.01" y1="474.75" x2="806.82" y2="474.75" gradientUnits="userSpaceOnUse"><stop offset="0" stop-color="#1175af"></stop><stop offset="1" stop-color="#0af"></stop></linearGradient><linearGradient id="linear-gradient-2" x1="720.71" y1="212.89" x2="957.18" y2="212.89" xlink:href="#linear-gradient"></linearGradient><linearGradient id="linear-gradient-3" x1="2222.88" y1="1172.78" x2="2703.12" y2="1172.78" gradientUnits="userSpaceOnUse"><stop offset="0" stop-color="#1175af"></stop><stop offset="1" stop-color="#03a9fc"></stop></linearGradient><linearGradient id="linear-gradient-4" x1="2551.34" y1="1497.52" x2="2771.5" y2="1497.52" xlink:href="#linear-gradient-3"></linearGradient><linearGradient id="linear-gradient-5" x1="924.14" y1="447.98" x2="1377.28" y2="447.98" gradientUnits="userSpaceOnUse"><stop offset="0" stop-color="#1175af"></stop><stop offset="1" stop-color="#06a7f7"></stop></linearGradient></defs><path class="cls-1" d="M764.24,419a220.53,220.53,0,0,0-23.64-57l24.07-36.19-33.39-33.39L697.89,259,661.7,283.06a220.68,220.68,0,0,0-57-23.64l-8.57-42.58H501.69l-8.56,42.58a220.53,220.53,0,0,0-57,23.64L399.94,259l-33.39,33.39-33.39,33.39L357.23,362a220.91,220.91,0,0,0-23.65,57L291,427.53V522l42.57,8.57a220.91,220.91,0,0,0,23.65,57l-24.07,36.19,33.39,33.39,33.39,33.39,36.19-24.07a220.53,220.53,0,0,0,57,23.64l8.56,42.58h94.44l8.57-42.58a220.68,220.68,0,0,0,57-23.64l36.19,24.07,33.39-33.39,33.39-33.39L740.6,587.53a220.53,220.53,0,0,0,23.64-57L806.82,522V427.53ZM548.91,640.2A165.46,165.46,0,1,1,714.37,474.75,165.46,165.46,0,0,1,548.91,640.2Z" transform="translate(-268.3 -94.66)"></path><path class="cls-2" d="M937.66,187.32a101.11,101.11,0,0,0-10.84-26.13l11-16.6-15.31-15.3L907.24,114l-16.59,11a101.44,101.44,0,0,0-26.13-10.83l-3.93-19.52H817.3l-3.93,19.52A101.58,101.58,0,0,0,787.24,125l-16.59-11-15.31,15.31L740,144.59l11,16.6a101.11,101.11,0,0,0-10.84,26.13l-19.52,3.93v43.29l19.52,3.93a101.26,101.26,0,0,0,10.84,26.13l-11,16.59,15.31,15.31,15.31,15.3,16.59-11a101.26,101.26,0,0,0,26.13,10.84l3.93,19.52h43.29l3.93-19.52a101.11,101.11,0,0,0,26.13-10.84l16.59,11,15.31-15.3,15.31-15.31-11-16.59a101.26,101.26,0,0,0,10.84-26.13l19.52-3.93V191.25ZM839,288.74a75.85,75.85,0,1,1,75.85-75.85A75.85,75.85,0,0,1,839,288.74Z" transform="translate(-268.3 -94.66)"></path><path class="cls-3" d="M2663.48,1120.84a205.92,205.92,0,0,0-22-53.07l22.4-33.7L2632.79,1003,2601.7,971.9,2568,994.31a205.65,205.65,0,0,0-53.06-22l-8-39.64H2419l-8,39.64a205.65,205.65,0,0,0-53.06,22l-33.7-22.41L2293.2,1003l-31.08,31.08,22.41,33.7a206,206,0,0,0-22,53.07l-39.63,8v87.92l39.63,8a206,206,0,0,0,22,53.07l-22.41,33.69,31.09,31.09,31.08,31.09,33.7-22.41a205.65,205.65,0,0,0,53.06,22l8,39.64H2507l8-39.64a205.65,205.65,0,0,0,53.06-22l33.7,22.41,31.09-31.09,31.08-31.09-22.4-33.69a205.92,205.92,0,0,0,22-53.07l39.64-8v-87.92Zm-200.48,206a154.05,154.05,0,1,1,154-154A154,154,0,0,1,2463,1326.83Z" transform="translate(-268.3 -94.66)"></path><path class="cls-4" d="M2753.33,1473.71a94.26,94.26,0,0,0-10.09-24.32l10.27-15.45-14.25-14.25L2725,1405.43l-15.45,10.28a94.5,94.5,0,0,0-24.33-10.1l-3.66-18.17h-40.3l-3.66,18.17a94.5,94.5,0,0,0-24.33,10.1l-15.45-10.28-14.25,14.26-14.25,14.25,10.27,15.45a94.26,94.26,0,0,0-10.09,24.32l-18.17,3.66v40.31l18.17,3.66a94.26,94.26,0,0,0,10.09,24.32l-10.27,15.45,14.25,14.25,14.25,14.26,15.45-10.28a94.5,94.5,0,0,0,24.33,10.1l3.66,18.17h40.3l3.66-18.17a94.5,94.5,0,0,0,24.33-10.1l15.45,10.28,14.25-14.26,14.25-14.25-10.27-15.45a94.26,94.26,0,0,0,10.09-24.32l18.17-3.66v-40.31Zm-91.91,94.44a70.63,70.63,0,1,1,70.62-70.63A70.63,70.63,0,0,1,2661.42,1568.15Z" transform="translate(-268.3 -94.66)"></path><rect class="cls-5" x="161.22" y="447.84" width="1993.58" height="1183.24" rx="83.79"></rect><path class="cls-6" d="M353,945.49l-28.77-25.07a5.67,5.67,0,0,1,7.45-8.54l20.34,17.73,29-32.35a5.67,5.67,0,0,1,8.44,7.56Z" transform="translate(-268.3 -94.66)"></path><polygon class="cls-7" points="1398.37 374.19 1435.61 374.19 1424.21 350.55 1386.98 350.55 1398.37 374.19"></polygon><polygon class="cls-7" points="1380.95 374.19 1389.82 374.19 1378.42 350.55 1369.55 350.55 1380.95 374.19"></polygon><polygon class="cls-7" points="1252.3 346.03 1403.08 346.03 1398.07 334.21 1247.3 334.21 1252.3 346.03"></polygon><polygon class="cls-6" points="37.56 647.05 86.1 647.05 71.24 616.24 22.71 616.24 37.56 647.05"></polygon><polygon class="cls-6" points="14.86 647.05 26.42 647.05 11.56 616.24 0 616.24 14.86 647.05"></polygon><rect class="cls-6" x="498.55" y="796.1" width="245.98" height="245.98"></rect><rect class="cls-8" x="233.87" y="531.25" width="245.98" height="245.98"></rect><rect class="cls-8" x="914.56" y="794.94" width="245.98" height="245.98"></rect><rect class="cls-9" x="498.55" y="1059.61" width="245.98" height="245.98"></rect><rect class="cls-9" x="914.56" y="1324.29" width="245.98" height="245.98"></rect><rect class="cls-8" x="233.87" y="1060.2" width="245.98" height="245.98"></rect><path class="cls-8" d="M1693.5,1419s-.17,113.86-26.86,210.38l-56.89,35.6H1409.19c38.1-101.41,38.33-246,38.33-246Z" transform="translate(-268.3 -94.66)"></path><polygon class="cls-10" points="1341.45 1570.27 1341.45 1533.84 1398.34 1533.84 1341.45 1570.27"></polygon><path class="cls-9" d="M1428.83,1154.27s-.18,113.86-26.86,210.37l-56.89,35.61H1144.51c38.11-101.41,38.34-246,38.34-246Z" transform="translate(-268.3 -94.66)"></path><polygon class="cls-11" points="1076.78 1305.59 1076.78 1269.16 1133.67 1269.16 1076.78 1305.59"></polygon><rect class="cls-8" x="1179.23" y="531.43" width="245.98" height="245.98"></rect><path class="cls-6" d="M1428.83,626.09S1428.65,740,1402,836.46l-56.89,35.61H1144.51c38.11-101.41,38.34-246,38.34-246Z" transform="translate(-268.3 -94.66)"></path><polygon class="cls-12" points="1076.78 777.41 1076.78 740.98 1133.67 740.98 1076.78 777.41"></polygon><path class="cls-8" d="M748.14,1419s-.17,113.86-26.86,210.38l-56.89,35.6H463.83c38.1-101.41,38.33-246,38.33-246Z" transform="translate(-268.3 -94.66)"></path><polygon class="cls-10" points="396.09 1570.27 396.09 1533.84 452.98 1533.84 396.09 1570.27"></polygon><rect class="cls-6" x="1579.84" y="796.1" width="245.98" height="245.98"></rect><rect class="cls-8" x="1579.84" y="531.25" width="245.98" height="245.98"></rect><rect class="cls-8" x="1844.52" y="531.25" width="245.98" height="245.98"></rect><rect class="cls-6" x="1844.52" y="1059.61" width="245.98" height="245.98"></rect><rect class="cls-8" x="1844.52" y="1324.29" width="245.98" height="245.98"></rect><rect class="cls-8" x="1579.84" y="1060.2" width="245.98" height="245.98"></rect><path class="cls-8" d="M2094.11,1419s-.17,113.86-26.86,210.38l-56.88,35.6H1809.8c38.1-101.41,38.33-246,38.33-246Z" transform="translate(-268.3 -94.66)"></path><polygon class="cls-10" points="1742.07 1570.27 1742.07 1533.84 1798.95 1533.84 1742.07 1570.27"></polygon><path class="cls-8" d="M1693.5,1154.27s-.17,113.86-26.86,210.37l-56.89,35.61H1409.19c38.1-101.41,38.33-246,38.33-246Z" transform="translate(-268.3 -94.66)"></path><polygon class="cls-10" points="1341.45 1305.59 1341.45 1269.16 1398.34 1269.16 1341.45 1305.59"></polygon><rect class="cls-6" x="2563.33" y="743.39" width="162.36" height="11.38" transform="translate(5020.73 1403.5) rotate(180)"></rect><rect class="cls-6" x="2563.33" y="764.84" width="162.36" height="47.85" transform="translate(5020.73 1482.87) rotate(180)"></rect><rect class="cls-7" x="1136.09" y="462.23" width="60.04" height="4.48" transform="translate(2063.92 834.29) rotate(180)"></rect><rect class="cls-6" x="1136.09" y="468.68" width="60.04" height="12.14" transform="translate(2063.92 854.83) rotate(180)"></rect><rect class="cls-6" x="2752.36" y="682.05" width="7.15" height="134.07" transform="translate(5243.56 1403.5) rotate(180)"></rect><rect class="cls-13" x="815.8" y="447.84" width="15.47" height="1183.24"></rect><rect class="cls-13" x="1494.79" y="447.84" width="15.47" height="1183.24"></rect><rect class="cls-14" x="924.14" y="423.94" width="453.14" height="48.09"></rect><path class="cls-7" d="M1315.16,335.54l-38.81-16.87a6.28,6.28,0,0,1,5-11.52l27.45,11.92,19.81-43.92a6.29,6.29,0,0,1,11.46,5.17Z" transform="translate(-268.3 -94.66)"></path><path class="cls-7" d="M1359.29,372.57a79.32,79.32,0,1,1,19.29-110.5A79.42,79.42,0,0,1,1359.29,372.57ZM1274.59,252a68,68,0,1,0,94.72,16.54A68.08,68.08,0,0,0,1274.59,252Z" transform="translate(-268.3 -94.66)"></path><rect class="cls-6" x="1747.69" y="132.82" width="1.94" height="203.84"></rect><rect class="cls-6" x="1885.83" y="132.82" width="1.94" height="203.84"></rect><rect class="cls-6" x="2023.97" y="132.82" width="1.94" height="203.84"></rect><rect class="cls-6" x="2162.11" y="132.82" width="1.94" height="203.84"></rect><rect class="cls-6" x="2300.26" y="132.82" width="1.94" height="203.84"></rect><rect class="cls-6" x="1748.66" y="348.73" width="21.98" height="7.08"></rect><rect class="cls-6" x="1748.66" y="107.7" width="33.09" height="5.31"></rect><rect class="cls-6" x="1748.66" y="117.52" width="46.93" height="5.31"></rect><rect class="cls-6" x="1885.31" y="107.7" width="38.85" height="5.31"></rect><rect class="cls-6" x="1885.31" y="117.52" width="24.84" height="5.31"></rect><rect class="cls-6" x="2025.91" y="107.7" width="24.07" height="5.31"></rect><rect class="cls-6" x="2025.91" y="117.52" width="28.06" height="5.31"></rect><rect class="cls-6" x="2164.06" y="107.7" width="35.06" height="5.31"></rect><rect class="cls-6" x="2164.06" y="117.52" width="28.06" height="5.31"></rect><rect class="cls-6" x="2301.23" y="107.7" width="20.94" height="5.31"></rect><rect class="cls-6" x="2301.23" y="117.52" width="16.76" height="5.31"></rect><rect class="cls-6" x="1886.8" y="348.73" width="21.98" height="7.08"></rect><rect class="cls-6" x="2025.91" y="348.73" width="21.98" height="7.08"></rect><rect class="cls-6" x="2164.06" y="348.73" width="21.98" height="7.08"></rect><rect class="cls-6" x="2302.2" y="348.73" width="21.98" height="7.08"></rect><path class="cls-6" d="M2521.66,370.75c-43.09,0-80.55-18.63-119.6-38-48.2-24-98-48.76-164.46-42-42.41,4.34-69,21.61-92.52,36.85-21.26,13.79-41.37,25.93-68.6,27-44,1.68-59.27-17.09-59.52-18.23V324.26h0c0,.21,9.66,21.27,59.48,21,24.53-.12,42.64-11.87,63.6-25.47,24.37-15.81,52-33.73,96.62-38.29,69.07-7.06,120.14,18.34,169.53,42.9,51.67,25.69,101,49.79,163.34,28.88v9.91C2551.75,369.17,2537.54,370.75,2521.66,370.75Z" transform="translate(-268.3 -94.66)"></path><path class="cls-6" d="M2263,368.44c-31.8,0-57-21.39-81.72-42.32-18.73-15.88-38.15-32.11-60.58-40.12-68.44-24.43-103.45,20.19-103.76,20.58V293c.37-.47,6.61-8.58,24.68-16.32,16.45-7.05,44-12.67,82.12.57,24.12,8.39,44.15,25.37,63.53,41.79,39.29,33.32,73.23,62.09,132.17,17,44.64-34.13,86.72-66.66,128.12-78.55,40.5-11.62,82.72-3.11,122.24,36.41l-.29,12.33c-84-84.32-155.43-30.9-244.45,37.17C2301.5,361.46,2281.19,368.44,2263,368.44Z" transform="translate(-268.3 -94.66)"></path><path class="cls-6" d="M1718.63,277.82a23.59,23.59,0,0,1-14.12-4.26,17.72,17.72,0,0,1-7.7-12.92c-1.61-10-5.67-20.08-8.89-27a47.6,47.6,0,1,1,56.95-3.43,102.78,102.78,0,0,0-4,26.74c.82,10.45-8.35,19.75-20.47,20.76C1719.83,277.79,1719.23,277.82,1718.63,277.82Zm-5.12-127.56a43.69,43.69,0,0,0-23,80.45l.47.3.23.5c3.38,7.14,7.75,17.89,9.47,28.59l0,.14a13.92,13.92,0,0,0,6.08,10.16,20,20,0,0,0,13.34,3.46c10-.84,17.61-8.3,16.92-16.63v-.15c-.06-8.34,1.38-17.91,4.26-28.45l.16-.59.48-.4a43.69,43.69,0,0,0-28.41-77.38Z" transform="translate(-268.3 -94.66)"></path><polygon class="cls-6" points="1440.1 167.79 1429.25 116.7 1440.82 124.64 1446.83 116.63 1453.23 123.06 1462.52 113.63 1461.05 165.91 1457.16 165.81 1458.35 123.41 1453.24 128.6 1447.24 122.56 1441.69 129.96 1435.08 125.42 1443.9 166.98 1440.1 167.79"></polygon><rect class="cls-6" x="1703.7" y="272.98" width="33.75" height="13.6" transform="translate(-285.55 48.67) rotate(-4.75)"></rect><rect class="cls-6" x="1697.46" y="259.12" width="44.61" height="21.9" transform="matrix(1, -0.08, 0.08, 1, -284.75, 48.62)"></rect><path class="cls-15" d="M1976.83,1232.42s3.39,61.52-7.89,70.53c-5.22,4.17-17.52,5.48-30.81,5.5-4.38,0-8.86-.13-13.24-.35h0c-17.46-.88-33.14-3.1-33.14-3.1s-45.28,2.3-43.07-25.8c0,0,5.27-8.5,12-10.44,6.24-1.79,34.76,3.13,39.71,3.35,5.45.24,44.1,8.83,45.76,8.21s6.1-15.76,6.37-25.92c.39-14.67.34-28.18.34-28.18Z" transform="translate(-268.3 -94.66)"></path><path class="cls-16" d="M1736.85,1816.63s-3.8,9.17-7,12.8-15.48,10.13-15.54,20.92c-.08,11.69,20.69,8.45,28.81,8s8.73-6.68,12.15-13.3,6.87-5.5,7.51-10.85-2.62-17.3-2.62-17.3Z" transform="translate(-268.3 -94.66)"></path><path class="cls-16" d="M1899.4,1818.73s11.31,11.88,22.8,14.37,19.51,5.66,19.6,12.47-33,11.31-46.19,4.44c-19.61-10.25-21.6-7.16-23.78-12.29s2.61-18.83,2.47-20.46C1874.13,1815.24,1899.4,1818.73,1899.4,1818.73Z" transform="translate(-268.3 -94.66)"></path><path class="cls-17" d="M1898.06,1475.76s11.88,86.3,16.73,115.47c5.67,34.11,7.59,62.29,9.18,80,2,22.2-18.83,141.66-17.44,148.15s-37.49-2.7-37.49-2.7,12.22-142.14,6.29-165.78c-5.52-22-25.43-118.81-30.46-112.8s-36.66,112.22-40.39,129.59S1764.79,1821,1764.79,1821s-26.88,5.78-33.72.34c0,0,23.46-124.91,25.83-157.47.91-12.41,8.26-147.94,29.24-202.84C1797.23,1432,1898.06,1475.76,1898.06,1475.76Z" transform="translate(-268.3 -94.66)"></path><path class="cls-18" d="M1587.74,1237l2.18-32.41a12.09,12.09,0,0,1,12.87-11.26l69.54,4.68a12.09,12.09,0,0,1,11.25,12.87l-2.18,32.42a12.08,12.08,0,0,1-12.87,11.25l-69.54-4.67A12.1,12.1,0,0,1,1587.74,1237Z" transform="translate(-268.3 -94.66)"></path><rect class="cls-19" x="1834.31" y="1011.42" width="60.73" height="455.73" transform="translate(2957.94 -632.73) rotate(93.85)"></rect><rect class="cls-20" x="1855.92" y="991.22" width="20.25" height="455.74" transform="translate(256.22 2904.49) rotate(-86.15)"></rect><rect class="cls-21" x="1854.56" y="1011.42" width="20.24" height="455.73" transform="translate(2957.92 -632.75) rotate(93.84)"></rect><rect class="cls-22" x="1853.2" y="1031.62" width="20.24" height="455.73" transform="matrix(-0.07, 1, -1, -0.07, 2976.7, -609.78)"></rect><polygon class="cls-23" points="1821.7 1190.21 1825.77 1129.62 1891.6 1158.26 1908.52 1165.62 1890.76 1170.65 1821.7 1190.21"></polygon><path class="cls-24" d="M2092.71,1244.48a10.13,10.13,0,0,1,1.36-20.2Z" transform="translate(-268.3 -94.66)"></path><path class="cls-25" d="M2091.36,1264.67a10.13,10.13,0,0,1,1.35-20.2Z" transform="translate(-268.3 -94.66)"></path><path class="cls-23" d="M2090,1284.87a10.13,10.13,0,0,1,1.36-20.2Z" transform="translate(-268.3 -94.66)"></path><rect class="cls-26" x="1626.9" y="1189.69" width="20.25" height="28" transform="translate(57.96 2661.65) rotate(-86.15)"></rect><rect class="cls-27" x="1625.54" y="1209.89" width="20.24" height="28" transform="translate(2698.24 -420.62) rotate(93.85)"></rect><rect class="cls-28" x="1624.18" y="1230.09" width="20.24" height="28" transform="translate(2716.88 -397.77) rotate(93.84)"></rect><polygon class="cls-24" points="1824.42 1149.82 1908.52 1165.62 1825.77 1129.62 1824.42 1149.82"></polygon><polygon class="cls-25" points="1823.06 1170.02 1908.52 1165.62 1824.42 1149.82 1823.06 1170.02"></polygon><polygon class="cls-23" points="1823.06 1170.02 1908.52 1165.62 1821.7 1190.21 1823.06 1170.02"></polygon><polygon class="cls-29" points="1890.76 1170.65 1891.6 1158.26 1908.52 1165.62 1890.76 1170.65"></polygon><path class="cls-30" d="M1957.51,1212.18s-2.36,10.46-.09,13.37,3.33-.83,3.33-.83-1.12,3.67,1.74,4.9,3.88-3.2,3.88-3.2a3.1,3.1,0,0,0,3.14,3.18c3.23.16,3.22-3.72,3.22-3.72s2.25,4.35,4.87,1.34c4.42-5.08,2.67-12.79,2.67-12.79s-.61-1.81-3.72-1.76c0,0-1.17-4.56-6.19-2.71,0,0-4-3.65-6.49,0C1963.87,1210,1959.35,1206.35,1957.51,1212.18Z" transform="translate(-268.3 -94.66)"></path><path class="cls-5" d="M1741.78,1474.33s14.75,4.48,20.93,3.35,3-76.93,3.29-92.7c.19-12.79,7.19-46.56,7.19-46.56a.28.28,0,0,0,0,.06s0,0,0,0,0,0,0,.06c.69,2.53,10.14,37.58,10.47,54.41.34,17.48-2.28,84.33-2.28,84.33l26,2.53,74.83,1.84,15.61-1.84s-1.87-28.59-2.56-42.17c-.43-8.63-2.11-24.08-1.68-39.13,0,0-.27-15.86,1.3-22.69.17-30.16,2-60,2-60q1.51-20.5,2.12-38.39c-3.3-1.74-7.27-3.78-10.44-5.29-9.82-4.67-23.5-11-32.28-15-5.15-2.36-10.18-4.09-10.18-4.09s-35.09-3.36-37.94-3.18c-.9,0-5.29,1.58-11,3.77-12.45,4.73-36.43,14.34-40.26,17.09-5.6,4-17.45,99.32-18,106C1738,1388.76,1741.78,1474.33,1741.78,1474.33Z" transform="translate(-268.3 -94.66)"></path><path class="cls-31" d="M1895.62,1467.89s-51.35,4.38-96.33,0v14.76s67.55,9.76,98.59-2.81Z" transform="translate(-268.3 -94.66)"></path><path class="cls-15" d="M1851.82,1255.21s8.35,19.62,14.62,63.49c2.41,16.85,6.87,45.21,10.12,74.15h0c2.56,22.82,8.39,46.24,10.25,63.7,1.92,18.1,7.71,71.41,7.71,71.41l14-8.86c2-1.85,4.81-4.26,4-6.87-3.86-12.47-11.26-53.7-15.62-89.63,0,0,0,0,0-.08-.21-1.73-.41-3.45-.61-5.15l0-.28c-.82-7.18-1.51-14.07-2-20.38a64.78,64.78,0,0,1,.63-14.17c2-32.26,2.93-66.27,2.93-66.27,1-13.92,3.59-31.94,4-44.06a76.77,76.77,0,0,1-12.44-2.49S1861.71,1259.38,1851.82,1255.21Z" transform="translate(-268.3 -94.66)"></path><path class="cls-32" d="M1846,1253.5c.76,3.93-20.91,15.21-34.89,2,0,0,2.63-23.35,1.76-29.84s32.44,7.35,32.44,7.35,0,7.71.22,13.8c.07,1.84.14,3.54.25,4.83C1845.8,1252.45,1845.88,1253.06,1846,1253.5Z" transform="translate(-268.3 -94.66)"></path><path class="cls-32" d="M1844.32,1255.39a115.06,115.06,0,0,1-7.08,18.06s-10.2-8.94-13.42-12.12S1844.32,1255.39,1844.32,1255.39Z" transform="translate(-268.3 -94.66)"></path><path class="cls-33" d="M1826.56,1263.46l10.68,10s-12.62-.84-15-2.94Z" transform="translate(-268.3 -94.66)"></path><path class="cls-34" d="M1812.4,1245.05s8.54,13.88,14.16,18.41l-9.47,15.73-15.18-27.59Z" transform="translate(-268.3 -94.66)"></path><path class="cls-15" d="M1767.08,1385.7c-1.09,14.63,5.1,95.62-1.08,96.76s-28.88-3.86-28.88-3.86-2.85-87.33-1.94-96.49c.66-6.66,11.27-106.6,16.87-110.62,3.24-2.32,27.21-10.82,39-15.45,2.15-.85,9-3.71,10.89-4.44,2.49,2.77,24.22,53.78,26.29,93.56.63,12.11-2.21,37.67-4.37,58.56-2.3,22.29-4.85,39.68-6.72,58.31-3.68,36.72-6.26,65.94-6.26,65.94l-36.54-16.27c-5.91-3-14.1-15.1-11.88-21.33,8.45-23.66,19.09-64.08,19.1-84.84,0,0-4.08-50.84-7.31-62C1774.22,1343.51,1768.46,1367.09,1767.08,1385.7Z" transform="translate(-268.3 -94.66)"></path><path class="cls-30" d="M1737,1520.19a14.9,14.9,0,0,1-1.14-4.61s.41-2.87.58-4.92a14.2,14.2,0,0,0,.06-1.6,26.93,26.93,0,0,1,.14-8.68c.84-3.77,5.19-16.77,5.19-16.77l11.74,1.75,10.2-1.38s7.59,22.18,7.21,25.78a8,8,0,0,1-.17,1c-.62,3-2.35,5-2.86,6.54-.19.57-2.45,6.08-4.15,6.6a5.81,5.81,0,0,1-5.6-.78s-4.68,1.23-7.64-.12c0,0-4.28,1.28-7.49-1.45C1743.1,1521.57,1738.61,1522.38,1737,1520.19Z" transform="translate(-268.3 -94.66)"></path><path class="cls-15" d="M1768,1426.64l-.38,64.36s-12.84-.57-30.54-7.11l-1.23-90.76Z" transform="translate(-268.3 -94.66)"></path><rect class="cls-35" x="1566.56" y="1374.14" width="24.21" height="18"></rect><path class="cls-36" d="M1867,1186.12s8.07,15,4.07,17.28c-3.3,1.92,3.87,16.59,4.81,19s-6,4.14-7.45,5.68-5.83,20.54-11.53,21.11-31.39-8.36-38.38-15.64-12.74-40.12-8.07-54S1852.75,1160,1867,1186.12Z" transform="translate(-268.3 -94.66)"></path><path class="cls-37" d="M1868.59,1189.36s8.24-16.15-6.72-28.13-42.53,9-45.64,9.85-20.74,2-11.84,33c7.65,26.59,8.56,27.71,8.56,27.71s5.86-15.4,9.1-17.75c5-3.67,16.12-2.79,16.12-2.79s-5.28-14,3-16S1860.25,1186.26,1868.59,1189.36Z" transform="translate(-268.3 -94.66)"></path><path class="cls-36" d="M1829.38,1203.2c-.72-1.92-3.07-10.18-10.16-5.33s4.42,20.41,5.65,20.62S1835.5,1219.37,1829.38,1203.2Z" transform="translate(-268.3 -94.66)"></path><path class="cls-38" d="M1845.73,1251.69l-.47-.1a37.42,37.42,0,0,1-24-15.75c10.17,6.77,24.26,11,24.26,11C1845.55,1248.7,1845.62,1250.4,1845.73,1251.69Z" transform="translate(-268.3 -94.66)"></path><path class="cls-33" d="M1847,1266.26l-9.72,7.19s8.17-17.31,8.34-24.25Z" transform="translate(-268.3 -94.66)"></path><polygon class="cls-34" points="1577.28 1154.55 1583.89 1160.7 1590.84 1181.44 1578.66 1171.6 1577.28 1154.55"></polygon><path class="cls-36" d="M2206.21,1545.23a85.23,85.23,0,0,1-9.76,1.43c-3.15.1-17.75-6.52-22.42-5.89s-35.13,13.58-36.52,14.52.65,3,.65,3l69.94.83Z" transform="translate(-268.3 -94.66)"></path><rect class="cls-15" x="2113.48" y="1558.15" width="116.33" height="10.65" transform="translate(4063.07 3048.72) rotate(-179.57)"></rect><rect class="cls-15" x="2043.33" y="1505.85" width="116.33" height="10.65" transform="translate(1002.69 3868.09) rotate(-107.01)"></rect><path class="cls-39" d="M2325.87,1783.61l4.49,9.71s18.89-7,19-7.28-5.21-13.48-5.21-13.48Z" transform="translate(-268.3 -94.66)"></path><path class="cls-40" d="M2164,1783.4l-5.23,15.28s20.74,4.57,23.75,4.33c.27,0,3.92-17.31,3.92-17.31Z" transform="translate(-268.3 -94.66)"></path><path class="cls-41" d="M2184.87,1798.55s-14.49-3.93-14.92-4.56-5.75-4.22-8.49-3.76-3,3.74-5.72,4.41-23.92,7.44-26.85,9.17-16.94-3.37-19.64.26-5.32,13.17,16.69,16.47,45.58,13.12,50.85,11.78S2185.68,1804.42,2184.87,1798.55Z" transform="translate(-268.3 -94.66)"></path><path class="cls-41" d="M2350.83,1783.45s-13.43,5.73-14.13,5.51-6.93.25-8.74,2.25,0,4.66-1.72,6.82-11.26,14.83-14.06,17.76c-2.29,2.39-14.86,4.62-18.89,8.84-3,3.18.53,15.87,21.91,9.81,20.83-5.91,46.61-16.16,49.83-20.35S2355,1787.44,2350.83,1783.45Z" transform="translate(-268.3 -94.66)"></path><path class="cls-17" d="M2337.06,1593s-59.07,26.27-71.59,35.25-39.93,25.52-40.84,29.57-6.34.1,3.38,20.33,55.68,68.89,60,74.18c4.49,5.52,36.37,38.57,36.37,38.57l24-18.06s-46.1-67.79-52.77-77.76-9.68-11.44-5.73-15.84,19.7-4.34,100.83-37.94c8.11-3.36,30.73-11.14,33.71-22,5.39-19.67.77-44.6-21-55.57S2337.06,1593,2337.06,1593Z" transform="translate(-268.3 -94.66)"></path><path class="cls-36" d="M2309,1402.84a8.68,8.68,0,0,1,1.67,2.84,68.18,68.18,0,0,1,2.61,7.76c2.68,9.37,5.12,21.4,5.12,21.4s33.81-28.17,29-29.94-8.32-10-8.32-10S2305.41,1399.68,2309,1402.84Z" transform="translate(-268.3 -94.66)"></path><path class="cls-17" d="M2338,1582.37s-61,14.36-76.12,19.18-41.06,13.31-48,17.3c-3.71,2.11-9.37,5.28-16.14,27.33-7.69,25-25.23,95.31-29.21,106.26-2.5,6.88-9.69,33.94-9.69,33.94l31.19,5.41s37.14-74.78,40.15-94.71c5.07-33.55,18.08-33.73,23.33-36.78S2284,1663,2374,1655.8c9-.72,33.59-1.17,39.95-10.87,11.5-17.54,23.11-37.46,5.25-55.1S2338,1582.37,2338,1582.37Z" transform="translate(-268.3 -94.66)"></path><path class="cls-36" d="M2297.05,1332.21s-10.56,18.25-8.16,23.21-11,17-8.82,19.54,6.75,5.64,6.67,6.38,3.91,24.52,9.09,25.05,40.62-1.31,43.56-12.39,11.58-35.37,13.62-39.88S2334.62,1314.79,2297.05,1332.21Z" transform="translate(-268.3 -94.66)"></path><path class="cls-42" d="M2338.73,1333.12a41.62,41.62,0,0,1,7.36,6.62c2.33,1.09,16,7.85,13.48,14.59-3.45,9.06-17.86,33.16-19.06,35.69-.15.34-.18-.31-.1-1.68-1.25-8.72-12.94-18.84-12.94-18.84l-6.15-2.78a15.47,15.47,0,0,0,1.54-10.64c-7.1-7.15-30.16-15.36-30.16-15.36C2294.88,1310.2,2323.09,1321.94,2338.73,1333.12Z" transform="translate(-268.3 -94.66)"></path><path class="cls-36" d="M2330.27,1360.58c1.64-2.5,10.26-2.09,9,5.27s-11.85,13.27-14.15,10S2328.53,1363.24,2330.27,1360.58Z" transform="translate(-268.3 -94.66)"></path><path class="cls-9" d="M2347.4,1404.9s42.82,24.95,52.49,68.53,27.14,120.09,27.44,129.16c0,0-57.95-27.89-89.34-20.22,0,0-19.77-71-30.16-87.78s5.05-56.2,5.05-56.2S2327.66,1414.74,2347.4,1404.9Z" transform="translate(-268.3 -94.66)"></path><path class="cls-43" d="M2503.55,1424.4,2469,1525.6a9.29,9.29,0,0,0-.47,2.39l-8.28,133.07L2316,1664.27l-42,153a16.08,16.08,0,0,0,2.32,13.54,11.72,11.72,0,0,0,8.1,5.33c9.15,1.12,194.39,0,194.39,0v-7.65a7,7,0,0,0-7.06-6.91H2298.56a9.39,9.39,0,0,1-7.36-3.45,6,6,0,0,1-1.47-4.73c.76-4.88,37.73-129.58,37.73-129.58L2467,1681.4a11.88,11.88,0,0,0,11.77-11.27l6.07-143.18a10.65,10.65,0,0,1,.44-2.69l28.2-96.75s2.95-6.75-2.48-7.4S2504.15,1422.64,2503.55,1424.4Z" transform="translate(-268.3 -94.66)"></path><path class="cls-44" d="M2315.24,1667.08s-.11-11,15-11.81c17.39-.89,130.49-1.67,130.49-1.67l-.76,11.75Z" transform="translate(-268.3 -94.66)"></path><path class="cls-44" d="M2245.38,1577v5.16H1999.6V1577c0-4.81,3.23-8.7,7.21-8.7h231.36C2242.15,1568.31,2245.38,1572.2,2245.38,1577Z" transform="translate(-268.3 -94.66)"></path><path class="cls-45" d="M1745.23,1727.05h67a7.29,7.29,0,0,1,7.29,7.29v4.58a0,0,0,0,1,0,0h-74.27a0,0,0,0,1,0,0v-11.88A0,0,0,0,1,1745.23,1727.05Z"></path><rect class="cls-45" x="1749.94" y="1487.51" width="9.82" height="251.43"></rect><rect class="cls-45" x="1769.66" y="1487.51" width="9.82" height="251.43"></rect><path class="cls-38" d="M2310.64,1405.68a68.18,68.18,0,0,1,2.61,7.76c5.07-2.1,14.72-11,15-11.28C2324.24,1403.72,2310.64,1405.68,2310.64,1405.68Z" transform="translate(-268.3 -94.66)"></path><path class="cls-46" d="M2141.1,1582.17H1965.51V1577a9,9,0,0,1,9.21-8.7h138.89Z" transform="translate(-268.3 -94.66)"></path><path class="cls-9" d="M2328.6,1438.64s-10.19,14.45-16.5,25.4c-7.15,12.4-14.17,24.65-15.72,27.41-3.16,5.6-14.38,8.59-19.34,10.72-4.57,2-80.63,42.67-81.59,42.59s8.19,15.17,8.19,15.17,105.61-30.29,110.36-34.63,18.84-24.08,24.6-32.22c5.49-7.75,13.91-20.46,18.38-25.93,5-6.13,15.47-27.08,2.15-37.53C2342.11,1416.27,2332.7,1432.51,2328.6,1438.64Z" transform="translate(-268.3 -94.66)"></path><path class="cls-47" d="M2357.55,1466.41s-12.21,33.13-19.56,44.43a215.92,215.92,0,0,1-15.46,20.68l-3.91-11.43S2350.24,1476.61,2357.55,1466.41Z" transform="translate(-268.3 -94.66)"></path><path class="cls-31" d="M2549.92,1813.52s-12.23,8.14-17.8,11.22-27.75,5-29.84,7.25-.93,8.8,2.79,9.28,30.86,1.5,39.76-1.08,25.94.07,29.6-1.4.2-21.46-1.49-25.9S2549.92,1813.52,2549.92,1813.52Z" transform="translate(-268.3 -94.66)"></path><polygon class="cls-48" points="2302.88 1712.88 2304.64 1718.23 2281.63 1718.87 2282.37 1711.51 2302.88 1712.88"></polygon><path class="cls-31" d="M2682.38,1802.36s-9.38,11.31-13.83,15.86-25.13,12.82-26.5,15.53,1.64,8.69,5.34,8.09,30-7.44,37.77-12.47,24.87-7.39,28-9.85-6-20.61-8.87-24.38S2682.38,1802.36,2682.38,1802.36Z" transform="translate(-268.3 -94.66)"></path><polygon class="cls-48" points="2432.72 1695.86 2435.95 1700.48 2414.08 1707.7 2412.68 1700.44 2432.72 1695.86"></polygon><path class="cls-36" d="M2508.8,1344.52s-20.65-10.26-22.53-9.74-2.3,1.74-.41,2.78,19.7,10.52,19.7,10.52-26.23-7.83-27.87-7.76c-1,0-1.91,2.32-.94,3s26.6,10,26.6,10-24.51-7.27-25.85-6.77a1.9,1.9,0,0,0,.24,3.44c1.79.67,24.21,8.78,24.21,8.78s-18.11-4.11-19-3c-.55.69-1.45,2.62,3.25,3.53s15.61,4.27,15.61,4.27Z" transform="translate(-268.3 -94.66)"></path><path class="cls-36" d="M2530.9,1360.21s-6.61-3.83-6.45-8.33c.13-3.83-2.31-9-3-10.55-1-2.11-1.83-9.75-4.31-8.52s.79,12.65,1,15.17-8.58-4.08-11-4-11.48,16-5,19.76,15.71,3.36,16.74,4.27a47.51,47.51,0,0,0,4.65,3Z" transform="translate(-268.3 -94.66)"></path><path class="cls-49" d="M2600.66,1410.34c-5,10.71-7.51,12-13.27,13.46-12.47,3.06-70.64-49.9-70.64-49.9l12.7-16.65s14.21,11.06,26.32,19.22c7.5,5,22.3,17.36,23.63,16.52s21.14-28.65,23-32.65,9.67-34.65,14.31-38.08C2616.69,1322.26,2632.79,1341.05,2600.66,1410.34Z" transform="translate(-268.3 -94.66)"></path><path class="cls-17" d="M2614.31,1551.4s4.39,32.36,8.86,63.44h0c.86,5.91,1.71,11.77,2.54,17.36h0c2.89,19.54,5.46,35.67,6.45,38.52,2.8,8.14,42.08,129.83,42.08,129.83s30.55-5.63,31.57-9c0,0-33.26-127.42-32.88-132s-4.14-134.59-4.14-134.59S2615.85,1543.92,2614.31,1551.4Z" transform="translate(-268.3 -94.66)"></path><path class="cls-17" d="M2589.42,1511.09s-27.57,132.18-29.88,141.91-15.5,158.07-15.5,158.07,12.64,1,34.45,0c0,0,23.83-150.08,26.29-154.74,9.54-18.09,46.3-109.1,50.91-121.64a119.71,119.71,0,0,1,12.62-24S2636.46,1486.19,2589.42,1511.09Z" transform="translate(-268.3 -94.66)"></path><path class="cls-49" d="M2650.05,1299.92s-28.72,21.16-36.69,29.61-24.83,42.45-23.46,53.2c5.23,41.19,3.52,77.53,1.79,105.51-1.34,21.5-3.39,22.76-2,23,5.48,1.06,68.71,14.2,79.21,17.53,0,0,2.57-64.44-.76-74.43S2679.75,1340.37,2650.05,1299.92Z" transform="translate(-268.3 -94.66)"></path><path class="cls-36" d="M2650.05,1299.92s-52.61,55.46-49.32,49.27c11.73-22.08,19.71-25.7,19.62-29.86-.07-3.18-1.15-12.48-1.3-15.59-.3-5.91-.66-10.72-.66-10.72s26.26-35.53,24.92-23.29S2650.05,1299.92,2650.05,1299.92Z" transform="translate(-268.3 -94.66)"></path><path class="cls-36" d="M2602.07,1232.7s-7.39,16.53-7.56,20.42.77,6.9.08,11.39-4.78,14.33-4.34,17c.52,3.27,7.42,1.69,8.27,7.08s5.66,15.58,8.15,15.83c6.38.63,31-8.91,32.67-14s11-33.48,13.87-38.85-42.48-35.94-46.81-27.43Z" transform="translate(-268.3 -94.66)"></path><path class="cls-37" d="M2664.21,1246.15c3.5-14.07-12.72-16.1-12.72-16.1s-10.36-12.5-35.7-11.48-22.06,34.11-22.06,34.11,17.56-2.31,25.14-.25c0,0,.68,14.13-.2,17.61l9.56-.68s-.85-12.54,3.75-13,5.65,26.61,14.08,32.73a9.41,9.41,0,0,1,1.22-3.77h0a108.62,108.62,0,0,0,6.89-13.7C2658,1263.44,2662.43,1253.36,2664.21,1246.15Z" transform="translate(-268.3 -94.66)"></path><path class="cls-36" d="M2625.57,1259.22s3.71-9.49,12-3.14c6,4.61-.54,20.64-6.48,20.45S2622.89,1267.53,2625.57,1259.22Z" transform="translate(-268.3 -94.66)"></path><path class="cls-50" d="M2640.8,1286s-1.34,5-2.73,6.21-8.14,6.34-19.36,9.64l1.05,10S2641.6,1303.84,2640.8,1286Z" transform="translate(-268.3 -94.66)"></path><path class="cls-51" d="M2588.59,1515.08s.54-8.89,1.68-11.41c0,0,46.69,11.85,78.95,16.64a68.4,68.4,0,0,1-.2,11.3S2598.23,1518.74,2588.59,1515.08Z" transform="translate(-268.3 -94.66)"></path><path class="cls-32" d="M2604.81,1522.34s-2,7.73-5.15,9.36,14,18.54,14,18.54,7.31-15.27,7.15-16.82S2604.81,1522.34,2604.81,1522.34Z" transform="translate(-268.3 -94.66)"></path><path class="cls-49" d="M2662,1333.73s18.63,97.09,20.12,107c1.41,9.4-61.37,97.81-61.37,97.81l-20.13-12.43s51-88.92,51-93-22.25-82.49-22.25-82.49-9.57-17.16,8.09-25.09S2662,1333.73,2662,1333.73Z" transform="translate(-268.3 -94.66)"></path><path class="cls-17" d="M2592.76,1528.8s-7.2,32.78-7,42.86,38.25-15.18,36.52-25.24Z" transform="translate(-268.3 -94.66)"></path><path class="cls-49" d="M2650.05,1301l-33.14,24.21s-8.49,11-16.92,30.64l55.7-46.49Z" transform="translate(-268.3 -94.66)"></path><polygon class="cls-52" points="2379.94 1200.79 2350.64 1220.08 2348.39 1231.65 2382.97 1207 2379.94 1200.79"></polygon><path class="cls-17" d="M2616.69,1326.31s-23.6,43.87-24.28,85.62c-.64,38.86-2.2,65.71-2.2,65.71l-3.74,10.5-3.19-12.55s.61-45.25,1.37-65.79,10.43-59.07,30.12-85.66Z" transform="translate(-268.3 -94.66)"></path><path class="cls-17" d="M2616.69,1326.31a5.5,5.5,0,0,1-2.78,1.14c-1.6.14-3.7-2.53,5-12.72Z" transform="translate(-268.3 -94.66)"></path><path class="cls-53" d="M2638.54,1383.3l13.08,49.82-31.84,59.35s23.47-50,22.82-62.74S2638.54,1383.3,2638.54,1383.3Z" transform="translate(-268.3 -94.66)"></path><path class="cls-54" d="M2623.17,1614.84h0c.86,5.91,1.71,11.77,2.54,17.36,4.63-10.66,19.68-71,19.95-72.1Z" transform="translate(-268.3 -94.66)"></path><path class="cls-36" d="M785.79,1383.85s14.88,6,18.2,7.87,6.62,3.67,7.91,3.36,13.4-10,17.12-12.06,31.68-23,30-23.42-17.45-1.24-34.32,8-28.26-.87-34.18.56S785.79,1383.85,785.79,1383.85Z" transform="translate(-268.3 -94.66)"></path><path class="cls-55" d="M1248.66,1565.36a251.17,251.17,0,0,1-18.51,94.93v0a252.74,252.74,0,0,1-233.62,157.15c-139.29,0-252.18-112.88-252.18-252.13s112.89-252.17,252.18-252.17a252.06,252.06,0,0,1,252.13,252.17Z" transform="translate(-268.3 -94.66)"></path><path class="cls-56" d="M1296.66,1517.81l-300,47.53L1153,1304.87A303.93,303.93,0,0,1,1296.66,1517.81Z" transform="translate(-268.3 -94.66)"></path><path class="cls-57" d="M1257.12,1565.34a259.51,259.51,0,0,1-19.11,98.05L996.7,1565.34l257.23-40.76A257.49,257.49,0,0,1,1257.12,1565.34Z" transform="translate(-268.3 -94.66)"></path><path class="cls-58" d="M1252.79,1669.39v.06a275.37,275.37,0,0,1-34,60.41l-222-164.52Z" transform="translate(-268.3 -94.66)"></path><path class="cls-17" d="M656.7,1813.36s11.33,13.05,23,15.93,24.69,8.4,24.67,15.79-38.77,9.78-52.06,2.12c-19.82-11.42-21.9-8.1-24-13.69s3-20.37,2.86-22.14C631,1809.18,656.7,1813.36,656.7,1813.36Z" transform="translate(-268.3 -94.66)"></path><path class="cls-59" d="M655.5,1807.18s1.43,6,1.2,6.18-26.43,2.84-25.57-2c.71-3.92,1.69-8.17,1.69-8.17Z" transform="translate(-268.3 -94.66)"></path><path class="cls-17" d="M415.05,1779.3s5,16.18,14.3,23.38,13,17.24,10.07,23.85-33,1.5-41.7-18.64c-6-13.79-13.29-19.21-13-25.07s7.6-13.8,8.2-15.43C393.67,1765.37,415.05,1779.3,415.05,1779.3Z" transform="translate(-268.3 -94.66)"></path><path class="cls-59" d="M417.71,1773.65s-2.4,5.63-2.66,5.65-24.53-7.76-22.11-11.91a39,39,0,0,1,5.47-6.77Z" transform="translate(-268.3 -94.66)"></path><path class="cls-17" d="M391.81,1496.91s7.67-16,13.06-16.77.79,3.28.79,3.28-7.31,10.9-9.82,15.5C395.71,1499.14,391.81,1496.91,391.81,1496.91Z" transform="translate(-268.3 -94.66)"></path><path class="cls-36" d="M427,1468.23a129.57,129.57,0,0,0-2.47,15.85c-.68,8,.45,11.09-2.11,14.79-1.93,2.79-6.34,3.67-6.81,2.32s4-13.43-1-15.39-4.56,15.36-7.06,13.08-11.27-13.12-8.1-18.83,9.47-8.2,12.86-17.3c3.07-8.24,7-10.61,7-10.61Z" transform="translate(-268.3 -94.66)"></path><path class="cls-17" d="M415.35,1485.5s5.88,4.37-3.62,26.45l-6.93-4.29s5.17-12.24,5.69-19.85C410.49,1487.81,412.65,1483.62,415.35,1485.5Z" transform="translate(-268.3 -94.66)"></path><polygon class="cls-17" points="162.49 1430.96 111.25 1390.77 82.18 1462.24 125.72 1520.45 162.49 1430.96"></polygon><path class="cls-17" d="M616.08,1489.53s54.11,108.28,63.86,134.33c9,24.15-.21,48-1.8,66.3-1.82,20.92-17.4,110.07-16.46,116.24s-32.88,1.16-32.88,1.16,13.79-142.27,4.71-163.28c-6-14-65.4-109.08-70.13-103.64s-57.31,87.58-64.53,103.87c-6.76,15.26-77.84,131.78-77.84,131.78s-18.41-2.43-30.31-14.58c0,0,65.44-128.84,71.67-151,3.17-11.28,32.06-90.18,53.12-141C526.62,1442.92,616.08,1489.53,616.08,1489.53Z" transform="translate(-268.3 -94.66)"></path><path class="cls-60" d="M408.25,1464.83s11.95,13,17.81,12.23,46.09-72.81,51.33-83.66S508,1358.32,508,1358.32v.09a.07.07,0,0,1,0,0c.54,2.41,7.83,35.8,7.38,51.65-.46,16.45,2.36,47.07,2.36,47.07l5,1L606.38,1474l7.49,1.42s4.55-5.44,4.51-18.24c0-8.14-.25-23.46.83-37.6a1.5,1.5,0,0,0,0-.22c0-.17,0-.35,0-.53s0-.14,0-.21c.63-7.77-3.77-14.62-2-20.15a76.85,76.85,0,0,0,2.74-30.23l2-30.78c.72,1.8,54.56,14.53,59,16.41s92.1,24.8,97.17,20.51c5.41-4.58-2-13.09-2-13.09l-90.87-22.64-49.25-29.23c-.67-.59-10.64-5.08-16.51-8.22-9-4.85-21.61-11.39-29.68-15.58l-7.92-4.09s-34.32-5-37-4.92c-.85,0-5,1.24-10.55,3-11.92,3.88-30,10.39-33.73,12.8-5.45,3.52-44.65,79.16-48,84.49S408.25,1464.83,408.25,1464.83Z" transform="translate(-268.3 -94.66)"></path><path class="cls-61" d="M613.88,1475.44s2.1,2.77,2.2,14.09c0,0-91.11-15.1-100.59-19.78,0,0,.22-12.45,2.28-12.57C520,1457.05,613.88,1475.44,613.88,1475.44Z" transform="translate(-268.3 -94.66)"></path><path class="cls-36" d="M545.28,1273.53c-.41,14.39,27.06,23.59,27.06,23.59s12.34-14,9.63-15.57c-1.07-.6-1.41-2.8-1.42-5.25a48.63,48.63,0,0,1,.47-6.51c.13-1,.24-1.67.24-1.67s-3.78-4.38-8.6-9.63c-8.42-9.17-20-21-20.27-16.5a4.5,4.5,0,0,0,.06.85C554.11,1253,545.28,1273.53,545.28,1273.53Z" transform="translate(-268.3 -94.66)"></path><path class="cls-62" d="M538.6,1460.39s-2.61,12.52-2.94,15.79l-4.2-1s1.81-13.28,2.61-15.49Z" transform="translate(-268.3 -94.66)"></path><path class="cls-17" d="M606.3,1473.6s1.06,11.54.89,15.87l-4.46-.8s-.23-14.36-.67-15.88Z" transform="translate(-268.3 -94.66)"></path><path class="cls-38" d="M557,1253h0c.05.08,1.14,1.91,3,4.54,4,5.58,11.62,14.8,20.49,18.78a48.63,48.63,0,0,1,.47-6.51,14.51,14.51,0,0,0,2.78-.2,85.61,85.61,0,0,0-5.63-9.16l-5.51-1.94Z" transform="translate(-268.3 -94.66)"></path><path class="cls-36" d="M552.18,1242.18c2.16,5.35,4.26,9.26,4.84,10.79h0a18.57,18.57,0,0,0,3,4.54c4.35,5.16,12.56,12.09,21,12.27a14.51,14.51,0,0,0,2.78-.2c3.42-.58,7.49-2,9.9-6.16,19-33.17,7.77-61.58,7.77-61.58s-46.85-15.72-55-1.78C540.81,1209.85,547.11,1229.59,552.18,1242.18Z" transform="translate(-268.3 -94.66)"></path><path class="cls-17" d="M601.47,1201.85s4.42,0,5.91-8.35-.59-10.6-.59-10.6-1.26,5.54-25.27-7.8c-6.24-3.46-25.18-6-29.47-1.58,0,0-9.74-2.76-13.22,13.48-5.51,25.76,12.06,51.88,12.06,51.88s.66-17,4.5-19,6.83,3.43,6.83,3.43l7.58,1.74s-10.41-25.66,3.58-25.92S593.42,1202.92,601.47,1201.85Z" transform="translate(-268.3 -94.66)"></path><path class="cls-36" d="M562.33,1216.5c-.37-7.51-13.74-11-13.22-3.14s6.82,15.73,9.91,15.61S562.61,1222.22,562.33,1216.5Z" transform="translate(-268.3 -94.66)"></path><path class="cls-15" d="M477.39,1393.4c-5.83,10.55-42.44,81.17-48.31,82S408.39,1462,408.39,1462s40.9-79.74,44.27-85.07,42.57-81,48-84.49c3.15-2,16.56-7,27.83-10.83,2.06-.7,4-1.37,5.9-2,2.22,2.73,37.89,47.18,32.53,84.81-1.61,11.3-3.93,29.75-8,49.1-4.23,20.1-10.58,42.76-14.8,59.88-7.65,31-22.62,60.11-22.62,60.11L487,1514.19a12.31,12.31,0,0,1-5.35-15.42c9-21.87,27.05-66.07,28-85.59,0,0,.87-44.15-1.66-54.81C508,1358.37,484.07,1381.31,477.39,1393.4Z" transform="translate(-268.3 -94.66)"></path><path class="cls-15" d="M695.53,1337.36l115.86,30s-10.09,17.15-13.6,21.91c-1.9,2.56-107.74-24.89-112.43-26.48-6-2-57.92-18.54-58.64-20.34l-2.85,27.14c-.5,24.51-4.5,41.18-4,60.25,1.08,36.74,13.44,78.41,17.29,93.34a6.68,6.68,0,0,1-2.17,6.79l-11.49,9.62s-13-47.87-14-65c-.95-16.52-5.38-38.81-6.76-60.39h0c-1.73-27.37-3.61-54.5-5.11-70.45-3.91-41.54-8-57.94-8-57.94l.22-.16c2.61,1.35,5.7,2.95,9,4.67,6.86,3.57,25.21,10.93,32.51,14.42C631.38,1304.73,687,1334.69,695.53,1337.36Z" transform="translate(-268.3 -94.66)"></path><path class="cls-63" d="M540.42,1315.73,553.6,1324l-6.07,5.62,11.4,83.94c4.08-19.35,6.4-37.8,8-49.1,5.36-37.63-30.31-82.08-32.53-84.81-1.85.6-3.84,1.27-5.9,2Z" transform="translate(-268.3 -94.66)"></path><path class="cls-63" d="M589.47,1285.43s4.27,16.77,8.18,58.31c1.5,16,3.38,43.08,5.11,70.45l6.91-77.76-6.12-7.3,6.08-6.9-10.76-31.92c-3.28-1.72-6.37-3.32-9-4.67Z" transform="translate(-268.3 -94.66)"></path><path class="cls-15" d="M528.51,1281.64c-11.27,3.83-33,9.6-36.19,11.63-5.45,3.53-36.29,78.36-39.66,83.69Z" transform="translate(-268.3 -94.66)"></path><polygon class="cls-17" points="125.72 1520.45 117.9 1518.82 76.08 1460.93 106.3 1389.12 111.25 1390.77 125.72 1520.45"></polygon><path class="cls-64" d="M577.66,1471.79l2.14-.24c-1.21-10.66,1.92-45.8,4.44-74,.81-9.15,1.58-17.78,2.09-24.29,2-26.07-11.15-65.17-11.28-65.56l-2,.69c.13.39,13.14,39.08,11.17,64.71-.5,6.49-1.27,15.12-2.09,24.25C579.57,1425.66,576.42,1460.92,577.66,1471.79Z" transform="translate(-268.3 -94.66)"></path><path class="cls-65" d="M567.93,1465.75s13.41,2.26,17.81,3.58l-1.31,15.09-17.56-2.74Z" transform="translate(-268.3 -94.66)"></path><path class="cls-5" d="M580.34,1309.51s-5.69,40.67-37.13,44.31-74.42,23.5-87.49,35.38l-16,15.53,1.38-18.56s8.44-30.05,101.15-35.88c0,0,26.45.68,28.69-42.29C570.92,1308,580.65,1307.73,580.34,1309.51Z" transform="translate(-268.3 -94.66)"></path><path class="cls-66" d="M582.63,1310s-7.85,5.22-16.33.21c0,0,3.9-12.7,5.9-13.06S583.71,1307.69,582.63,1310Z" transform="translate(-268.3 -94.66)"></path><path class="cls-67" d="M533.72,1279.9l11.56-6.37s0,6.17,27.06,23.59l-9,21.87Z" transform="translate(-268.3 -94.66)"></path><path class="cls-67" d="M580.65,1278.34s-.75,6.62-8.31,18.78L586.78,1318l2.69-32.53Z" transform="translate(-268.3 -94.66)"></path></svg>