<svg width="674" height="468" viewBox="0 0 674 468" fill="none" xmlns="http://www.w3.org/2000/svg">
<path d="M372.955 387.282H278.115V412.805H372.955V387.282Z" fill="url(#paint0_linear)"/>
<path d="M472.641 395.619H179.432C169.624 395.619 161.653 387.661 161.653 377.827V176.71C161.653 166.895 169.606 158.917 179.432 158.917H472.641C482.449 158.917 490.42 166.876 490.42 176.71V377.846C490.42 387.661 482.449 395.619 472.641 395.619Z" fill="url(#paint1_linear)"/>
<path d="M469.309 372.919H181.761C175.721 372.919 170.836 368.031 170.836 361.986V178.491C170.836 172.447 175.721 167.558 181.761 167.558H469.309C475.349 167.558 480.234 172.447 480.234 178.491V361.986C480.234 368.031 475.349 372.919 469.309 372.919Z" fill="white"/>
<rect x="405.252" y="224.007" width="21.3611" height="21.3749" rx="10.6806" fill="#2F80ED"/>
<path fill-rule="evenodd" clip-rule="evenodd" d="M418.333 236.001L417.085 234.752L418.333 233.503C419.022 232.814 420.14 232.814 420.829 233.503C421.519 234.193 421.519 235.312 420.829 236.001C420.14 236.691 419.022 236.691 418.333 236.001ZM417.181 232.351C418.507 231.024 420.656 231.024 421.981 232.351C423.307 233.677 423.307 235.828 421.981 237.154C420.656 238.481 418.507 238.481 417.181 237.154L415.933 235.905L414.684 237.154C413.359 238.481 411.209 238.481 409.884 237.154C408.558 235.828 408.558 233.677 409.884 232.351C411.209 231.024 413.359 231.024 414.684 232.351L415.933 233.6L417.181 232.351ZM413.532 233.503L414.78 234.752L413.532 236.001C412.843 236.691 411.725 236.691 411.036 236.001C410.347 235.312 410.347 234.193 411.036 233.503C411.725 232.814 412.843 232.814 413.532 233.503Z" fill="white"/>
<path opacity="0.45" d="M248.38 256.07H224.091C223.128 256.07 222.348 256.851 222.348 257.813C222.348 258.776 223.128 259.557 224.091 259.557H248.38C249.343 259.557 250.124 258.776 250.124 257.813C250.124 256.851 249.343 256.07 248.38 256.07Z" fill="#107ED2"/>
<path opacity="0.45" d="M249.456 262.75H223.016C222.647 262.75 222.348 263.049 222.348 263.418C222.348 263.787 222.647 264.086 223.016 264.086H249.456C249.825 264.086 250.124 263.787 250.124 263.418C250.124 263.049 249.825 262.75 249.456 262.75Z" fill="#C5C2E8"/>
<path opacity="0.45" d="M293.773 256.07H269.483C268.52 256.07 267.74 256.851 267.74 257.813C267.74 258.776 268.52 259.557 269.483 259.557H293.773C294.735 259.557 295.516 258.776 295.516 257.813C295.516 256.851 294.735 256.07 293.773 256.07Z" fill="#009444"/>
<path opacity="0.45" d="M294.848 262.75H268.408C268.039 262.75 267.74 263.049 267.74 263.418C267.74 263.787 268.039 264.086 268.408 264.086H294.848C295.217 264.086 295.516 263.787 295.516 263.418C295.516 263.049 295.217 262.75 294.848 262.75Z" fill="#C5C2E8"/>
<path opacity="0.45" d="M339.165 256.07H314.876C313.913 256.07 313.132 256.851 313.132 257.813C313.132 258.776 313.913 259.557 314.876 259.557H339.165C340.128 259.557 340.908 258.776 340.908 257.813C340.908 256.851 340.128 256.07 339.165 256.07Z" fill="#0780DB"/>
<path opacity="0.45" d="M340.24 262.75H313.8C313.431 262.75 313.132 263.049 313.132 263.418C313.132 263.787 313.431 264.086 313.8 264.086H340.24C340.609 264.086 340.908 263.787 340.908 263.418C340.908 263.049 340.609 262.75 340.24 262.75Z" fill="#C5C2E8"/>
<path opacity="0.45" d="M384.557 256.07H360.268C359.305 256.07 358.525 256.851 358.525 257.813C358.525 258.776 359.305 259.557 360.268 259.557H384.557C385.52 259.557 386.301 258.776 386.301 257.813C386.301 256.851 385.52 256.07 384.557 256.07Z" fill="#DB6A38"/>
<path opacity="0.45" d="M428.615 256.07H404.325C403.363 256.07 402.582 256.851 402.582 257.813C402.582 258.776 403.363 259.557 404.325 259.557H428.615C429.578 259.557 430.358 258.776 430.358 257.813C430.358 256.851 429.578 256.07 428.615 256.07Z" fill="#2F80ED"/>
<path opacity="0.45" d="M385.633 262.75H359.193C358.824 262.75 358.525 263.049 358.525 263.418C358.525 263.787 358.824 264.086 359.193 264.086H385.633C386.002 264.086 386.301 263.787 386.301 263.418C386.301 263.049 386.002 262.75 385.633 262.75Z" fill="#C5C2E8"/>
<path opacity="0.45" d="M429.69 262.75H403.25C402.881 262.75 402.582 263.049 402.582 263.418C402.582 263.787 402.881 264.086 403.25 264.086H429.69C430.059 264.086 430.358 263.787 430.358 263.418C430.358 263.049 430.059 262.75 429.69 262.75Z" fill="#C5C2E8"/>
<path fill-rule="evenodd" clip-rule="evenodd" d="M370.773 246.446C376.966 246.446 381.985 241.423 381.985 235.227C381.985 229.03 376.966 224.007 370.773 224.007C364.581 224.007 359.562 229.03 359.562 235.227C359.562 241.423 364.581 246.446 370.773 246.446ZM366.929 230.418C369.052 228.294 372.494 228.294 374.617 230.418C376.74 232.543 376.74 235.987 374.617 238.111L370.773 241.958L366.929 238.111C364.806 235.987 364.806 232.543 366.929 230.418ZM369.171 232.502C370.056 231.617 371.49 231.617 372.375 232.502C373.259 233.387 373.259 234.822 372.375 235.707L370.773 237.31L369.171 235.707C368.287 234.822 368.287 233.387 369.171 232.502Z" fill="#DB6A38"/>
<path fill-rule="evenodd" clip-rule="evenodd" d="M325.925 246.446C332.118 246.446 337.137 241.423 337.137 235.227C337.137 229.03 332.118 224.007 325.925 224.007C319.733 224.007 314.713 229.03 314.713 235.227C314.713 241.423 319.733 246.446 325.925 246.446ZM318.94 232.13L330.022 229.185C330.376 229.091 330.7 229.412 330.611 229.768L327.382 242.568C327.248 243.098 326.475 243.029 326.436 242.484L325.872 234.413C325.857 234.187 325.684 234.002 325.459 233.971L318.997 233.071C318.477 232.999 318.433 232.265 318.94 232.13Z" fill="#0780DB"/>
<path fill-rule="evenodd" clip-rule="evenodd" d="M281.078 224.007C274.885 224.007 269.866 229.03 269.866 235.227C269.866 241.423 274.885 246.446 281.078 246.446C287.27 246.446 292.29 241.423 292.29 235.227C292.29 229.03 287.27 224.007 281.078 224.007ZM279.411 229.398C279.542 229.239 279.773 229.217 279.943 229.334C284.819 232.66 282.14 236.41 281.279 237.409C281.145 237.564 280.916 237.582 280.749 237.464C276.029 234.159 278.578 230.41 279.411 229.398ZM288.652 235.756C288.682 235.554 288.566 235.358 288.369 235.306C287.108 234.969 282.596 234.179 281.458 239.668C281.415 239.873 281.528 240.079 281.729 240.138C283.046 240.521 287.791 241.482 288.652 235.756ZM274.004 236.419C273.984 236.206 274.142 236.025 274.353 235.995C280.187 235.168 280.934 239.446 281.028 240.71C281.043 240.913 280.895 241.085 280.695 241.121C274.972 242.153 274.129 237.742 274.004 236.419Z" fill="#009444"/>
<path fill-rule="evenodd" clip-rule="evenodd" d="M232.848 224.139C231.743 223.732 230.516 224.299 230.109 225.405L225.15 238.883C224.743 239.989 225.309 241.217 226.415 241.624L239.884 246.586C240.99 246.993 242.216 246.427 242.623 245.32L247.582 231.843C247.989 230.736 247.423 229.509 246.317 229.101L232.848 224.139ZM239.211 234.962C240.438 234.962 241.433 233.967 241.433 232.739C241.433 231.51 240.438 230.515 239.211 230.515C237.983 230.515 236.988 231.51 236.988 232.739C236.988 233.967 237.983 234.962 239.211 234.962ZM241.433 238.298C241.433 239.526 240.438 240.522 239.211 240.522C237.983 240.522 236.988 239.526 236.988 238.298C236.988 237.07 237.983 236.074 239.211 236.074C240.438 236.074 241.433 237.07 241.433 238.298ZM233.655 234.962C234.882 234.962 235.877 233.967 235.877 232.739C235.877 231.51 234.882 230.515 233.655 230.515C232.427 230.515 231.432 231.51 231.432 232.739C231.432 233.967 232.427 234.962 233.655 234.962Z" fill="#107ED2"/>
<path opacity="0.45" d="M248.381 320.195H224.091C223.129 320.195 222.348 320.975 222.348 321.938C222.348 322.901 223.129 323.681 224.091 323.681H248.381C249.344 323.681 250.124 322.901 250.124 321.938C250.124 320.975 249.344 320.195 248.381 320.195Z" fill="#196899"/>
<path opacity="0.45" d="M249.456 326.874H223.016C222.647 326.874 222.348 327.173 222.348 327.542C222.348 327.911 222.647 328.21 223.016 328.21H249.456C249.825 328.21 250.124 327.911 250.124 327.542C250.124 327.173 249.825 326.874 249.456 326.874Z" fill="#C5C2E8"/>
<path opacity="0.45" d="M293.773 320.195H269.484C268.521 320.195 267.74 320.975 267.74 321.938C267.74 322.901 268.521 323.681 269.484 323.681H293.773C294.736 323.681 295.516 322.901 295.516 321.938C295.516 320.975 294.736 320.195 293.773 320.195Z" fill="#1AB76D"/>
<path opacity="0.45" d="M294.848 326.874H268.408C268.04 326.874 267.74 327.173 267.74 327.542C267.74 327.911 268.04 328.21 268.408 328.21H294.848C295.217 328.21 295.516 327.911 295.516 327.542C295.516 327.173 295.217 326.874 294.848 326.874Z" fill="#C5C2E8"/>
<path opacity="0.45" d="M337.83 320.195H313.541C312.578 320.195 311.798 320.975 311.798 321.938C311.798 322.901 312.578 323.681 313.541 323.681H337.83C338.793 323.681 339.573 322.901 339.573 321.938C339.573 320.975 338.793 320.195 337.83 320.195Z" fill="#AD93EF"/>
<path opacity="0.45" d="M338.906 326.874H312.466C312.097 326.874 311.798 327.173 311.798 327.542C311.798 327.911 312.097 328.21 312.466 328.21H338.906C339.274 328.21 339.573 327.911 339.573 327.542C339.573 327.173 339.274 326.874 338.906 326.874Z" fill="#C5C2E8"/>
<path opacity="0.45" d="M384.558 320.195H360.268C359.306 320.195 358.525 320.975 358.525 321.938C358.525 322.901 359.306 323.681 360.268 323.681H384.558C385.521 323.681 386.301 322.901 386.301 321.938C386.301 320.975 385.521 320.195 384.558 320.195Z" fill="#0DB14B"/>
<path opacity="0.45" d="M428.615 320.195H404.326C403.363 320.195 402.583 320.975 402.583 321.938C402.583 322.901 403.363 323.681 404.326 323.681H428.615C429.578 323.681 430.358 322.901 430.358 321.938C430.358 320.975 429.578 320.195 428.615 320.195Z" fill="#FF9F2E"/>
<path opacity="0.45" d="M385.633 326.874H359.193C358.824 326.874 358.525 327.173 358.525 327.542C358.525 327.911 358.824 328.21 359.193 328.21H385.633C386.002 328.21 386.301 327.911 386.301 327.542C386.301 327.173 386.002 326.874 385.633 326.874Z" fill="#C5C2E8"/>
<path opacity="0.45" d="M429.691 326.874H403.25C402.882 326.874 402.583 327.173 402.583 327.542C402.583 327.911 402.882 328.21 403.25 328.21H429.691C430.059 328.21 430.358 327.911 430.358 327.542C430.358 327.173 430.059 326.874 429.691 326.874Z" fill="#C5C2E8"/>
<path fill-rule="evenodd" clip-rule="evenodd" d="M292.29 303.359C292.29 309.556 287.271 314.579 281.078 314.579C274.886 314.579 269.866 309.556 269.866 303.359C269.866 297.163 274.886 292.14 281.078 292.14C287.271 292.14 292.29 297.163 292.29 303.359ZM281.272 298.18C281.272 297.682 281.639 297.26 282.132 297.19L283.885 296.94C284.476 296.856 285.008 297.306 285.025 297.902L285.299 307.604C285.316 308.219 284.78 308.704 284.17 308.624L282.143 308.36C281.645 308.295 281.272 307.871 281.272 307.368V298.18ZM277.459 298.918C277.102 299.061 276.858 299.397 276.832 299.78L276.406 306.189C276.373 306.679 276.702 307.121 277.182 307.23L279.002 307.644C279.621 307.785 280.213 307.321 280.224 306.686L280.352 299.255C280.364 298.54 279.644 298.044 278.981 298.309L277.459 298.918Z" fill="#1AB76D"/>
<path fill-rule="evenodd" clip-rule="evenodd" d="M365.348 313.103C361.862 311.195 359.502 307.53 359.502 303.322C359.502 297.146 364.583 292.14 370.85 292.14C377.118 292.14 382.198 297.146 382.198 303.322C382.198 307.856 379.459 311.76 375.521 313.515L370.676 308.74C370.734 308.742 370.792 308.743 370.85 308.743C373.889 308.743 376.352 306.316 376.352 303.322C376.352 300.328 373.889 297.9 370.85 297.9C367.812 297.9 365.348 300.328 365.348 303.322C365.348 303.379 365.349 303.437 365.351 303.494L365.348 303.491V313.103Z" fill="#0DB14B"/>
<path fill-rule="evenodd" clip-rule="evenodd" d="M236.231 314.579C242.423 314.579 247.442 309.556 247.442 303.359C247.442 301.211 246.839 299.204 245.793 297.498L242.454 309.918H239.28L237.549 302.947L235.818 310.083H232.685L229.222 297.626H232.685L234.334 304.473L236.312 297.626H239.074L240.97 304.473L243.514 294.829C241.555 293.153 239.011 292.14 236.231 292.14C230.038 292.14 225.019 297.163 225.019 303.359C225.019 309.556 230.038 314.579 236.231 314.579Z" fill="#196899"/>
<path fill-rule="evenodd" clip-rule="evenodd" d="M314.16 296.506C313.806 294.434 315.362 292.53 317.449 292.481L331.973 292.141C334.174 292.09 335.848 294.117 335.397 296.287L332.107 312.114C331.763 313.771 330.273 314.93 328.594 314.847L319.933 314.416C318.335 314.336 317.005 313.151 316.734 311.563L314.16 296.506ZM331.863 299.135C331.863 300.314 330.914 301.27 329.743 301.27C328.572 301.27 327.623 300.314 327.623 299.135C327.623 297.956 328.572 297 329.743 297C330.914 297 331.863 297.956 331.863 299.135ZM324.442 310.166C326.979 310.166 329.036 308.095 329.036 305.54C329.036 302.986 326.979 300.914 324.442 300.914C321.905 300.914 319.849 302.986 319.849 305.54C319.849 308.095 321.905 310.166 324.442 310.166Z" fill="#AD93EF"/>
<path d="M426.614 302.828C426.614 308.73 421.832 313.515 415.933 313.515C410.034 313.515 405.252 308.73 405.252 302.828C405.252 296.925 410.034 292.14 415.933 292.14C421.832 292.14 426.614 296.925 426.614 302.828Z" fill="#FF9F2E"/>
<mask id="mask0" mask-type="alpha" maskUnits="userSpaceOnUse" x="405" y="292" width="22" height="22">
<path d="M426.614 302.828C426.614 308.73 421.832 313.515 415.933 313.515C410.034 313.515 405.252 308.73 405.252 302.828C405.252 296.925 410.034 292.14 415.933 292.14C421.832 292.14 426.614 296.925 426.614 302.828Z" fill="#FF9F2E"/>
</mask>
<g mask="url(#mask0)">
<path d="M416.467 300.37C416.467 299.603 417.089 298.98 417.856 298.98H428.18C428.947 298.98 429.569 299.603 429.569 300.37V300.37C429.569 301.137 428.947 301.759 428.18 301.759H417.856C417.089 301.759 416.467 301.137 416.467 300.37V300.37Z" fill="white"/>
<path d="M418.995 295.453C418.995 294.686 419.617 294.064 420.383 294.064H430.708C431.475 294.064 432.096 294.686 432.096 295.453V295.453C432.096 296.221 431.475 296.843 430.708 296.843H420.383C419.617 296.843 418.995 296.221 418.995 295.453V295.453Z" fill="white"/>
<path d="M414.865 305.286C414.865 304.519 415.487 303.896 416.254 303.896H426.578C427.345 303.896 427.967 304.519 427.967 305.286V305.286C427.967 306.053 427.345 306.675 426.578 306.675H416.254C415.487 306.675 414.865 306.053 414.865 305.286V305.286Z" fill="white"/>
<path d="M418.995 310.22C418.995 309.452 419.617 308.83 420.383 308.83H430.708C431.475 308.83 432.096 309.452 432.096 310.22V310.22C432.096 310.987 431.475 311.609 430.708 311.609H420.383C419.617 311.609 418.995 310.987 418.995 310.22V310.22Z" fill="white"/>
</g>
<path d="M413.72 426.694H237.351V424.478C237.351 416.822 243.561 410.607 251.211 410.607H399.841C407.49 410.607 413.701 416.822 413.701 424.478V426.694H413.72Z" fill="url(#paint2_linear)"/>
<path opacity="0.1" d="M481.166 159.088H430.48C430.821 175.535 431.105 192.001 431.313 208.448C431.351 210.968 431.313 213.564 430.404 215.895C430.366 215.895 430.328 215.895 430.328 215.895C429.666 215.857 429.95 216.066 429.723 217.278C429.723 217.297 429.704 217.316 429.704 217.335C427.659 220.689 423.645 222.508 419.763 223.38C419.726 223.588 419.763 223.759 419.82 223.929C419.366 224.327 419.157 224.839 419.423 225.464C419.65 226.013 422.566 226.752 426.523 226.336C427.659 226.222 429.874 225.597 430.915 225.123C431.54 224.839 432.089 224.403 432.525 224.024C433.036 223.967 433.547 223.853 434.002 223.664L434.153 223.815L438.697 221.845C438.697 221.845 438.205 218.984 437.807 217.487C437.732 217.202 437.618 216.975 437.504 216.786C441.291 206.478 444.302 195.905 446.403 185.123C445.57 198.482 440.78 225.634 440.42 226.563C439.814 228.136 437.732 230.353 434.645 230.618C433.566 230.713 428.284 230.409 428.852 232.835C428.984 233.422 431.73 234.654 435.706 234.919C436.842 234.995 439.133 234.768 440.25 234.483C441.727 234.085 443.071 232.948 443.071 232.948L443.677 233.763L448.486 232.607C448.486 232.607 448.486 231.357 448.448 229.841C448.41 228.325 447.426 226.904 447.426 226.904L447.501 224.175L450.171 223.853C450.171 223.853 455.529 206.516 458.067 200.623C459.108 198.197 460.282 195.791 460.944 193.233C461.721 190.22 461.796 187.094 462.043 183.986C462.497 178.34 463.538 172.731 465.148 167.312C465.242 166.971 465.356 166.611 465.602 166.345C466.019 165.872 466.719 165.796 467.363 165.739C474.179 165.114 477.303 166.27 481.563 164.943C487.187 163.2 487.774 160.642 488.058 160.528C485.956 159.581 483.608 159.088 481.166 159.088Z" fill="#22256D"/>
<g opacity="0.35">
<path opacity="0.35" d="M490.42 272.645V213.811C481.654 225.293 472.982 235.582 464.216 247.084C460.41 252.067 445.509 268.571 455.677 275.203C458.271 276.89 462.796 276.814 465.049 276.984C473.153 277.553 481.199 275.317 489.076 273.081C489.511 272.929 489.966 272.797 490.42 272.645Z" fill="#5851BC"/>
</g>
<path opacity="0.35" d="M490.42 285.303L485.535 285.682L485.441 285.398L481.635 285.701L480.499 282.461C479.855 280.623 477.697 279.258 475.709 279.41C473.721 279.58 472.622 281.191 473.285 283.048C473.474 283.616 474.042 285.17 474.421 286.25L470.426 286.553L470.502 286.838L462.266 287.482C460.959 287.482 459.047 289.168 459.463 290.343L459.539 290.514C459.558 290.608 459.539 290.703 459.577 290.817L466.696 310.921L466.507 395.62H474.762L490.401 334.777V285.303H490.42ZM477.564 284.678C476.447 284.772 475.235 283.995 474.876 282.972C474.516 281.93 475.122 281.021 476.239 280.926C477.356 280.831 478.568 281.608 478.927 282.631C479.306 283.673 478.681 284.583 477.564 284.678Z" fill="#5851BC"/>
<path opacity="0.35" d="M182.31 250.4C180.474 252.428 178.296 256.748 177.425 258.605C176.497 260.443 175.494 261.485 172.862 262.716C169.246 264.365 165.364 265.957 161.653 267.416V277.022C169.227 272.456 176.081 268.211 176.194 268.174C181.988 270.391 186.816 265.578 188.369 262.091C189.07 260.537 188.028 259.893 187.971 259.154C187.952 258.775 188.445 256.52 188.369 256.217C187.915 254.19 182.481 255.971 182.916 255.005C183.181 254.266 183.825 252.541 185.188 251.613C187.858 249.794 189.903 247.766 189.903 247.008C189.903 245.701 182.954 249.718 182.31 250.4Z" fill="#5851BC"/>
<path d="M124.903 210.476C127.44 214.872 125.244 220.86 127.819 225.237C128.841 226.98 130.583 228.363 131.076 230.334C131.492 231.982 130.848 233.858 129.504 234.919C128.16 235.98 126.191 236.151 124.695 235.355C124.373 235.185 124.07 234.976 123.71 234.862C122.442 234.484 121.306 235.62 120.208 236.359C118.863 237.269 117.121 237.686 115.588 237.174C113.619 236.511 112.407 234.521 111.744 232.57C109.908 227.056 111.214 221.03 112.899 215.478C113.751 212.712 115.001 209.623 117.708 208.619" fill="#02007D"/>
<path d="M183.882 257.164C183.919 257.77 184.847 258.301 184.241 259.589C182.859 262.451 178.561 266.43 173.43 264.592C173.203 264.668 145.048 280.963 142.871 280.963C140.694 280.963 125.925 266.96 121.078 249.642C119.923 245.511 120.378 240.641 124.24 238.557C124.24 238.557 127.459 239.334 129.56 243.294C132.76 249.338 142.341 269.367 144.48 270.125C147.131 268.363 160.025 264.516 170.476 260.082C172.805 259.059 173.695 258.206 174.528 256.69C175.305 255.156 177.236 251.593 178.864 249.926C179.432 249.357 185.605 246.041 185.605 247.121C185.605 247.747 183.787 249.414 181.42 250.911C180.208 251.688 179.64 253.109 179.413 253.715C179.016 254.511 183.844 253.052 184.241 254.72C184.317 254.985 183.863 256.842 183.882 257.164Z" fill="#FFB9B0"/>
<g opacity="0.35">
<path opacity="0.35" d="M126.815 248.486C126.683 248.315 126.531 248.145 126.342 248.069C125.963 247.917 125.528 248.164 125.339 248.524C125.13 248.884 125.13 249.301 125.13 249.698C125.149 251.252 125.395 252.787 125.85 254.265L125.377 262.318C125.377 262.318 125.377 262.337 125.395 262.337C127.346 262.451 129.334 262.185 131.17 261.503C132.041 261.181 132.988 260.84 133.935 260.461C132.912 255.914 129.826 252.086 126.815 248.486Z" fill="#7762EF"/>
</g>
<path d="M114.338 230.05C114.338 230.05 114.224 235.09 115.001 235.431C116.534 236.094 118.257 236.435 118.257 236.435L118.314 246.876L104.417 244.772L94.855 239.448C94.855 239.448 104.795 236.151 104.89 235.166C104.985 234.18 104.341 228.591 104.341 228.591" fill="#FFB9B0"/>
<path d="M92.7917 379.898C92.7917 379.917 92.7917 379.917 92.7917 379.936C88.986 397.994 90.8037 422.778 89.9517 436.364C90.1599 436.421 95.1206 437.046 95.1206 437.046C95.1206 437.046 106.878 379.765 109.018 368.794C109.169 368.036 109.264 367.316 109.283 366.672C109.794 358.411 102.372 357.994 98.1689 364.815C97.4684 365.933 96.8246 367.165 96.2566 368.491C96.0294 369.022 95.8022 369.571 95.575 370.159V370.178C94.8744 371.959 94.2686 373.891 93.7384 375.938L93.7006 376.146C93.5302 376.715 93.3787 377.302 93.2461 377.89L93.2272 378.022C93.0568 378.647 92.9243 379.273 92.7917 379.898Z" fill="#FFB9B0"/>
<path d="M115.077 315.114C114.944 316.611 114.149 323.716 113.184 332.091C112.369 339.14 111.48 347.079 110.779 353.37C110.268 358.088 109.889 361.859 109.719 363.621C109.643 364.72 109.492 365.706 109.302 366.672V366.71C107.503 374.952 101.823 375.426 98.3584 373.512C97.8851 373.266 97.4307 372.944 97.052 372.622C96.2568 371.902 95.7266 371.03 95.5751 370.196V370.177C95.3479 368.491 95.1397 366.179 94.9314 363.432V363.394C94.9125 363.375 94.9125 363.375 94.9125 363.356L94.8935 363.299C94.477 357.937 94.1172 351.059 93.7954 344.351C93.4167 336.108 93.1705 328.169 93.1137 323.678C93.0948 323.413 93.0948 323.186 93.0759 322.939C93.0191 309.202 105.629 300.391 113.468 304.654C113.562 304.692 113.638 304.73 113.752 304.787C113.865 304.863 113.979 304.92 114.055 304.957C114.944 305.564 115.247 307.61 115.266 309.96C115.304 311.684 115.191 313.56 115.077 315.114Z" fill="#FFB9B0"/>
<path d="M95.8779 366.956L94.9123 363.356C94.9123 363.375 94.9123 363.375 94.9123 363.394C94.9312 364.209 95.0259 370.007 93.7194 375.957L93.6816 376.165C93.549 376.733 93.3976 377.34 93.2272 377.908L93.2082 378.041C92.9432 378.988 92.8106 379.595 92.8106 379.879C92.8106 379.898 92.8106 379.898 92.8106 379.917C92.7917 381.546 96.2755 374.308 97.0707 372.603C97.1654 372.394 97.2222 372.262 97.2222 372.262L96.2755 368.491L95.8779 366.956Z" fill="#FFB9B0"/>
<path d="M123.218 384.535C123.218 384.554 123.218 384.554 123.218 384.573C122.858 403.464 128.69 425.691 130.224 439.428C130.413 439.428 134.995 438.822 134.995 438.822C134.995 438.822 135.866 380.916 135.923 369.471C135.923 368.675 135.885 367.936 135.809 367.292C134.862 358.955 128.122 360.376 125.509 368.22C125.074 369.509 124.714 370.892 124.411 372.351C124.297 372.939 124.184 373.545 124.07 374.17V374.189C123.748 376.141 123.521 378.206 123.388 380.385V380.613C123.332 381.238 123.294 381.844 123.275 382.47V382.602C123.256 383.228 123.237 383.872 123.218 384.535Z" fill="#FFB9B0"/>
<path d="M127.137 376.823C126.645 376.69 126.209 376.482 125.812 376.235C124.96 375.724 124.316 375.004 124.07 374.189V374.17C123.578 372.54 122.991 370.267 122.328 367.576C122.309 367.557 122.309 367.557 122.309 367.538L122.29 367.462C121.021 362.252 119.507 355.487 118.087 348.893C116.345 340.783 114.792 332.939 113.978 328.486C113.921 328.239 113.221 324.999 113.164 324.772C110.74 310.959 121.495 301.977 129.314 304.611C129.428 304.649 129.523 304.687 129.617 304.725C131.189 305.35 131.624 310.883 131.984 314.635C132.344 318.367 134.995 357.136 135.657 364.146C135.771 365.264 135.809 366.306 135.79 367.292C135.638 375.951 130.583 377.865 127.137 376.823Z" fill="#FFB9B0"/>
<path d="M123.804 370.892L122.328 367.557C122.328 367.576 122.328 367.576 122.347 367.595C122.498 368.391 123.577 374.151 123.407 380.385V380.612C123.388 381.219 123.35 381.844 123.293 382.469V382.602C123.218 383.625 123.199 384.232 123.236 384.535C123.236 384.554 123.236 384.554 123.236 384.573C123.502 386.202 125.395 378.13 125.83 376.254C125.887 376.008 125.925 375.875 125.925 375.875L124.448 372.351L123.804 370.892Z" fill="#FFB9B0"/>
<path d="M99.8157 289.775C99.8157 289.775 89.6861 302.64 90.7275 315.582C91.1629 320.963 91.8256 325.719 92.4315 331.12C92.5262 331.897 93.7379 343.284 93.3971 343.284C93.3971 343.284 114.262 349.746 134.427 341.276C134.427 339.893 136.036 313.422 125.149 288.183C112.009 290.059 99.8157 289.775 99.8157 289.775Z" fill="#22256D"/>
<path d="M124.392 209.453C124.392 209.453 125.187 219.211 123.521 224.308C122.29 228.098 117.235 231.622 113.013 231.584C101.387 231.584 99.2856 215.762 99.3613 215.004C99.4181 214.247 116.515 207.596 116.515 207.596L124.392 209.453Z" fill="#FFB9B0"/>
<path d="M101.842 446.723C97.695 446.022 95.0632 443.729 93.2456 443.407C91.7498 443.141 87.982 442.402 87.5843 440.849C87.2814 439.693 88.4364 434.918 90.1972 434.899C90.1972 434.899 90.5002 435.164 91.125 435.505C92.0527 435.998 93.6432 436.661 95.8774 436.794C98.4145 439.087 98.3198 439.655 101.444 441.55C102.807 442.384 104.341 443.483 105.269 444.392C106.48 445.586 104.189 447.102 101.842 446.723Z" fill="#22256D"/>
<path d="M41.3857 253.109L45.1914 248.581L68.4422 269.386C68.4422 269.386 79.7835 254.265 82.9076 249.547C86.3346 244.355 89.4398 239.921 94.4572 239.05C95.6122 239.77 94.0596 258.396 93.4537 258.851C86.4482 264.099 72.7969 281.039 68.4611 281.911C63.4436 282.915 41.3857 253.109 41.3857 253.109Z" fill="#FFB9B0"/>
<path d="M93.3029 238.387C93.0378 238.254 92.7917 238.103 92.5456 237.951C91.2202 237.155 89.9895 236.321 89.4215 234.806C88.6073 232.627 88.2287 229.273 89.3647 227.151C90.122 225.71 91.561 224.782 92.5645 223.493C93.9277 221.712 94.3254 219.382 94.439 217.127C94.5526 214.891 94.42 212.617 94.8934 210.419C95.7075 206.667 96.7678 203.086 99.6647 200.661C104.303 196.776 113.581 194.484 118.636 198.804C119.564 199.6 119.735 200.225 120.984 200.339C122.65 200.509 123.73 200.718 125.225 201.57C126.892 202.537 128.899 203.882 128.652 206.061C128.482 207.577 126.778 209.945 125.49 210.666C124.941 210.969 124.317 211.063 123.711 211.063C121.742 211.101 120.113 209.813 118.182 210.021C117.235 210.116 116.345 210.628 115.758 211.367C115.058 212.219 115.153 213.432 114.338 214.228C113.032 215.516 111.006 215.403 109.472 216.255C109.207 216.388 108.961 216.558 108.81 216.805C108.658 217.051 108.658 217.354 108.639 217.638C108.601 218.453 108.583 219.268 108.545 220.083C107.787 219.742 107.693 218.662 107.068 218.112C106.462 217.582 105.458 217.733 104.853 218.264C104.247 218.794 103.944 219.59 103.792 220.386C103.603 221.333 103.925 222.338 104.228 223.304C104.739 224.971 106.159 226.449 107.295 225.369C108.128 226.601 107.219 228.647 107.181 230.031C107.162 231.13 107.181 233.309 108.204 234.029C109.151 234.692 110.646 234.18 110.703 235.905C110.76 237.477 109.188 238.69 107.636 238.879C106.083 239.069 104.55 238.519 103.054 238.084C101.558 237.629 99.9108 237.288 98.4529 237.856C97.563 238.197 96.8057 238.861 95.859 239.012C94.9502 239.145 94.0981 238.823 93.3029 238.387Z" fill="#02007D"/>
<path fill-rule="evenodd" clip-rule="evenodd" d="M126.683 269.102C129.133 266.385 130.946 264.335 131.414 261.393C131.562 261.339 131.713 261.285 131.864 261.23L131.869 261.228C133.792 260.532 135.936 259.756 137.74 258.301C136.997 256.409 136.114 254.605 135.229 252.8L135.229 252.8C134.334 250.972 133.437 249.142 132.685 247.216C132.639 247.103 132.594 246.989 132.548 246.876L132.547 246.874C132.236 246.098 131.926 245.326 131.53 244.583C129.788 241.267 126.778 238.917 123.123 238.064L123.122 238.074C121.413 237.547 120.464 237.211 119.744 236.956C119.18 236.757 118.757 236.607 118.22 236.454C118.222 236.579 118.226 236.712 118.23 236.851L118.23 236.851C118.302 239.49 118.44 244.483 114.357 246.175C106.481 245.095 103.451 236.113 103.451 236.113C103.451 236.113 98.3941 237.874 94.8944 238.939C93.7645 238.799 90.9849 238.619 89.3833 239.94C87.3384 241.627 77.5875 257.088 77.5875 257.088C77.5875 257.088 77.3414 260.006 80.1436 262.47C83.1541 265.085 87.168 265.52 87.168 265.52C87.168 265.52 91.7272 260.993 94.5146 258.682C94.7949 259.811 95.0667 260.785 95.3096 261.523C95.5368 262.186 95.7829 263.057 96.0669 264.081C97.8656 270.732 100.516 283.825 99.8158 289.775C106.518 294.606 121.097 291.726 125.149 288.202C125.742 288.064 125.625 287.447 125.433 286.434C125.281 285.634 125.082 284.586 125.149 283.332C125.452 277.875 126.323 269.651 126.683 269.102Z" fill="#FFFCAF"/>
<path d="M146.544 444.885C142.398 445.624 137.986 444.468 136.168 444.771C134.673 445.017 130.81 446.003 129.371 444.714C127.932 443.426 128.159 438.84 129.826 438.234C129.826 438.234 130.204 438.386 130.905 438.499C131.946 438.651 133.65 438.727 135.809 438.101C138.952 439.39 139.084 439.958 142.663 440.697C144.215 441.019 146.033 441.531 147.226 442.08C148.759 442.782 148.873 444.468 146.544 444.885Z" fill="#22256D"/>
<path d="M51.0608 253.848C51.0608 253.848 45.5889 249.471 45.2291 248.259C44.8505 247.065 44.7747 245.776 44.3203 244.602C43.6576 242.896 42.2187 241.532 40.5336 240.831C39.1703 240.263 39.833 239.808 38.3751 240.092C36.1598 240.528 35.1185 242.688 34.2286 244.393C30.4608 251.631 40.7797 252.996 41.1584 253.015C41.9157 253.053 45.7593 257.411 45.7593 257.411" fill="#FFB9B0"/>
<path d="M33.8123 250.362L37.5612 252.864C38.0534 253.186 38.7161 253.034 39.0191 252.541L47.2364 238.766L42.3704 236.019L33.5472 248.941C33.2064 249.396 33.3389 250.04 33.8123 250.362Z" fill="#3B2E7A"/>
<path d="M20.4452 221.106L21.7327 221.978L26.9395 214.379L25.652 213.508C23.8154 212.257 21.1646 212.939 19.7257 215.043C18.2867 217.146 18.6086 219.855 20.4452 221.106Z" fill="#C4C4F7"/>
<path d="M15.6929 230.372L39.6442 234.01L45.116 226.032L33.0173 205.076L15.6929 230.372Z" fill="#C4C4F7"/>
<path d="M17.2075 230.694L39.6441 234.01L41.8215 230.826L22.9445 222.337L17.2075 230.694Z" fill="#BBBBF2"/>
<path d="M49.4897 239.808C50.7772 240.68 52.6327 240.206 53.6362 238.728L54.6019 237.307C55.6053 235.848 55.3781 233.934 54.1096 233.062C52.8221 232.191 50.9666 232.664 49.9631 234.142L48.9974 235.564C47.975 237.042 48.2022 238.936 49.4897 239.808Z" fill="#C4C4F7"/>
<path d="M49.9629 234.142L48.9973 235.564C47.9938 237.042 48.221 238.936 49.4895 239.808C50.777 240.68 52.6136 240.206 53.636 238.728L54.6017 237.307C54.6774 237.193 54.7342 237.079 54.791 236.966C53.7497 238.178 52.0835 238.538 50.8906 237.724C49.6978 236.909 49.4327 235.222 50.1901 233.82C50.1144 233.934 50.0386 234.048 49.9629 234.142Z" fill="#BBBBF2"/>
<path d="M14.8973 231.149C15.6547 231.66 16.7339 231.376 17.3209 230.523L33.7554 206.554C34.3424 205.701 34.2098 204.583 33.4714 204.072C32.7141 203.56 31.6348 203.844 31.0479 204.697L14.6133 228.648C14.0264 229.519 14.1589 230.637 14.8973 231.149Z" fill="#766AAD"/>
<path d="M33.888 204.526L20.1988 224.479C19.6119 225.332 18.5137 225.616 17.7753 225.104C17.6049 224.99 17.4534 224.82 17.3587 224.649L14.6133 228.647C14.0264 229.5 14.1589 230.618 14.8973 231.13C15.6547 231.641 16.7339 231.357 17.3209 230.504L33.7554 206.535C34.2098 205.91 34.2477 205.095 33.888 204.526Z" fill="#3B2E7A"/>
<path d="M41.7455 238.197L43.298 239.259C45.589 240.812 48.9025 239.96 50.6822 237.345L52.2159 235.09C54.0146 232.475 53.617 229.083 51.326 227.53L49.7734 226.468C47.4824 224.915 44.169 225.767 42.3892 228.382L40.8556 230.637C39.0569 233.252 39.4734 236.644 41.7455 238.197Z" fill="#766AAD"/>
<path d="M40.9504 230.504L38.6405 233.877C38.0725 234.711 38.205 235.772 38.9245 236.265L46.1383 241.191C46.8578 241.684 47.9181 241.419 48.4861 240.585L50.796 237.212C50.228 238.046 49.1866 238.311 48.4482 237.818L41.2344 232.892C40.496 232.418 40.3824 231.338 40.9504 230.504Z" fill="#3B2E7A"/>
<path d="M34.6074 246.894C34.3045 244.791 34.7779 242.782 35.9328 241.267C36.3304 240.736 36.8038 240.281 37.2771 239.826C37.5043 239.599 37.7505 239.372 38.0913 239.296C38.6214 239.163 39.2841 239.372 39.8332 239.694C40.4391 240.035 41.026 240.528 41.2722 241.115C41.6698 242.1 40.9881 242.915 40.2119 243.408C40.1361 243.465 40.0415 243.502 40.0225 243.597C39.9847 243.73 40.0793 243.9 40.1551 244.052C40.4959 244.658 40.7799 245.321 40.7041 245.928C40.6284 246.515 40.1172 247.008 39.4166 246.894C39.1326 246.856 38.754 246.743 38.6593 246.951C38.6214 247.027 38.6404 247.103 38.6593 247.197C38.735 247.804 38.5836 248.372 38.2238 248.77C38.1291 248.865 38.0345 248.96 37.883 248.997C37.7694 249.016 37.6369 248.978 37.5233 248.941C37.0878 248.808 36.6523 248.618 36.2358 248.372" fill="#FFB9B0"/>
<path d="M45.1915 248.562C45.059 247.766 44.775 246.439 44.7371 245.625C44.6614 243.427 43.4875 241.229 41.5752 240.13C41.4237 240.035 41.2343 239.959 41.0639 239.978C40.8367 240.016 40.6853 240.243 40.6474 240.471C40.6095 240.698 40.6853 240.925 40.7421 241.153C40.9693 241.854 41.9538 243.161 41.6509 243.862C41.1965 244.924 40.8367 246.098 40.8746 247.273C40.9125 248.315 41.3858 250.002 42.6165 250.172" fill="#FFB9B0"/>
<path d="M17.4155 193.479L22.2437 204.867" stroke="#C4C4F7" stroke-width="0.75" stroke-miterlimit="10" stroke-linecap="round" stroke-linejoin="round"/>
<path d="M7.36182 203.597L17.2453 211.006" stroke="#C4C4F7" stroke-width="0.75" stroke-miterlimit="10" stroke-linecap="round" stroke-linejoin="round"/>
<path d="M1 217.373L13.2691 218.586" stroke="#C4C4F7" stroke-width="0.75" stroke-miterlimit="10" stroke-linecap="round" stroke-linejoin="round"/>
<path d="M403.973 97.7148C403.973 97.7148 399.561 94.6073 399.41 93.2998C399.258 91.9924 396.172 86.6869 395.187 85.6447C394.203 84.5836 389.034 82.8025 387.936 82.632C386.838 82.4804 380.495 83.0109 381.29 83.8825C382.085 84.7542 386.175 84.432 386.97 84.9057C387.765 85.3794 387.765 85.3794 387.765 85.3794C387.765 85.3794 386.97 86.4406 387.292 87.1037C387.614 87.748 385.948 88.7522 386.572 89.8512C387.197 90.9502 386.326 90.8745 386.875 92.0303C387.803 93.9251 390.189 94.9862 390.814 94.4746C391.287 95.5926 393.105 97.9043 394.79 97.7337C396.494 97.5821 400.602 101.448 400.602 101.448" fill="#FFB9B0"/>
<path d="M471.245 75.564C471.396 78.5199 471.188 83.6928 472.04 84.4507C472.892 85.2086 475.618 85.0949 475.618 85.0949C475.618 85.0949 465.83 97.4871 464.959 96.805C464.088 96.1228 452.5 86.6866 455.113 86.1939C457.707 85.7013 460.263 85.815 460.187 84.4696C460.112 83.1243 460.036 81.779 459.96 80.4337" fill="#FFB9B0"/>
<path d="M482.397 141.713C482.397 141.713 463.292 143.892 458.9 143.968C454.507 144.062 454.715 141.77 454.715 141.77C454.488 136.919 453.674 125.512 452.765 121.647C451.913 118.028 451.535 116.701 450.796 113.271C449.149 105.635 449.225 104.195 447.483 94.778L458.9 85.607C458.9 85.607 460.074 89.1124 464.864 89.1882C471.264 89.264 473.252 84.7922 473.252 84.7922L488.815 95.138L490.273 120.282L488.418 140.993" fill="#FF9F2E"/>
<path d="M471.453 72.8738C471.112 74.3707 470.658 75.8297 470.109 77.2698C469.105 79.8846 467.609 80.832 464.845 80.9078C462.895 80.9457 460.945 81.0026 458.995 81.0405C457.499 81.0784 455.643 81.1352 454.432 80.0741C453.239 79.032 453.201 77.2698 452.936 75.8297C452.595 73.9917 452.311 72.1158 452.103 70.2589C451.686 66.6019 451.516 62.9259 451.591 59.25C451.61 58.7384 451.61 58.2457 451.724 57.7341C451.762 57.5257 451.838 57.3172 451.97 57.1846C452.159 56.9951 452.425 56.9572 452.671 56.9193C456.325 56.3509 460.036 56.1045 463.728 56.2182C466.341 56.294 469.105 56.5972 471.169 58.1889C473.252 59.7995 474.236 62.4143 475.126 64.8966C475.278 65.2945 475.372 65.825 475.032 66.0713" fill="#FFB9B0"/>
<path d="M428.625 209.889C428.625 209.889 429.25 213.697 429.761 214.986C430.272 216.293 434.532 215.081 434.816 214.247C435.1 213.413 433.472 207.217 433.472 207.217" fill="#ED9C80"/>
<path d="M436.293 215.327C436.653 216.729 437.126 219.42 437.126 219.42L432.866 221.277L432.165 220.613C432.165 220.613 431.105 221.902 429.798 222.508C428.833 222.963 426.731 223.531 425.671 223.645C421.96 224.043 419.214 223.342 418.987 222.83C418.059 220.67 423.001 220.102 423.986 219.837C426.807 219.098 428.359 216.71 428.662 215.156C428.871 214.019 428.606 213.83 429.23 213.868C429.23 213.868 429.78 213.83 430.291 214.361C431.086 215.175 432.26 215.535 433.32 215.062C433.926 214.796 434.494 214.379 434.835 213.811C434.835 213.811 435.914 213.925 436.293 215.327Z" fill="#38287C"/>
<path d="M447.761 159.943C441.096 161.251 432.747 161.345 426.025 160.455C426.972 163.145 429.282 166.613 430.153 170.422C433.049 182.965 434.053 199.829 434.791 210.27C434.791 210.27 433.39 212.941 428.941 210.914C422.276 194.429 410.632 161.023 410.745 153.785C410.878 144.557 433.902 142.34 450.753 140.066" fill="#22256D"/>
<path d="M477.146 141.467C482.448 145.351 447.761 159.942 447.761 159.942C443.917 160.7 440.168 161.041 436.382 161.022C436.022 160.34 435.681 159.619 435.53 158.862C435.321 157.857 435.435 156.796 435.265 155.792C434.924 153.821 433.504 152.154 431.8 151.112C430.096 150.07 428.108 149.596 426.138 149.274C421.443 148.516 413.263 149.046 413.263 149.046C423.696 141.353 445.034 140.349 454.975 139.705C456.849 142.869 476.389 140.899 477.146 141.467Z" fill="#13166C"/>
<path d="M439.606 218.662C439.606 218.662 439.569 222.508 439.853 223.891C440.118 225.256 444.529 224.82 444.946 224.043C445.362 223.266 444.832 216.899 444.832 216.899" fill="#ED9C80"/>
<path d="M446.233 225.35C446.347 226.79 446.347 229.519 446.347 229.519L441.841 230.599L441.273 229.822C441.273 229.822 440.004 230.902 438.622 231.262C437.581 231.527 435.422 231.736 434.362 231.679C430.632 231.433 428.057 230.258 427.924 229.727C427.394 227.453 432.355 227.738 433.358 227.643C436.255 227.397 438.205 225.312 438.773 223.834C439.19 222.754 438.944 222.508 439.55 222.66C439.55 222.66 440.099 222.735 440.515 223.342C441.159 224.27 442.257 224.858 443.374 224.554C444.018 224.384 444.643 224.1 445.078 223.569C445.059 223.607 446.101 223.91 446.233 225.35Z" fill="#38287C"/>
<path d="M488.715 140.69C488.715 140.69 478.093 141.751 465.199 141.448C462.189 141.448 439.487 145.711 437.31 149.558C433.731 155.887 439.638 192.912 439.089 219.42C439.089 219.42 441.816 221.694 446.625 219.553C447.818 206.535 455.505 175.82 450.203 161.476C462.719 163.144 472.829 164.792 484.209 161.022C486.878 160.131 488.866 158.255 490.059 154.807C491.29 151.358 490.665 143.779 488.715 140.69Z" fill="#22256D"/>
<path d="M458.9 85.5879C458.9 85.5879 456.173 85.7395 455.643 85.7774C453.371 85.9669 451.042 86.2511 448.903 87.0469C445.816 88.2028 443.62 91.0639 441.102 93.3188C438.678 95.4789 426.106 107.473 423.759 107.909C421.411 108.345 400.83 94.2283 400.83 94.2283L395.812 99.2496C395.812 99.2496 418.135 119.903 424.8 119.941C428.038 119.96 445.854 110.562 451.553 106.924L458.9 85.5879Z" fill="#FF9F2E"/>
<path opacity="0.25" d="M424.857 116C420.275 116.266 399.239 100.179 396.797 98.3027L395.831 99.2691C395.831 99.2691 418.154 119.923 424.819 119.961C427.508 119.98 440.326 113.461 447.843 109.179L449.793 108.061L448.638 101.126C448.6 101.107 429.742 115.735 424.857 116Z" fill="#CE4A30"/>
<path d="M403.443 145.085H454.564L445.4 115.185C444.889 113.536 443.374 112.399 441.651 112.399H396.891C395.187 112.399 393.957 114.067 394.449 115.696L403.443 145.085Z" fill="#5790D1"/>
<path d="M402.799 145.086H453.144L443.98 115.186C443.468 113.538 441.954 112.401 440.231 112.401H395.471C393.767 112.401 392.537 114.068 393.029 115.698L401.814 144.347C401.928 144.802 402.325 145.086 402.799 145.086Z" fill="#044692"/>
<g opacity="0.25">
<path opacity="0.5" d="M481.393 100.008C478.856 111.528 478.402 120.528 477.682 128.752C468.745 132.22 465.11 137.392 456.381 141.277C456.381 141.277 449.471 140.121 448.751 142.736C448.335 144.233 456.836 145.426 456.836 145.426C464.94 145.464 486.297 139.534 487.736 139.136C489.175 138.738 493.397 111.566 493.568 96.8242C493.586 94.7209 493.511 92.4661 492.204 90.8176C491.523 89.9649 490.557 89.3775 489.573 88.8659C483.873 85.9479 479.651 85.1521 473.27 84.7542" fill="black"/>
</g>
<path d="M457.574 143.058C456.609 141.845 454.867 141.675 453.314 141.712C452.178 141.731 451.023 141.826 449.906 141.978C449.395 142.054 448.789 142.167 448.751 142.736C448.694 143.304 451.25 142.736 452.595 143.115C449.963 143.342 447.331 143.418 444.699 143.323C444.396 143.304 444.074 143.304 443.79 143.418C443.506 143.531 443.26 143.797 443.279 144.119C443.298 144.365 443.468 144.555 443.639 144.725C444.377 145.388 445.381 145.654 446.365 145.824C450.398 146.525 454.639 146.412 458.369 144.763" fill="#FFB9B0"/>
<path d="M480.825 99.7801C480.617 112.078 479.746 117.724 479.973 130.022C473.801 131.348 465.261 138.34 456.514 142.224C456.514 142.224 456.003 143.967 456.798 145.426C457.461 145.673 486.278 138.643 488.569 136.54C490.633 134.645 493.359 111.566 493.53 96.8242C493.549 94.7209 493.473 92.4661 492.166 90.8176C491.485 89.9649 490.519 89.3775 489.535 88.8659C483.836 85.9479 479.613 85.1521 473.233 84.7542" fill="#FF9F2E"/>
<path opacity="0.45" d="M428.776 129.264C428.965 131.878 425.86 134.02 421.865 134.02C417.87 134.02 414.462 131.897 414.292 129.264C414.102 126.649 417.207 124.508 421.203 124.508C425.198 124.508 428.587 126.649 428.776 129.264Z" stroke="#5790D1" stroke-miterlimit="10"/>
<path d="M426.135 129.47C426.192 128.016 424.18 126.758 421.641 126.658C419.102 126.559 416.997 127.657 416.941 129.11C416.884 130.564 418.896 131.823 421.435 131.922C423.974 132.021 426.079 130.923 426.135 129.47Z" fill="#5790D1"/>
<path d="M462.44 65.0098C462.346 64.555 461.323 64.4603 460.301 64.5929C459.278 64.7256 456.533 65.0667 455.984 65.5025C455.416 65.9383 455.454 66.2604 455.151 66.2983C454.867 66.3362 454.829 66.0141 454.185 65.7298C453.542 65.4456 451.951 65.6351 450.929 65.7677C449.906 65.9004 448.922 66.1278 448.96 66.6015C448.978 67.0752 449.168 67.8899 449.376 68.0226C449.584 68.1552 449.584 68.1363 450.399 69.9932C450.853 71.0354 451.535 71.6228 452.86 71.3385C454.545 70.9785 454.659 69.0458 454.791 68.25C454.924 67.4541 455.037 67.3215 455.302 67.3025C455.567 67.2647 455.738 67.3594 456.06 68.0984C456.382 68.8374 456.628 70.5617 458.351 70.6564C460.623 70.789 461.588 70.0122 461.91 68.5531C462.327 66.5825 462.232 66.5825 462.403 66.393C462.478 66.3172 464.088 66.5446 464.088 66.5446L464.05 65.9572C464.031 65.9193 462.478 65.1235 462.44 65.0098ZM454.223 68.97C454.166 69.9743 453.674 70.9027 452.557 71.0354C451.516 71.168 451.042 70.6185 450.474 69.2921C449.982 68.1363 449.963 67.2078 450.133 66.8857C450.304 66.5636 450.872 66.5825 452.159 66.4878C453.447 66.393 453.882 66.3741 454.091 66.9425C454.185 67.1699 454.28 67.9657 454.223 68.97ZM461.607 67.8899C461.399 69.3111 460.869 70.0122 459.449 70.1827C457.442 70.429 457.044 69.6332 456.741 68.6668C456.438 67.7005 456.344 66.9046 456.363 66.6773C456.419 66.0709 456.855 65.9951 458.124 65.7488C459.392 65.5025 461.096 65.2182 461.342 65.4835C461.588 65.7488 461.797 66.6394 461.607 67.8899Z" fill="#483A99"/>
<path d="M476.111 61.8644C475.997 60.8223 475.808 59.7991 475.543 58.8327C474.861 56.18 473.233 53.9441 470.828 52.6366C467.742 50.9692 463.52 50.6281 460.15 51.5755C458.199 52.125 457.461 53.1482 456.458 53.1293C455.681 53.1103 454.716 52.5798 453.731 52.2198C446.082 49.4723 447.369 56.9568 448.183 59.0222C448.543 59.9317 450.285 60.5949 450.512 60.9739C450.74 61.3528 450.721 63.2098 450.872 64.0245C451.024 64.8393 451.819 65.1425 451.819 65.1425C451.819 65.1425 451.857 62.7361 451.894 62.4139C451.989 61.5613 452.273 60.6707 453.031 60.1591C453.807 59.6285 454.867 59.5528 455.776 59.3822C456.723 59.2117 461.115 60.0644 461.399 60.3107C462.819 61.5423 463.198 64.3277 463.596 65.9762C463.785 66.7531 463.974 67.2647 464.296 67.2457C464.542 64.9909 465.319 64.9151 466.663 65.692C467.382 66.1089 467.799 67.53 467.818 68.7616C467.856 70.2017 467.041 71.7933 465.546 72.0965C464.997 72.2102 466.625 75.2988 467.382 76.0756C467.628 76.322 467.875 76.5872 468.177 76.7767C468.462 76.9473 468.783 77.0231 469.105 77.1178C469.465 77.2125 469.825 77.3073 470.203 77.421C470.696 77.5536 471.207 77.6862 471.699 77.5536C472.513 77.3262 472.93 76.4736 473.29 75.7156C473.896 74.484 474.577 73.2713 475.069 71.9828C476.186 68.9321 476.508 65.2562 476.111 61.8644Z" fill="#02007D"/>
<path d="M604.608 175.196H507.856L519.444 166.613V124.737C519.444 121.251 522.265 118.408 525.768 118.408H604.608C608.092 118.408 610.932 121.232 610.932 124.737V168.868C610.932 172.354 608.111 175.196 604.608 175.196Z" fill="#1872D8"/>
<ellipse cx="540.094" cy="141.18" rx="13.3507" ry="13.3593" fill="#1663BA"/>
<path fill-rule="evenodd" clip-rule="evenodd" d="M532.436 136.647C532.183 135.176 533.295 133.823 534.786 133.789L545.167 133.547C546.74 133.51 547.937 134.95 547.614 136.491L545.263 147.732C545.017 148.909 543.952 149.732 542.752 149.673L536.562 149.367C535.42 149.31 534.469 148.468 534.275 147.34L532.436 136.647ZM545.088 138.514C545.088 139.352 544.41 140.031 543.573 140.031C542.736 140.031 542.058 139.352 542.058 138.514C542.058 137.677 542.736 136.998 543.573 136.998C544.41 136.998 545.088 137.677 545.088 138.514ZM539.785 146.348C541.598 146.348 543.068 144.878 543.068 143.063C543.068 141.249 541.598 139.778 539.785 139.778C537.972 139.778 536.502 141.249 536.502 143.063C536.502 144.878 537.972 146.348 539.785 146.348Z" fill="white"/>
<path opacity="0.45" d="M600.15 126.611H560.165C558.998 126.611 558.052 127.557 558.052 128.724C558.052 129.89 558.998 130.836 560.165 130.836H600.15C601.317 130.836 602.262 129.89 602.262 128.724C602.262 127.557 601.317 126.611 600.15 126.611Z" fill="white"/>
<path opacity="0.45" d="M600.15 132.939H560.165C558.998 132.939 558.052 133.885 558.052 135.052C558.052 136.219 558.998 137.165 560.165 137.165H600.15C601.317 137.165 602.262 136.219 602.262 135.052C602.262 133.885 601.317 132.939 600.15 132.939Z" fill="white"/>
<path opacity="0.45" d="M600.15 139.268H560.165C558.998 139.268 558.052 140.214 558.052 141.381C558.052 142.548 558.998 143.494 560.165 143.494H600.15C601.317 143.494 602.262 142.548 602.262 141.381C602.262 140.214 601.317 139.268 600.15 139.268Z" fill="white"/>
<path opacity="0.45" d="M600.15 145.426H560.165C558.998 145.426 558.052 146.372 558.052 147.539C558.052 148.706 558.998 149.652 560.165 149.652H600.15C601.317 149.652 602.262 148.706 602.262 147.539C602.262 146.372 601.317 145.426 600.15 145.426Z" fill="white"/>
<path opacity="0.45" d="M586.782 152.797H560.165C558.998 152.797 558.052 153.743 558.052 154.91C558.052 156.077 558.998 157.023 560.165 157.023H586.782C587.949 157.023 588.895 156.077 588.895 154.91C588.895 153.743 587.949 152.797 586.782 152.797Z" fill="white"/>
<path opacity="0.45" d="M552.844 163.161H528.554C527.592 163.161 526.811 163.942 526.811 164.905C526.811 165.867 527.592 166.648 528.554 166.648H552.844C553.806 166.648 554.587 165.867 554.587 164.905C554.587 163.942 553.806 163.161 552.844 163.161Z" fill="white"/>
<path d="M244.943 116.739H368.203L353.434 105.806V38.3308C353.434 33.878 349.837 30.2778 345.387 30.2778H244.943C240.494 30.2778 236.896 33.878 236.896 38.3308V108.686C236.896 113.139 240.494 116.739 244.943 116.739Z" fill="#1872D8"/>
<ellipse cx="327.818" cy="61.0246" rx="16.0208" ry="16.0311" fill="#1663BA"/>
<path fill-rule="evenodd" clip-rule="evenodd" d="M327.787 70.7608C333.128 70.7608 337.458 66.428 337.458 61.0833C337.458 59.2304 336.937 57.4992 336.035 56.028L333.155 66.7406H330.417L328.924 60.7278L327.431 66.8829H324.728L321.742 56.1381H324.728L326.151 62.0442L327.857 56.1381H330.24L331.875 62.0442L334.069 53.7258C332.379 52.2793 330.185 51.4058 327.787 51.4058C322.445 51.4058 318.115 55.7385 318.115 61.0833C318.115 66.428 322.445 70.7608 327.787 70.7608Z" fill="white"/>
<g opacity="0.45">
<path opacity="0.45" d="M250.31 48.1692L301.237 48.1692C302.729 48.1692 303.938 46.9603 303.938 45.4691C303.938 43.9778 302.729 42.7689 301.237 42.7689L250.31 42.7689C248.818 42.7689 247.609 43.9778 247.609 45.4691C247.609 46.9603 248.818 48.1692 250.31 48.1692Z" fill="white"/>
<path opacity="0.45" d="M250.31 56.2334L301.237 56.2334C302.729 56.2334 303.938 55.0245 303.938 53.5333C303.938 52.042 302.729 50.8331 301.237 50.8331L250.31 50.8331C248.818 50.8331 247.609 52.042 247.609 53.5333C247.609 55.0245 248.818 56.2334 250.31 56.2334Z" fill="white"/>
<path opacity="0.45" d="M250.31 64.2971H301.237C302.729 64.2971 303.938 63.0882 303.938 61.597C303.938 60.1058 302.729 58.8969 301.237 58.8969L250.31 58.8969C248.818 58.8969 247.609 60.1058 247.609 61.597C247.609 63.0882 248.818 64.2971 250.31 64.2971Z" fill="white"/>
<path opacity="0.45" d="M250.31 72.1377H301.237C302.729 72.1377 303.938 70.9288 303.938 69.4376C303.938 67.9463 302.729 66.7374 301.237 66.7374H250.31C248.818 66.7374 247.609 67.9463 247.609 69.4376C247.609 70.9288 248.818 72.1377 250.31 72.1377Z" fill="white"/>
<path opacity="0.45" d="M250.31 79.9971H301.237C302.729 79.9971 303.938 78.7882 303.938 77.2969C303.938 75.8057 302.729 74.5968 301.237 74.5968H250.31C248.818 74.5968 247.609 75.8057 247.609 77.2969C247.609 78.7882 248.818 79.9971 250.31 79.9971Z" fill="white"/>
<path opacity="0.45" d="M250.31 94.2649H301.237C302.729 94.2649 303.938 93.056 303.938 91.5648C303.938 90.0735 302.729 88.8646 301.237 88.8646H250.31C248.818 88.8646 247.609 90.0735 247.609 91.5648C247.609 93.056 248.818 94.2649 250.31 94.2649Z" fill="white"/>
<path opacity="0.45" d="M250.303 102.75L341.048 102.75C342.54 102.75 343.749 101.542 343.749 100.05C343.749 98.5591 342.54 97.3502 341.048 97.3502L250.303 97.3502C248.811 97.3502 247.603 98.5591 247.603 100.05C247.603 101.542 248.811 102.75 250.303 102.75Z" fill="white"/>
</g>
<path d="M500.891 458.149C500.436 459.039 498.259 461.086 495.23 462.45C492.2 463.795 485.782 464.44 489.36 465.633C492.92 466.827 497.085 466.107 499.187 465.766C501.288 465.425 503.333 465.387 505.814 465.368C509.089 465.349 509.108 465.141 508.673 461.446C508.029 456.349 502.349 455.269 500.891 458.149Z" fill="#9AA3F4"/>
<path d="M560.192 456.311C560.002 457.334 561.46 460.441 558.866 462.734C556.272 465.008 550.346 467.414 554.265 467.509C558.185 467.604 561.934 466.694 563.941 465.709C565.929 464.724 564.338 463.17 566.819 462.393C570.075 461.37 569.394 458.963 567.708 457.486C565.531 452.578 560.779 452.976 560.192 456.311Z" fill="#9AA3F4"/>
<path d="M547.714 352.835C547.714 352.835 555.515 329.888 533.381 310.978C533.381 310.978 521.529 315.696 512.024 316.265C504.545 316.719 500.74 316.018 500.74 316.018C500.74 316.018 500.115 336.407 500.077 347.397L547.714 352.835Z" fill="#22256D"/>
<path d="M498.297 390.939C497.861 380.669 508.994 382.015 513.084 389.689C521.567 405.548 509.96 442.043 508.426 459.343C506.836 459.968 504.166 460.441 502.557 459.703C501.459 459.191 500.853 457.808 500.853 457.808C501.099 436.624 498.751 401.929 498.297 390.939Z" fill="#22256D"/>
<path d="M512.705 392.493C511.418 396.68 497.237 401.095 498.392 385.842C498.903 379.077 500.266 341.73 500.531 338.13C500.796 334.53 501.402 329.262 503.125 328.618C511.816 325.34 527.209 336.709 524.918 350.238C523.384 359.257 515.356 383.814 512.705 392.493Z" fill="#22256D"/>
<path d="M535.047 398.329C531.62 388.646 542.772 386.941 549.077 392.91C563.884 406.875 564.452 439.788 568.087 456.765C566.023 458.168 562.767 458.679 561.612 458.622C560.4 458.565 559.851 457.713 559.851 457.713C553.83 437.362 538.702 408.675 535.047 398.329Z" fill="#22256D"/>
<path d="M549.683 395.165C550.062 399.523 538.247 408.542 533.589 393.971C531.526 387.51 522.683 349.329 521.566 345.899C520.468 342.47 520.771 335.364 522.134 334.113C528.97 327.804 544.382 333.356 547.316 346.752C549.304 355.696 548.888 386.126 549.683 395.165Z" fill="#22256D"/>
<path d="M488.754 228.003C489.152 227.586 489.568 227.151 489.928 226.696C492.73 223.115 493.147 219.931 495.741 215.763C496.119 215.156 496.631 213.584 497.634 212.144C498.675 210.647 501.194 209.036 501.856 208.676C503.068 208.032 502.027 210.722 502.027 210.722C502.027 210.722 503.049 209.226 504.053 209.339C504.431 209.377 504.507 211.67 504.507 212.049C504.564 215.175 503.826 218.321 502.387 221.106C502.046 221.75 501.667 222.432 501.667 223.171C502.595 223.153 503.371 222.508 504.11 221.959C504.848 221.409 505.795 220.917 506.666 221.22C506.552 221.599 506.363 221.94 506.173 222.281C505.075 224.365 503.825 226.582 501.686 227.586C500.417 228.193 498.941 228.306 497.691 228.951C495.457 230.144 494.359 232.911 492.087 234.029" fill="#F2A181"/>
<path d="M502.065 228.799L495.381 225.994C494.756 225.729 494.472 225.009 494.718 224.384L500.664 210.172C500.929 209.547 501.648 209.263 502.273 209.509L508.957 212.314C509.582 212.579 509.865 213.299 509.619 213.924L503.674 228.135C503.409 228.78 502.69 229.064 502.065 228.799Z" fill="url(#paint3_linear)"/>
<path d="M509.258 213.501L501.764 210.364L495.619 225.066L503.113 228.203L509.258 213.501Z" fill="#B4B4DB"/>
<path d="M509.241 242.517C509.241 242.517 503.523 242.821 498.411 244.355C490.705 246.667 488.054 250.248 485.384 251.726C490.553 245.151 496.328 231.205 496.328 231.205C496.328 231.205 489.379 225.483 488.584 226.847C487.789 228.193 458.612 262.375 459.521 267.908C459.899 270.182 463.269 272.437 466.261 272.342C474.535 272.058 484.135 269.045 494.207 265.748C498.638 264.289 500.001 267.415 500.001 267.415" fill="#707FFF"/>
<path d="M485.384 251.707C485.384 251.707 481.711 259.116 480.613 259.608C479.515 260.101 483.282 258.074 485.365 255.932C487.429 253.791 490.269 248.183 490.269 248.183C489.171 248.618 485.384 251.707 485.384 251.707Z" fill="#4E5EE8"/>
<path d="M496.915 215.8C497.274 216.046 497.369 216.539 497.426 216.975C497.672 218.623 497.918 220.348 497.274 221.882C496.858 222.868 496.101 223.701 495.305 224.403C494.397 225.198 493.374 225.899 492.295 226.468" fill="#F2A181"/>
<path d="M509.411 203.465C507.461 204.033 506.438 206.553 505.776 208.277C504.981 210.362 504.583 212.56 504.318 214.758C504.129 216.293 504.034 217.903 504.64 219.324C504.943 220.044 505.435 220.689 505.908 221.314C506.173 221.674 506.457 222.034 506.817 222.28C507.177 222.527 507.669 222.659 508.086 222.489C508.692 222.261 508.938 221.541 509.108 220.916C510.225 216.823 511.456 212.673 513.766 209.111" fill="#02007D"/>
<path d="M507.253 216.426C507.215 215.118 505.851 214.266 504.659 215.63C503.674 216.748 503.409 218.87 503.352 220.443C503.276 222.319 504.734 222.698 505.927 222.944" fill="#F2A181"/>
<path d="M494.226 249.244C496.631 246.478 504.261 241.93 514.466 242.252C521.491 242.479 540.652 243.635 542.791 248.334C543.89 250.741 545.063 275.374 543.454 283.881C542.242 290.267 539.175 306.089 539.175 309.916C539.175 313.744 541.22 315.373 540.273 316.472C538.134 318.955 523.479 319.997 516.606 319.997C510.49 319.997 500.058 318.367 499.528 316.397C498.751 313.479 500.72 313.592 500.985 310.542C501.251 307.491 502.027 287.652 500.91 284.412C498.884 278.557 497.899 269.007 496.29 264.668C495.059 261.409 491.822 252.01 494.226 249.244Z" fill="#707FFF"/>
<path d="M538.077 269.177C538.815 270.693 543.757 278.671 543.757 278.671L543.965 279.618C543.852 281.266 543.681 282.725 543.454 283.881C542.242 290.267 539.175 306.089 539.175 309.916C539.175 313.744 541.144 315.298 540.273 316.472C538.588 318.765 510.964 323.919 512.308 317.514C512.422 316.927 535.502 299.324 535.616 298.737C536.676 293.678 537.604 290.039 538.077 286.364C539.194 277.496 537.357 267.662 538.077 269.177Z" fill="#4E5EE8"/>
<path d="M508.919 233.441C508.919 233.441 508.862 241.456 508.54 241.778C508.218 242.1 506.628 242.858 506.628 242.858C506.628 242.858 507.764 249.831 509.506 249.301C511.248 248.789 522.759 242.953 522.759 242.953C522.759 242.953 521.131 242.29 521.131 241.646C521.131 241.001 522.684 228.401 522.684 228.401" fill="#FFBE9D"/>
<path d="M516.909 204.336C515.224 204.791 510.812 203.882 509.581 205.72C508.37 207.558 507.29 211.973 506.836 213.204C505.927 215.63 505.34 218.226 504.678 220.746C503.807 224.005 502.387 229.992 505.586 232.721C506.495 233.498 506.912 233.763 508.048 233.972C509.563 234.237 511.058 234.559 512.573 234.824C514.921 235.241 517.515 235.734 519.844 234.976C522.949 233.972 524.653 229.689 525.448 226.79L530.03 210.154L516.909 204.336Z" fill="#FFBE9D"/>
<path d="M508.635 252.427C508.635 252.427 507.953 283.711 506.685 302.735L511.285 309.083L514.447 301.143C514.447 301.143 515.773 278.197 511.456 252.655L508.635 252.427Z" fill="#3B2E7A"/>
<path d="M507.574 249.68L507.688 250.115C507.896 250.93 508.218 251.707 508.635 252.427L511.456 252.636C511.456 252.636 513.368 251.631 513.633 250.551C513.879 249.471 510.49 247.709 510.49 247.709L510.074 247.88C509.127 248.258 508.275 248.865 507.612 249.642L507.574 249.68Z" fill="#3B2E7A"/>
<path d="M521.32 239.694C521.32 239.694 523.119 240.812 524.539 242.953C523.081 246.269 519.806 252.162 516.208 254.853C514.523 250.324 510.49 247.69 510.49 247.69C510.49 247.69 520.317 245.966 521.32 239.694Z" fill="white"/>
<path d="M510.471 247.709C510.471 247.709 506.95 249.111 504.867 253.053C504.867 253.053 504.185 247.728 505.624 243.143C505.624 243.143 507.934 240.187 508.729 240.13C508.407 243.901 510.471 247.709 510.471 247.709Z" fill="white"/>
<path d="M510.926 317.534C507.423 318.064 506.135 319.353 504.166 321.304C503.996 321.456 503.844 321.664 503.863 321.892C503.901 322.176 504.242 322.29 504.507 322.347C506.135 322.612 506.401 321.57 507.915 320.944C508.938 320.509 509.96 320.073 510.983 319.637" fill="#F2A181"/>
<path d="M499.054 292.067L511.437 331.764C511.778 332.825 511.172 333.753 510.131 333.753L484.305 336.027C483.377 336.027 482.43 335.307 482.146 334.36L468.836 295.269C468.495 294.208 470.048 292.673 471.07 292.673L496.896 290.4C497.823 290.381 498.77 291.101 499.054 292.067Z" fill="#E9E6FF"/>
<path d="M498.202 293.09L510.415 332.18C510.755 333.241 510.149 334.17 509.108 334.17L483.282 336.444C482.355 336.444 481.408 335.724 481.124 334.776L468.912 295.686C468.571 294.625 469.177 293.696 470.218 293.696L496.044 291.423C496.972 291.423 497.918 292.143 498.202 293.09Z" fill="#E0D9FF"/>
<path d="M477.583 291.821L478.492 295.25L490.572 294.189L489.587 290.779L477.583 291.821Z" fill="white"/>
<path d="M479.874 288.638C480.12 289.433 481.086 292.522 481.086 292.522L486.861 291.991L485.649 288.107C485.119 286.44 483.415 285.208 481.824 285.341C480.215 285.492 479.344 286.97 479.874 288.638ZM481.143 288.562C480.859 287.633 481.332 286.8 482.222 286.724C483.112 286.648 484.078 287.33 484.362 288.278C484.646 289.206 484.172 290.04 483.282 290.116C482.392 290.191 481.427 289.509 481.143 288.562Z" fill="white"/>
<path d="M520.752 314.767C518.045 315.335 510.831 317.495 510.055 317.855C509.146 318.291 506.155 320.546 505.454 321.266C502.727 323.995 504.129 325.264 503.049 328.959C502.993 329.149 502.993 329.338 502.974 329.547C502.974 329.925 503.485 330.267 504.015 329.907C504.299 330.38 505.132 330.096 505.549 329.565C505.549 329.944 506.06 330.172 506.893 329.698C507.347 329.452 507.253 329.471 508.294 328.542C509.032 327.879 509.903 327.349 511.229 326.761C512.119 326.363 513.274 325.984 514.088 325.454C515.186 324.734 517.136 324.563 518.102 321.418C518.31 320.717 518.992 320.3 519.616 319.921C521.093 318.992 522.551 318.064 524.028 317.154" fill="#FFBE9D"/>
<path d="M537.414 263.91C538.569 268.003 543.34 296.425 543.34 296.425L516.417 315.942L518.651 321.835C518.651 321.835 550.857 311.015 553.394 303.607C555.931 296.217 555.818 262.792 546.862 251.063C544.022 247.33 538.304 245.454 538.304 245.454" fill="#707FFF"/>
<path d="M509.79 325C509.79 325 509.525 325.246 509.108 325.625C508.692 326.004 508.142 326.421 507.707 326.989C507.253 327.539 506.798 328.107 506.419 328.505C506.041 328.903 505.738 329.13 505.738 329.13C505.738 329.13 506.4 327.823 507.385 326.705C507.858 326.117 508.54 325.72 508.994 325.435C509.468 325.17 509.79 325 509.79 325Z" fill="#F2A181"/>
<path d="M508.313 323.199C508.313 323.199 507.953 323.484 507.556 324.052C507.347 324.317 507.12 324.658 506.893 325C506.779 325.17 506.666 325.36 506.533 325.549C506.401 325.757 506.306 325.89 506.23 326.117C505.511 327.842 504.318 329.282 504.318 329.282C504.318 329.282 504.469 328.846 504.753 328.202C505.037 327.558 505.435 326.743 505.814 325.928C506.249 325.037 506.893 324.374 507.366 323.863C507.896 323.408 508.313 323.199 508.313 323.199Z" fill="#F2A181"/>
<path d="M506.609 321.759C506.609 321.759 506.382 322.138 505.965 322.669C505.757 322.934 505.492 323.237 505.283 323.559C505.113 323.881 504.943 324.336 504.772 324.715C504.431 325.53 504.128 326.364 503.901 326.989C503.674 327.614 503.504 328.031 503.504 328.031C503.504 328.031 503.504 327.576 503.617 326.913C503.731 326.25 503.977 325.359 504.375 324.545C504.583 324.128 504.753 323.749 505.037 323.37C505.321 323.029 505.605 322.764 505.851 322.536C506.325 322.1 506.609 321.759 506.609 321.759Z" fill="#F2A181"/>
<path d="M527.171 223.891C526.111 223.266 525.316 222.622 524.615 223.626C524.255 224.157 524.028 224.896 523.403 225.085C522.778 225.275 522.135 224.706 521.983 224.081C521.832 223.455 522.021 222.792 522.21 222.186C522.627 220.822 523.062 219.457 523.479 218.093C523.896 216.748 524.312 215.289 523.782 214C523.517 213.337 523.025 212.807 522.494 212.352C520.753 210.855 518.462 210.116 516.208 209.661C513.955 209.206 511.645 208.96 509.449 208.278C508.521 207.994 507.612 207.615 506.874 206.989C505.681 205.985 505.075 204.394 505.056 202.821C505.037 201.248 505.568 199.732 506.382 198.387C506.552 198.917 506.779 199.448 507.063 199.922C507.328 199.202 507.764 198.539 508.294 197.989C508.957 201.646 524.369 200.433 527.985 202.044C530.485 203.162 532.548 203.901 532.473 207.956C532.548 208.221 532.757 208.411 532.965 208.6C535.18 210.628 536.146 213.11 536.411 216.786C536.752 221.276 534.139 226.146 531.564 229.86C530.92 230.788 530.56 231.452 529.651 232.134C528.743 232.816 527.171 233.157 526.073 232.949C524.956 232.74 522.76 232.835 522.741 231.698C522.722 230.883 524.464 229.443 524.937 228.78" fill="#02007D"/>
<path d="M523.138 228.136C523.138 228.136 522.949 228.894 523.422 229.481C523.839 229.993 524.672 229.917 525.24 229.746C526.887 229.216 528.004 227.624 528.326 225.976C528.686 224.024 527.644 222.091 525.864 222.584C524.823 222.887 524.179 224.062 524.179 225.142" fill="#FFBE9D"/>
<path d="M508.919 234.124L513.86 235.033C513.86 235.033 512.213 236.89 508.843 236.89" fill="#F2A181"/>
<g opacity="0.3">
<g opacity="0.3">
<g opacity="0.3">
<path opacity="0.3" d="M120.435 149.216L127.061 152.57L123.748 144.422" fill="#3939D3"/>
</g>
</g>
</g>
<g opacity="0.3">
<g opacity="0.3">
<g opacity="0.3">
<path opacity="0.3" d="M579.012 249.85L572.385 253.185L575.698 245.037" fill="#3939D3"/>
</g>
<path opacity="0.3" d="M599.574 239.429C599.574 246.743 593.307 252.655 585.563 252.655C577.819 252.655 571.552 246.724 571.552 239.429C571.552 232.115 577.819 226.203 585.563 226.203C593.307 226.203 599.574 232.134 599.574 239.429Z" fill="#3939D3"/>
</g>
<g opacity="0.3">
<g opacity="0.3">
<g opacity="0.3">
<path opacity="0.3" d="M583.064 245.777C586.112 245.834 589.217 245.872 592.019 245.682C592.909 245.625 593.686 244.299 592.606 243.863C593.061 243.636 593.515 243.427 593.723 242.954C593.913 242.499 593.686 241.873 593.174 241.76C594.235 242.006 594.651 240.414 593.818 239.903C594.254 239.543 594.613 239.088 594.708 238.558C594.803 238.027 594.575 237.421 594.064 237.155C593.742 236.985 593.345 236.985 592.966 236.985C591.698 236.985 590.429 236.966 589.16 236.966C589.501 235.09 589.615 233.044 588.592 231.395C588.29 230.902 587.475 230.296 586.832 230.694C586.226 231.054 586.396 231.945 586.415 232.513C586.548 234.844 585.128 237.193 582.95 238.292C582.95 238.273 583.102 243.238 583.064 245.777Z" fill="#FEFEFE"/>
</g>
</g>
<path opacity="0.3" d="M581.966 238.273H577.346V245.777H581.966V238.273Z" fill="#FEFEFE"/>
</g>
</g>
<g opacity="0.3">
<g opacity="0.3">
<g opacity="0.3">
<path opacity="0.3" d="M366.953 135.005L371.781 129.775L365.154 131.083" fill="#3939D3"/>
</g>
<path opacity="0.3" d="M349.042 136.218C349.042 141.523 353.586 145.806 359.209 145.806C364.832 145.806 369.376 141.504 369.376 136.218C369.376 130.912 364.832 126.63 359.209 126.63C353.586 126.63 349.042 130.912 349.042 136.218Z" fill="#3939D3"/>
</g>
<g opacity="0.3">
<g opacity="0.3">
<g opacity="0.3">
<path opacity="0.3" d="M357.24 140.822C359.247 140.86 361.273 140.879 363.11 140.746C363.697 140.708 364.189 139.742 363.488 139.439C363.791 139.287 364.094 139.117 364.227 138.775C364.359 138.453 364.208 137.999 363.867 137.904C364.567 138.074 364.833 136.937 364.302 136.559C364.586 136.312 364.833 135.971 364.889 135.573C364.946 135.194 364.795 134.739 364.473 134.55C364.265 134.436 363.999 134.417 363.753 134.417C362.92 134.417 362.087 134.398 361.254 134.398C361.481 133.034 361.538 131.556 360.894 130.362C360.686 130.002 360.156 129.567 359.739 129.851C359.342 130.116 359.455 130.76 359.474 131.158C359.55 132.845 358.641 134.55 357.202 135.346C357.183 135.365 357.278 138.984 357.24 140.822Z" fill="#FEFEFE"/>
</g>
</g>
<path opacity="0.3" d="M356.521 135.365H353.491V140.803H356.521V135.365Z" fill="#FEFEFE"/>
</g>
</g>
<g opacity="0.3">
<path opacity="0.3" d="M414.269 64.8583C416.313 62.3003 417.544 59.0412 417.544 55.5168C417.544 47.2364 410.823 40.5098 402.549 40.5098C394.274 40.5098 387.553 47.2364 387.553 55.5168C387.553 63.7972 394.274 70.5238 402.549 70.5238C405.616 70.5238 408.475 69.5954 410.86 68.0037L416.673 71.0923L414.269 64.8583Z" fill="#3939D3"/>
</g>
<path d="M673.117 33.3777C673.113 34.9489 672.487 36.4546 671.376 37.5656C670.265 38.6767 668.76 39.3026 667.188 39.3066H540.465C539.293 39.3085 538.147 38.9621 537.172 38.3115C536.197 37.6609 535.438 36.7353 534.99 35.6523C534.542 34.5693 534.427 33.3776 534.657 32.2286C534.888 31.0796 535.455 30.0251 536.286 29.1989C536.833 28.6371 537.488 28.1912 538.211 27.888C538.934 27.5847 539.711 27.4302 540.495 27.4338H546.529C547.527 25.1144 549.079 23.0751 551.048 21.4942C553.017 19.9134 555.343 18.8392 557.823 18.3658C560.303 17.8924 562.862 18.0341 565.275 18.7786C567.687 19.5231 569.881 20.8477 571.663 22.6364C573.562 19.4202 576.267 16.7547 579.51 14.9028C582.753 13.0509 586.424 12.0766 590.159 12.0761C592.269 12.0792 594.368 12.3892 596.389 12.9963C598.692 8.67032 602.238 5.13372 606.57 2.84301C610.903 0.552296 615.822 -0.387391 620.694 0.145241C625.566 0.677874 630.166 2.65838 633.901 5.83112C637.636 9.00386 640.334 13.2232 641.648 17.9446C643.672 16.9353 645.893 16.3824 648.154 16.3248C650.415 16.2671 652.661 16.7062 654.734 17.611C656.807 18.5159 658.656 19.8644 660.151 21.5616C661.646 23.2588 662.751 25.2633 663.387 27.4338H667.188C667.968 27.4338 668.74 27.5876 669.461 27.8865C670.181 28.1854 670.835 28.6235 671.386 29.1756C671.937 29.7278 672.373 30.3831 672.67 31.1042C672.967 31.8253 673.119 32.5979 673.117 33.3777Z" fill="#DBE6F7"/>
<path d="M122.8 92.8423C122.798 93.9124 122.377 94.9379 121.631 95.6945C120.885 96.4512 119.874 96.8774 118.819 96.8802H33.7217C32.9348 96.8814 32.1652 96.6456 31.5106 96.2025C30.8561 95.7593 30.3461 95.129 30.0454 94.3914C29.7447 93.6538 29.6669 92.8423 29.8219 92.0598C29.9768 91.2772 30.3575 90.559 30.9156 89.9963C31.2829 89.6137 31.7225 89.3101 32.2082 89.1036C32.6938 88.897 33.2154 88.7918 33.742 88.7942H37.7942C38.4645 87.2147 39.5062 85.8258 40.8284 84.7491C42.1505 83.6725 43.7127 82.941 45.3782 82.6185C47.0437 82.2961 48.7617 82.3927 50.3819 82.8997C52.0021 83.4067 53.4751 84.3088 54.6718 85.527C55.947 83.3367 57.7632 81.5213 59.9413 80.2601C62.1193 78.9989 64.5839 78.3353 67.092 78.335C68.5092 78.3371 69.9186 78.5482 71.2759 78.9617C72.8222 76.0155 75.2036 73.6069 78.1129 72.0468C81.0221 70.4867 84.3256 69.8468 87.597 70.2095C90.8684 70.5723 93.9575 71.9211 96.4656 74.0819C98.9738 76.2426 100.786 79.1162 101.668 82.3317C103.027 81.6443 104.518 81.2677 106.037 81.2285C107.555 81.1892 109.063 81.4883 110.455 82.1045C111.847 82.7207 113.089 83.6392 114.093 84.795C115.097 85.9509 115.839 87.316 116.266 88.7942H118.819C119.343 88.7942 119.861 88.899 120.345 89.1026C120.829 89.3061 121.268 89.6045 121.638 89.9805C122.008 90.3566 122.301 90.8029 122.5 91.294C122.7 91.7851 122.802 92.3112 122.8 92.8423Z" fill="#DBE6F7"/>
<defs>
<linearGradient id="paint0_linear" x1="365.013" y1="395.923" x2="279.425" y2="395.923" gradientUnits="userSpaceOnUse">
<stop stop-color="#0D337C"/>
<stop offset="1" stop-color="#0161CD"/>
</linearGradient>
<linearGradient id="paint1_linear" x1="462.891" y1="239.053" x2="166.193" y2="239.053" gradientUnits="userSpaceOnUse">
<stop stop-color="#0D337C"/>
<stop offset="1" stop-color="#106BD2"/>
</linearGradient>
<linearGradient id="paint2_linear" x1="398.951" y1="416.054" x2="239.786" y2="416.054" gradientUnits="userSpaceOnUse">
<stop stop-color="#0E3E9B"/>
<stop offset="1" stop-color="#0F70DE"/>
</linearGradient>
<linearGradient id="paint3_linear" x1="502.86" y1="209.421" x2="502.86" y2="228.897" gradientUnits="userSpaceOnUse">
<stop stop-color="#5469FA"/>
<stop offset="1" stop-color="#130B75"/>
</linearGradient>
</defs>
</svg>
