<svg width="483" height="271" viewBox="0 0 483 271" fill="none" xmlns="http://www.w3.org/2000/svg">
<g clip-path="url(#clip0)">
<path d="M70.0435 25.1168C136.02 0.634872 203.076 22.2907 248.537 69.4446C294.013 116.599 389.445 36.8973 440.066 83.9719C474.602 116.106 458.787 198.697 411.421 234.483C347.048 283.114 151.263 258.441 108.915 250.169C60.1193 240.628 24.4556 211.7 9.95826 176.597C-24.9591 91.9896 40.8901 35.9447 70.0435 25.1168Z" fill="#E7F3FE"/>
<path d="M295.542 59.1408C295.765 57.1404 295.892 55.124 295.892 53.0601C295.892 51.9804 295.86 50.9008 295.796 49.8371L285.745 46.5823C285.126 42.3433 283.919 38.3106 282.188 34.5478L288.857 26.3554C287.317 23.6405 285.554 21.0843 283.586 18.6869L273.534 21.9575C270.613 18.9727 267.262 16.3848 263.594 14.3049L264.166 3.74691C261.355 2.47677 258.434 1.42891 255.401 0.635069L249.16 9.20851C246.747 8.79571 244.254 8.58931 241.729 8.58931C239.998 8.58931 238.299 8.68457 236.616 8.8751L230.868 0C227.788 0.619193 224.802 1.50829 221.944 2.63554L221.96 13.2094C218.181 15.0829 214.703 17.4962 211.623 20.3222L201.762 16.5118C199.666 18.7981 197.761 21.2748 196.078 23.8945L202.302 32.4362C200.381 36.1037 198.952 40.0729 198.11 44.2643L187.9 46.9793C187.678 48.9797 187.551 50.9961 187.551 53.0601C187.551 54.1397 187.583 55.2193 187.646 56.283L197.697 59.5378C198.317 63.7768 199.523 67.8095 201.254 71.5723L194.585 79.7647C196.125 82.4796 197.888 85.0358 199.857 87.4332L209.908 84.1626C212.83 87.1474 216.18 89.7353 219.848 91.8152L219.277 102.373C222.087 103.643 225.009 104.691 228.042 105.485L234.25 96.9275C236.664 97.3403 239.157 97.5467 241.681 97.5467C243.412 97.5467 245.111 97.4514 246.794 97.2609L252.543 106.136C255.623 105.517 258.608 104.628 261.466 103.5L261.451 92.9265C265.23 91.0531 268.707 88.6398 271.788 85.8138L281.648 89.6242C283.744 87.3379 285.65 84.8612 287.333 82.2415L281.108 73.6998C283.03 70.0323 284.459 66.0631 285.3 61.8716L295.542 59.1408ZM241.729 74.3031C229.995 74.3031 220.483 64.793 220.483 53.0601C220.483 41.3271 229.995 31.817 241.729 31.817C253.464 31.817 262.975 41.3271 262.975 53.0601C262.975 64.793 253.464 74.3031 241.729 74.3031Z" fill="#9EC8FF"/>
<path d="M270.709 77.2881C270.534 77.2881 270.344 77.2245 270.201 77.0975C269.867 76.8118 269.82 76.3196 270.106 75.9862C275.441 69.572 278.378 61.4272 278.378 53.0602C278.378 49.0592 277.727 45.1218 276.425 41.3749C276.282 40.9621 276.505 40.5017 276.918 40.3588C277.33 40.2159 277.791 40.4382 277.934 40.851C279.284 44.7725 279.966 48.8687 279.966 53.0602C279.966 61.7924 276.902 70.2864 271.328 77.0023C271.154 77.1928 270.931 77.2881 270.709 77.2881Z" fill="white"/>
<path d="M267.626 27.149C267.435 27.149 267.229 27.0696 267.086 26.9267C263.498 23.545 259.337 20.9888 254.732 19.3217C254.32 19.1788 254.113 18.7184 254.256 18.3056C254.399 17.8928 254.859 17.6864 255.272 17.8293C260.084 19.5758 264.419 22.2431 268.166 25.7677C268.483 26.0694 268.499 26.5774 268.198 26.8949C268.039 27.0696 267.832 27.149 267.626 27.149Z" fill="white"/>
<path d="M233.487 18.3057C233.138 18.3057 232.805 18.0676 232.725 17.7024C232.614 17.2738 232.868 16.8451 233.297 16.7339C236.282 15.9719 239.379 15.5908 242.491 15.5908C242.935 15.5908 243.285 15.9401 243.285 16.3847C243.285 16.8292 242.935 17.1785 242.491 17.1785C239.506 17.1785 236.552 17.5437 233.678 18.274C233.615 18.2899 233.551 18.3057 233.487 18.3057Z" fill="white"/>
<path d="M124.812 193.617C124.971 192.235 125.05 190.822 125.05 189.409C125.05 188.663 125.019 187.917 124.987 187.171L118.032 184.916C117.603 181.979 116.762 179.185 115.571 176.581L120.191 170.897C119.128 169.023 117.905 167.245 116.539 165.578L109.584 167.849C107.552 165.769 105.234 163.991 102.693 162.546L103.09 155.227C101.153 154.337 99.1203 153.623 97.0084 153.067L92.7053 159.005C91.038 158.719 89.3072 158.577 87.5606 158.577C86.3697 158.577 85.1787 158.64 84.0196 158.783L80.034 152.639C77.9063 153.067 75.842 153.687 73.8572 154.464L73.8731 161.784C71.2531 163.086 68.8395 164.753 66.7118 166.705L59.8839 164.07C58.4389 165.658 57.121 167.372 55.946 169.182L60.2491 175.104C58.9153 177.645 57.9308 180.407 57.3433 183.297L50.2772 185.17C50.1185 186.551 50.0391 187.964 50.0391 189.377C50.0391 190.124 50.0708 190.87 50.1026 191.616L57.0575 193.871C57.4862 196.808 58.3278 199.602 59.5187 202.206L54.898 207.89C55.9618 209.763 57.1845 211.541 58.5501 213.208L65.505 210.938C67.5375 213.018 69.8558 214.796 72.3964 216.241L71.9994 223.56C73.9366 224.449 75.9691 225.164 78.0809 225.719L82.3841 219.781C84.0672 220.067 85.7821 220.21 87.5288 220.21C88.7197 220.21 89.9106 220.147 91.0698 220.004L95.0553 226.148C97.1831 225.719 99.2473 225.1 101.232 224.322L101.216 217.003C103.836 215.701 106.25 214.034 108.378 212.081L115.205 214.717C116.65 213.129 117.968 211.414 119.143 209.604L114.84 203.682C116.174 201.142 117.159 198.38 117.746 195.49L124.812 193.617ZM87.5447 204.127C79.4148 204.127 72.8251 197.538 72.8251 189.409C72.8251 181.28 79.4148 174.691 87.5447 174.691C95.6746 174.691 102.264 181.28 102.264 189.409C102.264 197.538 95.6587 204.127 87.5447 204.127Z" fill="#9EC8FF"/>
<path d="M107.6 206.429C107.425 206.429 107.234 206.366 107.092 206.239C106.758 205.953 106.71 205.461 106.996 205.127C110.664 200.729 112.681 195.141 112.681 189.409C112.681 186.663 112.236 183.964 111.347 181.391C111.204 180.979 111.426 180.518 111.839 180.375C112.252 180.232 112.713 180.455 112.856 180.868C113.792 183.614 114.285 186.472 114.285 189.393C114.285 195.506 112.141 201.444 108.235 206.127C108.06 206.334 107.838 206.429 107.6 206.429Z" fill="white"/>
<path d="M105.47 171.707C105.28 171.707 105.073 171.628 104.93 171.485C102.469 169.167 99.6267 167.42 96.4668 166.261C96.054 166.118 95.8476 165.658 95.9905 165.245C96.1334 164.832 96.5939 164.626 97.0067 164.769C100.373 165.991 103.406 167.865 106.026 170.326C106.343 170.627 106.359 171.135 106.058 171.453C105.899 171.628 105.692 171.707 105.47 171.707Z" fill="white"/>
<path d="M81.8273 165.579C81.478 165.579 81.1445 165.34 81.0651 164.975C80.954 164.547 81.2081 164.118 81.6368 164.007C83.7328 163.483 85.8923 163.213 88.0677 163.213C88.5123 163.213 88.8616 163.562 88.8616 164.007C88.8616 164.451 88.5123 164.801 88.0677 164.801C86.0193 164.801 83.9868 165.055 82.0337 165.547C81.9544 165.579 81.8908 165.579 81.8273 165.579Z" fill="white"/>
<path d="M327.982 99.5947C327.982 99.182 327.966 98.7692 327.95 98.3722L333.158 94.1808C332.746 92.0851 332.11 90.0846 331.269 88.1953L324.536 87.6872C323.012 85.2739 321.027 83.1782 318.709 81.5112L318.693 74.7953C316.819 73.8109 314.819 73.033 312.723 72.4932L308.118 77.4467C307.324 77.3673 306.514 77.3197 305.704 77.3197C303.672 77.3197 301.719 77.5896 299.845 78.0976L294.573 73.9221C292.588 74.7794 290.715 75.8749 289 77.1609L290 83.8133C288.031 85.7661 286.427 88.1 285.3 90.672L278.742 92.1962C278.186 94.2284 277.853 96.34 277.773 98.5151L283.553 101.865C283.855 104.786 284.712 107.549 286.03 110.042L283.14 116.107C284.379 117.805 285.808 119.361 287.396 120.727L293.589 118.298C296.018 119.885 298.797 121.012 301.766 121.536L304.688 127.554C305.037 127.57 305.387 127.57 305.736 127.57C307.483 127.57 309.197 127.411 310.865 127.093L312.834 120.727C315.708 119.758 318.312 118.234 320.519 116.265L327.029 117.726C328.363 116.154 329.538 114.44 330.507 112.598L326.728 107.057C327.522 104.707 327.982 102.199 327.982 99.5947ZM305.45 109.407C300.274 109.407 296.066 105.199 296.066 100.023C296.066 94.8476 300.274 90.6403 305.45 90.6403C310.627 90.6403 314.834 94.8476 314.834 100.023C314.834 105.199 310.627 109.407 305.45 109.407Z" fill="#9EC8FF"/>
<g opacity="0.8">
<path opacity="0.8" d="M414.739 45.5347H406.672C403.56 45.5347 401.02 42.9944 401.02 39.8825V31.8172C401.02 28.7053 403.56 26.165 406.672 26.165H414.739C417.851 26.165 420.392 28.7053 420.392 31.8172V39.8825C420.376 42.9944 417.851 45.5347 414.739 45.5347ZM406.672 28.3878C404.783 28.3878 403.243 29.9278 403.243 31.8172V39.8825C403.243 41.7719 404.783 43.3119 406.672 43.3119H414.739C416.628 43.3119 418.169 41.7719 418.169 39.8825V31.8172C418.169 29.9278 416.628 28.3878 414.739 28.3878H406.672V28.3878Z" fill="#9EC8FF"/>
</g>
<g opacity="0.8">
<path opacity="0.8" d="M376.774 45.5347H368.708C365.595 45.5347 363.055 42.9944 363.055 39.8825V31.8172C363.055 28.7053 365.595 26.165 368.708 26.165H376.774C379.886 26.165 382.427 28.7053 382.427 31.8172V39.8825C382.427 42.9944 379.886 45.5347 376.774 45.5347ZM368.708 28.3878C366.818 28.3878 365.278 29.9278 365.278 31.8172V39.8825C365.278 41.7719 366.818 43.3119 368.708 43.3119H376.774C378.663 43.3119 380.204 41.7719 380.204 39.8825V31.8172C380.204 29.9278 378.663 28.3878 376.774 28.3878H368.708V28.3878Z" fill="#9EC8FF"/>
</g>
<path d="M373.249 40.8351C373.233 40.8351 373.217 40.8351 373.201 40.8351C372.915 40.8193 372.661 40.6923 372.487 40.47L366.691 32.9126C366.373 32.4999 366.453 31.8965 366.866 31.579C367.278 31.2615 367.882 31.3409 368.199 31.7536L373.312 38.4219L386.666 24.1169C387.032 23.7359 387.635 23.7041 388.016 24.0693C388.397 24.4345 388.429 25.0378 388.064 25.4188L373.947 40.5494C373.757 40.724 373.503 40.8351 373.249 40.8351Z" fill="#F37168"/>
<path d="M441.402 253.822C408.374 252.202 296.032 254.949 261.877 256.013C227.706 257.077 188.056 254.6 167.446 250.964C146.851 247.328 27.7604 251.266 33.1751 261.046C38.5738 270.826 86.226 265.412 140.261 269.349C194.297 273.287 315.833 268.857 343.24 269.349C370.646 269.841 395.798 268.365 431.113 266.396C466.427 264.427 460.536 254.759 441.402 253.822Z" fill="#CCE2FF"/>
<path d="M103.849 49.377H34.8242V162.515H103.849V49.377Z" fill="#99BBEB"/>
<path d="M101.595 51.6953H38.4453V158.212H101.595V51.6953Z" fill="white"/>
<path d="M57.3281 94.4029C59.7099 89.2906 63.7273 87.6553 70.3328 87.6553C78.1928 87.6553 82.2895 90.4972 83.4328 94.6569C69.3483 94.8474 57.3281 94.4029 57.3281 94.4029Z" fill="#9BD6E8"/>
<path d="M67.5868 62.7927C64.2522 63.7294 64.411 65.6029 63.2995 67.3334C62.188 69.064 59.7744 70.223 59.4886 71.382C59.2028 72.541 60.2349 74.9543 59.0123 76.3038C57.7896 77.6533 57.3767 78.336 57.8531 79.6855C58.3295 81.035 59.3933 83.1625 59.4886 83.4483C59.5839 83.7341 60.9336 85.7663 62.5691 86.0521C64.2046 86.3379 67.301 86.83 68.8412 87.4969C70.3814 88.1796 75.3515 86.6395 78.0985 86.7348C80.8455 86.8301 82.7351 84.7978 82.5287 83.4483C82.3381 82.0988 84.5612 79.3997 84.5612 77.0817C84.5612 74.5891 81.6712 72.7474 80.8932 71.0962C80.1151 69.4609 80.9884 66.5555 78.0985 64.8408C76.2725 63.7611 75.018 63.8564 73.5572 63.3642C72.1281 62.8879 69.7145 62.1893 67.5868 62.7927Z" fill="#3A384D"/>
<path d="M71.6353 91.736C70.889 92.8473 70.3332 92.895 69.5075 91.736C68.8565 90.8151 67.5703 88.7194 67.5703 87.6556V77.0659C67.5703 76.0021 68.4436 75.1289 69.5075 75.1289H71.6353C72.6992 75.1289 73.5725 76.0021 73.5725 77.0659V87.6556C73.5725 88.7194 72.3181 90.7357 71.6353 91.736Z" fill="#F09959"/>
<path d="M71.6353 75.1445H69.5075C68.4436 75.1445 67.5703 76.0178 67.5703 77.0815V86.5282C69.9521 87.2903 72.1275 85.782 73.5566 84.0831V77.0815C73.5725 76.0019 72.6992 75.1445 71.6353 75.1445Z" fill="#E38540"/>
<path d="M70.5713 83.9884C74.1142 83.9884 76.9863 80.0717 76.9863 75.2403C76.9863 70.4088 74.1142 66.4922 70.5713 66.4922C67.0284 66.4922 64.1562 70.4088 64.1562 75.2403C64.1562 80.0717 67.0284 83.9884 70.5713 83.9884Z" fill="#F09959"/>
<path d="M73.5705 68.2862C69.5215 75.129 63.5352 74.4622 63.5352 74.4622C63.5352 74.4622 63.6781 65.3966 68.4258 64.9203C73.1736 64.444 75.9682 66.3492 76.9368 69.4928C77.9054 72.6364 76.9368 74.7162 76.9368 74.7162C76.9368 74.7162 75.3966 73.5096 74.6185 71.5885C73.8564 69.6357 73.5705 68.2862 73.5705 68.2862Z" fill="#3A384D"/>
<path d="M64.3819 78.1218C65.2216 77.7231 65.4174 76.3789 64.8192 75.1195C64.221 73.8602 63.0554 73.1625 62.2157 73.5612C61.376 73.96 61.1802 75.3041 61.7784 76.5635C62.3766 77.8229 63.5422 78.5205 64.3819 78.1218Z" fill="#F09959"/>
<path d="M76.0499 75.1131C75.4465 76.3832 75.653 77.7169 76.4945 78.1297C77.3361 78.5266 78.5111 77.828 79.0987 76.5737C79.7021 75.3036 79.4956 73.97 78.6541 73.5572C77.8125 73.1444 76.6533 73.843 76.0499 75.1131Z" fill="#F09959"/>
<path d="M72.9873 79.9873C72.9873 79.9873 71.9075 81.3845 70.5737 81.3845C69.2399 81.3845 68.1602 79.9873 68.1602 79.9873H72.9873Z" fill="white"/>
<path d="M78.207 108.264H62.0107C60.9785 108.264 60.1211 107.423 60.1211 106.375C60.1211 105.343 60.9627 104.485 62.0107 104.485H78.207C79.2391 104.485 80.0966 105.327 80.0966 106.375C80.0966 107.423 79.255 108.264 78.207 108.264Z" fill="#99BBEB"/>
<path d="M81.173 114.059H59.038C58.0059 114.059 57.1484 113.217 57.1484 112.17C57.1484 111.138 57.99 110.28 59.038 110.28H81.173C82.2051 110.28 83.0625 111.122 83.0625 112.17C83.0625 113.202 82.2051 114.059 81.173 114.059Z" fill="#99BBEB"/>
<path d="M97.0381 134.874H43.1933C42.5899 134.874 42.0977 134.381 42.0977 133.778C42.0977 133.175 42.5899 132.683 43.1933 132.683H97.0381C97.6415 132.683 98.1338 133.175 98.1338 133.778C98.1338 134.381 97.6257 134.874 97.0381 134.874Z" fill="#99BBEB"/>
<path d="M97.0381 139.954H43.1933C42.5899 139.954 42.0977 139.461 42.0977 138.858C42.0977 138.255 42.5899 137.763 43.1933 137.763H97.0381C97.6415 137.763 98.1338 138.255 98.1338 138.858C98.1179 139.461 97.6257 139.954 97.0381 139.954Z" fill="#99BBEB"/>
<path d="M97.0381 145.035H43.1933C42.5899 145.035 42.0977 144.543 42.0977 143.939C42.0977 143.336 42.5899 142.844 43.1933 142.844H97.0381C97.6415 142.844 98.1338 143.336 98.1338 143.939C98.1179 144.543 97.6257 145.035 97.0381 145.035Z" fill="#99BBEB"/>
<path d="M89.4946 95.6579H50.7187C49.639 95.6579 48.7656 94.7847 48.7656 93.705V57.9665C48.7656 56.8869 49.639 56.0137 50.7187 56.0137H89.4946C90.5744 56.0137 91.4477 56.8869 91.4477 57.9665V93.705C91.4477 94.7847 90.5744 95.6579 89.4946 95.6579ZM50.7187 57.6013C50.5282 57.6013 50.3535 57.7601 50.3535 57.9665V93.705C50.3535 93.8956 50.5123 94.0702 50.7187 94.0702H89.4946C89.6851 94.0702 89.8598 93.9114 89.8598 93.705V57.9665C89.8598 57.776 89.701 57.6013 89.4946 57.6013H50.7187Z" fill="#99BBEB"/>
<path d="M56.3079 118.965L57.4353 121.235L59.9441 121.6L58.1339 123.379L58.5626 125.871L56.3079 124.696L54.069 125.871L54.4977 123.379L52.6875 121.6L55.1963 121.235L56.3079 118.965Z" fill="#99BBEB"/>
<path d="M65.519 118.965L66.6306 121.235L69.1394 121.6L67.3292 123.379L67.7579 125.871L65.519 124.696L63.2643 125.871L63.693 123.379L61.8828 121.6L64.3917 121.235L65.519 118.965Z" fill="#99BBEB"/>
<path d="M74.7104 118.965L75.822 121.235L78.3467 121.6L76.5206 123.379L76.9494 125.871L74.7104 124.696L72.4557 125.871L72.8844 123.379L71.0742 121.6L73.5831 121.235L74.7104 118.965Z" fill="#99BBEB"/>
<path d="M83.9058 118.965L85.0331 121.235L87.542 121.6L85.7159 123.379L86.1447 125.871L83.9058 124.696L81.651 125.871L82.0956 123.379L80.2695 121.6L82.7784 121.235L83.9058 118.965Z" fill="#99BBEB"/>
<path d="M257.748 49.377H188.723V162.515H257.748V49.377Z" fill="#99BBEB"/>
<path d="M255.494 51.6953H192.344V158.212H255.494V51.6953Z" fill="white"/>
<path d="M214.227 74.6689C214.227 79.7336 217.275 87.9102 224.468 87.6561C231.661 87.3862 233.265 79.6066 233.535 77.3997C233.821 75.1929 214.227 74.6689 214.227 74.6689Z" fill="#7A4E34"/>
<path d="M211.227 94.4039C213.608 89.2916 217.626 87.6562 224.231 87.6562C232.091 87.6562 236.188 90.4982 237.331 94.6579C223.263 94.8484 211.227 94.4039 211.227 94.4039Z" fill="#D54A41"/>
<path d="M225.534 91.7369C224.787 92.8483 224.232 92.8959 223.406 91.7369C222.755 90.8161 221.469 88.7204 221.469 87.6566V77.0668C221.469 76.0031 222.342 75.1299 223.406 75.1299H225.534C226.598 75.1299 227.471 76.0031 227.471 77.0668V87.6566C227.471 88.7204 226.216 90.7367 225.534 91.7369Z" fill="#F09959"/>
<path d="M225.533 75.1455H223.422C222.358 75.1455 221.484 76.0187 221.484 77.0825V86.5291C223.866 87.2912 226.042 85.7829 227.471 84.0841V77.0825C227.471 76.0029 226.597 75.1455 225.533 75.1455Z" fill="#E38540"/>
<path d="M224.485 83.9884C228.028 83.9884 230.9 80.0717 230.9 75.2403C230.9 70.4088 228.028 66.4922 224.485 66.4922C220.942 66.4922 218.07 70.4088 218.07 75.2403C218.07 80.0717 220.942 83.9884 224.485 83.9884Z" fill="#F09959"/>
<path d="M228.011 68.6044C227.248 71.2875 225.581 71.2558 223.247 72.1449C220.913 73.034 219.801 73.9231 219.039 75.6378C218.071 77.8287 219.484 84.2271 219.484 84.2271C219.484 84.2271 213.593 79.8133 214.26 72.8752C214.942 65.9371 219.039 63.2539 222.882 63.2539C226.74 63.2539 228.201 65.6037 228.201 65.6037C228.201 65.6037 230.25 65.6195 232.187 67.9058C234.791 71.0018 233.997 78.4956 232.187 81.1787C230.377 83.8619 229.17 84.7034 229.217 84.5922C229.265 84.4652 230.901 78.305 230.027 74.4788C229.154 70.6525 228.011 68.6044 228.011 68.6044Z" fill="#7A4E34"/>
<path d="M226.886 79.9873C226.886 79.9873 225.806 81.3845 224.472 81.3845C223.138 81.3845 222.059 79.9873 222.059 79.9873H226.886Z" fill="white"/>
<path d="M232.105 108.264H215.909C214.877 108.264 214.02 107.423 214.02 106.375C214.02 105.343 214.861 104.485 215.909 104.485H232.105C233.138 104.485 233.995 105.327 233.995 106.375C233.995 107.423 233.153 108.264 232.105 108.264Z" fill="#99BBEB"/>
<path d="M235.071 114.059H212.936C211.904 114.059 211.047 113.217 211.047 112.17C211.047 111.138 211.888 110.28 212.936 110.28H235.071C236.104 110.28 236.961 111.122 236.961 112.17C236.961 113.202 236.119 114.059 235.071 114.059Z" fill="#99BBEB"/>
<path d="M250.937 134.874H197.092C196.488 134.874 195.996 134.381 195.996 133.778C195.996 133.175 196.488 132.683 197.092 132.683H250.937C251.54 132.683 252.032 133.175 252.032 133.778C252.032 134.381 251.54 134.874 250.937 134.874Z" fill="#99BBEB"/>
<path d="M250.937 139.954H197.092C196.488 139.954 195.996 139.461 195.996 138.858C195.996 138.255 196.488 137.763 197.092 137.763H250.937C251.54 137.763 252.032 138.255 252.032 138.858C252.032 139.461 251.54 139.954 250.937 139.954Z" fill="#99BBEB"/>
<path d="M250.937 145.035H197.092C196.488 145.035 195.996 144.543 195.996 143.939C195.996 143.336 196.488 142.844 197.092 142.844H250.937C251.54 142.844 252.032 143.336 252.032 143.939C252.032 144.543 251.54 145.035 250.937 145.035Z" fill="#99BBEB"/>
<path d="M243.393 95.6579H204.617C203.537 95.6579 202.664 94.7847 202.664 93.705V57.9665C202.664 56.8869 203.537 56.0137 204.617 56.0137H243.393C244.473 56.0137 245.346 56.8869 245.346 57.9665V93.705C245.346 94.7847 244.473 95.6579 243.393 95.6579ZM204.617 57.6013C204.427 57.6013 204.252 57.7601 204.252 57.9665V93.705C204.252 93.8956 204.411 94.0702 204.617 94.0702H243.393C243.584 94.0702 243.758 93.9114 243.758 93.705V57.9665C243.758 57.776 243.6 57.6013 243.393 57.6013H204.617Z" fill="#99BBEB"/>
<path d="M210.222 118.965L211.334 121.235L213.843 121.6L212.032 123.379L212.461 125.871L210.222 124.696L207.967 125.871L208.396 123.379L206.586 121.6L209.095 121.235L210.222 118.965Z" fill="#99BBEB"/>
<path d="M219.417 118.965L220.529 121.235L223.054 121.6L221.228 123.379L221.656 125.871L219.417 124.696L217.163 125.871L217.591 123.379L215.781 121.6L218.29 121.235L219.417 118.965Z" fill="#99BBEB"/>
<path d="M228.609 118.965L229.736 121.235L232.245 121.6L230.419 123.379L230.848 125.871L228.609 124.696L226.354 125.871L226.783 123.379L224.973 121.6L227.481 121.235L228.609 118.965Z" fill="#99BBEB"/>
<path d="M237.804 118.965L238.932 121.235L241.44 121.6L239.614 123.379L240.043 125.871L237.804 124.696L235.565 125.871L235.994 123.379L234.168 121.6L236.677 121.235L237.804 118.965Z" fill="#99BBEB"/>
<path opacity="0.2" d="M196.487 161.386H87.543L95.2442 49.8047H200.409L196.487 161.386Z" fill="#99BBEB"/>
<path d="M193.265 28.6895H98.9766V183.218H193.265V28.6895Z" fill="#99BBEB"/>
<path d="M190.167 31.833H103.914V177.312H190.167V31.833Z" fill="white"/>
<path d="M139.005 62.3957C138.941 62.2211 137.433 53.5524 137.258 50.1865C137.083 46.8207 142.673 46.3285 142.673 46.3285C142.673 46.3285 147.246 43.8676 150.564 45.1218C153.867 46.392 156.122 48.5195 157.63 51.155C159.139 53.8064 156.312 62.0623 156.312 62.0623L139.005 62.3957Z" fill="#2E2D3D"/>
<path d="M128.637 90.2435C128.621 90.1006 129.018 86.6871 129.034 86.5601C129.796 79.3838 138.657 77.3516 147.485 77.3516C157.87 77.3516 164.904 79.2568 166.032 86.7188C166.063 86.9411 166.667 90.3546 166.635 90.5928C147.39 90.8309 128.637 90.2435 128.637 90.2435Z" fill="#D5E1E8"/>
<path d="M149.264 82.9247C148.232 84.4488 147.486 84.5123 146.359 82.9247C145.469 81.6704 142.5 78.7967 142.5 77.3519L143.723 62.9041C143.723 61.4593 144.914 60.2686 146.359 60.2686H149.264C150.709 60.2686 151.9 61.4593 151.9 62.9041L152.472 77.3519C152.472 78.7967 150.185 81.5593 149.264 82.9247Z" fill="#F09959"/>
<path d="M149.262 60.252H146.356C144.911 60.252 143.72 61.4427 143.72 62.8875L142.656 75.7159C145.911 76.7479 150.31 74.6521 152.247 72.3183L151.882 62.8875C151.898 61.4427 150.707 60.252 149.262 60.252Z" fill="#E38540"/>
<path d="M137.863 78.3998L142.516 86.9891C142.516 86.9891 145.009 84.941 145.247 85.3379C145.485 85.7348 144.802 90.7995 144.802 90.7995C144.802 90.7995 150.344 90.8789 150.582 90.6408C150.82 90.4026 149.455 85.1474 150.026 85.1474C150.582 85.1474 152.281 86.6716 152.281 86.6716L157.474 78.3998L156.33 78.1299L147.835 82.7024L138.737 78.2251L137.863 78.3998Z" fill="#BDCCD4"/>
<path d="M143.184 82.3522L146.629 84.6702L145.565 90.8145L150.218 90.5605L149.059 84.9718L151.917 82.3522L150.567 81.082H144.533L143.184 82.3522Z" fill="#D54A41"/>
<path d="M142.752 74.1918L138.48 78.2563C138.48 78.2563 142.831 85.9882 143.069 85.9882C143.308 85.9882 146.753 81.7174 146.753 81.7174L148.96 81.6857L152.454 85.3532L156.503 78.1769L152.374 73.7949C152.374 73.7949 148.849 80.6219 148.198 80.7807C147.563 80.9394 147.547 81.0188 147.039 80.6219C146.531 80.225 142.752 74.1918 142.752 74.1918Z" fill="#D5E1E8"/>
<path d="M147.82 72.3503C152.661 72.3503 156.585 67.0049 156.585 60.411C156.585 53.8171 152.661 48.4717 147.82 48.4717C142.979 48.4717 139.055 53.8171 139.055 60.411C139.055 67.0049 142.979 72.3503 147.82 72.3503Z" fill="#F09959"/>
<path d="M139.944 60.2205C140.769 61.9511 140.499 63.7928 139.34 64.3326C138.197 64.8724 136.593 63.9198 135.767 62.2051C134.942 60.4745 135.212 58.6328 136.371 58.093C137.53 57.5373 139.134 58.4899 139.944 60.2205Z" fill="#F09959"/>
<path d="M155.283 60.2205C154.457 61.9511 154.727 63.7928 155.886 64.3326C157.03 64.8724 158.633 63.9198 159.459 62.2051C160.285 60.4745 160.015 58.6328 158.856 58.093C157.697 57.5373 156.109 58.4899 155.283 60.2205Z" fill="#F09959"/>
<path d="M151.71 65.3008C151.71 65.3008 149.964 68.1268 147.82 68.1268C145.676 68.1268 143.93 65.3008 143.93 65.3008H151.71Z" fill="white"/>
<path d="M142.675 52.2825C146.279 49.7581 147.915 50.1709 150.614 54.3306C153.329 58.4903 156.568 58.5538 156.568 58.5538L156.997 54.2512C156.997 54.2512 152.964 46.4399 147.549 47.4719C142.135 48.488 139.054 53.3621 139.054 53.3621C139.054 53.3621 138.784 62.4913 139.546 62.8088C140.309 63.1263 140.388 59.8557 140.928 59.2048C141.468 58.538 140.388 55.4102 141.103 53.9655C141.833 52.5207 142.675 52.2825 142.675 52.2825Z" fill="#2E2D3D"/>
<path d="M154.297 56.9824C155.551 58.3637 155.075 63.8412 155.742 63.7777C156.409 63.7141 156.647 58.5383 156.456 57.9985C156.282 57.4587 154.297 56.9824 154.297 56.9824Z" fill="#2E2D3D"/>
<path d="M167.302 109.122H127.049C125.636 109.122 124.477 107.963 124.477 106.55C124.477 105.137 125.636 103.978 127.049 103.978H167.302C168.715 103.978 169.874 105.137 169.874 106.55C169.874 107.963 168.715 109.122 167.302 109.122Z" fill="#99BBEB"/>
<path d="M162.298 117.012H132.065C130.651 117.012 129.492 115.853 129.492 114.44C129.492 113.027 130.651 111.868 132.065 111.868H162.298C163.711 111.868 164.87 113.027 164.87 114.44C164.87 115.869 163.711 117.012 162.298 117.012Z" fill="#99BBEB"/>
<path d="M183.941 145.447H110.407C109.581 145.447 108.914 144.78 108.914 143.954C108.914 143.129 109.581 142.462 110.407 142.462H183.941C184.767 142.462 185.434 143.129 185.434 143.954C185.434 144.78 184.767 145.447 183.941 145.447Z" fill="#99BBEB"/>
<path d="M183.941 152.385H110.407C109.581 152.385 108.914 151.718 108.914 150.893C108.914 150.067 109.581 149.4 110.407 149.4H183.941C184.767 149.4 185.434 150.067 185.434 150.893C185.434 151.718 184.767 152.385 183.941 152.385Z" fill="#99BBEB"/>
<path d="M183.941 159.324H110.407C109.581 159.324 108.914 158.657 108.914 157.831C108.914 157.006 109.581 156.339 110.407 156.339H183.941C184.767 156.339 185.434 157.006 185.434 157.831C185.434 158.657 184.767 159.324 183.941 159.324Z" fill="#99BBEB"/>
<path d="M173.67 91.6091H120.698C119.396 91.6091 118.316 90.5454 118.316 89.2276V40.4225C118.316 39.1206 119.38 38.041 120.698 38.041H173.67C174.972 38.041 176.052 39.1048 176.052 40.4225V89.2276C176.036 90.5295 174.972 91.6091 173.67 91.6091ZM120.698 39.6287C120.269 39.6287 119.904 39.978 119.904 40.4225V89.2276C119.904 89.6563 120.254 90.0214 120.698 90.0214H173.67C174.098 90.0214 174.464 89.6722 174.464 89.2276V40.4225C174.464 39.9939 174.114 39.6287 173.67 39.6287H120.698Z" fill="#99BBEB"/>
<path d="M121.966 123.728L123.491 126.839L126.92 127.332L124.443 129.761L125.031 133.174L121.966 131.555L118.886 133.174L119.473 129.761L116.996 127.332L120.426 126.839L121.966 123.728Z" fill="#99BBEB"/>
<path d="M134.525 123.728L136.049 126.839L139.479 127.332L137.002 129.761L137.589 133.174L134.525 131.555L131.444 133.174L132.032 129.761L129.555 127.332L132.984 126.839L134.525 123.728Z" fill="#99BBEB"/>
<path d="M147.087 123.728L148.612 126.839L152.041 127.332L149.564 129.761L150.152 133.174L147.087 131.555L144.007 133.174L144.594 129.761L142.117 127.332L145.547 126.839L147.087 123.728Z" fill="#99BBEB"/>
<path d="M159.646 123.728L161.17 126.839L164.6 127.332L162.123 129.761L162.71 133.174L159.646 131.555L156.565 133.174L157.153 129.761L154.676 127.332L158.106 126.839L159.646 123.728Z" fill="#99BBEB"/>
<path d="M172.396 123.728L173.936 126.839L177.366 127.332L174.873 129.761L175.46 133.174L172.396 131.555L169.331 133.174L169.918 129.761L167.441 127.332L170.871 126.839L172.396 123.728Z" fill="#99BBEB"/>
<path d="M344.697 178.248H223.701C222.97 178.248 222.383 177.66 222.383 176.93V174.961C222.383 174.231 222.97 173.644 223.701 173.644H344.697C345.427 173.644 346.015 174.231 346.015 174.961V176.93C346.015 177.66 345.427 178.248 344.697 178.248Z" fill="#2E5B9A"/>
<path d="M375.853 111.899C377.488 117.678 373.487 123.632 369.073 124.886C364.658 126.14 361.514 122.203 359.879 116.424C358.243 110.645 360.482 104.945 364.896 103.691C369.311 102.452 374.217 106.12 375.853 111.899Z" fill="#F09959"/>
<path d="M351.132 223.877C351.132 223.877 362.438 241.437 363.963 242.199C365.487 242.961 369.314 243.151 367.869 246.009C366.44 248.867 365.868 260.124 364.534 260.695C363.2 261.267 351.752 262.6 353.467 260.695C355.182 258.79 356.245 259.743 357.103 256.313C357.976 252.884 359.183 246.39 357.563 245.057C355.944 243.723 346.02 231.704 346.02 231.704L351.132 223.877Z" fill="#F09959"/>
<path d="M294.238 231.419C294.238 231.419 280.502 254.059 277.946 256.091C275.405 258.124 267.006 261.188 273.881 261.696C280.757 262.204 284.059 259.41 288.378 258.14C292.697 256.869 298.049 256.107 296.016 252.789C293.984 249.487 294.825 242.263 299.208 237.674C303.59 233.102 294.238 231.419 294.238 231.419Z" fill="#F09959"/>
<path d="M364.358 178.915C364.358 178.915 330.346 178.025 316.849 189.091C308.958 201.047 289.871 236.325 288.395 240.215C289.411 241.231 295.143 243.072 297.684 242.818C305.194 233.864 315.118 226.132 319.056 219.114C323.915 210.462 325.424 206.143 333.3 205.381C341.191 204.619 359.007 202.079 364.343 202.079C369.678 202.079 364.358 178.915 364.358 178.915Z" fill="#6791C9"/>
<path d="M394.018 261.76H392.224L379.441 208.43H383.363L394.018 261.76Z" fill="#2E5B9A"/>
<path d="M340.602 261.759H342.38L357.052 206.54H353.13L340.602 261.759Z" fill="#2E5B9A"/>
<path d="M383.731 176.58L363.962 179.994C363.962 179.994 337.683 180.232 325.663 182.47C314.738 184.503 313.119 196.918 325.663 214.017C332.792 223.734 338.81 231.482 351.132 240.214C354.26 237.912 355.467 237.039 356.325 231.514C355.435 230.291 353.133 222.638 352.403 221.146C345.591 206.905 336.492 201.729 336.365 200.332C337.889 197.855 376.808 213.255 384.541 204.19C391.941 195.537 383.731 176.58 383.731 176.58Z" fill="#75A1DE"/>
<path d="M384.557 131.824C379.349 131.094 374.046 132.078 369.076 135.682C364.741 140.096 359.834 147.383 360.136 159.402C360.517 174.659 357.77 175.644 360.628 179.851C372.569 184.773 392.989 205.968 388.178 183.249C384.7 166.8 395.816 154.559 386.844 136.317C386.129 134.825 385.209 133.38 384.557 131.824Z" fill="#F37168"/>
<path d="M360.136 165.133C359.898 173.088 358.787 175.437 359.644 177.93C364.519 178.422 373.411 180.375 375.634 183.487C378.175 187.043 380.731 187.551 379.54 184.932C378.349 182.296 375.221 178.565 380.048 165.768C384.875 152.956 387.178 144.319 382.43 135.412L360.136 165.133Z" fill="#D54A41"/>
<path d="M384.556 131.824C381.348 124.235 380.555 115.709 380.555 115.709L372.155 118.186C372.155 118.186 376.918 128.871 372.345 132.681C371.377 133.491 370.249 134.475 369.074 135.666C374.044 132.078 379.348 131.094 384.556 131.824Z" fill="#F09959"/>
<path d="M380.81 117.726C380.318 117.282 379.682 116.726 379.031 116.154L372.188 118.171C372.188 118.187 372.172 118.202 372.172 118.202C372.331 118.583 374.077 122.648 374.315 126.569C376.364 125.331 378.587 123.315 381.143 119.79C381 119.012 380.889 118.314 380.81 117.726Z" fill="#E38540"/>
<path d="M378.649 134.206C369.995 137.222 370.964 146.335 363.009 159.767C358.896 166.721 355.069 166.61 355.069 166.61C355.069 166.61 345.415 166.689 333.728 165.261C326.408 164.371 325.948 166.547 331.029 168.356C341.287 172.024 351.941 175.977 360.532 175.025C369.122 174.072 383.81 152.162 384.572 146.462C385.604 138.588 383 132.681 378.649 134.206Z" fill="#F09959"/>
<path d="M374.186 210.653C373.646 210.653 373.09 210.653 372.534 210.637C365.484 210.462 360.689 209.494 356.83 208.7C352.337 207.779 349.844 207.287 346.97 208.652C345.858 209.176 344.54 208.716 344 207.604C343.46 206.493 343.937 205.175 345.048 204.636C349.272 202.619 352.813 203.334 357.719 204.334C361.403 205.08 365.992 206.017 372.645 206.176C380.093 206.366 384.634 205.255 386.936 202.699C388.985 200.428 389.588 196.602 388.826 190.664C388.572 188.632 388.302 186.949 388.08 185.456C387.429 181.249 387 178.471 387.54 174.184C388.032 170.199 389.35 164.896 392.414 154.592C392.764 153.417 394.002 152.75 395.177 153.1C396.352 153.449 397.019 154.687 396.67 155.862C390.97 175.041 391.255 176.915 392.478 184.774C392.716 186.282 392.97 188.013 393.24 190.092C394.177 197.412 393.224 202.349 390.239 205.668C387.175 209.097 382.189 210.653 374.186 210.653Z" fill="#2E5B9A"/>
<path d="M295.158 250.503C286.044 254.964 281.137 257.52 278.215 257.266C277.533 257.203 276.961 257.139 276.469 257.06C273.214 258.981 268.021 261.251 273.865 261.68C280.74 262.188 284.043 259.394 288.362 258.124C292.681 256.854 298.032 256.092 296 252.773C295.618 252.17 295.333 251.376 295.158 250.503Z" fill="#D54A41"/>
<path d="M364.944 242.58C364.722 249.804 363.722 256.949 359.307 258.298C358.132 258.663 357.068 258.711 356.132 258.584C355.433 259.441 354.591 259.457 353.448 260.711C351.733 262.617 363.182 261.283 364.516 260.711C365.849 260.14 366.421 248.883 367.85 246.025C369.041 243.676 366.675 243.12 364.944 242.58Z" fill="#D54A41"/>
<path d="M329.822 174.263H300.859C300.001 174.263 299.208 173.755 298.842 172.977L287.14 147.78C286.616 146.669 287.108 145.351 288.219 144.827C289.331 144.303 290.649 144.795 291.173 145.907L302.288 169.801H329.838C331.06 169.801 332.061 170.802 332.061 172.024C332.061 173.247 331.06 174.263 329.822 174.263Z" fill="#75A1DE"/>
<path d="M335.885 165.53C330.025 165.45 324.23 161.957 321.34 162.466C318.45 162.974 309.034 169.499 310.225 169.753C311.416 170.007 318.879 166.133 319.133 166.085C319.387 166.022 321.006 168.769 324.992 169.769C328.977 170.769 325.024 166.784 337.377 170.515C345.412 172.944 335.885 165.53 335.885 165.53Z" fill="#F09959"/>
<path d="M383.699 124.886L384.557 131.808C384.557 131.808 376.983 132.253 373.219 134.38C369.456 136.508 363.883 142.62 363.883 142.62L368.424 134.793L369.075 129.792L383.699 124.886Z" fill="#F2E5DE"/>
<path d="M380.474 133.364C374.853 132.316 372.249 137.349 368.596 145.573C364.944 153.797 358.72 163.784 357.481 165.086C356.243 166.372 336.617 165.086 336.617 165.086C336.617 165.086 336.029 170.77 336.617 171.452C337.204 172.135 340.602 172.04 340.602 172.04C340.602 172.04 341.952 173.119 343.238 173.977C344.508 174.834 355.29 176.453 360.292 176.183C365.294 175.914 369.883 175.501 370.55 174.739C371.232 173.977 384.888 152.94 385.73 145.398C386.571 137.873 383.332 133.904 380.474 133.364Z" fill="#F2E5DE"/>
<path d="M363.883 98.7688C353.244 99.2768 354.911 115.281 354.911 115.281C354.911 115.281 357.674 116.138 363.47 115.185C363.025 113.471 363.216 109.073 363.216 109.073C363.216 109.073 363.883 112.629 364.74 114.804C365.963 115.36 367.344 114.868 369.694 114.296C370.901 119.377 374.315 121.536 376.649 122.266C379.238 123.076 381.969 124.045 385.017 122.52C388.066 120.996 386.399 105.389 384.763 102.246C382.334 97.5304 378.285 93.323 371.282 95.5458C367.805 96.6572 363.883 98.7688 363.883 98.7688Z" fill="#303C60"/>
<path d="M382.379 117.773L386.73 124.124C386.73 124.124 381.903 136.174 395.923 141.62C406.912 145.891 405.609 153.417 400.655 160.99C395.701 168.563 403.625 175.168 403.625 175.168C403.625 175.168 404.831 166.785 415.502 165.197C430.047 163.038 434.175 143.509 423.298 133.745C414.311 125.664 411.58 132.364 405.482 125.108C399.401 117.853 387.905 122.759 387.905 122.759L383.697 116.614L382.379 117.773Z" fill="#303C60"/>
<path d="M428.302 153.433C428.238 153.433 428.175 153.417 428.111 153.385C427.921 153.29 427.857 153.052 427.952 152.861C431.605 146.177 428.619 138.08 427.127 135.889C426.968 135.651 426.809 135.428 426.65 135.174C425.174 132.872 423.348 130.014 413.55 128.252C411.184 127.823 409.279 126.426 407.262 124.934C403.086 121.87 398.354 118.393 388.065 123.124C387.874 123.219 387.636 123.124 387.557 122.933C387.462 122.743 387.557 122.505 387.747 122.425C398.45 117.504 403.372 121.123 407.723 124.315C409.676 125.744 411.518 127.093 413.693 127.49C423.824 129.316 425.761 132.332 427.317 134.762C427.476 135 427.619 135.238 427.778 135.46C429.35 137.762 432.478 146.24 428.651 153.242C428.572 153.369 428.445 153.433 428.302 153.433Z" fill="#303C60"/>
<path d="M380.061 124.283C379.362 124.283 378.616 124.219 377.806 124.108C374.09 123.552 369.088 121.441 368.691 109.565C368.691 109.358 368.85 109.168 369.073 109.168C369.295 109.168 369.469 109.327 369.469 109.549C369.628 114.439 370.597 118.059 372.359 120.313C373.693 122.028 375.456 122.981 377.917 123.362C381.363 123.87 383.649 123.235 384.697 121.472C384.808 121.282 385.046 121.234 385.221 121.345C385.412 121.457 385.459 121.695 385.348 121.869C384.395 123.473 382.617 124.283 380.061 124.283Z" fill="#303C60"/>
<path d="M235.355 261.76H238.214L249.329 176.771H243.041L235.355 261.76Z" fill="#2E5B9A"/>
<path d="M332.36 261.76H329.502L318.371 176.771H324.659L332.36 261.76Z" fill="#2E5B9A"/>
<path d="M444.45 190.028C449.388 194.537 447.244 199.062 443.592 207.445C439.94 215.828 439.289 246.788 439.289 246.788L442.306 246.359C442.306 246.359 441.877 214.542 445.958 205.937C450.039 197.332 451.77 193.045 455.422 195.839C459.074 198.634 444.45 190.028 444.45 190.028Z" fill="#74B570"/>
<path d="M441.736 184.17C442.34 181.487 445.896 178.597 450.676 176.136C449.961 180.09 447.691 186.536 450.041 187.853C453.217 189.632 450.343 180.63 451.581 175.676C456.059 173.485 461.442 171.707 466.412 170.818C466.412 170.834 466.396 170.85 466.396 170.865C463.601 177.962 459.949 180.757 461.458 181.836C462.585 182.646 466.285 174.454 471.144 170.246C474.796 170.056 477.892 170.548 479.718 171.993C482.545 174.231 484.45 176.216 481.608 183.027C479.988 184.186 477.876 185.027 475.431 185.266C468.984 185.917 465.967 186.123 470.493 188.282C472.7 189.33 476.416 188.219 479.417 187.552C478.448 189.346 477.241 191.378 475.78 193.696C474.859 195.157 473.843 196.443 472.763 197.538C470.683 197.935 468.873 197.935 467.904 197.522C464.888 196.236 457.155 192.14 455.217 193.871C453.328 195.554 469.556 196.617 468.428 200.904C460.568 205.429 451.565 203.286 449.961 199.126C447.818 193.553 439.926 192.235 441.736 184.17Z" fill="#9CD499"/>
<path d="M457.995 214.749C449.389 208.303 440.576 214.32 436.066 221.195C431.557 228.069 434.78 243.549 434.78 243.549C434.78 243.549 436.495 243.549 436.495 242.898C436.495 242.247 431.763 224.624 442.942 216.67C449.944 211.7 454.978 214.098 455.629 216.447C456.28 218.797 452.834 223.116 452.834 223.116L457.995 214.749Z" fill="#74B570"/>
<path d="M438.208 201.491C446.815 201.491 449.61 214.828 447.244 222.56C444.878 230.292 441.654 244.708 441.654 244.708L439.511 242.564C439.511 242.564 447.688 222.353 445.751 213.319C443.814 204.286 439.082 202.777 438.224 202.777C437.351 202.777 438.208 201.491 438.208 201.491Z" fill="#9CD499"/>
<path d="M445.437 222.624C446.04 221.83 446.787 221.163 447.708 220.719C447.58 221.354 447.438 221.973 447.263 222.56C446.183 226.085 444.929 230.991 443.881 235.294C443.785 234.738 443.643 233.896 443.404 232.579C443.357 232.277 443.309 231.928 443.277 231.578C444.119 228.721 444.913 225.609 445.437 222.624Z" fill="#74B570"/>
<path d="M447.785 222.687C464.124 215.813 455.518 206.366 469.92 212.605C470.936 213.05 472.175 214.145 473.414 215.686C472.127 216.051 470.571 216.305 468.856 216.051C464.553 215.4 466.062 218.845 473.159 219.702C474.493 219.861 475.589 220.083 476.478 220.401C479.86 226.894 481.385 235.436 474.223 238.405C472.81 238.993 471.079 239.326 469.126 239.453C466.919 237.707 469.666 227.545 466.268 228.943C462.997 230.292 467.284 237.643 466.697 239.501C463.473 239.437 459.901 238.913 456.487 238.072C455.137 237.31 454.105 236.294 453.787 234.96C452.708 230.451 459.805 227.657 460.028 223.783C460.218 220.226 457.424 231.61 450.008 233.277C443.307 230.149 440.148 225.894 447.785 222.687Z" fill="#9CD499"/>
<path d="M436.146 210.526C437.86 206.874 433.351 206.017 433.573 208.811C433.764 211.288 433.78 217.305 431.239 218.94C426.856 218.464 420.902 216.702 416.392 214.003C416.329 213.637 416.392 213.272 416.583 212.875C418.52 209.001 430.985 205.778 427.126 204.492C424.046 203.46 418.647 209.525 414.296 212.59C411.676 210.605 409.93 208.239 409.93 205.604C409.93 202.031 414.265 197.983 419.886 196.062C422.41 196.316 424.76 197.697 428.428 199.777C433.843 202.841 432.589 197.888 427.476 194.935C431.89 195.157 436.304 197.046 439.544 201.555C439.544 201.555 439.242 203.476 441.274 206.461C446.848 214.59 440.417 219.353 432.732 219.035C433.144 216.908 434.955 213.05 436.146 210.526Z" fill="#9CD499"/>
<path d="M457.488 214.384C461.696 217.639 466.364 221.433 472.096 224.005C477.828 226.577 476.685 234.992 476.685 234.992C476.685 234.992 477.543 227.736 472.763 225.243C467.984 222.767 464.824 219.798 461.203 219.226C457.583 218.655 455.566 218.083 455.566 218.083C455.566 218.083 456.71 215.797 456.043 214.924C455.376 214.05 457.488 214.384 457.488 214.384Z" fill="#74B570"/>
<path d="M478.208 176.231C462.822 180.344 451.548 190.187 449.436 192.569C447.34 194.95 447.34 195.633 447.34 195.633L448.959 198.697L449.722 198.316C449.722 198.316 448.483 195.728 451.722 192.394C457.328 186.631 464.14 182.074 468.824 180.074C473.524 178.041 478.208 176.231 478.208 176.231Z" fill="#74B570"/>
<path d="M435.73 261.395H441.606C445.782 261.395 449.18 258.013 449.18 253.822V240.311H428.156V253.822C428.172 257.997 431.554 261.395 435.73 261.395Z" fill="#75A1DE"/>
<path d="M449.199 242.724H428.176V244.2H449.199V242.724Z" fill="white"/>
<path d="M449.199 245.423H428.176V246.296H449.199V245.423Z" fill="white"/>
<path d="M52.3705 243.009H57.3882C58.4521 243.009 59.3096 242.152 59.3096 241.088V236.96C59.3096 235.896 58.4521 235.039 57.3882 235.039H52.3705C51.3067 235.039 50.4492 235.896 50.4492 236.96V241.088C50.4492 242.152 51.3067 243.009 52.3705 243.009Z" fill="#9EC8FF"/>
<path d="M36.269 243.009H41.2867C42.3506 243.009 43.208 242.152 43.208 241.088V236.96C43.208 235.896 42.3506 235.039 41.2867 235.039H36.269C35.2051 235.039 34.3477 235.896 34.3477 236.96V241.088C34.3635 242.152 35.221 243.009 36.269 243.009Z" fill="#9EC8FF"/>
<path d="M20.183 243.009H25.2007C26.2646 243.009 27.1221 242.152 27.1221 241.088V236.96C27.1221 235.896 26.2646 235.039 25.2007 235.039H20.183C19.1192 235.039 18.2617 235.896 18.2617 236.96V241.088C18.2617 242.152 19.1192 243.009 20.183 243.009Z" fill="#9EC8FF"/>
<path d="M478.08 94.609V89.592C478.08 88.5282 477.223 87.6709 476.159 87.6709H472.031C470.967 87.6709 470.109 88.5282 470.109 89.592V94.609C470.109 95.6728 470.967 96.5301 472.031 96.5301H476.159C477.223 96.5142 478.08 95.6569 478.08 94.609Z" fill="#9EC8FF"/>
<path d="M478.08 110.692V105.675C478.08 104.611 477.223 103.754 476.159 103.754H472.031C470.967 103.754 470.109 104.611 470.109 105.675V110.692C470.109 111.756 470.967 112.613 472.031 112.613H476.159C477.223 112.613 478.08 111.756 478.08 110.692Z" fill="#9EC8FF"/>
<path d="M478.08 126.775V121.758C478.08 120.694 477.223 119.837 476.159 119.837H472.031C470.967 119.837 470.109 120.694 470.109 121.758V126.775C470.109 127.839 470.967 128.696 472.031 128.696H476.159C477.223 128.696 478.08 127.839 478.08 126.775Z" fill="#9EC8FF"/>
</g>
<defs>
<clipPath id="clip0">
<rect width="483" height="271" fill="white"/>
</clipPath>
</defs>
</svg>
