<svg xmlns="http://www.w3.org/2000/svg" viewBox="0 0 339.41 429.91"><defs><style>.cls-1{fill:#263238;}.cls-2{fill:#fff;}.cls-3{fill:#e0e0e0;}.cls-4{fill:#1175af;}.cls-5{opacity:0.3;}.cls-6{fill:#f7d406;}.cls-7{fill:#ffbf9d;}.cls-8{fill:#ff9a6c;}.cls-9{fill:#045882;}.cls-10{fill:#054768;}.cls-11{opacity:0.6;}.cls-12{fill:#01273a;}.cls-13{fill:#024160;}</style></defs><g id="Device"><rect class="cls-1" x="74.83" y="81.52" width="158.09" height="315.99" rx="30.41"></rect><rect class="cls-2" x="81.87" y="89.09" width="144.03" height="291.35" rx="22.82"></rect><rect class="cls-3" x="102.45" y="275.62" width="23.96" height="76.87"></rect><rect class="cls-3" x="135.75" y="234.05" width="23.96" height="118.44"></rect><rect class="cls-3" x="173.45" y="194.9" width="23.96" height="157.59"></rect></g><g id="Character_4" data-name="Character 4"><polygon class="cls-4" points="293.38 205.46 275.7 219.74 243.06 206.96 235.86 220.74 271.49 238.59 293.06 234.12 302.55 212.27 293.38 205.46"></polygon><path class="cls-1" d="M527.29,293.17h0l-35.64-17.85h0l7.21-13.8h0l32.65,12.78L549.16,260h0l9.18,6.83h0l-9.49,21.87h0ZM549.17,260l-17.66,14.28h0l-32.64-12.78-7.18,13.74,35.61,17.84,21.56-4.47,9.47-21.82Z" transform="translate(-255.8 -54.56)"></path><g class="cls-5"><polygon points="293.38 205.46 275.7 219.74 243.06 206.96 235.86 220.74 271.49 238.59 293.06 234.12 302.55 212.27 293.38 205.46"></polygon></g><path class="cls-6" d="M470.63,234l-33.27,25.14c18.1,17.78,27.41,45.17,23.06,72.12l42,6.77,6.11-6.11C512.6,294.88,494.49,259.51,470.63,234Z" transform="translate(-255.8 -54.56)"></path><g class="cls-5"><path d="M470.63,234l-33.27,25.14c18.1,17.78,27.41,45.17,23.06,72.12l42,6.77,6.11-6.11C512.6,294.88,494.49,259.51,470.63,234Z" transform="translate(-255.8 -54.56)"></path></g><path class="cls-6" d="M476.74,227.87l-33.45,26.55a80.88,80.88,0,0,1,23.24,70.71l42,6.77A123.28,123.28,0,0,0,476.74,227.87Z" transform="translate(-255.8 -54.56)"></path><path class="cls-1" d="M579.63,204.25a3.79,3.79,0,0,0-3.42-2.71,5.16,5.16,0,0,0-6.23-1.23,4.58,4.58,0,0,0-7.56,2.19c-2.19.63-3.58.35-4.34,1.12a3.78,3.78,0,0,0-.3,4.48,3.68,3.68,0,0,0,0,7.32L578,208.31A3.78,3.78,0,0,0,579.63,204.25Z" transform="translate(-255.8 -54.56)"></path><path class="cls-7" d="M557.14,215.81a15.62,15.62,0,0,1,18.27-10.72l.79.17c8.42,2.36,11.12,10.82,8.54,19.16l-7.42,28.12L577,253.9l-20.53-.34,1.6-7.22s-7.92-3.06-6.23-11.28C552.6,231.09,554.94,223.06,557.14,215.81Z" transform="translate(-255.8 -54.56)"></path><path class="cls-8" d="M558,246.31a20.36,20.36,0,0,0,11.42-.81s-3.81,5.35-11.83,2.83Z" transform="translate(-255.8 -54.56)"></path><path class="cls-1" d="M557.59,224.15a1.2,1.2,0,0,0,.88,1.42,1.14,1.14,0,0,0,1.43-.79,1.2,1.2,0,0,0-.87-1.43A1.15,1.15,0,0,0,557.59,224.15Z" transform="translate(-255.8 -54.56)"></path><path class="cls-1" d="M558,220.21c.11.18,1.14-.28,2.4,0s2,1.1,2.21,1,0-.36-.34-.74a3.33,3.33,0,0,0-1.74-1,3.16,3.16,0,0,0-1.95.19C558.16,219.88,558,220.12,558,220.21Z" transform="translate(-255.8 -54.56)"></path><path class="cls-1" d="M568.67,226.77a1.2,1.2,0,0,0,.87,1.42,1.14,1.14,0,0,0,1.44-.79,1.18,1.18,0,0,0-.87-1.42A1.15,1.15,0,0,0,568.67,226.77Z" transform="translate(-255.8 -54.56)"></path><path class="cls-1" d="M570.35,223.14c.11.18,1.14-.28,2.4,0s2,1.11,2.22,1,0-.36-.35-.74a3.3,3.3,0,0,0-1.73-1,3.14,3.14,0,0,0-1.95.19C570.49,222.8,570.3,223.05,570.35,223.14Z" transform="translate(-255.8 -54.56)"></path><path class="cls-1" d="M563.75,231.48a8.44,8.44,0,0,0-2-.82c-.31-.1-.6-.23-.61-.46a1.72,1.72,0,0,1,.43-.91l1.48-2.24a42.53,42.53,0,0,0,3.53-5.94,44,44,0,0,0-4,5.64L561.16,229a1.91,1.91,0,0,0-.44,1.22.84.84,0,0,0,.43.59,1.9,1.9,0,0,0,.53.19A8.42,8.42,0,0,0,563.75,231.48Z" transform="translate(-255.8 -54.56)"></path><path class="cls-1" d="M567.27,233.16c-.21-.06-.51,1.31-1.89,2s-2.8.25-2.85.44.26.33.87.48a3.48,3.48,0,0,0,2.37-.28,3.05,3.05,0,0,0,1.49-1.72C567.44,233.54,567.36,233.17,567.27,233.16Z" transform="translate(-255.8 -54.56)"></path><path class="cls-1" d="M571.1,218.13c0,.37,1.34.48,2.78,1s2.55,1.16,2.81.9,0-.5-.43-.93a4.81,4.81,0,0,0-2-1.21,4.94,4.94,0,0,0-2.3-.22C571.41,217.75,571.08,218,571.1,218.13Z" transform="translate(-255.8 -54.56)"></path><path class="cls-1" d="M558.65,216.56c.15.33,1.09.22,2.13.44s1.89.61,2.15.35.05-.44-.28-.79a2.94,2.94,0,0,0-1.63-.85,3.05,3.05,0,0,0-1.82.2C558.76,216.13,558.58,216.4,558.65,216.56Z" transform="translate(-255.8 -54.56)"></path><path class="cls-1" d="M558.74,211.7s3.28-4.66,6-5.32c3.31-.8,3.88,2.77,6.91,2.59s6.19-.94,8.63,1.9c2.66,3.11.8,4.48.2,8.16-2.4,14.91-.62,19.66,1.66,12.89.25-.74,2.49-.89,3.5-4,1.31-4.08,2.58-9.11,2.29-12.27-.24-2.66-1.29-4.69-3.42-7.14-3.37-3.88-8.88-5.14-12.72-5.58S559.8,205.2,558.74,211.7Z" transform="translate(-255.8 -54.56)"></path><path class="cls-7" d="M581.68,232.11a2.29,2.29,0,0,1,2.87-1.62c1.5.48,3,1.72,2.22,4.85-1.4,5.57-6.69,3-6.66,2.85S581.08,234.43,581.68,232.11Z" transform="translate(-255.8 -54.56)"></path><path class="cls-8" d="M581.84,236.4s.08.1.23.21a.94.94,0,0,0,.72.2c.64-.07,1.37-.88,1.65-1.87a3.49,3.49,0,0,0,.08-1.46,1.16,1.16,0,0,0-.55-.93.5.5,0,0,0-.63.13c-.12.13-.11.25-.14.26s-.1-.13,0-.35a.63.63,0,0,1,.31-.29.79.79,0,0,1,.57,0,1.42,1.42,0,0,1,.8,1.12,3.36,3.36,0,0,1-.06,1.63,2.57,2.57,0,0,1-2,2.05,1,1,0,0,1-.85-.37C581.82,236.54,581.82,236.41,581.84,236.4Z" transform="translate(-255.8 -54.56)"></path><path class="cls-1" d="M583.94,221.24a5.61,5.61,0,0,1-2.61.58,1.88,1.88,0,0,1-1.75-1.73c0-.41.21-.84,0-1.19s-.82-.44-1.3-.49a3.66,3.66,0,0,1-3.15-3.37,1.53,1.53,0,0,1-2-.25,8.47,8.47,0,0,1-1.17-2,2.37,2.37,0,0,0-1.72-1.38,6,6,0,0,1-1.27,0c-.73-.23-.9-1.17-.85-1.92s.15-1.63-.39-2.16a3,3,0,0,0-2-.49c-.7,0-1.54-.4-1.57-1.1a1.4,1.4,0,0,1,.47-1,3.73,3.73,0,0,1,4.59-.44,5,5,0,0,1,9.24,1A5.11,5.11,0,0,1,586,209,3.7,3.7,0,0,1,589,215.1a3.48,3.48,0,0,1,1.29,3.14,2,2,0,0,1-2.66,1.53,2,2,0,0,1-3.9,1.24" transform="translate(-255.8 -54.56)"></path><path class="cls-9" d="M588,219.85s0,.49-.58,1a1.83,1.83,0,0,1-1.27.42,2,2,0,0,1-1.49-.81l.24,0a5.67,5.67,0,0,1-1.42,1.15,3.36,3.36,0,0,1-1.16.41,2.2,2.2,0,0,1-1.15-.14,2.28,2.28,0,0,1-1.42-1.28,3.31,3.31,0,0,1-.2-1.26,1.15,1.15,0,0,1,.06-.46s0,.16.07.45a3.91,3.91,0,0,0,.29,1.18,2.33,2.33,0,0,0,3.35.81,5.83,5.83,0,0,0,1.35-1.08l.13-.14.11.16a1.73,1.73,0,0,0,1.26.72,1.63,1.63,0,0,0,1.13-.31A2.7,2.7,0,0,0,588,219.85Z" transform="translate(-255.8 -54.56)"></path><path class="cls-9" d="M580.19,204.75s-.15,0-.42.06a1.87,1.87,0,0,0-1,.55l-.09.09-.06-.12a7.07,7.07,0,0,0-2.23-2.78,5.72,5.72,0,0,0-2.1-1,4.7,4.7,0,0,0-4.22,1.2,3.77,3.77,0,0,0-1,1.55l0,.17-.16-.08a3.17,3.17,0,0,0-2.39-.22,3.13,3.13,0,0,0-1.57,1.08,4.11,4.11,0,0,0-.71,1.59s0-.17,0-.48a3.15,3.15,0,0,1,.53-1.22,3.29,3.29,0,0,1,1.64-1.22,3.44,3.44,0,0,1,2.61.2l-.22.09a4.17,4.17,0,0,1,1-1.7,5,5,0,0,1,1.82-1.11,4.91,4.91,0,0,1,2.7-.16,5.7,5.7,0,0,1,2.2,1,6.8,6.8,0,0,1,2.22,2.94l-.14,0a2,2,0,0,1,1.14-.52A.87.87,0,0,1,580.19,204.75Z" transform="translate(-255.8 -54.56)"></path><path class="cls-8" d="M569,234.39c-.09,0,0-.62-.36-1.21s-.93-.8-.9-.89.18,0,.42.05a1.61,1.61,0,0,1,.76.67,1.65,1.65,0,0,1,.24,1C569.14,234.26,569.05,234.4,569,234.39Z" transform="translate(-255.8 -54.56)"></path><path class="cls-8" d="M569.85,233c-.09,0-.25-.21-.52-.4s-.54-.3-.53-.39.38-.15.73.12S569.93,232.93,569.85,233Z" transform="translate(-255.8 -54.56)"></path><path class="cls-7" d="M485.86,270.69a9.77,9.77,0,0,0-1.62-3.91c-1.38-2-5-4.28-5.13-5.9s-1.92-.86-2.06,1.09c-.09,1.25,1.54,5,1.54,5s-3,0-4.67-1.63-7.79-5.33-8.75-4.58.57,1.66,1.21,2.28,4.35,3.84,4.35,3.84-8.76-2.62-10-2.49-.37,1.54.18,1.7c.35.11-1.05.75-.24,2,.55.87,4,2.61,5,2.89l2,.57-6.41-1s-1.34.7,0,1.61c.61.4,18.81,8.08,20.26,8.55,2.5.81,6.09,1.84,6.09,1.84l2.81-10.51Z" transform="translate(-255.8 -54.56)"></path><path class="cls-8" d="M460.93,266.08a28.58,28.58,0,0,0,5,2.63,26,26,0,0,0,5.33,2,7.33,7.33,0,0,0-1.5-.72l-3.66-1.63-3.66-1.64A7.49,7.49,0,0,0,460.93,266.08Z" transform="translate(-255.8 -54.56)"></path><path class="cls-10" d="M547.15,455.39l1.54,27-35.48,2.13c0-3.22,18-10.75,18-10.75l-1.74-17.23Z" transform="translate(-255.8 -54.56)"></path><g class="cls-11"><path class="cls-2" d="M542.05,471.62a1.37,1.37,0,0,1,1.1,1.5,1.4,1.4,0,0,1-1.57,1.05,1.45,1.45,0,0,1-1.16-1.6,1.47,1.47,0,0,1,1.76-.92" transform="translate(-255.8 -54.56)"></path></g><g class="cls-11"><path class="cls-2" d="M548.69,482.35l-.27-2.71-33.91,3.05s-1.54.74-1.3,1.79Z" transform="translate(-255.8 -54.56)"></path></g><path class="cls-1" d="M530.58,473.59c0,.17.89.19,1.78.66s1.38,1.14,1.53,1.07-.16-1-1.24-1.57S530.54,473.44,530.58,473.59Z" transform="translate(-255.8 -54.56)"></path><path class="cls-1" d="M527,475.27c0,.16.74.39,1.37,1.05s.85,1.38,1,1.36.23-.95-.57-1.75S527,475.11,527,475.27Z" transform="translate(-255.8 -54.56)"></path><path class="cls-1" d="M525.1,479.61c.16,0,.35-.81-.15-1.68s-1.33-1.18-1.4-1,.47.59.87,1.31S524.93,479.6,525.1,479.61Z" transform="translate(-255.8 -54.56)"></path><path class="cls-1" d="M530.65,469.62c.08.15.86-.13,1.84-.12s1.77.25,1.85.1-.69-.68-1.85-.67S530.55,469.5,530.65,469.62Z" transform="translate(-255.8 -54.56)"></path><path class="cls-1" d="M531.24,465.59a3.51,3.51,0,0,0,1.78-.11,8.22,8.22,0,0,0,1.82-.65,6.71,6.71,0,0,0,1-.58,2.1,2.1,0,0,0,.51-.42.68.68,0,0,0,0-.88,1,1,0,0,0-.78-.33,2.34,2.34,0,0,0-.66.13,6.68,6.68,0,0,0-1.09.42,6.54,6.54,0,0,0-1.57,1.12c-.78.77-1,1.4-1,1.42s.45-.48,1.25-1.13a7.2,7.2,0,0,1,1.53-.94,7.35,7.35,0,0,1,1-.35c.37-.12.69-.14.8,0s0,.08,0,.19a1.77,1.77,0,0,1-.37.31c-.31.21-.61.4-.91.57a10.32,10.32,0,0,1-1.68.72A13,13,0,0,0,531.24,465.59Z" transform="translate(-255.8 -54.56)"></path><path class="cls-1" d="M531.48,465.81c.07,0,.37-.58.37-1.65a5,5,0,0,0-.36-1.82,5.47,5.47,0,0,0-.51-1,1.46,1.46,0,0,0-1.19-.78.82.82,0,0,0-.71.51,2,2,0,0,0-.15.63,3.52,3.52,0,0,0,.07,1.13,3.86,3.86,0,0,0,.87,1.69c.75.83,1.48,1,1.49.92s-.57-.36-1.15-1.17a3.69,3.69,0,0,1-.66-1.54,3.14,3.14,0,0,1,0-1c0-.36.16-.66.3-.63s.49.24.66.51a5.54,5.54,0,0,1,.49.88,5.67,5.67,0,0,1,.45,1.66C531.53,465.17,531.39,465.8,531.48,465.81Z" transform="translate(-255.8 -54.56)"></path><path class="cls-10" d="M580,443.08l15.21,18.57-24.39,20.08c-1.67-2.31,7.29-17.11,7.29-17.11l-10.26-11.48Z" transform="translate(-255.8 -54.56)"></path><g class="cls-11"><path class="cls-2" d="M584.82,457.41a1.22,1.22,0,0,1,1.58.51,1.23,1.23,0,0,1-.58,1.57,1.27,1.27,0,0,1-1.66-.54,1.3,1.3,0,0,1,.78-1.58" transform="translate(-255.8 -54.56)"></path></g><g class="cls-11"><path class="cls-2" d="M595.21,461.65l-1.61-1.81-22.78,19.93s-.72,1.34,0,2Z" transform="translate(-255.8 -54.56)"></path></g><path class="cls-1" d="M577.62,464.83c.09.11.73-.33,1.62-.45s1.58.09,1.66-.05-.64-.63-1.71-.47S577.51,464.75,577.62,464.83Z" transform="translate(-255.8 -54.56)"></path><path class="cls-1" d="M575.89,467.93c.06.13.73-.1,1.53,0s1.33.55,1.44.45-.33-.8-1.33-1S575.8,467.82,575.89,467.93Z" transform="translate(-255.8 -54.56)"></path><path class="cls-1" d="M576.82,472c.13-.06-.17-.76-1-1.12s-1.58-.15-1.55,0,.64.18,1.31.49S576.7,472.1,576.82,472Z" transform="translate(-255.8 -54.56)"></path><path class="cls-1" d="M575.59,461.94c.13.06.55-.54,1.26-1.05s1.4-.75,1.38-.9-.85-.13-1.68.49S575.46,461.9,575.59,461.94Z" transform="translate(-255.8 -54.56)"></path><path class="cls-1" d="M573.91,458.73s.56-.27,1.21-1a7.62,7.62,0,0,0,1-1.42,7.91,7.91,0,0,0,.41-.93,2.07,2.07,0,0,0,.14-.57.61.61,0,0,0-.44-.65.84.84,0,0,0-.73.18,1.81,1.81,0,0,0-.41.43,6.07,6.07,0,0,0-.56.87,5.69,5.69,0,0,0-.55,1.63,2.53,2.53,0,0,0,.06,1.53c.08,0,.07-.59.31-1.47a6.19,6.19,0,0,1,1.14-2.26c.2-.28.42-.46.58-.4s.07,0,.08.15a1.75,1.75,0,0,1-.11.42c-.11.31-.23.6-.36.88a9.26,9.26,0,0,1-.82,1.4A10.69,10.69,0,0,0,573.91,458.73Z" transform="translate(-255.8 -54.56)"></path><path class="cls-1" d="M574.2,458.77a2.33,2.33,0,0,0-.6-1.38,4.76,4.76,0,0,0-1.21-1.13,5.67,5.67,0,0,0-.89-.44,1.32,1.32,0,0,0-1.27.06.75.75,0,0,0-.24.74,2,2,0,0,0,.22.53,3.55,3.55,0,0,0,.65.78,3.5,3.5,0,0,0,1.5.76,2.12,2.12,0,0,0,1.56-.12,14,14,0,0,1-1.44-.24,3.26,3.26,0,0,1-1.28-.76,3,3,0,0,1-.53-.69c-.17-.27-.23-.55-.11-.61a.91.91,0,0,1,.74,0,4.39,4.39,0,0,1,.82.38,5.15,5.15,0,0,1,1.18.95C573.9,458.28,574.12,458.8,574.2,458.77Z" transform="translate(-255.8 -54.56)"></path><path class="cls-1" d="M571.89,336.62l-3.8,14.2a22.85,22.85,0,0,1-5.43,9.75c-2.68,2.85-5.84,6.23-6.35,6.9l-11.56,43,5.11,56.59-22.53,2.35s-11-57.57-9.88-66.58,8-69.11,8-69.11l2.25-4.24Z" transform="translate(-255.8 -54.56)"></path><polygon class="cls-1" points="298.44 314.5 302.25 356.2 333.77 395.93 315.41 409.46 273.18 363.63 270.78 308.92 298.44 314.5"></polygon><path class="cls-12" d="M556.31,367.47s0,.06-.08.2l-.19.59c-.17.55-.4,1.32-.7,2.31-.59,2-1.45,4.95-2.51,8.58-2.12,7.32-5.05,17.5-8.38,29v.07c.21,2.44.44,5,.67,7.59,1.24,13.75,2.36,26.2,3.18,35.24.42,4.48.77,8.12,1,10.67.12,1.24.22,2.21.29,2.9q.06.46.09.75c0,.17,0,.26,0,.26a.86.86,0,0,0,0-.26c0-.19,0-.44,0-.76-.06-.69-.13-1.66-.22-2.9l-.88-10.69c-.79-9-1.87-21.49-3.06-35.25-.24-2.6-.46-5.15-.68-7.58v.07c3.28-11.55,6.17-21.74,8.25-29.08l2.39-8.61.63-2.33c.07-.25.12-.45.16-.6S556.31,367.47,556.31,367.47Z" transform="translate(-255.8 -54.56)"></path><path class="cls-4" d="M576.71,252.74s7.22,11.66,6.14,21.38c-.54,4.91-9.21,55.49-9.21,55.49l-1.41,16.31L524,335.69l6-24.58,10.28-42.21,16.23-16Z" transform="translate(-255.8 -54.56)"></path><g class="cls-5"><path d="M569.39,281.69S548.14,301.16,539.93,302L533,303l.6-3.91Z" transform="translate(-255.8 -54.56)"></path></g><path class="cls-4" d="M574.13,278.18S545.06,301,530,299.06s-46.2-11.66-46.2-11.66l4.85-16.73,40.92,9.27S556,263.38,561.77,260.8C570.29,257,583.75,267.19,574.13,278.18Z" transform="translate(-255.8 -54.56)"></path><path class="cls-1" d="M574.13,278.18l.22-.24c.14-.17.34-.42.61-.73a14.2,14.2,0,0,0,1.85-3.19,9.36,9.36,0,0,0,.43-5.85,10.81,10.81,0,0,0-4.76-6.24,12.78,12.78,0,0,0-4.36-1.8,10.47,10.47,0,0,0-2.52-.26,9.46,9.46,0,0,0-2.62.36,10,10,0,0,0-1.3.45l-1.24.61c-.82.43-1.66.86-2.5,1.34-1.68.93-3.4,1.92-5.17,2.95-7.07,4.15-14.91,8.95-23.34,14.2l.14,0-40.92-9.3-.19,0,0,.19c-.23.81-.49,1.69-.74,2.57-1.41,4.85-2.79,9.63-4.11,14.16l-.05.19.19.06c6.58,2,13,3.88,19.21,5.56s12.19,3.22,17.92,4.43c2.87.61,5.67,1.16,8.41,1.54a20.44,20.44,0,0,0,8-.47,61.09,61.09,0,0,0,13.36-5.2,151.31,151.31,0,0,0,17.53-10.79c2-1.4,3.47-2.52,4.47-3.28l1.14-.89.37-.31-.4.28-1.15.85c-1,.75-2.54,1.85-4.52,3.23A155.09,155.09,0,0,1,550.5,293.2a61.11,61.11,0,0,1-13.31,5.14,20.24,20.24,0,0,1-7.9.44c-2.73-.38-5.52-.94-8.38-1.55-5.72-1.23-11.7-2.77-17.9-4.45s-12.61-3.56-19.19-5.58l.14.25c1.31-4.53,2.7-9.31,4.1-14.16.26-.88.51-1.76.75-2.57l-.25.15,40.93,9.26h.07l.07,0c8.42-5.26,16.25-10.08,23.3-14.24,1.76-1,3.48-2,5.15-3,.84-.48,1.67-.91,2.49-1.35l1.23-.6a9.78,9.78,0,0,1,1.25-.44,9,9,0,0,1,2.55-.37,11.13,11.13,0,0,1,2.47.24,12.66,12.66,0,0,1,4.28,1.75,10.67,10.67,0,0,1,4.72,6.1,9.29,9.29,0,0,1-.37,5.76,14.72,14.72,0,0,1-1.79,3.19l-.59.75Z" transform="translate(-255.8 -54.56)"></path><path class="cls-1" d="M551.25,266.66l-.4.2c-.26.13-.65.33-1.15.61-1,.55-2.48,1.4-4.37,2.52-3.77,2.24-9.19,5.58-15.88,9.83l.11,0-40.91-9.33-.18,0-.05.18-4.86,16.73-.05.19.19.06,6,1.82c6,1.79,12,3.44,17.69,4.95s11.31,2.87,16.67,3.9c1.35.24,2.66.51,4,.69l2,.29a16.25,16.25,0,0,0,2,.1,27.26,27.26,0,0,0,7.43-1.24,70.27,70.27,0,0,0,12.42-5.28,152.21,152.21,0,0,0,16.57-10.34c1.88-1.33,3.31-2.41,4.27-3.15l1.09-.85.36-.3s-.13.08-.38.27l-1.12.82c-1,.71-2.42,1.77-4.31,3.08a159.85,159.85,0,0,1-16.62,10.21,69.4,69.4,0,0,1-12.38,5.21A27.16,27.16,0,0,1,532,299a15.6,15.6,0,0,1-1.93-.1l-1.95-.29c-1.31-.18-2.63-.47-4-.7-5.34-1-10.9-2.42-16.63-3.92s-11.65-3.17-17.68-5l-6-1.81.14.25c1.66-5.75,3.28-11.34,4.84-16.73l-.24.14,40.94,9.22h0l.05,0c6.67-4.28,12.07-7.66,15.81-9.94,1.87-1.14,3.33-2,4.33-2.58l1.13-.65C551.12,266.75,551.25,266.66,551.25,266.66Z" transform="translate(-255.8 -54.56)"></path></g><g id="Character_3" data-name="Character 3"><path class="cls-1" d="M383.76,66.16a4,4,0,0,1,3.15-4.72,5.09,5.09,0,0,1,5.66-4.18c1.23.21,2.33.88,3.55,1.14a32.77,32.77,0,0,0,3.58.23,3.61,3.61,0,0,1,3,1.71,3.15,3.15,0,0,1-1,3.57,9.1,9.1,0,0,1-3.6,1.64,1.38,1.38,0,0,1,1,1.54,2.73,2.73,0,0,1-1,1.67,6.06,6.06,0,0,1-6.24,1l-3-1A4,4,0,0,1,383.76,66.16Z" transform="translate(-255.8 -54.56)"></path><path class="cls-6" d="M392.37,71.94a1.33,1.33,0,0,0,1.65-.62,1.77,1.77,0,0,0-.2-1.82,2.77,2.77,0,0,0-1.61-1,6.52,6.52,0,0,0-1.92-.12,12.17,12.17,0,0,0-3,.45,2.32,2.32,0,0,0-.94.47,1,1,0,0,0-.34.94c.12.49.66.71,1.14.86a31.39,31.39,0,0,0,5.43,1.14" transform="translate(-255.8 -54.56)"></path><path class="cls-1" d="M393.66,71.21c1.35-3.26,7-4.87,8.89-3.73a4.46,4.46,0,0,1,6.16-.15L415,66.5a6.48,6.48,0,0,1,3.22.12,2.23,2.23,0,0,1,1.48,2.56,3.39,3.39,0,0,1,3.18,4.62,2.35,2.35,0,0,1,.83,3.33,23.59,23.59,0,0,1,6.13,5.17,4.79,4.79,0,0,1,1.41,3c0,1.13-1.07,2.28-2.15,2A2.77,2.77,0,0,1,430.27,90c1-.34,1.85,1.09,1.43,2.06a3.84,3.84,0,0,1-2.5,1.77,5.13,5.13,0,0,0-2.71,1.53,1,1,0,0,0,.55.52,4.34,4.34,0,0,1,2.92,5.23l-.17.57a9.45,9.45,0,0,1-2.15,3.06c-1.82,2-3.24,2.24-5.61,3.5,1.26,1.37-1.51,6.42-7.44,4.58a95.25,95.25,0,0,1-24.35,12.69c-1.37.49-3.08.9-4.14-.11a3.6,3.6,0,0,1-3.5.1,10.92,10.92,0,0,1-2.89-2.23,6.36,6.36,0,0,1-6.24-3.84,7.86,7.86,0,0,1-4.68-4.25,4.6,4.6,0,0,1-4.59-5,27.64,27.64,0,0,1-.07-9.12c-1.69.22-3.05-1.68-2.93-3.39s1.2-3.17,2.25-4.52c-1.06.73-2.62-.38-2.77-1.66a5,5,0,0,1,1.45-3.49,23.07,23.07,0,0,1,4.09-3.93c-.19-2.27,1.61-5.58,3.22-7.2,6.48-6.52,11.63-9.43,24.22-5.72" transform="translate(-255.8 -54.56)"></path><path class="cls-7" d="M405.51,81a3.36,3.36,0,0,0-3.87-2.4l-18.44.84c-5.66,1.08-7.26,8.93-5.95,14.54,1.47,6.23,3.5,13.78,5.6,18.13a12.38,12.38,0,0,0,12.78,7.3s2.06,6.64,2.06,6.64l2.34,7.75c2.47-1.23,18-10.41,18-10.41Z" transform="translate(-255.8 -54.56)"></path><path class="cls-1" d="M390.81,104.62a8.55,8.55,0,0,0-2.17.25c-.33.06-.66.09-.78-.11a1.82,1.82,0,0,1-.07-1c.07-.87.14-1.79.21-2.75a43.56,43.56,0,0,0,.2-7.09,45.7,45.7,0,0,0-.77,7.06c-.06,1-.11,1.88-.17,2.75a2,2,0,0,0,.22,1.32.82.82,0,0,0,.67.31,2.36,2.36,0,0,0,.58-.09A8.45,8.45,0,0,0,390.81,104.62Z" transform="translate(-255.8 -54.56)"></path><path class="cls-8" d="M395.63,119.39s5.13-1,10.13-6.52c0,0,.59,7.28-9.15,9.69Z" transform="translate(-255.8 -54.56)"></path><path class="cls-1" d="M391.24,88.85c.23.31,1.45-.23,3-.5s2.87-.23,3-.6c0-.17-.26-.43-.85-.62a5.28,5.28,0,0,0-4.53.84C391.33,88.35,391.14,88.71,391.24,88.85Z" transform="translate(-255.8 -54.56)"></path><path class="cls-1" d="M379.18,92.87c.31.22,1.09-.34,2.14-.67s2-.39,2.11-.76c0-.17-.18-.41-.65-.57A3.26,3.26,0,0,0,379.36,92C379.07,92.43,379,92.76,379.18,92.87Z" transform="translate(-255.8 -54.56)"></path><path class="cls-1" d="M374.72,99.73a6.63,6.63,0,0,1,.13-4.42c.33-.75.85-1.42,1.11-2.2.54-1.7-.25-3.5-.39-5.27a7.23,7.23,0,0,1,2.61-6.08c1.49-1.2,3.43-1.8,4.73-3.2.95-1,1.47-2.43,2.48-3.41,2-1.91,5.14-1.66,7.83-1.12,1.07,1.62.49,3.54-.08,5.39a6.69,6.69,0,0,1-3.75,4.17c-1.38.58-3.14.84-3.78,2.19s.39,3.15,0,4.67c-.62,2.17-3.64,2.49-5.1,4.2-1.12,1.33-1.12,3.24-1.32,5s-.88,3.71-2.55,4.21A19.64,19.64,0,0,1,374.72,99.73Z" transform="translate(-255.8 -54.56)"></path><path class="cls-1" d="M390.83,78.49a34,34,0,0,1,12.87-2.07,6.26,6.26,0,0,1,3.71,1,6.12,6.12,0,0,1,1.73,2.91c1.15,3.4,1.24,8,1.05,11.6l-3.34,4c-3.52.37-4-5.77-4.83-8.64a7,7,0,0,1-5.95-4.51A7.82,7.82,0,0,1,390.83,78.49Z" transform="translate(-255.8 -54.56)"></path><path class="cls-7" d="M406.49,94.72c-.56-2,1.69-3.19,3.7-2.78,1.11.23,2.18,1.07,2.78,3.17,1.61,5.59-4.33,6-4.39,5.9S407.13,97,406.49,94.72Z" transform="translate(-255.8 -54.56)"></path><path class="cls-8" d="M409.68,98.39s.11,0,.3.07a1,1,0,0,0,.73-.19,2.52,2.52,0,0,0,.5-2.49,3.4,3.4,0,0,0-.68-1.31,1.18,1.18,0,0,0-.95-.54.54.54,0,0,0-.5.44c0,.17,0,.27,0,.29s-.15-.06-.17-.3a.62.62,0,0,1,.12-.41.75.75,0,0,1,.49-.3,1.41,1.41,0,0,1,1.27.57,3.5,3.5,0,0,1,.79,1.46,2.64,2.64,0,0,1-.73,2.83,1.11,1.11,0,0,1-.93.11C409.73,98.53,409.66,98.41,409.68,98.39Z" transform="translate(-255.8 -54.56)"></path><path class="cls-13" d="M411.1,100.48s0,0,0,.07a.63.63,0,0,0,.14.18,1.32,1.32,0,0,0,.84.35,3.6,3.6,0,0,0,1.45-.19,4.85,4.85,0,0,0,.86-.37,3.17,3.17,0,0,0,.86-.63h-.08a3,3,0,0,0,2.15,1.48,2.91,2.91,0,0,0,2.8-1.27l-.1,0a1.22,1.22,0,0,0,.89.22,1.6,1.6,0,0,0,.86-.38,1.5,1.5,0,0,0,.51-.83,1.89,1.89,0,0,0,0-1,3,3,0,0,0-1.23-1.62,9,9,0,0,0-1.94-.9l0,.13a2,2,0,0,0,.41-1.61,3,3,0,0,0-.72-1.56,4.63,4.63,0,0,0-1.44-1,14.17,14.17,0,0,0-1.68-.64l.05.12a2.21,2.21,0,0,0,0-1.78,3.14,3.14,0,0,0-1.19-1.41,7.83,7.83,0,0,0-3.33-.93l.08.08a3.85,3.85,0,0,0-5.53-3.1l.12.06a3.48,3.48,0,0,0-4.4-2.73l.1,0a3.28,3.28,0,0,0-2.09-2,3.15,3.15,0,0,0-2.51.17l.08,0a3.16,3.16,0,0,0-.94-1.25,4,4,0,0,0-1.18-.71,3.3,3.3,0,0,0-2.16-.15l-.21.06-.19.08a3.42,3.42,0,0,0-.33.16,3.68,3.68,0,0,0-.47.33l-.26.24-.09.08.1-.07.27-.22a3.75,3.75,0,0,1,.47-.32,2.52,2.52,0,0,1,.33-.15l.19-.08.21,0a3.27,3.27,0,0,1,2.1.17,3.86,3.86,0,0,1,1.16.71,3.06,3.06,0,0,1,.89,1.21l0,.06.05,0a3.05,3.05,0,0,1,2.42-.15,3.11,3.11,0,0,1,2,1.88l0,.07.07,0a3.14,3.14,0,0,1,2.59.32A3.19,3.19,0,0,1,405.72,84l0,.12.1,0a3.69,3.69,0,0,1,5.28,3v.07h.07a7.68,7.68,0,0,1,3.25.9,3,3,0,0,1,1.13,1.33,2,2,0,0,1,0,1.64l0,.09.09,0a6.71,6.71,0,0,1,3.05,1.62,2.83,2.83,0,0,1,.69,1.47,1.89,1.89,0,0,1-.37,1.47l-.08.09.11,0a9,9,0,0,1,1.91.88,2.83,2.83,0,0,1,1.18,1.53,1.57,1.57,0,0,1-.42,1.68,1.28,1.28,0,0,1-1.57.16l-.06,0,0,.07a2.83,2.83,0,0,1-2.67,1.23,2.86,2.86,0,0,1-2.08-1.41l0-.06,0,0a3.46,3.46,0,0,1-.83.62,5.53,5.53,0,0,1-.84.37,3.52,3.52,0,0,1-1.42.21,1.41,1.41,0,0,1-.83-.31A2.51,2.51,0,0,1,411.1,100.48Z" transform="translate(-255.8 -54.56)"></path><path class="cls-13" d="M429.91,87.27a2.09,2.09,0,0,0,.09-.4,3.09,3.09,0,0,0-.09-1.19,3,3,0,0,0-1.06-1.56,3.06,3.06,0,0,0-2.43-.56l.07,0a4,4,0,0,0-1.44-2.53,3.88,3.88,0,0,0-1.48-.77,9.16,9.16,0,0,0-1.74-.17A3.21,3.21,0,0,1,421,80a1.84,1.84,0,0,1-.74-.5c-.43-.44-.72-1-1.23-1.49a3.54,3.54,0,0,0-3.92-.48l.13.06a4.66,4.66,0,0,0-6.62-3.26l.13.06a4.09,4.09,0,0,0-7.27-1.5l.09,0a5.74,5.74,0,0,0-2.32-.5,9,9,0,0,0-2.13.24,9.63,9.63,0,0,0-3.17,1.37,6.78,6.78,0,0,0-1.65,1.48,3.84,3.84,0,0,0-.33.48l-.1.17s.15-.23.47-.62A7.07,7.07,0,0,1,394,74a9.82,9.82,0,0,1,3.15-1.32,8.31,8.31,0,0,1,2.1-.22,5.55,5.55,0,0,1,2.26.49l.06,0,0,0a3.93,3.93,0,0,1,7,1.45l0,.1.1,0A4.49,4.49,0,0,1,415,77.59l0,.11.1,0a3.36,3.36,0,0,1,3.73.45c.48.42.77,1,1.23,1.48a2.12,2.12,0,0,0,.79.53,3.26,3.26,0,0,0,.91.18,9.48,9.48,0,0,1,1.73.17,3.74,3.74,0,0,1,1.42.72,3.86,3.86,0,0,1,1.42,2.44v.06h.06a3,3,0,0,1,2.35.53,2.92,2.92,0,0,1,1.05,1.5,3.32,3.32,0,0,1,.12,1.17C429.94,87.14,429.9,87.27,429.91,87.27Z" transform="translate(-255.8 -54.56)"></path><path class="cls-13" d="M378,107.21a.58.58,0,0,0-.14-.45,1.06,1.06,0,0,0-.48-.34,2,2,0,0,0-.8-.11,3.31,3.31,0,0,1-1,0,1.79,1.79,0,0,1-.92-.67,3.44,3.44,0,0,1-.58-1.2c-.14-.46-.24-1-.42-1.48a15.9,15.9,0,0,0-1.84-3,4.89,4.89,0,0,1-.71-1.78,2.35,2.35,0,0,1,.45-1.89,8.46,8.46,0,0,1,1.7-1.32,3.7,3.7,0,0,0,.82-.81,2.3,2.3,0,0,0,.38-1.11,11,11,0,0,0-.18-2.36,3.82,3.82,0,0,1,0-1.17,1.75,1.75,0,0,1,.55-1,6,6,0,0,1,1.45-.74,2.69,2.69,0,0,0,.7-.47,1.55,1.55,0,0,0,.42-.72,5.43,5.43,0,0,0,.08-1.6,3.51,3.51,0,0,1,.26-1.48,3.45,3.45,0,0,1,2-2,3.59,3.59,0,0,1,2.62,0l.1,0v-.1a5.53,5.53,0,0,1,2.26-4,5.21,5.21,0,0,1,1.78-.8,4.74,4.74,0,0,1,1.65-.11,4,4,0,0,1,2.12.91,2.73,2.73,0,0,1,.45.42l.11.11.05,0,0,0-.1-.12a3.56,3.56,0,0,0-.44-.44,4.11,4.11,0,0,0-2.14-1,4.5,4.5,0,0,0-1.69.1,5.1,5.1,0,0,0-1.82.8,5.63,5.63,0,0,0-2.34,4l.1-.06a3.7,3.7,0,0,0-2.74,0A3.74,3.74,0,0,0,377.38,85a5.71,5.71,0,0,1-.08,1.55,1.67,1.67,0,0,1-1,1.08,6.7,6.7,0,0,0-1.48.76,2,2,0,0,0-.62,1.1,3.84,3.84,0,0,0,0,1.22,11.62,11.62,0,0,1,.18,2.32,2.19,2.19,0,0,1-.35,1,3.52,3.52,0,0,1-.78.76,8.81,8.81,0,0,0-1.72,1.36,2.31,2.31,0,0,0-.47,1,3.09,3.09,0,0,0,0,1,4.94,4.94,0,0,0,.74,1.83,15.15,15.15,0,0,1,1.84,3c.18.5.28,1,.43,1.46a3.69,3.69,0,0,0,.61,1.24,2,2,0,0,0,1,.68,3.51,3.51,0,0,0,1,0,2.05,2.05,0,0,1,.77.08,1.14,1.14,0,0,1,.47.32A.77.77,0,0,1,378,107.21Z" transform="translate(-255.8 -54.56)"></path><path class="cls-13" d="M364.4,102.47s0,0,0-.12l.05-.36c0-.33.08-.79.14-1.39s.12-1.34.27-2.18A5.23,5.23,0,0,1,366,95.8c.36-.39.82-.73,1.25-1.14a3.69,3.69,0,0,0,.6-.7,2,2,0,0,0,.3-.92c.06-.66-.15-1.3-.15-2a1.65,1.65,0,0,1,.26-.94,3.17,3.17,0,0,1,.74-.72,5.48,5.48,0,0,0,.83-.71,1.8,1.8,0,0,0,.48-1,8.87,8.87,0,0,0-.28-2.29,2.69,2.69,0,0,1,0-1.13,1.44,1.44,0,0,1,.67-.88c.67-.4,1.53-.42,2.29-.83a2.07,2.07,0,0,0,.85-.93,5.8,5.8,0,0,0,.36-1.19c.08-.39.15-.78.26-1.15a2.35,2.35,0,0,1,.57-1,3.37,3.37,0,0,1,2.07-.71,5.11,5.11,0,0,0,2.15-.55,6.23,6.23,0,0,0,1.52-1.46,9.21,9.21,0,0,1,1.29-1.46,6,6,0,0,1,3.22-1.25,6.37,6.37,0,0,1,2.84.39,7.3,7.3,0,0,1,1.89,1.1,8.86,8.86,0,0,1,1,1l.24.27q.08.11.09.09l-.08-.1-.22-.28a7.65,7.65,0,0,0-1-1,6.89,6.89,0,0,0-1.89-1.14,6.58,6.58,0,0,0-2.89-.43A6.19,6.19,0,0,0,382,74a9.83,9.83,0,0,0-1.32,1.48,5.93,5.93,0,0,1-1.49,1.42,4.88,4.88,0,0,1-2.08.52,9.19,9.19,0,0,0-1.13.19,2.42,2.42,0,0,0-1,.57,2.39,2.39,0,0,0-.61,1,10.09,10.09,0,0,0-.28,1.18,5.53,5.53,0,0,1-.33,1.14,1.86,1.86,0,0,1-.79.85c-.7.39-1.57.41-2.29.84a1.64,1.64,0,0,0-.75,1,3.08,3.08,0,0,0,0,1.21,8.43,8.43,0,0,1,.28,2.24,1.66,1.66,0,0,1-.43.95,6.08,6.08,0,0,1-.81.7,3.05,3.05,0,0,0-.77.75,1.83,1.83,0,0,0-.29,1c0,.69.22,1.33.17,2a2.38,2.38,0,0,1-.85,1.53c-.42.4-.88.75-1.25,1.16a5.28,5.28,0,0,0-1.15,2.68c-.14.85-.18,1.59-.23,2.2s-.09,1.06-.12,1.39c0,.15,0,.27,0,.36A1.09,1.09,0,0,0,364.4,102.47Z" transform="translate(-255.8 -54.56)"></path><path class="cls-13" d="M368.22,94.68l-.11,0a.88.88,0,0,0-.27.17,1.26,1.26,0,0,0-.2,1.16,3,3,0,0,0,.4.78,3.22,3.22,0,0,1,.48.9,2.26,2.26,0,0,1,0,1.15c-.1.4-.25.82-.33,1.29a1.65,1.65,0,0,0,.35,1.43c.33.4.81.68,1.14,1.09a2.2,2.2,0,0,1,.39,1.56c0,.58-.18,1.17-.19,1.8a2.58,2.58,0,0,0,.14,1,2.39,2.39,0,0,0,.53.84,11,11,0,0,0,1.59,1.19,2.74,2.74,0,0,1,1.19,1.53,9.14,9.14,0,0,1,0,2.09,2.86,2.86,0,0,0,.15,1.08,2.34,2.34,0,0,0,.6.89,8.56,8.56,0,0,0,1.73,1.13,4.74,4.74,0,0,1,1.5,1.22,14.34,14.34,0,0,0,1.17,1.5,2.16,2.16,0,0,0,.8.5,2.58,2.58,0,0,0,.91.1,8,8,0,0,1,.85,0,3,3,0,0,1,.79.2,6.18,6.18,0,0,1,1.31.86c.39.32.77.64,1.16.91a4,4,0,0,0,2.4.73,4.33,4.33,0,0,0,1.85-.46,3.88,3.88,0,0,0,1-.7,2.73,2.73,0,0,0,.27-.32,4.34,4.34,0,0,1-1.28,1,4.25,4.25,0,0,1-1.82.42,3.86,3.86,0,0,1-2.33-.74c-.38-.26-.75-.58-1.15-.91a6,6,0,0,0-1.33-.88,3.29,3.29,0,0,0-.83-.23,6.46,6.46,0,0,0-.88,0,2.71,2.71,0,0,1-.85-.1,2.13,2.13,0,0,1-.74-.46,15.53,15.53,0,0,1-1.15-1.5,5,5,0,0,0-1.55-1.26,8.22,8.22,0,0,1-1.69-1.11,2.26,2.26,0,0,1-.56-.83,3,3,0,0,1-.14-1,8.92,8.92,0,0,0,0-2.13,2.24,2.24,0,0,0-.49-.94,4.18,4.18,0,0,0-.77-.69,11.24,11.24,0,0,1-1.57-1.17,2.37,2.37,0,0,1-.5-.77,2.73,2.73,0,0,1-.13-.9c0-.6.14-1.2.18-1.79a2.31,2.31,0,0,0-.42-1.66c-.36-.44-.84-.71-1.16-1.09a1.53,1.53,0,0,1-.33-1.32c.07-.45.23-.87.32-1.29a2.33,2.33,0,0,0,0-1.2,3.36,3.36,0,0,0-.5-.92,3.29,3.29,0,0,1-.41-.75,1.23,1.23,0,0,1,.17-1.12A.84.84,0,0,1,368.22,94.68Z" transform="translate(-255.8 -54.56)"></path><path class="cls-8" d="M395.39,105.07a.78.78,0,0,0-1.08-.08l-3,2.47-.33.28a8.7,8.7,0,0,0,1.46,1.74,2.31,2.31,0,0,0,1.86.53,2.57,2.57,0,0,0,1.32-.87,3,3,0,0,0,.91-2.27A4.4,4.4,0,0,0,395.39,105.07Z" transform="translate(-255.8 -54.56)"></path><path class="cls-3" d="M414,98.45a3,3,0,0,1,1,.18,3.92,3.92,0,0,1,2.1,1.72,4.12,4.12,0,0,1,.59,1.82,4.58,4.58,0,0,1-.37,2.15,4.77,4.77,0,0,1-1.46,1.93,4.48,4.48,0,0,1-2.43.91,4.67,4.67,0,0,1-2.54-.54,4.33,4.33,0,0,1-1.72-1.7,4.54,4.54,0,0,1-.19-4,4.24,4.24,0,0,1,1-1.25,4.11,4.11,0,0,1,1-.66,2.37,2.37,0,0,1,.71-.22,1.28,1.28,0,0,1,.26,0,3.38,3.38,0,0,0-.93.31,4.12,4.12,0,0,0-.94.68,4,4,0,0,0-.9,1.21,4.4,4.4,0,0,0,.22,3.82,4.13,4.13,0,0,0,1.65,1.61,4.6,4.6,0,0,0,2.42.51,4.21,4.21,0,0,0,2.3-.87,4.53,4.53,0,0,0,1.41-1.83,4.47,4.47,0,0,0,.37-2.06,4,4,0,0,0-.54-1.75,4,4,0,0,0-2-1.72A9.64,9.64,0,0,0,414,98.45Z" transform="translate(-255.8 -54.56)"></path><path class="cls-1" d="M394.33,97.29a1.26,1.26,0,0,0,1.53.86,1.21,1.21,0,0,0,.92-1.47,1.26,1.26,0,0,0-1.54-.86A1.21,1.21,0,0,0,394.33,97.29Z" transform="translate(-255.8 -54.56)"></path><path class="cls-1" d="M382.89,101.33a1.25,1.25,0,0,0,1.53.86,1.19,1.19,0,0,0,.91-1.46,1.26,1.26,0,0,0-1.53-.87A1.21,1.21,0,0,0,382.89,101.33Z" transform="translate(-255.8 -54.56)"></path><path class="cls-1" d="M380.77,97c.18.14.87-.8,2.08-1.08s2.26.22,2.35,0-.16-.37-.62-.61a2.79,2.79,0,0,0-3.54.85C380.74,96.57,380.68,96.91,380.77,97Z" transform="translate(-255.8 -54.56)"></path><path class="cls-1" d="M392.27,94c.22.13,1-1,2.36-1.48s2.69-.09,2.78-.32-.23-.39-.8-.58a3.6,3.6,0,0,0-4.11,1.44C392.19,93.56,392.16,94,392.27,94Z" transform="translate(-255.8 -54.56)"></path><path class="cls-1" d="M393.38,109.85s.15.12.47.15a2.31,2.31,0,0,0,1.31-.34,3.57,3.57,0,0,0,1.37-1.49,2.21,2.21,0,0,0,.21-1.21,2.77,2.77,0,0,0-.47-1.23,5.24,5.24,0,0,0-.83-1,.89.89,0,0,0-.66-.29,1,1,0,0,0-.58.32l-1.46,1.29a8.57,8.57,0,0,0-1.29,1.26,7.91,7.91,0,0,0,1.46-1l1.52-1.22c.3-.27.47-.31.75,0a5.64,5.64,0,0,1,.76.91,2.07,2.07,0,0,1,.26,2.07,3.54,3.54,0,0,1-1.18,1.4,2.45,2.45,0,0,1-1.17.43A3,3,0,0,0,393.38,109.85Z" transform="translate(-255.8 -54.56)"></path><path class="cls-1" d="M357,79.65a7.66,7.66,0,0,1,1.19-1.39,5.73,5.73,0,0,1,1.85-1,5.05,5.05,0,0,1,2.76-.16l.15,0,0-.15a4.82,4.82,0,0,1,2-3,4.88,4.88,0,0,1,4.07-.75l.18.05.05-.18A7.83,7.83,0,0,1,373,68.6a7.38,7.38,0,0,1,4.49-.86,7.83,7.83,0,0,1,3.9,1.58l.07.06.09,0a11.82,11.82,0,0,1,4.81-.46,12.36,12.36,0,0,1,3.65,1,16.25,16.25,0,0,1,2.87,1.72s-.05-.07-.16-.17-.27-.25-.49-.43a11.73,11.73,0,0,0-2.13-1.32,12.31,12.31,0,0,0-3.71-1.07,11.79,11.79,0,0,0-4.95.42l.17,0a8.15,8.15,0,0,0-4.07-1.7,7.85,7.85,0,0,0-4.73.9A8.12,8.12,0,0,0,369,73l.24-.13a5.19,5.19,0,0,0-4.38.83,5.07,5.07,0,0,0-2.12,3.21l.17-.12A5.31,5.31,0,0,0,360,77a5.59,5.59,0,0,0-1.88,1.14,5.07,5.07,0,0,0-.87,1.08A1.9,1.9,0,0,0,357,79.65Z" transform="translate(-255.8 -54.56)"></path><path class="cls-1" d="M393.47,64.66a3.3,3.3,0,0,0,1.48-.15A5.26,5.26,0,0,0,398.1,62a4.83,4.83,0,0,0,.5-2.84,5.45,5.45,0,0,0-1.4-3,5,5,0,0,0-3.37-1.52,5.24,5.24,0,0,0-3.78,1.3l.23,0a3.81,3.81,0,0,0-2.47-.45,3.92,3.92,0,0,0-1.94.88A3.5,3.5,0,0,0,384.79,58a3.85,3.85,0,0,0,.94,3.67l.17-.31a3.21,3.21,0,0,0-2.85.94,3.26,3.26,0,0,0-1,2.55,4.21,4.21,0,0,0,2.48,3.55,5.18,5.18,0,0,0,2.86.4,6.07,6.07,0,0,0,.75-.15,1.1,1.1,0,0,0,.25-.1s-.36.08-1,.13a5.35,5.35,0,0,1-2.75-.48,4,4,0,0,1-2.26-3.37,3,3,0,0,1,.9-2.29,2.86,2.86,0,0,1,2.53-.82l.61.13-.44-.44a3.47,3.47,0,0,1-.83-3.31,3.09,3.09,0,0,1,1-1.57,3.59,3.59,0,0,1,1.74-.78,3.33,3.33,0,0,1,2.21.4l.13.07.11-.1a5,5,0,0,1,3.5-1.21A4.62,4.62,0,0,1,397,56.33a5.19,5.19,0,0,1,1.35,2.82,4.63,4.63,0,0,1-.43,2.68,5.2,5.2,0,0,1-3,2.54A7.37,7.37,0,0,1,393.47,64.66Z" transform="translate(-255.8 -54.56)"></path><path class="cls-1" d="M424.54,69.73a.79.79,0,0,0,0-.25,4.59,4.59,0,0,0,0-.71,6.07,6.07,0,0,0-.82-2.54,6.14,6.14,0,0,0-3.09-2.64,6.41,6.41,0,0,0-5.11.23l.21,0a7.68,7.68,0,0,0-4.91-2.18,7.43,7.43,0,0,0-4,.91,7.73,7.73,0,0,0-2.76,2.55l.18-.08a8.39,8.39,0,0,0-4.22.45,8.68,8.68,0,0,0-2.84,1.69,7.92,7.92,0,0,0-1.39,1.63,2.68,2.68,0,0,0-.35.67,11.73,11.73,0,0,1,1.88-2.14,8.88,8.88,0,0,1,2.8-1.58,8.3,8.3,0,0,1,4.06-.37l.12,0,.06-.1A7.52,7.52,0,0,1,407,62.91a7.19,7.19,0,0,1,3.8-.85,7.36,7.36,0,0,1,4.67,2.06l.1.09.12-.06a6.16,6.16,0,0,1,4.83-.26,6,6,0,0,1,3,2.46,6.59,6.59,0,0,1,.9,2.44C424.52,69.39,424.5,69.73,424.54,69.73Z" transform="translate(-255.8 -54.56)"></path><path class="cls-6" d="M351.26,198.42l-.14,39.27a74.36,74.36,0,0,1,64.12,23.9l28.94-26.24.2-9.08C420,201,384,195.89,351.26,198.42Z" transform="translate(-255.8 -54.56)"></path><g class="cls-5"><path d="M351.26,198.42l-.14,39.27a74.36,74.36,0,0,1,64.12,23.9l28.94-26.24.2-9.08C420,201,384,195.89,351.26,198.42Z" transform="translate(-255.8 -54.56)"></path></g><path class="cls-6" d="M350.93,190.67l.43,39.26a74.35,74.35,0,0,1,64.45,23l28.57-26.65A113.33,113.33,0,0,0,350.93,190.67Z" transform="translate(-255.8 -54.56)"></path><path class="cls-4" d="M372.91,137.45s-.49-1,2.27-4.07,21.26-10.19,21.26-10.19,8,9,14.84,2.86c5-4.48,5.46-8.37,5.46-8.37s17.38-1.37,22.46,1l-.44,18.75-7.9.05Z" transform="translate(-255.8 -54.56)"></path><path class="cls-7" d="M412.18,187.45l31.3-27.06-2.57-16.22,16-3.5s5.31,19.47,2.14,26.49S420,193.78,420,193.78Z" transform="translate(-255.8 -54.56)"></path><path class="cls-4" d="M438.39,118.37c.4.11,4.69.77,10.61,7.61,5.71,6.59,10.56,19,10.56,19L439,150Z" transform="translate(-255.8 -54.56)"></path><path class="cls-7" d="M408.23,190.37l-8.57,4.53s-4.63,6.58-5.34,8.26a47.77,47.77,0,0,0-1.59,6s1.66,1.76,2.57-.71l1-1.86-1,4.42s1.71,1.54,2.77-.78a29,29,0,0,0,1.61-4.56l3.08-3.65-3.49,9s-.67,1.81,1,1.77c.66,0,2.35-3.16,2.35-3.16s1.09,1.64,2.18.31,5.38-6.54,5.38-6.54,5.69-6.09,5.72-6.26,4.11-3.33,4.11-3.33l-7.77-6.33-3.75,2.76A1,1,0,0,1,408.23,190.37Z" transform="translate(-255.8 -54.56)"></path><path class="cls-8" d="M395.29,210.81a2.86,2.86,0,0,0,.16-.51c.09-.36.22-.83.37-1.4s.33-1.31.52-2.09l.31-1.23a7.18,7.18,0,0,1,.49-1.25,22.82,22.82,0,0,1,2.68-3.93c.38-.48.71-.85.93-1.11a2.33,2.33,0,0,0,.34-.41,4.35,4.35,0,0,0-.39.37c-.23.24-.58.6-1,1.07a20.57,20.57,0,0,0-2.73,3.94,6.33,6.33,0,0,0-.51,1.28l-.29,1.23c-.19.79-.35,1.49-.49,2.1s-.24,1-.32,1.42A3.17,3.17,0,0,0,395.29,210.81Z" transform="translate(-255.8 -54.56)"></path><path class="cls-8" d="M406.94,202s-.09.08-.21.25-.3.42-.52.74c-.44.62-1,1.49-1.68,2.47h0l-.08.18c-.54,1.09-1,2.08-1.36,2.81-.17.36-.31.65-.4.86a1.27,1.27,0,0,0-.12.32,1,1,0,0,0,.18-.29l.45-.84c.37-.71.86-1.69,1.4-2.79l.09-.17h0c.65-1,1.23-1.87,1.64-2.51l.47-.76A1.54,1.54,0,0,0,406.94,202Z" transform="translate(-255.8 -54.56)"></path><path class="cls-7" d="M362.7,134.68c0,.08.07.16.11.25a4.64,4.64,0,0,1,.25,1.23,3.88,3.88,0,0,0,0,.59,2.81,2.81,0,0,0,.17.35,5.89,5.89,0,0,1,.21,2.44,4.64,4.64,0,0,0,.45,2.61,1.73,1.73,0,0,0,2.3.71,1.18,1.18,0,0,0,.88,1.28,1.67,1.67,0,0,0,1.56-.48,3.16,3.16,0,0,0,.79-1.5,1.29,1.29,0,0,0,1.29,1.25,2,2,0,0,0,1.64-1,4.56,4.56,0,0,0,.57-1.92,22,22,0,0,1,.4-2.56s.85.13,1.23.17h.11a5.55,5.55,0,0,0,.81-1.4c.53-1.1.94-1.8,1.35-2.81.31-.75.51-1.5.05-2-1.12-1.17-3.31,1.22-3.31,1.22-.31-.83-2.85-1-3.34.14-.2-.61-.13-1-.62-1.38a2,2,0,0,0-1.8-.45,1.48,1.48,0,0,0-1.1,1.41,2.46,2.46,0,0,0-2.57-1.07,2.43,2.43,0,0,0-1.44,1,2.32,2.32,0,0,0-.36.8,1,1,0,0,0-.06.33.38.38,0,0,0,0,.15C362.45,134.26,362.6,134.45,362.7,134.68Z" transform="translate(-255.8 -54.56)"></path><path class="cls-7" d="M360,133.05a2,2,0,0,0-1.53.51,3.19,3.19,0,0,0-.47,2.11c.76.15,1.16.18,1.93.32.16,0,.3,0,.43.09.35.25.3,1.09.44,1.5a1.47,1.47,0,0,0,1.86.8,2,2,0,0,0,1.2-1.76,3.14,3.14,0,0,0-.78-2.07A4.28,4.28,0,0,0,360,133.05Z" transform="translate(-255.8 -54.56)"></path><path class="cls-8" d="M366.73,132.63a24.35,24.35,0,0,1,0,5.13,25.54,25.54,0,0,1-.52,5.1,26.12,26.12,0,0,1,0-5.13A26.32,26.32,0,0,1,366.73,132.63Z" transform="translate(-255.8 -54.56)"></path><path class="cls-8" d="M370.26,133.12a14.48,14.48,0,0,1,.1,4.65,14.26,14.26,0,0,1-.9,4.57,39,39,0,0,1,.38-4.62A36.94,36.94,0,0,1,370.26,133.12Z" transform="translate(-255.8 -54.56)"></path><path class="cls-8" d="M373.7,133.59a10.65,10.65,0,0,1-.06,3.84,15,15,0,0,1-.73,3.77,13.88,13.88,0,0,1,.21-3.83A21.59,21.59,0,0,1,373.7,133.59Z" transform="translate(-255.8 -54.56)"></path><path class="cls-8" d="M361.12,133.41c0-.06.37-.14.9.1a2.85,2.85,0,0,1,1.41,1.65,5.48,5.48,0,0,1,.35,2.11c-.06.64-.52.82-.53.74s.21-.28.17-.75a11.18,11.18,0,0,0-.47-1.92,3.11,3.11,0,0,0-1.11-1.51C361.44,133.55,361.12,133.49,361.12,133.41Z" transform="translate(-255.8 -54.56)"></path><path class="cls-1" d="M438.39,127.83c.14,0,.4,5,.56,11S439.14,150,439,150s-.4-4.94-.57-11S438.25,127.83,438.39,127.83Z" transform="translate(-255.8 -54.56)"></path></g><g id="Charcter_1" data-name="Charcter 1"><path class="cls-6" d="M443.16,356.4c-2.29,28.47-15.69,53.78-44.41,63.32a73.27,73.27,0,0,1-45.9-139.17L340.8,244h-8.61c-53.56,22.12-80.6,85.19-62.11,141.23,19.32,58.6,82.32,90.38,140.71,71C454,441.89,482.45,404.73,486.56,362Z" transform="translate(-255.8 -54.56)"></path><g class="cls-5"><path d="M443.16,356.4c-2.29,28.47-15.69,53.78-44.41,63.32a73.27,73.27,0,0,1-45.9-139.17L340.8,244h-8.61c-53.56,22.12-80.6,85.19-62.11,141.23,19.32,58.6,82.32,90.38,140.71,71C454,441.89,482.45,404.73,486.56,362Z" transform="translate(-255.8 -54.56)"></path></g><path class="cls-6" d="M440,356a73.1,73.1,0,1,1-95.77-75.45L332.19,244c-58.38,19.4-90.05,82.63-70.72,141.23s82.32,90.38,140.71,71a111.7,111.7,0,0,0,75.89-95.43Z" transform="translate(-255.8 -54.56)"></path></g></svg>