<svg xmlns="http://www.w3.org/2000/svg" id="Floor" viewBox="0 0 533.06 443.09"><defs><style>.cls-1{fill:#1175af;}.cls-2{fill:#263238;}.cls-3{fill:#fff;}.cls-4{fill:#ebebeb;}.cls-5{fill:#e0e0e0;}.cls-6{fill:#f5f5f5;}.cls-7{opacity:0.3;}.cls-8{fill:#f7d406;}.cls-9{fill:#011e2d;}.cls-10{fill:#ffbf9d;}.cls-11{fill:#f98653;}.cls-12{opacity:0.6;}.cls-13{fill:#053249;}</style></defs><path class="cls-1" d="M1063.28,627.25H626.73a13.62,13.62,0,0,0-13.62,13.63V949.22a13.62,13.62,0,0,0,13.62,13.63H794.28s10.65,33-22.38,50H928.56s-37.3-12.79-27.71-50h162.43a13.63,13.63,0,0,0,13.63-13.63V640.88A13.63,13.63,0,0,0,1063.28,627.25Z" transform="translate(-589.48 -616.4)"></path><path class="cls-2" d="M850.83,930.42c5.94,8.49-3.35,17.78-11.84,11.84a2.82,2.82,0,0,1-.73-.73c-5.92-8.48,3.36-17.76,11.84-11.84A3,3,0,0,1,850.83,930.42Z" transform="translate(-589.48 -616.4)"></path><path class="cls-3" d="M40.84,16.5H470.21a9.7,9.7,0,0,1,9.7,9.7V290a0,0,0,0,1,0,0H31.14a0,0,0,0,1,0,0V26.19A9.7,9.7,0,0,1,40.84,16.5Z"></path><path class="cls-4" d="M40.29,16.5h432.1A7.52,7.52,0,0,1,479.9,24V39.23a0,0,0,0,1,0,0H31.14a0,0,0,0,1,0,0V25.65A9.15,9.15,0,0,1,40.29,16.5Z"></path><circle class="cls-5" cx="45.43" cy="28.34" r="3.15"></circle><circle class="cls-5" cx="54.83" cy="28.34" r="3.15"></circle><circle class="cls-5" cx="63.76" cy="28.34" r="3.15"></circle><path class="cls-2" d="M985.23,962.89c0,.15-62.12.26-138.73.26s-138.75-.11-138.75-.26,62.11-.26,138.75-.26S985.23,962.75,985.23,962.89Z" transform="translate(-589.48 -616.4)"></path><rect class="cls-6" x="393.22" y="83.23" width="139.61" height="148.28" rx="11.83"></rect><path class="cls-3" d="M1116,846.85h0V713h6.29V837.32C1122.31,842.21,1117.33,847.24,1116,846.85Z" transform="translate(-589.48 -616.4)"></path><path class="cls-5" d="M405.15,83.23H520.9a11.93,11.93,0,0,1,11.93,11.93v1.43a0,0,0,0,1,0,0H393.22a0,0,0,0,1,0,0V95.16A11.93,11.93,0,0,1,405.15,83.23Z"></path><rect class="cls-5" x="526.53" y="111.06" width="6.3" height="23.96" rx="3.15"></rect><path class="cls-2" d="M1110,847.91l.36,0c.24,0,.59,0,1.06-.08a12.87,12.87,0,0,0,4-1.21,12.21,12.21,0,0,0,5-4.52,12.37,12.37,0,0,0,1.6-4,24.58,24.58,0,0,0,.23-4.93c0-14,0-34.35-.08-59.43,0-12.55,0-26.29,0-41.05,0-3.68,0-7.43,0-11.25v-5.76a40,40,0,0,0-.2-5.8A12.09,12.09,0,0,0,1115,701a12.86,12.86,0,0,0-5.84-1.08H1103l-107.93,0a13.47,13.47,0,0,0-3.46.51,12,12,0,0,0-5.76,3.78,12.8,12.8,0,0,0-1.83,2.94,12.11,12.11,0,0,0-.91,3.33,31.09,31.09,0,0,0-.1,3.49v7q0,14,0,27.54c0,18,0,35.47,0,52.06q0,12.45,0,24.24c0,3.93,0,7.82,0,11.6a12,12,0,0,0,10.31,11.16,47.6,47.6,0,0,0,5.35.14h10.47l19.7,0,59.43.08,16.15.05,4.21,0,1.43,0-1.43,0-4.21,0-16.15,0-59.43.09H998.62a46.89,46.89,0,0,1-5.41-.14,12.45,12.45,0,0,1-10.69-11.55c-.09-3.84,0-7.69,0-11.63q0-11.79,0-24.24c0-16.59,0-34,0-52.06V713.94a30.27,30.27,0,0,1,.11-3.55,12.82,12.82,0,0,1,.94-3.48,12.54,12.54,0,0,1,4.62-5.47,13.06,13.06,0,0,1,3.3-1.54,13.76,13.76,0,0,1,3.61-.53l107.93,0h6.19a13.32,13.32,0,0,1,6,1.12,12.54,12.54,0,0,1,7.16,9.25,14.89,14.89,0,0,1,.2,3v8.67c0,3.82,0,7.57,0,11.25,0,14.76,0,28.5,0,41.05,0,25.08-.06,45.39-.08,59.43a25.08,25.08,0,0,1-.27,5,12.35,12.35,0,0,1-10.71,9.74C1110.49,847.92,1110,847.91,1110,847.91Z" transform="translate(-589.48 -616.4)"></path><rect class="cls-1" x="402.04" y="103.15" width="117.92" height="114.08"></rect><g class="cls-7"><path d="M1071.34,753.75a8.49,8.49,0,1,1-8.49-8.49A8.49,8.49,0,0,1,1071.34,753.75Z" transform="translate(-589.48 -616.4)"></path></g><g class="cls-7"><path d="M1100.33,728.49l-99.62-.08c.11-.13-1.07,1.07-.57.58V754.6c0,8.38,0,16.59,0,24.58,0,16,0,31.08.05,45v.49h.49l72.35-.25,20.21-.13,5.29,0,1.35,0a2,2,0,0,0,.43,0l-24.15-41.4L1060,802.69l-26.68-37.53-32.1,58.48c0-13.75,0-28.68,0-44.46,0-8,0-16.2,0-24.58V729.53l98.59-.08c.1,28.28.19,51.84.25,68.4.05,8.31.09,14.85.12,19.38q0,3.32.06,5.13c0,.56,0,1,0,1.33s0,.46,0,.47a1.93,1.93,0,0,0,0-.41c0-.33,0-.75,0-1.28,0-1.19,0-2.88,0-5,0-4.5.08-11,.13-19.27.06-16.74.14-40.57.25-69.19v-.48Z" transform="translate(-589.48 -616.4)"></path></g><ellipse class="cls-3" cx="405.89" cy="90.43" rx="2.48" ry="2.37"></ellipse><ellipse class="cls-3" cx="413.33" cy="90.43" rx="2.48" ry="2.37"></ellipse><ellipse class="cls-3" cx="420.85" cy="90.43" rx="2.48" ry="2.37"></ellipse><rect class="cls-6" x="0.26" y="83.28" width="111.02" height="153.32" rx="6.63"></rect><path class="cls-5" d="M7.92,83.28h95.71a7.66,7.66,0,0,1,7.66,7.66V97.1a0,0,0,0,1,0,0H.26a0,0,0,0,1,0,0V90.94A7.66,7.66,0,0,1,7.92,83.28Z"></path><circle class="cls-3" cx="7.28" cy="90.19" r="2.21"></circle><path class="cls-3" d="M605.59,706.59a2.21,2.21,0,1,1-2.2-2.2A2.2,2.2,0,0,1,605.59,706.59Z" transform="translate(-589.48 -616.4)"></path><circle class="cls-3" cx="20.59" cy="90.19" r="2.21"></circle><rect class="cls-3" x="5.27" y="97.1" width="101.01" height="136.46"></rect><path class="cls-5" d="M698.27,753.24h0a2.51,2.51,0,0,1-2.51-2.51V731a2.5,2.5,0,0,1,2.51-2.5h0a2.5,2.5,0,0,1,2.5,2.5v19.76A2.5,2.5,0,0,1,698.27,753.24Z" transform="translate(-589.48 -616.4)"></path><path class="cls-2" d="M688.46,853a13.44,13.44,0,0,0,5-1.14,12.32,12.32,0,0,0,6.61-7.46,13.82,13.82,0,0,0,.57-4.5c0-13,0-31.7-.08-54.85,0-11.58,0-24.26,0-37.87q0-10.22,0-21.1v-11a28.56,28.56,0,0,0-.27-5.56,12.11,12.11,0,0,0-12.38-9.56h-88c-1.1,0-2.22,0-3.3,0a6.82,6.82,0,0,0-6.52,5.84A28.49,28.49,0,0,0,590,709v9.74q0,12.9,0,25.41c0,16.66,0,32.74,0,48.05s0,29.86,0,43.47v10a7.21,7.21,0,0,0,5.44,6.85,8.34,8.34,0,0,0,2.29.24h15.82l54.84.08,14.92.05,3.87,0,1.32,0-1.32,0-3.87,0-14.92.05-54.84.08H597.69a8.48,8.48,0,0,1-2.39-.24,7.58,7.58,0,0,1-4.06-2.6,7.66,7.66,0,0,1-1.69-4.63c0-3.28,0-6.63,0-10,0-13.61,0-28.16,0-43.47s0-31.39,0-48.05V709a30.6,30.6,0,0,1,.08-3.3,7.33,7.33,0,0,1,7-6.28c1.12,0,2.21,0,3.32,0h88a12.69,12.69,0,0,1,10.38,4.74,12.86,12.86,0,0,1,2.47,5.21c.08.47.15,1,.21,1.42s.06,1,.06,1.44v2.8q0,5.6,0,11,0,10.88,0,21.1c0,13.61,0,26.29,0,37.87,0,23.15-.07,41.89-.09,54.85a14.16,14.16,0,0,1-.59,4.55,12.49,12.49,0,0,1-6.75,7.5,12.66,12.66,0,0,1-3.74,1C688.91,853,688.46,853,688.46,853Z" transform="translate(-589.48 -616.4)"></path><path class="cls-2" d="M630.31,768.34c0,.14-5.56.26-12.41.26s-12.41-.12-12.41-.26,5.56-.27,12.41-.27S630.31,768.19,630.31,768.34Z" transform="translate(-589.48 -616.4)"></path><path class="cls-2" d="M624.91,775.52a174.74,174.74,0,0,1-19.42,0,181.45,181.45,0,0,1,19.42,0Z" transform="translate(-589.48 -616.4)"></path><path class="cls-2" d="M627.13,783.64c0,.14-4.84.26-10.82.26s-10.82-.12-10.82-.26,4.85-.26,10.82-.26S627.13,783.49,627.13,783.64Z" transform="translate(-589.48 -616.4)"></path><path class="cls-2" d="M630.31,790.83c0,.14-5.56.26-12.41.26s-12.41-.12-12.41-.26,5.56-.26,12.41-.26S630.31,790.68,630.31,790.83Z" transform="translate(-589.48 -616.4)"></path><path class="cls-2" d="M624.91,798.94a181.45,181.45,0,0,1-19.42,0,181.45,181.45,0,0,1,19.42,0Z" transform="translate(-589.48 -616.4)"></path><path class="cls-2" d="M622,806.13a131.81,131.81,0,0,1-16.55,0,131.81,131.81,0,0,1,16.55,0Z" transform="translate(-589.48 -616.4)"></path><path class="cls-2" d="M680,759c0,.15-17.31.26-38.66.26s-38.66-.11-38.66-.26,17.31-.26,38.66-.26S680,758.88,680,759Z" transform="translate(-589.48 -616.4)"></path><path class="cls-2" d="M646.44,820.31c-.14,0-.26-16.91-.26-37.76s.12-37.75.26-37.75.26,16.9.26,37.75S646.58,820.31,646.44,820.31Z" transform="translate(-589.48 -616.4)"></path><path class="cls-2" d="M663.24,820.31c-.15,0-.26-16.91-.26-37.76s.11-37.75.26-37.75.26,16.9.26,37.75S663.38,820.31,663.24,820.31Z" transform="translate(-589.48 -616.4)"></path><path class="cls-2" d="M680,820.31c-.14,0-.26-16.91-.26-37.76s.12-37.75.26-37.75.26,16.9.26,37.75S680.13,820.31,680,820.31Z" transform="translate(-589.48 -616.4)"></path><path class="cls-2" d="M635.3,751.39c0,.14-6.58.26-14.7.26s-14.71-.12-14.71-.26,6.58-.26,14.71-.26S635.3,751.24,635.3,751.39Z" transform="translate(-589.48 -616.4)"></path><path class="cls-2" d="M659,751.39a33.09,33.09,0,0,1-8.28,0,33.09,33.09,0,0,1,8.28,0Z" transform="translate(-589.48 -616.4)"></path><path class="cls-2" d="M676.36,751.39a33.17,33.17,0,0,1-8.29,0,33.17,33.17,0,0,1,8.29,0Z" transform="translate(-589.48 -616.4)"></path><path class="cls-2" d="M679.48,814.2c0,.14-16.23.26-36.25.26S607,814.34,607,814.2s16.23-.27,36.26-.27S679.48,814.05,679.48,814.2Z" transform="translate(-589.48 -616.4)"></path><path class="cls-2" d="M674,817.32a20.32,20.32,0,0,1-6.48,0,20.32,20.32,0,0,1,6.48,0Z" transform="translate(-589.48 -616.4)"></path><path class="cls-2" d="M680.92,822.84c0,.14-10,.26-22.45.26S636,823,636,822.84s10.05-.26,22.45-.26S680.92,822.69,680.92,822.84Z" transform="translate(-589.48 -616.4)"></path><path class="cls-2" d="M686.69,834.71l-.58.06-1.7.13-6.49.4-23.39,1.32-.83,0,.71-.44a19.1,19.1,0,0,1,14.37-2.38,11.29,11.29,0,0,1,2.56.89,3.29,3.29,0,0,1,1.78,2.18,4.45,4.45,0,0,1-2.61,4.79,12,12,0,0,1-5.7.93,10.35,10.35,0,0,1-5.63-1.82,7,7,0,0,1-2.88-5.27,5.82,5.82,0,0,1,2.6-4.81,9.47,9.47,0,0,1,5.16-1.62A26.32,26.32,0,0,1,674.23,831a27.23,27.23,0,0,1,4.46,2.21,6,6,0,0,1,1.94,1.56,1.51,1.51,0,0,1,.27,1.33,1.22,1.22,0,0,1-1.09.82,4.59,4.59,0,0,1-2.33-.65,19.48,19.48,0,0,1-2-1.11A19.11,19.11,0,0,1,672,832.3l.37-.22a2.06,2.06,0,0,1-.15,1.58,3.06,3.06,0,0,1-1.06,1.11,3.29,3.29,0,0,1-2.87.37,5.64,5.64,0,0,1-2.27-1.58,16.78,16.78,0,0,1-1.58-2.08l.34-.17a2.53,2.53,0,0,1-1.12,2.75,3.17,3.17,0,0,1-2.78.48,4.76,4.76,0,0,1-2.18-1.49,8.53,8.53,0,0,1-1.27-2.1h.28l-2.46,5.89-.11.26-.1-.26-2-5.24c-.22-.58-.38-1-.51-1.35s-.16-.47-.15-.47a3.67,3.67,0,0,1,.21.44c.13.33.32.77.55,1.34.49,1.2,1.2,2.94,2.11,5.2h-.21c.67-1.67,1.46-3.62,2.39-5.92l.13-.33.15.33a5.71,5.71,0,0,0,3.27,3.37,2.77,2.77,0,0,0,2.47-.45,2.13,2.13,0,0,0,1-2.33l-.41-1.25.76,1.08c.94,1.36,2,2.9,3.67,3.49a2.87,2.87,0,0,0,2.5-.34,2,2,0,0,0,1-2.2l-.33-.93.69.71a18.84,18.84,0,0,0,3.38,2.74,19.71,19.71,0,0,0,2,1.08,4.34,4.34,0,0,0,2.08.6.75.75,0,0,0,.69-.5,1.07,1.07,0,0,0-.22-.91,5.62,5.62,0,0,0-1.8-1.42,26.62,26.62,0,0,0-4.38-2.16,26,26,0,0,0-10-1.78,8.94,8.94,0,0,0-4.88,1.53,5.31,5.31,0,0,0-2.38,4.37,6.44,6.44,0,0,0,2.67,4.87,9.84,9.84,0,0,0,5.35,1.71,11.47,11.47,0,0,0,5.45-.87,4.35,4.35,0,0,0,1.92-1.75,3.59,3.59,0,0,0,.43-2.47,2.82,2.82,0,0,0-1.53-1.86,10.85,10.85,0,0,0-2.44-.85,18.63,18.63,0,0,0-14,2.27l-.12-.39,23.4-1.15,6.49-.28,1.71-.06Z" transform="translate(-589.48 -616.4)"></path><path class="cls-2" d="M682.78,731.06c0,.14-17.31.26-38.65.26s-38.65-.12-38.65-.26,17.3-.26,38.65-.26S682.78,730.92,682.78,731.06Z" transform="translate(-589.48 -616.4)"></path><path class="cls-2" d="M669.26,725.66a5.58,5.58,0,0,1,1.14-.07v.13c-3.2.11-14.18.2-27.21.2l-20.05-.08-6.08-.08-1.65,0a2.23,2.23,0,0,1-.58-.06,3.8,3.8,0,0,1,.58,0l1.65-.05,6.08-.08,20.05-.08c13,0,24,.09,27.21.2v.13A7.83,7.83,0,0,1,669.26,725.66Z" transform="translate(-589.48 -616.4)"></path><rect class="cls-6" x="96.36" y="26.32" width="169.7" height="234.34" rx="11.83"></rect><path class="cls-5" d="M108.29,26.32H254.13a11.93,11.93,0,0,1,11.93,11.93v9.18a0,0,0,0,1,0,0H96.36a0,0,0,0,1,0,0V38.25A11.93,11.93,0,0,1,108.29,26.32Z"></path><circle class="cls-3" cx="107.09" cy="36.87" r="3.37"></circle><circle class="cls-3" cx="117.21" cy="36.87" r="3.37"></circle><circle class="cls-3" cx="127.43" cy="36.87" r="3.37"></circle><rect class="cls-3" x="104.02" y="47.43" width="154.39" height="208.57"></rect><path class="cls-5" d="M851.71,724.57h0a3.83,3.83,0,0,1-3.83-3.82V690.54a3.83,3.83,0,0,1,3.83-3.83h0a3.82,3.82,0,0,1,3.83,3.83v30.21A3.82,3.82,0,0,1,851.71,724.57Z" transform="translate(-589.48 -616.4)"></path><path class="cls-2" d="M843.23,877.06l.51,0a11.8,11.8,0,0,0,1.51-.17,12.29,12.29,0,0,0,10.09-10.48,22.07,22.07,0,0,0,.12-3c0-1,0-2.1,0-3.2,0-2.21,0-4.56,0-7.05,0-19.92-.05-48.72-.08-84.32,0-17.8,0-37.3,0-58.23q0-15.71,0-32.44v-17c0-1.43,0-2.87,0-4.31a21,21,0,0,0-.24-4.28,12.14,12.14,0,0,0-4.47-7.13,12,12,0,0,0-3.83-2,13.65,13.65,0,0,0-4.33-.53H698.17a12.05,12.05,0,0,0-11.38,8.08,13.35,13.35,0,0,0-.69,4.87V715c0,25.62,0,50.33,0,73.87s0,45.9,0,66.84v7.78a17.55,17.55,0,0,0,.26,3.78,12.75,12.75,0,0,0,1.32,3.48,12.15,12.15,0,0,0,2.3,2.89,12,12,0,0,0,6.49,3.09,23,23,0,0,0,3.62.14l28,0,84.32.08,22.92,0,6,0,2,0-2,0-6,0-22.92,0-84.32.08-28,0a26.88,26.88,0,0,1-3.68-.14,11.86,11.86,0,0,1-3.58-1.08,11.68,11.68,0,0,1-3.13-2.12,12.11,12.11,0,0,1-2.38-3,13.09,13.09,0,0,1-1.38-3.6,18.58,18.58,0,0,1-.27-3.86V855.7c0-20.94,0-43.3,0-66.84s0-48.25,0-73.87q0-19.22,0-39.07v-20a14.22,14.22,0,0,1,.71-5,12.66,12.66,0,0,1,2.65-4.39,12.53,12.53,0,0,1,9.23-4H842.43a13.86,13.86,0,0,1,4.47.55,12.39,12.39,0,0,1,4,2.07,12.64,12.64,0,0,1,4.65,7.41,22.34,22.34,0,0,1,.25,4.38v4.31q0,8.61,0,17,0,16.73,0,32.44c0,20.93,0,40.43,0,58.23,0,35.6-.07,64.4-.09,84.32,0,2.49,0,4.84,0,7.05,0,1.1,0,2.17,0,3.2a22.51,22.51,0,0,1-.12,3,12.36,12.36,0,0,1-4.8,8.19,12.07,12.07,0,0,1-5.44,2.32,8.39,8.39,0,0,1-1.51.14Z" transform="translate(-589.48 -616.4)"></path><path class="cls-2" d="M808.34,678.82a1.81,1.81,0,0,1,.39,0l1.25,0v.14c-4.61.11-20.41.19-39.16.19L742,679l-8.75-.09-2.38,0a4.35,4.35,0,0,1-.82-.06,7.45,7.45,0,0,1,.82-.05l2.38,0,8.75-.08,28.86-.08c18.75,0,34.55.08,39.16.19v.14l-1.25,0C808.46,678.85,808.34,678.84,808.34,678.82Z" transform="translate(-589.48 -616.4)"></path><path class="cls-2" d="M834.74,696.45c0,.15-28.68.26-64,.26s-64.06-.11-64.06-.26,28.68-.26,64.06-.26S834.74,696.31,834.74,696.45Z" transform="translate(-589.48 -616.4)"></path><path class="cls-2" d="M834.74,705.64c0,.15-28.68.26-64,.26s-64.06-.11-64.06-.26,28.68-.26,64.06-.26S834.74,705.5,834.74,705.64Z" transform="translate(-589.48 -616.4)"></path><path class="cls-2" d="M834.74,714.83c0,.14-28.68.26-64,.26s-64.06-.12-64.06-.26,28.68-.26,64.06-.26S834.74,714.69,834.74,714.83Z" transform="translate(-589.48 -616.4)"></path><path class="cls-2" d="M834.74,724c0,.14-28.68.26-64,.26s-64.06-.12-64.06-.26,28.68-.26,64.06-.26S834.74,723.87,834.74,724Z" transform="translate(-589.48 -616.4)"></path><path class="cls-2" d="M834.74,733.21c0,.14-28.68.26-64,.26s-64.06-.12-64.06-.26,28.68-.26,64.06-.26S834.74,733.06,834.74,733.21Z" transform="translate(-589.48 -616.4)"></path><path class="cls-2" d="M834.74,742.4c0,.14-28.68.26-64,.26s-64.06-.12-64.06-.26,28.68-.27,64.06-.27S834.74,742.25,834.74,742.4Z" transform="translate(-589.48 -616.4)"></path><path class="cls-2" d="M834.74,831.31c0,.15-28.68.26-64,.26s-64.06-.11-64.06-.26,28.68-.26,64.06-.26S834.74,831.17,834.74,831.31Z" transform="translate(-589.48 -616.4)"></path><path class="cls-2" d="M834.74,840.5c0,.15-28.68.26-64,.26s-64.06-.11-64.06-.26,28.68-.26,64.06-.26S834.74,840.36,834.74,840.5Z" transform="translate(-589.48 -616.4)"></path><path class="cls-2" d="M834.74,849.69c0,.14-28.68.26-64,.26s-64.06-.12-64.06-.26,28.68-.26,64.06-.26S834.74,849.55,834.74,849.69Z" transform="translate(-589.48 -616.4)"></path><path class="cls-2" d="M834.74,858.88c0,.14-28.68.26-64,.26s-64.06-.12-64.06-.26,28.68-.26,64.06-.26S834.74,858.73,834.74,858.88Z" transform="translate(-589.48 -616.4)"></path><rect class="cls-8" x="123.56" y="141.61" width="4.53" height="50.56"></rect><rect class="cls-8" x="132.3" y="158.79" width="4.53" height="33.39"></rect><rect class="cls-8" x="141.04" y="147.9" width="4.53" height="44.53"></rect><rect class="cls-8" x="149.78" y="143.56" width="4.53" height="48.61"></rect><rect class="cls-8" x="158.52" y="159.81" width="4.53" height="32.36"></rect><rect class="cls-8" x="167.26" y="166.16" width="4.53" height="26.01"></rect><rect class="cls-8" x="176.01" y="146.8" width="4.53" height="45.37"></rect><rect class="cls-8" x="184.75" y="154.98" width="4.53" height="37.19"></rect><rect class="cls-8" x="193.49" y="148.45" width="4.53" height="43.73"></rect><rect class="cls-8" x="202.23" y="162.38" width="4.53" height="29.79"></rect><rect class="cls-8" x="219.66" y="146.8" width="4.53" height="45.37"></rect><rect class="cls-8" x="238.22" y="175.99" width="4.53" height="15.52"></rect><rect class="cls-8" x="229.17" y="162.38" width="4.53" height="29.79"></rect><rect class="cls-8" x="210.97" y="156.71" width="4.53" height="35.46"></rect><path class="cls-2" d="M833.51,764.46a1.9,1.9,0,0,1-.4-.06l-1.15-.24c-.5-.12-1.14-.2-1.89-.3a25.14,25.14,0,0,0-2.59-.21,29.45,29.45,0,0,0-7.09.61,31.17,31.17,0,0,0-8.79,3.32,36.11,36.11,0,0,0-8.9,7.09,67.52,67.52,0,0,0-7.5,10.77c-2.42,3.95-4.88,8.25-8.44,11.92a22.12,22.12,0,0,1-6.21,4.65,13.2,13.2,0,0,1-3.83,1.17,12.32,12.32,0,0,1-4.06-.14,16.49,16.49,0,0,1-7.07-3.71,33.17,33.17,0,0,1-5.24-5.71c-3-4.09-5.2-8.5-7.51-12.52a51.41,51.41,0,0,0-7.5-10.74,20.11,20.11,0,0,0-4.64-3.65,19.87,19.87,0,0,0-2.5-1.22,19.47,19.47,0,0,0-2.56-.75,18.5,18.5,0,0,0-9.3.26,21,21,0,0,0-6.37,3.06,23.55,23.55,0,0,0-3.36,3l-.78.88a2.53,2.53,0,0,1-.28.29l.24-.33c.19-.22.43-.52.75-.91a21.73,21.73,0,0,1,3.31-3.1,20.87,20.87,0,0,1,6.42-3.18,18.79,18.79,0,0,1,9.45-.33,19.48,19.48,0,0,1,9.92,5.67,51.94,51.94,0,0,1,7.61,10.81c2.33,4,4.49,8.41,7.5,12.45a32.64,32.64,0,0,0,5.16,5.63,16.15,16.15,0,0,0,6.86,3.6,11.77,11.77,0,0,0,3.88.13,12.53,12.53,0,0,0,3.69-1.13,21.75,21.75,0,0,0,6.07-4.53c3.5-3.61,6-7.87,8.39-11.82a67.66,67.66,0,0,1,7.59-10.81,36.13,36.13,0,0,1,9-7.12,31.37,31.37,0,0,1,8.91-3.29,29.4,29.4,0,0,1,7.15-.53,21.92,21.92,0,0,1,2.6.26,18.74,18.74,0,0,1,1.89.35l1.14.29Z" transform="translate(-589.48 -616.4)"></path><path class="cls-2" d="M708.06,812.1c-.1,0-.18-14.42-.18-32.2s.08-32.2.18-32.2.19,14.41.19,32.2S708.17,812.1,708.06,812.1Z" transform="translate(-589.48 -616.4)"></path><path class="cls-2" d="M832.23,812.1c0,.1-27.16.19-60.66.19s-60.67-.09-60.67-.19,27.16-.19,60.67-.19S832.23,812,832.23,812.1Z" transform="translate(-589.48 -616.4)"></path><path class="cls-2" d="M719.5,816.08a29.8,29.8,0,0,1-6.72,0,29.8,29.8,0,0,1,6.72,0Z" transform="translate(-589.48 -616.4)"></path><path class="cls-2" d="M730.65,816.28a42.52,42.52,0,0,1-8,0,44.87,44.87,0,0,1,8,0Z" transform="translate(-589.48 -616.4)"></path><path class="cls-2" d="M740.15,816.28a42.52,42.52,0,0,1-8,0,44.87,44.87,0,0,1,8,0Z" transform="translate(-589.48 -616.4)"></path><path class="cls-2" d="M749.66,816.28a42.52,42.52,0,0,1-8,0,44.87,44.87,0,0,1,8,0Z" transform="translate(-589.48 -616.4)"></path><path class="cls-2" d="M759.17,816.28a42.52,42.52,0,0,1-8,0,44.87,44.87,0,0,1,8,0Z" transform="translate(-589.48 -616.4)"></path><path class="cls-2" d="M768.67,816.28a42.52,42.52,0,0,1-8,0,44.87,44.87,0,0,1,8,0Z" transform="translate(-589.48 -616.4)"></path><path class="cls-2" d="M778.18,816.28a42.52,42.52,0,0,1-8,0,44.87,44.87,0,0,1,8,0Z" transform="translate(-589.48 -616.4)"></path><path class="cls-2" d="M787.68,816.28a42.52,42.52,0,0,1-8,0,44.87,44.87,0,0,1,8,0Z" transform="translate(-589.48 -616.4)"></path><path class="cls-2" d="M797.19,816.28a42.52,42.52,0,0,1-8,0,44.87,44.87,0,0,1,8,0Z" transform="translate(-589.48 -616.4)"></path><path class="cls-2" d="M806.69,816.28a42.52,42.52,0,0,1-8,0,44.87,44.87,0,0,1,8,0Z" transform="translate(-589.48 -616.4)"></path><path class="cls-2" d="M815.54,816.29a45,45,0,0,1-8,0,42.62,42.62,0,0,1,8,0Z" transform="translate(-589.48 -616.4)"></path><path class="cls-2" d="M824.38,816.29a44.87,44.87,0,0,1-8,0,42.52,42.52,0,0,1,8,0Z" transform="translate(-589.48 -616.4)"></path><path class="cls-2" d="M833.22,816.29a42.52,42.52,0,0,1-8,0,44.87,44.87,0,0,1,8,0Z" transform="translate(-589.48 -616.4)"></path><path class="cls-2" d="M754.27,781.56c0-.08.56.11.74.87a1.88,1.88,0,0,1-.14,1.31,1.18,1.18,0,0,1-.66.55,1.22,1.22,0,0,1-.92-.1,1.54,1.54,0,0,1-.79-1.45,1.57,1.57,0,0,1,.63-1.16,1,1,0,0,1,.86-.22c.21.07.29.17.27.19s-.46-.14-.9.3a1.3,1.3,0,0,0-.39.91,1.08,1.08,0,0,0,.56,1,.66.66,0,0,0,.93-.24,1.58,1.58,0,0,0,.19-1A2.28,2.28,0,0,0,754.27,781.56Z" transform="translate(-589.48 -616.4)"></path><path class="cls-2" d="M813.86,764.93s.14-.07.39,0a1.53,1.53,0,0,1,.81.69,2,2,0,0,1,.2,1.59,1.67,1.67,0,0,1-1.55,1.24,1.39,1.39,0,0,1-1-.51,2.11,2.11,0,0,1-.41-.89,2,2,0,0,1,.25-1.57c.56-.79,1.25-.75,1.22-.69s-.54.18-.91.87a1.77,1.77,0,0,0-.11,1.28c.12.47.48,1,1,1a1.24,1.24,0,0,0,1.09-.87,1.74,1.74,0,0,0-.08-1.28C814.41,765.07,813.84,765,813.86,764.93Z" transform="translate(-589.48 -616.4)"></path><rect class="cls-6" x="214.24" y="0.26" width="220.75" height="304.84" rx="11.83"></rect><path class="cls-5" d="M226.17.26H423.06A11.93,11.93,0,0,1,435,12.19V27.73a0,0,0,0,1,0,0H214.24a0,0,0,0,1,0,0V12.19A11.93,11.93,0,0,1,226.17.26Z"></path><circle class="cls-3" cx="228.2" cy="13.99" r="4.39"></circle><path class="cls-3" d="M835.23,630.4a4.39,4.39,0,1,1-4.39-4.39A4.39,4.39,0,0,1,835.23,630.4Z" transform="translate(-589.48 -616.4)"></path><circle class="cls-3" cx="254.65" cy="13.99" r="4.39"></circle><rect class="cls-3" x="224.2" y="27.73" width="200.83" height="271.31"></rect><rect class="cls-5" x="425.03" y="57.48" width="9.96" height="49.25" rx="4.86"></rect><path class="cls-2" d="M1012.16,921.51l.67,0a12.2,12.2,0,0,0,8.53-4.18,12,12,0,0,0,2.64-5c.59-2,.35-4.39.39-6.89,0-5,0-10.8,0-17.32,0-26.06,0-63.77-.08-110.37,0-23.3,0-48.82,0-76.22q0-20.55,0-42.46V636.79c0-1.87,0-3.76,0-5.64a18.47,18.47,0,0,0-.49-5.57,12.08,12.08,0,0,0-7.42-7.92,11.68,11.68,0,0,0-2.74-.67,27.28,27.28,0,0,0-2.87-.08H816.05a12.12,12.12,0,0,0-10.64,6.36,12.54,12.54,0,0,0-1.43,6.25v83.9c0,33.53,0,65.87,0,96.68s0,60.09,0,87.49c0,3.43,0,6.82,0,10.19a15.19,15.19,0,0,0,.52,4.91,12,12,0,0,0,2.32,4.28,12.11,12.11,0,0,0,8.36,4.28c3.22.09,6.45,0,9.62,0h36.58l110.36.09,30,.05,7.8,0,2.66,0s-.9,0-2.66,0l-7.8,0-30,.05-110.36.08-36.58,0c-3.18,0-6.37,0-9.65,0a12.55,12.55,0,0,1-8.65-4.42,12.25,12.25,0,0,1-2.4-4.43,15.28,15.28,0,0,1-.54-5V897.6c0-27.4,0-56.68,0-87.49s0-63.15,0-96.68q0-25.14,0-51.14V629.53A13.18,13.18,0,0,1,805,623a12.68,12.68,0,0,1,11.1-6.63h194.66a26.06,26.06,0,0,1,2.92.1,12.18,12.18,0,0,1,2.86.69,12.54,12.54,0,0,1,7.7,8.23,19.08,19.08,0,0,1,.52,5.71c0,1.88,0,3.77,0,5.64V659q0,21.88,0,42.46c0,27.4,0,52.92,0,76.22,0,46.6-.06,84.31-.08,110.37,0,6.52,0,12.31,0,17.32-.06,2.5.18,4.85-.42,6.92a12,12,0,0,1-2.69,5.06,12.27,12.27,0,0,1-6.63,3.89,11.15,11.15,0,0,1-2,.25Z" transform="translate(-589.48 -616.4)"></path><path class="cls-2" d="M833.34,685.14h30.55l.29,9.18h-1.3q-.95-4.32-2.41-5.63t-6.16-1.31h-3V715c0,2.08.33,3.37,1,3.87s2.07.82,4.27,1v1H840.81v-1c2.28-.17,3.71-.55,4.27-1.13s.84-2,.84-4.35v-27h-3c-3,0-5,.44-6.11,1.3s-1.89,2.74-2.44,5.64H833Z" transform="translate(-589.48 -616.4)"></path><path class="cls-2" d="M971.42,663.63l.56,0,1.76,0v.14c-6.5.11-28.73.19-55.12.19L878,663.81l-12.31-.08-3.34-.05-.87,0-.3,0,.3,0,.87,0,3.34-.05,12.31-.08,40.63-.08c26.39,0,48.62.08,55.12.19v.14l-1.76,0A3.84,3.84,0,0,1,971.42,663.63Z" transform="translate(-589.48 -616.4)"></path><path class="cls-2" d="M910.81,685.47c0,.14-8.4.26-18.76.26s-18.76-.12-18.76-.26,8.4-.26,18.76-.26S910.81,685.33,910.81,685.47Z" transform="translate(-589.48 -616.4)"></path><path class="cls-2" d="M910.81,694.32c0,.15-8.4.26-18.76.26s-18.76-.11-18.76-.26,8.4-.26,18.76-.26S910.81,694.18,910.81,694.32Z" transform="translate(-589.48 -616.4)"></path><path class="cls-2" d="M910.81,703.18c0,.14-8.4.26-18.76.26s-18.76-.12-18.76-.26,8.4-.26,18.76-.26S910.81,703,910.81,703.18Z" transform="translate(-589.48 -616.4)"></path><path class="cls-2" d="M910.81,712c0,.14-8.4.26-18.76.26s-18.76-.12-18.76-.26,8.4-.26,18.76-.26S910.81,711.89,910.81,712Z" transform="translate(-589.48 -616.4)"></path><path class="cls-2" d="M910.81,720.88c0,.15-8.4.26-18.76.26s-18.76-.11-18.76-.26,8.4-.26,18.76-.26S910.81,720.74,910.81,720.88Z" transform="translate(-589.48 -616.4)"></path><path class="cls-2" d="M910.81,729.74c0,.14-17.74.26-39.63.26s-39.63-.12-39.63-.26,17.74-.26,39.63-.26S910.81,729.59,910.81,729.74Z" transform="translate(-589.48 -616.4)"></path><path class="cls-2" d="M910.81,738.17c0,.14-17.74.26-39.63.26s-39.63-.12-39.63-.26,17.74-.26,39.63-.26S910.81,738,910.81,738.17Z" transform="translate(-589.48 -616.4)"></path><path class="cls-2" d="M910.81,746.6c0,.15-17.74.26-39.63.26s-39.63-.11-39.63-.26,17.74-.26,39.63-.26S910.81,746.46,910.81,746.6Z" transform="translate(-589.48 -616.4)"></path><path class="cls-2" d="M910.81,755c0,.15-17.74.26-39.63.26s-39.63-.11-39.63-.26,17.74-.26,39.63-.26S910.81,754.89,910.81,755Z" transform="translate(-589.48 -616.4)"></path><path class="cls-2" d="M910.81,763.47c0,.14-17.74.26-39.63.26s-39.63-.12-39.63-.26,17.74-.26,39.63-.26S910.81,763.32,910.81,763.47Z" transform="translate(-589.48 -616.4)"></path><path class="cls-2" d="M910.81,771.9c0,.14-17.74.26-39.63.26s-39.63-.12-39.63-.26,17.74-.26,39.63-.26S910.81,771.75,910.81,771.9Z" transform="translate(-589.48 -616.4)"></path><path class="cls-2" d="M910.81,780.33c0,.14-17.74.26-39.63.26s-39.63-.12-39.63-.26,17.74-.26,39.63-.26S910.81,780.19,910.81,780.33Z" transform="translate(-589.48 -616.4)"></path><path class="cls-2" d="M910.81,788.76c0,.15-17.74.26-39.63.26s-39.63-.11-39.63-.26,17.74-.26,39.63-.26S910.81,788.62,910.81,788.76Z" transform="translate(-589.48 -616.4)"></path><path class="cls-2" d="M994.79,685.47c0,.14-16.63.26-37.14.26s-37.14-.12-37.14-.26,16.62-.26,37.14-.26S994.79,685.33,994.79,685.47Z" transform="translate(-589.48 -616.4)"></path><path class="cls-2" d="M994.79,693.9c0,.15-16.63.26-37.14.26s-37.14-.11-37.14-.26,16.62-.26,37.14-.26S994.79,693.76,994.79,693.9Z" transform="translate(-589.48 -616.4)"></path><path class="cls-2" d="M994.79,702.33c0,.15-16.63.26-37.14.26s-37.14-.11-37.14-.26,16.62-.26,37.14-.26S994.79,702.19,994.79,702.33Z" transform="translate(-589.48 -616.4)"></path><path class="cls-2" d="M994.79,710.77c0,.14-16.63.26-37.14.26s-37.14-.12-37.14-.26,16.62-.26,37.14-.26S994.79,710.62,994.79,710.77Z" transform="translate(-589.48 -616.4)"></path><path class="cls-2" d="M994.79,719.2c0,.14-16.63.26-37.14.26s-37.14-.12-37.14-.26,16.62-.26,37.14-.26S994.79,719.05,994.79,719.2Z" transform="translate(-589.48 -616.4)"></path><path class="cls-2" d="M994.79,727.63c0,.14-16.63.26-37.14.26s-37.14-.12-37.14-.26,16.62-.26,37.14-.26S994.79,727.49,994.79,727.63Z" transform="translate(-589.48 -616.4)"></path><path class="cls-2" d="M994.79,736.06c0,.15-16.63.26-37.14.26s-37.14-.11-37.14-.26,16.62-.26,37.14-.26S994.79,735.92,994.79,736.06Z" transform="translate(-589.48 -616.4)"></path><path class="cls-2" d="M994.79,744.49c0,.15-16.63.26-37.14.26s-37.14-.11-37.14-.26,16.62-.26,37.14-.26S994.79,744.35,994.79,744.49Z" transform="translate(-589.48 -616.4)"></path><path class="cls-2" d="M910.81,809.74c0,.14-17.58.26-39.26.26s-39.27-.12-39.27-.26,17.58-.26,39.27-.26S910.81,809.59,910.81,809.74Z" transform="translate(-589.48 -616.4)"></path><path class="cls-2" d="M910.81,818.17c0,.14-17.58.26-39.26.26s-39.27-.12-39.27-.26,17.58-.26,39.27-.26S910.81,818,910.81,818.17Z" transform="translate(-589.48 -616.4)"></path><path class="cls-2" d="M910.81,826.6c0,.14-17.58.26-39.26.26s-39.27-.12-39.27-.26,17.58-.26,39.27-.26S910.81,826.46,910.81,826.6Z" transform="translate(-589.48 -616.4)"></path><path class="cls-2" d="M910.81,835c0,.15-17.58.26-39.26.26s-39.27-.11-39.27-.26,17.58-.26,39.27-.26S910.81,834.89,910.81,835Z" transform="translate(-589.48 -616.4)"></path><path class="cls-2" d="M910.81,843.46c0,.15-17.58.26-39.26.26s-39.27-.11-39.27-.26,17.58-.26,39.27-.26S910.81,843.32,910.81,843.46Z" transform="translate(-589.48 -616.4)"></path><path class="cls-2" d="M910.81,851.9c0,.14-17.58.26-39.26.26s-39.27-.12-39.27-.26,17.58-.26,39.27-.26S910.81,851.75,910.81,851.9Z" transform="translate(-589.48 -616.4)"></path><path class="cls-2" d="M910.81,860.33c0,.14-17.58.26-39.26.26s-39.27-.12-39.27-.26,17.58-.26,39.27-.26S910.81,860.18,910.81,860.33Z" transform="translate(-589.48 -616.4)"></path><path class="cls-2" d="M910.81,868.76c0,.14-17.58.26-39.26.26s-39.27-.12-39.27-.26,17.58-.26,39.27-.26S910.81,868.62,910.81,868.76Z" transform="translate(-589.48 -616.4)"></path><path class="cls-2" d="M910.81,877.66c0,.14-17.58.26-39.26.26s-39.27-.12-39.27-.26,17.58-.26,39.27-.26S910.81,877.51,910.81,877.66Z" transform="translate(-589.48 -616.4)"></path><path class="cls-2" d="M910.81,886.55c0,.15-17.58.26-39.26.26s-39.27-.11-39.27-.26,17.58-.26,39.27-.26S910.81,886.41,910.81,886.55Z" transform="translate(-589.48 -616.4)"></path><path class="cls-2" d="M910.81,895.45c0,.14-17.58.26-39.26.26s-39.27-.12-39.27-.26,17.58-.26,39.27-.26S910.81,895.31,910.81,895.45Z" transform="translate(-589.48 -616.4)"></path><rect class="cls-8" x="331.02" y="136.72" width="73.81" height="71.41"></rect><g class="cls-7"><polygon points="336.75 202.01 357.16 165.27 373.86 188.75 384.01 176.28 399.11 202.01 336.75 202.01"></polygon></g><g class="cls-7"><path d="M970.46,774.53a5.31,5.31,0,1,1-5.31-5.32A5.31,5.31,0,0,1,970.46,774.53Z" transform="translate(-589.48 -616.4)"></path></g><g class="cls-7"><path d="M988.59,818.62s0-.11,0-.3,0-.48,0-.83c0-.76,0-1.83,0-3.21,0-2.83,0-6.93-.07-12.13,0-10.43-.09-25.28-.16-43.11l.3.3-62.35,0c-.09.07.66-.66.34-.35v16c0,5.24,0,10.38,0,15.38,0,10,0,19.46,0,28.16l-.31-.31,45.09.16,12.72.08,3.37,0,.88,0a1,1,0,0,1,.3,0h-.27l-.84,0-3.31,0-12.65.08-45.29.15h-.31v-.3c0-8.7,0-18.16,0-28.16,0-5,0-10.14,0-15.38V759l.36-.36,62.35.05h.31V759c-.06,17.91-.11,32.83-.15,43.3,0,5.17-.06,9.25-.08,12.06,0,1.36,0,2.41,0,3.16,0,.33,0,.59,0,.8A1.33,1.33,0,0,1,988.59,818.62Z" transform="translate(-589.48 -616.4)"></path></g><path class="cls-2" d="M996.91,834.45c0,.14-17.58.26-39.26.26s-39.26-.12-39.26-.26,17.57-.26,39.26-.26S996.91,834.3,996.91,834.45Z" transform="translate(-589.48 -616.4)"></path><path class="cls-2" d="M996.91,842.88c0,.14-17.58.26-39.26.26s-39.26-.12-39.26-.26,17.57-.26,39.26-.26S996.91,842.73,996.91,842.88Z" transform="translate(-589.48 -616.4)"></path><path class="cls-2" d="M996.91,851.31c0,.14-17.58.26-39.26.26s-39.26-.12-39.26-.26,17.57-.26,39.26-.26S996.91,851.17,996.91,851.31Z" transform="translate(-589.48 -616.4)"></path><path class="cls-2" d="M996.91,859.74c0,.15-17.58.26-39.26.26s-39.26-.11-39.26-.26,17.57-.26,39.26-.26S996.91,859.6,996.91,859.74Z" transform="translate(-589.48 -616.4)"></path><path class="cls-2" d="M996.91,868.64c0,.14-17.58.26-39.26.26s-39.26-.12-39.26-.26,17.57-.26,39.26-.26S996.91,868.5,996.91,868.64Z" transform="translate(-589.48 -616.4)"></path><path class="cls-2" d="M996.91,877.54c0,.14-17.58.26-39.26.26s-39.26-.12-39.26-.26,17.57-.26,39.26-.26S996.91,877.39,996.91,877.54Z" transform="translate(-589.48 -616.4)"></path><path class="cls-2" d="M996.91,886.43c0,.15-17.58.26-39.26.26s-39.26-.11-39.26-.26,17.57-.26,39.26-.26S996.91,886.29,996.91,886.43Z" transform="translate(-589.48 -616.4)"></path><path class="cls-2" d="M720.18,832.67a2.82,2.82,0,0,0-1.14-1.59,7,7,0,0,0-4.45-.81,18.65,18.65,0,0,1-2.16-5.71,3.65,3.65,0,0,0,2-.72,1.46,1.46,0,0,0,.33-.12c1.43-.77,1.44-3,.43-4.24a8.38,8.38,0,0,0-4.19-2.34c1.12,0,2.11.68,3.19.94s2.55-.2,2.61-1.31a2.42,2.42,0,0,0-.23-1c-.25-.64-.5-1.28-.74-1.92a2.23,2.23,0,0,0-1-1.31,5.54,5.54,0,0,0-1.15-.2c-1.26-.26-2-1.72-3.25-2a5.64,5.64,0,0,0-2.75.58c-.91.27-2.13.17-2.48-.71a8.94,8.94,0,0,0,3-2.87,3,3,0,0,0-.54-3.79,4.41,4.41,0,0,0-3.15-.44c-1.21.13-2.7.5-3,1.69a3.15,3.15,0,0,0-3.72,2.71l-3.14-.12c.81-1,2-1.64,2.71-2.72s.43-2.94-.84-3.13c-.47-.07-1,.11-1.4,0s-.6-.37-.94-.36a1.21,1.21,0,0,0-.66.3l-6.32,4.72c.5-1.42,1-2.84,1.52-4.26s.79-3.09-.4-3.81-2.7.51-2.85,1.84a2.14,2.14,0,0,0-2.48,2.14,2.18,2.18,0,0,0-2.35,3.48,6.24,6.24,0,0,0-3.08,1.13,1.9,1.9,0,0,0-3.14-1.11,3.22,3.22,0,0,0-.6-1.85,1.13,1.13,0,0,0-1.71-.08,2.21,2.21,0,0,0-3.71-1.94l-1.17-1.25a2.92,2.92,0,0,0-2.72,1.63c-.39,1,.47,2.46,1.57,2.29-.78,0-.52,1.28,0,1.88l2.08,2.54a2.45,2.45,0,0,0-3-.08,1.89,1.89,0,0,0-2.73.19,1.53,1.53,0,0,0-2.72.64c-.23-.5-.93-.49-1.47-.4a3.57,3.57,0,0,0-2.13.89c-.53.58-.45,1.73.3,2-.69-.33-1.51.46-1.47,1.23a2.79,2.79,0,0,0,1.22,1.87,6.19,6.19,0,0,1,1.67,1.55,3.2,3.2,0,0,0-2.23-.32,8.41,8.41,0,0,0-3.94,1c-.27-.52-1-.5-1.59-.35a9.36,9.36,0,0,0-4.6,2.89c-.57.65-1,1.61-.59,2.35a2.35,2.35,0,0,0,.92.72l4.4,2.35a11.57,11.57,0,0,0-5.53,4.47c-.82.54-1.89.66-2.62,1.32s-.57,2.27.41,2.2a1.8,1.8,0,0,0-.39,2.12,1.75,1.75,0,0,0,.71.69,2.53,2.53,0,0,0,.49.49,3.21,3.21,0,0,0,1.18.53,2.19,2.19,0,0,0,2,.75,9.29,9.29,0,0,0-1.87,2.51,3.79,3.79,0,0,0,.25,3.89c0,.06.11.1.16.15a1.86,1.86,0,0,0,.88,1.13,1.54,1.54,0,0,0-.08,1,4.14,4.14,0,0,0-.48,7.3c1,.62,2.81.38,2.83-.81a3.24,3.24,0,0,0,2.55,1.63,3.12,3.12,0,0,0,1.9,4.18A3.33,3.33,0,0,0,654,864.3a2.54,2.54,0,1,0,4.9,1.37,5.5,5.5,0,0,0,2.06,2.26,1.87,1.87,0,0,0,2.59-.85,3.49,3.49,0,0,0,5.23,1.34,2.27,2.27,0,0,0,4.52.12l5.83-.42a21.5,21.5,0,0,0,3.84-.52,10.39,10.39,0,0,0,4.31-2.34,3.71,3.71,0,0,1,1.3-.9,3.61,3.61,0,0,1,1.8.17,9.47,9.47,0,0,0,8.83-2.68,4.75,4.75,0,0,1,1.13-1,4.24,4.24,0,0,1,1.7-.35,17.15,17.15,0,0,0,4.2-.87,4.51,4.51,0,0,0,2.87-2.15c.49-1.13-.27-2.78-1.5-2.68a2.67,2.67,0,0,1,.52-2.26,1.58,1.58,0,0,1,2.14-.22,1.14,1.14,0,0,1-.4,1.89c1.37.83,3.34-.58,3.27-2.18a3.15,3.15,0,0,0-3.34-2.75,7.28,7.28,0,0,0-.13-3.53,2.6,2.6,0,0,0,3.56.18,4.48,4.48,0,0,0,3,1.9,2.69,2.69,0,0,0,2.86-1.8,1.93,1.93,0,0,0-2-2.37,2.31,2.31,0,0,0-2.26-3.2,3.59,3.59,0,0,0-2.42-3.67,1.9,1.9,0,0,0,2.62-1.21c.81,1.13,2.6.73,3.76,0A2.53,2.53,0,0,0,720.18,832.67Z" transform="translate(-589.48 -616.4)"></path><path class="cls-9" d="M720.18,832.67a1.87,1.87,0,0,1,.09.47,2,2,0,0,1-.36,1.38,4.57,4.57,0,0,1-1.86,1.45,3.84,3.84,0,0,1-1.49.35,1.9,1.9,0,0,1-1.59-.72l.13,0a2,2,0,0,1-2.73,1.26l.06-.15a3.68,3.68,0,0,1,2.5,3.76l-.11-.11a2.23,2.23,0,0,1,2.07.95,2.28,2.28,0,0,1,.3,2.41l-.12-.17a1.94,1.94,0,0,1,2,1.35,2.12,2.12,0,0,1-.83,2.48,3.06,3.06,0,0,1-2.79.43,5,5,0,0,1-2.4-1.8l.2,0a2.74,2.74,0,0,1-3.76-.18l.25-.14a7.51,7.51,0,0,1,.14,3.61l-.16-.19a3.57,3.57,0,0,1,2.22.67,2.93,2.93,0,0,1,1.27,2,2.48,2.48,0,0,1-1,2.24,2.24,2.24,0,0,1-2.49.29l-.39-.24.44-.07a.92.92,0,0,0,.58-1.14,1,1,0,0,0-1.15-.74,1.57,1.57,0,0,0-1.28.9,2.64,2.64,0,0,0-.19,1.69l-.19-.14a1.5,1.5,0,0,1,1.19.47,2.36,2.36,0,0,1,.51,2.4,2.9,2.9,0,0,1-.72,1,6.17,6.17,0,0,1-2.17,1.23,16.76,16.76,0,0,1-2.43.66c-1.62.45-3.57-.1-4.55,1.49a9.56,9.56,0,0,1-4.56,2.72,9.94,9.94,0,0,1-2.72.33,13.42,13.42,0,0,1-2.72-.42,1.64,1.64,0,0,0-1.19.21,8.82,8.82,0,0,0-1,.87,11.06,11.06,0,0,1-2.4,1.55,15,15,0,0,1-5.65,1.17l-5.85.43.21-.2a2.49,2.49,0,0,1-5-.13l.37.17a3.74,3.74,0,0,1-5.6-1.44l.44,0a1.72,1.72,0,0,1-1.18,1.12,2.44,2.44,0,0,1-1.66-.09,5.45,5.45,0,0,1-2.23-2.38l.43-.06a2.78,2.78,0,1,1-5.36-1.49l.17.29a3.32,3.32,0,0,1-2.28-2.39,3.38,3.38,0,0,1,.79-3.38l.1.41a3.37,3.37,0,0,1-2-4.53l.2.35a3.48,3.48,0,0,1-2.75-1.75l.45-.12a1.22,1.22,0,0,1-.32.83,1.65,1.65,0,0,1-.74.45,2.78,2.78,0,0,1-1.64,0,4.1,4.1,0,0,1-2.24-2.29,4.28,4.28,0,0,1,0-3.26,4.48,4.48,0,0,1,2.28-2.41l-.14.29a1.85,1.85,0,0,1,.09-1.2l.12.32a2.14,2.14,0,0,1-1-1.28l.06.11a3.69,3.69,0,0,1-.7-3.66,8.11,8.11,0,0,1,2.16-3.24l.21.42a2.47,2.47,0,0,1-2.17-.84l.13.08a3.13,3.13,0,0,1-1.81-1.11l.08.07a1.89,1.89,0,0,1-1-1.47,2,2,0,0,1,.64-1.74l.19.43a1,1,0,0,1-.82-.35,1.45,1.45,0,0,1-.3-.77,1.81,1.81,0,0,1,.53-1.52c.82-.72,1.89-.83,2.64-1.34l-.07.07a11.78,11.78,0,0,1,5.65-4.56l0,.46-2-1.08-1.53-.82a12.93,12.93,0,0,1-1.54-.89,1.6,1.6,0,0,1-.53-.87,1.9,1.9,0,0,1,.1-1,4.14,4.14,0,0,1,1-1.5,9.67,9.67,0,0,1,2.83-2,8.8,8.8,0,0,1,1.65-.6,2.45,2.45,0,0,1,.94-.08,1.1,1.1,0,0,1,.88.57l-.36-.1a7.13,7.13,0,0,1,3.16-1c.54-.06,1.06-.12,1.62-.14a2.71,2.71,0,0,1,1.68.42l-.36.33c-.53-.91-1.72-1.33-2.46-2.34a1.84,1.84,0,0,1-.34-1.84,1.58,1.58,0,0,1,.65-.75,1.11,1.11,0,0,1,1-.07l-.18.46a1.12,1.12,0,0,1-.71-.68,1.67,1.67,0,0,1-.08-.91,1.62,1.62,0,0,1,.42-.82,2.33,2.33,0,0,1,.72-.5,6.17,6.17,0,0,1,1.58-.42,2.74,2.74,0,0,1,.86,0,1,1,0,0,1,.8.57l-.47.08a1.78,1.78,0,0,1,3.19-.74l-.42,0a2.14,2.14,0,0,1,3.11-.21l-.34,0a2.7,2.7,0,0,1,3.36.08l-.34.34c-.59-.72-1.18-1.43-1.76-2.15a3.16,3.16,0,0,1-.76-1.25,1.77,1.77,0,0,1,0-.8.81.81,0,0,1,.24-.43.76.76,0,0,1,.46-.18l0,.48a1.62,1.62,0,0,1-1.62-.86,2.06,2.06,0,0,1-.19-1.81,3.16,3.16,0,0,1,2.91-1.73h.11l.07.08,1.17,1.24h-.34a2.45,2.45,0,0,1,4.11,2.15l-.43-.17a1.17,1.17,0,0,1,1.11-.44,1.59,1.59,0,0,1,1,.53,3.56,3.56,0,0,1,.64,2l-.41-.13a2,2,0,0,1,2.17-.43,2,2,0,0,1,1.37,1.69l-.37-.18a6.43,6.43,0,0,1,3.2-1.17l-.16.38a2.41,2.41,0,0,1,2.6-3.84l-.3.23a2.37,2.37,0,0,1,2.76-2.37l-.27.19a2.67,2.67,0,0,1,.79-1.55,2.22,2.22,0,0,1,1.59-.69,1.73,1.73,0,0,1,1.47.95,3,3,0,0,1,.23,1.67,13.55,13.55,0,0,1-.89,3c-.35,1-.7,1.94-1,2.9l-.33-.24q2-1.49,3.91-2.91l1.91-1.42a4.94,4.94,0,0,1,1-.69,1,1,0,0,1,.71.07c.2.09.36.2.51.25a3,3,0,0,0,1.08,0,1.55,1.55,0,0,1,1.19.49,2.53,2.53,0,0,1,.38,2.36,4.32,4.32,0,0,1-1.4,1.86,13.54,13.54,0,0,0-1.6,1.5l-.14-.33,3.14.13-.2.18a3.36,3.36,0,0,1,3.95-2.89l-.22.15a2.16,2.16,0,0,1,1.5-1.49,7.85,7.85,0,0,1,2-.38,5.67,5.67,0,0,1,2,.09,2.47,2.47,0,0,1,1.58,1.24,3.66,3.66,0,0,1-.42,3.71,10.53,10.53,0,0,1-2.73,2.41l.06-.19a1.26,1.26,0,0,0,1.13.72,3.1,3.1,0,0,0,1.47-.21,10.75,10.75,0,0,1,1.49-.47,2.31,2.31,0,0,1,1.57.2c.94.49,1.52,1.35,2.37,1.69.4.19.87.1,1.38.27a1.77,1.77,0,0,1,1,1.07l1,2.53a1.57,1.57,0,0,1,0,1.37,1.77,1.77,0,0,1-1.08.8,3,3,0,0,1-1.29.1,6.34,6.34,0,0,1-1.19-.36,6.19,6.19,0,0,0-2.21-.62l0-.24a14.41,14.41,0,0,1,2.64,1.06,4.77,4.77,0,0,1,1.91,1.81,3.48,3.48,0,0,1,.33,2.39,2.17,2.17,0,0,1-1.46,1.64h0a3.76,3.76,0,0,1-2.09.73l.09-.11a18.53,18.53,0,0,0,2.12,5.69l0,0a11.18,11.18,0,0,1,2.94.17,4.17,4.17,0,0,1,1.84.93,2.86,2.86,0,0,1,.69,1,2,2,0,0,1,.12.38,3,3,0,0,0-.85-1.32,4,4,0,0,0-1.82-.88,11.12,11.12,0,0,0-2.92-.14h0l0,0a18.5,18.5,0,0,1-2.18-5.72l0-.1h.11a3.63,3.63,0,0,0,2-.7h0a2,2,0,0,0,1.32-1.5,3.37,3.37,0,0,0-.32-2.25,4.53,4.53,0,0,0-1.84-1.7,13.73,13.73,0,0,0-2.59-1l-.74-.24H711a6.3,6.3,0,0,1,2.3.63,6,6,0,0,0,1.14.34,2.58,2.58,0,0,0,1.17-.09,1.53,1.53,0,0,0,.92-.68,1.32,1.32,0,0,0,0-1.15l-1-2.5a1.5,1.5,0,0,0-.83-.91,13.57,13.57,0,0,1-1.4-.27c-1-.39-1.54-1.27-2.39-1.69s-1.85-.07-2.81.29a3.5,3.5,0,0,1-1.61.24,1.62,1.62,0,0,1-1.41-.93l0-.13.11-.07a10.17,10.17,0,0,0,2.64-2.34,3.29,3.29,0,0,0,.38-3.35,2.08,2.08,0,0,0-1.36-1,5.3,5.3,0,0,0-1.87-.08,7.11,7.11,0,0,0-1.9.37,1.79,1.79,0,0,0-1.27,1.21l0,.19-.19,0a3,3,0,0,0-3.48,2.55l0,.18h-.18l-3.15-.12-.39,0,.25-.3a13.81,13.81,0,0,1,1.63-1.54,4.1,4.1,0,0,0,1.29-1.69,2.15,2.15,0,0,0-.3-2,1.14,1.14,0,0,0-.88-.36,3.24,3.24,0,0,1-1.23,0c-.42-.17-.7-.42-1-.31a5.26,5.26,0,0,0-.91.62l-1.91,1.43-3.91,2.91-.56.43.23-.67,1-2.91a13.89,13.89,0,0,0,.87-2.94,2.51,2.51,0,0,0-.2-1.42,1.29,1.29,0,0,0-1.08-.71,2.15,2.15,0,0,0-1.93,1.85l0,.25-.24-.06a1.93,1.93,0,0,0-2.21,1.91l0,.33-.32-.1a1.95,1.95,0,0,0-2.09,3.11l.29.34-.45,0a6,6,0,0,0-3,1.09l-.35.26v-.44a1.67,1.67,0,0,0-2.73-1l-.35.4-.06-.52a3.18,3.18,0,0,0-.53-1.71c-.32-.4-1.1-.52-1.36-.12l-.59.92.16-1.09a2,2,0,0,0-3.31-1.73l-.17.17-.17-.18-1.17-1.25.18.08a2.68,2.68,0,0,0-2.47,1.43c-.38.85.36,2.16,1.29,2l0,.49c-.15,0-.2.06-.24.22a1.21,1.21,0,0,0,0,.56,2.6,2.6,0,0,0,.67,1.08c.58.72,1.17,1.43,1.76,2.15l-.35.35a2.21,2.21,0,0,0-2.73-.08l-.17.15-.16-.17a1.65,1.65,0,0,0-2.36.17l-.24.32-.17-.35c-.46-.87-2.24-.46-2.26.53l0,1.24-.44-1.15c-.11-.31-.67-.34-1.14-.26a5.55,5.55,0,0,0-1.44.38,1.37,1.37,0,0,0-.86,1c-.09.43.08.93.44,1l-.18.47c-.35-.19-.85.14-1,.57a1.39,1.39,0,0,0,.29,1.35c.61.87,1.8,1.27,2.49,2.37l.65,1.05-1-.71c-.77-.54-1.92-.28-3-.19a6.55,6.55,0,0,0-2.94.91l-.25.16-.12-.26c-.15-.34-.76-.36-1.25-.23a9.61,9.61,0,0,0-1.55.57,9.22,9.22,0,0,0-2.69,1.95,3.84,3.84,0,0,0-.9,1.32,1.07,1.07,0,0,0,.29,1.29,10.86,10.86,0,0,0,1.45.83l1.52.82,2,1.08.49.26-.52.2a11.35,11.35,0,0,0-5.41,4.36l0,0,0,0c-.91.59-1.94.71-2.59,1.3a1.34,1.34,0,0,0-.36,1.1c0,.4.26.71.59.67l.78-.09-.6.53a1.55,1.55,0,0,0-.48,1.32,1.34,1.34,0,0,0,.75,1.08l0,0,0,0a2.64,2.64,0,0,0,1.53.93h.08l0,.07a2,2,0,0,0,1.72.67l.75-.12-.54.54a7.62,7.62,0,0,0-2,3,3.22,3.22,0,0,0,.57,3.17l.05,0,0,.06a1.63,1.63,0,0,0,.76,1l.2.1-.09.21a1.3,1.3,0,0,0-.07.88l.05.2-.19.09a4,4,0,0,0-2,2.14,3.72,3.72,0,0,0,0,2.89,3.63,3.63,0,0,0,1.94,2,2.24,2.24,0,0,0,1.33,0,.88.88,0,0,0,.73-.81v-1l.46.84a3,3,0,0,0,2.36,1.5l.36,0-.16.33a2.89,2.89,0,0,0,1.75,3.85l.42.11-.32.3a2.87,2.87,0,0,0-.66,2.9,2.84,2.84,0,0,0,1.93,2.06l.24.06-.07.23a2.32,2.32,0,1,0,4.46,1.25l.14-.54.28.48a5.1,5.1,0,0,0,2,2.2,1.65,1.65,0,0,0,2.21-.73l.18-.68.25.66a3.29,3.29,0,0,0,4.88,1.25l.35-.3,0,.46a2.12,2.12,0,0,0,2.07,2,2.15,2.15,0,0,0,2-1.86v-.19h.19l5.85-.42a14.64,14.64,0,0,0,5.5-1.13,10.27,10.27,0,0,0,2.3-1.48,9.12,9.12,0,0,1,1.1-.9,2,2,0,0,1,1.46-.27,12.86,12.86,0,0,0,2.67.42,9.57,9.57,0,0,0,2.61-.31,9.23,9.23,0,0,0,4.37-2.59,5,5,0,0,1,1-.91,3,3,0,0,1,1.3-.39,20.17,20.17,0,0,0,2.49-.3,18.35,18.35,0,0,0,2.37-.64,5.73,5.73,0,0,0,2-1.15,2.05,2.05,0,0,0,.7-2,1.48,1.48,0,0,0-1.4-1.31l-.16,0,0-.16a3.09,3.09,0,0,1,.22-1.92,1.94,1.94,0,0,1,1.57-1.08,1.36,1.36,0,0,1,1.52,1,1.26,1.26,0,0,1-.85,1.54l0-.31a1.93,1.93,0,0,0,2.12-.26,2.18,2.18,0,0,0,.9-1.94,3,3,0,0,0-3.16-2.43h-.2l0-.2a7.16,7.16,0,0,0-.12-3.46l-.18-.62.43.48a2.47,2.47,0,0,0,3.35.18l.11-.11.1.13a4.79,4.79,0,0,0,2.26,1.71,2.82,2.82,0,0,0,2.56-.39,1.89,1.89,0,0,0,.76-2.19,1.71,1.71,0,0,0-1.78-1.21l-.22,0,.1-.2a2.21,2.21,0,0,0-2.14-3.06l-.13,0v-.13a3.49,3.49,0,0,0-2.35-3.58l.07-.16a1.82,1.82,0,0,0,2.51-1.14l0-.16.09.13a1.74,1.74,0,0,0,1.48.67,3.72,3.72,0,0,0,1.45-.32,4.48,4.48,0,0,0,1.84-1.4,2.06,2.06,0,0,0,.39-1.32C720.22,832.83,720.16,832.67,720.18,832.67Z" transform="translate(-589.48 -616.4)"></path><path class="cls-10" d="M696.72,876.88c-.28-3.08-.5-5.5-.48-5.5s10.42-2.17,10-12.68c-.2-5.07-1.45-15.48-2.69-24.9a19.59,19.59,0,0,0-20.42-17l-1,.05c-10.89,1.2-16,11.11-14.47,22l3.6,39.85,7.17,14.8c6.63,6.41,19.21-7.41,18.28-16.58Z" transform="translate(-589.48 -616.4)"></path><path class="cls-11" d="M696.3,871.37A25.41,25.41,0,0,1,682.43,868s3.63,7.84,14.06,6.36Z" transform="translate(-589.48 -616.4)"></path><path class="cls-2" d="M701.6,842.9a1.52,1.52,0,0,1-1.37,1.59,1.43,1.43,0,0,1-1.62-1.27,1.52,1.52,0,0,1,1.37-1.59A1.44,1.44,0,0,1,701.6,842.9Z" transform="translate(-589.48 -616.4)"></path><path class="cls-2" d="M701.6,838.26c-.17.21-1.35-.58-3-.49s-2.76,1-2.94.76.08-.44.57-.84a4.16,4.16,0,0,1,2.35-.86,4,4,0,0,1,2.37.64C701.51,837.82,701.69,838.17,701.6,838.26Z" transform="translate(-589.48 -616.4)"></path><path class="cls-2" d="M686.76,843.62a1.51,1.51,0,0,1-1.37,1.59,1.44,1.44,0,0,1-1.61-1.28,1.49,1.49,0,0,1,1.36-1.58A1.43,1.43,0,0,1,686.76,843.62Z" transform="translate(-589.48 -616.4)"></path><path class="cls-2" d="M685.83,839.72c-.17.2-1.35-.58-3-.5s-2.75,1-2.93.77.07-.45.57-.85a4.08,4.08,0,0,1,2.34-.85,4,4,0,0,1,2.38.63C685.73,839.28,685.92,839.62,685.83,839.72Z" transform="translate(-589.48 -616.4)"></path><path class="cls-2" d="M692.25,851.82a10.62,10.62,0,0,1,2.6-.61c.41-.06.79-.16.85-.45a2.14,2.14,0,0,0-.34-1.2L694,846.48c-1.92-4.38-3.33-8-3.15-8.07s1.88,3.42,3.79,7.8c.47,1.08.91,2.11,1.33,3.1a2.36,2.36,0,0,1,.3,1.6,1.05,1.05,0,0,1-.65.64,2.84,2.84,0,0,1-.69.13A10.74,10.74,0,0,1,692.25,851.82Z" transform="translate(-589.48 -616.4)"></path><path class="cls-2" d="M685.94,834.24c-.14.45-1.76.33-3.64.66s-3.39.92-3.66.54c-.12-.18.13-.61.72-1.07a6.48,6.48,0,0,1,5.56-.91C685.63,833.71,686,834,685.94,834.24Z" transform="translate(-589.48 -616.4)"></path><path class="cls-2" d="M700.68,832.87c-.26.39-1.4.09-2.73.17s-2.45.42-2.74.06c-.12-.18,0-.56.49-.94a3.84,3.84,0,0,1,2.18-.76,3.77,3.77,0,0,1,2.23.57C700.61,832.32,700.79,832.68,700.68,832.87Z" transform="translate(-589.48 -616.4)"></path><path class="cls-11" d="M694.07,855.87a7,7,0,0,1-.68,1.81,2.3,2.3,0,0,1-1.52,1.12,2,2,0,0,1-1.83-.75,3.19,3.19,0,0,1-.7-1.91c0-.62.16-1.39.76-1.53a1.56,1.56,0,0,1,.77.08l3.38.95" transform="translate(-589.48 -616.4)"></path><path class="cls-2" d="M693.07,858.68a4.68,4.68,0,0,1-1.75,0,2.47,2.47,0,0,1-1.43-1,2.62,2.62,0,0,1-.28-2.12,2.91,2.91,0,0,1,.22-.51c.12-.15.09-.14.24-.14l.54.15.55.16,1.93.51a6.29,6.29,0,0,0,1.83.34,5.9,5.9,0,0,0-1.71-.73c-.53-.19-1.18-.4-1.89-.64l-.55-.17a4.75,4.75,0,0,0-.62-.18.77.77,0,0,0-.48.07.81.81,0,0,0-.32.32,2.73,2.73,0,0,0-.3.65,3.06,3.06,0,0,0,.39,2.58,2.8,2.8,0,0,0,1.79,1.15,2.76,2.76,0,0,0,1.41-.1C693,858.84,693.09,858.71,693.07,858.68Z" transform="translate(-589.48 -616.4)"></path><path class="cls-2" d="M705.78,824.91a11.68,11.68,0,0,0-.33-1.56,4.75,4.75,0,0,0-1.52-1.88c-2.13-1.84-4.37-3.74-6.93-4.23-1.56-.3-3.15,0-4.72-.34a26.66,26.66,0,0,1-2.86-.84,23,23,0,0,0-11.93.1,18.88,18.88,0,0,0-6.26,2.47,23.1,23.1,0,0,0-5.4,5.57,35,35,0,0,0-5.74,10.67,17.12,17.12,0,0,0-.31,9.75c1,3.19,3.43,5.94,6.25,6.22l.89-1.39,1.44-2.07c-.21.8,0,.73.72,1.06a1.34,1.34,0,0,0,1.81-.8c.6.6,1.65-.26,1.36-1.12.68.26,1.37-.7,1.06-1.45.76.17,1-1.06,1.28-1.9a10.54,10.54,0,0,1,.57-1.29,8.22,8.22,0,0,0,.54-4.52c.79-1.21.78-2.9.74-4.46l-.06-2.91.43-.75a1.58,1.58,0,0,0,1.25,1.34,3.35,3.35,0,0,0,1.73-.28l1.67-.58,1.11.15a4.44,4.44,0,0,0,.72,2.75,2.77,2.77,0,0,0,1.22,1.41.81.81,0,0,0,1-1,.92.92,0,0,0,1.36-.42,3,3,0,0,0,.13-1.83,7.55,7.55,0,0,0-2-4l3.38,2.36a1.45,1.45,0,0,0,.8.34.79.79,0,0,0,1,.74,2,2,0,0,0,1-.9c.62-.87,1.2-2.27.43-3a.65.65,0,0,0,.15-1l3.75,2.08c-.37-.15-.66.43-.53.85a1.82,1.82,0,0,0,.85.9,2.68,2.68,0,0,0-.15,1.66c-.69-.46-1.46.69-1.13,1.53a1.93,1.93,0,0,0,2,1.14,1.36,1.36,0,0,0,1.37-1.21c.76.05,1.33-1.07.94-1.87.59.28.92-.75.84-1.48a10.58,10.58,0,0,0-1.08-3.68c.08.08.2.12.28,0a.18.18,0,0,0,0-.15l2.42,4.08a10.94,10.94,0,0,1,1.6,3.71c.09.56.26,1.31.74,1.29a.72.72,0,0,0,.35-.15,7.06,7.06,0,0,0,2.53-4,5.41,5.41,0,0,0,.23-1.7A22.65,22.65,0,0,0,705.78,824.91Z" transform="translate(-589.48 -616.4)"></path><path class="cls-9" d="M690.74,824.37a1.55,1.55,0,0,0,.31-.89,1.15,1.15,0,0,0-.44-.92,1.2,1.2,0,0,0-1.27-.13l-.25.13.07-.28a1.28,1.28,0,0,0-.55-1.37,1.26,1.26,0,0,0-1.59.29l-.24-.16a.56.56,0,0,0,.07-.18.77.77,0,0,0-.19-.59.88.88,0,0,0-.58-.25,1.51,1.51,0,0,0-.63.12,1.71,1.71,0,0,1-.7.27c-.32,0-.49-.22-.66-.29a2.35,2.35,0,0,0-.54-.24,2.9,2.9,0,0,0-2.51.5c-.3.24-.42.41-.44.39a1.43,1.43,0,0,1,.36-.48,2.89,2.89,0,0,1,2.65-.64,3.09,3.09,0,0,1,.61.24c.2.11.37.26.53.25a1.8,1.8,0,0,0,.58-.25,1.66,1.66,0,0,1,.77-.16,1.16,1.16,0,0,1,.77.34,1,1,0,0,1,.27.84.86.86,0,0,1-.11.28l-.24-.17a1.49,1.49,0,0,1,2.61,1.33l-.17-.15a1.44,1.44,0,0,1,1.51.2,1.27,1.27,0,0,1,.45,1.09,1.36,1.36,0,0,1-.25.71C690.83,824.33,690.75,824.38,690.74,824.37Z" transform="translate(-589.48 -616.4)"></path><path class="cls-9" d="M698.19,825.16a2,2,0,0,0,.43-.88,1.48,1.48,0,0,0-.23-1.08,1.53,1.53,0,0,0-1.25-.65h-.21l.11-.18a1.79,1.79,0,0,0,.26-1.64,1,1,0,0,0-.67-.56.79.79,0,0,0-.84.24l-.69,1,.44-1.12a1.5,1.5,0,0,0-.1-1.27,1.39,1.39,0,0,0-1.12-.7,1.43,1.43,0,0,0-1,.24l-.31.21.09-.37c.12-.52-.47-1-1-1a2.44,2.44,0,0,0-1.46.61l-.26.19,0-.32a1.09,1.09,0,0,0-.5-1,2,2,0,0,0-1-.29,4.93,4.93,0,0,0-1.84.32,8.23,8.23,0,0,0-1.47.78,1.42,1.42,0,0,1,.33-.3,4.44,4.44,0,0,1,1.08-.63,4.88,4.88,0,0,1,1.9-.39,2.09,2.09,0,0,1,1.18.31,1.3,1.3,0,0,1,.63,1.21l-.21-.12a2.63,2.63,0,0,1,1.63-.68,1.31,1.31,0,0,1,.91.38,1,1,0,0,1,.34,1l-.22-.15a1.75,1.75,0,0,1,2.48.56,1.75,1.75,0,0,1,.12,1.51l-.25-.13a1,1,0,0,1,1.13-.34,1.22,1.22,0,0,1,.85.72,2,2,0,0,1-.31,1.87l-.1-.17a1.68,1.68,0,0,1,1.41.77,1.59,1.59,0,0,1,.2,1.2,1.51,1.51,0,0,1-.35.69C698.27,825.12,698.19,825.17,698.19,825.16Z" transform="translate(-589.48 -616.4)"></path><path class="cls-9" d="M713.85,824.2a1.07,1.07,0,0,0-.49-.74,1.4,1.4,0,0,0-1-.2,4.14,4.14,0,0,0-1.32.53l-.15.08v-.17a1.26,1.26,0,0,0-1.19-1.06,3.6,3.6,0,0,0-2,.63l-.85.47.68-.69a1,1,0,0,0-.29-1.45,2.32,2.32,0,0,0-1.86-.16l-.09,0-.56.14.43-.39a1.11,1.11,0,0,0-.38-1.72,1.69,1.69,0,0,0-1.82.45l-.52.56.3-.7a2.54,2.54,0,0,0-.39-2.53,2.36,2.36,0,0,0-1.86-.83,2.6,2.6,0,0,0-1.33.38c-.28.17-.41.3-.42.29s0,0,.08-.11a1.32,1.32,0,0,1,.29-.25,2.6,2.6,0,0,1,3.42.38,2.74,2.74,0,0,1,.45,2.78l-.22-.15a1.94,1.94,0,0,1,2.14-.53,1.43,1.43,0,0,1,.78,1,1.28,1.28,0,0,1-.32,1.24l-.14-.26.09,0a2.59,2.59,0,0,1,2.09.21,1.48,1.48,0,0,1,.58.88,1.09,1.09,0,0,1-.25,1l-.16-.22a3.86,3.86,0,0,1,2.15-.64,1.48,1.48,0,0,1,1.37,1.3l-.15-.09a4.42,4.42,0,0,1,1.4-.51,1.52,1.52,0,0,1,1.1.28,1.1,1.1,0,0,1,.41.58C713.88,824.11,713.86,824.2,713.85,824.2Z" transform="translate(-589.48 -616.4)"></path><path class="cls-9" d="M703.55,810.68s-.11.11-.36.2a5,5,0,0,1-1.11.22,3.48,3.48,0,0,0-1.58.49,1,1,0,0,0-.46.78.75.75,0,0,0,.42.81l-.18.17c-.11-.36-.61-.53-1.06-.71a4.81,4.81,0,0,0-1.44-.39,1.78,1.78,0,0,0-1.35.42,1.18,1.18,0,0,0-.43,1.16l.1.35-.31-.2a3.27,3.27,0,0,0-2-.5,3.73,3.73,0,0,0-1.59.48,4.5,4.5,0,0,0-1.12,1,1.17,1.17,0,0,1,.2-.36,3.24,3.24,0,0,1,.84-.77,3.69,3.69,0,0,1,1.65-.56,3.47,3.47,0,0,1,2.17.5l-.21.15a1.44,1.44,0,0,1,.51-1.44,2,2,0,0,1,1.56-.5,5.08,5.08,0,0,1,1.53.41,5.23,5.23,0,0,1,.69.31,1.05,1.05,0,0,1,.52.59l.08.26-.25-.09a1,1,0,0,1-.59-1.09,1.29,1.29,0,0,1,.58-1,3.33,3.33,0,0,1,1.7-.46,6.61,6.61,0,0,0,1.1-.15C703.42,810.73,703.54,810.67,703.55,810.68Z" transform="translate(-589.48 -616.4)"></path><path class="cls-9" d="M688.38,807.27a2.77,2.77,0,0,0-.75.22,1.84,1.84,0,0,0-.65.56,1.59,1.59,0,0,0-.32,1.05v.15l-.16,0a.94.94,0,0,0-1,.75,2.85,2.85,0,0,0,.18,1.6l.17.56-.42-.41-.07-.07a1.24,1.24,0,0,0-1-.26,1.4,1.4,0,0,0-.89.55,2.22,2.22,0,0,0-.33,1.8,4.66,4.66,0,0,0,.51,1.2c.17.27.27.41.25.43a1.51,1.51,0,0,1-.34-.37,3.62,3.62,0,0,1-.62-1.21,2.41,2.41,0,0,1,.31-2,1.64,1.64,0,0,1,2.36-.35l.09.09-.25.14a3,3,0,0,1-.17-1.77,1.22,1.22,0,0,1,1.28-.92l-.15.13a1.79,1.79,0,0,1,.41-1.18,1.9,1.9,0,0,1,.75-.57,1.66,1.66,0,0,1,.6-.13C688.31,807.24,688.38,807.26,688.38,807.27Z" transform="translate(-589.48 -616.4)"></path><path class="cls-9" d="M677,817.94s-.15,0-.4,0a2.5,2.5,0,0,1-1-.48,2.61,2.61,0,0,1-.88-1.36,1.31,1.31,0,0,0-.31-.76c-.19-.18-.56-.25-.83-.55a1.48,1.48,0,0,1,.08-2l0,.22a4.61,4.61,0,0,1-1.49-1.54,1.69,1.69,0,0,1-.32-.76s.16.26.45.68a5.41,5.41,0,0,0,1.5,1.39l.15.09-.13.13a1.2,1.2,0,0,0,0,1.61c.18.23.51.29.8.54a1.54,1.54,0,0,1,.39.91,2.44,2.44,0,0,0,.75,1.26A3.55,3.55,0,0,0,677,817.94Z" transform="translate(-589.48 -616.4)"></path><path class="cls-9" d="M673.69,821.05a.62.62,0,0,1-.23.07,4.23,4.23,0,0,1-.7,0,3.89,3.89,0,0,1-2.32-.9l.19,0a2.56,2.56,0,0,1-1.57,1.16,2.71,2.71,0,0,1-1.1,0,1.59,1.59,0,0,1-1-.59,1.92,1.92,0,0,1-.18-.4.56.56,0,0,0-.22-.24,1.82,1.82,0,0,0-.71-.19,2.42,2.42,0,0,1-.79-.2.82.82,0,0,1-.52-.65l.2.1a2.64,2.64,0,0,1-1.76.31,2.77,2.77,0,0,1-1.27-.56,2.22,2.22,0,0,1-.59-.67.77.77,0,0,1-.12-.3,3.74,3.74,0,0,0,.8.84,2.79,2.79,0,0,0,1.21.47,2.44,2.44,0,0,0,1.59-.32l.18-.11,0,.21a.56.56,0,0,0,.38.43,1.9,1.9,0,0,0,.7.16,2.16,2.16,0,0,1,.83.23.91.91,0,0,1,.33.37c.07.14.11.28.17.37a1.33,1.33,0,0,0,.83.45,2.16,2.16,0,0,0,1,0,2.28,2.28,0,0,0,1.42-1l.08-.13.11.1a4,4,0,0,0,2.17.94C673.35,821.08,673.69,821,673.69,821.05Z" transform="translate(-589.48 -616.4)"></path><path class="cls-9" d="M652.14,833.37l0-.09c0-.07-.06-.17-.09-.3a3.08,3.08,0,0,1,0-1.17,6.76,6.76,0,0,1,.53-1.74,7.45,7.45,0,0,1,.51-1,1.78,1.78,0,0,1,.45-.46.77.77,0,0,1,.71-.11l-.17.15a2,2,0,0,1,.64-2,2,2,0,0,1,2.26-.18l-.22.15a1.29,1.29,0,0,1,.38-1.16,1.31,1.31,0,0,1,1.84,0l-.24.13a.8.8,0,0,1,.2-.72,1.12,1.12,0,0,1,.61-.37,2.5,2.5,0,0,1,1.29.13l-.17.08a2.09,2.09,0,0,1,1.13-1.06,3,3,0,0,1,1.42-.22,7.64,7.64,0,0,1,2.35.77l-.14.15a.52.52,0,0,1,0-.51.92.92,0,0,1,.32-.33,1.49,1.49,0,0,1,.76-.23,4,4,0,0,1,1.2.18,3.58,3.58,0,0,1,.71.28,1,1,0,0,1,.23.15s-.33-.16-1-.32a4.38,4.38,0,0,0-1.17-.12,1.36,1.36,0,0,0-.65.22c-.21.13-.37.37-.23.57l.21.29-.34-.14a7.43,7.43,0,0,0-2.28-.7,2.57,2.57,0,0,0-1.3.21,1.85,1.85,0,0,0-1,.92l0,.11-.12,0a2.42,2.42,0,0,0-1.15-.12c-.34.07-.68.42-.6.75l.12.5-.37-.37a1,1,0,0,0-.49-.26,1,1,0,0,0-.94.25,1.08,1.08,0,0,0-.3.91l.06.31-.27-.16a1.73,1.73,0,0,0-1.94.14,1.79,1.79,0,0,0-.57,1.7l.06.24-.22-.09c-.34-.14-.68.17-.88.46a6.47,6.47,0,0,0-.51,1,7,7,0,0,0-.58,1.68A3.92,3.92,0,0,0,652.14,833.37Z" transform="translate(-589.48 -616.4)"></path><path class="cls-9" d="M655,841.62s-.07,0-.17-.16a5.25,5.25,0,0,1-.43-.53,2.12,2.12,0,0,1-.39-1,1.62,1.62,0,0,1,.12-.7,1.13,1.13,0,0,1,.56-.58l0,.16a1.37,1.37,0,0,1,1.13-2.29l-.1.23a1.12,1.12,0,0,1-.15-1.3,1.65,1.65,0,0,1,1.15-.76c.24,0,.47,0,.65-.1a.57.57,0,0,0,.35-.41,2.23,2.23,0,0,1,.28-.68,1.31,1.31,0,0,1,.63-.48,7.3,7.3,0,0,1,1.54-.26,1.74,1.74,0,0,0,1.19-.55c.12-.17.2-.4.32-.62a1.5,1.5,0,0,1,.52-.54,1.53,1.53,0,0,1,1.36-.12l-.14.2a1.16,1.16,0,0,1,0-1.36,1.61,1.61,0,0,1,1-.7,5.6,5.6,0,0,1,1.94,0,7,7,0,0,1,1.2.29,1.33,1.33,0,0,1,.4.17s-.58-.19-1.62-.31a5.77,5.77,0,0,0-1.86.1,1.49,1.49,0,0,0-.86.62.93.93,0,0,0,0,1.07l.38.41-.52-.21a1.3,1.3,0,0,0-1.13.13,1.11,1.11,0,0,0-.42.44,4.92,4.92,0,0,1-.33.64,1.52,1.52,0,0,1-.63.49,2.83,2.83,0,0,1-.75.18,7.62,7.62,0,0,0-1.48.26.92.92,0,0,0-.49.37,2.28,2.28,0,0,0-.25.61.87.87,0,0,1-.53.59,5.21,5.21,0,0,1-.69.1,1.37,1.37,0,0,0-1,.61.84.84,0,0,0,.09,1l.27.26-.37,0a1.14,1.14,0,0,0-1,1.89l.1.11-.14.06a1.12,1.12,0,0,0-.6,1.08,2,2,0,0,0,.32,1C654.83,841.36,655.05,841.6,655,841.62Z" transform="translate(-589.48 -616.4)"></path><path class="cls-9" d="M655.11,857.51a.63.63,0,0,1-.3,0,1.91,1.91,0,0,1-.74-.42,2.15,2.15,0,0,1-.67-1.15,2.23,2.23,0,0,1,.36-1.71v.16a4.13,4.13,0,0,1-1-1.33,1.66,1.66,0,0,1-.07-.94,1.15,1.15,0,0,1,.58-.82v.26a1.73,1.73,0,0,1-.95-1.41,2,2,0,0,1,.16-1,1.57,1.57,0,0,1,.66-.71.55.55,0,0,0,.34-.59,2.17,2.17,0,0,1,.07-.88,2.91,2.91,0,0,1,.9-1.32c.35-.34.67-.66,1-.94a4.83,4.83,0,0,1,1.65-1.1,2,2,0,0,1,.52-.12h.19s-.25,0-.67.23a5,5,0,0,0-1.55,1.14l-.94,1a2.76,2.76,0,0,0-.82,1.22,2.06,2.06,0,0,0-.05.79.84.84,0,0,1-.09.5,1.32,1.32,0,0,1-.36.35,1.52,1.52,0,0,0,.08,2.6l.27.12-.26.14a1.17,1.17,0,0,0-.39,1.41,4.22,4.22,0,0,0,.89,1.26l.07.07-.06.08a2.09,2.09,0,0,0-.35,1.53,2,2,0,0,0,.57,1.09A2.68,2.68,0,0,0,655.11,857.51Z" transform="translate(-589.48 -616.4)"></path><path class="cls-9" d="M678,830.25a2.4,2.4,0,0,1-.91-.22,2.58,2.58,0,0,1-.88-.56,1.63,1.63,0,0,1-.47-1.22,1.16,1.16,0,0,1,.08-.32l.09.19a1.39,1.39,0,0,1-.86-.85,1.27,1.27,0,0,1,0-1c.24-.51.61-.61.61-.58s-.27.2-.43.66a1.11,1.11,0,0,0,0,.8,1.15,1.15,0,0,0,.7.66l.14,0-.05.15a.85.85,0,0,0,0,.24,1.4,1.4,0,0,0,.37,1,2.56,2.56,0,0,0,.77.55C677.64,830.08,678,830.2,678,830.25Z" transform="translate(-589.48 -616.4)"></path><path class="cls-9" d="M684.24,826.11a1.61,1.61,0,0,0,0-1.09,1.22,1.22,0,0,0-.82-.8,1.28,1.28,0,0,0-1.35.42l-.16.2-.08-.24a2.43,2.43,0,0,0-.46-.81,1.12,1.12,0,0,0-.8-.41c-.47,0-.93.52-.75.88l-.26.1a2.25,2.25,0,0,0-1-1.33,2.14,2.14,0,0,0-1.32-.29,3.18,3.18,0,0,0-1.18.4s.07-.11.26-.24a2.22,2.22,0,0,1,.9-.34,2.29,2.29,0,0,1,1.46.26,2.45,2.45,0,0,1,1.16,1.46l-.26.1a.82.82,0,0,1,.16-.89,1.16,1.16,0,0,1,.83-.4,1.43,1.43,0,0,1,1,.51,2.64,2.64,0,0,1,.5.91l-.24,0a1.55,1.55,0,0,1,1.64-.48,1.39,1.39,0,0,1,.91,1,1.35,1.35,0,0,1,0,.87C684.33,826,684.25,826.12,684.24,826.11Z" transform="translate(-589.48 -616.4)"></path><path class="cls-10" d="M669,846.54c-.18-.07-7.32-1.77-6.73,5.4s7.67,5.09,7.67,4.88S669,846.54,669,846.54Z" transform="translate(-589.48 -616.4)"></path><path class="cls-11" d="M667.5,854.29s-.12.1-.32.21a1.25,1.25,0,0,1-.93.1,3.11,3.11,0,0,1-1.66-2.66,4.12,4.12,0,0,1,.2-1.81,1.48,1.48,0,0,1,.86-1,.65.65,0,0,1,.77.28c.11.2.08.34.12.35s.14-.13.06-.42a.82.82,0,0,0-.32-.43,1,1,0,0,0-.71-.12,1.75,1.75,0,0,0-1.21,1.22,4.22,4.22,0,0,0-.27,2c.17,1.44,1,2.73,2.08,2.94a1.34,1.34,0,0,0,1.13-.28C667.5,854.46,667.53,854.3,667.5,854.29Z" transform="translate(-589.48 -616.4)"></path><path class="cls-2" d="M716.93,977.53l-62.67.86s-17.52-7.34-22.33-7.53-14.38.41-18.8,7.53c-4.57,7.35-5.2,20.33,8.88,29.76,13.71,9.18,76.42,17.66,85,16.88l15.85-21.27s.16-17.43,0-18.26-2.82-8.3-2.82-8.3Z" transform="translate(-589.48 -616.4)"></path><path class="cls-8" d="M679.42,1007,647,1019l14.8,40.47c3.78-1.65,3.88-25.43,3.88-25.43l21.12-6.87Z" transform="translate(-589.48 -616.4)"></path><g class="cls-12"><path class="cls-3" d="M662.81,1020.91a1.74,1.74,0,0,0-2.3-.45,1.67,1.67,0,0,0-.47,2.27,1.85,1.85,0,0,0,2.44.47,1.74,1.74,0,0,0,.22-2.42" transform="translate(-589.48 -616.4)"></path></g><path class="cls-2" d="M647,1019l3.28-1.22,13,39.34s-.13,2.09-1.47,2.35Z" transform="translate(-589.48 -616.4)"></path><path class="cls-2" d="M666.08,1034.64c-.2.07-.65-.89-1.64-1.63s-2-1-2-1.16,1.26-.33,2.44.58S666.27,1034.62,666.08,1034.64Z" transform="translate(-589.48 -616.4)"></path><path class="cls-2" d="M665.87,1039.53c-.17.12-.82-.62-1.9-1s-2-.24-2.1-.44,1-.73,2.34-.25S666.06,1039.46,665.87,1039.53Z" transform="translate(-589.48 -616.4)"></path><path class="cls-2" d="M661.68,1043.8c-.11-.16.77-.8,2-.69s2,.88,1.9,1-.92-.21-2-.29S661.77,1044,661.68,1043.8Z" transform="translate(-589.48 -616.4)"></path><path class="cls-2" d="M670.72,1032.54c-.21,0-.27-1-.76-2.11s-1.15-1.83-1-2,1.14.41,1.7,1.7S670.91,1032.58,670.72,1032.54Z" transform="translate(-589.48 -616.4)"></path><path class="cls-2" d="M675.17,1029.82a4,4,0,0,1-.73-2,9.64,9.64,0,0,1-.13-2.36,10.27,10.27,0,0,1,.19-1.39,3,3,0,0,1,.26-.78.91.91,0,0,1,1-.48,1.16,1.16,0,0,1,.76.7,3,3,0,0,1,.18.8,8.51,8.51,0,0,1,0,1.42,7.68,7.68,0,0,1-.55,2.32c-.52,1.26-1.15,1.85-1.21,1.79s.36-.75.72-2a8.48,8.48,0,0,0,.36-2.18,8.28,8.28,0,0,0-.07-1.3c0-.47-.17-.84-.4-.88s-.12,0-.21.13a2.62,2.62,0,0,0-.19.58,12.9,12.9,0,0,0-.22,1.29,12.15,12.15,0,0,0,0,2.24A15.05,15.05,0,0,1,675.17,1029.82Z" transform="translate(-589.48 -616.4)"></path><path class="cls-2" d="M674.79,1029.67c-.06-.06.51-.71,1.76-1.25a7.15,7.15,0,0,1,3.74-.47,1.8,1.8,0,0,1,1.5.92,1,1,0,0,1-.26,1.05,2.54,2.54,0,0,1-.67.48,4.58,4.58,0,0,1-1.36.5,4.9,4.9,0,0,1-2.41-.1c-1.34-.4-1.88-1.14-1.82-1.18s.71.44,1.94.68a5,5,0,0,0,2.14,0,4.42,4.42,0,0,0,1.16-.47c.41-.22.69-.51.59-.65s-.52-.43-.92-.47a7.11,7.11,0,0,0-1.28-.1,7.52,7.52,0,0,0-2.17.35C675.52,1029.29,674.86,1029.77,674.79,1029.67Z" transform="translate(-589.48 -616.4)"></path><path class="cls-8" d="M706.2,1002l31.42,14.57-17.93,39.18c-3.64-1.94-1.88-25.65-1.88-25.65l-20.51-8.51Z" transform="translate(-589.48 -616.4)"></path><g class="cls-12"><path class="cls-3" d="M721.66,1017.17a1.76,1.76,0,0,1,2.33-.27,1.69,1.69,0,0,1,.29,2.31,1.86,1.86,0,0,1-2.47.27,1.74,1.74,0,0,1,0-2.43" transform="translate(-589.48 -616.4)"></path></g><path class="cls-2" d="M737.62,1016.53l-3.17-1.47-16,38.2s0,2.09,1.28,2.45Z" transform="translate(-589.48 -616.4)"></path><path class="cls-2" d="M717.32,1030.61c.19.08.72-.84,1.77-1.5s2.07-.79,2.08-1-1.23-.44-2.48.39S717.13,1030.57,717.32,1030.61Z" transform="translate(-589.48 -616.4)"></path><path class="cls-2" d="M717.14,1035.49c.16.13.87-.55,2-.83s2-.07,2.12-.27-.94-.81-2.31-.43S717,1035.41,717.14,1035.49Z" transform="translate(-589.48 -616.4)"></path><path class="cls-2" d="M721,1040.08c.12-.16-.71-.86-2-.85s-2.1.72-2,.87.93-.14,2-.14S720.88,1040.26,721,1040.08Z" transform="translate(-589.48 -616.4)"></path><path class="cls-2" d="M712.86,1028.15c.21,0,.35-1,.92-2.05s1.29-1.73,1.17-1.91-1.17.32-1.82,1.57S712.67,1028.17,712.86,1028.15Z" transform="translate(-589.48 -616.4)"></path><path class="cls-2" d="M708.64,1025.09a4.1,4.1,0,0,0,.89-2,9.79,9.79,0,0,0,.3-2.34,8.4,8.4,0,0,0-.08-1.4,2.53,2.53,0,0,0-.19-.81.92.92,0,0,0-1-.55,1.16,1.16,0,0,0-.82.64,2.61,2.61,0,0,0-.23.78,7,7,0,0,0-.14,1.41,7.71,7.71,0,0,0,.36,2.36c.42,1.29,1,1.93,1.06,1.88s-.29-.78-.56-2a8.1,8.1,0,0,1,0-3.49c.08-.46.24-.82.47-.84s.12,0,.2.15a1.76,1.76,0,0,1,.14.59,10.14,10.14,0,0,1,.12,1.3A11.62,11.62,0,0,1,709,1023,14,14,0,0,0,708.64,1025.09Z" transform="translate(-589.48 -616.4)"></path><path class="cls-2" d="M709,1025c.06,0-.45-.74-1.66-1.38a7.05,7.05,0,0,0-2.27-.72,6.67,6.67,0,0,0-1.42,0,1.77,1.77,0,0,0-1.57.8,1,1,0,0,0,.18,1.07,2.92,2.92,0,0,0,.62.53,5,5,0,0,0,1.32.6,4.88,4.88,0,0,0,2.41.09c1.37-.3,2-1,1.91-1a18.4,18.4,0,0,1-2,.53,4.94,4.94,0,0,1-2.13-.22,4.29,4.29,0,0,1-1.11-.56c-.39-.25-.66-.56-.54-.7s.55-.38,1-.39a7.93,7.93,0,0,1,1.29,0,7.55,7.55,0,0,1,2.13.52C708.33,1024.52,709,1025.05,709,1025Z" transform="translate(-589.48 -616.4)"></path><path class="cls-2" d="M720.05,977.2s27.06-10.11,37-8.8c5.57.73,14.27,5,14.94,12.12s-1.08,16.69-10.71,21.34-48.06,21.89-57.19,24.55-31.89,8.87-31.89,8.87l-8.65-24.64s47.18-16.34,49.67-18.17,8.8-4.31,8.8-4.31Z" transform="translate(-589.48 -616.4)"></path><path class="cls-13" d="M626,980.55l.19,0,.54-.16c.48-.15,1.18-.35,2.1-.57a24.85,24.85,0,0,1,3.4-.59,25.52,25.52,0,0,1,4.55,0,26.47,26.47,0,0,1,5.41,1,18.33,18.33,0,0,1,2.86,1.11l3,1.44c4,1.93,8.57,3.91,13.38,5.82,9.64,3.86,18.9,5.69,25.5,7.19,3.31.74,6,1.34,7.83,1.78l2.13.5.55.13.19,0-.18-.06-.55-.16-2.11-.55c-1.84-.48-4.51-1.11-7.82-1.87-6.59-1.55-15.82-3.41-25.43-7.26-4.81-1.9-9.33-3.88-13.38-5.79l-3-1.43a19.21,19.21,0,0,0-2.9-1.12,26.27,26.27,0,0,0-5.46-1,24.77,24.77,0,0,0-4.59,0,22.3,22.3,0,0,0-3.4.64c-.92.24-1.63.46-2.1.62l-.53.2Z" transform="translate(-589.48 -616.4)"></path><path class="cls-13" d="M627.4,977s.82-.1,2.15-.24a32.54,32.54,0,0,1,10.35.53c1.3.28,2.09.51,2.11.47a2.26,2.26,0,0,0-.54-.22c-.36-.13-.88-.28-1.53-.45a27.66,27.66,0,0,0-5.18-.77,27.36,27.36,0,0,0-5.24.24c-.66.09-1.19.19-1.56.28A4,4,0,0,0,627.4,977Z" transform="translate(-589.48 -616.4)"></path><path class="cls-13" d="M731.43,984.36s.78-.54,2.08-1.35a28,28,0,0,1,5.35-2.56,28.72,28.72,0,0,1,5.79-1.37c1.51-.18,2.46-.2,2.46-.25a2.55,2.55,0,0,0-.67,0,17.2,17.2,0,0,0-1.82.09,24.34,24.34,0,0,0-5.85,1.29,25,25,0,0,0-5.37,2.67c-.64.43-1.14.8-1.47,1.07A2.43,2.43,0,0,0,731.43,984.36Z" transform="translate(-589.48 -616.4)"></path><path class="cls-13" d="M717.85,1021.12l-.21.08-.62.26c-.54.22-1.33.59-2.39,1-2.1.83-5.22,2-9.21,3.29-8,2.61-19.49,5.94-33.24,9.41l.16.08c-2.56-7.12-5.39-15-8.37-23.22l-.08.18,10.36-4.25,57.33-23.6h0v0c2.33-2.47,4.48-4.64,6.49-6.4a43.91,43.91,0,0,1,5.45-4.1,40.66,40.66,0,0,1,3.73-2.09l1-.46.34-.17-.35.14-1,.44a36,36,0,0,0-3.77,2,43.39,43.39,0,0,0-5.49,4.07c-2,1.75-4.19,3.93-6.53,6.39l0,0-57.36,23.51-10.36,4.25-.13.06.05.13c3,8.25,5.82,16.1,8.39,23.21l0,.11.12,0c13.75-3.49,25.23-6.85,33.22-9.51,4-1.33,7.1-2.5,9.19-3.37,1.06-.41,1.84-.8,2.38-1l.61-.28Z" transform="translate(-589.48 -616.4)"></path><path class="cls-8" d="M665.21,880.24l6.11-3.49s5.56,6.51,13.14,5.71a19.07,19.07,0,0,0,12.08-6.6l22.62,4.6h0c1.52.31,4.29,1.27,6.94,5L722.52,921v0l-1.7,59.34-59.31-1.69-12.29-91.08S664.61,880.24,665.21,880.24Z" transform="translate(-589.48 -616.4)"></path><path class="cls-2" d="M722.73,896.14c-.08,0-.24,7.36-.34,16.43s-.13,16.43,0,16.43.24-7.35.34-16.43S722.82,896.14,722.73,896.14Z" transform="translate(-589.48 -616.4)"></path><path class="cls-8" d="M649.23,887.62s-8.13,4.68-9.78,10.19c-1,3.34-8.58,46.07-9.78,54.49S631,967,634.6,969.76s14.48,6.52,14.48,6.52l15.33,5,4.39-11.18-14.59-21L655.62,935Z" transform="translate(-589.48 -616.4)"></path><path class="cls-2" d="M642.05,944.11s.5.08,1.4.26a16.79,16.79,0,0,1,3.67,1.16,23.87,23.87,0,0,1,4.89,3,43,43,0,0,1,5.15,4.76c1.7,1.83,3.25,3.65,4.7,5.25s2.82,3,4,4.12a28.54,28.54,0,0,0,3,2.43c.37.27.68.44.89.57a1.21,1.21,0,0,0,.32.18s-.09-.08-.29-.23-.49-.33-.85-.62a31.75,31.75,0,0,1-3-2.49c-1.2-1.11-2.54-2.53-4-4.14s-3-3.44-4.69-5.28a42,42,0,0,0-5.2-4.78,23.3,23.3,0,0,0-5-2.92,15.74,15.74,0,0,0-3.74-1.09,10.17,10.17,0,0,0-1.05-.12Z" transform="translate(-589.48 -616.4)"></path><path class="cls-2" d="M640.71,940.09c0,.06.89.18,2.31.58a21.6,21.6,0,0,1,5.24,2.24,22.13,22.13,0,0,1,4.47,3.54c1,1.06,1.56,1.8,1.6,1.76a2.34,2.34,0,0,0-.34-.54,14.28,14.28,0,0,0-1.1-1.36,19.23,19.23,0,0,0-4.47-3.66,19.6,19.6,0,0,0-5.35-2.19,14.08,14.08,0,0,0-1.72-.32A2.79,2.79,0,0,0,640.71,940.09Z" transform="translate(-589.48 -616.4)"></path><path class="cls-8" d="M723.32,882.19s8.12,4.68,9.77,10.18c1,3.34,8.58,46.07,9.78,54.5s-1.33,14.67-4.92,17.46-14.49,6.52-14.49,6.52l-15.32,5-4.39-11.18,14.58-21-1.41-14.12Z" transform="translate(-589.48 -616.4)"></path><path class="cls-2" d="M731.84,934.66c0,.06-.9.18-2.31.57a21.37,21.37,0,0,0-9.72,5.79c-1,1.05-1.55,1.79-1.6,1.76a2.59,2.59,0,0,1,.35-.55,12.85,12.85,0,0,1,1.1-1.36,19.75,19.75,0,0,1,4.47-3.66,19.55,19.55,0,0,1,5.34-2.19,16.43,16.43,0,0,1,1.73-.32A3.07,3.07,0,0,1,731.84,934.66Z" transform="translate(-589.48 -616.4)"></path><path class="cls-2" d="M694.07,878.15c0,.08.66.48,1.38,1.14s1.22,1.29,1.29,1.24a4.41,4.41,0,0,0-2.67-2.38Z" transform="translate(-589.48 -616.4)"></path><path class="cls-2" d="M687.9,881.74c-.07.06.53.7,1,1.65s.67,1.8.75,1.78a4.36,4.36,0,0,0-1.76-3.43Z" transform="translate(-589.48 -616.4)"></path><path class="cls-2" d="M677.33,885.46a9.3,9.3,0,0,0,.68-1.77,10.51,10.51,0,0,0,.61-1.8,4.26,4.26,0,0,0-.9,1.69A4.47,4.47,0,0,0,677.33,885.46Z" transform="translate(-589.48 -616.4)"></path><path class="cls-2" d="M670.53,882.24c.09,0,.32-1,1-2.11s1.47-1.78,1.41-1.85a4.08,4.08,0,0,0-1.67,1.7A4.18,4.18,0,0,0,670.53,882.24Z" transform="translate(-589.48 -616.4)"></path><path class="cls-2" d="M651,901.46c-.08,0,.92,8.12,2.24,18.1s2.47,18.08,2.55,18.07-.92-8.12-2.24-18.11S651.09,901.45,651,901.46Z" transform="translate(-589.48 -616.4)"></path><path class="cls-2" d="M708.14,975.81a4,4,0,0,1-.35-.75c-.23-.55-.54-1.28-.92-2.2l-3.3-8.16,0-.09.05-.08,14-20,0,.13c.06-1,.1-2,.18-3,.42-5.45,1.15-10.6,1.81-15.28s1.3-8.88,1.76-12.42.78-6.41,1-8.39c.1-1,.14-1.77.19-2.3a4.53,4.53,0,0,1,.1-.79,4.4,4.4,0,0,1,0,.8c0,.53,0,1.3-.1,2.3-.11,2-.37,4.88-.79,8.43s-1,7.76-1.65,12.44-1.35,9.82-1.77,15.25c-.08,1-.12,2.06-.19,3v.08l0,0-14.11,20,0-.17c1.31,3.44,2.38,6.23,3.14,8.22l.82,2.23A4.35,4.35,0,0,1,708.14,975.81Z" transform="translate(-589.48 -616.4)"></path><g class="cls-7"><path d="M652.29,973.27c-2.51-1.21-3.08-4.47-3.34-7.26q-1.12-12.22-2.26-24.45c-.35-3.84-.52-8.21,2.18-10.95,2.47-2.5,6.39-2.65,9.91-2.64,21.7.06,40.87.69,62.57.76l-1.1,38Z" transform="translate(-589.48 -616.4)"></path></g><path class="cls-5" d="M730.71,934.61l-2.31,44a3.22,3.22,0,0,1-3.23,3l-70.14.12a3.21,3.21,0,0,1-3.23-3l-2.68-43.29c-.09-1.79,1.19-4.18,3-4.22h75.29A3.21,3.21,0,0,1,730.71,934.61Z" transform="translate(-589.48 -616.4)"></path><path class="cls-2" d="M730.71,934.61s0-.06,0-.17,0-.27,0-.49a3.12,3.12,0,0,0-.83-1.71,3.19,3.19,0,0,0-1.17-.8,4.23,4.23,0,0,0-1.7-.24h-4.26l-27.18-.05-40.31,0h-2.86a2.5,2.5,0,0,0-1.45.37,3.46,3.46,0,0,0-1.07,1,5,5,0,0,0-.88,2.84c0,1,.11,2,.17,3,.25,4,.49,8,.75,12.13.51,8.24,1,16.77,1.57,25.51l.1,1.63c0,.55,0,1.08.14,1.65a3.35,3.35,0,0,0,2.11,2.48,4.12,4.12,0,0,0,1.65.22h4.82l12.6,0,23.8,0,21.55-.05,5,0h1.21a10.08,10.08,0,0,0,1.22,0,3.35,3.35,0,0,0,2.1-1.16,3.43,3.43,0,0,0,.79-2.22c0-.76.07-1.52.11-2.27.08-1.5.16-3,.23-4.4.58-11.45,1-20.72,1.38-27.14.15-3.2.27-5.69.35-7.38q.06-1.26.09-1.92c0-.43,0-.65,0-.65s0,.22-.05.65-.07,1.08-.12,1.92c-.09,1.69-.23,4.18-.41,7.37-.35,6.42-.85,15.69-1.48,27.14-.07,1.43-.15,2.9-.23,4.4l-.12,2.27a3.14,3.14,0,0,1-2.69,3.16,11.67,11.67,0,0,1-1.19,0h-6.18l-21.55,0-23.8,0-12.6,0h-4.82a3.76,3.76,0,0,1-1.54-.2,3,3,0,0,1-1.92-2.26c-.09-.5-.09-1.07-.13-1.61l-.1-1.63c-.54-8.74-1.07-17.27-1.58-25.51q-.39-6.18-.76-12.13c-.06-1-.12-2-.17-2.95a4.8,4.8,0,0,1,.82-2.67,2.62,2.62,0,0,1,2.29-1.3h2.86l40.31,0,27.18,0,4.26,0a4.06,4.06,0,0,1,1.67.22,3.23,3.23,0,0,1,2,2.45C730.72,934.38,730.69,934.61,730.71,934.61Z" transform="translate(-589.48 -616.4)"></path><path class="cls-3" d="M685.26,956.08A4.14,4.14,0,1,0,689.4,952,4.14,4.14,0,0,0,685.26,956.08Z" transform="translate(-589.48 -616.4)"></path><path class="cls-2" d="M685.26,956.08s0-.36.19-1a4.17,4.17,0,0,1,1.51-2.2,3.94,3.94,0,0,1,1.7-.74,4,4,0,0,1,2.09.19,3.87,3.87,0,0,1,1.85,1.39,4,4,0,0,1,0,4.71,3.87,3.87,0,0,1-1.85,1.39,4,4,0,0,1-2.09.19,3.94,3.94,0,0,1-1.7-.74,4.12,4.12,0,0,1-1.51-2.2c-.17-.63-.15-1-.19-1a1.1,1.1,0,0,0,0,.27,2.7,2.7,0,0,0,.09.76,4,4,0,0,0,1.49,2.34,4.13,4.13,0,0,0,1.78.82,4.34,4.34,0,0,0,2.24-.17,4.2,4.2,0,0,0,2-1.49,4.25,4.25,0,0,0-6-5.9,4.09,4.09,0,0,0-1.49,2.35,2.67,2.67,0,0,0-.09.76A1,1,0,0,0,685.26,956.08Z" transform="translate(-589.48 -616.4)"></path><path class="cls-2" d="M728.35,939.48c-.09,0-.43,7.4-.78,16.53s-.55,16.53-.46,16.54.43-7.4.77-16.53S728.43,939.48,728.35,939.48Z" transform="translate(-589.48 -616.4)"></path></svg>