<svg xmlns="http://www.w3.org/2000/svg" id="Floor" viewBox="0 0 394.47 449.97"><defs><style>.cls-1{fill:#f5f5f5;}.cls-2{fill:#fff;}.cls-3{fill:#263238;}.cls-4{fill:#e0e0e0;}.cls-5{fill:#f7d406;}.cls-6{fill:#024566;}.cls-7{opacity:0.6;}.cls-8{fill:#ae7461;}.cls-9{fill:#6f4439;}.cls-10{fill:#044260;}.cls-11{opacity:0.3;}.cls-12{fill:#1175af;}</style></defs><rect class="cls-1" y="13.62" width="223.32" height="305.78" rx="7.2"></rect><rect class="cls-2" x="10.05" y="0.26" width="223.32" height="305.78" rx="7.2"></rect><path class="cls-3" d="M920.51,333.53a7.44,7.44,0,0,0,2.63-.53,7.18,7.18,0,0,0,4.49-6c0-7,0-17.24,0-30.47,0-26.46-.05-64.75-.08-112.07,0-23.65,0-49.57,0-77.38q0-20.86,0-43.12V35.69a7.24,7.24,0,0,0-1.64-5.22A7,7,0,0,0,921,28c-1.91,0-3.88,0-5.83,0L711.61,28a7,7,0,0,0-5.6,2.83,6.73,6.73,0,0,0-1.26,3,24.26,24.26,0,0,0-.1,3.32v40q0,26.37,0,51.93c0,34,0,66.88,0,98.16s0,61,0,88.83v10.35a7,7,0,0,0,1.71,4.53,6.85,6.85,0,0,0,4.2,2.33,15.57,15.57,0,0,0,2.47.09h17.25l37.13,0,112.06.08,30.47.05,7.92,0c1.79,0,2.7,0,2.7,0l-2.7,0-7.92,0-30.47.05-112.06.09H713a16.67,16.67,0,0,1-2.53-.1,7.28,7.28,0,0,1-4.46-2.46,7.43,7.43,0,0,1-1.81-4.81q0-5.13,0-10.35c0-27.82,0-57.54,0-88.83s0-64.12,0-98.16V37.12a24.39,24.39,0,0,1,.11-3.4,7.19,7.19,0,0,1,1.35-3.19,7.46,7.46,0,0,1,6-3l203.52,0c2,0,3.89,0,5.86,0a7.41,7.41,0,0,1,5.21,2.63A7.7,7.7,0,0,1,928,35.69v5.74q0,11.43,0,22.54,0,22.23,0,43.12c0,27.81,0,53.73,0,77.38,0,47.32-.07,85.61-.09,112.07,0,13.23,0,23.5-.08,30.48a7.18,7.18,0,0,1-1.85,4.15,7,7,0,0,1-2.72,1.88,6.82,6.82,0,0,1-2,.46Z" transform="translate(-694.34 -27.49)"></path><rect class="cls-4" x="87.23" y="91.2" width="111.6" height="13.21" rx="6.3"></rect><rect class="cls-5" x="44.59" y="83.33" width="30.6" height="30.6" rx="5.14"></rect><polygon class="cls-2" points="49.33 99.07 52.41 95.99 58.35 101.27 68.28 91.31 71.15 94.39 57.91 107.22 49.33 99.07"></polygon><rect class="cls-4" x="87.23" y="138.68" width="111.6" height="13.21" rx="6.3"></rect><rect class="cls-5" x="44.59" y="130.8" width="30.6" height="30.6" rx="5.14"></rect><polygon class="cls-2" points="49.33 146.55 52.41 143.46 58.35 148.75 68.28 138.78 71.15 141.86 57.91 154.69 49.33 146.55"></polygon><rect class="cls-4" x="87.23" y="186.15" width="111.6" height="13.21" rx="6.3"></rect><rect class="cls-5" x="44.59" y="178.28" width="30.6" height="30.6" rx="5.14"></rect><polygon class="cls-2" points="49.33 194.02 52.41 190.94 58.35 196.22 68.28 186.26 71.15 189.34 57.91 202.17 49.33 194.02"></polygon><rect class="cls-4" x="87.23" y="233.63" width="111.6" height="13.21" rx="6.3"></rect><rect class="cls-5" x="44.59" y="225.75" width="30.6" height="30.6" rx="5.14"></rect><polygon class="cls-2" points="49.33 241.5 52.41 238.41 58.35 243.7 68.28 233.73 71.15 236.81 57.91 249.64 49.33 241.5"></polygon><path class="cls-5" d="M766.93,78.45h-4.82l-.9,2.22h-3.29l5-11.41h3.18l5.05,11.41h-3.36ZM766,76.07l-1.47-3.65-1.46,3.65Z" transform="translate(-694.34 -27.49)"></path><path class="cls-5" d="M772.1,69.26h5.39c3.78,0,6.37,2.2,6.37,5.71s-2.59,5.7-6.37,5.7H772.1Zm5.26,8.83a3.13,3.13,0,1,0,0-6.25h-2v6.25Z" transform="translate(-694.34 -27.49)"></path><path class="cls-5" d="M796.74,69.26l-4.89,11.41h-3.18L783.8,69.26h3.49l3.09,7.43,3.16-7.43Z" transform="translate(-694.34 -27.49)"></path><path class="cls-5" d="M804.66,78.45h-4.83l-.89,2.22h-3.3l5-11.41h3.18l5,11.41h-3.36Zm-.95-2.38-1.47-3.65-1.46,3.65Z" transform="translate(-694.34 -27.49)"></path><path class="cls-5" d="M820.67,69.26V80.67H818l-5-6.08v6.08h-3.16V69.26h2.66l5,6.08V69.26Z" transform="translate(-694.34 -27.49)"></path><path class="cls-5" d="M825.38,71.82h-3.5V69.26H832.1v2.56h-3.49v8.85h-3.23Z" transform="translate(-694.34 -27.49)"></path><path class="cls-5" d="M840.37,78.45h-4.82l-.9,2.22h-3.29l5-11.41h3.18l5,11.41h-3.36Zm-.94-2.38L838,72.42l-1.46,3.65Z" transform="translate(-694.34 -27.49)"></path><path class="cls-5" d="M853,74.72h2.85v4.73a8.55,8.55,0,0,1-4.79,1.45c-3.63,0-6.29-2.46-6.29-5.93S847.45,69,851.14,69a6.24,6.24,0,0,1,5,2.09l-2,1.86a3.54,3.54,0,0,0-2.77-1.27,3.26,3.26,0,0,0,0,6.52,4.12,4.12,0,0,0,1.75-.38Z" transform="translate(-694.34 -27.49)"></path><path class="cls-5" d="M867.08,78.18v2.49h-9.16V69.26h9v2.5h-5.75v1.92h5.06v2.41h-5.06v2.09Z" transform="translate(-694.34 -27.49)"></path><path class="cls-5" d="M868.07,79.64l1.06-2.38a7.2,7.2,0,0,0,3.77,1.13c1.33,0,1.86-.38,1.86-.93,0-1.81-6.49-.49-6.49-4.73,0-2,1.66-3.7,5.05-3.7a8.57,8.57,0,0,1,4.14,1l-1,2.39a6.86,6.86,0,0,0-3.17-.88c-1.35,0-1.84.46-1.84,1,0,1.74,6.47.44,6.47,4.64,0,2-1.66,3.69-5,3.69A9,9,0,0,1,868.07,79.64Z" transform="translate(-694.34 -27.49)"></path><path class="cls-3" d="M967,427.87l-.86,22.58s22.66,8.46,22.91,12.64L945.24,463l-.1-35.23Z" transform="translate(-694.34 -27.49)"></path><path class="cls-4" d="M952.62,448.52a1.79,1.79,0,0,0-1.24,2,1.71,1.71,0,0,0,2,1.25,1.89,1.89,0,0,0,1.3-2.17,1.77,1.77,0,0,0-2.23-1.06" transform="translate(-694.34 -27.49)"></path><path class="cls-6" d="M945.24,463l.13-3.55,42,1.42s1.95.85,1.73,2.22Z" transform="translate(-694.34 -27.49)"></path><path class="cls-2" d="M966.88,450.23c0,.21-1.08.31-2.13,1s-1.62,1.59-1.82,1.5.13-1.32,1.42-2.13S966.93,450,966.88,450.23Z" transform="translate(-694.34 -27.49)"></path><path class="cls-2" d="M971.47,452.14c0,.21-.87.57-1.6,1.47s-.94,1.86-1.16,1.85-.34-1.22.58-2.32S971.47,451.94,971.47,452.14Z" transform="translate(-694.34 -27.49)"></path><path class="cls-2" d="M974.07,457.65c-.19,0-.49-1,.07-2.2s1.55-1.63,1.64-1.45-.53.8-1,1.77S974.29,457.63,974.07,457.65Z" transform="translate(-694.34 -27.49)"></path><path class="cls-2" d="M966.51,445.06c-.09.2-1.08-.1-2.29,0s-2.15.46-2.26.27.8-.94,2.22-1S966.61,444.89,966.51,445.06Z" transform="translate(-694.34 -27.49)"></path><path class="cls-3" d="M913.37,424.8,911,452l4.33,22.08a2.8,2.8,0,0,1-2.4,3.32h0a2.78,2.78,0,0,1-2.41-.88c-3.9-4.26-18.2-20-17.91-22,.33-2.3.6-28.89.6-28.89Z" transform="translate(-694.34 -27.49)"></path><path class="cls-6" d="M912.93,477.43l-20.2-24.7-.08,1.16a4.31,4.31,0,0,0,.82,2.79c1.61,2.14,6.16,8,17,19.87a2.81,2.81,0,0,0,2.49.88Z" transform="translate(-694.34 -27.49)"></path><g class="cls-7"><path class="cls-2" d="M898.89,444.29a1.7,1.7,0,0,1,.32,2.24,1.63,1.63,0,0,1-2.22.33,1.79,1.79,0,0,1-.32-2.37,1.69,1.69,0,0,1,2.34-.09" transform="translate(-694.34 -27.49)"></path></g><path class="cls-2" d="M907.46,465.11a8.78,8.78,0,0,1,2.53-2,8.37,8.37,0,0,1,3.18-.39c0-.07-.31-.3-.94-.44a4.4,4.4,0,0,0-2.47.28,4.33,4.33,0,0,0-1.94,1.56C907.46,464.69,907.4,465.09,907.46,465.11Z" transform="translate(-694.34 -27.49)"></path><path class="cls-2" d="M909.17,468.89a24.44,24.44,0,0,1,2.49-1,24.83,24.83,0,0,1,2.69-.17c.09-.13-1.19-.8-2.82-.41S909,468.81,909.17,468.89Z" transform="translate(-694.34 -27.49)"></path><path class="cls-2" d="M904.15,460.2c.11.14,1.54-1.15,3.73-1.83s4.09-.5,4.11-.69a6.21,6.21,0,0,0-4.29.12C905.35,458.54,904,460.11,904.15,460.2Z" transform="translate(-694.34 -27.49)"></path><path class="cls-2" d="M904.18,451.86c.06.17,1.6-.36,3.57-.31s3.49.63,3.56.46a6.95,6.95,0,0,0-7.13-.15Z" transform="translate(-694.34 -27.49)"></path><path class="cls-2" d="M904.67,443.85a8.91,8.91,0,0,1,7.27.72c0-.06-.23-.42-.83-.82a6.06,6.06,0,0,0-2.67-.92,5.93,5.93,0,0,0-2.79.38C905,443.49,904.63,443.79,904.67,443.85Z" transform="translate(-694.34 -27.49)"></path><path class="cls-2" d="M908.43,441.9a2.32,2.32,0,0,0,.11-1,7.2,7.2,0,0,0-.65-2.75,3.18,3.18,0,0,0-1.27-1.61,1.14,1.14,0,0,0-1.28.17,1.86,1.86,0,0,0-.51,1.2,4,4,0,0,0,3.23,3.88,4.58,4.58,0,0,0,4.65-2.11,1.56,1.56,0,0,0,.16-1.31,1.1,1.1,0,0,0-1.11-.66,3.9,3.9,0,0,0-1.86.82,7.93,7.93,0,0,0-2,2,2.46,2.46,0,0,0-.48.91,13,13,0,0,1,2.72-2.56,3.54,3.54,0,0,1,1.63-.67.58.58,0,0,1,.61.35,1.11,1.11,0,0,1-.15.86,4.11,4.11,0,0,1-4.06,1.78,3.44,3.44,0,0,1-2.79-3.25,1.36,1.36,0,0,1,.32-.86.62.62,0,0,1,.71-.1,2.85,2.85,0,0,1,1.1,1.34A10.46,10.46,0,0,1,908.43,441.9Z" transform="translate(-694.34 -27.49)"></path><path class="cls-3" d="M988.14,237.55a96.86,96.86,0,0,1,2.12,28.55C989.79,272.17,969.32,440,969.32,440H941.68l7.77-157.73-2.26.49S932.1,350,930.87,360.91c-1.1,9.79-13.83,80.92-13.83,80.92l-25.27.29L899.84,348l9.39-90.27,3.54-26.27Z" transform="translate(-694.34 -27.49)"></path><path class="cls-6" d="M948.45,271.56s0,.07.18.18a1.66,1.66,0,0,0,.67.32,3.14,3.14,0,0,0,2.62-.62,5.13,5.13,0,0,0,1.79-3.57c.2-1.5.23-3.12.34-4.82.19-3.42.33-6.51.4-8.75a25.83,25.83,0,0,0,0-3.63,23.14,23.14,0,0,0-.39,3.61c-.17,2.23-.37,5.32-.56,8.74-.11,1.7-.13,3.34-.29,4.78a4.91,4.91,0,0,1-1.53,3.34,3.05,3.05,0,0,1-2.34.72A6.21,6.21,0,0,1,948.45,271.56Z" transform="translate(-694.34 -27.49)"></path><path class="cls-6" d="M907.79,255.33a2.33,2.33,0,0,0,.77.28,13.66,13.66,0,0,0,2.21.37,15.91,15.91,0,0,0,13.3-5.34,13.78,13.78,0,0,0,1.34-1.8,2.68,2.68,0,0,0,.37-.74c-.08,0-.7.94-2,2.28a17,17,0,0,1-13,5.22C908.94,255.53,907.81,255.24,907.79,255.33Z" transform="translate(-694.34 -27.49)"></path><path class="cls-6" d="M977.13,248.31a8.92,8.92,0,0,0,.42,2.77,20.71,20.71,0,0,0,7.4,11.14,8.94,8.94,0,0,0,2.4,1.46,29.42,29.42,0,0,1-6.57-6.71C977.84,252.61,977.31,248.25,977.13,248.31Z" transform="translate(-694.34 -27.49)"></path><polygon class="cls-8" points="367.22 173.33 373.56 175.34 385.08 168.97 391.62 187.18 375.94 190.91 364.06 189.6 367.22 173.33"></polygon><path class="cls-4" d="M987.78,127.73s6.48,3.89,11.85,17.11c10.54,26,17.17,40,17.17,40l48.4,15.29-3.87,19.4s-49.06-6.84-55.63-9.3c-9-3.37-15.66-21.1-15.66-21.1Z" transform="translate(-694.34 -27.49)"></path><path class="cls-3" d="M974.48,69.47a5.1,5.1,0,0,0,1.66-10,5.31,5.31,0,0,0-5.08-8.71A6.36,6.36,0,0,0,961.22,46a7.15,7.15,0,0,0-8.8.27,5.08,5.08,0,0,0-4,8.84" transform="translate(-694.34 -27.49)"></path><path class="cls-8" d="M951.58,51.38l1.12-.06a21.67,21.67,0,0,1,22.56,18.83c1.36,10.42,2.73,21.94,2.94,27.55.44,11.62-11.09,14-11.09,14l1.68,13.9-28.23.53-5-50.48C933.91,63.65,939.53,52.69,951.58,51.38Z" transform="translate(-694.34 -27.49)"></path><path class="cls-9" d="M967.21,111.69a28.24,28.24,0,0,1-15.44-3.7s4,8.18,15.53,6.56Z" transform="translate(-694.34 -27.49)"></path><path class="cls-3" d="M971.08,80.87a1.65,1.65,0,0,1-1.51,1.75,1.6,1.6,0,0,1-1.79-1.41,1.67,1.67,0,0,1,1.52-1.75A1.57,1.57,0,0,1,971.08,80.87Z" transform="translate(-694.34 -27.49)"></path><path class="cls-3" d="M973.05,76c-.2.23-1.5-.64-3.29-.55s-3,1-3.25.84.09-.49.64-.93a4.56,4.56,0,0,1,2.59-.94,4.41,4.41,0,0,1,2.63.7C972.94,75.48,973.14,75.86,973.05,76Z" transform="translate(-694.34 -27.49)"></path><path class="cls-3" d="M954.8,81.32a1.65,1.65,0,0,1-1.52,1.75,1.59,1.59,0,0,1-1.78-1.41A1.67,1.67,0,0,1,953,79.91,1.57,1.57,0,0,1,954.8,81.32Z" transform="translate(-694.34 -27.49)"></path><path class="cls-3" d="M955.52,77.16c-.2.23-1.5-.64-3.28-.54s-3,1-3.26.84.09-.49.64-.94a4.56,4.56,0,0,1,2.59-.94,4.32,4.32,0,0,1,2.63.71C955.41,76.68,955.61,77.06,955.52,77.16Z" transform="translate(-694.34 -27.49)"></path><path class="cls-3" d="M962.65,90.08a12,12,0,0,1,2.88-.67c.45-.07.88-.18.94-.5a2.38,2.38,0,0,0-.37-1.33c-.49-1.08-1-2.22-1.52-3.4-2.12-4.85-3.68-8.85-3.48-8.93s2.07,3.78,4.19,8.62l1.46,3.43a2.63,2.63,0,0,1,.33,1.78,1.13,1.13,0,0,1-.72.7,3.06,3.06,0,0,1-.77.15A11.55,11.55,0,0,1,962.65,90.08Z" transform="translate(-694.34 -27.49)"></path><path class="cls-3" d="M956.73,70.22c-.22.46-1.77,0-3.66.08s-3.45.43-3.65,0c-.08-.22.23-.64.89-1a5.78,5.78,0,0,1,2.8-.73,5.4,5.4,0,0,1,2.77.7C956.52,69.58,956.82,70,956.73,70.22Z" transform="translate(-694.34 -27.49)"></path><path class="cls-3" d="M972.77,68.6c-.36.42-1.85.07-3.63.14s-3.25.43-3.62,0c-.16-.2.05-.62.69-1a6.13,6.13,0,0,1,5.84-.14C972.7,68,972.92,68.39,972.77,68.6Z" transform="translate(-694.34 -27.49)"></path><path class="cls-3" d="M973.88,64.88s-3.43-7.12-7-8.64c-4.35-1.85-5.94,2.9-10,2s-8.26-2.7-12.24.64c-4.35,3.65-2.11,5.94-2.14,11.11-.09,21-3.61,27.05-5.19,17.26-.17-1.07-3.21-1.78-3.88-6.31-.86-5.88-1.45-13-.34-17.3.94-3.59,2.83-6.13,6.31-9,5.49-4.53,13.32-5,18.67-4.74S973.91,55.75,973.88,64.88Z" transform="translate(-694.34 -27.49)"></path><path class="cls-8" d="M938,86.87A3.16,3.16,0,0,0,934.42,84c-2.16.31-4.5,1.66-4.14,6.13.65,7.93,8.47,5.64,8.47,5.41S938.28,90.18,938,86.87Z" transform="translate(-694.34 -27.49)"></path><path class="cls-9" d="M936.78,92.7s-.13.11-.35.24a1.41,1.41,0,0,1-1,.1c-.87-.24-1.68-1.51-1.84-2.93a4.56,4.56,0,0,1,.23-2,1.61,1.61,0,0,1,1-1.15.72.72,0,0,1,.85.31c.12.22.08.38.13.39s.16-.15.07-.47a1,1,0,0,0-.36-.47,1,1,0,0,0-.78-.14,1.94,1.94,0,0,0-1.34,1.35,4.7,4.7,0,0,0-.3,2.24c.18,1.6,1.12,3,2.3,3.26a1.45,1.45,0,0,0,1.24-.31C936.78,92.9,936.81,92.71,936.78,92.7Z" transform="translate(-694.34 -27.49)"></path><path class="cls-3" d="M937.37,71.48a7.52,7.52,0,0,0,3.44,1.38,2.59,2.59,0,0,0,2.78-2c.07-.56-.1-1.2.24-1.64s1.22-.41,1.89-.37c2.32.13,4.89-2.56,5.36-4.83a2.08,2.08,0,0,0,2.8.43,7.59,7.59,0,0,0,1.83-1.79,3.25,3.25,0,0,1,2.66-1.5,7.63,7.63,0,0,0,1.74.29c1-.14,1.49-1.39,1.6-2.43s.17-2.26,1-2.86,1.87-.32,2.84-.22,2.19-.2,2.39-1.15a1.84,1.84,0,0,0-.43-1.42,5.13,5.13,0,0,0-6.16-1.64,7,7,0,0,0-12.88-.72,7.09,7.09,0,0,0-11.18,3.14,5.14,5.14,0,0,0-5.41,7.75,4.85,4.85,0,0,0-2.48,4c.05,1.64,1.73,3.2,3.3,2.69a2.84,2.84,0,0,0,5,2.59" transform="translate(-694.34 -27.49)"></path><path class="cls-10" d="M962.07,54.07s0,0,0,.15,0,.24,0,.42a5.23,5.23,0,0,1-.5,1.56,5.69,5.69,0,0,1-1.67,2,5.33,5.33,0,0,1-3.21,1.09l.13-.19a2.9,2.9,0,0,1,0,2.2,8.47,8.47,0,0,1-1.26,2,6.12,6.12,0,0,1-.85,1,2.72,2.72,0,0,1-1.23.53,2.9,2.9,0,0,1-2.6-.79l.29-.1a6,6,0,0,1-2.32,4.25,4.38,4.38,0,0,1-2.57,1,7.86,7.86,0,0,1-2.59-.43l.2-.11a6.3,6.3,0,0,1-1.75,2.55,3.39,3.39,0,0,1-2.73.89,4.38,4.38,0,0,1-3.54-3.26l.18.08a4.06,4.06,0,0,1-2.7.53,4.55,4.55,0,0,1-1.95-.75,3.65,3.65,0,0,1-.93-.93,1.5,1.5,0,0,1-.23-.4,4.9,4.9,0,0,0,1.24,1.22,4.37,4.37,0,0,0,1.89.67,3.91,3.91,0,0,0,2.55-.55l.15-.09,0,.17a4.13,4.13,0,0,0,3.34,3,3,3,0,0,0,2.48-.84,6,6,0,0,0,1.65-2.41l0-.15.16,0a7.69,7.69,0,0,0,2.48.42,4,4,0,0,0,2.37-.92,5.6,5.6,0,0,0,2.19-4l0-.38.27.28a2.56,2.56,0,0,0,2.29.7,2.46,2.46,0,0,0,1.1-.46,5.78,5.78,0,0,0,.79-.9,7.88,7.88,0,0,0,1.24-1.93,2.56,2.56,0,0,0,.07-2l-.07-.19h.2a5.15,5.15,0,0,0,3.08-1,5.75,5.75,0,0,0,1.66-1.87A5.84,5.84,0,0,0,962.07,54.07Z" transform="translate(-694.34 -27.49)"></path><path class="cls-3" d="M962.57,96.2c-.06-.29-2,.22-3.8-1.08s-2.14-3.4-2.41-3.35-.26.56-.05,1.44a5,5,0,0,0,1.9,2.82,4.28,4.28,0,0,0,3.15.78C962.19,96.68,962.61,96.33,962.57,96.2Z" transform="translate(-694.34 -27.49)"></path><path class="cls-4" d="M1009.7,169.63c-.18-.63-10.52-28.77-13.81-34.93-3.95-7.37-12.25-10.63-17.4-10.95s-60.25,4.08-60.25,4.08-16.46,3.68-18.56,17.84c-2.42,16.3-4.53,53.6-4.53,53.6l25.08-12.85,3.25-8.18,51.9,11.57,12.67-18.74Z" transform="translate(-694.34 -27.49)"></path><path class="cls-4" d="M914.6,129.43l21.52-9.49,2.41-9.28,25.13,11.88,5.26-5.82,2.21,6.55,5.5,1.8,12.87,22.64,0,48.22,2.6,41.6-2.79,6.57-23,3.4a26.16,26.16,0,0,1-7.6,0l-46.79-7.65-1.21-13.74,5-37.89Z" transform="translate(-694.34 -27.49)"></path><path class="cls-4" d="M938.53,110.66s2.81.81,10,4.66,15.1,7.22,15.1,7.22l-.61,11.34-26.74-13.42" transform="translate(-694.34 -27.49)"></path><polyline class="cls-4" points="274.58 89.23 269.32 95.04 272.13 107.2 276.82 96.21"></polyline><g class="cls-11"><path d="M963.76,123.79c.23.18,1.69,14,1.69,14l-26.8-16.2,24.4,12.25Z" transform="translate(-694.34 -27.49)"></path></g><path class="cls-12" d="M963.58,175.52c-.41-10.6,1.26-37.65,1.26-37.65l3.5-.56a395.43,395.43,0,0,1,9,58.51c1,13,1,28.14,1,28.14l-7,15.07-7.76-15S964.07,188.41,963.58,175.52Z" transform="translate(-694.34 -27.49)"></path><path class="cls-3" d="M913,131.07c0,.05.72.65,1.81,1.77a22.1,22.1,0,0,1,5.68,10.57c.33,1.52.41,2.49.47,2.48a2.11,2.11,0,0,0,0-.68,14.85,14.85,0,0,0-.23-1.86,19.74,19.74,0,0,0-5.75-10.7,14.81,14.81,0,0,0-1.42-1.21A2.65,2.65,0,0,0,913,131.07Z" transform="translate(-694.34 -27.49)"></path><polygon class="cls-12" points="269.24 100.47 271.63 99.53 273.9 103.43 274.31 109.82 271.11 110.33 268.71 106.39 269.24 100.47"></polygon><path class="cls-3" d="M989.46,147c-.1,0-.19,13.84-.19,30.9s.09,30.91.19,30.91.19-13.84.19-30.91S989.56,147,989.46,147Z" transform="translate(-694.34 -27.49)"></path><path class="cls-3" d="M963.41,122.44a26.77,26.77,0,0,0,1.36,2.31,64,64,0,0,1,3,5.7c.09.19.18.37.26.55l.17.36.17-.36a44.09,44.09,0,0,0,2.23-5.67c.23-.73.4-1.33.5-1.75a1.81,1.81,0,0,0,.12-.66s-.33.88-.86,2.33a60.07,60.07,0,0,1-2.33,5.59h.34l-.26-.55a47.61,47.61,0,0,0-3.15-5.68c-.46-.7-.85-1.25-1.13-1.62S963.43,122.42,963.41,122.44Z" transform="translate(-694.34 -27.49)"></path><path class="cls-3" d="M936.12,119.94a1.93,1.93,0,0,0,.37.22l1.08.57,4,2.07c3.37,1.75,8,4.25,13.1,7,3.11,1.66,6.06,3.2,8.63,4.48l.24.12v-.26c0-3.33.06-6.14.08-8.16,0-1,0-1.73,0-2.3a5.72,5.72,0,0,0,0-.82,4.72,4.72,0,0,0-.07.81c0,.58,0,1.35-.09,2.3,0,2-.12,4.83-.21,8.16l.24-.14c-2.55-1.31-5.49-2.86-8.61-4.52-5.11-2.73-9.75-5.19-13.15-6.89-1.7-.85-3.09-1.51-4.05-2l-1.12-.51A1.7,1.7,0,0,0,936.12,119.94Z" transform="translate(-694.34 -27.49)"></path><path class="cls-3" d="M986.23,128.68a20.34,20.34,0,0,0,.91,2A21.67,21.67,0,0,1,989,140.73c-.07,1.32-.21,2.14-.15,2.15a2,2,0,0,0,.17-.56,14.53,14.53,0,0,0,.24-1.57,18.57,18.57,0,0,0-1.88-10.22,11.09,11.09,0,0,0-.79-1.38A2.3,2.3,0,0,0,986.23,128.68Z" transform="translate(-694.34 -27.49)"></path><path class="cls-3" d="M966,138.24c.05.09.66-.2,1.35-.64s1.22-.86,1.16-.95-.66.2-1.36.64S966,138.15,966,138.24Z" transform="translate(-694.34 -27.49)"></path><path class="cls-3" d="M964.89,136.68a18.1,18.1,0,0,0,1.62-3.24,17.91,17.91,0,0,0,1.29-3.38,16.35,16.35,0,0,0-1.63,3.23A17.38,17.38,0,0,0,964.89,136.68Z" transform="translate(-694.34 -27.49)"></path><path class="cls-4" d="M910.19,131.81s-8.29,6-9.33,9.27-5.44,56.89-6.22,63.26-1.56,18.3,3.37,22.19,15.55,6.8,15.55,6.8l9.81-20.28-5.2-10.88,5.2-40.7Z" transform="translate(-694.34 -27.49)"></path><path class="cls-3" d="M911.19,232.62a2,2,0,0,1,.53,0,12.85,12.85,0,0,0,1.53-.1,11.14,11.14,0,0,0,5.3-1.92,14.45,14.45,0,0,0,5.06-6.92,31.49,31.49,0,0,0,1.92-10.91l.05.14c-2.36-3.27-4.93-6.84-7.62-10.55l-.06-.08,0-.1c0-.27.07-.57.11-.86,1.46-11.42,2.79-21.75,3.76-29.28.48-3.71.87-6.73,1.15-8.88.13-1,.23-1.81.31-2.41s.11-.84.12-.84a.48.48,0,0,1,0,.22c0,.14,0,.35,0,.63-.06.6-.13,1.41-.22,2.43-.21,2.1-.55,5.14-1,8.89-.88,7.51-2.15,17.87-3.61,29.31,0,.29-.07.58-.11.85l0-.18L926,212.58l0,.06v.08a31.73,31.73,0,0,1-2,11.07,14.61,14.61,0,0,1-5.28,7,10,10,0,0,1-3,1.4l-.68.19-.64.11a6.77,6.77,0,0,1-1.12.13,9,9,0,0,1-1.54,0A2.72,2.72,0,0,1,911.19,232.62Z" transform="translate(-694.34 -27.49)"></path><path class="cls-3" d="M901.17,205.93a8.44,8.44,0,0,1,2.18-1.55,20,20,0,0,1,6.06-2.22,20.28,20.28,0,0,1,6.45-.21,8.33,8.33,0,0,1,2.6.62,24.9,24.9,0,0,0-17.29,3.36Z" transform="translate(-694.34 -27.49)"></path><path class="cls-5" d="M966.24,152.57h0s.48,1.78,1.23,4.92a22.36,22.36,0,0,1,6.4-6.12h0s12.8-12.72,16.89-26.09c3-9.71,2.23-20.47,2.23-20.47-.12-.51-1.12-5.07-1.93-8.8a5.83,5.83,0,0,1,4.22-6.88c6.36-1.72,23.57-5.07,27.52,6.49,5.89,17.25-3.64,35.88-3.53,41.21,0,1,0,1.83,0,2.49,5-1.17,9-2,9-1.93h0l33.14-7.73s10.95-3.32,14.71,7.91-9,14.95-9,14.95,6-.26,7.62,10-9.33,13.52-9.33,13.52,6.71-.43,8.45,8.62c1.69,8.81-9.26,14.12-9.85,14.4a23.11,23.11,0,0,1,2.64-.5,14.93,14.93,0,0,1-2,.58c5.11.65,5.85,6.73,5.85,6.73,3.29,12.47-6.31,15.09-6.31,15.09l-60.51,14.13a34.82,34.82,0,0,1-18.24-.66c.58,2.58.89,4,.87,4h0L944,248.31c-.09,0-4.65-19.19-10.19-42.9s-10-42.95-9.86-43Z" transform="translate(-694.34 -27.49)"></path><g class="cls-11"><path d="M966.24,152.57h0s.48,1.78,1.23,4.92a22.36,22.36,0,0,1,6.4-6.12h0s12.8-12.72,16.89-26.09c3-9.71,2.23-20.47,2.23-20.47-.12-.51-1.12-5.07-1.93-8.8a5.83,5.83,0,0,1,4.22-6.88c6.36-1.72,23.57-5.07,27.52,6.49,5.89,17.25-3.64,35.88-3.53,41.21,0,1,0,1.83,0,2.49,5-1.17,9-2,9-1.93h0l33.14-7.73s10.95-3.32,14.71,7.91-9,14.95-9,14.95,6-.26,7.62,10-9.33,13.52-9.33,13.52,6.71-.43,8.45,8.62c1.69,8.81-9.26,14.12-9.85,14.4a23.11,23.11,0,0,1,2.64-.5,14.93,14.93,0,0,1-2,.58c5.11.65,5.85,6.73,5.85,6.73,3.29,12.47-6.31,15.09-6.31,15.09l-60.51,14.13a34.82,34.82,0,0,1-18.24-.66c.58,2.58.89,4,.87,4h0L944,248.31c-.09,0-4.65-19.19-10.19-42.9s-10-42.95-9.86-43Z" transform="translate(-694.34 -27.49)"></path></g><path class="cls-5" d="M974.41,164.61l-.82,5.5L987.11,228h0a34.82,34.82,0,0,0,27.19,4.9l60.51-14.13s9.6-2.62,6.31-15.09c0,0-.79-6.62-6.5-6.8,0,0,11.6-5.36,9.87-14.41s-8.44-8.62-8.44-8.62,11-3.31,9.32-13.52-7.62-9.94-7.62-9.94,12.75-3.74,9-15-14.71-7.91-14.71-7.91l-43,10-37.72,8.81A22.13,22.13,0,0,0,974.41,164.61Z" transform="translate(-694.34 -27.49)"></path><path class="cls-5" d="M984.47,149.18s12.8-12.72,16.89-26.09c3-9.71,2.23-20.47,2.23-20.47-.12-.51-1.12-5.07-1.93-8.8a5.83,5.83,0,0,1,4.22-6.88c6.36-1.72,17.83,1.44,21.78,13,5.89,17.25,2.11,29.37,2.21,34.7l.1,5.34Z" transform="translate(-694.34 -27.49)"></path><rect class="cls-5" x="944.07" y="154.15" width="43.4" height="88.18" transform="translate(-714.12 197.34) rotate(-13.15)"></rect><path class="cls-3" d="M996.93,236.24c.09,0-4.32-19.26-9.86-43s-10.1-42.92-10.19-42.9,4.32,19.26,9.86,43S996.84,236.26,996.93,236.24Z" transform="translate(-694.34 -27.49)"></path><path class="cls-3" d="M954.67,246.11c.09,0-4.33-19.26-9.87-43s-10.1-42.92-10.19-42.9,4.32,19.26,9.86,43S954.57,246.13,954.67,246.11Z" transform="translate(-694.34 -27.49)"></path><path class="cls-2" d="M966.55,173.51a8.12,8.12,0,1,1-9.76-6.06A8.13,8.13,0,0,1,966.55,173.51Z" transform="translate(-694.34 -27.49)"></path><path class="cls-3" d="M1038.9,135.21c0-.1-4.65.91-10.33,2.23s-10.28,2.48-10.26,2.57,4.65-.91,10.33-2.23S1038.92,135.3,1038.9,135.21Z" transform="translate(-694.34 -27.49)"></path><path class="cls-3" d="M1077,174a66.91,66.91,0,0,0-6.62,1.37c-3.63.85-6.56,1.61-6.54,1.7a63.61,63.61,0,0,0,6.62-1.37A65.67,65.67,0,0,0,1077,174Z" transform="translate(-694.34 -27.49)"></path><path class="cls-3" d="M1078.54,149.94c0-.09-4.22.81-9.38,2s-9.32,2.25-9.3,2.34,4.22-.81,9.38-2S1078.56,150,1078.54,149.94Z" transform="translate(-694.34 -27.49)"></path><path class="cls-3" d="M1077.29,196.33c0-.09-4.22.81-9.38,2s-9.32,2.25-9.3,2.34,4.22-.81,9.38-2S1077.31,196.42,1077.29,196.33Z" transform="translate(-694.34 -27.49)"></path><g class="cls-11"><path class="cls-2" d="M1006.24,91.19a5,5,0,0,0-1,5,32.32,32.32,0,0,0,2.31,4.87,18.29,18.29,0,0,1,1.42,11.63c-.25,1.19-.58,2.56.18,3.51,1.08,1.34,3.25.6,4.62-.46a17.27,17.27,0,0,0,6.05-17.46,12.16,12.16,0,0,0-4.26-6.87c-2.21-1.64-5.6-3.12-9.35-.25" transform="translate(-694.34 -27.49)"></path></g><g class="cls-11"><path class="cls-2" d="M1076,129a10.51,10.51,0,0,0-4.47.46L1046,135.92c-2.78.71-8,1.34-8.06,4.18h0c-.56,1.55.62,3.3,2.14,3.94a9,9,0,0,0,4.89.18c3.41-.54,6.78-1.34,10.15-2.14,6.76-1.62,13.54-3.28,20-6a9.55,9.55,0,0,0,2.68-1.51,3.47,3.47,0,0,0,1.27-2.71A3.57,3.57,0,0,0,1076,129Z" transform="translate(-694.34 -27.49)"></path></g><path class="cls-2" d="M967.48,155.13c0-.09-6,1.22-13.23,2.92s-13.17,3.15-13.15,3.24,5.94-1.21,13.23-2.91S967.5,155.22,967.48,155.13Z" transform="translate(-694.34 -27.49)"></path><path class="cls-2" d="M1081.5,164.86a1.65,1.65,0,0,0,.16-.5,6.74,6.74,0,0,0,.22-1.42,10.61,10.61,0,0,0-.07-2.14,12.33,12.33,0,0,0-.68-2.52,11.64,11.64,0,0,0-1.26-2.3,10,10,0,0,0-1.42-1.6,7.35,7.35,0,0,0-1.14-.87,1.52,1.52,0,0,0-.46-.25c0,.06.59.46,1.44,1.3a10.93,10.93,0,0,1,1.32,1.6,12.12,12.12,0,0,1,1.2,2.24,13.19,13.19,0,0,1,.69,2.45,12.28,12.28,0,0,1,.14,2.08C1081.61,164.12,1081.43,164.84,1081.5,164.86Z" transform="translate(-694.34 -27.49)"></path><path class="cls-2" d="M1082.67,141.64a2.91,2.91,0,0,0,.8-1.13,6.56,6.56,0,0,0,.62-3.29,6.7,6.7,0,0,0-1-3.19,3.12,3.12,0,0,0-.94-1s.32.42.73,1.15a7.15,7.15,0,0,1,.91,3.08,7.3,7.3,0,0,1-.5,3.17C1082.94,141.18,1082.62,141.61,1082.67,141.64Z" transform="translate(-694.34 -27.49)"></path><path class="cls-2" d="M1079.48,189.86a3.42,3.42,0,0,0,1.13-1.12,5.77,5.77,0,0,0-.44-7.24,3.42,3.42,0,0,0-1.26-1s.48.38,1.08,1.13a6.18,6.18,0,0,1,1.34,3.41,6.08,6.08,0,0,1-.92,3.54C1079.91,189.42,1079.43,189.81,1079.48,189.86Z" transform="translate(-694.34 -27.49)"></path><path class="cls-2" d="M1075.64,212.26a3.52,3.52,0,0,0,.76-1.21,7.55,7.55,0,0,0-.29-6.7,3.38,3.38,0,0,0-.86-1.13s.28.46.65,1.24a8.34,8.34,0,0,1,.28,6.5C1075.88,211.77,1075.59,212.22,1075.64,212.26Z" transform="translate(-694.34 -27.49)"></path><path class="cls-2" d="M1028.13,120.22a5.86,5.86,0,0,0,.25-1c.07-.31.15-.7.22-1.16s.16-1,.2-1.56a28.57,28.57,0,0,0,.15-4.08,31.23,31.23,0,0,0-1.89-9.81,30.06,30.06,0,0,0-1.67-3.74c-.26-.52-.54-1-.77-1.36s-.45-.73-.64-1a5,5,0,0,0-.6-.81,6.78,6.78,0,0,0,.49.88c.17.28.37.62.58,1s.49.86.73,1.38a34.3,34.3,0,0,1,1.58,3.74,37,37,0,0,1,1.31,4.78,36.43,36.43,0,0,1,.57,4.93,32.58,32.58,0,0,1-.08,4c0,.58-.1,1.09-.15,1.55s-.11.85-.16,1.17A4.91,4.91,0,0,0,1028.13,120.22Z" transform="translate(-694.34 -27.49)"></path><path class="cls-8" d="M931.63,221.53s3.32-2.57,5.79-2.68,5.68.86,6.32.54,2.15-1.73,3.11-.54,2.15,5.47-3,6.65h-3.54s.43,3.54,1.29,4.93,12.87,16.51,12.87,16.51,1.5,1.5.75,3-4,.64-4,.64-2.25,2-4.82,1.07a17.85,17.85,0,0,1-3.65-1.71,4.77,4.77,0,0,1-5.79,0c-3-2.26-13-14.8-13-14.8l3.58-14Z" transform="translate(-694.34 -27.49)"></path><path class="cls-8" d="M921.21,213.24l10.42,8.29L924,235.15l-15.26-5.54S909.16,213.53,921.21,213.24Z" transform="translate(-694.34 -27.49)"></path><path class="cls-8" d="M1083.74,194.7s-.33-3.73-2.42-3-3,5.16-3,5.16Z" transform="translate(-694.34 -27.49)"></path><path class="cls-8" d="M1076.27,198.38s3.63-4.06,8.67-3.73,1.87,4.61,1.87,4.61,3.74,2.3,1,5.6l-.44.87s3.18,1.21-.11,4.61a3.34,3.34,0,0,1-.44,3.84c-1.65,1.65-5.76-.54-5.76-.54s-3.79.87-4.12-.66a2.94,2.94,0,0,1,.88-2.86c.33-.22,2.31-1,2.31-1s-4.39.54-4.5-.55-.55-2.31,2.74-3.4l1.76-.47s-4.56.14-4.59-1-.24-1.54,1.4-2.31a24.39,24.39,0,0,0,3-1.64S1075.62,200.69,1076.27,198.38Z" transform="translate(-694.34 -27.49)"></path><path class="cls-9" d="M1075.47,202.67a18.6,18.6,0,0,1,5.43-2.78,18.92,18.92,0,0,1,6.08-.48,4.73,4.73,0,0,0-1.79-.38,12.36,12.36,0,0,0-8.4,2.37A4.66,4.66,0,0,0,1075.47,202.67Z" transform="translate(-694.34 -27.49)"></path><path class="cls-9" d="M1076,208.94s-.1-.14-.21-.39a1.75,1.75,0,0,1,0-1.14,2.56,2.56,0,0,1,1-1.38,5.77,5.77,0,0,1,2-.84,48,48,0,0,1,5.76-.69,5.39,5.39,0,0,0-1.72-.19,17.37,17.37,0,0,0-4.14.45,5.59,5.59,0,0,0-2.15.94,2.78,2.78,0,0,0-1.06,1.63,1.72,1.72,0,0,0,.15,1.3C1075.78,208.9,1076,209,1076,208.94Z" transform="translate(-694.34 -27.49)"></path><path class="cls-9" d="M1077.82,213.77s-.16-.1-.38-.31a1.85,1.85,0,0,1,.1-2.75,7.51,7.51,0,0,1,2.15-1,14.55,14.55,0,0,1,4.4-.23,5.45,5.45,0,0,0,1.87-.1,14,14,0,0,0-1.85-.22,12.23,12.23,0,0,0-4.55.12,7.39,7.39,0,0,0-2.29,1.11,2,2,0,0,0-.65,1,2.49,2.49,0,0,0,0,1,1.85,1.85,0,0,0,.75,1.21C1077.62,213.79,1077.82,213.79,1077.82,213.77Z" transform="translate(-694.34 -27.49)"></path><path class="cls-9" d="M1076.21,198.56s.09-.14.32-.35a10.22,10.22,0,0,1,1-.81,14.31,14.31,0,0,1,3.72-2,9.63,9.63,0,0,1,4.14-.6,16.23,16.23,0,0,1,1.69.48,3,3,0,0,0-1.63-.79,8.58,8.58,0,0,0-4.33.48C1077.84,196.15,1075.94,198.41,1076.21,198.56Z" transform="translate(-694.34 -27.49)"></path></svg>