<?xml version="1.0" encoding="UTF-8"?>
<svg width="703px" height="678px" viewBox="0 0 703 678" version="1.1" xmlns="http://www.w3.org/2000/svg"
	xmlns:xlink="http://www.w3.org/1999/xlink">
	<defs>
		<linearGradient x1="-0.00269335421%" y1="50.0019185%" x2="99.9920454%" y2="50.0019185%" id="linearGradient-1">
			<stop stop-color="#8DE2FD" offset="0%"></stop>
			<stop stop-color="#4C60FA" offset="100%"></stop>
		</linearGradient>
	</defs>
	<g id="Page-1" stroke="none" stroke-width="1" fill="none" fill-rule="evenodd">
		<path
			d="M256.406815,11.7361238 C201.10063,28.095569 173.447537,45.1662945 173.447537,62.9483002 C173.447537,89.6213087 77.0354041,152.569609 77.0354041,206.982546 C77.0354041,261.395484 -85.1462467,561.2001 62.8351674,595.341551 C210.816581,629.483002 254.912053,624.1484 317.692047,662.557532 C380.472041,700.966665 453.283284,663.025954 549,564 C644.716716,464.974046 672,353.613698 672,296 C672,238.386302 681.79047,63 622,63 C562.20953,63 475.389413,51.2121764 430.54656,19.2045662 C400.651325,-2.13384068 342.604743,-4.62332148 256.406815,11.7361238 Z"
			id="Path-2" fill-opacity="0.0463013549" fill="#EAEAEA"></path>
		<path
			d="M270.406815,11.7361238 C215.10063,28.095569 187.447537,45.1662945 187.447537,62.9483002 C187.447537,89.6213087 91.0354041,152.569609 91.0354041,206.982546 C91.0354041,261.395484 -71.1462467,561.2001 76.8351674,595.341551 C224.816581,629.483002 268.912053,624.1484 331.692047,662.557532 C394.472041,700.966665 467.283284,663.025954 563,564 C658.716716,464.974046 686,353.613698 686,296 C686,238.386302 695.79047,63 636,63 C576.20953,63 489.389413,51.2121764 444.54656,19.2045662 C414.651325,-2.13384068 356.604743,-4.62332148 270.406815,11.7361238 Z"
			id="Path-2" fill-opacity="0.0463013549" fill="#EAEAEA"
			transform="translate(350.575707, 339.194477) rotate(-1.000000) translate(-350.575707, -339.194477) "></path>
		<path
			d="M623,420.55 L97.85,420.55 C94.2822405,420.55 91.39,417.657759 91.39,414.09 L91.39,160.75 L629.39,160.75 L629.39,414.09 C629.39,417.630601 626.540393,420.511634 623,420.55 L623,420.55 Z"
			id="Path" fill="#A0C0FC" fill-rule="nonzero"></path>
		<path
			d="M629.42,160.82 L91.42,160.82 L91.42,153.42 C91.42,143.478875 99.4788745,135.42 109.42,135.42 L611.45,135.42 C621.391125,135.42 629.45,143.478875 629.45,153.42 L629.42,160.82 Z"
			id="Path" fill="#4C60FA" fill-rule="nonzero"></path>
		<circle id="Oval" fill="#E79C88" fill-rule="nonzero" cx="125.11" cy="148.54" r="4.38"></circle>
		<circle id="Oval" fill="#FFFFFF" fill-rule="nonzero" cx="144.64" cy="148.54" r="4.38"></circle>
		<path
			d="M168.55,148.54 C168.55,150.959007 166.589007,152.92 164.17,152.92 C161.750993,152.92 159.79,150.959007 159.79,148.54 C159.79,146.120993 161.750993,144.16 164.17,144.16 C166.589007,144.16 168.55,146.120993 168.55,148.54 Z"
			id="Path" fill="#FFFFFF" fill-rule="nonzero"></path>
		<path
			d="M546.77,181.46 C545.441046,179.845158 543.404081,178.985521 541.32,179.16 L506.56,182.1 C504.184873,182.295456 502.119149,183.804328 501.21049,186.007456 C500.301832,188.210583 500.703241,190.737001 502.25,192.55 L509.61,201.21 L457,240.58 L437.46,219.22 C434.832813,216.359625 430.476204,215.92913 427.34,218.22 L316.34,298.89 L286.46,277.8 C283.661872,275.82962 279.894787,275.960365 277.24,278.12 L192.24,347.37 C190.126774,349.09202 189.09276,351.810625 189.52746,354.501742 C189.96216,357.19286 191.799534,359.447645 194.34746,360.416742 C196.895386,361.38584 199.766774,360.92202 201.88,359.2 L282.4,293.61 L312,314.49 C314.674179,316.36765 318.24572,316.339528 320.89,314.42 L430.78,234.55 L450.39,256 C453.026775,258.907087 457.43884,259.339642 460.59,257 L519.51,212.92 L527.61,222.45 C528.815551,223.871924 530.585806,224.691215 532.45,224.69 C532.900236,224.688476 533.349172,224.641572 533.79,224.55 C536.082673,224.053684 537.916011,222.33565 538.56,220.08 L548,187.25 C548.567829,185.235188 548.107862,183.069976 546.77,181.46 Z"
			id="Path" fill="url(#linearGradient-1)" fill-rule="nonzero" transform="scale(-1)">

			<animateTransform attributeType="xml" attributeName="transform" type="rotate" values="-1;-0.5;0;-0.5;-1"
				dur="2s" repeatCount="indefinite" />
		</path>
		<rect id="Rectangle" fill="#7C9AFB" fill-rule="nonzero" x="250.11" y="336.39" width="28.93" height="49.37">
		</rect>
		<rect id="Rectangle" fill="#7C9AFB" fill-rule="nonzero" x="292.56" y="350.38" width="28.93" height="35.37">
		</rect>
		<rect id="Rectangle" fill="#7C9AFB" fill-rule="nonzero" x="335.01" y="323.03" width="28.93" height="62.73">
		</rect>
		<rect id="Rectangle" fill="#7C9AFB" fill-rule="nonzero" x="377.46" y="312.47" width="28.93" height="73.29">
		</rect>
		<rect id="Rectangle" fill="#7C9AFB" fill-rule="nonzero" x="419.91" y="284.47" width="28.93" height="101.29">
		</rect>
		<rect id="Rectangle" fill="#7C9AFB" fill-rule="nonzero" x="462.36" y="313.02" width="28.93" height="72.74">
		</rect>
		<polyline id="Path" stroke="#FFFFFF" stroke-width="1.43" points="178.9 189.79 178.9 385.56 560.15 385.56">
		</polyline>
		<circle id="Oval" stroke="#FFFFFF" stroke-width="1.5" cx="682.03" cy="184.82" r="19.54"></circle>
		<polyline id="Path" stroke="#FFFFFF" stroke-width="1.5" stroke-linecap="round" stroke-linejoin="round"
			points="673.77 185.82 680.57 190.8 689.33 178.43"></polyline>
		<circle id="Oval" stroke="#FFFFFF" stroke-width="1.5"
			transform="translate(43.296698, 437.592305) rotate(-45.000000) translate(-43.296698, -437.592305) "
			cx="43.2966985" cy="437.592305" r="19.54"></circle>
		<line x1="37.76" y1="431.4" x2="48.81" y2="442.45" id="Path" stroke="#FFFFFF" stroke-width="1.5"
			stroke-linecap="round" stroke-linejoin="round"></line>
		<line x1="48.81" y1="431.4" x2="37.76" y2="442.45" id="Path" stroke="#FFFFFF" stroke-width="1.5"
			stroke-linecap="round" stroke-linejoin="round"></line>
		<rect id="Rectangle" stroke="#FFFFFF" stroke-width="1.5" stroke-linecap="round" stroke-linejoin="round"
			x="662.49" y="364.93" width="14.77" height="14.77"></rect>
		<rect id="Rectangle" stroke="#FFFFFF" stroke-width="1.5" stroke-linecap="round" stroke-linejoin="round"
			x="338.1" y="462.36" width="14.77" height="14.77"></rect>
		<path
			d="M569,244.21 L569,244.21 C564.918616,244.21 561.61,240.901384 561.61,236.82 L561.61,236.82 C561.61,232.738616 564.918616,229.43 569,229.43 L569,229.43 C573.081384,229.43 576.39,232.738616 576.39,236.82 L576.39,236.82 C576.39,240.901384 573.081384,244.21 569,244.21 L569,244.21 Z"
			id="Path" stroke="#FFFFFF" stroke-width="1.5" stroke-linecap="round" stroke-linejoin="round"></path>
		<rect id="Rectangle" stroke="#FFFFFF" stroke-width="1.5" stroke-linecap="round" stroke-linejoin="round"
			x="29.42" y="291.52" width="14.77" height="14.77"></rect>
		<circle id="Oval" fill="#FFFFFF" fill-rule="nonzero" cx="224.09" cy="198.36" r="4.46"></circle>
		<circle id="Oval" fill="#FFFFFF" fill-rule="nonzero" cx="237.02" cy="198.36" r="4.46"></circle>
		<circle id="Oval" fill="#FFFFFF" fill-rule="nonzero" cx="249.94" cy="198.36" r="4.46"></circle>
		<path
			d="M262.87,195.39 C264.526854,195.39 265.87,196.733146 265.87,198.39 C265.87,200.046854 264.526854,201.39 262.87,201.39 C261.213146,201.39 259.87,200.046854 259.87,198.39 C259.87,196.733146 261.213146,195.39 262.87,195.39 M262.87,193.89 C260.401287,193.89 258.4,195.891287 258.4,198.36 C258.4,200.828713 260.401287,202.83 262.87,202.83 C265.338713,202.83 267.34,200.828713 267.34,198.36 C267.34,195.891287 265.338713,193.89 262.87,193.89 L262.87,193.89 Z"
			id="Shape" fill="#FFFFFF" fill-rule="nonzero"></path>
		<path
			d="M106.42,351.92 C106.32574,361.947551 98.1215085,370.000678 88.0939378,369.908536 C78.0663671,369.816393 70.0115079,361.613861 70.1015341,351.586271 C70.1915602,341.558681 78.3923913,333.502091 88.42,333.59 C93.2381389,333.632239 97.8419848,335.587533 101.217967,339.025408 C104.59395,342.463284 106.465291,347.101889 106.42,351.92 L106.42,351.92 Z"
			id="Path" fill="#E79C88" fill-rule="nonzero"></path>
		<polyline id="Path" stroke="#FFFFFF" stroke-width="1.5" stroke-linecap="round" stroke-linejoin="round"
			points="81.47 350.81 86.73 356.01 95.05 346.51"></polyline>
		<rect id="Rectangle" fill="#4C60FA" fill-rule="nonzero"
			transform="translate(83.565000, 207.985000) rotate(180.000000) translate(-83.565000, -207.985000) "
			x="39.77" y="193.35" width="87.59" height="29.27" rx="3.4"></rect>
		<line x1="56.92" y1="204.72" x2="114.29" y2="204.72" id="Path" stroke="#FFFFFF" stroke-width="1.1"></line>
		<line x1="56.92" y1="211.25" x2="73.8" y2="211.25" id="Path" stroke="#FFFFFF" stroke-width="1.1"></line>
		<polygon id="Path" fill="#4C60FA" fill-rule="nonzero" points="116.93 218.72 116.93 231.96 100.06 218.72">
		</polygon>
		<rect id="Rectangle" fill="#E79C88" fill-rule="nonzero" x="294.56" y="113.26" width="103.86" height="89.12"
			rx="6.54"></rect>
		<rect id="Rectangle" stroke="#FFFFFF" stroke-width="1.59" stroke-linecap="round" stroke-linejoin="round"
			x="316.71" y="134.9" width="10.58" height="10.58"></rect>
		<line x1="334.94" y1="140.19" x2="355.44" y2="140.19" id="Path" stroke="#FFFFFF" stroke-width="1.59"
			stroke-linecap="round" stroke-linejoin="round"></line>
		<rect id="Rectangle" stroke="#FFFFFF" stroke-width="1.59" stroke-linecap="round" stroke-linejoin="round"
			x="316.71" y="152.53" width="10.58" height="10.58"></rect>
		<line x1="334.94" y1="157.82" x2="376.28" y2="157.82" id="Path" stroke="#FFFFFF" stroke-width="1.59"
			stroke-linecap="round" stroke-linejoin="round"></line>
		<rect id="Rectangle" stroke="#FFFFFF" stroke-width="1.59" stroke-linecap="round" stroke-linejoin="round"
			x="316.71" y="170.17" width="10.58" height="10.58"></rect>
		<line x1="334.94" y1="175.46" x2="376.28" y2="175.46" id="Path" stroke="#FFFFFF" stroke-width="1.59"
			stroke-linecap="round" stroke-linejoin="round"></line>
		<circle id="Oval" fill="#4C60FA" fill-rule="nonzero"
			transform="translate(633.481800, 282.781273) rotate(-22.000000) translate(-633.481800, -282.781273) "
			cx="633.4818" cy="282.781273" r="35.07"></circle>
		<rect id="Rectangle" fill="#FFFFFF" fill-rule="nonzero" x="618.55" y="282.08" width="6.78" height="11.62">
		</rect>
		<rect id="Rectangle" fill="#FFFFFF" fill-rule="nonzero" x="628.93" y="267.5" width="6.78" height="26.19"></rect>
		<rect id="Rectangle" fill="#FFFFFF" fill-rule="nonzero" x="639.31" y="272.93" width="6.78" height="20.76">
		</rect>
		<line x1="611.57" y1="293.69" x2="655.39" y2="293.69" id="Path" stroke="#FFFFFF" stroke-width="0.99"
			stroke-linecap="round" stroke-linejoin="round"></line>
		<line x1="26.42" y1="152.16" x2="59.81" y2="152.16" id="Path" stroke="#E79C88" stroke-width="2"
			stroke-linecap="round" stroke-linejoin="round"></line>
		<line x1="657.42" y1="430.13" x2="697.82" y2="430.13" id="Path" stroke="#E79C88" stroke-width="2"
			stroke-linecap="round" stroke-linejoin="round"></line>
		<line x1="472.12" y1="108" x2="548.96" y2="108" id="Path" stroke="#A0C0FC" stroke-width="2"
			stroke-linecap="round" stroke-linejoin="round"></line>
		<line x1="250.7" y1="467.36" x2="307.02" y2="467.36" id="Path" stroke="#A0C0FC" stroke-width="2"
			stroke-linecap="round" stroke-linejoin="round"></line>
		<polygon id="Path" fill="#E9A79A" fill-rule="nonzero"
			points="175.79 519.71 177.71 478.77 193.63 478.77 189.37 518.93"></polygon>
		<path
			d="M174.93,513.49 C179.011668,515.510387 183.810069,515.473276 187.86,513.39 C187.86,513.39 189.86,507.27 195.41,510.83 C195.41,510.83 201.82,518 211.35,519.94 C224.56,522.61 225.16,528.77 225.16,528.77 L169.16,528.77 C169.16,528.77 171.16,520.41 172.01,515.14 C172.10787,514.492541 172.498108,513.926081 173.068202,513.603939 C173.638295,513.281797 174.324879,513.239779 174.93,513.49 L174.93,513.49 Z"
			id="Path" fill="#000000" fill-rule="nonzero"></path>
		<rect id="Rectangle" fill="#FFFFFF" fill-rule="nonzero" x="169.15" y="528.77" width="56.01" height="6.12">
		</rect>
		<path d="M206.09,518.27 C206.09,518.27 203.97,518.27 202.31,521.15" id="Path" stroke="#FFFFFF"
			stroke-width="0.79" stroke-linecap="round" stroke-linejoin="round"></path>
		<path d="M203.4,516.83 C203.4,516.83 201.28,516.83 199.61,519.71" id="Path" stroke="#FFFFFF" stroke-width="0.79"
			stroke-linecap="round" stroke-linejoin="round"></path>
		<path d="M200.65,515.12 C200.65,515.12 198.52,515.12 196.86,518" id="Path" stroke="#FFFFFF" stroke-width="0.79"
			stroke-linecap="round" stroke-linejoin="round"></path>
		<polygon id="Path" fill="#E9A79A" fill-rule="nonzero"
			points="131.33 519.71 136.79 478.77 152.72 478.77 144.9 518.93"></polygon>
		<path
			d="M130.79,513.49 C134.871668,515.510387 139.670069,515.473276 143.72,513.39 C143.72,513.39 145.72,507.27 151.26,510.83 C151.26,510.83 157.68,518 167.26,519.94 C180.47,522.61 181.06,528.77 181.06,528.77 L125,528.77 C125,528.77 127,520.41 127.85,515.14 C127.946172,514.487248 128.339418,513.915916 128.914796,513.593 C129.490173,513.270083 130.182717,513.232044 130.79,513.49 Z"
			id="Path" fill="#000000" fill-rule="nonzero"></path>
		<rect id="Rectangle" fill="#FFFFFF" fill-rule="nonzero" x="125.01" y="528.77" width="56.01" height="6.12">
		</rect>
		<path d="M162,518.27 C162,518.27 159.88,518.27 158.21,521.15" id="Path" stroke="#FFFFFF" stroke-width="0.79"
			stroke-linecap="round" stroke-linejoin="round"></path>
		<path d="M159.25,516.83 C159.25,516.83 157.13,516.83 155.47,519.71" id="Path" stroke="#FFFFFF"
			stroke-width="0.79" stroke-linecap="round" stroke-linejoin="round"></path>
		<path d="M156.5,515.12 C156.5,515.12 154.38,515.12 152.72,518" id="Path" stroke="#FFFFFF" stroke-width="0.79"
			stroke-linecap="round" stroke-linejoin="round"></path>
		<path
			d="M202.41,313.06 C202.41,313.06 204.18,318.5 204.92,343.76 C205.08,348.95 204.92,356.16 204.6,361.34 L197.15,505.43 L169.95,505.32 L176.95,358.66 L154.27,505.25 L127.81,504.57 L152.08,320.29 L178.08,317.9 L202.41,313.06 Z"
			id="Path" fill="#1A246E" fill-rule="nonzero"></path>
		<line x1="176.98" y1="358.66" x2="191.65" y2="356.15" id="Path" stroke="#000000" stroke-width="0.5"
			stroke-linecap="round" stroke-linejoin="round"></line>
		<path
			d="M193.17,261.15 C193.17,261.15 214.92,279.44 235.7,288.81 C238.2,289.93 244.18,288.51 246.12,286.57 L246.12,286.57 C247.518686,285.185155 248.227454,283.249023 248.053439,281.288452 C247.879424,279.327881 246.84073,277.54685 245.22,276.43 L207.09,247 L193.17,261.15 Z"
			id="Path" fill="#E9A79A" fill-rule="nonzero"></path>
		<path d="M192.29,238.52 C192.29,238.52 207.46,238.52 223.8,258.4 L210.06,278.27 L184.2,266 L192.29,238.52 Z"
			id="Path" fill="#FFFFFF" fill-rule="nonzero"></path>
		<path
			d="M247,285.53 L272.9,242.43 L264.21,236.82 L231.39,277.14 C228.78,279.47 232,285.7 235.06,288.4 L235.06,288.4 C236.71,289.92 243.55,290.88 247,285.53 Z"
			id="Path" fill="#E9A79A" fill-rule="nonzero"></path>
		<path
			d="M264.19,236.82 L265,230 C265.17096,228.790479 266.02995,227.790928 267.2,227.44 L274.41,225.32 C275.454168,225.007018 276.575777,225.459816 277.11,226.41 L277.11,226.41 C277.415952,226.958239 277.489807,227.606108 277.315097,228.20914 C277.140386,228.812173 276.731639,229.320222 276.18,229.62 L272.73,231.49 C272.73,231.49 277.5,235.31 272.86,240.39 L264.19,236.82 Z"
			id="Path" fill="#E9A79A" fill-rule="nonzero"></path>
		<path
			d="M267.18,227.48 L276.63,214.7 C276.935136,214.291036 277.397936,214.028946 277.905601,213.977609 C278.413266,213.926272 278.919167,214.090404 279.3,214.43 L279.3,214.43 C279.900044,214.985058 280.059222,215.870743 279.69,216.6 L273.69,228.08 L267.18,227.48 Z"
			id="Path" fill="#E9A79A" fill-rule="nonzero"></path>
		<path
			d="M274.75,224.38 L278.36,223.17 C279.124937,222.981736 279.933932,223.15905 280.55,223.65 L281.37,224.32 C282.31607,225.078307 282.581639,226.406151 282,227.47 L277.36,235.66 L271.45,231.27 L274.75,224.38 Z"
			id="Path" fill="#E9A79A" fill-rule="nonzero"></path>
		<path
			d="M281.33,225.599998 L282.67,225.599998 C283.314827,225.599082 283.933579,225.854497 284.39,226.31 L285.49,227.4 C285.9626,227.863765 286.229208,228.497861 286.23,229.16 L286.23,229.16 C286.22358,229.690649 286.048464,230.205489 285.73,230.63 L279.8,238.47 L274.7,234.64 L281.33,225.599998 Z"
			id="Path" fill="#E9A79A" fill-rule="nonzero"></path>
		<path
			d="M283.47,228.719979 L284.82,228.719979 C285.462244,228.717295 286.07855,228.973188 286.53,229.43 L287.64,230.52 C288.108928,230.985423 288.371848,231.619312 288.37001,232.28 L288.37001,232.28 C288.367846,232.811372 288.192287,233.327516 287.87,233.75 L285.79,236.5 C284.766234,237.864174 283.241004,238.764085 281.551879,239.000563 C279.862753,239.23704 278.149031,238.790582 276.79,237.76 L276.79,237.76 L283.47,228.719979 Z"
			id="Path" fill="#E9A79A" fill-rule="nonzero"></path>
		<path
			d="M282.94,238.11 L280.17,241.11 C277.532704,243.992267 273.060767,244.197976 270.17,241.57 L264.17,236.78 L268.83,230.08 L274.7,230.08 L279.79,233.64 L282.94,238.11 Z"
			id="Path" fill="#E9A79A" fill-rule="nonzero"></path>
		<path
			d="M267.68,227.4 L275.52,224.83 C276.64071,224.491977 277.824179,225.121672 278.17,226.24 L278.17,226.24 C278.430113,227.084802 278.144047,228.002598 277.45,228.55 L272.71,231.55 C272.71,231.55 276.96,233.64 273.47,238.47"
			id="Path" stroke="#000000" stroke-width="0.51" stroke-linecap="round" stroke-linejoin="round"></path>
		<path
			d="M173.84,236.38 C166.980693,236.923475 160.240322,238.483871 153.84,241.01 C152.306454,241.617162 150.804542,242.301366 149.34,243.06 C144.91,245.37 148.08,250.38 148.64,255.49 L150.29,326.44 C150.29,326.44 180.82,339.73 205.14,325.78 L207.35,257.78 C207.84,250.65 204.93,241.18 198.22,239.53 C191.249856,237.839367 184.158278,236.695888 177.01,236.11 L173.84,236.38 Z"
			id="Path" fill="#FFFFFF" fill-rule="nonzero"></path>
		<path
			d="M189.68,237.73 C185.542193,236.745289 181.312213,236.198944 177.06,236.1 C172.787279,236.051894 168.530005,236.621102 164.42,237.79 L184.24,249 C189.05,242.06 189.68,237.73 189.68,237.73 Z"
			id="Path" fill="#E9A79A" fill-rule="nonzero"></path>
		<line x1="206.76" y1="276.7" x2="207.17" y2="261.26" id="Path" stroke="#171717" stroke-width="0.68"
			stroke-linecap="round" stroke-linejoin="round"></line>
		<polygon id="Path" fill="#E9A79A" fill-rule="nonzero"
			points="118.3 275.57 144.52 315.61 137.46 323.62 108.52 294.21"></polygon>
		<path
			d="M168.61,317.43 L157.39,311.52 L158.49,308.96 C158.900675,308.038254 158.656601,306.956195 157.89,306.3 C157.118213,305.628629 155.976027,305.607555 155.18,306.25 L144.13,315.25 L137.46,323.62 C143.52,329 147.46,328.94 149.76,327.89 C150.02,327.99 150.29,328.09 150.56,328.17 L159.88,330.94 C160.747214,331.328016 161.765071,330.944088 162.16,330.08 C162.47,329.45 162.58,328.44 160.79,327.49 L162.58,328.44 C163.022829,328.634321 163.524788,328.644415 163.975071,328.468054 C164.425354,328.291693 164.786937,327.943379 164.98,327.5 C165.38,326.68 164.89,325.59 163.83,324.88 L165.21,325.44 C165.696792,325.654723 166.252233,325.650703 166.735866,325.428958 C167.2195,325.207213 167.585021,324.788973 167.74,324.28 C168.043402,323.331745 167.621618,322.302591 166.74,321.84 L164.74,320.84 L167.09,321.43 C167.623526,321.632862 168.218308,321.598097 168.724568,321.33446 C169.230827,321.070823 169.60032,320.603437 169.74,320.05 C170.036042,319.018959 169.563058,317.922307 168.61,317.43 L168.61,317.43 Z"
			id="Path" fill="#E9A79A" fill-rule="nonzero"></path>
		<line x1="165.33" y1="321.09" x2="158.7" y2="317.85" id="Path" stroke="#171717" stroke-width="0.44"
			stroke-linecap="round" stroke-linejoin="round"></line>
		<line x1="163.55" y1="324.76" x2="157.16" y2="322" id="Path" stroke="#171717" stroke-width="0.44"
			stroke-linecap="round" stroke-linejoin="round"></line>
		<line x1="161.38" y1="327.74" x2="155.96" y2="325.52" id="Path" stroke="#171717" stroke-width="0.44"
			stroke-linecap="round" stroke-linejoin="round"></line>
		<path
			d="M155.07,264.53 L121.73,294.36 C118.679116,297.615738 113.694793,298.123558 110.05,295.55 L110.05,295.55 C107.83632,293.951029 106.393757,291.497786 106.072596,288.785971 C105.751436,286.074156 106.581053,283.351819 108.36,281.28 L139.71,249.51 C143.374855,245.188896 149.843379,244.64352 154.18,248.29 L154.18,248.29 C156.520846,250.283025 157.941341,253.149279 158.109572,256.219035 C158.277804,259.288792 157.179034,262.293109 155.07,264.53 L155.07,264.53 Z"
			id="Path" fill="#E9A79A" fill-rule="nonzero"></path>
		<path d="M155.81,240.28 C155.81,240.28 142.42,242.98 125.81,263.61 L141.69,281.5 L161.69,266.6 L155.81,240.28 Z"
			id="Path" fill="#FFFFFF" fill-rule="nonzero"></path>
		<line x1="149.16" y1="275.93" x2="159.98" y2="267.9" id="Path" stroke="#171717" stroke-width="0.68"
			stroke-linecap="round" stroke-linejoin="round"></line>
		<path
			d="M198.56,193.62 C197.56,203.54 189.01,214.77 178.27,214.750027 C167.53,214.73 160.94,206.19 158.06,196.64 C153.63,181.89 166.92,174.53 181.69,177.19 C188.35,178.39 199.63,182.82 198.56,193.62 Z"
			id="Path" fill="#000000" fill-rule="nonzero"></path>
		<polygon id="Path" fill="#E9A79A" fill-rule="nonzero"
			points="172.88 211.08 170.02 240.49 185.23 240.58 184.42 214.21"></polygon>
		<polygon id="Path" fill="#000000" fill-rule="nonzero" points="184.96 231.72 175.02 219.89 184.45 216.07">
		</polygon>
		<path
			d="M175.27,182.7 C178.56931,181.775346 182.040688,181.645127 185.4,182.32 C189.93,183.32 195.72,186.14 196.4,194.41 C197.58,208.21 195.88,219.32 189.07,222.41 C183.83,224.79 180.07,223.86 174.07,220.34 C171.83,219.03 169.7,213.49 169.07,210.85 L166.5,203.47 C166.5,203.47 159.53,187 175.27,182.7 Z"
			id="Path" fill="#E9A79A" fill-rule="nonzero"></path>
		<path
			d="M169.25,207.49 C169.25,207.49 175.94,186.55 166.17,185.98 L160.78,196.4 L163.62,205.14 L169.25,207.49 Z"
			id="Path" fill="#000000" fill-rule="nonzero"></path>
		<path
			d="M170.94,212 C170.544369,210.087754 169.787502,208.268558 168.71,206.64 C167.2,204.38 165.04,202.29 162.32,203.96 C157.69,206.81 163.38,214.23 168.46,214.32 C169.95,214.32 171.19,213.19 170.94,212 Z"
			id="Path" fill="#E9A79A" fill-rule="nonzero"></path>
		<path
			d="M168.29,186.53 C168.29,186.53 202,192.87 201.45,180.4 C201,168.68 183.69,173 179,177.4 L165.81,184.19 L168.29,186.53 Z"
			id="Path" fill="#000000" fill-rule="nonzero"></path>
		<polyline id="Path" stroke="#000000" stroke-width="0.39" stroke-linecap="round" stroke-linejoin="round"
			points="188.97 206.43 190.22 209.32 188.61 210.58"></polyline>
		<path
			d="M190.75,195.42 C190.588144,195.929561 190.662538,196.484797 190.952826,196.933776 C191.243115,197.382756 191.718903,197.678469 192.25,197.74 C193.427425,197.879255 194.580964,198.175207 195.68,198.62 C195.925066,198.748954 196.212634,198.770511 196.474186,198.679536 C196.735739,198.588561 196.947857,198.3932 197.06,198.14 L197.06,198.14 C197.30021,197.704244 197.30021,197.175756 197.06,196.74 C196.358266,195.420196 195.110885,194.47643 193.65,194.16 C191.23,193.67 190.75,195.42 190.75,195.42 Z"
			id="Path" fill="#000000" fill-rule="nonzero"></path>
		<path
			d="M184.05,195.27 C184.05,195.27 184.72,197.21 181.82,197.56 C179.747253,197.904459 177.711584,198.443509 175.74,199.17 C175.064569,199.420104 174.304832,199.220173 173.84,198.67 L173.84,198.67 C173.529544,198.246906 173.554484,197.664981 173.9,197.27 C175.577766,195.584968 177.718322,194.436377 180.05,193.97 C183.48,193.51 184.05,195.27 184.05,195.27 Z"
			id="Path" fill="#000000" fill-rule="nonzero"></path>
		<path d="M184.62,204.65 C184.62,204.65 183.26,199.34 176.26,203.18 C176.26,203.18 179.07,208.7 184.62,204.65 Z"
			id="Path" fill="#FFFFFF" fill-rule="nonzero"></path>
		<path
			d="M183.25,203.91 C183.361793,205.232049 182.388261,206.397608 181.067439,206.523066 C179.746618,206.648524 178.571054,205.687096 178.431945,204.367642 C178.292835,203.048188 179.242055,201.862746 180.56,201.71 C181.208849,201.643041 181.857612,201.837593 182.362544,202.250548 C182.867476,202.663504 183.186885,203.260766 183.25,203.91 L183.25,203.91 Z"
			id="Path" fill="#000000" fill-rule="nonzero"></path>
		<path
			d="M176.17,203.06 C176.840466,202.58261 177.588023,202.224053 178.38,202 C179.170983,201.742678 179.998233,201.61437 180.83,201.62 C181.685341,201.631566 182.522888,201.865941 183.26,202.3 C184.026099,202.778902 184.572313,203.540727 184.78,204.42 C184.817383,204.590986 184.710459,204.760283 184.54,204.8 C184.370011,204.831949 184.204196,204.727224 184.16,204.56 L184.16,204.51 C184.02607,203.780411 183.609091,203.133374 183,202.71 C182.354576,202.298977 181.614071,202.061326 180.85,202.02 C180.065627,201.995847 179.28243,202.097123 178.53,202.32 C177.766422,202.524672 177.045235,202.863257 176.4,203.32 C176.338299,203.378414 176.241701,203.378414 176.18,203.32 C176.136912,203.291591 176.110173,203.244142 176.108189,203.19257 C176.106206,203.140997 176.129221,203.091634 176.17,203.06 Z"
			id="Path" fill="#000000" fill-rule="nonzero"></path>
		<path d="M190.38,204.61 C190.38,204.61 192.47,199.36 196.29,203.01 C196.29,203 194.78,208.17 190.38,204.61 Z"
			id="Path" fill="#FFFFFF" fill-rule="nonzero"></path>
		<path
			d="M191.73,203.59 C191.812346,204.556379 192.619862,205.29941 193.589742,205.301231 C194.559622,205.303047 195.369918,204.56305 195.455887,203.596986 C195.541856,202.630922 194.874961,201.759471 193.92,201.59 C192.76556,201.544671 191.789341,202.436196 191.73,203.59 Z"
			id="Path" fill="#000000" fill-rule="nonzero"></path>
		<path
			d="M196.18,203.08 C195.908723,202.647478 195.520372,202.300736 195.06,202.08 C194.61328,201.883858 194.114909,201.838233 193.64,201.95 L193.64,201.95 C192.98593,202.061881 192.378178,202.360547 191.89,202.81 C191.406734,203.262974 191.027951,203.815792 190.78,204.43 L190.78,204.43 C190.717923,204.556998 190.5684,204.614618 190.437152,204.562119 C190.305905,204.50962 190.237367,204.364776 190.28,204.23 L190.28,204.23 C190.576722,203.548252 191.0247,202.94297 191.59,202.46 C192.153966,201.97205 192.84998,201.662323 193.59,201.57 L193.59,201.57 C194.147216,201.457999 194.725679,201.528116 195.24,201.77 C195.733407,202.023363 196.150899,202.4029 196.45,202.87 C196.498256,202.920297 196.498256,202.999703 196.45,203.05 C196.441415,203.113682 196.390581,203.163343 196.326715,203.170439 C196.26285,203.177536 196.202355,203.140244 196.18,203.08 Z"
			id="Path" fill="#000000" fill-rule="nonzero"></path>
		<path d="M182.87,212.54 C182.87,212.54 185.24,215 189.42,213.54" id="Path" stroke="#000000" stroke-width="0.39"
			stroke-linecap="round" stroke-linejoin="round"></path>
		<rect id="Rectangle" fill="#E2C64A" fill-rule="nonzero" x="463.56" y="509.04" width="105.08" height="13.34">
		</rect>
		<rect id="Rectangle" fill="#D9AD44" fill-rule="nonzero" x="474.43" y="509.04" width="19.99" height="13.34">
		</rect>
		<rect id="Rectangle" fill="#E9D47C" fill-rule="nonzero" x="541.48" y="509.04" width="14.66" height="13.34">
		</rect>
		<rect id="Rectangle" fill="#E2C64A" fill-rule="nonzero" x="463.56" y="482.36" width="105.08" height="13.34">
		</rect>
		<rect id="Rectangle" fill="#D9AD44" fill-rule="nonzero" x="474.43" y="482.36" width="19.99" height="13.34">
		</rect>
		<rect id="Rectangle" fill="#E9D47C" fill-rule="nonzero" x="541.48" y="482.36" width="14.66" height="13.34">
		</rect>
		<rect id="Rectangle" fill="#E2C64A" fill-rule="nonzero" x="463.56" y="442.35" width="105.08" height="13.34">
		</rect>
		<rect id="Rectangle" fill="#D9AD44" fill-rule="nonzero" x="474.43" y="442.35" width="19.99" height="13.34">
		</rect>
		<rect id="Rectangle" fill="#E9D47C" fill-rule="nonzero" x="541.48" y="442.35" width="14.66" height="13.34">
		</rect>
		<rect id="Rectangle" fill="#E2C64A" fill-rule="nonzero" x="476.07" y="522.38" width="105.08" height="13.34">
		</rect>
		<rect id="Rectangle" fill="#D9AD44" fill-rule="nonzero" x="486.94" y="522.38" width="19.99" height="13.34">
		</rect>
		<rect id="Rectangle" fill="#E9D47C" fill-rule="nonzero" x="553.99" y="522.38" width="14.66" height="13.34">
		</rect>
		<rect id="Rectangle" fill="#E2C64A" fill-rule="nonzero" x="476.07" y="469.02" width="105.08" height="13.34">
		</rect>
		<rect id="Rectangle" fill="#D9AD44" fill-rule="nonzero" x="486.94" y="469.02" width="19.99" height="13.34">
		</rect>
		<rect id="Rectangle" fill="#E9D47C" fill-rule="nonzero" x="553.99" y="469.02" width="14.66" height="13.34">
		</rect>
		<rect id="Rectangle" fill="#E2C64A" fill-rule="nonzero" x="476.07" y="455.69" width="105.08" height="13.34">
		</rect>
		<rect id="Rectangle" fill="#D9AD44" fill-rule="nonzero" x="486.94" y="455.69" width="19.99" height="13.34">
		</rect>
		<rect id="Rectangle" fill="#E9D47C" fill-rule="nonzero" x="553.99" y="455.69" width="14.66" height="13.34">
		</rect>
		<rect id="Rectangle" fill="#E2C64A" fill-rule="nonzero" x="476.07" y="495.7" width="105.08" height="13.34">
		</rect>
		<rect id="Rectangle" fill="#D9AD44" fill-rule="nonzero" x="486.94" y="495.7" width="19.99" height="13.34">
		</rect>
		<rect id="Rectangle" fill="#E9D47C" fill-rule="nonzero" x="553.99" y="495.7" width="14.66" height="13.34">
		</rect>
		<line x1="568.65" y1="522.38" x2="476.07" y2="522.38" id="Path" stroke="#D19734" stroke-width="0.84"></line>
		<line x1="568.65" y1="509.04" x2="476.07" y2="509.04" id="Path" stroke="#D19734" stroke-width="0.84"></line>
		<line x1="568.65" y1="495.7" x2="476.07" y2="495.7" id="Path" stroke="#D19734" stroke-width="0.84"></line>
		<line x1="568.65" y1="482.36" x2="476.07" y2="482.36" id="Path" stroke="#D19734" stroke-width="0.84"></line>
		<line x1="581.16" y1="469.02" x2="476.07" y2="469.02" id="Path" stroke="#D19734" stroke-width="0.84"></line>
		<line x1="581.16" y1="455.69" x2="476.07" y2="455.69" id="Path" stroke="#D19734" stroke-width="0.84"></line>
		<circle id="Oval" fill="#D19734" fill-rule="nonzero"
			transform="translate(617.884100, 491.040100) rotate(-8.615648) translate(-617.884100, -491.040100) "
			cx="617.8841" cy="491.0401" r="44.5778384"></circle>
		<circle id="Oval" fill="#E2C64A" fill-rule="nonzero"
			transform="translate(610.672283, 489.205954) rotate(-83.920000) translate(-610.672283, -489.205954) "
			cx="610.672283" cy="489.205954" r="44.52"></circle>
		<circle id="Oval" fill="#DAB03C" fill-rule="nonzero"
			transform="translate(610.659762, 489.135384) rotate(-20.030000) translate(-610.659762, -489.135384) "
			cx="610.659762" cy="489.135384" r="35.71"></circle>
		<path
			d="M578.23,482.47 C581.692013,469.737775 591.892671,459.952112 604.75763,457.021597 C617.622589,454.091083 631.055118,458.493332 639.69,468.47 C632.439708,457.652136 619.874063,451.640472 606.901522,452.783315 C593.928981,453.926159 582.607944,462.042172 577.360693,473.961034 C572.113442,485.879896 573.772578,499.710399 581.69,510.05 C577.074118,501.643837 575.85042,491.789848 578.27,482.51 L578.23,482.47 Z"
			id="Path" fill="#D19734" fill-rule="nonzero"></path>
		<path
			d="M602.09,512.49 L603.43,507.54 C597.91,505.77 595.64,503.11 597.43,496.38 C597.809815,494.931522 598.308163,493.516749 598.92,492.15 L605.92,494.06 C605.662578,494.689922 605.442202,495.334355 605.26,495.99 C604.47,498.91 604.26,500.62 607.07,501.39 C609.88,502.16 610.46,501.22 611.48,497.47 C611.97,495.63 612.15,494.99 611.37,493.83 C609.81,491.29 604.96,488.55 602.97,486.1 C601.16,483.97 601.24,481.68 602.84,475.77 C604.68,468.98 607.33,467.24 613.89,468.68 L614.96,464.75 L618.96,465.83 L618,469.77 C623.9,471.64 625.43,474.3 623.79,480.33 C623.445445,481.62858 623.011065,482.901646 622.49,484.14 L615.49,482.24 C615.740389,481.538277 615.954012,480.823974 616.13,480.1 C616.86,477.44 616.84,476 614.13,475.28 C611.84,474.66 611,475.28 610.13,478.42 C609.26,481.56 609.34,482.09 611.24,483.63 C613.3,485.35 615.4,486.63 617.17,488.17 C619.65,490.34 621.38,491.49 619.61,498.03 C617.12,507.23 614.54,509.94 607.42,508.56 L606.06,513.56 L602.09,512.49 Z"
			id="Path" fill="#D19734" fill-rule="nonzero" transform="rotate(-1)">
			<animateTransform attributeType="xml" attributeName="transform" type="rotate" values="-1;-0.5;0;-0.5;-1"
				dur="2s" repeatCount="indefinite" />
		</path>
		<path
			d="M448.76,525.1 L438.41,530.68 C437.266615,531.332922 436.682597,532.655074 436.97,533.94 C437.23,534.94 438.1,535.77 440.39,535.84 C445.48,535.98 474.87,532.5 474.87,532.5 L475.37,535.73 L486.56,535.52 C486.56,535.52 484.78,520.58 481.62,518.6 L448.76,525.1 Z"
			id="Path" fill="#000000" fill-rule="nonzero"></path>
		<path
			d="M468.1,516 L448.76,525.06 C448.76,525.06 455.95,530.22 463.84,526.9 C471.73,523.58 481.62,518.56 481.62,518.56 L480.22,514.67 L468.1,516 Z"
			id="Path" fill="#C67B5B" fill-rule="nonzero"></path>
		<polygon id="Path" fill="#C67B5B" fill-rule="nonzero"
			points="481.62 518.6 468.61 471.35 450.41 472.1 467.63 521.41"></polygon>
		<polygon id="Path" fill="#3149D7" fill-rule="nonzero"
			points="429.73 433.08 454.65 508.49 485.7 502.08 460.15 420.91"></polygon>
		<path
			d="M544.3,392.87 C544.3,392.87 572.01,432.44 537.36,443.47 L443.94,443 C437.604686,442.969022 431.948349,439.024314 429.73,433.09 L429.73,433.09 C428.156728,428.874729 428.52385,424.180006 430.733251,420.260537 C432.942652,416.341067 436.769121,413.596374 441.19,412.76 L524.38,401.56 L521.76,392.76 L544.3,392.87 Z"
			id="Path" fill="#3149D7" fill-rule="nonzero"></path>
		<path
			d="M554.88,392.92 C554.88,392.92 576.71,424.09 557.4,438.82 C553.207742,441.937006 548.103409,443.582205 542.88,443.5 L454.52,443 C448.185624,442.97348 442.52992,439.026436 440.32,433.09 L440.32,433.09 C437,424.23 442.56,413.03 451.85,411.28 L515.12,402.76 L519.18,392.7 L554.88,392.92 Z"
			id="Path" fill="#4C60FA" fill-rule="nonzero"></path>
		<path
			d="M391.05,524.81 L380.71,530.38 C379.56278,531.029944 378.974409,532.352763 379.26,533.64 C379.52,534.64 380.39,535.47 382.68,535.54 C387.77,535.69 415.78,532.19 415.78,532.19 L415.78,535.09 L426.31,535.21 C426.31,535.21 427.11,520.28 423.94,518.3 L391.05,524.81 Z"
			id="Path" fill="#000000" fill-rule="nonzero"></path>
		<path
			d="M410.39,515.74 L391.05,524.81 C391.05,524.81 398.24,529.96 406.13,526.64 C414.02,523.32 423.91,518.3 423.91,518.3 L422.51,514.41 L410.39,515.74 Z"
			id="Path" fill="#C67B5B" fill-rule="nonzero"></path>
		<polygon id="Path" fill="#C67B5B" fill-rule="nonzero"
			points="423.91 518.3 446.78 471.24 426 471.98 409.13 520.18"></polygon>
		<polygon id="Path" fill="#4C60FA" fill-rule="nonzero"
			points="440.66 421.07 407.6 505.91 437.19 516.6 470.41 435.41"></polygon>
		<path
			d="M505.26,335.7 L503.39,392.81 C503.35843,395.303475 504.362818,397.698282 506.163617,399.423257 C507.964415,401.148232 510.400188,402.048737 512.89,401.91 L512.89,401.91 C517.475286,401.61849 521.104845,397.919961 521.31,393.33 L524.59,336.54 L505.26,335.7 Z"
			id="Path" fill="#C67B5B" fill-rule="nonzero"></path>
		<path
			d="M501.42,357.1 C501.42,357.1 498.69,326.64 514.55,325.61 C532.55,324.44 526.83,361.68 526.95,359.03 L501.42,357.1 Z"
			id="Path" fill="#E79C88" fill-rule="nonzero"></path>
		<polygon id="Path" fill="#C67B5B" fill-rule="nonzero"
			points="469.38 398.29 510.45 386.26 512.89 401.91 472.15 405.82"></polygon>
		<path
			d="M534.28,320.39 L554.75,323.68 C554.75,323.68 558.64,323.11 561.85,334.31 C564.58,343.87 554.51,392.5 554.51,392.5 L518.8,392.5 L509.35,361.76 C508.493934,359.324158 507.965963,356.785188 507.78,354.21 C507.306958,348.753884 508.16127,343.264327 510.27,338.21 L512.27,325.95 L524.52,321.39 L534.28,320.39 Z"
			id="Path" fill="#E79C88" fill-rule="nonzero"></path>
		<path
			d="M541.71,321.58 L534.28,320.39 L523.72,321.69 L519.09,323.45 C519.09,323.45 514.73,330.1 521.94,330.93 C530.71,331.94 537.55,328.59 541.71,321.58 Z"
			id="Path" fill="#C67B5B" fill-rule="nonzero"></path>
		<path
			d="M545.59,334.52 L551.15,391.39 C551.391871,393.879413 552.658762,396.155902 554.64685,397.673526 C556.634938,399.191151 559.164897,399.81302 561.63,399.39 L561.63,399.39 C566.151772,398.579162 569.337132,394.492937 569.02,389.91 L564.9,333.19 L545.59,334.52 Z"
			id="Path" fill="#C67B5B" fill-rule="nonzero"></path>
		<path
			d="M545.14,356.13 C545.14,356.13 539.3,324.68 552.73,323.67 C570.73,322.31 570.9,357.79 570.73,355.14 L545.14,356.13 Z"
			id="Path" fill="#E79C88" fill-rule="nonzero"></path>
		<polygon id="Path" fill="#C67B5B" fill-rule="nonzero"
			points="517.99 400.7 557.43 384.07 561.63 399.35 521.6 407.87"></polygon>
		<path
			d="M518,400.7 C518,400.7 510.94,391.16 497.74,404.16 L502.17,407.87 L521.6,407.87 L524.06,401.28 L518,400.7 Z"
			id="Path" fill="#C67B5B" fill-rule="nonzero"></path>
		<path
			d="M511.87,407.5 L548.19,407.5 C550.432276,407.5 552.25,409.317724 552.25,411.56 L511.87,411.56 L511.87,407.5 Z"
			id="Path" fill="#000000" fill-rule="nonzero"></path>
		<path
			d="M515.2,411.56 L453.2,411.56 L439.52,368.63 C439.206011,367.465375 439.451523,366.220961 440.184307,365.262855 C440.917092,364.304749 442.053792,363.741939 443.26,363.74 L497.2,363.74 C498.951566,363.742817 500.484053,364.918816 500.94,366.61 L515.2,411.56 Z"
			id="Path" fill="#000000" fill-rule="nonzero"></path>
		<path
			d="M511.87,411.56 L447.62,411.56 L433.94,368.63 C433.626011,367.465375 433.871523,366.220961 434.604307,365.262855 C435.337092,364.304749 436.473792,363.741939 437.68,363.74 L493.9,363.74 C495.651566,363.742817 497.184053,364.918816 497.64,366.61 L511.87,411.56 Z"
			id="Path" fill="#2F313A" fill-rule="nonzero"></path>
		<path
			d="M474.780011,387.44 C474.784044,389.265938 473.686703,390.914146 472.000527,391.614772 C470.31435,392.315398 468.372096,391.930177 467.080959,390.639041 C465.789823,389.347904 465.404602,387.40565 466.105228,385.719473 C466.805854,384.033297 468.454062,382.935956 470.28,382.939989 C472.765281,382.939989 474.780011,384.954719 474.780011,387.44 L474.780011,387.44 Z"
			id="Path" fill="#D1E3FD" fill-rule="nonzero"></path>
		<circle id="Oval" fill="#000000" fill-rule="nonzero"
			transform="translate(545.514945, 300.050937) rotate(-55.950000) translate(-545.514945, -300.050937) "
			cx="545.514945" cy="300.050937" r="11.96"></circle>
		<path
			d="M538.13,269.51 C538.13,269.51 541.48,267.29 545.64,272.25 C549.8,277.21 550.23,288.33 542.89,291.02 L538.13,269.51 Z"
			id="Path" fill="#000000" fill-rule="nonzero"></path>
		<path
			d="M538.13,269.51 C538.13,269.51 533.05,257.51 517.68,261.05 C502.31,264.59 493,279.67 506.91,287.7 L538.13,269.51 Z"
			id="Path" fill="#000000" fill-rule="nonzero"></path>
		<path
			d="M506.92,284.88 C507.68,294.88 515.92,302.46 526.71,301.65 C537.5,300.84 545.71,292.03 544.91,281.99 C544.11,271.95 534.78,264.47 523.97,265.29 C519.07437,265.529008 514.487919,267.754119 511.27005,271.451366 C508.052181,275.148613 506.481207,279.99822 506.92,284.88 L506.92,284.88 Z"
			id="Path" fill="#000000" fill-rule="nonzero"></path>
		<polygon id="Path" fill="#C67B5B" fill-rule="nonzero"
			points="529.23 296.64 537.3 321.97 528.36 329.35 523.28 325.81 520.44 301.07"></polygon>
		<polygon id="Path" fill="#000000" fill-rule="nonzero" points="522.55 319.46 529.89 305.19 520.69 302.94">
		</polygon>
		<path
			d="M527.36,269.16 C523.972187,268.471227 520.469137,268.598049 517.14,269.53 C512.65,270.83 507.03,274.13 506.93,282.53 C506.76,296.53 509.22,306.76 516.31,309.39 C521.75,311.39 525.51,310.18 531.31,306.2 C533.46,304.71 535.31,299.78 535.68,297.07 L537.68,289.45 C537.68,289.45 543.53,272.3 527.36,269.16 Z"
			id="Path" fill="#C67B5B" fill-rule="nonzero"></path>
		<path
			d="M535.54,293.71 C535.54,293.71 525.25,275.48 534.99,269.43 C534.99,269.43 539.4,268.77 541.83,277.3 C545.74,291 535.54,293.71 535.54,293.71 Z"
			id="Path" fill="#000000" fill-rule="nonzero"></path>
		<path
			d="M533.82,297.5 C534.074965,295.549857 534.69945,293.666219 535.66,291.95 C537.02,289.56 539.04,287.3 541.9,288.78 C546.77,291.3 541.59,299.19 536.48,299.66 C534.98,299.8 533.65,298.72 533.82,297.5 Z"
			id="Path" fill="#C67B5B" fill-rule="nonzero"></path>
		<path
			d="M534.33,300.15 C534.39788,300.902044 534.861815,301.560748 535.547045,301.877983 C536.232274,302.195219 537.034696,302.122792 537.652045,301.687983 C538.269394,301.253175 538.60788,300.522044 538.54,299.77 C538.47212,299.017956 538.008185,298.359252 537.322955,298.042017 C536.637726,297.724781 535.835304,297.797208 535.217955,298.232017 C534.600606,298.666825 534.26212,299.397956 534.33,300.15 L534.33,300.15 Z"
			id="Path" fill="#FFFFFF" fill-rule="nonzero"></path>
		<path
			d="M538.08,272.51 C538.08,272.51 517.28,289.91 504.48,280.04 C504.48,280.04 499.68,268.63 519.08,264.98 C538.48,261.33 538.08,272.51 538.08,272.51 Z"
			id="Path" fill="#000000" fill-rule="nonzero"></path>
		<polyline id="Path" stroke="#000000" stroke-width="0.38" stroke-linecap="round" stroke-linejoin="round"
			points="515.64 296.64 514.42 299.48 515.99 300.72"></polyline>
		<path
			d="M513.05,286.45 C513.202514,286.887496 513.145739,287.370792 512.895986,287.761031 C512.646233,288.15127 512.231151,288.40525 511.77,288.45 C510.767929,288.570553 509.786132,288.822727 508.85,289.2 C508.413586,289.407877 507.891196,289.224818 507.68,288.79 L507.68,288.79 C507.469468,288.421268 507.469468,287.968732 507.68,287.6 C508.274468,286.476405 509.336616,285.6743 510.58,285.41 C512.64,285 513.05,286.45 513.05,286.45 Z"
			id="Path" fill="#000000" fill-rule="nonzero"></path>
		<path
			d="M521,286.16 C521,286.16 520.42,287.81 522.89,288.16 C524.653648,288.448095 526.38512,288.906919 528.06,289.53 C528.636825,289.738716 529.282612,289.567303 529.68,289.1 L529.68,289.1 C529.927137,288.735584 529.906836,288.2524 529.63,287.91 C528.204596,286.474482 526.383812,285.496202 524.4,285.1 C521.42,284.66 521,286.16 521,286.16 Z"
			id="Path" fill="#000000" fill-rule="nonzero"></path>
		<path d="M519.91,294.35 C519.91,294.35 521.24,289.14 528.11,292.91 C528.11,292.91 525.36,298.33 519.91,294.35 Z"
			id="Path" fill="#FFFFFF" fill-rule="nonzero"></path>
		<path
			d="M521.25,293.62 C521.138382,294.919837 522.094005,296.067255 523.39259,296.19261 C524.691174,296.317966 525.848632,295.374528 525.987711,294.077342 C526.12679,292.780155 525.195643,291.612787 523.9,291.46 C522.573899,291.331809 521.39185,292.29529 521.25,293.62 Z"
			id="Path" fill="#000000" fill-rule="nonzero"></path>
		<path
			d="M528,293 C527.362696,292.554635 526.656657,292.216817 525.91,292 C525.169609,291.785818 524.400433,291.687985 523.63,291.71 C522.879826,291.751087 522.152999,291.985326 521.52,292.39 C520.922728,292.786427 520.50313,293.399686 520.35,294.1 L520.35,294.1 C520.319584,294.268421 520.158437,294.380329 519.99,294.35 C519.821579,294.319584 519.709671,294.158437 519.74,293.99 L519.74,293.99 C519.947289,293.131897 520.482071,292.388946 521.23,291.92 C521.955425,291.493986 522.778836,291.263155 523.62,291.25 C524.434447,291.246787 525.244336,291.371645 526.02,291.62 C526.797809,291.855208 527.528724,292.224049 528.18,292.71 C528.235523,292.734648 528.270697,292.790351 528.269139,292.851077 C528.267474,292.911803 528.229395,292.965562 528.172643,292.987231 C528.115892,293.0089 528.051674,292.994199 528.01,292.95 L528,293 Z"
			id="Path" fill="#000000" fill-rule="nonzero"></path>
		<path d="M514.26,294.32 C514.26,294.32 512.21,289.16 508.46,292.74 C508.46,292.74 509.94,297.8 514.26,294.32 Z"
			id="Path" fill="#FFFFFF" fill-rule="nonzero"></path>
		<path
			d="M512.93,293.31 C513.226853,294.011194 513.061139,294.822797 512.513166,295.351494 C511.965192,295.880191 511.148177,296.016746 510.458058,295.694983 C509.76794,295.373219 509.347305,294.659618 509.4,293.9 C509.103147,293.198806 509.268861,292.387203 509.816834,291.858506 C510.364808,291.329809 511.181823,291.193254 511.871942,291.515017 C512.56206,291.836781 512.982695,292.550382 512.93,293.31 Z"
			id="Path" fill="#000000" fill-rule="nonzero"></path>
		<path
			d="M508.36,292.67 C508.643032,292.205446 509.052263,291.830896 509.54,291.59 C510.042413,291.343957 510.612833,291.273535 511.16,291.39 L511.16,291.39 C511.880549,291.491616 512.557084,291.796924 513.11,292.27 C513.666184,292.744859 514.107274,293.339819 514.4,294.01 C514.429986,294.072042 514.433034,294.14371 514.408425,294.208074 C514.383815,294.272438 514.333729,294.32379 514.27,294.35 C514.137343,294.407311 513.983079,294.350013 513.92,294.22 L513.92,294.22 L513.92,294.22 C513.677374,293.619533 513.305185,293.08003 512.83,292.64 C512.349831,292.197895 511.752866,291.902883 511.11,291.79 L511.11,291.79 C510.64505,291.678279 510.15617,291.724001 509.72,291.92 C509.273064,292.120216 508.891762,292.442589 508.62,292.85 C508.569703,292.898256 508.490297,292.898256 508.44,292.85 C508.401436,292.842589 508.368939,292.816778 508.35299,292.780893 C508.337042,292.745008 508.33966,292.703591 508.36,292.67 Z"
			id="Path" fill="#000000" fill-rule="nonzero"></path>
		<path d="M521.94,302 C521.94,302 520.4,304.35 516.31,302.93" id="Path" stroke="#000000" stroke-width="0.38"
			stroke-linecap="round" stroke-linejoin="round"></path>
		<line x1="64.13" y1="535.7" x2="672.37" y2="535.7" id="Path" stroke="#A0C0FC" stroke-width="2"
			stroke-linecap="round" stroke-linejoin="round"></line>


		<path
			d="M103.412296,484.345954 L108,484.345954 L108,490.654046 L103.412296,490.654046 C102.972665,493.01139 102.045075,495.250792 100.689047,497.228552 L100.689047,497.228552 L103.933043,500.472548 L99.4725483,504.933043 L96.228552,501.689047 C94.250792,503.045075 92.0113901,503.972665 89.6540462,504.412296 L89.6540462,504.412296 L89.6540462,509 L83.3459538,509 L83.3459538,504.412296 C80.9886099,503.972665 78.749208,503.045075 76.771448,501.689047 L76.771448,501.689047 L73.5274517,504.933043 L69.0669567,500.472548 L72.3109531,497.228552 C70.9549253,495.250792 70.0273347,493.01139 69.5877036,490.654046 L69.5877036,490.654046 L65,490.654046 L65,484.345954 L69.5877036,484.345954 C70.0273347,481.98861 70.9549253,479.749208 72.3109531,477.771448 L72.3109531,477.771448 L69.0669567,474.527452 L73.5274517,470.066957 L76.771448,473.310953 C78.749208,471.954925 80.9886099,471.027335 83.3459538,470.587704 L83.3459538,470.587704 L83.3459538,466 L89.6540462,466 L89.6540462,470.587704 C92.0113901,471.027335 94.250792,471.954925 96.228552,473.310953 L96.228552,473.310953 L99.4725483,470.066957 L103.933043,474.527452 L100.689047,477.771448 C102.045075,479.749208 102.972665,481.98861 103.412296,484.345954 M86.5,476.030741 C80.1657032,476.030741 75.030741,481.165703 75.030741,487.5 C75.030741,493.834297 80.1657032,498.969259 86.5,498.969259 C92.8342968,498.969259 97.969259,493.834297 97.969259,487.5 C97.969259,481.165703 92.8342968,476.030741 86.5,476.030741"
			id="Shape" fill="#FFFFFF" fill-rule="nonzero" transform="scale(0.5 0.5)">
			<animateTransform attributeName="transform" type="rotate" from="360 86.5 487.5" to="0 86.5 487.5"
				keyTimes="0;1" dur="2s" repeatCount="indefinite"></animateTransform>
		</path>

	</g>
</svg>