<svg width="550" height="436" viewBox="0 0 550 436" fill="none" xmlns="http://www.w3.org/2000/svg">
<path opacity="0.1" d="M0 163.484L93.5613 109.966L189.403 156.633L302.297 91.9844L299.748 306.91L257.868 334.502L197.605 426.916H174.519C168.138 426.916 161.868 425.299 156.294 422.207L84.4094 382.326C75.1309 377.189 74.9567 363.901 84.0769 358.493L147.269 321.087H116.283C95.4297 321.087 74.9725 315.426 57.0646 304.722L13.5061 279.763C4.79761 274.768 4.82928 262.194 13.5536 257.246L35.7842 244.624L63.3981 228.815L0 193.517V163.484Z" fill="#0B50B5"/>
<path d="M65.409 329.253L31.4299 319.58C26.5848 318.201 21.898 322.181 22.4522 327.192L25.8881 358.05L37.2408 365.471C37.2408 365.471 35.8475 367.485 29.419 365.915C18.9529 363.378 10.8144 355.1 7.94851 344.698L0 321.372V286.55L72.6291 325.337L65.409 329.253Z" fill="#E7EEF8"/>
<path d="M75.289 225.881C74.8139 225.881 74.3548 225.643 74.1014 225.199C73.7214 224.549 73.9431 223.693 74.5923 223.312L165.43 170.271C166.079 169.89 166.934 170.112 167.314 170.762C167.694 171.412 167.473 172.269 166.824 172.649L75.9856 225.691C75.764 225.818 75.5265 225.881 75.289 225.881Z" fill="#25284C"/>
<path d="M75.3362 226.769C74.5762 226.769 73.9587 226.151 73.9587 225.389V164.007C73.9587 163.246 74.5762 162.627 75.3362 162.627C76.0962 162.627 76.7137 163.246 76.7137 164.007V225.389C76.7137 226.151 76.0962 226.769 75.3362 226.769Z" fill="#25284C"/>
<path d="M82.9363 236.188C82.1762 236.188 81.5587 235.57 81.5587 234.809V230.86L69.0818 223.645V226.008C69.0818 226.769 68.4643 227.387 67.7043 227.387C66.9442 227.387 66.3267 226.769 66.3267 226.008V221.251C66.3267 220.759 66.5959 220.299 67.0234 220.061C67.4509 219.808 67.9734 219.808 68.4009 220.061L83.6329 228.862C84.0605 229.116 84.3296 229.56 84.3296 230.051V234.809C84.3138 235.57 83.7121 236.188 82.9363 236.188Z" fill="#25284C"/>
<path d="M166.127 172.935C165.367 172.935 164.749 172.316 164.749 171.555V110.173C164.749 109.411 165.367 108.793 166.127 108.793C166.887 108.793 167.504 109.411 167.504 110.173V171.555C167.504 172.316 166.887 172.935 166.127 172.935Z" fill="#25284C"/>
<path d="M173.743 182.354C172.983 182.354 172.365 181.735 172.365 180.974V177.026L159.888 169.811V172.174C159.888 172.935 159.271 173.553 158.511 173.553C157.751 173.553 157.133 172.935 157.133 172.174V167.417C157.133 166.925 157.402 166.465 157.83 166.227C158.257 165.974 158.78 165.974 159.207 166.227L174.439 175.028C174.867 175.282 175.136 175.726 175.136 176.217V180.974C175.12 181.735 174.503 182.354 173.743 182.354Z" fill="#25284C"/>
<path d="M173.901 18.1224L67.5148 79.6318V171.714L173.901 110.204V18.1224Z" fill="#7B92B9"/>
<path d="M70.27 81.2334L171.146 22.8954V106.747L70.27 165.085V81.2334Z" fill="#F5F5F5"/>
<path d="M173.901 18.1223L171.574 16.6952L65.1712 78.2046V170.286L67.5146 171.713V79.6317L173.901 18.1223Z" fill="#25284C"/>
<path d="M178.572 110.934L67.5145 171.714L72.1696 174.283L178.572 112.757V110.934Z" fill="#25284C"/>
<path d="M67.5145 169.89V171.714L72.1696 174.283V172.443L67.5145 169.89Z" fill="#25284C"/>
<path d="M173.902 108.365L67.5154 169.89L72.1706 172.443L178.573 110.934L173.902 108.365Z" fill="#6A7EA2"/>
<path d="M82.4138 143.276C82.4138 143.75 82.1606 144.189 81.7495 144.427C80.8628 144.94 79.7537 144.3 79.7537 143.276V120.042C79.7537 119.567 80.0069 119.128 80.418 118.89C81.3047 118.377 82.4138 119.017 82.4138 120.042V143.276Z" fill="#0656BA"/>
<path d="M87.9869 140.038C87.9869 140.515 87.7331 140.956 87.3208 141.195C86.4289 141.713 85.311 141.069 85.311 140.038V120.774C85.311 120.297 85.5647 119.856 85.977 119.617C86.869 119.099 87.9869 119.743 87.9869 120.774V140.038Z" fill="#0A3F8D"/>
<path d="M93.5606 136.819C93.5606 137.296 93.3069 137.737 92.8946 137.976C92.0026 138.494 90.8847 137.85 90.8847 136.819V121.491C90.8847 121.013 91.1407 120.57 91.5559 120.332C92.4478 119.819 93.5606 120.463 93.5606 121.491V136.819Z" fill="#25284C"/>
<path d="M99.1343 133.6C99.1343 134.077 98.8806 134.518 98.4683 134.757C97.5763 135.275 96.4584 134.632 96.4584 133.6V122.221C96.4584 121.742 96.7144 121.3 97.1296 121.061C98.0216 120.548 99.1343 121.192 99.1343 122.221V133.6Z" fill="#25284C"/>
<path d="M104.692 130.384C104.692 130.858 104.438 131.297 104.027 131.535C103.141 132.048 102.032 131.408 102.032 130.384V122.939C102.032 122.466 102.283 122.029 102.691 121.791C103.577 121.273 104.692 121.912 104.692 122.939V130.384Z" fill="#25284C"/>
<path d="M110.265 127.165C110.265 127.64 110.012 128.078 109.601 128.316C108.714 128.829 107.605 128.189 107.605 127.165V123.657C107.605 123.182 107.859 122.743 108.27 122.505C109.156 121.993 110.265 122.633 110.265 123.657V127.165Z" fill="#25284C"/>
<path d="M79.7542 93.8239C79.485 93.8239 79.2158 93.6812 79.0733 93.4275C78.8516 93.0469 78.9783 92.5712 79.3583 92.3492L158.938 46.3321C159.318 46.1101 159.793 46.237 160.015 46.6176C160.237 46.9981 160.11 47.4738 159.73 47.6958L80.1342 93.7129C80.0233 93.7763 79.8808 93.8239 79.7542 93.8239Z" fill="#7B92B9"/>
<path d="M79.7539 103.75C79.4847 103.75 79.2155 103.608 79.073 103.354C78.8513 102.973 78.978 102.498 79.358 102.276L158.938 56.2587C159.318 56.0367 159.793 56.1635 160.015 56.5441C160.237 56.9246 160.11 57.4004 159.73 57.6224L80.1339 103.639C80.023 103.719 79.8805 103.75 79.7539 103.75Z" fill="#7B92B9"/>
<path d="M79.7539 113.677C79.4847 113.677 79.2155 113.534 79.073 113.28C78.8513 112.9 78.978 112.424 79.358 112.202L158.938 66.185C159.318 65.963 159.793 66.0899 160.015 66.4705C160.237 66.851 160.11 67.3267 159.73 67.5487L80.1339 113.566C80.023 113.645 79.8805 113.677 79.7539 113.677Z" fill="#7B92B9"/>
<path d="M120.811 100.246C120.542 100.246 120.272 100.103 120.13 99.8494C119.908 99.4689 120.035 98.9932 120.415 98.7712L158.938 76.492C159.318 76.2701 159.793 76.3969 160.015 76.7775C160.237 77.158 160.11 77.6338 159.73 77.8558L121.207 100.135C121.08 100.214 120.937 100.246 120.811 100.246Z" fill="#7B92B9"/>
<path d="M120.557 110.696C120.288 110.696 120.019 110.553 119.876 110.299C119.655 109.919 119.781 109.443 120.161 109.221L158.938 86.7991C159.318 86.5771 159.793 86.7039 160.015 87.0845C160.236 87.4651 160.11 87.9408 159.73 88.1628L120.953 110.6C120.826 110.664 120.684 110.696 120.557 110.696Z" fill="#7B92B9"/>
<path d="M120.557 121.003C120.288 121.003 120.019 120.86 119.876 120.606C119.655 120.226 119.781 119.75 120.161 119.528L158.938 97.1062C159.318 96.8842 159.793 97.011 160.015 97.3916C160.236 97.7722 160.11 98.2479 159.73 98.4699L120.953 120.908C120.826 120.971 120.684 121.003 120.557 121.003Z" fill="#7B92B9"/>
<path d="M163.103 168.305C173.095 162.533 181.201 148.468 181.201 136.924L227.151 110.347V149.292C238.994 142.442 248.178 150.291 244.378 166.862C242.082 176.82 234.973 186.635 227.167 191.139V223.852L112.293 290.277C104.994 294.495 99.072 291.07 99.072 282.634V184.415L145.021 157.839C145.006 169.399 153.112 174.093 163.103 168.305Z" fill="#0A3F8D"/>
<path d="M123.898 302.788L103.377 291.45L123.011 281.397L123.898 302.788Z" fill="#2C2FA7"/>
<path d="M261.113 159.742L240.07 148.103V162.374L261.113 159.742Z" fill="#2C2FA7"/>
<path d="M184.177 179.96C194.168 174.188 202.275 160.122 202.275 148.579L248.224 122.002V160.947C260.068 154.097 269.252 161.946 265.451 178.517C263.171 188.475 256.046 198.29 248.24 202.794V235.507L133.351 301.932C126.052 306.15 120.13 302.725 120.13 294.289V196.07L166.079 169.494C166.079 181.054 174.186 185.732 184.177 179.96Z" fill="#A37DEE"/>
<path d="M184.177 179.96C194.168 174.188 202.275 160.122 202.275 148.579L248.224 122.002V160.947C260.068 154.097 269.252 161.946 265.451 178.517C263.171 188.475 256.046 198.29 248.24 202.794V235.507L133.351 301.932C126.052 306.15 120.13 302.725 120.13 294.289V196.07L166.079 169.494C166.079 181.054 174.186 185.732 184.177 179.96Z" fill="url(#paint0_linear)"/>
<path d="M248.224 122.002L227.15 110.347L181.185 136.924L202.275 148.563L248.224 122.002Z" fill="#1865D6"/>
<path d="M166.079 169.494L145.004 157.855L99.0551 184.415L120.13 196.07L166.079 169.494Z" fill="#1865D6"/>
<path d="M278.673 262.543C290.516 255.692 299.7 237.219 295.9 225.057C293.62 217.746 286.495 216.177 278.689 220.68V181.735L324.638 155.159C324.638 146.136 329.562 135.052 337.02 128.091C349.449 116.499 360.818 120.543 360.818 134.243L406.767 107.683V205.901C406.767 214.353 400.846 224.628 393.546 228.846L278.673 295.256V262.543Z" fill="#0A3F8D"/>
<path d="M278.673 104.067V68.2305L393.546 1.80548C400.846 -2.41248 406.768 1.01263 406.768 9.44857V107.683L360.818 134.259C360.818 122.699 352.711 118.022 342.72 123.794C332.729 129.566 324.622 143.631 324.622 155.175L278.673 181.751V145.914C268.682 151.686 260.575 147.008 260.575 135.448C260.575 123.889 268.682 109.855 278.673 104.067Z" fill="#1865D6"/>
<path d="M278.673 145.914L299.747 157.569V193.39L278.673 181.751V145.914Z" fill="#1865D6"/>
<path d="M299.748 115.722L278.673 104.067L266.117 147.309L287.413 159.075L299.748 115.722Z" fill="#1865D6"/>
<path d="M299.748 274.182C311.591 267.332 320.775 248.858 316.975 236.696C314.695 229.386 307.569 227.816 299.763 232.319V193.374L345.713 166.798C345.713 157.775 350.637 146.691 358.095 139.73C370.524 128.139 381.893 132.182 381.893 145.883L427.842 119.306V217.525C427.842 225.976 421.92 236.252 414.621 240.47L299.748 306.895V274.182Z" fill="#0B50B5"/>
<path d="M402.952 0.91748L423.156 12.1443L406.752 21.7853L402.952 0.91748Z" fill="#1865D6"/>
<path d="M299.748 115.723V79.8857L414.621 13.4606C421.92 9.24267 427.842 12.6678 427.842 21.1037V119.322L381.893 145.898C381.893 134.339 373.786 129.661 363.795 135.433C353.804 141.205 345.697 155.27 345.697 166.814L299.748 193.39V157.553C289.757 163.325 281.65 158.648 281.65 147.088C281.666 135.544 289.757 121.495 299.748 115.723Z" fill="#0B50B5"/>
<path d="M299.747 306.911L278.673 295.256V262.543L299.747 274.182V306.911Z" fill="#1865D6"/>
<path d="M299.763 232.335L278.689 220.696L278.673 181.751L299.747 193.39L299.763 232.335Z" fill="#1865D6"/>
<path d="M299.747 115.722L278.673 104.067V68.2465L299.747 79.8855V115.722Z" fill="#0A3F8D"/>
<path d="M296.486 299.458C296.803 296.73 296.645 294.003 296.629 291.26C296.597 288.643 296.803 286.074 297.373 283.522C297.69 282.079 298.085 280.651 298.513 279.24C298.719 278.558 298.925 277.861 299.146 277.179C299.289 276.703 299.384 276.211 299.827 275.926C299.985 275.815 300.191 275.958 300.191 276.132C300.239 278.955 299.716 281.777 299.89 284.6C299.954 285.631 300.065 286.645 300.175 287.66C300.397 289.658 300.698 291.64 300.92 293.622C301.03 294.621 301.078 295.62 301.03 296.635C300.951 298.681 300.698 300.726 300.508 302.772C300.318 304.817 300.128 306.863 299.938 308.909C299.795 310.383 299.922 312.239 298.893 313.444C298.782 313.571 298.56 313.555 298.45 313.444C298.022 312.984 297.579 312.524 297.151 312.08C296.819 311.731 296.47 311.382 296.344 310.891C296.201 310.32 296.249 309.686 296.17 309.115C296.09 308.512 295.98 307.91 295.9 307.307C295.584 304.675 296.185 302.058 296.486 299.458Z" fill="#25284C"/>
<path d="M302.946 316.187C303.073 316.203 303.215 316.171 303.31 316.092C304.609 314.95 306.16 310.13 306.319 301.789C306.493 293.099 307.126 292.227 307.538 291.482C307.95 290.737 305.29 291.656 304.181 298.142C303.089 304.627 300.714 313.079 300.825 314.538C300.935 315.711 302.408 316.092 302.946 316.187Z" fill="#25284C"/>
<path d="M304.181 298.142C305.274 291.656 307.934 290.721 307.538 291.482C307.205 292.085 306.73 292.766 306.477 297.539C306.287 298.19 306.065 298.824 305.796 299.442C305.511 300.124 305.115 300.743 304.419 301.076C304.197 301.171 303.975 301.123 303.833 300.917C303.785 300.838 303.738 300.758 303.706 300.679C303.896 299.807 304.054 298.951 304.181 298.142Z" fill="#25284C"/>
<path d="M299.431 309.955C299.511 308.671 299.78 307.386 299.986 306.118C300.223 304.627 300.271 303.121 300.302 301.615C300.366 298.744 300.587 295.906 300.888 293.052V293.036C300.793 292.671 300.698 292.291 300.587 291.926C300.508 291.91 300.445 291.847 300.429 291.767C299.685 289.294 299.463 286.693 299.764 284.124C299.906 282.903 300.176 281.682 300.571 280.509C300.793 279.843 301.616 277.512 301.917 277.544C302.028 277.559 302.091 277.655 302.076 277.75C301.743 279.7 301.711 282.491 301.87 284.457C302.012 284.441 302.202 284.568 302.171 284.774C302.123 285.076 302.076 285.361 302.028 285.662C302.091 285.52 302.171 285.377 302.25 285.234C302.376 285.028 302.693 285.123 302.709 285.361C302.899 290.023 304.229 294.558 304.387 299.236C304.53 303.454 303.58 307.513 301.917 311.367C301.949 311.414 301.965 311.462 301.949 311.509C301.901 312.318 301.11 312.778 300.381 312.445C299.431 312.017 299.384 310.875 299.431 309.955Z" fill="#6A7EA2"/>
<path d="M305.448 302.693C305.448 302.693 305.701 297.555 305.384 292.925C305.068 288.294 306.16 281.619 306.667 280.207C307.174 278.796 304.735 281.428 303.389 290.562C302.043 299.696 302.487 303.739 301.331 305.801C300.175 307.862 301.014 313.903 301.014 313.903C301.014 313.903 304.228 309.194 305.448 302.693Z" fill="#7B92B9"/>
<path d="M295.251 297.936C295.995 292.75 296.09 290.721 295.742 287.296C295.394 283.886 295.631 281.143 296.454 278.955C296.534 278.733 296.882 278.844 296.882 279.066C296.882 280.318 296.882 281.571 296.929 282.808C296.977 284.14 297.325 285.361 297.705 286.63C298.386 288.992 298.845 292.164 298.703 294.59C298.56 297.143 298.228 299.696 298.307 302.249C298.386 304.865 298.576 306.641 299.336 309.131C299.7 310.304 300.001 311.509 300.27 312.714C300.714 314.76 300.65 316.504 300.302 316.758C299.779 317.123 297.832 316.599 297.325 315.711C297.04 315.22 296.961 314.665 296.914 314.11C296.866 313.222 296.787 312.873 296.581 312.001C296.201 310.51 296.059 309.305 295.584 307.846C295.109 306.403 295.188 304.104 295.061 302.582C294.919 301.139 294.966 299.949 295.251 297.936Z" fill="#7B92B9"/>
<path d="M298.038 316.441C298.006 316.425 297.99 316.409 297.974 316.377C297.895 316.362 297.816 316.314 297.8 316.203C297.357 313.476 297.388 310.637 297.737 307.894C298.117 305.024 298.861 302.249 299.067 299.363C299.257 296.651 299.304 293.956 299.668 291.26C300.033 288.596 300.603 285.964 301.394 283.395C301.838 281.968 302.328 280.556 302.898 279.177C303.405 277.94 303.928 276.735 304.45 275.514C304.64 275.054 305.179 274.626 305.068 275.419C305.004 275.894 304.894 276.37 304.846 276.846C304.751 277.734 304.735 278.638 304.64 279.526C304.498 280.842 304.339 282.174 304.165 283.49C303.785 286.217 303.215 288.881 302.677 291.577C302.392 292.988 302.186 294.415 302.202 295.874C302.218 297.27 302.376 298.665 302.439 300.06C302.566 302.534 302.123 304.944 301.743 307.386C301.505 308.925 301.315 310.479 301.41 312.017C301.458 312.778 301.568 313.539 301.79 314.284C301.901 314.665 302.043 315.045 302.202 315.41C302.313 315.664 302.756 316.155 302.518 316.346C301.632 317.059 299.51 317.265 298.038 316.441Z" fill="#25284C"/>
<path d="M305.574 298.586C305.511 295.573 304.957 304.707 302.154 309.051C299.273 313.523 300.096 315.838 300.238 316.71C300.397 317.583 303.326 316.536 303.469 315.902C303.611 315.267 302.566 312.889 303.611 309.939C304.672 306.99 305.717 305.515 305.574 298.586Z" fill="#6A7EA2"/>
<path d="M299.178 316.948C300.999 317.281 301.489 316.789 300.634 316.028C299.827 315.315 297.689 313.412 297.199 307.37C296.724 301.329 296.138 292.718 292.29 289.404C291.546 288.77 292.021 289.674 292.765 291.323C293.509 292.988 294.634 299.505 294.792 307.323C294.966 315.124 297.104 316.567 299.178 316.948Z" fill="#25284C"/>
<path d="M297.737 307.91C298.117 305.04 298.861 302.265 299.067 299.379C299.178 297.761 299.241 296.128 299.352 294.511C300.333 295.589 301.299 296.683 302.281 297.761C302.328 298.522 302.408 299.283 302.439 300.045C302.566 302.518 302.123 304.929 301.743 307.371C301.505 308.909 301.315 310.463 301.41 312.001C301.458 312.762 301.568 313.523 301.79 314.268C301.901 314.649 302.043 315.029 302.202 315.394C302.313 315.648 302.756 316.504 302.518 316.71C301.632 317.424 299.51 317.646 298.038 316.821C298.006 316.805 297.99 316.79 297.974 316.758C297.895 316.742 297.816 316.694 297.8 316.583C297.357 313.856 297.388 310.653 297.737 307.91ZM299.811 290.372C300.682 291.323 301.553 292.306 302.392 293.29C302.408 293.179 302.423 293.052 302.439 292.941C301.6 291.926 300.745 290.927 299.874 289.928C299.858 290.086 299.827 290.229 299.811 290.372ZM302.202 295.858C302.202 295.684 302.202 295.51 302.202 295.335C302.075 295.177 301.933 295.018 301.806 294.875C301.093 294.051 300.254 293.242 299.542 292.402C299.526 292.608 299.494 292.814 299.478 293.02C300.159 293.686 300.793 294.415 301.41 295.097C301.679 295.399 301.948 295.7 302.218 296.001C302.202 295.954 302.202 295.906 302.202 295.858Z" fill="#6A7EA2"/>
<path d="M65.8835 322.783C65.8835 322.783 62.9068 327.366 65.3927 329.253C68.6703 331.727 83.9181 326.827 82.8889 323.528C81.8597 320.23 71.9795 321.705 71.9795 321.705L65.8835 322.783Z" fill="#111638"/>
<path d="M25.1909 353.419C25.1909 353.419 20.7733 355.211 21.3433 358.287C22.0875 362.315 35.7836 368.594 37.2403 365.454C38.697 362.315 30.416 356.733 30.416 356.733L25.1909 353.419Z" fill="#111638"/>
<path d="M56.2568 257.627L70.8713 264.477C70.8713 264.477 60.8961 306.165 30.6063 356.717C30.6063 356.717 24.1144 356.876 23.1328 353.403C23.1328 353.403 42.2282 306.91 44.1599 298.459C47.5641 283.616 51.0634 264.112 56.2568 257.627Z" fill="#25284C"/>
<path d="M43.4948 333.439C62.4636 296.032 70.8713 264.477 70.8713 264.477L62.4953 260.544C66.3428 274.594 43.6056 333.122 43.4948 333.439Z" fill="#111638"/>
<path d="M79.5637 262.733C79.5637 262.733 105.753 259.276 105.658 266.824C105.547 274.356 72.6444 325.32 72.6444 325.32C72.6444 325.32 67.6093 326.256 65.3609 322.514L88.4464 276.909C88.4464 276.909 50.7464 289.325 61.4183 262.876L79.5637 262.733Z" fill="#25284C"/>
<path d="M79.5642 262.732C79.2317 262.97 78.8675 263.176 78.4875 263.303C75.1783 264.445 67.2931 265.523 57.682 255.438C57.4604 255.216 57.302 254.947 57.1912 254.661L56.257 256.532C56.0828 256.865 56.0828 257.278 56.2728 257.611C62.2738 268.552 74.4024 267.426 77.2842 265.698C77.6483 265.492 78.0283 265.365 78.3608 265.127L79.5642 262.732Z" fill="#111638"/>
<path d="M75.6211 229.671C75.6211 229.671 83.5696 255.423 88.1455 259.942L91.9931 260.75L92.7689 256.041C92.7689 256.041 89.7606 246.463 76.8878 228.767L75.6211 229.671Z" fill="#25284C"/>
<path d="M100.116 195.943C100.116 195.943 99.198 189.87 100.006 189.616C100.576 189.442 100.861 191.455 100.861 191.455C100.861 191.455 100.861 186.841 101.874 186.936C102.238 186.968 102.222 189.806 102.222 189.806C102.222 189.806 102.555 186.318 103.22 186.46C103.806 186.587 103.457 189.775 103.457 189.775C103.457 189.775 103.948 187.158 104.518 187.222C105.056 187.285 104.613 189.997 104.613 189.997C104.613 189.997 105.104 188.474 105.626 188.443C106.006 188.411 106.07 191.218 103.79 196.387L100.116 195.943Z" fill="#FFD8D8"/>
<path d="M71.2354 218.111C71.2354 218.111 62.4793 221.917 66.5802 230.591C66.5802 230.591 97.4559 238.503 104.169 196.149L103.948 196.054C102.665 195.531 101.272 195.245 99.8785 195.198C99.8785 195.213 93.2442 230.511 71.2354 218.111Z" fill="#6A7EA2"/>
<path d="M88.0904 217.219L82.0903 214.31L77.9924 222.788L83.9925 225.697L88.0904 217.219Z" fill="#FFD8D8"/>
<path d="M85.0579 223.471L78.9302 220.458L69.8892 217.651C68.1316 217.382 66.4691 218.476 66.0099 220.188L57.1747 252.981C56.9056 253.996 56.9847 255.09 57.4439 256.041C58.9481 259.197 63.714 265.603 77.6319 265.397C78.5185 265.381 79.3261 264.889 79.7219 264.097L94.7481 234.84C95.6031 233.159 95.3023 231.114 94.0039 229.766L85.0579 223.471Z" fill="#6A7EA2"/>
<path d="M96.4581 206.25C96.4581 206.25 95.6506 215.368 91.8822 220.046C88.1138 224.723 80.8303 217.001 79.7378 214.749C78.6452 212.498 76.8877 198.401 88.193 198.401C95.5398 198.401 96.8381 202.968 96.4581 206.25Z" fill="#FFD8D8"/>
<path d="M85.5333 211.911C85.5333 211.911 89.3492 209.231 90.7743 204.649C90.7743 204.649 91.6134 204.157 96.221 208.058C96.221 208.058 101.446 208.074 99.0394 202.54C96.6327 197.021 86.6417 189.997 81.7807 195.483C81.7807 195.483 72.5972 193.913 74.3231 205.838C76.6031 221.552 83.9499 218.999 85.8025 215.415C87.6392 211.927 85.5333 211.911 85.5333 211.911Z" fill="#25284C"/>
<path d="M87.9401 210.071C87.9401 210.071 86.4201 207.074 85.1692 208.866C83.9184 210.658 85.4226 214.274 88.1776 214.749L87.9401 210.071Z" fill="#FFD8D8"/>
<path d="M77.9169 220.157L79.8803 218.872L85.8971 221.742L86.3087 224.343L77.9169 220.157Z" fill="#7B92B9"/>
<path d="M118.04 210.706C118.04 210.706 117.121 204.633 117.929 204.379C118.499 204.204 118.784 206.218 118.784 206.218C118.784 206.218 118.784 201.604 119.797 201.699C120.161 201.731 120.145 204.569 120.145 204.569C120.145 204.569 120.478 201.081 121.143 201.223C121.729 201.35 121.381 204.537 121.381 204.537C121.381 204.537 121.871 201.921 122.441 201.984C122.98 202.048 122.536 204.759 122.536 204.759C122.536 204.759 123.027 203.237 123.55 203.205C123.93 203.174 123.993 205.98 121.713 211.15L118.04 210.706Z" fill="#FFD8D8"/>
<path d="M94.0041 229.766C94.0041 229.766 86.4356 234.285 90.7741 242.594C90.7741 242.594 119.021 253.71 121.856 210.959L121.65 210.88C120.462 210.468 119.196 210.293 117.929 210.373C117.945 210.373 114.683 240.295 94.0041 229.766Z" fill="#7B92B9"/>
<path d="M101.272 191.677C102.079 191.82 102.428 192.486 102.491 193.263C102.523 193.58 103.013 193.58 102.998 193.263C102.918 192.28 102.443 191.376 101.414 191.186C101.098 191.138 100.955 191.614 101.272 191.677Z" fill="#6A7EA2"/>
<path d="M88.4305 276.909L96.2207 274.641C96.2207 274.641 98.9757 278.685 90.4572 277.305C89.8397 277.21 89.1747 277.083 88.4305 276.909Z" fill="#111638"/>
<path d="M226.612 295.89L257.725 313.586C247.781 319.438 247.845 328.809 257.883 334.518C267.922 340.226 284.12 340.099 294.079 334.248L325.192 351.945L279.433 378.854C289.471 384.562 289.535 393.934 279.591 399.785C269.632 405.636 253.434 405.747 243.395 400.055L197.636 426.964L112.356 378.473C105.025 374.303 104.977 367.453 112.245 363.171L226.612 295.89Z" fill="#0A3F8D"/>
<path d="M106.819 370.693H125.503V345.37H106.819V370.693Z" fill="#2C2FA7"/>
<path d="M325.176 326.415V351.929L279.417 378.838V353.308L325.176 326.415Z" fill="#1865D6"/>
<path d="M286.985 363.695H273.067V389.906H286.985V363.695Z" fill="#2C2FA7"/>
<path d="M257.725 288.057H243.38V313.57H257.725V288.057Z" fill="#0A3F8D"/>
<path d="M226.613 270.36L257.726 288.057C247.783 293.908 247.846 303.279 257.884 308.988C267.923 314.696 284.121 314.569 294.08 308.718L325.193 326.415L279.434 353.324C289.473 359.033 289.536 368.404 279.592 374.255C269.633 380.107 253.435 380.218 243.397 374.525L197.637 401.434L112.357 352.943C105.026 348.773 104.978 341.923 112.246 337.641L226.613 270.36Z" fill="url(#paint1_linear)"/>
<ellipse rx="15.9048" ry="1.53918" transform="matrix(-1 0 0 1 238.573 356.577)" fill="#4043BD"/>
<circle cx="245.242" cy="334.515" r="22.5746" fill="url(#paint2_linear)"/>
<g clip-path="url(#clip0)">
<path d="M254.047 331.136C253.233 327.018 249.6 323.912 245.242 323.912C241.783 323.912 238.79 325.875 237.287 328.742C233.684 329.125 230.877 332.178 230.877 335.883C230.877 339.852 234.091 343.066 238.06 343.066H253.622C256.927 343.066 259.608 340.384 259.608 337.08C259.608 333.92 257.154 331.358 254.047 331.136ZM253.622 340.672H238.06C235.42 340.672 233.271 338.523 233.271 335.883C233.271 333.243 235.42 331.095 238.06 331.095C240.699 331.095 242.848 333.243 242.848 335.883H245.242C245.242 332.579 243.01 329.808 239.975 328.97C241.178 327.36 243.088 326.306 245.242 326.306C248.876 326.306 251.827 329.257 251.827 332.89V333.489H253.622C255.604 333.489 257.214 335.099 257.214 337.08C257.214 339.062 255.604 340.672 253.622 340.672Z" fill="white"/>
</g>
<ellipse cx="164.692" cy="341.185" rx="15.9048" ry="1.53918" fill="#3C3AAC"/>
<circle cx="170.336" cy="319.123" r="22.5746" fill="url(#paint3_linear)"/>
<path d="M175.404 307.836L170.336 312.101L177.641 316.646L182.649 312.604L175.404 307.836Z" fill="white"/>
<path d="M165.267 307.836L158.022 312.603L163.032 316.646L170.336 312.101L165.267 307.836Z" fill="white"/>
<path d="M158.022 320.69L165.267 325.458L170.336 321.193L163.031 316.646L158.022 320.69Z" fill="white"/>
<path d="M177.639 316.646L170.336 321.193L175.404 325.458L182.649 320.69L177.639 316.646Z" fill="white"/>
<path d="M175.771 327.059C175.643 327.143 175.495 327.185 175.349 327.185C175.172 327.185 174.996 327.123 174.853 327.005L170.336 323.203L165.818 327.005C165.558 327.223 165.184 327.245 164.899 327.059L162.64 325.572V327.845L170.351 332.463L178.032 327.845V325.57L175.771 327.059Z" fill="white"/>
<ellipse cx="416.091" cy="381.203" rx="16.931" ry="1.53918" fill="#D1D4F0"/>
<circle cx="416.604" cy="359.142" r="22.5746" fill="url(#paint4_linear)"/>
<path d="M412.295 369.164L411.413 370.691L403.265 356.578L407.268 349.644L408.15 351.172L415.416 363.758L412.295 369.164Z" fill="white"/>
<path d="M420.742 371.455H412.736L413.618 369.928L420.884 357.342H428.891L420.742 371.455Z" fill="white"/>
<path d="M412.594 355.814L409.473 350.408L408.591 348.881H424.888L428.891 355.814H412.594Z" fill="white"/>
<path d="M243.379 374.493V400.023L197.62 426.917V401.403L243.379 374.493Z" fill="#1865D6"/>
<path opacity="0.1" d="M421.018 337.625C441.769 337.625 458.591 329.227 458.591 318.867C458.591 308.506 441.769 300.108 421.018 300.108C400.267 300.108 383.444 308.506 383.444 318.867C383.444 329.227 400.267 337.625 421.018 337.625Z" fill="#0B50B5"/>
<path opacity="0.1" d="M468.709 435.4C489.46 435.4 506.282 427.001 506.282 416.641C506.282 406.281 489.46 397.882 468.709 397.882C447.958 397.882 431.136 406.281 431.136 416.641C431.136 427.001 447.958 435.4 468.709 435.4Z" fill="#0B50B5"/>
<path opacity="0.1" d="M348.816 428.962C369.567 428.962 386.389 420.564 386.389 410.203C386.389 399.843 369.567 391.444 348.816 391.444C328.065 391.444 311.243 399.843 311.243 410.203C311.243 420.564 328.065 428.962 348.816 428.962Z" fill="#0B50B5"/>
<path d="M446.542 317.9C446.542 317.9 448.426 323.434 445.196 324.797C441.428 326.383 429.663 331.996 430.835 328.286C431.991 324.575 439.718 316.694 439.718 316.694L446.542 317.9Z" fill="#111638"/>
<path d="M424.248 306.673C424.248 306.673 426.133 312.207 422.903 313.57C419.134 315.156 407.37 320.77 408.541 317.059C409.697 313.364 417.424 305.468 417.424 305.468L424.248 306.673Z" fill="#111638"/>
<path d="M446.273 124.872C446.273 124.872 446.004 138.271 435.601 139.92L440.367 123.603L446.273 124.872Z" fill="#25284C"/>
<path d="M428.853 148.436H436.327V137.86H428.853V148.436Z" fill="#FFD8D8"/>
<path d="M436.329 139.318C434.603 141.379 431.658 144.011 428.856 144.741V137.875H436.329V139.318Z" fill="#FFBCBC"/>
<path d="M421.446 125.3C421.446 125.3 422.348 135.528 426.576 140.777C430.803 146.025 438.974 137.367 440.193 134.846C441.412 132.325 443.391 116.515 430.693 116.515C422.475 116.499 421.034 121.621 421.446 125.3Z" fill="#FFD8D8"/>
<path d="M440.604 129.312C440.604 129.312 436.329 126.315 434.714 121.177C434.714 121.177 426.861 122.985 421.699 127.362C421.699 127.362 415.841 127.377 418.532 121.177C421.224 114.977 432.45 107.112 437.897 113.265C437.897 113.265 447.476 111.409 446.273 124.888C445.054 138.35 440.604 129.312 440.604 129.312Z" fill="#25284C"/>
<path d="M430.424 128.931C430.424 130.834 431.96 132.372 433.86 132.372C435.76 132.372 437.296 130.834 437.296 128.931C437.296 127.028 435.76 125.49 433.86 125.49C431.96 125.49 430.424 127.028 430.424 128.931Z" stroke="#25284C" stroke-width="0.4739" stroke-miterlimit="10"/>
<path d="M421.383 128.931C421.383 130.834 422.919 132.372 424.819 132.372C426.719 132.372 428.254 130.834 428.254 128.931C428.254 127.028 426.719 125.49 424.819 125.49C422.919 125.49 421.383 127.028 421.383 128.931Z" stroke="#25284C" stroke-width="0.4739" stroke-miterlimit="10"/>
<path d="M428.27 128.931H430.423" stroke="#25284C" stroke-width="0.4739" stroke-miterlimit="10"/>
<path d="M437.311 128.931H440.779" stroke="#25284C" stroke-width="0.4739" stroke-miterlimit="10"/>
<path d="M440.446 129.597C440.446 129.597 442.156 126.236 443.565 128.234C444.974 130.247 443.28 134.307 440.193 134.83L440.446 129.597Z" fill="#FFD8D8"/>
<path d="M417.645 145.312C417.645 145.312 412.167 145.597 404.899 157.696C396.998 170.873 392.026 177.787 400.212 180.546C402.287 181.244 415.824 166.734 415.824 166.734C415.824 166.734 420.195 150.576 417.645 145.312Z" fill="#FFD584"/>
<path d="M402.16 162.247C404.361 170.524 405.232 178.865 400.023 179.309C398.693 179.42 397.568 178.976 396.634 178.088C394.718 175.012 397.537 169.922 402.16 162.247Z" fill="#F1C56F"/>
<path d="M444.278 194.881C444.278 194.881 456.312 222.377 447.271 316.742C447.223 317.233 446.954 317.662 446.527 317.915C444.943 318.819 440.953 320.437 438.895 315.109C438.847 314.966 438.8 314.807 438.8 314.665L430.962 215.828C430.899 214.242 430.075 214.163 429.917 215.748L425.104 306.118C425.072 306.799 424.629 307.386 423.995 307.64C421.889 308.433 417.282 309.352 416.411 302.708C416.411 302.708 408.241 204.95 417.788 191.693L444.278 194.881Z" fill="#25284C"/>
<path d="M417.788 188.649C418.01 189.045 418.263 189.442 418.58 189.775C421.319 192.581 428.698 197.64 443.391 192.375C443.724 192.264 444.009 192.074 444.262 191.852V194.881C444.009 195.103 443.708 195.293 443.391 195.404C428.698 200.669 421.319 195.61 418.58 192.803C418.248 192.47 417.994 192.09 417.788 191.678V188.649Z" fill="#111638"/>
<path d="M436.329 143.425L431.912 148.436L428.856 143.298L417.915 145.264C415.951 145.613 414.574 147.389 414.701 149.371L417.202 187.396C417.281 188.586 417.772 189.696 418.596 190.536C421.335 193.343 428.713 198.401 443.407 193.137C444.341 192.804 445.022 191.979 445.165 190.996L450.516 154.477C450.817 152.384 449.772 150.323 447.888 149.355L436.329 143.425Z" fill="#FFBF42"/>
<path d="M433.353 149.577L432.102 151.892C432.102 151.892 430.867 152.083 430.423 151.48L430.138 149.006L431.896 148.436L433.353 149.577Z" fill="#1C145E"/>
<path d="M435.807 143.995C436.14 143.615 436.314 143.139 436.314 142.632V141.776L438.198 144.138C438.388 144.376 438.436 144.709 438.325 144.994L435.791 151.401C435.696 151.623 435.411 151.702 435.221 151.528L431.896 148.42L435.807 143.995Z" fill="#FFD584"/>
<path d="M428.444 142.172C428.571 142.22 428.713 142.267 428.856 142.299V143.282L431.911 148.42L427.826 150.021C427.636 150.101 427.431 149.958 427.431 149.768L427.193 144.043C427.177 143.758 427.288 143.472 427.478 143.25L428.444 142.172Z" fill="#FFD584"/>
<path d="M447.888 149.355C447.888 149.355 452.844 150.751 457.056 165.513C461.283 180.292 462.518 198.036 453.873 198.036C451.688 198.036 445.608 165.513 445.608 165.513C445.608 165.513 443.787 153.541 447.888 149.355Z" fill="#FFD584"/>
<path d="M442.98 166.227C453.857 173.347 462.851 190.932 455.52 193.66C454.19 194.151 452.939 193.977 451.736 193.295C449.946 187.111 444.199 172.395 442.98 166.227Z" fill="#F1C56F"/>
<path d="M442.979 166.227C442.979 166.227 465.4 194.151 455.52 197.83C445.655 201.509 439.401 167.876 439.401 167.876C439.401 167.876 440.177 166.306 442.979 166.227Z" fill="#FFD584"/>
<path d="M442.979 166.481C442.979 166.481 442.362 160.106 441.475 160.059C440.858 160.027 441.079 162.136 441.079 162.136C441.079 162.136 439.908 157.474 438.91 157.839C438.546 157.966 439.29 160.82 439.29 160.82C439.29 160.82 438.055 157.379 437.438 157.696C436.868 157.982 438.039 161.105 438.039 161.105C438.039 161.105 436.883 158.584 436.329 158.806C435.791 159.012 436.931 161.629 436.931 161.629C436.931 161.629 436.044 160.217 435.522 160.313C435.126 160.392 435.791 163.23 439.401 167.861L442.979 166.481Z" fill="#FFD8D8"/>
<path d="M392.945 147.452C392.945 147.452 410.346 178.754 399.991 180.72C389.636 182.687 389.145 148.483 389.145 148.483C389.145 148.483 390.174 147.056 392.945 147.452Z" fill="#FFD584"/>
<path d="M392.913 147.706C392.913 147.706 393.373 141.316 392.518 141.125C391.916 140.983 391.789 143.108 391.789 143.108C391.789 143.108 391.425 138.319 390.38 138.509C390 138.572 390.253 141.522 390.253 141.522C390.253 141.522 389.62 137.922 388.955 138.128C388.353 138.319 388.987 141.601 388.987 141.601C388.987 141.601 388.258 138.921 387.688 139.048C387.134 139.159 387.815 141.934 387.815 141.934C387.815 141.934 387.182 140.396 386.643 140.396C386.247 140.396 386.422 143.314 389.192 148.499L392.913 147.706Z" fill="#FFD8D8"/>
<path d="M440.494 169.636C440.494 170.001 440.795 170.302 441.159 170.302C441.523 170.302 441.824 170.001 441.824 169.636C441.824 169.272 441.523 168.97 441.159 168.97C440.795 168.97 440.494 169.272 440.494 169.636Z" fill="#25284C"/>
<path d="M391.283 143.06C390.127 143.266 389.588 144.281 389.509 145.391C389.478 145.755 390.048 145.755 390.079 145.391C390.143 144.534 390.538 143.773 391.441 143.615C391.789 143.551 391.631 142.996 391.283 143.06Z" fill="#FCB3B3"/>
<path d="M432.101 151.892C432.101 151.892 434.619 182.036 431.737 188.649L428.08 191.107L425.309 186.524C425.309 186.524 424.438 175.297 430.423 151.48L432.101 151.892Z" fill="#1C145E"/>
<path d="M360.755 264.604C360.755 264.604 371.87 276.433 372.582 288.215L370.413 292.845L365.948 289.579C365.948 289.579 362.781 274.118 357.002 269.488L360.755 264.604Z" fill="#1C145E"/>
<path d="M334.677 403.242C334.677 403.242 333.917 410.568 337.479 410.187C341.644 409.743 354.548 401.038 351.682 398.295C348.801 395.551 338.034 400.515 338.034 400.515L334.677 403.242Z" fill="#111638"/>
<path d="M357.62 414.088C357.62 414.088 356.86 421.414 360.422 421.033C364.587 420.589 377.491 411.884 374.625 409.14C371.744 406.397 360.977 411.36 360.977 411.36L357.62 414.088Z" fill="#111638"/>
<path d="M346.688 242.37H354.352V231.54H346.688V242.37Z" fill="#FFD8D8"/>
<path d="M362.512 289.943C362.512 289.943 374.831 318.105 365.584 414.786C365.536 415.277 365.251 415.737 364.824 415.975C363.209 416.911 359.108 418.56 357.002 413.105C356.939 412.962 356.907 412.804 356.907 412.645L348.879 311.382C348.816 309.749 347.961 309.685 347.803 311.303L342.878 403.876C342.847 404.574 342.403 405.176 341.738 405.43C339.585 406.239 334.851 407.19 333.98 400.372C333.98 400.372 325.604 300.219 335.389 286.645L362.512 289.943Z" fill="#1C145E"/>
<path d="M335.373 283.569C335.595 283.981 335.864 284.378 336.197 284.711C338.999 287.581 346.568 292.766 361.626 287.375C361.958 287.248 362.259 287.073 362.528 286.836V289.943C362.275 290.181 361.958 290.356 361.626 290.483C346.568 295.874 339.015 290.689 336.197 287.819C335.864 287.47 335.595 287.089 335.373 286.677V283.569Z" fill="#100A45"/>
<path d="M369.115 234.301C369.115 234.301 370.603 228.069 371.474 228.149C372.091 228.196 371.585 230.258 371.585 230.258C371.585 230.258 373.374 225.802 374.324 226.293C374.672 226.468 373.532 229.195 373.532 229.195C373.532 229.195 375.227 225.96 375.797 226.357C376.319 226.721 374.736 229.655 374.736 229.655C374.736 229.655 376.224 227.324 376.747 227.609C377.253 227.879 375.765 230.337 375.765 230.337C375.765 230.337 376.842 229.052 377.348 229.227C377.728 229.354 376.683 232.081 372.471 236.172L369.115 234.301Z" fill="#FFD8D8"/>
<path d="M371.775 230.86C372.583 231.288 372.725 232.145 372.535 232.969C372.456 233.318 372.994 233.476 373.074 233.112C373.327 232.018 373.105 230.924 372.06 230.369C371.744 230.194 371.459 230.686 371.775 230.86Z" fill="#FCB3B3"/>
<path d="M369.147 234.047C369.147 234.047 343.132 259.91 352.774 264.778C362.401 269.662 372.598 236.141 372.598 236.141C372.598 236.141 371.997 234.444 369.147 234.047Z" fill="#FFD584"/>
<path d="M354.358 238.693L346.694 236.949L334.613 235.379C331.652 234.983 329.531 239.28 329.309 243.863C328.913 252.584 334.756 282.268 334.756 282.268C334.835 283.474 335.326 284.599 336.165 285.472C338.952 288.342 346.504 293.575 361.61 288.167C362.56 287.818 363.256 286.978 363.415 285.979L369.036 250.887C369.337 249.064 368.561 247.224 367.041 246.162L354.358 238.693Z" fill="#FFBF42"/>
<path d="M363.89 217.921C363.89 217.921 362.956 228.402 358.633 233.778C354.31 239.153 345.934 230.289 344.684 227.705C343.433 225.12 341.422 208.914 354.405 208.914C362.829 208.898 364.317 214.147 363.89 217.921Z" fill="#FFD8D8"/>
<path d="M351.366 224.438C351.366 224.438 355.736 221.346 357.351 216.065C357.351 216.065 358.301 215.495 363.621 219.95C363.621 219.95 369.622 219.935 366.835 213.592C364.048 207.249 352.521 199.241 346.964 205.584C346.964 205.584 336.403 203.824 338.445 217.524C341.137 235.585 349.592 232.604 351.698 228.481C353.772 224.454 351.366 224.438 351.366 224.438Z" fill="#25284C"/>
<path d="M354.089 222.329C354.089 222.329 352.347 218.872 350.891 220.934C349.45 222.995 351.192 227.15 354.342 227.689L354.089 222.329Z" fill="#FFD8D8"/>
<path d="M401.875 235.585L385.598 251.807L369.289 242.087L385.598 225.358L401.875 235.585Z" fill="white"/>
<path d="M386.469 230.987L393.293 235.237" stroke="#BDBDBD" stroke-width="0.5" stroke-miterlimit="10" stroke-linecap="round"/>
<path d="M383.951 233.334L390.776 237.583" stroke="#BDBDBD" stroke-width="0.5" stroke-miterlimit="10" stroke-linecap="round"/>
<path d="M381.45 235.697L388.274 239.946" stroke="#BDBDBD" stroke-width="0.5" stroke-miterlimit="10" stroke-linecap="round"/>
<path d="M394.813 242.594C394.877 242.499 393.547 241.12 392.533 240.089C392.232 239.788 391.742 240.073 391.852 240.485L392.533 242.88C392.533 242.88 389.081 241.912 391.013 247.621L394.37 248.525L394.813 242.594Z" fill="#FFD8D8"/>
<path d="M390.712 247.557C390.712 247.557 372.884 279.62 383.492 281.634C394.101 283.648 394.608 248.604 394.608 248.604C394.608 248.604 393.563 247.129 390.712 247.557Z" fill="#FFD584"/>
<path d="M367.041 246.146C367.041 246.146 371.823 248.541 378.473 258.039C387.498 270.931 391.662 278.621 383.27 281.46C381.149 282.173 366.487 266.776 366.487 266.776C366.487 266.776 360.517 253.995 367.041 246.146Z" fill="#FFD584"/>
<path d="M355.91 239.613L354.358 236.965C354.358 236.965 351.73 235.348 346.695 235.252L344.858 236.806C344.858 236.791 345.254 238.614 355.91 239.613Z" fill="#FFD584"/>
<path d="M467.871 271.612C467.871 271.612 456.755 283.442 456.043 295.224L458.212 299.854L462.677 296.587C462.677 296.587 465.844 281.127 471.623 276.496L467.871 271.612Z" fill="#25284C"/>
<path d="M490.417 407.92C490.417 407.92 492.001 415.912 488.454 416.593C484.258 417.402 471.385 407.444 474.251 404.701C477.133 401.957 487.9 406.921 487.9 406.921L490.417 407.92Z" fill="#111638"/>
<path d="M472.351 417.592C472.351 417.592 473.919 425.584 470.388 426.266C466.192 427.075 453.319 417.117 456.185 414.373C459.067 411.63 469.833 416.593 469.833 416.593L472.351 417.592Z" fill="#111638"/>
<path d="M481.931 238.551H474.267V249.381H481.931V238.551Z" fill="#F5F5F5"/>
<path d="M472.399 416.625C471.923 420.922 467.363 420.288 467.395 416.99C458.766 323.909 466.128 296.952 466.128 296.952L493.267 293.67C501.137 304.595 496.703 342.509 494.677 356.892C494.154 360.571 494.312 364.281 494.518 368.008C495.912 392.142 490.306 408.966 490.306 408.966C488.881 411.408 485.604 408.982 485.556 407.079L480.838 318.312C480.68 316.694 479.825 316.758 479.761 318.391L476.167 363.79C476.119 363.948 479.619 382.469 472.399 416.625Z" fill="#FFD8D8"/>
<path d="M493.046 292.877C493.046 292.877 501.058 303.327 498.952 317.186C496.846 331.045 499.474 353.039 499.474 353.039C499.474 353.039 488.866 371.861 461.853 353.419C461.853 353.419 459.462 308.353 466.097 296.952L493.046 292.877Z" fill="#1C145E"/>
<path d="M493.252 290.578C493.03 290.99 492.761 291.386 492.428 291.719C489.626 294.59 482.057 299.775 466.999 294.383C466.667 294.257 466.366 294.082 466.097 293.844V296.952C466.35 297.19 466.667 297.365 466.999 297.491C482.057 302.883 489.626 297.698 492.428 294.827C492.761 294.479 493.03 294.098 493.252 293.686V290.578Z" fill="#111638"/>
<path d="M459.51 241.31C459.51 241.31 458.022 235.078 457.151 235.157C456.533 235.205 457.04 237.266 457.04 237.266C457.04 237.266 455.251 232.81 454.301 233.302C453.952 233.476 455.092 236.204 455.092 236.204C455.092 236.204 453.398 232.969 452.828 233.365C452.306 233.73 453.889 236.664 453.889 236.664C453.889 236.664 452.401 234.333 451.878 234.618C451.372 234.888 452.86 237.345 452.86 237.345C452.86 237.345 451.783 236.061 451.277 236.235C450.897 236.362 451.942 239.09 456.153 243.181L459.51 241.31Z" fill="#FFD8D8"/>
<path d="M441.792 323.893C441.792 323.893 437.739 328.841 438.325 329.507C438.736 329.966 440.066 328.317 440.066 328.317C440.066 328.317 437.612 332.456 438.578 332.9C438.926 333.059 440.415 330.506 440.415 330.506C440.415 330.506 438.863 333.804 439.528 334.026C440.13 334.216 441.507 331.172 441.507 331.172C441.507 331.172 440.557 333.772 441.095 334.01C441.618 334.248 442.663 331.568 442.663 331.568C442.663 331.568 442.299 333.201 442.742 333.503C443.075 333.725 444.611 331.251 445.307 325.4L441.792 323.893Z" fill="#FFD8D8"/>
<path d="M456.565 237.377C455.52 237.932 455.299 239.042 455.552 240.12C455.631 240.469 456.169 240.327 456.09 239.978C455.9 239.137 456.011 238.297 456.85 237.869C457.167 237.694 456.882 237.203 456.565 237.377Z" fill="#FCB3B3"/>
<path d="M459.479 241.056C459.479 241.056 485.493 266.919 475.851 271.787C466.224 276.671 456.027 243.149 456.027 243.149C456.027 243.149 456.628 241.453 459.479 241.056Z" fill="#FFD584"/>
<path d="M474.267 245.702L481.93 243.958L494.012 242.388C496.972 241.992 499.094 246.289 499.316 250.871C499.712 259.593 493.869 289.277 493.869 289.277C493.79 290.482 493.299 291.608 492.46 292.48C489.673 295.35 482.12 300.583 467.015 295.176C466.065 294.827 465.368 293.987 465.21 292.988L459.589 257.896C459.288 256.073 460.064 254.233 461.584 253.171L474.267 245.702Z" fill="#FFBF42"/>
<path d="M464.735 224.93C464.735 224.93 465.669 235.411 469.992 240.787C474.315 246.162 482.691 237.298 483.942 234.713C485.192 232.129 487.203 215.923 474.22 215.923C465.796 215.907 464.308 221.156 464.735 224.93Z" fill="#FFD8D8"/>
<path d="M477.26 231.447C477.26 231.447 472.89 228.355 471.275 223.074C471.275 223.074 470.325 222.503 465.005 226.959C465.005 226.959 459.004 226.943 461.79 220.601C464.577 214.258 476.104 206.25 481.662 212.593C481.662 212.593 492.223 210.833 490.18 224.533C487.488 242.594 479.033 239.613 476.927 235.49C474.853 231.447 477.26 231.447 477.26 231.447Z" fill="#25284C"/>
<path d="M490.117 217.429C490.623 222.805 491.162 228.339 493.774 233.064C495.975 237.076 499.49 240.184 502.974 243.165C506.441 246.146 510.02 249.159 512.395 253.06C514.564 256.628 515.546 260.957 514.295 265.016C513.139 268.79 509.196 270.185 507.043 273.293C505.238 275.894 505.127 279.208 503.686 281.967C502.356 284.504 499.791 286.328 497.052 287.026C493.378 287.961 489.452 287.137 486 285.583C484.242 284.79 482.564 283.791 481.234 282.395C479.793 280.873 478.827 278.875 478.526 276.798C478.146 274.118 478.637 271.391 477.481 268.869C476.357 266.412 473.966 264.889 472.51 262.638C469.675 258.293 470.515 252.505 472.304 247.621C473.175 245.227 474.267 242.864 474.805 240.358C475.059 239.153 475.344 237.694 475.09 236.473C475.043 236.251 474.283 234.666 474.283 234.682C474.441 234.523 478.716 230.464 480.015 228.862C483.245 224.93 486.807 221.298 490.117 217.429Z" fill="#25284C"/>
<path d="M474.536 229.322C474.536 229.322 476.278 225.865 477.735 227.927C479.176 229.988 477.434 234.143 474.283 234.682L474.536 229.322Z" fill="#FFD8D8"/>
<path d="M441.602 323.972C441.602 323.972 449.202 289.816 457.151 292.813C467.253 296.603 445.307 325.574 445.307 325.574C445.307 325.574 443.581 326.081 441.602 323.972Z" fill="#FFD584"/>
<path d="M460.555 254.217C460.555 254.217 457.277 256.691 455.124 268.092C449.994 295.208 447.888 305.721 456.707 306.53C458.94 306.736 465.875 274.15 465.875 274.15C465.875 274.15 468.709 260.354 460.555 254.217Z" fill="#FFD584"/>
<path d="M351.73 97.5342V115.722L365.157 107.683L351.73 97.5342Z" fill="#2C2FA7"/>
<path d="M355.15 117.53L372.456 107.524L369.02 87.5286L351.73 97.5343L355.15 117.53Z" fill="white"/>
<path d="M338.825 134.925V153.113L352.252 145.09L338.825 134.925Z" fill="#2C2FA7"/>
<path d="M342.261 154.921L359.552 144.931L356.132 124.936L338.825 134.925L342.261 154.921Z" fill="white"/>
<path d="M314.821 105.352V123.54L328.248 115.5L314.821 105.352Z" fill="#2C2FA7"/>
<path d="M318.241 125.348L335.547 115.358L332.112 95.3463L314.821 105.352L318.241 125.348Z" fill="white"/>
<path d="M391.852 103.512V118.688L403.047 111.98L391.852 103.512Z" fill="#2C2FA7"/>
<path d="M394.702 120.194L409.143 111.853L406.277 95.1716L391.852 103.512L394.702 120.194Z" fill="white"/>
<path d="M391.852 51.9772V67.1523L403.047 60.4607L391.852 51.9772Z" fill="#2C2FA7"/>
<path d="M394.702 68.6747L409.143 60.3181L406.277 43.6365L391.852 51.9773L394.702 68.6747Z" fill="white"/>
<path d="M325.409 197.924C329.165 187.196 323.527 175.451 312.815 171.689C302.104 167.928 290.375 173.575 286.619 184.302C282.863 195.03 288.502 206.775 299.214 210.537C309.925 214.298 321.654 208.651 325.409 197.924Z" fill="#25284C"/>
<path d="M319.065 204.443L329.293 206.599L322.215 196.943L319.065 204.443Z" fill="#25284C"/>
<path d="M468.55 110.68C459.414 111.505 451.339 104.749 450.516 95.5841C449.692 86.4346 456.438 78.3475 465.59 77.523C474.726 76.6984 482.801 83.4535 483.624 92.6189C484.432 101.768 477.686 109.855 468.55 110.68Z" fill="#25284C"/>
<path d="M462.518 108.507L455.931 113.804L457.499 104.242L462.518 108.507Z" fill="#25284C"/>
<path d="M538.352 224.084C544.785 217.534 544.699 207.002 538.159 200.56C531.619 194.117 521.103 194.203 514.67 200.753C508.237 207.302 508.323 217.834 514.862 224.277C521.402 230.719 531.919 230.633 538.352 224.084Z" fill="#25284C"/>
<path d="M514.532 221.616L506.092 222.186L512.853 215.241L514.532 221.616Z" fill="#25284C"/>
<path d="M82.2246 393.538C81.2112 396.281 82.8104 399.294 85.6763 402.306C78.8362 399.516 75.6061 397.803 71.4102 394.933C66.3751 391.492 61.2291 389.209 55.814 387.988C55.2757 387.861 54.7056 388.305 55.1015 388.511C57.2074 389.653 59.3449 390.794 61.34 391.984C62.29 392.554 63.0658 393.157 63.7783 393.775C63.0658 393.522 62.3533 393.284 61.6091 393.03C58.4899 392.015 55.2598 391.096 51.9664 390.208C50.3672 389.779 48.768 389.351 47.153 388.939C46.0288 388.638 45.0154 388.289 43.6062 388.447C43.0995 388.511 42.8937 388.828 43.1945 389.002C47.3588 391.349 52.4256 393.252 56.6215 395.567C54.4998 394.743 52.2197 394.013 49.7814 393.411C48.198 393.014 42.5295 391.682 41.9595 391.999C41.7378 392.126 41.7695 392.269 41.9753 392.348C44.5879 393.3 47.5171 394.711 50.0822 396.122C47.6438 395.52 45.1579 394.933 42.6087 394.41C39.4736 393.775 36.3069 393.173 33.156 392.554C31.9843 392.317 30.1159 392.443 31.6993 393.078C32.6335 393.458 33.6627 393.775 34.581 394.172C36.2752 394.901 37.8269 395.71 39.537 396.424C42.0704 397.502 44.6354 398.548 47.2321 399.579C51.1589 401.133 55.2757 402.56 59.4241 403.971C60.1208 404.495 60.8174 405.034 61.5141 405.573C61.2766 405.478 61.055 405.399 60.8016 405.303C42.5454 398.263 32.966 398.2 36.4336 398.992C39.9011 399.785 53.5023 404.844 60.6433 409.395C61.0866 409.68 61.53 409.95 61.9891 410.235C60.6116 409.981 59.3766 409.823 58.3157 409.728C57.8565 409.68 57.429 409.664 57.0332 409.648C55.8457 409.601 54.9115 409.632 54.2781 409.712C53.8506 409.759 53.5656 409.823 53.4073 409.902C53.1698 410.013 53.2489 410.108 53.6448 410.172C53.6923 410.172 53.7398 410.187 53.7873 410.187C53.8348 410.187 53.8823 410.203 53.9298 410.203C54.0406 410.219 54.1673 410.235 54.294 410.251C54.3098 410.251 54.3256 410.251 54.3415 410.251C54.4523 410.267 54.5473 410.283 54.6581 410.298C54.674 410.298 54.6898 410.298 54.6898 410.298C54.8006 410.314 54.9273 410.346 55.054 410.362C55.0698 410.362 55.1015 410.378 55.1173 410.378C55.3865 410.425 55.6873 410.505 56.004 410.584C56.0198 410.584 56.0515 410.6 56.0673 410.6C56.2257 410.647 56.3998 410.695 56.5899 410.742C56.6057 410.742 56.6373 410.758 56.6532 410.758C56.8432 410.806 57.0332 410.869 57.239 410.933H57.2549C57.4607 410.996 57.6824 411.075 57.9199 411.155C57.9515 411.171 57.9991 411.186 58.0307 411.186C58.5057 411.361 59.0441 411.551 59.6457 411.789C59.6774 411.805 59.7091 411.821 59.7408 411.837C60.0416 411.948 60.3583 412.074 60.6749 412.217C60.7066 412.233 60.7541 412.249 60.7858 412.265C61.4666 412.55 62.2108 412.867 63.0342 413.232C63.0975 413.264 63.145 413.28 63.2083 413.311C63.62 413.502 64.0475 413.692 64.5067 413.898C64.5225 413.898 64.5384 413.914 64.5542 413.914C64.9975 414.12 65.4725 414.342 65.9634 414.58C68.0851 415.579 70.5868 416.832 73.5636 418.37C87.4339 425.537 98.4858 428.502 103.473 428.534C103.98 428.661 105.152 428.534 106.466 428.296C106.577 428.328 106.688 428.36 106.798 428.344C109.87 428.153 114.715 426.298 116.425 424.11C116.457 424.078 116.457 424.031 116.457 423.999C116.615 423.904 116.679 423.777 116.536 423.682C116.473 423.634 116.41 423.587 116.346 423.539C118.12 421.24 117.106 417.942 107.163 412.296C94.3057 405.002 85.6288 397.946 84.3938 395.71C83.2379 393.522 82.7154 392.221 82.2246 393.538Z" fill="#E7EEF8"/>
<path d="M99.2774 386.196C100.006 379.932 99.6574 373.637 99.594 367.342C99.5307 361.332 100.006 355.417 101.304 349.534C102.032 346.204 102.935 342.922 103.917 339.655C104.392 338.07 104.882 336.5 105.373 334.914C105.722 333.804 105.928 332.694 106.925 332.028C107.289 331.79 107.764 332.107 107.764 332.52C107.875 339.037 106.688 345.507 107.068 352.024C107.21 354.371 107.479 356.717 107.733 359.064C108.223 363.647 108.952 368.214 109.443 372.797C109.696 375.112 109.791 377.411 109.712 379.742C109.553 384.451 108.968 389.161 108.524 393.855C108.081 398.564 107.638 403.274 107.194 407.967C106.878 411.361 107.147 415.642 104.803 418.401C104.55 418.687 104.027 418.671 103.79 418.401C102.792 417.355 101.795 416.292 100.813 415.246C100.053 414.437 99.2457 413.644 98.9607 412.518C98.6282 411.218 98.7232 409.759 98.549 408.427C98.359 407.048 98.0898 405.668 97.9315 404.289C97.219 398.231 98.5965 392.206 99.2774 386.196Z" fill="#25284C"/>
<path d="M114.161 424.713C114.462 424.76 114.778 424.697 115 424.491C117.993 421.858 121.555 410.774 121.935 391.587C122.331 371.592 123.804 369.594 124.738 367.865C125.672 366.137 119.544 368.262 117.011 383.199C114.478 398.136 109.031 417.593 109.284 420.923C109.522 423.634 112.91 424.491 114.161 424.713Z" fill="#25284C"/>
<path d="M117.027 383.183C119.56 368.246 125.672 366.121 124.754 367.849C124.009 369.245 122.917 370.815 122.299 381.772C121.84 383.247 121.349 384.721 120.748 386.133C120.083 387.702 119.18 389.13 117.597 389.875C117.106 390.113 116.568 390.002 116.267 389.526C116.156 389.352 116.061 389.161 115.966 388.987C116.33 387.021 116.694 385.07 117.027 383.183Z" fill="#25284C"/>
<path d="M106.086 410.394C106.26 407.413 106.894 404.495 107.353 401.561C107.891 398.136 108.018 394.679 108.097 391.207C108.239 384.61 108.746 378.077 109.459 371.512C109.459 371.496 109.459 371.496 109.459 371.481C109.237 370.624 108.999 369.768 108.762 368.928C108.588 368.88 108.445 368.753 108.382 368.563C106.688 362.854 106.149 356.876 106.862 350.962C107.194 348.139 107.812 345.348 108.714 342.653C109.221 341.13 111.105 335.771 111.802 335.85C112.071 335.882 112.214 336.104 112.166 336.326C111.406 340.813 111.343 347.219 111.707 351.754C112.055 351.739 112.467 352.024 112.388 352.484C112.293 353.166 112.182 353.848 112.071 354.529C112.229 354.196 112.388 353.863 112.594 353.53C112.894 353.039 113.623 353.261 113.639 353.816C114.066 364.551 117.122 375.001 117.502 385.736C117.85 395.456 115.65 404.78 111.818 413.644C111.881 413.74 111.913 413.851 111.897 413.993C111.802 415.849 109.981 416.895 108.287 416.134C106.086 415.135 105.959 412.487 106.086 410.394Z" fill="#6A7EA2"/>
<path d="M119.909 393.68C119.909 393.68 120.495 381.851 119.766 371.195C119.022 360.539 121.54 345.158 122.727 341.907C123.915 338.657 118.294 344.714 115.19 365.725C112.087 386.735 113.116 396.043 110.472 400.784C107.812 405.51 109.728 419.416 109.728 419.416C109.728 419.416 117.106 408.618 119.909 393.68Z" fill="#7B92B9"/>
<path d="M96.4433 382.707C98.1375 370.783 98.3591 366.089 97.5674 358.224C96.7758 350.391 97.3299 344.064 99.2142 339.037C99.4042 338.546 100.212 338.783 100.212 339.307C100.212 342.177 100.196 345.063 100.307 347.933C100.418 350.993 101.241 353.8 102.08 356.718C103.648 362.141 104.693 369.451 104.376 375.048C104.043 380.931 103.283 386.798 103.458 392.697C103.632 398.707 104.075 402.798 105.833 408.523C106.672 411.234 107.369 413.993 107.97 416.768C108.999 421.494 108.857 425.49 108.034 426.076C106.814 426.933 102.365 425.712 101.178 423.682C100.513 422.556 100.323 421.272 100.243 419.987C100.117 417.957 99.9742 417.133 99.4675 415.119C98.6125 411.694 98.28 408.903 97.1558 405.557C96.0474 402.243 96.2374 396.947 95.9682 393.458C95.6991 390.097 95.7782 387.353 96.4433 382.707Z" fill="#7B92B9"/>
<path d="M102.856 425.315C102.793 425.283 102.761 425.22 102.714 425.188C102.524 425.157 102.349 425.03 102.318 424.808C101.304 418.513 101.352 411.995 102.191 405.684C103.062 399.088 104.788 392.681 105.263 386.037C105.706 379.806 105.801 373.574 106.64 367.374C107.464 361.237 108.794 355.18 110.599 349.265C111.596 345.983 112.752 342.732 114.05 339.545C115.206 336.722 116.426 333.915 117.613 331.109C118.056 330.062 119.291 329.047 119.038 330.902C118.896 331.997 118.642 333.091 118.531 334.201C118.326 336.246 118.278 338.308 118.056 340.369C117.724 343.414 117.376 346.458 116.964 349.487C116.109 355.75 114.779 361.887 113.544 368.087C112.895 371.354 112.42 374.636 112.451 377.966C112.483 381.185 112.863 384.388 113.021 387.591C113.29 393.3 112.293 398.834 111.422 404.447C110.884 407.968 110.44 411.551 110.662 415.119C110.773 416.879 111.026 418.639 111.517 420.336C111.77 421.208 112.087 422.08 112.467 422.905C112.72 423.476 113.75 424.602 113.18 425.061C111.137 426.711 106.26 427.218 102.856 425.315Z" fill="#25284C"/>
<path d="M120.226 384.214C120.083 377.284 118.801 398.311 112.356 408.285C105.706 418.576 107.606 423.904 107.955 425.918C108.303 427.931 115.064 425.505 115.396 424.062C115.713 422.604 113.306 417.133 115.713 410.346C118.136 403.559 120.542 400.182 120.226 384.214Z" fill="#6A7EA2"/>
<path d="M105.5 426.472C109.696 427.234 110.82 426.124 108.841 424.363C107.004 422.714 102.064 418.354 100.956 404.447C99.8474 390.54 98.5332 370.703 89.6505 363.092C87.9247 361.617 89.033 363.71 90.7589 367.516C92.4848 371.338 95.0657 386.354 95.4298 404.32C95.7782 422.286 100.702 425.6 105.5 426.472Z" fill="#25284C"/>
<path d="M102.191 405.668C103.062 399.072 104.788 392.665 105.263 386.021C105.532 382.295 105.674 378.553 105.928 374.826C108.176 377.332 110.425 379.821 112.673 382.327C112.8 384.071 112.942 385.831 113.037 387.575C113.306 393.284 112.309 398.818 111.438 404.431C110.9 407.951 110.456 411.535 110.678 415.103C110.789 416.863 111.042 418.623 111.533 420.32C111.786 421.192 112.103 422.064 112.483 422.889C112.736 423.46 113.765 425.458 113.195 425.918C111.153 427.567 106.276 428.074 102.872 426.171C102.809 426.14 102.777 426.076 102.729 426.044C102.539 426.013 102.365 425.886 102.334 425.664C101.304 419.369 101.352 411.979 102.191 405.668ZM106.925 365.328C108.952 367.532 110.915 369.768 112.863 372.035C112.895 371.766 112.942 371.496 112.974 371.227C111.026 368.896 109.063 366.596 107.084 364.297C107.036 364.63 106.989 364.979 106.925 365.328ZM112.451 377.95C112.451 377.538 112.451 377.141 112.467 376.745C112.166 376.396 111.85 376.031 111.533 375.682C109.87 373.78 107.97 371.94 106.324 369.974C106.276 370.45 106.229 370.925 106.181 371.401C107.749 372.923 109.205 374.636 110.615 376.174C111.232 376.856 111.85 377.554 112.451 378.251C112.467 378.14 112.451 378.045 112.451 377.95Z" fill="#6A7EA2"/>
<path d="M248.13 220.474C248.669 215.844 248.415 211.213 248.368 206.567C248.32 202.127 248.669 197.767 249.634 193.438C250.173 190.98 250.838 188.554 251.566 186.159C251.914 184.986 252.279 183.828 252.643 182.671C252.896 181.862 253.054 181.038 253.799 180.546C254.068 180.372 254.416 180.609 254.416 180.911C254.495 185.715 253.625 190.488 253.894 195.293C253.989 197.037 254.21 198.75 254.385 200.494C254.749 203.872 255.287 207.249 255.651 210.627C255.841 212.339 255.905 214.036 255.841 215.749C255.715 219.221 255.287 222.694 254.97 226.167C254.638 229.639 254.321 233.112 253.989 236.585C253.751 239.09 253.957 242.246 252.215 244.275C252.025 244.497 251.645 244.466 251.455 244.275C250.727 243.498 249.983 242.721 249.254 241.944C248.684 241.342 248.099 240.771 247.893 239.931C247.655 238.963 247.719 237.901 247.592 236.918C247.449 235.903 247.259 234.888 247.133 233.857C246.61 229.354 247.624 224.898 248.13 220.474Z" fill="#25284C"/>
<path d="M259.119 248.89C259.34 248.921 259.562 248.874 259.736 248.731C261.937 246.781 264.581 238.598 264.851 224.454C265.151 209.707 266.228 208.232 266.909 206.948C267.59 205.663 263.077 207.249 261.209 218.254C259.34 229.275 255.319 243.625 255.509 246.083C255.683 248.097 258.185 248.715 259.119 248.89Z" fill="#25284C"/>
<path d="M261.225 218.254C263.093 207.233 267.606 205.664 266.925 206.948C266.371 207.979 265.563 209.136 265.12 217.223C264.787 218.317 264.423 219.396 263.98 220.442C263.489 221.6 262.824 222.646 261.652 223.201C261.288 223.376 260.892 223.297 260.67 222.948C260.591 222.821 260.512 222.678 260.449 222.551C260.718 221.077 260.987 219.634 261.225 218.254Z" fill="#25284C"/>
<path d="M253.149 238.329C253.276 236.141 253.751 233.984 254.084 231.812C254.479 229.275 254.574 226.738 254.638 224.169C254.733 219.301 255.113 214.48 255.635 209.644C255.635 209.628 255.635 209.628 255.635 209.612C255.477 208.978 255.303 208.359 255.129 207.725C255.002 207.693 254.891 207.598 254.844 207.456C253.593 203.253 253.197 198.829 253.719 194.469C253.973 192.391 254.416 190.33 255.081 188.348C255.461 187.222 256.854 183.274 257.361 183.321C257.551 183.337 257.662 183.511 257.63 183.67C257.076 186.984 257.013 191.709 257.298 195.055C257.551 195.039 257.852 195.261 257.805 195.594C257.725 196.102 257.646 196.593 257.567 197.101C257.678 196.847 257.804 196.609 257.947 196.371C258.169 196.007 258.707 196.165 258.723 196.578C259.04 204.506 261.288 212.213 261.573 220.125C261.826 227.293 260.211 234.175 257.377 240.724C257.424 240.787 257.44 240.882 257.44 240.977C257.361 242.341 256.031 243.118 254.78 242.563C253.149 241.818 253.054 239.867 253.149 238.329Z" fill="#6A7EA2"/>
<path d="M263.346 225.993C263.346 225.993 263.789 217.255 263.235 209.406C262.697 201.541 264.549 190.203 265.42 187.793C266.291 185.399 262.158 189.87 259.862 205.363C257.566 220.855 258.342 227.737 256.379 231.225C254.416 234.714 255.841 244.973 255.841 244.973C255.841 244.973 261.287 237.013 263.346 225.993Z" fill="#7B92B9"/>
<path d="M246.04 217.905C247.291 209.105 247.449 205.648 246.879 199.844C246.293 194.072 246.705 189.394 248.098 185.684C248.241 185.319 248.827 185.494 248.827 185.89C248.827 188.015 248.827 190.14 248.906 192.249C248.985 194.516 249.587 196.578 250.204 198.734C251.36 202.73 252.136 208.122 251.899 212.26C251.661 216.605 251.091 220.934 251.218 225.279C251.344 229.719 251.677 232.732 252.975 236.95C253.593 238.948 254.099 240.977 254.559 243.023C255.319 246.511 255.208 249.461 254.606 249.889C253.719 250.523 250.426 249.619 249.539 248.129C249.048 247.304 248.906 246.353 248.858 245.401C248.763 243.895 248.653 243.292 248.288 241.818C247.655 239.281 247.402 237.235 246.594 234.761C245.787 232.319 245.929 228.403 245.723 225.834C245.486 223.36 245.549 221.33 246.04 217.905Z" fill="#7B92B9"/>
<path d="M250.774 249.334C250.726 249.302 250.695 249.27 250.663 249.239C250.521 249.207 250.394 249.128 250.362 248.953C249.618 244.307 249.65 239.502 250.267 234.84C250.901 229.972 252.183 225.247 252.532 220.347C252.864 215.749 252.927 211.15 253.545 206.583C254.162 202.064 255.128 197.592 256.458 193.232C257.202 190.805 258.042 188.411 259.008 186.064C259.863 183.971 260.765 181.91 261.636 179.832C261.968 179.055 262.871 178.31 262.697 179.674C262.586 180.483 262.412 181.291 262.317 182.1C262.158 183.606 262.127 185.129 261.968 186.651C261.731 188.903 261.462 191.138 261.161 193.374C260.528 198.005 259.546 202.524 258.643 207.107C258.168 209.517 257.82 211.943 257.836 214.401C257.852 216.779 258.137 219.142 258.248 221.505C258.453 225.707 257.709 229.798 257.076 233.937C256.68 236.537 256.363 239.169 256.506 241.818C256.585 243.118 256.775 244.418 257.139 245.671C257.329 246.321 257.567 246.955 257.836 247.574C258.026 247.986 258.786 248.826 258.358 249.159C256.886 250.364 253.276 250.745 250.774 249.334Z" fill="#25284C"/>
<path d="M263.584 218.999C263.473 213.878 262.523 229.402 257.773 236.759C252.865 244.355 254.274 248.287 254.527 249.762C254.78 251.237 259.784 249.461 260.021 248.382C260.259 247.304 258.47 243.261 260.259 238.266C262.032 233.287 263.821 230.781 263.584 218.999Z" fill="#6A7EA2"/>
<path d="M252.722 250.19C255.809 250.745 256.648 249.936 255.192 248.636C253.83 247.431 250.188 244.196 249.365 233.937C248.542 223.677 247.576 209.041 241.021 203.428C239.754 202.334 240.561 203.888 241.844 206.694C243.111 209.517 245.011 220.585 245.296 233.842C245.581 247.098 249.175 249.556 252.722 250.19Z" fill="#25284C"/>
<path d="M250.267 234.841C250.901 229.972 252.183 225.247 252.532 220.347C252.737 217.588 252.832 214.845 253.022 212.086C254.685 213.925 256.332 215.78 257.994 217.62C258.089 218.904 258.2 220.205 258.263 221.489C258.469 225.691 257.725 229.782 257.092 233.921C256.696 236.521 256.379 239.154 256.522 241.802C256.601 243.102 256.791 244.402 257.155 245.655C257.345 246.305 257.583 246.939 257.852 247.558C258.042 247.97 258.802 249.461 258.374 249.794C256.87 251.015 253.26 251.395 250.758 249.984C250.711 249.952 250.679 249.921 250.647 249.889C250.505 249.857 250.378 249.778 250.347 249.603C249.618 244.941 249.666 239.503 250.267 234.841ZM253.782 205.077C255.271 206.694 256.728 208.359 258.168 210.024C258.2 209.834 258.232 209.628 258.248 209.438C256.807 207.725 255.366 206.013 253.893 204.332C253.862 204.57 253.814 204.823 253.782 205.077ZM257.852 214.385C257.852 214.084 257.852 213.782 257.868 213.497C257.646 213.227 257.408 212.974 257.187 212.704C255.968 211.293 254.558 209.945 253.339 208.486C253.307 208.835 253.276 209.184 253.244 209.549C254.4 210.674 255.477 211.927 256.506 213.069C256.965 213.576 257.424 214.084 257.868 214.607C257.852 214.528 257.852 214.464 257.852 214.385Z" fill="#6A7EA2"/>
<path d="M232.28 413.549C232.597 410.822 232.439 408.094 232.423 405.351C232.391 402.735 232.597 400.166 233.167 397.613C233.484 396.17 233.88 394.743 234.307 393.315C234.513 392.634 234.719 391.936 234.941 391.254C235.083 390.778 235.178 390.287 235.621 390.001C235.78 389.89 235.986 390.033 235.986 390.207C236.033 393.03 235.511 395.853 235.685 398.675C235.748 399.706 235.859 400.721 235.97 401.736C236.191 403.733 236.492 405.716 236.714 407.698C236.825 408.697 236.872 409.696 236.825 410.711C236.746 412.756 236.492 414.802 236.302 416.847C236.112 418.893 235.922 420.938 235.732 422.984C235.59 424.459 235.716 426.314 234.687 427.519C234.576 427.646 234.355 427.63 234.244 427.519C233.816 427.059 233.373 426.599 232.945 426.155C232.613 425.806 232.265 425.458 232.138 424.966C231.995 424.395 232.043 423.761 231.964 423.19C231.885 422.588 231.774 421.985 231.695 421.382C231.378 418.782 231.98 416.165 232.28 413.549Z" fill="#25284C"/>
<path d="M238.741 430.278C238.867 430.294 239.01 430.262 239.105 430.183C240.403 429.041 241.955 424.221 242.113 415.88C242.287 407.191 242.921 406.318 243.332 405.573C243.744 404.828 241.084 405.748 239.976 412.233C238.867 418.719 236.508 427.17 236.619 428.629C236.73 429.818 238.202 430.183 238.741 430.278Z" fill="#25284C"/>
<path d="M239.991 412.249C241.084 405.763 243.744 404.828 243.348 405.589C243.015 406.192 242.54 406.873 242.287 411.646C242.097 412.296 241.875 412.931 241.606 413.549C241.321 414.231 240.925 414.849 240.229 415.182C240.007 415.278 239.785 415.23 239.643 415.024C239.595 414.945 239.548 414.865 239.516 414.786C239.69 413.898 239.849 413.058 239.991 412.249Z" fill="#25284C"/>
<path d="M235.241 424.062C235.321 422.778 235.59 421.493 235.796 420.225C236.033 418.734 236.081 417.228 236.112 415.721C236.176 412.851 236.397 410.013 236.698 407.159V407.143C236.603 406.778 236.508 406.397 236.397 406.033C236.318 406.017 236.255 405.953 236.239 405.874C235.495 403.401 235.273 400.8 235.574 398.231C235.716 397.01 235.986 395.789 236.381 394.616C236.603 393.95 237.426 391.619 237.727 391.65C237.838 391.666 237.901 391.761 237.886 391.857C237.553 393.807 237.521 396.598 237.68 398.564C237.822 398.548 238.012 398.675 237.981 398.881C237.933 399.183 237.886 399.468 237.838 399.769C237.901 399.627 237.981 399.484 238.06 399.341C238.186 399.135 238.503 399.23 238.519 399.468C238.709 404.13 240.039 408.665 240.197 413.343C240.34 417.561 239.39 421.62 237.727 425.473C237.759 425.521 237.775 425.569 237.759 425.616C237.711 426.425 236.92 426.885 236.191 426.552C235.241 426.124 235.178 424.966 235.241 424.062Z" fill="#6A7EA2"/>
<path d="M241.242 416.8C241.242 416.8 241.495 411.662 241.179 407.032C240.862 402.402 241.955 395.726 242.461 394.314C242.968 392.903 240.53 395.535 239.184 404.669C237.838 413.803 238.281 417.846 237.125 419.908C235.969 421.969 236.809 428.011 236.809 428.011C236.809 428.011 240.023 423.285 241.242 416.8Z" fill="#7B92B9"/>
<path d="M231.045 412.027C231.789 406.841 231.884 404.812 231.536 401.387C231.188 397.977 231.425 395.234 232.249 393.046C232.328 392.824 232.676 392.935 232.676 393.157C232.676 394.41 232.676 395.662 232.724 396.899C232.771 398.231 233.119 399.452 233.5 400.721C234.18 403.083 234.64 406.255 234.497 408.681C234.355 411.234 234.022 413.787 234.101 416.34C234.18 418.956 234.37 420.732 235.13 423.222C235.495 424.395 235.795 425.6 236.065 426.805C236.508 428.851 236.445 430.595 236.096 430.849C235.574 431.214 233.626 430.69 233.119 429.802C232.834 429.311 232.755 428.756 232.708 428.201C232.66 427.313 232.581 426.964 232.375 426.092C231.995 424.601 231.853 423.396 231.378 421.937C230.903 420.494 230.982 418.195 230.855 416.673C230.713 415.246 230.76 414.056 231.045 412.027Z" fill="#7B92B9"/>
<path d="M233.832 430.548C233.8 430.532 233.784 430.516 233.769 430.484C233.689 430.468 233.61 430.421 233.594 430.31C233.151 427.582 233.183 424.744 233.531 422.001C233.911 419.131 234.655 416.356 234.861 413.47C235.051 410.758 235.099 408.062 235.463 405.367C235.827 402.703 236.397 400.071 237.189 397.502C237.632 396.075 238.123 394.663 238.693 393.284C239.2 392.047 239.722 390.842 240.245 389.621C240.435 389.161 240.973 388.733 240.862 389.526C240.799 390.001 240.688 390.477 240.64 390.953C240.545 391.841 240.53 392.745 240.435 393.633C240.292 394.949 240.134 396.281 239.96 397.597C239.58 400.324 239.01 402.988 238.471 405.684C238.186 407.095 237.98 408.522 237.996 409.981C238.012 411.377 238.17 412.772 238.234 414.167C238.36 416.641 237.917 419.051 237.537 421.493C237.3 423.031 237.11 424.585 237.205 426.124C237.252 426.885 237.363 427.646 237.585 428.391C237.695 428.772 237.838 429.152 237.996 429.517C238.107 429.771 238.55 430.262 238.313 430.453C237.426 431.15 235.304 431.372 233.832 430.548Z" fill="#25284C"/>
<path d="M241.369 412.677C241.306 409.664 240.751 418.798 237.949 423.143C235.067 427.614 235.89 429.93 236.033 430.802C236.191 431.674 239.12 430.627 239.263 429.993C239.405 429.359 238.36 426.98 239.405 424.031C240.466 421.097 241.511 419.622 241.369 412.677Z" fill="#6A7EA2"/>
<path d="M234.972 431.055C236.793 431.388 237.284 430.897 236.429 430.135C235.621 429.422 233.484 427.519 232.993 421.477C232.518 415.436 231.932 406.826 228.084 403.511C227.34 402.877 227.815 403.781 228.559 405.43C229.304 407.095 230.428 413.612 230.586 421.43C230.76 429.232 232.898 430.675 234.972 431.055Z" fill="#25284C"/>
<path d="M233.531 422.017C233.911 419.147 234.655 416.372 234.861 413.486C234.972 411.868 235.035 410.235 235.146 408.617C236.128 409.696 237.094 410.79 238.075 411.868C238.123 412.629 238.202 413.39 238.234 414.152C238.36 416.625 237.917 419.036 237.537 421.477C237.3 423.016 237.11 424.57 237.205 426.108C237.252 426.869 237.363 427.63 237.585 428.375C237.695 428.756 237.838 429.136 237.996 429.501C238.107 429.755 238.55 430.611 238.313 430.817C237.426 431.531 235.304 431.753 233.832 430.928C233.8 430.912 233.784 430.897 233.769 430.865C233.689 430.849 233.61 430.801 233.594 430.69C233.151 427.963 233.183 424.744 233.531 422.017ZM235.605 404.479C236.476 405.43 237.347 406.413 238.186 407.396C238.202 407.285 238.218 407.159 238.234 407.048C237.395 406.033 236.539 405.034 235.669 404.035C235.653 404.178 235.621 404.336 235.605 404.479ZM237.996 409.965C237.996 409.791 237.996 409.616 237.996 409.442C237.87 409.283 237.727 409.125 237.6 408.982C236.888 408.158 236.049 407.349 235.336 406.509C235.32 406.715 235.289 406.921 235.273 407.127C235.954 407.793 236.587 408.522 237.205 409.204C237.474 409.505 237.743 409.807 238.012 410.108C237.996 410.045 237.996 410.013 237.996 409.965Z" fill="#6A7EA2"/>
<defs>
<linearGradient id="paint0_linear" x1="254.08" y1="183.529" x2="122.149" y2="183.529" gradientUnits="userSpaceOnUse">
<stop stop-color="#1247AD"/>
<stop offset="1" stop-color="#035BBF"/>
</linearGradient>
<linearGradient id="paint1_linear" x1="306.908" y1="314.735" x2="109.842" y2="314.735" gradientUnits="userSpaceOnUse">
<stop stop-color="#1247AD"/>
<stop offset="1" stop-color="#035BBF"/>
</linearGradient>
<linearGradient id="paint2_linear" x1="257" y1="351" x2="245" y2="317" gradientUnits="userSpaceOnUse">
<stop stop-color="#1247AD"/>
<stop offset="1" stop-color="#035BBF"/>
</linearGradient>
<linearGradient id="paint3_linear" x1="176" y1="338" x2="167" y2="301.5" gradientUnits="userSpaceOnUse">
<stop stop-color="#1247AD"/>
<stop offset="1" stop-color="#035BBF"/>
</linearGradient>
<linearGradient id="paint4_linear" x1="422" y1="382" x2="411" y2="337" gradientUnits="userSpaceOnUse">
<stop stop-color="#1247AD"/>
<stop offset="1" stop-color="#035BBF"/>
</linearGradient>
<clipPath id="clip0">
<rect x="230.877" y="319.123" width="28.7313" height="28.7313" fill="white"/>
</clipPath>
</defs>
</svg>
