<svg xmlns="http://www.w3.org/2000/svg" viewBox="0 0 943.73 901.3"><defs><style>.cls-1{fill:#1175af;}.cls-2{fill:#f7d546;}.cls-3{fill:#fff;}.cls-4{fill:#fcfcfa;}.cls-5{fill:#f7d406;}.cls-6{fill:none;}.cls-7{fill:#263238;}.cls-8{fill:#ec5e20;}.cls-9{fill:#f7dc57;}.cls-10{opacity:0.3;}.cls-11{fill:#ffbf9d;}.cls-12{fill:#f98958;}.cls-13{fill:#e8505b;}.cls-14{opacity:0.4;}.cls-15{fill:#fafafa;}</style></defs><g id="Character"><path class="cls-1" d="M-454.8,1539.61c0,.28-181.06.5-404.37.5s-404.4-.22-404.4-.5,181-.5,404.4-.5S-454.8,1539.33-454.8,1539.61Z" transform="translate(1368.48 -658.27)"></path><path class="cls-2" d="M-636.19,893.52a59.12,59.12,0,0,1,14.46-6.29l3-14.32,24.19-.42,3.49,14.2a59,59,0,0,1,14.68,5.78l12.22-8,17.41,16.81-7.58,12.5A59,59,0,0,1-548,928.23l14.32,3,.42,24.19-14.2,3.48a59.41,59.41,0,0,1-5.78,14.68l8,12.23-16.8,17.4-12.5-7.57A59.32,59.32,0,0,1-589,1001.9l-3,14.32-24.19.43-3.48-14.21a59,59,0,0,1-14.68-5.78l-12.23,8L-664,987.87l7.58-12.5a59.4,59.4,0,0,1-6.29-14.47l-14.31-3-.43-24.19,14.21-3.48a59.38,59.38,0,0,1,5.77-14.68l-8-12.23,16.8-17.4,12.51,7.58Zm12.89,32.23a25.94,25.94,0,0,0,.65,36.7,25.94,25.94,0,0,0,36.7-.65,25.94,25.94,0,0,0-.65-36.7A25.94,25.94,0,0,0-623.3,925.75Z" transform="translate(1368.48 -658.27)"></path><path class="cls-2" d="M-623.3,925.75a19.64,19.64,0,0,1,4.83-4.25,25.88,25.88,0,0,1,16.94-4A26.19,26.19,0,0,1-590,921.59a26.58,26.58,0,0,1,9.31,10.49,25,25,0,0,1,2.36,7.28,25.14,25.14,0,0,1,.14,8,26.71,26.71,0,0,1-7.2,15,26.75,26.75,0,0,1-14.71,7.73,25,25,0,0,1-8,.13,24.85,24.85,0,0,1-7.37-2.1,26.59,26.59,0,0,1-10.8-8.93,26.06,26.06,0,0,1-4.49-11.36,25.83,25.83,0,0,1,3.4-17.07,19.69,19.69,0,0,1,4.07-5,62.33,62.33,0,0,0-3.57,5.26,25.89,25.89,0,0,0-2.86,16.62,25.23,25.23,0,0,0,4.45,10.8,25.57,25.57,0,0,0,10.36,8.4,24,24,0,0,0,7,1.95,23.8,23.8,0,0,0,7.57-.17,25.41,25.41,0,0,0,13.88-7.33,25.39,25.39,0,0,0,6.83-14.12,23.63,23.63,0,0,0-.11-7.56,23.62,23.62,0,0,0-2.19-6.92,25.45,25.45,0,0,0-8.75-10.06,25.36,25.36,0,0,0-10.95-4.08A25.86,25.86,0,0,0-618.16,922C-621.65,924.12-623.17,925.88-623.3,925.75Z" transform="translate(1368.48 -658.27)"></path><path class="cls-2" d="M-636.2,893.52a6.58,6.58,0,0,1-.8-.43l-2.4-1.38c-2.18-1.3-5.33-3.16-9.42-5.57l.29,0-16.7,17.51,0-.47c2.45,3.69,5.16,7.8,8.07,12.19l.14.22-.13.24a59.36,59.36,0,0,0-5.68,14.58l-.07.28-.29.07-14.19,3.53.4-.53c.15,7.62.31,15.71.48,24.19l-.46-.56,14.32,2.95.36.08.11.36a58.84,58.84,0,0,0,6.24,14.3l.2.33-.2.34-7.56,12.51-.11-.82,17.43,16.78-.86-.08c3.81-2.5,8-5.24,12.22-8l.36-.23.37.21a58.82,58.82,0,0,0,14.51,5.69l.42.1.1.43c1.1,4.45,2.29,9.3,3.5,14.2l-.73-.55,24.2-.44-.71.59c.94-4.52,2-9.4,3-14.32l.1-.44.43-.12A58.79,58.79,0,0,0-575,995h0l.39-.23.38.23,12.5,7.58-.92.12q8.54-8.82,16.81-17.41l-.08.92-8-12.23-.24-.37.21-.39a58.86,58.86,0,0,0,5.72-14.49l.1-.43.42-.1,14.21-3.47-.54.7q-.19-12.39-.4-24.19l.55.66-14.32-3-.39-.08-.11-.39a58.86,58.86,0,0,0-6.2-14.32l-.2-.33.2-.34,7.6-12.48.1.76-17.37-16.84.7.07-12.24,8-.27.18-.28-.16a59.48,59.48,0,0,0-14.54-5.77l-.29-.07-.07-.28c-1.25-5.17-2.37-9.82-3.43-14.22l.43.34-24.19.31.32-.26c-1.23,5.71-2.24,10.4-3.07,14.3l0,.14-.14,0a61.46,61.46,0,0,0-11.07,4.26l-2.6,1.36a6.21,6.21,0,0,1-.87.44,9.13,9.13,0,0,1,.81-.55c.55-.34,1.39-.85,2.55-1.47a57.44,57.44,0,0,1,11.05-4.5l-.17.18c.79-3.91,1.73-8.61,2.88-14.34l.06-.26h.27l24.19-.53h.35l.08.34,3.53,14.19-.36-.35A59.56,59.56,0,0,1-576.13,892l-.56,0,12.21-8,.38-.25.33.32,17.44,16.77.35.34-.25.43q-3.69,6.09-7.56,12.51v-.67A60,60,0,0,1-547.41,928l-.51-.47,14.32,3,.54.11v.54q.22,11.8.45,24.2V956l-.55.14-14.2,3.49.53-.53a60,60,0,0,1-5.84,14.86l0-.75,8,12.22.32.49-.41.43-16.8,17.41-.41.43-.51-.31-12.5-7.58h.76a60.1,60.1,0,0,1-14.64,6.36l.53-.57c-1,4.92-2,9.8-3,14.32l-.12.58H-592l-24.19.41h-.58l-.14-.56c-1.2-4.9-2.39-9.76-3.47-14.21l.52.53a60,60,0,0,1-14.85-5.86l.74,0-12.24,8-.46.3-.4-.38-17.39-16.83-.38-.37.28-.45L-657,975v.67a60.21,60.21,0,0,1-6.33-14.64l.47.44-14.31-3-.46-.1v-.47c-.13-8.48-.25-16.57-.37-24.19v-.42l.42-.1,14.21-3.45-.36.36a60.17,60.17,0,0,1,5.87-14.77l0,.45c-2.87-4.42-5.56-8.54-8-12.26l-.16-.25.21-.22,16.9-17.31.14-.14.16.1,9.2,5.73L-637,893A6.64,6.64,0,0,1-636.2,893.52Z" transform="translate(1368.48 -658.27)"></path><path class="cls-3" d="M-1258.3,1037.36a59,59,0,0,1,14.47-6.28l3-14.32,24.2-.43,3.48,14.21a59.38,59.38,0,0,1,14.68,5.77l12.23-8,17.4,16.8-7.58,12.5a59,59,0,0,1,6.29,14.47l14.32,3,.42,24.19-14.2,3.49a59.38,59.38,0,0,1-5.77,14.68l8,12.22-16.81,17.41-12.5-7.58a59,59,0,0,1-14.47,6.29l-3,14.32-24.19.42-3.48-14.2a59.41,59.41,0,0,1-14.68-5.78l-12.23,8-17.4-16.81,7.58-12.5a59,59,0,0,1-6.29-14.47l-14.32-3-.42-24.19,14.2-3.48a59,59,0,0,1,5.78-14.68l-8-12.23,16.81-17.41,12.5,7.58Zm12.9,32.23a26,26,0,0,0,.64,36.7,26,26,0,0,0,36.7-.64,26,26,0,0,0-.64-36.7A26,26,0,0,0-1245.4,1069.59Z" transform="translate(1368.48 -658.27)"></path><path class="cls-3" d="M-1245.4,1069.59a19.5,19.5,0,0,1,4.83-4.24,25.83,25.83,0,0,1,16.93-4,26.08,26.08,0,0,1,11.51,4.08,26.65,26.65,0,0,1,9.31,10.49,25,25,0,0,1,2.36,7.29,25.14,25.14,0,0,1,.15,8,26.7,26.7,0,0,1-7.21,15,26.7,26.7,0,0,1-14.7,7.73,24.74,24.74,0,0,1-8,.14,25.08,25.08,0,0,1-7.36-2.1,26.57,26.57,0,0,1-10.81-8.94,26.09,26.09,0,0,1-4.49-11.36,25.86,25.86,0,0,1,3.41-17.06,19.63,19.63,0,0,1,4.07-5c.14.12-1.57,1.7-3.57,5.27a25.86,25.86,0,0,0-2.87,16.61,25.34,25.34,0,0,0,4.46,10.81,25.41,25.41,0,0,0,10.36,8.39,23.31,23.31,0,0,0,7,1.95,23.73,23.73,0,0,0,7.56-.16,25.41,25.41,0,0,0,13.88-7.33,25.39,25.39,0,0,0,6.83-14.13,23.63,23.63,0,0,0-.1-7.56,23.92,23.92,0,0,0-2.19-6.92,25.62,25.62,0,0,0-8.76-10.06,25.42,25.42,0,0,0-11-4.07,25.9,25.9,0,0,0-16.51,3.45C-1243.76,1068-1245.28,1069.73-1245.4,1069.59Z" transform="translate(1368.48 -658.27)"></path><path class="cls-3" d="M-1258.3,1037.36a5.75,5.75,0,0,1-.81-.42l-2.4-1.39-9.42-5.56.3,0-16.71,17.5,0-.47c2.44,3.7,5.16,7.8,8.06,12.2l.15.22-.13.23a58.57,58.57,0,0,0-5.68,14.58l-.07.29-.29.07-14.2,3.52.41-.52c.15,7.62.31,15.7.48,24.19l-.47-.56,14.32,3,.37.07.1.36a59.29,59.29,0,0,0,6.24,14.31l.21.33-.21.33c-2.34,3.88-4.92,8.16-7.56,12.51l-.1-.82,17.43,16.79-.87-.08,12.22-8,.36-.24.38.21a59,59,0,0,0,14.5,5.7l.42.1.11.42c1.09,4.45,2.29,9.31,3.49,14.21l-.72-.56,24.19-.43-.71.59c.94-4.53,2-9.41,3-14.32l.09-.44.43-.13a58.24,58.24,0,0,0,14.27-6.2h0l.39-.23.38.24,12.5,7.57-.92.12,16.81-17.4-.09.92q-4-6.18-8-12.23l-.24-.37.22-.39a58.36,58.36,0,0,0,5.71-14.5l.11-.42.42-.1,14.21-3.47-.54.7q-.21-12.39-.41-24.2l.55.66-14.31-3-.4-.09-.11-.39a58.41,58.41,0,0,0-6.2-14.31l-.2-.34.2-.33c2.61-4.28,5.14-8.43,7.6-12.49l.1.77-17.37-16.84.71.06-12.25,8-.27.17-.28-.15a58.93,58.93,0,0,0-14.54-5.77l-.29-.07-.06-.29c-1.25-5.16-2.38-9.82-3.44-14.21l.44.33-24.2.32.32-.27c-1.23,5.72-2.23,10.4-3.07,14.3l0,.15-.14,0a61.13,61.13,0,0,0-11.06,4.25l-2.6,1.36a6.21,6.21,0,0,1-.87.44,6.64,6.64,0,0,1,.8-.55c.56-.34,1.4-.85,2.55-1.47a57.55,57.55,0,0,1,11-4.49l-.17.18c.79-3.92,1.74-8.61,2.89-14.34l0-.26h.27l24.19-.53h.35l.09.35,3.52,14.19-.35-.36a60,60,0,0,1,14.82,5.78l-.55,0,12.2-8,.38-.25.33.32,17.44,16.77.36.34-.26.43q-3.67,6.09-7.56,12.51v-.67a59.92,59.92,0,0,1,6.37,14.62l-.5-.47,14.32,3,.53.11v.55q.23,11.81.45,24.19v.57l-.55.13-14.2,3.5.53-.53a60,60,0,0,1-5.84,14.86l0-.76q4,6.06,8,12.23l.33.49-.41.42-16.8,17.42-.41.42-.51-.31-12.5-7.57h.75a60.17,60.17,0,0,1-14.63,6.35l.52-.56c-1,4.91-2,9.79-3,14.32l-.12.58h-.59l-24.2.41h-.58l-.14-.57c-1.2-4.9-2.38-9.75-3.47-14.2l.53.52a60.2,60.2,0,0,1-14.85-5.85l.73,0-12.24,8-.46.31-.4-.39-17.38-16.82-.39-.37.28-.46c2.65-4.34,5.24-8.61,7.6-12.48v.66a59.92,59.92,0,0,1-6.33-14.63l.46.43-14.31-3-.46-.09v-.47c-.13-8.49-.25-16.57-.36-24.19v-.43l.41-.1,14.21-3.44-.35.36a59.77,59.77,0,0,1,5.86-14.77l0,.45-8-12.26-.17-.26.21-.21,16.91-17.31.13-.14.16.1,9.21,5.73,2.37,1.5A8.52,8.52,0,0,1-1258.3,1037.36Z" transform="translate(1368.48 -658.27)"></path><path class="cls-4" d="M-591.18,761.32a42.83,42.83,0,0,1,10.48-4.56l2.16-10.38,17.53-.3,2.53,10.29a42.93,42.93,0,0,1,10.63,4.19l8.86-5.81,12.62,12.18-5.49,9.05a43,43,0,0,1,4.55,10.49l10.38,2.16.3,17.53-10.29,2.52a42.82,42.82,0,0,1-4.18,10.64l5.8,8.86-12.17,12.61-9.06-5.49A43.06,43.06,0,0,1-557,839.86l-2.16,10.37-17.53.31-2.52-10.29a43.16,43.16,0,0,1-10.64-4.19l-8.86,5.81-12.61-12.18,5.49-9.06a43.22,43.22,0,0,1-4.56-10.48L-620.78,808l-.31-17.53,10.29-2.52a42.85,42.85,0,0,1,4.19-10.64l-5.81-8.86,12.18-12.62,9.06,5.5Zm9.34,23.35a18.82,18.82,0,0,0,.47,26.6,18.82,18.82,0,0,0,26.6-.47,18.82,18.82,0,0,0-.47-26.6A18.82,18.82,0,0,0-581.84,784.67Z" transform="translate(1368.48 -658.27)"></path><path class="cls-4" d="M-581.84,784.67a14.46,14.46,0,0,1,3.51-3.07,18.69,18.69,0,0,1,12.27-2.9,18.9,18.9,0,0,1,8.34,3,19.25,19.25,0,0,1,6.74,7.6,18,18,0,0,1,1.71,5.28,18.1,18.1,0,0,1,.11,5.79,19.34,19.34,0,0,1-5.22,10.84A19.39,19.39,0,0,1-565,816.78a17.89,17.89,0,0,1-5.79.09,18,18,0,0,1-5.34-1.52,19.27,19.27,0,0,1-7.83-6.47,18.93,18.93,0,0,1-3.25-8.24,18.71,18.71,0,0,1,2.47-12.36,14.08,14.08,0,0,1,2.94-3.61c.11.09-1.13,1.24-2.58,3.82a18.71,18.71,0,0,0-2.08,12,18.35,18.35,0,0,0,3.23,7.83,18.5,18.5,0,0,0,7.51,6.08,17.11,17.11,0,0,0,5.06,1.41,17.11,17.11,0,0,0,5.48-.12,18.34,18.34,0,0,0,10.06-5.31,18.32,18.32,0,0,0,4.95-10.23,17.05,17.05,0,0,0-.07-5.48,17.37,17.37,0,0,0-1.59-5,18.49,18.49,0,0,0-6.34-7.29,18.45,18.45,0,0,0-7.94-3,18.79,18.79,0,0,0-12,2.5C-580.64,783.49-581.75,784.77-581.84,784.67Z" transform="translate(1368.48 -658.27)"></path><path class="cls-4" d="M-591.18,761.32a5,5,0,0,1-.59-.31l-1.73-1-6.83-4,.21,0-12.1,12.69,0-.34c1.77,2.68,3.74,5.65,5.84,8.84l.11.15-.09.17A42.63,42.63,0,0,0-610.45,788l0,.21-.21,0L-621,790.83l.29-.38c.11,5.52.23,11.38.35,17.53l-.33-.41,10.37,2.14.27.06.07.26a42.82,42.82,0,0,0,4.53,10.36l.14.24-.14.25-5.48,9.06-.08-.59,12.63,12.16-.62-.06,8.85-5.82.26-.17.27.16a42.87,42.87,0,0,0,10.51,4.12l.31.08.08.3c.79,3.23,1.65,6.74,2.53,10.3l-.53-.41,17.53-.31-.51.42,2.16-10.37.06-.32.32-.09a43.07,43.07,0,0,0,10.34-4.49h0l.28-.17.28.17,9,5.49-.66.09,12.18-12.61-.06.66-5.81-8.86-.17-.27.15-.28a41.9,41.9,0,0,0,4.14-10.5l.08-.31.31-.07,10.29-2.52-.39.51q-.15-9-.29-17.53l.4.47-10.38-2.17-.28-.06-.08-.28a42.64,42.64,0,0,0-4.49-10.37l-.15-.25.15-.24q2.82-4.65,5.5-9l.08.56L-539.27,755l.51.05-8.87,5.79-.2.13-.21-.12a43.08,43.08,0,0,0-10.53-4.18l-.21-.05-.05-.21c-.9-3.74-1.72-7.11-2.49-10.3l.32.25-17.53.23.23-.2-2.23,10.37,0,.1-.1,0a44.09,44.09,0,0,0-8,3.08l-1.88,1a6.29,6.29,0,0,1-.63.32,4.88,4.88,0,0,1,.58-.4c.4-.25,1-.62,1.85-1.07a42.09,42.09,0,0,1,8-3.26l-.12.14c.57-2.84,1.26-6.24,2.09-10.39l0-.19h.2l17.53-.38h.25l.06.25,2.56,10.29-.26-.26a42.89,42.89,0,0,1,10.74,4.19h-.4l8.85-5.83.27-.18.24.23,12.64,12.15.26.25-.19.31-5.48,9.07v-.49a44,44,0,0,1,4.62,10.6l-.37-.34,10.38,2.14.39.08v.4q.16,8.55.33,17.53v.41l-.4.1-10.29,2.53.38-.38a43.63,43.63,0,0,1-4.23,10.77l0-.55,5.81,8.86.23.35-.29.31-12.18,12.62-.3.31-.36-.23-9.06-5.49h.55a43.57,43.57,0,0,1-10.61,4.61l.38-.41-2.16,10.37-.09.42h-.43l-17.53.3h-.42l-.1-.41-2.52-10.3.38.38a43.59,43.59,0,0,1-10.76-4.24l.53,0-8.86,5.8-.34.22-.29-.28L-611.68,830l-.27-.27.2-.33c1.91-3.15,3.8-6.24,5.5-9.05v.48a43.39,43.39,0,0,1-4.58-10.6l.33.32-10.37-2.18-.33-.07V808c-.09-6.15-.18-12-.26-17.53v-.31l.3-.07,10.3-2.5-.26.26a43.3,43.3,0,0,1,4.25-10.7v.32l-5.77-8.88-.12-.19.16-.15c5-5.11,9.11-9.33,12.25-12.54l.09-.1.12.07,6.67,4.15,1.72,1.09A4.88,4.88,0,0,1-591.18,761.32Z" transform="translate(1368.48 -658.27)"></path><path class="cls-2" d="M-1139.5,711.93a42.68,42.68,0,0,1,10.49-4.56l2.16-10.38,17.53-.3,2.52,10.29a42.82,42.82,0,0,1,10.64,4.18l8.86-5.8,12.61,12.18-5.49,9.05a43.06,43.06,0,0,1,4.56,10.49l10.37,2.16.31,17.53-10.29,2.52a42.85,42.85,0,0,1-4.19,10.64l5.81,8.86-12.18,12.61-9.06-5.49a43.22,43.22,0,0,1-10.48,4.56l-2.16,10.37-17.53.31-2.53-10.29a42.93,42.93,0,0,1-10.63-4.19l-8.86,5.81-12.62-12.18,5.5-9.06a42.45,42.45,0,0,1-4.56-10.48l-10.38-2.16-.3-17.53,10.29-2.53a43.3,43.3,0,0,1,4.18-10.63l-5.8-8.86,12.18-12.62,9,5.5Zm9.35,23.35a18.8,18.8,0,0,0,.47,26.6,18.81,18.81,0,0,0,26.59-.47,18.81,18.81,0,0,0-.46-26.6A18.82,18.82,0,0,0-1130.15,735.28Z" transform="translate(1368.48 -658.27)"></path><path class="cls-2" d="M-1130.15,735.28a14,14,0,0,1,3.5-3.07,18.69,18.69,0,0,1,12.27-2.9,18.9,18.9,0,0,1,8.34,3,19.2,19.2,0,0,1,6.75,7.6,18.27,18.27,0,0,1,1.71,5.28,17.82,17.82,0,0,1,.1,5.79,19.28,19.28,0,0,1-5.22,10.84,19.28,19.28,0,0,1-10.65,5.6,17.62,17.62,0,0,1-5.79.1,17.88,17.88,0,0,1-5.34-1.52,19.21,19.21,0,0,1-7.83-6.48,18.87,18.87,0,0,1-3.26-8.23,18.71,18.71,0,0,1,2.47-12.36,14.21,14.21,0,0,1,2.95-3.61c.1.09-1.14,1.24-2.58,3.82a18.68,18.68,0,0,0-2.08,12,18.35,18.35,0,0,0,3.23,7.83,18.47,18.47,0,0,0,7.5,6.08,17.26,17.26,0,0,0,5.07,1.41,17.13,17.13,0,0,0,5.48-.12,18.34,18.34,0,0,0,10.06-5.31,18.45,18.45,0,0,0,5-10.23,17,17,0,0,0-.08-5.48,17.21,17.21,0,0,0-1.58-5,18.58,18.58,0,0,0-6.35-7.29,18.46,18.46,0,0,0-7.94-3,18.82,18.82,0,0,0-12,2.5C-1129,734.1-1130.06,735.38-1130.15,735.28Z" transform="translate(1368.48 -658.27)"></path><path class="cls-2" d="M-1139.5,711.93a5.57,5.57,0,0,1-.58-.31l-1.74-1-6.82-4,.21,0-12.11,12.69,0-.34c1.77,2.68,3.73,5.65,5.84,8.83l.1.16-.09.17a43,43,0,0,0-4.12,10.57l0,.21-.21,0-10.28,2.55.29-.38c.11,5.52.23,11.38.35,17.53l-.34-.41,10.38,2.14.26.06.08.26a42.78,42.78,0,0,0,4.52,10.36l.15.24-.15.25-5.48,9.06-.07-.59,12.63,12.16-.63-.06,8.86-5.82.26-.17.27.15a42.34,42.34,0,0,0,10.51,4.13l.31.08.07.3c.79,3.23,1.66,6.74,2.53,10.29l-.52-.4,17.53-.31-.52.42c.69-3.27,1.42-6.81,2.16-10.37l.07-.32.31-.09a42.9,42.9,0,0,0,10.34-4.49h0l.29-.17.27.17,9.06,5.49-.67.09,12.19-12.61-.07.66-5.8-8.86-.18-.27.16-.28a42.28,42.28,0,0,0,4.14-10.5l.08-.31.3-.07,10.3-2.52-.39.51q-.15-9-.29-17.53l.39.47-10.37-2.17-.29-.06-.08-.28a42.26,42.26,0,0,0-4.49-10.37l-.14-.25.14-.24,5.51-9.05.07.56-12.59-12.21.52.05-8.88,5.79-.2.13-.2-.12a43.08,43.08,0,0,0-10.53-4.18l-.21-.05-.05-.21c-.91-3.74-1.72-7.11-2.49-10.3l.31.25-17.53.23.23-.2c-.89,4.14-1.61,7.54-2.22,10.37l0,.1-.1,0a44.09,44.09,0,0,0-8,3.08l-1.89,1a5.17,5.17,0,0,1-.63.32,4.29,4.29,0,0,1,.59-.4c.4-.25,1-.62,1.85-1.07a41.8,41.8,0,0,1,8-3.26l-.12.13c.57-2.83,1.25-6.24,2.09-10.39l0-.18h.19l17.53-.38h.26l.06.25,2.56,10.28-.26-.25a43.19,43.19,0,0,1,10.74,4.19h-.4l8.84-5.83.28-.18.24.23,12.63,12.15.26.25-.18.31-5.48,9.07v-.49a43.27,43.27,0,0,1,4.62,10.6l-.36-.34,10.37,2.14.39.08v.4q.15,8.55.32,17.53v.41l-.4.1-10.29,2.53.38-.38a43.39,43.39,0,0,1-4.23,10.77l0-.55,5.82,8.86.23.35-.3.31-12.17,12.62-.3.31-.37-.23-9.06-5.49h.55a43.63,43.63,0,0,1-10.6,4.6l.38-.4c-.75,3.56-1.48,7.1-2.17,10.37l-.08.42h-.43l-17.53.3h-.43l-.1-.41c-.86-3.56-1.72-7.07-2.51-10.3l.38.38a43.67,43.67,0,0,1-10.76-4.24l.53,0-8.87,5.8-.33.22-.29-.28-12.6-12.19-.28-.27.2-.33,5.51-9v.48a43.43,43.43,0,0,1-4.59-10.6l.34.31-10.37-2.18-.33-.07v-.33c-.09-6.15-.18-12-.27-17.53v-.31l.29-.07,10.31-2.5-.26.26a43.15,43.15,0,0,1,4.25-10.71v.33l-5.77-8.88-.12-.19.15-.15,12.25-12.55.1-.1.11.08,6.68,4.15,1.71,1.09A4,4,0,0,1-1139.5,711.93Z" transform="translate(1368.48 -658.27)"></path><path class="cls-2" d="M-675.7,766.54v0l-1.89-7.75a32.28,32.28,0,0,1-8-3.15l-6.7,4.4,0,0-9.56-9.23,0,0,4.14-6.81a32.3,32.3,0,0,1-3.43-7.88l-7.85-1.64v0l-.23-13.28h0l7.75-1.9a32.42,32.42,0,0,1,3.14-8l-4.39-6.71,0,0,9.23-9.55,0,0,6.82,4.13a32.76,32.76,0,0,1,7.87-3.42l1.64-7.85h0l13.28-.24v0l1.9,7.75a32.8,32.8,0,0,1,8,3.14l6.7-4.39,0,0,9.56,9.23,0,0-4.14,6.82a32.69,32.69,0,0,1,3.43,7.88l7.84,1.63v0l.23,13.29h0l-7.75,1.9a32.73,32.73,0,0,1-3.14,8l4.39,6.7,0,0-9.23,9.56,0,0-6.82-4.13a32.66,32.66,0,0,1-7.88,3.42l-1.63,7.85h0Zm-9.9-11,0,0a32.51,32.51,0,0,0,8,3.16h0v0l1.89,7.74,13.17-.23,1.63-7.83h0a32.51,32.51,0,0,0,7.91-3.43l0,0,0,0,6.81,4.13,9.14-9.48-4.38-6.69,0,0a32.48,32.48,0,0,0,3.15-8v0h0l7.74-1.9-.23-13.16-7.83-1.63v0a32.21,32.21,0,0,0-3.44-7.91l0,0,0,0,4.13-6.8-9.47-9.15-6.69,4.38h0a32.06,32.06,0,0,0-8-3.16h0v0l-1.89-7.73-13.17.23-1.63,7.83h0a32.54,32.54,0,0,0-7.91,3.44l0,0,0,0-6.81-4.13-9.14,9.48,4.38,6.68,0,0a32.84,32.84,0,0,0-3.16,8v0h0l-7.74,1.9.23,13.16,7.83,1.63v0a32.16,32.16,0,0,0,3.44,7.91v0l-4.13,6.81,9.47,9.15Zm16.29-14.64a14.23,14.23,0,0,1-9.9-4,14.2,14.2,0,0,1-4.36-10,14.23,14.23,0,0,1,4-10.16h0a14.28,14.28,0,0,1,20.17-.35A14.27,14.27,0,0,1-659,736.5,14.22,14.22,0,0,1-669.31,740.85Zm0-28.41a14.15,14.15,0,0,0-10.19,4.32h0a14.12,14.12,0,0,0-4,10.08,14,14,0,0,0,4.33,9.94,14.16,14.16,0,0,0,20-.35,14.17,14.17,0,0,0-.35-20A14.13,14.13,0,0,0-669.31,712.44Z" transform="translate(1368.48 -658.27)"></path><path class="cls-5" d="M-679.53,716.72a10.85,10.85,0,0,1,2.64-2.32,14.18,14.18,0,0,1,9.28-2.19,14.34,14.34,0,0,1,6.3,2.24,14.49,14.49,0,0,1,5.09,5.74,13.74,13.74,0,0,1,1.3,4,13.9,13.9,0,0,1,.08,4.37,14.66,14.66,0,0,1-3.95,8.2,14.62,14.62,0,0,1-8.05,4.23,13.73,13.73,0,0,1-4.38.08,13.58,13.58,0,0,1-4-1.16,14.58,14.58,0,0,1-5.92-4.89,14.49,14.49,0,0,1-2.46-6.22,14.14,14.14,0,0,1,1.87-9.34,10.78,10.78,0,0,1,2.23-2.73c.07.07-.86.94-2,2.89a14.12,14.12,0,0,0-1.58,9.1,14,14,0,0,0,2.44,5.91,14.07,14.07,0,0,0,5.68,4.6,12.89,12.89,0,0,0,3.82,1.06,12.87,12.87,0,0,0,4.15-.09,13.79,13.79,0,0,0,7.59-4,13.86,13.86,0,0,0,3.74-7.73,13,13,0,0,0-.05-4.14,13.32,13.32,0,0,0-1.2-3.79,14.06,14.06,0,0,0-4.79-5.51,14.07,14.07,0,0,0-6-2.23,14.17,14.17,0,0,0-9,1.89C-678.63,715.83-679.46,716.8-679.53,716.72Z" transform="translate(1368.48 -658.27)"></path><path class="cls-5" d="M-686.59,699.08l-.44-.23-1.32-.76-5.16-3.05.17,0c-2.35,2.45-5.43,5.68-9.15,9.58l0-.25L-698,711l.08.12-.07.13a32.27,32.27,0,0,0-3.11,8l0,.16-.16,0-7.77,1.93.22-.29c.08,4.17.17,8.6.26,13.25l-.25-.31,7.84,1.62.2,0,.06.19a31.9,31.9,0,0,0,3.41,7.83l.11.19-.11.18-4.14,6.85-.05-.45,9.54,9.19-.47,0,6.69-4.39.19-.13.21.12a32,32,0,0,0,7.94,3.11l.23.06.06.23,1.91,7.78-.39-.31,13.24-.23-.39.32c.52-2.48,1.07-5.15,1.63-7.84l0-.24.24-.07a32,32,0,0,0,7.81-3.4h0l.21-.13.21.13,6.85,4.15-.51.07,9.21-9.53,0,.5-4.39-6.7-.13-.2.12-.21a32.1,32.1,0,0,0,3.13-7.94l.06-.23.23-.06,7.78-1.9-.3.39q-.12-6.78-.22-13.25l.3.36-7.84-1.64-.22-.05-.06-.21a32.17,32.17,0,0,0-3.39-7.84l-.11-.18.11-.18,4.16-6.84.06.42c-3.35-3.24-6.51-6.3-9.51-9.22l.38,0-6.7,4.37-.15.09-.15-.08a32.74,32.74,0,0,0-8-3.16l-.16,0,0-.15c-.68-2.83-1.3-5.38-1.88-7.79l.24.19L-677,688l.18-.15c-.67,3.13-1.22,5.7-1.68,7.83l0,.08-.08,0a34.34,34.34,0,0,0-6.05,2.33l-1.43.75-.47.24a3.21,3.21,0,0,1,.44-.3c.3-.19.76-.47,1.39-.81a32,32,0,0,1,6-2.46l-.09.1,1.58-7.85,0-.14h.15l13.24-.29h.19l.05.19c.6,2.4,1.23,4.94,1.93,7.77l-.19-.2a32.55,32.55,0,0,1,8.11,3.17h-.3l6.68-4.41.21-.13.18.17,9.55,9.18.19.19-.14.23c-1.34,2.23-2.72,4.5-4.13,6.85V710a32.83,32.83,0,0,1,3.49,8l-.28-.25,7.84,1.62.29.06v.3q.12,6.45.25,13.24v.31l-.3.08-7.78,1.91.29-.29a32.63,32.63,0,0,1-3.19,8.14l0-.42c1.45,2.21,2.92,4.44,4.39,6.7l.18.27-.22.23-9.2,9.53-.23.24-.28-.17-6.84-4.15h.41a32.45,32.45,0,0,1-8,3.48l.29-.31c-.56,2.7-1.12,5.37-1.64,7.84l-.06.32h-.32l-13.25.22H-676l-.08-.31c-.65-2.69-1.3-5.34-1.9-7.78l.29.29a33.23,33.23,0,0,1-8.13-3.21h.4l-6.7,4.38-.25.17-.22-.22-9.52-9.21-.21-.2.15-.25,4.16-6.84v.37a32.8,32.8,0,0,1-3.46-8l.25.23-7.83-1.64-.25-.06v-.25c-.07-4.65-.14-9.08-.2-13.25v-.23l.22,0,7.78-1.89-.19.2a32.38,32.38,0,0,1,3.21-8.09v.25l-4.36-6.72-.09-.14.11-.11,9.26-9.48.07-.08.09.06,5,3.14,1.3.82Z" transform="translate(1368.48 -658.27)"></path><path class="cls-2" d="M-1292.48,1005.53v0l-1.9-7.75a32.28,32.28,0,0,1-8-3.15l-6.7,4.4,0,0-9.56-9.23,0,0,4.14-6.82a32.69,32.69,0,0,1-3.43-7.88l-7.84-1.63v0L-1326,960h0l7.75-1.9a32.73,32.73,0,0,1,3.14-8l-4.39-6.7,0,0,9.23-9.56,0,0,6.82,4.13a32.66,32.66,0,0,1,7.88-3.42l1.63-7.85h0l13.29-.23v0l1.9,7.74a32.36,32.36,0,0,1,8,3.15l6.7-4.4,0,0,9.56,9.23,0,0-4.13,6.81a32.66,32.66,0,0,1,3.42,7.88l7.85,1.64v0L-1247,972h0l-7.75,1.9a32.33,32.33,0,0,1-3.14,8l4.39,6.71,0,0-9.23,9.55,0,0-6.82-4.13a32.42,32.42,0,0,1-7.87,3.42l-1.64,7.85h0Zm-9.91-11h0a32.44,32.44,0,0,0,8,3.16h0v0l1.89,7.74,13.17-.24,1.63-7.83h0a32.54,32.54,0,0,0,7.91-3.44l0,0,0,0,6.81,4.13,9.15-9.48-4.39-6.68,0,0a32.57,32.57,0,0,0,3.15-8v0h0l7.74-1.9-.23-13.16-7.83-1.63v0a32.16,32.16,0,0,0-3.44-7.91v0l4.13-6.81-9.47-9.15-6.69,4.38h0a32.51,32.51,0,0,0-8-3.16h0v0l-1.9-7.74-13.17.23-1.63,7.83h0a32.27,32.27,0,0,0-7.9,3.43l0,0,0,0-6.81-4.13-9.14,9.48,4.38,6.69v0a32.13,32.13,0,0,0-3.16,8v0h0l-7.74,1.9.23,13.16,7.83,1.63v0a32.21,32.21,0,0,0,3.44,7.91l0,0,0,0-4.13,6.8,9.47,9.15Zm16.29-14.65a14.18,14.18,0,0,1-9.9-4,14.14,14.14,0,0,1-4.35-10,14.18,14.18,0,0,1,4-10.16,14.29,14.29,0,0,1,20.17-.35,14.13,14.13,0,0,1,4.35,10,14.15,14.15,0,0,1-4,10.15A14.22,14.22,0,0,1-1286.1,979.83Zm0-28.41h-.25a14.06,14.06,0,0,0-9.94,4.32,14,14,0,0,0-4,10.09,14.05,14.05,0,0,0,4.32,9.94,14.17,14.17,0,0,0,20-.36,14,14,0,0,0,4-10.08,14.05,14.05,0,0,0-4.32-9.94A14.05,14.05,0,0,0-1286.09,951.42Z" transform="translate(1368.48 -658.27)"></path><path class="cls-5" d="M-1296.32,955.71a10.68,10.68,0,0,1,2.65-2.33,14.2,14.2,0,0,1,9.27-2.19,14.38,14.38,0,0,1,6.3,2.24,14.66,14.66,0,0,1,5.1,5.74,14,14,0,0,1,1.29,4,14,14,0,0,1,.08,4.38,14.57,14.57,0,0,1-3.95,8.19,14.59,14.59,0,0,1-8.05,4.23,13.66,13.66,0,0,1-4.37.08,13.85,13.85,0,0,1-4-1.15,14.5,14.5,0,0,1-5.91-4.9,14.26,14.26,0,0,1-2.46-6.21,14.22,14.22,0,0,1,1.86-9.35,10.83,10.83,0,0,1,2.23-2.72,34.24,34.24,0,0,0-2,2.88,14.19,14.19,0,0,0-1.57,9.1,13.71,13.71,0,0,0,2.44,5.91,13.89,13.89,0,0,0,5.67,4.6,13.18,13.18,0,0,0,3.83,1.07,13.41,13.41,0,0,0,4.14-.09,13.9,13.9,0,0,0,7.6-4,13.86,13.86,0,0,0,3.74-7.73,13,13,0,0,0-.06-4.14,12.72,12.72,0,0,0-1.2-3.79,13.88,13.88,0,0,0-4.79-5.5,13.87,13.87,0,0,0-6-2.24,14.26,14.26,0,0,0-9,1.89C-1295.42,954.82-1296.25,955.78-1296.32,955.71Z" transform="translate(1368.48 -658.27)"></path><path class="cls-5" d="M-1303.38,938.06a3.75,3.75,0,0,1-.44-.23l-1.31-.76-5.16-3.05.16,0-9.15,9.59,0-.26,4.41,6.68.08.12-.07.12a32.59,32.59,0,0,0-3.11,8l0,.15-.16,0-7.77,1.93.22-.28c.09,4.17.17,8.59.27,13.24l-.26-.31,7.84,1.62.2,0,.06.2a32.28,32.28,0,0,0,3.42,7.83l.11.18-.11.18c-1.29,2.12-2.7,4.47-4.14,6.85l-.06-.45,9.54,9.19-.47,0,6.69-4.4.2-.13.2.12a32.77,32.77,0,0,0,7.94,3.12l.23,0,.06.23,1.91,7.78-.39-.3,13.24-.24-.38.32c.51-2.48,1.07-5.15,1.62-7.84l0-.24.24-.07a32.58,32.58,0,0,0,7.82-3.39h0l.22-.12.21.12c2.29,1.4,4.58,2.78,6.84,4.15l-.5.07,9.2-9.53,0,.5-4.38-6.7-.14-.2.12-.21a31.71,31.71,0,0,0,3.13-7.94l.06-.23.23,0,7.78-1.9-.3.38q-.11-6.78-.22-13.25l.3.36-7.84-1.64-.21,0-.06-.21a32.39,32.39,0,0,0-3.39-7.84l-.11-.19.11-.18,4.16-6.84,0,.42-9.51-9.22.39,0-6.71,4.37-.15.1-.15-.09a32.58,32.58,0,0,0-8-3.16l-.16,0,0-.15c-.68-2.83-1.29-5.38-1.88-7.79l.24.19-13.24.17.17-.14-1.68,7.83,0,.07-.07,0a32.69,32.69,0,0,0-6.06,2.33l-1.43.74a2.84,2.84,0,0,1-.47.24l.44-.3c.3-.19.76-.46,1.4-.8a31.12,31.12,0,0,1,6-2.47l-.09.1,1.58-7.85,0-.14h.15l13.24-.29h.2l0,.19c.6,2.4,1.23,5,1.93,7.77l-.19-.2a32.55,32.55,0,0,1,8.11,3.17h-.3l6.68-4.4.21-.14.18.17,9.55,9.19.2.18-.14.24c-1.35,2.22-2.72,4.5-4.14,6.85V949a32.9,32.9,0,0,1,3.49,8l-.28-.26,7.84,1.62.3.06v.3q.12,6.46.25,13.25v.31l-.31.07-7.77,1.91.29-.29a32.75,32.75,0,0,1-3.2,8.14v-.41l4.39,6.69.17.27-.22.23-9.2,9.53-.22.24-.28-.17-6.85-4.15h.42a32.51,32.51,0,0,1-8,3.48l.29-.3c-.56,2.69-1.12,5.36-1.63,7.84l-.07.31h-.32l-13.25.22h-.32l-.07-.31c-.66-2.68-1.31-5.34-1.9-7.78l.28.29a32.83,32.83,0,0,1-8.13-3.21h.41l-6.7,4.38-.26.17-.22-.21-9.51-9.22-.21-.2.15-.25,4.16-6.83v.36a32.85,32.85,0,0,1-3.47-8l.26.24-7.84-1.65-.25,0v-.26q-.11-7-.2-13.24v-.24l.22-.05,7.79-1.89-.2.2a33.16,33.16,0,0,1,3.21-8.09v.25l-4.36-6.71-.09-.14.12-.12,9.25-9.48.08-.07.08,0,5,3.14,1.3.82Z" transform="translate(1368.48 -658.27)"></path><path class="cls-3" d="M-1013.49,898.77a145.15,145.15,0,0,1,31.87-22.08l.33-36,58.13-12.59L-908,860.73a145.78,145.78,0,0,1,38.15,6.9l25.65-25.17,50,32.2-12.29,33.76a145.55,145.55,0,0,1,22.08,31.88l35.94.33,12.6,58.13L-768.42,1014a145.8,145.8,0,0,1-6.91,38.14l25.17,25.65-32.19,50-33.76-12.3A145.44,145.44,0,0,1-848,1137.53l-.34,36-58.12,12.59-15.19-32.58a145.78,145.78,0,0,1-38.15-6.9l-25.65,25.17-50-32.2,12.29-33.76a145.72,145.72,0,0,1-22.08-31.87l-35.94-.34-12.6-58.12,32.58-15.2a145.88,145.88,0,0,1,6.91-38.15l-25.17-25.64,32.19-50,33.77,12.3ZM-981,964.48a78.75,78.75,0,0,0,23.59,108.85,78.75,78.75,0,0,0,108.86-23.59,78.76,78.76,0,0,0-23.59-108.85A78.75,78.75,0,0,0-981,964.48Z" transform="translate(1368.48 -658.27)"></path><path class="cls-6" d="M-1013.49,898.77a145.15,145.15,0,0,1,31.87-22.08l.33-36,58.13-12.59L-908,860.73a145.78,145.78,0,0,1,38.15,6.9l25.65-25.17,50,32.2-12.29,33.76a145.55,145.55,0,0,1,22.08,31.88l35.94.33,12.6,58.13L-768.42,1014a145.8,145.8,0,0,1-6.91,38.14l25.17,25.65-32.19,50-33.76-12.3A145.44,145.44,0,0,1-848,1137.53l-.34,36-58.12,12.59-15.19-32.58a145.78,145.78,0,0,1-38.15-6.9l-25.65,25.17-50-32.2,12.29-33.76a145.72,145.72,0,0,1-22.08-31.87l-35.94-.34-12.6-58.12,32.58-15.2a145.88,145.88,0,0,1,6.91-38.15l-25.17-25.64,32.19-50,33.77,12.3ZM-981,964.48a78.75,78.75,0,0,0,23.59,108.85,78.75,78.75,0,0,0,108.86-23.59,78.76,78.76,0,0,0-23.59-108.85A78.75,78.75,0,0,0-981,964.48Z" transform="translate(1368.48 -658.27)"></path><path class="cls-7" d="M-981,964.48s.22-.37.7-1.07l2.15-3.08c.47-.68,1-1.43,1.59-2.26s1.39-1.62,2.17-2.54l2.56-2.94c.88-1.08,2.06-2,3.17-3.1A74.92,74.92,0,0,1-950,936.42a78.76,78.76,0,0,1,29-8.11l4.25-.31c1.44,0,2.9.06,4.37.08s3,0,4.45.2l4.53.55,2.29.29,2.28.51,4.63,1c1.55.4,3.05,1,4.6,1.46a42,42,0,0,1,4.63,1.67,74,74,0,0,1,9.05,4.42c1.47.88,3,1.66,4.46,2.62l4.27,3.06c.7.52,1.45,1,2.13,1.57l2,1.77c1.32,1.19,2.72,2.34,4,3.6a85,85,0,0,1,7.22,8.31,83,83,0,0,1,6.24,9.41c.92,1.67,1.7,3.42,2.57,5.14.4.88.89,1.72,1.22,2.63l1,2.73a89.43,89.43,0,0,1,3.43,11.29,87.28,87.28,0,0,1,1.57,11.93l.22,3-.07,3.05-.08,3.07a19.86,19.86,0,0,1-.22,3.08q-.37,3.06-.76,6.16c-.45,2-.91,4.06-1.36,6.1a84.68,84.68,0,0,1-10.1,23.25,84.66,84.66,0,0,1-17,18.82l-5,3.77-5.3,3.25-1.32.79-1.38.68-2.77,1.34-2.75,1.33-2.86,1.06a89,89,0,0,1-11.51,3.51,88.69,88.69,0,0,1-11.7,1.55l-2.9.2c-1,.07-1.94,0-2.9,0-1.93-.07-3.85,0-5.75-.2a83.32,83.32,0,0,1-11.15-1.79,83.42,83.42,0,0,1-10.55-3.13c-1.69-.66-3.31-1.46-4.95-2.17l-2.44-1.1c-.8-.38-1.54-.86-2.32-1.29l-4.54-2.62c-1.47-.92-2.83-2-4.23-3a73.94,73.94,0,0,1-7.78-6.42,40.52,40.52,0,0,1-3.43-3.51c-1.08-1.21-2.24-2.35-3.23-3.59s-1.92-2.54-2.86-3.79l-1.41-1.86-1.21-2q-1.2-2-2.38-3.89c-.81-1.27-1.35-2.67-2-4s-1.3-2.62-1.88-3.94-1-2.68-1.48-4a78.39,78.39,0,0,1-4.62-29.77,75,75,0,0,1,4.17-22.39,43.66,43.66,0,0,1,1.51-4.17c.58-1.26,1.12-2.45,1.62-3.55s.93-2.12,1.41-3l1.4-2.39,1.91-3.23c.44-.72.68-1.07.68-1.07s-.18.39-.59,1.13l-1.82,3.27c-.41.72-.86,1.53-1.35,2.41s-.87,1.94-1.36,3-1,2.29-1.56,3.55a41.27,41.27,0,0,0-1.46,4.17,75,75,0,0,0-4,22.28,78.39,78.39,0,0,0,4.73,29.5l1.49,4c.57,1.3,1.24,2.58,1.87,3.89s1.21,2.68,2,3.93l2.36,3.84,1.21,2,1.4,1.84,2.84,3.74c1,1.23,2.14,2.34,3.21,3.54a39.73,39.73,0,0,0,3.41,3.46,72.24,72.24,0,0,0,7.7,6.33c1.39,1,2.73,2,4.19,2.93l4.5,2.58c.77.42,1.5.9,2.29,1.27l2.42,1.08c1.62.7,3.22,1.48,4.89,2.13a81.14,81.14,0,0,0,10.44,3.07,81,81,0,0,0,11,1.76c1.88.14,3.77.12,5.68.19,1,0,1.9.09,2.86,0l2.87-.2a89.85,89.85,0,0,0,11.55-1.54,90,90,0,0,0,11.36-3.48l2.82-1,2.72-1.31,2.72-1.33,1.37-.67,1.3-.79,5.22-3.2,4.93-3.73A83.68,83.68,0,0,0-849,1049.45a83.33,83.33,0,0,0,10-22.94c.45-2,.91-4,1.35-6,.26-2,.51-4.06.76-6.08a20.59,20.59,0,0,0,.22-3l.08-3,.07-3-.21-3a88.45,88.45,0,0,0-1.54-11.78,89.35,89.35,0,0,0-3.38-11.15l-1-2.69c-.33-.9-.81-1.73-1.21-2.6-.85-1.7-1.62-3.44-2.52-5.09a80.41,80.41,0,0,0-6.16-9.29,83,83,0,0,0-7.11-8.23c-1.28-1.25-2.66-2.39-4-3.57l-2-1.75c-.66-.57-1.41-1-2.1-1.56l-4.22-3c-1.42-1-2.94-1.73-4.39-2.6a74.09,74.09,0,0,0-8.95-4.4,40.31,40.31,0,0,0-4.57-1.66c-1.53-.49-3-1.07-4.55-1.46l-4.57-1-2.26-.51-2.27-.3-4.48-.56c-1.47-.22-3-.13-4.41-.21s-2.89-.11-4.32-.09l-4.21.28A78.46,78.46,0,0,0-949.77,937a74.75,74.75,0,0,0-18.64,12.84,42.79,42.79,0,0,0-3.19,3.05c-.92,1-1.78,2-2.59,2.89s-1.56,1.71-2.2,2.5-1.14,1.56-1.62,2.22l-2.23,3C-980.75,964.14-981,964.48-981,964.48Z" transform="translate(1368.48 -658.27)"></path><path class="cls-7" d="M-1013.49,898.77s-.73-.24-2.17-.75l-6.44-2.3-25.22-9.09.2-.07-32.11,50.06,0-.33c7.63,7.76,16.11,16.39,25.2,25.62l.12.13,0,.18a145.74,145.74,0,0,0-6.85,38.07v.21l-.19.08-32.57,15.22.21-.41c4,18.29,8.19,37.72,12.63,58.11l-.4-.32,36,.32h.26l.12.23a145.88,145.88,0,0,0,22,31.77l.19.2-.1.26c-3.8,10.46-8,22-12.28,33.76l-.18-.55,50,32.18-.61.06,25.64-25.18.22-.21.28.1a146.35,146.35,0,0,0,38,6.87h.31l.13.28c4.76,10.2,9.95,21.33,15.19,32.58l-.57-.29,58.12-12.6-.4.5c.1-11.35.22-23.6.33-35.94v-.32l.28-.14a146.18,146.18,0,0,0,31.74-22l0,0,.23-.21.3.11,33.76,12.29-.62.21,32.2-50,.06.64-25.16-25.65-.22-.22.1-.29a145.29,145.29,0,0,0,6.88-38l0-.3.27-.13L-736,998.31l-.28.55q-6.43-29.76-12.58-58.13l.47.38-35.95-.35h-.28l-.13-.25a145.13,145.13,0,0,0-22-31.79l-.19-.2.1-.26,12.31-33.75.17.51-50-32.22.5-.06-25.67,25.16-.16.16-.21-.07A145.7,145.7,0,0,0-908,861.07h-.21l-.08-.19c-5.51-11.85-10.47-22.52-15.16-32.59l.34.17L-981.24,841l.19-.23c-.16,14.4-.29,26.18-.4,36v.1l-.09.05a146.63,146.63,0,0,0-24.57,15.76c-2.54,2-4.35,3.57-5.56,4.6s-1.81,1.57-1.81,1.57,2.24-2.24,7.26-6.31a144.9,144.9,0,0,1,24.53-15.92l-.09.15c.07-9.77.16-21.55.27-36v-.19l.19,0,58.1-12.66.24-.06.11.23c4.7,10.06,9.68,20.72,15.22,32.56l-.3-.19a146.27,146.27,0,0,1,38.26,6.89l-.38.08,25.63-25.18.22-.23.27.17,50,32.17.29.19-.12.33L-806,908.57l-.09-.46a146,146,0,0,1,22.16,32l-.41-.25,36,.32h.38l.08.37q6.15,28.35,12.61,58.12l.09.39-.36.17-32.58,15.19.29-.43a146.09,146.09,0,0,1-6.92,38.28l-.12-.51,25.17,25.64.29.3-.23.34-32.18,50-.23.35-.39-.14-33.76-12.3.53-.1,0,0a146.26,146.26,0,0,1-32,22.13l.28-.45c-.12,12.34-.23,24.59-.34,35.94v.42l-.41.09-58.12,12.58-.4.09-.17-.37-15.19-32.59.44.29a146.94,146.94,0,0,1-38.28-6.93l.5-.12-25.66,25.16-.27.28-.33-.21-50-32.22-.32-.2.13-.35c4.29-11.75,8.49-23.29,12.31-33.75l.09.45a146.67,146.67,0,0,1-22.13-32l.38.24-36-.36h-.33l-.06-.32c-4.41-20.41-8.61-39.83-12.56-58.14l-.06-.29.27-.12,32.59-15.17-.2.3a146.78,146.78,0,0,1,7-38.23l.07.31-25.14-25.68-.15-.15.12-.18,32.27-50,.07-.11.13.05,25.09,9.23,6.44,2.38C-1014.23,898.47-1013.49,898.77-1013.49,898.77Z" transform="translate(1368.48 -658.27)"></path><polygon class="cls-1" points="621.88 543.08 506.1 617.06 885.65 617.06 885.65 543.08 621.88 543.08"></polygon><polygon class="cls-1" points="835.96 497.39 835.96 504.84 835.96 662.75 943.73 580.07 835.96 497.39"></polygon><path class="cls-7" d="M-673.44,1235h3.12v11h6.77v2.55h-9.89Z" transform="translate(1368.48 -658.27)"></path><path class="cls-7" d="M-652.8,1245.65h-6.26l-1.2,2.89h-3.2l6-13.5h3.08l6,13.5h-3.28Zm-1-2.38-2.14-5.16-2.14,5.16Z" transform="translate(1368.48 -658.27)"></path><path class="cls-7" d="M-647.33,1242.6V1235h3.13v7.44c0,2.57,1.12,3.63,3,3.63s3-1.06,3-3.63V1235h3.09v7.56c0,4-2.28,6.17-6.11,6.17S-647.33,1246.57-647.33,1242.6Z" transform="translate(1368.48 -658.27)"></path><path class="cls-7" d="M-619.64,1235v13.5h-2.56l-6.73-8.2v8.2H-632V1235h2.58l6.71,8.19V1235Z" transform="translate(1368.48 -658.27)"></path><path class="cls-7" d="M-617.3,1241.79c0-4.07,3.13-7,7.34-7a7,7,0,0,1,5.55,2.39l-2,1.85a4.33,4.33,0,0,0-3.39-1.58,4.14,4.14,0,0,0-4.32,4.32,4.14,4.14,0,0,0,4.32,4.32,4.29,4.29,0,0,0,3.39-1.6l2,1.85a6.94,6.94,0,0,1-5.57,2.41C-614.17,1248.77-617.3,1245.86-617.3,1241.79Z" transform="translate(1368.48 -658.27)"></path><path class="cls-7" d="M-589.94,1235v13.5h-3.12V1243h-6.13v5.54h-3.12V1235h3.12v5.32h6.13V1235Z" transform="translate(1368.48 -658.27)"></path><path class="cls-8" d="M-1213.86,1016.71C-1202,1167.33-1075.6,1286.25-922,1286.25v-74c-120.65,0-218.81-98.16-218.81-218.81,0,0,3.3-38.18,5.6-49.68L-1208,930.09h0C-1210.68,943.15-1214.91,1003.42-1213.86,1016.71Z" transform="translate(1368.48 -658.27)"></path><path class="cls-7" d="M-1119.86,1143.83l-1.26,4.39.1.12,1.71,2.1,2.91-2.37,2,2.41-10.44,8.54-3.7-4.51c-2.28-2.79-2.26-5.72.08-7.64a4.4,4.4,0,0,1,5.06-.55l1.43-5.08Zm-6.62,9.2,1.61,2,3.64-3-1.61-2c-1.21-1.47-2.5-1.66-3.64-.73S-1127.68,1151.55-1126.48,1153Z" transform="translate(1368.48 -658.27)"></path><path class="cls-7" d="M-1131.44,1132.65l2-1.49,6.21,8.4-10.85,8-6.06-8.2,2-1.49,4.21,5.71,2.36-1.74-3.72-5,2-1.44,3.72,5,2.51-1.86Z" transform="translate(1368.48 -658.27)"></path><path class="cls-7" d="M-1149.08,1126.13l14.45-2.66,1.72,2.56-8,12.35-1.88-2.81,5.72-8.77-10.32,1.91Z" transform="translate(1368.48 -658.27)"></path><path class="cls-7" d="M-1149.8,1124.88l-1.65-2.65,11.46-7.15,1.65,2.65Z" transform="translate(1368.48 -658.27)"></path><path class="cls-7" d="M-1149,1104.66l2.17-1.26,5.24,9-11.67,6.78-5.12-8.83,2.17-1.25,3.56,6.13,2.53-1.47-3.14-5.42,2.1-1.22,3.14,5.42,2.71-1.56Z" transform="translate(1368.48 -658.27)"></path><path class="cls-7" d="M-1169.27,1089.57l14-2.19,1.52,3-6.78,6.8,9.52-1.42,1.51,3-10,10.08-1.48-2.88,7.07-7-9.89,1.47-1.31-2.57,7.11-7.09-9.94,1.54Z" transform="translate(1368.48 -658.27)"></path><polygon class="cls-1" points="278.73 267.18 133.29 227.29 180.35 340.81 278.73 267.18"></polygon><path class="cls-1" d="M-1126.82,922.65c30.73-83.72,111.25-143.6,205.49-143.6v-74c-126.59,0-234.67,80.75-275.44,193.44Z" transform="translate(1368.48 -658.27)"></path><path class="cls-7" d="M-1116.63,821.8l5.07-3.46c3.64-2.49,7.64-2,10,1.38s1.3,7.28-2.34,9.77L-1109,833Zm11.1,5.66c2.22-1.51,2.76-3.82,1.31-6s-3.81-2.47-6-1l-2.35,1.61,4.72,6.91Z" transform="translate(1368.48 -658.27)"></path><path class="cls-7" d="M-1088.65,816l1.41,2.07-8.63,5.89-7.61-11.15,8.43-5.75,1.41,2.07-5.86,4,1.65,2.42,5.18-3.53,1.37,2-5.18,3.53,1.76,2.58Z" transform="translate(1368.48 -658.27)"></path><path class="cls-7" d="M-1080.37,803c1.7,2.48.89,5.3-2.09,7.33l-2.24,1.53,2.09,3.08-2.57,1.76-7.61-11.15,4.82-3.29C-1085,800.2-1082.08,800.47-1080.37,803Zm-2.61,1.78c-.84-1.23-2.12-1.4-3.7-.32l-2.1,1.43,2.64,3.87,2.1-1.43C-1082.46,807.23-1082.15,806-1083,804.76Z" transform="translate(1368.48 -658.27)"></path><path class="cls-7" d="M-1081.3,797.68l2.58-1.76,6.17,9.05,5.59-3.82,1.44,2.11-8.17,5.57Z" transform="translate(1368.48 -658.27)"></path><path class="cls-7" d="M-1068.77,797.3c-2.26-3.31-1.36-7.52,2.16-9.93s7.77-1.72,10,1.61,1.34,7.53-2.17,9.92S-1066.51,800.62-1068.77,797.3Zm9.59-6.54a4.12,4.12,0,0,0-5.93-1.19,4.12,4.12,0,0,0-1.05,5.95,4.11,4.11,0,0,0,5.92,1.19A4.12,4.12,0,0,0-1059.18,790.76Z" transform="translate(1368.48 -658.27)"></path><path class="cls-7" d="M-1048.65,786l2.7,3.95-2.58,1.76-2.72-4-9.21-4.22,2.74-1.87,6.36,2.92-.41-7,2.54-1.73Z" transform="translate(1368.48 -658.27)"></path><polygon class="cls-9" points="488.83 175.03 392.48 69.64 515.42 0 488.83 175.03"></polygon><path class="cls-9" d="M-746.72,849.51a218.94,218.94,0,0,0-164.8-74.86v-74A292.9,292.9,0,0,1-691,800.82Z" transform="translate(1368.48 -658.27)"></path><path class="cls-7" d="M-830,750.1l-4-1.55.91-2.37,11,4.2-.91,2.38-4-1.55L-831,761.44l-2.92-1.12Z" transform="translate(1368.48 -658.27)"></path><path class="cls-7" d="M-814.75,765l-.89,2.35-9.76-3.74,4.82-12.61,9.53,3.65-.9,2.34-6.62-2.54-1,2.74,5.85,2.24-.87,2.27-5.85-2.24-1.12,2.91Z" transform="translate(1368.48 -658.27)"></path><path class="cls-7" d="M-813.84,766.59l1.83-1.81a7.93,7.93,0,0,0,3.66,2.9c1.73.67,2.65.36,2.94-.42.91-2.36-7-3.54-5.25-8.22.82-2.15,3.24-3.27,6.82-1.89a9,9,0,0,1,4,2.79l-1.75,1.87a7.66,7.66,0,0,0-3.11-2.33c-1.73-.66-2.65-.27-3,.52-.89,2.33,7.05,3.53,5.28,8.16-.81,2.11-3.24,3.24-6.85,1.86A9.61,9.61,0,0,1-813.84,766.59Z" transform="translate(1368.48 -658.27)"></path><path class="cls-7" d="M-795.49,763.32l-4-1.55.91-2.37,11,4.2-.91,2.38-4-1.55-3.91,10.23-2.92-1.11Z" transform="translate(1368.48 -658.27)"></path><path class="cls-8" d="M-651.88,1128.35l-67-31.4c13.64-29.11,26.16-71.06,26.16-103.49a216.51,216.51,0,0,0-23.47-98.71c-2.7-5.33-12.49-23.09-15.18-27.53l63.29-38.31c3.89,6.43,14.6,25.91,17.89,32.41a289.78,289.78,0,0,1,31.45,132.14C-618.73,1036.83-633.6,1089.34-651.88,1128.35Z" transform="translate(1368.48 -658.27)"></path><polygon class="cls-8" points="611.07 242.69 737.05 159.8 620.73 120.19 611.07 242.69"></polygon><path class="cls-7" d="M-662.89,914.67l1.67,5.9c1.2,4.25-.54,7.89-4.47,9s-7.32-1.08-8.52-5.32l-1.66-5.91Zm-8.89,8.72c.72,2.58,2.74,3.83,5.23,3.13s3.55-2.82,2.82-5.4l-.77-2.75-8.06,2.27Z" transform="translate(1368.48 -658.27)"></path><path class="cls-7" d="M-667,943.13l-2.44.55-2.3-10.18,13.15-3,2.25,9.94-2.44.55-1.57-6.92-2.85.65,1.37,6.11-2.36.53-1.38-6.1-3,.68Z" transform="translate(1368.48 -658.27)"></path><path class="cls-7" d="M-653.45,956.2l-14.3-3.38-.54-3,12.25-8.1.6,3.32-8.77,5.73,10.22,2.41Z" transform="translate(1368.48 -658.27)"></path><path class="cls-7" d="M-662.73,969.57l-2.49.33-1.4-10.34,13.37-1.81,1.36,10.1-2.48.33-1-7-2.9.39.84,6.2-2.4.33-.85-6.21-3.09.42Z" transform="translate(1368.48 -658.27)"></path><path class="cls-7" d="M-651.55,971l.29,3.11-10.89,1,.63,6.73-2.53.24-.93-9.84Z" transform="translate(1368.48 -658.27)"></path><path class="cls-7" d="M-657.23,982.26c4-.2,7.12,2.76,7.34,7s-2.56,7.53-6.59,7.74-7.12-2.78-7.34-7S-661.24,982.47-657.23,982.26Zm.59,11.59a4.11,4.11,0,0,0,4.09-4.44,4.11,4.11,0,0,0-4.52-4,4.12,4.12,0,0,0-4.1,4.43A4.12,4.12,0,0,0-656.64,993.85Z" transform="translate(1368.48 -658.27)"></path><path class="cls-7" d="M-654.56,1011.22c-3,0-4.88-2.24-4.89-5.84l0-2.72-3.71,0,0-3.12,13.5-.06,0,5.84C-649.67,1009-651.53,1011.21-654.56,1011.22Zm0-3.16c1.49,0,2.35-1,2.34-2.88v-2.54h-4.68v2.55C-656.9,1007.11-656,1008.07-654.57,1008.06Z" transform="translate(1368.48 -658.27)"></path><path class="cls-8" d="M-911.52,1286.25h-236.1v-74h236.1c68.73,0,132.13-31.37,173.94-86l58.78,44.94C-734.73,1244.3-819.55,1286.25-911.52,1286.25Z" transform="translate(1368.48 -658.27)"></path><polygon class="cls-8" points="593.51 449.45 719.04 533.02 710.04 410.47 593.51 449.45"></polygon><g class="cls-10"><path d="M-649.44,1191.29l-9-122.55-116.54,39,34.1,22.7a217.3,217.3,0,0,1-170.64,81.85h-236.1v74h236.1c91.8,0,176.48-41.81,232.41-114.71Z" transform="translate(1368.48 -658.27)"></path></g><path class="cls-7" d="M-776.75,1207c1.82,2.4,1.14,5.25-1.74,7.42l-2.18,1.64,2.25,3-2.5,1.88-8.12-10.79,4.67-3.51C-781.49,1204.4-778.57,1204.54-776.75,1207Zm-2.52,1.9c-.9-1.19-2.19-1.3-3.71-.15l-2,1.53,2.82,3.74,2-1.53C-778.64,1211.3-778.39,1210-779.27,1208.86Z" transform="translate(1368.48 -658.27)"></path><path class="cls-7" d="M-777.92,1201.71l2.49-1.88,6.59,8.75,5.4-4.07,1.54,2-7.9,5.94Z" transform="translate(1368.48 -658.27)"></path><path class="cls-7" d="M-755,1197.76l-5,3.77.78,3-2.56,1.93-3.31-14.4,2.46-1.86,12.94,7.15-2.62,2Zm-2.21-1.3-4.82-2.84,1.4,5.42Z" transform="translate(1368.48 -658.27)"></path><path class="cls-7" d="M-746.85,1178.31l8.12,10.78-2,1.54-10.3-2.49,4.93,6.54-2.46,1.86-8.12-10.78,2.06-1.56,10.29,2.51-4.93-6.55Z" transform="translate(1368.48 -658.27)"></path><polygon class="cls-9" points="201.21 508.31 201.21 673.67 307.6 590.99 201.21 508.31"></polygon><rect class="cls-9" y="553.99" width="220.87" height="73.98"></rect><path class="cls-7" d="M-1273.82,1246.75c0,3-2.26,4.88-5.87,4.88h-2.72v3.72h-3.12v-13.49h5.84C-1276.08,1241.86-1273.82,1243.73-1273.82,1246.75Zm-3.17,0c0-1.48-1-2.35-2.87-2.35h-2.55v4.69h2.55C-1277.95,1249.09-1277,1248.22-1277,1246.75Z" transform="translate(1368.48 -658.27)"></path><path class="cls-7" d="M-1271.61,1241.86h3.12v11h6.77v2.54h-9.89Z" transform="translate(1368.48 -658.27)"></path><path class="cls-7" d="M-1251,1252.46h-6.27l-1.2,2.89h-3.2l6-13.49h3.08l6,13.49h-3.28Zm-1-2.37-2.14-5.17-2.14,5.17Z" transform="translate(1368.48 -658.27)"></path><path class="cls-7" d="M-1232.71,1241.86v13.49h-2.56l-6.73-8.19v8.19h-3.09v-13.49h2.59l6.71,8.19v-8.19Z" transform="translate(1368.48 -658.27)"></path><path class="cls-3" d="M-637.3,977.7l-22-4.93a52.35,52.35,0,0,1-24,15.46,52.52,52.52,0,0,1-65.54-34.92A52.51,52.51,0,0,1-714,887.76a52.5,52.5,0,0,1,65.54,34.92,52.27,52.27,0,0,1-1.14,34v0Z" transform="translate(1368.48 -658.27)"></path><path class="cls-7" d="M-637.3,977.7l-12.1-21.2a.21.21,0,0,0-.27-.07s-.05,0-.07.06v0l.34.19a52.45,52.45,0,0,0,2.83-27.24,47,47,0,0,0-2-8.08c-.49-1.35-.95-2.73-1.5-4.11l-1.93-4a53.2,53.2,0,0,0-11.83-14.93,53.34,53.34,0,0,0-17.94-10.37,52.71,52.71,0,0,0-22-2.58,53.58,53.58,0,0,0-22.2,7.42,51.82,51.82,0,0,0-17.41,17.1,52.77,52.77,0,0,0-7.93,23.61A53.61,53.61,0,0,0-748,957.08a51.8,51.8,0,0,0,12.43,18.83,53.39,53.39,0,0,0,17.74,11.32,53.48,53.48,0,0,0,18.93,3.6,57,57,0,0,0,17-2.81,52.34,52.34,0,0,0,22.65-15.13l-.19.06,22.07,4.75-22-5.12a.2.2,0,0,0-.19.06A52.23,52.23,0,0,1-682,987.5a56.27,56.27,0,0,1-16.85,2.7,52.8,52.8,0,0,1-18.68-3.61A52.88,52.88,0,0,1-735,975.39a51.2,51.2,0,0,1-12.23-18.59,53.11,53.11,0,0,1-3.34-23.27,52.14,52.14,0,0,1,7.82-23.25,51.26,51.26,0,0,1,17.14-16.84,53,53,0,0,1,21.88-7.33A51.78,51.78,0,0,1-682,888.62a52.59,52.59,0,0,1,17.72,10.19,52.58,52.58,0,0,1,11.72,14.7c.65,1.35,1.29,2.69,1.93,4s1,2.72,1.5,4a47.9,47.9,0,0,1,2,8,52.31,52.31,0,0,1-2.65,27,.19.19,0,0,0,.11.25.2.2,0,0,0,.24-.07v0l-.33,0C-641.87,970-638,976.49-637.3,977.7Z" transform="translate(1368.48 -658.27)"></path><polygon class="cls-8" points="640.78 280.79 648.33 273.24 662.88 286.18 691.45 258.69 698.45 266.24 661.8 300.73 640.78 280.79"></polygon><path class="cls-7" d="M-606.82,971.82c-1.82-2.15-3.24-6-2.13-8.57-2.16-1.13-2.36-3-2.36-5.49a15,15,0,0,1,2.11-6.92c1.85-3.46,4.36-6.73,7.83-8.57s8-2,11.11.49c4.45-5.79,14.12-6.47,19.33-1.35a15.1,15.1,0,0,0,2.93,2.67c1.93,1.07,4.3.66,6.5.87a11.59,11.59,0,0,1,8.74,5.51,11.61,11.61,0,0,1,.69,10.3c3.17,2,4.87,5.73,5.22,9.44s-.45,7.43-1.26,11.06c-1,4.49-2.13,9.2-5.31,12.52a13,13,0,0,1-8.33,3.94,13.27,13.27,0,0,1-11.66-5.49" transform="translate(1368.48 -658.27)"></path><path class="cls-11" d="M-559.41,1048.26l-36-1.65c-.21-3.82,1.74-27.45,1.74-27.45s-13.6-2.12-13.77-15.72,2.19-44.84,2.19-44.84h0a47.27,47.27,0,0,1,47.51,6l2,1.55Z" transform="translate(1368.48 -658.27)"></path><path class="cls-12" d="M-593.68,1019a31.64,31.64,0,0,0,17.74-5s-4.2,9.79-17.77,8.57Z" transform="translate(1368.48 -658.27)"></path><path class="cls-11" d="M-557.39,980.21c.23-.1,9.34-2.76,9,6.54s-9.58,7.08-9.59,6.81S-557.39,980.21-557.39,980.21Z" transform="translate(1368.48 -658.27)"></path><path class="cls-12" d="M-555,990.13s.16.12.43.25a1.65,1.65,0,0,0,1.21.07c1-.33,1.87-1.86,2-3.54a5.3,5.3,0,0,0-.38-2.33,1.92,1.92,0,0,0-1.18-1.29.82.82,0,0,0-1,.42c-.14.25-.08.44-.13.45s-.2-.16-.11-.54a1,1,0,0,1,.39-.57,1.22,1.22,0,0,1,.9-.21,2.28,2.28,0,0,1,1.64,1.5,5.42,5.42,0,0,1,.48,2.61c-.12,1.87-1.13,3.59-2.49,3.94a1.75,1.75,0,0,1-1.47-.29C-555,990.36-555,990.15-555,990.13Z" transform="translate(1368.48 -658.27)"></path><path class="cls-7" d="M-602.24,979.92a1.94,1.94,0,0,0,1.87,2,1.85,1.85,0,0,0,2-1.75,1.93,1.93,0,0,0-1.87-2A1.85,1.85,0,0,0-602.24,979.92Z" transform="translate(1368.48 -658.27)"></path><path class="cls-7" d="M-602.67,977.73c.24.26,1.72-.83,3.81-.83s3.62,1.06,3.85.8-.14-.57-.81-1.06a5.38,5.38,0,0,0-3.08-.95,5.1,5.1,0,0,0-3,1C-602.57,977.16-602.79,977.62-602.67,977.73Z" transform="translate(1368.48 -658.27)"></path><path class="cls-7" d="M-581.77,980.41a1.94,1.94,0,0,0,1.87,2,1.87,1.87,0,0,0,2-1.75,2,2,0,0,0-1.88-2A1.85,1.85,0,0,0-581.77,980.41Z" transform="translate(1368.48 -658.27)"></path><path class="cls-7" d="M-582.12,978.12c.24.26,1.72-.83,3.81-.83s3.62,1.06,3.85.8-.14-.57-.81-1.06a5.38,5.38,0,0,0-3.08-.95,5.16,5.16,0,0,0-3,1C-582,977.55-582.24,978-582.12,978.12Z" transform="translate(1368.48 -658.27)"></path><path class="cls-7" d="M-589.7,993.63a13.35,13.35,0,0,0-3.4-.61c-.53-.06-1-.17-1.13-.53a2.75,2.75,0,0,1,.36-1.58c.5-1.29,1-2.65,1.58-4.07,2.19-5.78,3.78-10.54,3.54-10.63s-2.2,4.53-4.39,10.32l-1.51,4.09a3.08,3.08,0,0,0-.28,2.1,1.33,1.33,0,0,0,.88.78,3.49,3.49,0,0,0,.9.12A13.46,13.46,0,0,0-589.7,993.63Z" transform="translate(1368.48 -658.27)"></path><path class="cls-7" d="M-583.55,995.07c-.34,0-.35,2.25-2.29,3.86s-4.36,1.37-4.37,1.68c0,.14.53.44,1.56.47a5.64,5.64,0,0,0,3.65-1.27,5,5,0,0,0,1.77-3.24C-583.14,995.62-583.4,995.06-583.55,995.07Z" transform="translate(1368.48 -658.27)"></path><path class="cls-7" d="M-582.66,969.93c.21.57,2.3.3,4.75.6s4.44,1,4.76.45c.15-.24-.2-.78-1-1.33a7.9,7.9,0,0,0-3.53-1.23,8,8,0,0,0-3.71.43C-582.29,969.22-582.75,969.66-582.66,969.93Z" transform="translate(1368.48 -658.27)"></path><path class="cls-7" d="M-601.9,971.68c.37.48,1.81,0,3.54,0s3.2.32,3.54-.17c.15-.25-.09-.72-.73-1.17a4.9,4.9,0,0,0-2.87-.78,4.93,4.93,0,0,0-2.83,1C-601.86,971-602.06,971.45-601.9,971.68Z" transform="translate(1368.48 -658.27)"></path><path class="cls-7" d="M-555,965.5c-.18,4,.7,8.38,0,12.27-.11.59-1.63,2.16-1.77,2.74-.8,3.45-2.23,4.93-4.27,1.37-.79-1.37-1.3-5.17-1.61-6.71q-1.23-6.28-2.47-12.56a21.75,21.75,0,0,1-10.34,2.45c-3.58-.21-7.21-2-8.84-5.21a11.19,11.19,0,0,1-8,5.22,11.14,11.14,0,0,1-9-3,4.58,4.58,0,0,1-6.06,1.29,5.43,5.43,0,0,1-2.21-6c.93-3.32,4.49-5.12,7.8-6.09,12.93-3.81,27.24-.83,38.87,6a19.94,19.94,0,0,1,4.7,3.54c1.33,1.45,3.17,3.16,3.22,5.12" transform="translate(1368.48 -658.27)"></path><path class="cls-5" d="M-531.4,1096.05l13.91-37.82c-2.89-9.71-13.28-20.23-27.71-23-4.59-.88-9-2.54-14.44-2.77h0a28.39,28.39,0,0,1-34.67.43l-.5-.37c-1.39.16-3.24.34-5.55.62l-.45,0a33.93,33.93,0,0,0-15.92,6.34v0l-72.43,43.23-42.53-32.33-21.56,16.88s55.73,55.73,61.14,57.06c3.75.91,40.92-19.38,63.44-31.95-.91,13.49-6,88.49-5.71,98.75h103.5l.08-47.31,0-12.87Z" transform="translate(1368.48 -658.27)"></path><path class="cls-5" d="M-571.81,1140.35s50.41,22.21,55.23,23.27c16,3.51,30.7-9.9,28.36-22.53-1.22-6.57-29.58-84.55-29.58-84.55l-20.34,30.26,10.14,39.69-30.66-3.92Z" transform="translate(1368.48 -658.27)"></path><path class="cls-7" d="M-527.54,1159.73a4.1,4.1,0,0,0-.81-.46l-2.42-1.17-9-4.22-30.87-14.09.21.63c1.91-3.41,3.89-6.94,5.91-10.56,1.26-2.25,2.5-4.47,3.67-6.58l-.44.23,36.89,3.62,11,1,3,.23a4.85,4.85,0,0,0,1,0,4.33,4.33,0,0,0-1-.19l-2.95-.39-10.94-1.26-36.86-3.92-.3,0-.15.26c-1.17,2.11-2.41,4.33-3.67,6.58-2,3.62-4,7.16-5.9,10.57l-.24.44.45.2,31,13.79,9.15,4,2.48,1A3.73,3.73,0,0,0-527.54,1159.73Z" transform="translate(1368.48 -658.27)"></path><path class="cls-7" d="M-560.79,1121.28l4.32-21s-53.16-.69-52.57.25,5.61,48.17,5.61,48.17,37.38-1.42,36-1.29Z" transform="translate(1368.48 -658.27)"></path><path class="cls-11" d="M-556.64,1111.7h0a5,5,0,0,0-4.63,3.16c-.77,2-1.9,4.36-3.15,5-2.31,1.26-6.3,2.27-8.4,1.24s-10.51-8.6-12-7.75-2.73,2.73-1.26,4.41,9.24,6.72,7.77,8.4-17.86-5.71-20.38-5.06-4,2.2-2.52,3.21,12.6,5.22,13.24,6.69c0,0-16.82-4.42-17.45-3.36s-1.68,2.73,0,3.36,16.18,4.41,17.45,5a30.46,30.46,0,0,0,6.48,1.89,68.19,68.19,0,0,1,6.77,2.15,14.81,14.81,0,0,0,10.45-.28l1.71-.69a6.69,6.69,0,0,0,4.14-6.58l-.34-5.73,1.83-4.73Z" transform="translate(1368.48 -658.27)"></path><path class="cls-7" d="M-531.16,1126.32c-.29,0-.53-12.07-.53-27s.24-27,.53-27,.52,12.07.52,27S-530.87,1126.32-531.16,1126.32Z" transform="translate(1368.48 -658.27)"></path><path class="cls-7" d="M-627.29,1060.36a11.89,11.89,0,0,1,.07,2.49q-.07,2.72-.2,6.75c-.21,5.69-.57,13.55-1,22.23s-.94,16.54-1.34,22.22c-.21,2.68-.39,4.93-.53,6.73a11.68,11.68,0,0,1-.34,2.47,11.82,11.82,0,0,1-.07-2.48c0-1.81.12-4.07.2-6.75.21-5.69.57-13.56,1-22.25s1-16.54,1.35-22.22c.21-2.68.38-4.93.52-6.73A11.48,11.48,0,0,1-627.29,1060.36Z" transform="translate(1368.48 -658.27)"></path><path class="cls-3" d="M-532.16,1072.4c0,.28-21.08.52-47.08.52s-47.08-.24-47.08-.52,21.08-.53,47.08-.53S-532.16,1072.11-532.16,1072.4Z" transform="translate(1368.48 -658.27)"></path><path class="cls-3" d="M-532,1077.65c0,.29-21.4.52-47.79.52s-47.8-.23-47.8-.52,21.4-.52,47.8-.52S-532,1077.36-532,1077.65Z" transform="translate(1368.48 -658.27)"></path><path class="cls-3" d="M-531.19,1084.38c0,.29-21.08.52-47.07.52s-47.09-.23-47.09-.52,21.08-.52,47.09-.52S-531.19,1084.09-531.19,1084.38Z" transform="translate(1368.48 -658.27)"></path><path class="cls-7" d="M-538,1126.37c.26.16-2.51,5.17-5.82,11.4s-5.94,11.32-6.21,11.19,1.95-5.43,5.29-11.68S-538.24,1126.23-538,1126.37Z" transform="translate(1368.48 -658.27)"></path><path class="cls-7" d="M-532.19,1127.82c.25.12-2.11,5.42-5.69,11.61s-7,10.9-7.2,10.75,2.75-5.1,6.29-11.27S-532.46,1127.68-532.19,1127.82Z" transform="translate(1368.48 -658.27)"></path><path class="cls-7" d="M-720.34,1059.62c.25.25-4.44,4.68-10.41,9.89s-11,9.26-11.16,9,4.51-4.61,10.48-9.83c3-2.6,5.72-4.93,7.73-6.57A20.83,20.83,0,0,1-720.34,1059.62Z" transform="translate(1368.48 -658.27)"></path><path class="cls-7" d="M-715.39,1063.3c.2.23-4.55,4.66-10.55,10-3,2.65-5.75,5-7.78,6.68s-3.33,2.65-3.43,2.54,1-1.28,2.94-3.09,4.58-4.26,7.58-6.91,5.76-5,7.8-6.67S-715.49,1063.19-715.39,1063.3Z" transform="translate(1368.48 -658.27)"></path><path class="cls-13" d="M-611.87,1530l-.11-18.16,34-.41.44,26.56-2.11.16c-9.38.64-47.73,2.57-54,.74C-640.7,1536.81-611.87,1530-611.87,1530Z" transform="translate(1368.48 -658.27)"></path><g class="cls-14"><path d="M-589.87,1537.82a11.83,11.83,0,0,1,4.25-7.3,11.5,11.5,0,0,1,7.93-2.57l.12,9.51Z" transform="translate(1368.48 -658.27)"></path></g><g class="cls-14"><path d="M-625.95,1533.8s-10.09,3-8.81,4.7,40.12,1.16,57.23-.56l-.07-.76-45.29,1S-624,1533.86-625.95,1533.8Z" transform="translate(1368.48 -658.27)"></path></g><path class="cls-7" d="M-577.06,1537.16l-.59.07-1.67.12-6.18.34c-5.22.26-12.44.51-20.41.62s-15.19,0-20.42-.07l-6.18-.17-1.68-.08a2.27,2.27,0,0,1-.59-.06l.59,0h1.68l6.19,0c5.22,0,12.44.06,20.41,0s15.18-.32,20.4-.5l6.18-.21,1.68,0A2.72,2.72,0,0,1-577.06,1537.16Z" transform="translate(1368.48 -658.27)"></path><path class="cls-7" d="M-622.87,1538.67a14.35,14.35,0,0,0-1.19-2.93,13.61,13.61,0,0,0-2.14-2.34,4.52,4.52,0,0,1,2.48,2.12A4.58,4.58,0,0,1-622.87,1538.67Z" transform="translate(1368.48 -658.27)"></path><path class="cls-7" d="M-612.9,1533.45c-.1.07-.58-.51-1.09-1.29s-.84-1.45-.74-1.51.58.51,1.09,1.29S-612.81,1533.39-612.9,1533.45Z" transform="translate(1368.48 -658.27)"></path><path class="cls-7" d="M-610.17,1532c-.07.09-.61-.26-1.2-.78s-1-1-.94-1.1.61.27,1.21.79S-610.09,1531.88-610.17,1532Z" transform="translate(1368.48 -658.27)"></path><path class="cls-7" d="M-608.47,1528.73a4,4,0,0,1-1.77.25,4.16,4.16,0,0,1-1.78-.16,3.85,3.85,0,0,1,1.77-.25A4,4,0,0,1-608.47,1528.73Z" transform="translate(1368.48 -658.27)"></path><path class="cls-7" d="M-607.9,1526.46a3.47,3.47,0,0,1-2,.6,3.37,3.37,0,0,1-2-.25,12.06,12.06,0,0,1,2-.16A11.59,11.59,0,0,1-607.9,1526.46Z" transform="translate(1368.48 -658.27)"></path><path class="cls-7" d="M-614.09,1530.5a6.28,6.28,0,0,1-2.19,0,13.75,13.75,0,0,1-2.33-.49,5.82,5.82,0,0,1-1.34-.53,1.17,1.17,0,0,1-.55-.67.88.88,0,0,1,.32-.88,4,4,0,0,1,5,1.11,3.76,3.76,0,0,1,.73,1.45,1.22,1.22,0,0,1,.07.59,6.27,6.27,0,0,0-1-1.85,4,4,0,0,0-1.89-1.19,3.37,3.37,0,0,0-2.6.21c-.34.26-.2.67.19.89a6.64,6.64,0,0,0,1.23.51,16.08,16.08,0,0,0,2.26.56C-614.93,1530.44-614.09,1530.43-614.09,1530.5Z" transform="translate(1368.48 -658.27)"></path><path class="cls-7" d="M-614.66,1530.62a2.18,2.18,0,0,1-.27-1.52,3.64,3.64,0,0,1,.58-1.6,2.19,2.19,0,0,1,1.8-1.14.87.87,0,0,1,.69,1,2.33,2.33,0,0,1-.36,1,7,7,0,0,1-1,1.34,3.19,3.19,0,0,1-1.24.9s.43-.4,1-1.1a7.21,7.21,0,0,0,.9-1.32c.29-.47.49-1.3-.06-1.39s-1.1.5-1.43.94a3.6,3.6,0,0,0-.6,1.43A7.51,7.51,0,0,0-614.66,1530.62Z" transform="translate(1368.48 -658.27)"></path><path class="cls-7" d="M-577.87,1527.86c0,.07-1-.08-2.52.12a11,11,0,0,0-5.45,2.33,10.92,10.92,0,0,0-3.36,4.88c-.5,1.47-.54,2.45-.62,2.44a2.19,2.19,0,0,1,0-.69,9.19,9.19,0,0,1,.35-1.84,10.51,10.51,0,0,1,3.38-5.11,10.54,10.54,0,0,1,5.68-2.3,8.56,8.56,0,0,1,1.87,0A1.94,1.94,0,0,1-577.87,1527.86Z" transform="translate(1368.48 -658.27)"></path><path class="cls-7" d="M-581.58,1513.75a58.83,58.83,0,0,1,.38,7,61.11,61.11,0,0,1,0,7,57.27,57.27,0,0,1-.39-7A59.62,59.62,0,0,1-581.58,1513.75Z" transform="translate(1368.48 -658.27)"></path><path class="cls-7" d="M-594.19,1534.56a19.12,19.12,0,0,1-5,.56,19.31,19.31,0,0,1-5-.34c0-.12,2.23,0,5-.07S-594.2,1534.44-594.19,1534.56Z" transform="translate(1368.48 -658.27)"></path><path class="cls-7" d="M-587.52,1534.47c.08.08-.18.47-.4,1s-.34,1-.46,1-.18-.53.08-1.12S-587.6,1534.39-587.52,1534.47Z" transform="translate(1368.48 -658.27)"></path><path class="cls-7" d="M-585,1531.31c.08.08-.13.44-.48.8s-.7.59-.78.51.13-.44.48-.8S-585.13,1531.23-585,1531.31Z" transform="translate(1368.48 -658.27)"></path><path class="cls-7" d="M-581.47,1529.84c0,.11-.48.11-1,.3s-.85.45-.94.37.19-.55.81-.76S-581.44,1529.73-581.47,1529.84Z" transform="translate(1368.48 -658.27)"></path><path class="cls-7" d="M-578.92,1529.13c0,.1-.15.28-.44.39s-.54.12-.58,0,.15-.28.43-.4S-579,1529-578.92,1529.13Z" transform="translate(1368.48 -658.27)"></path><path class="cls-13" d="M-508.54,1518.4l3.24,13.62s22.27,28.92,29.13,27.51c4.5-.93-1-8.47-9.5-30.44l-1.77-9.08Z" transform="translate(1368.48 -658.27)"></path><path class="cls-7" d="M-475.26,1555.26a3,3,0,0,1-1.19,1.14,4.14,4.14,0,0,1-4.26-.6,122.22,122.22,0,0,1-11.08-10.5c-4.13-4.33-7.59-8.49-10-11.55l-2.84-3.67-.77-1a2,2,0,0,0-.29-.33,1.55,1.55,0,0,0,.22.38l.71,1c.63.9,1.56,2.19,2.75,3.75a142.24,142.24,0,0,0,10,11.66A108.76,108.76,0,0,0-480.87,1556a5.29,5.29,0,0,0,2.52.92,3.52,3.52,0,0,0,2-.43,2.36,2.36,0,0,0,.94-.87A1.12,1.12,0,0,0-475.26,1555.26Z" transform="translate(1368.48 -658.27)"></path><path class="cls-7" d="M-478.41,1546a3.55,3.55,0,0,0-1.83-.2,9.44,9.44,0,0,0-4.2,1.46,7.55,7.55,0,0,0-3.05,3.22,3.91,3.91,0,0,0-.48,1.78c.07,0,.21-.68.73-1.65a8.11,8.11,0,0,1,3-3,10.45,10.45,0,0,1,4-1.52C-479.12,1545.89-478.42,1546-478.41,1546Z" transform="translate(1368.48 -658.27)"></path><path class="cls-7" d="M-499.5,1539.17a1.92,1.92,0,0,0,.27-.65,11.34,11.34,0,0,0,.44-1.87,10.14,10.14,0,0,0-1-6.19,9.5,9.5,0,0,0-4.5-4.37,7.2,7.2,0,0,0-1.84-.57,1.71,1.71,0,0,0-.7,0,15.63,15.63,0,0,1,2.42.86,9.82,9.82,0,0,1,4.26,4.3,10.5,10.5,0,0,1,1.12,6C-499.25,1538.2-499.57,1539.15-499.5,1539.17Z" transform="translate(1368.48 -658.27)"></path><path class="cls-7" d="M-507.13,1520.71c-.09,0,.41,1.94.82,4.35a15.16,15.16,0,0,0,1.16,4.28c.09,0-.36-1.94-.76-4.36A14.52,14.52,0,0,0-507.13,1520.71Z" transform="translate(1368.48 -658.27)"></path><path class="cls-7" d="M-485.27,1531a5.08,5.08,0,0,0-2.86,0,5.16,5.16,0,0,0-2.58,1.22c.06.11,1.18-.49,2.67-.83S-485.28,1531.13-485.27,1531Z" transform="translate(1368.48 -658.27)"></path><path class="cls-7" d="M-484.81,1533.34a3.53,3.53,0,0,0-2.41-.09,3.52,3.52,0,0,0-2.11,1.16c.07.1,1-.48,2.2-.77S-484.83,1533.46-484.81,1533.34Z" transform="translate(1368.48 -658.27)"></path><path class="cls-7" d="M-483,1536.27a2.94,2.94,0,0,0-2.49-.32,3,3,0,0,0-2.11,1.36,10.63,10.63,0,0,1,2.2-1A10,10,0,0,1-483,1536.27Z" transform="translate(1368.48 -658.27)"></path><path class="cls-7" d="M-486.8,1530c0-.07-1-.28-2.62-.89a20,20,0,0,1-2.69-1.29c-.48-.28-1-.6-1.48-.95s-1-.83-.93-1.36.68-.81,1.19-.68a3.18,3.18,0,0,1,1.37.91c.82.78,1.52,1.51,2.09,2.15,1.14,1.27,1.77,2.12,1.82,2.09a2.52,2.52,0,0,0-.38-.65c-.27-.4-.68-1-1.22-1.62a29.46,29.46,0,0,0-2.05-2.23,3.59,3.59,0,0,0-1.54-1,1.31,1.31,0,0,0-1.68,1,2.24,2.24,0,0,0,1.1,1.7c.52.36,1,.67,1.53,1a18,18,0,0,0,2.77,1.23,15,15,0,0,0,2,.54A2.75,2.75,0,0,0-486.8,1530Z" transform="translate(1368.48 -658.27)"></path><path class="cls-7" d="M-488,1529.75c.06,0,.15-1,.4-2.49a10.6,10.6,0,0,1,.76-2.57,5.67,5.67,0,0,1,.83-1.31c.34-.39.86-.72,1.28-.48s.47.86.41,1.36a6.19,6.19,0,0,1-.44,1.5,8.58,8.58,0,0,1-1.45,2.24c-1,1.14-1.84,1.69-1.79,1.75a1.85,1.85,0,0,0,.58-.35,9.47,9.47,0,0,0,1.42-1.21,8.23,8.23,0,0,0,1.58-2.28,6.5,6.5,0,0,0,.49-1.6,1.72,1.72,0,0,0-.61-1.76,1.47,1.47,0,0,0-1.76.56,6.15,6.15,0,0,0-.88,1.42,10.31,10.31,0,0,0-.7,2.69,17.57,17.57,0,0,0-.14,1.85A1.93,1.93,0,0,0-488,1529.75Z" transform="translate(1368.48 -658.27)"></path><g class="cls-14"><path d="M-505.3,1532l-1.57-6.54s5.46,1,6.87,5.09a17,17,0,0,1,1.06,7l11.87,12.77s3-5.81,8.36-4.41c0,0,4.24,9.32,4.11,11.66-.14,2.57-2.85,2.05-3.81,1.62a48,48,0,0,1-10.62-8.38C-495.32,1544.29-502.26,1536-505.3,1532Z" transform="translate(1368.48 -658.27)"></path></g><polygon class="cls-7" points="733.66 523.91 749.87 866.75 794.38 867.81 790.88 570.54 857.47 868.37 893.22 866.75 835.94 524.6 733.66 523.91"></polygon><path class="cls-5" d="M-588.52,1186.8a35.77,35.77,0,0,0,.4,5.64c.37,3.47.94,8.25,1.63,13.53a55.9,55.9,0,0,0,1.24,7.45,10.51,10.51,0,0,0,3.26,5.32,8.13,8.13,0,0,0,3.78,1.86,3.08,3.08,0,0,0,1.54,0,10,10,0,0,1-4.88-2.38,10.13,10.13,0,0,1-2.87-5.06,66.06,66.06,0,0,1-1.14-7.34c-.69-5.28-1.37-10-1.9-13.49A33.07,33.07,0,0,0-588.52,1186.8Z" transform="translate(1368.48 -658.27)"></path><path class="cls-5" d="M-577.56,1188.85c-.12.08.29.64,0,1.53a1.8,1.8,0,0,1-.93,1.1,1.45,1.45,0,0,1-1.57-.37,1.47,1.47,0,0,1-.45-1.54,1.79,1.79,0,0,1,1-1c.87-.33,1.46.05,1.53-.07s-.46-.79-1.71-.56a2.35,2.35,0,0,0-1.67,1.29,2.29,2.29,0,0,0,.61,2.55,2.27,2.27,0,0,0,2.58.47,2.34,2.34,0,0,0,1.2-1.74C-576.75,1189.26-577.52,1188.73-577.56,1188.85Z" transform="translate(1368.48 -658.27)"></path><path class="cls-5" d="M-549.31,1194.75c.22.09,1.07-2,.87-4.83s-1.32-4.77-1.54-4.66.44,2.14.61,4.73S-549.58,1194.68-549.31,1194.75Z" transform="translate(1368.48 -658.27)"></path><path class="cls-5" d="M-555.67,1194.11c.24.08,1-2.13.95-5s-1-5-1.27-4.9.26,2.24.34,4.93S-555.93,1194.05-555.67,1194.11Z" transform="translate(1368.48 -658.27)"></path><path class="cls-5" d="M-610.42,1193.48c.26-.06-.08-2.33-.12-5.12s.23-5.08,0-5.13-.94,2.22-.89,5.14S-610.66,1193.55-610.42,1193.48Z" transform="translate(1368.48 -658.27)"></path><path class="cls-5" d="M-617.32,1192.85c.26-.1-.49-2.36-.57-5.23s.49-5.16.22-5.24-1.26,2.21-1.15,5.27S-617.53,1193-617.32,1192.85Z" transform="translate(1368.48 -658.27)"></path><polygon class="cls-13" points="810.35 373.68 810.35 373.68 810.35 373.68 810.35 373.68"></polygon><path class="cls-13" d="M-626.76,1044.59" transform="translate(1368.48 -658.27)"></path><path class="cls-11" d="M-734.42,1052.74s-8.22-13.9-10.16-15.36-19.19-7.45-20.65-7-22.17,4.38-19.75,6.8,16.87-.49,16.87-.49l2,.94s-12.48,2.21-15.09,3.77c-2.4,1.44-1.52,4.4.77,4.12s13.13-2.56,13.78-2.12-11.78,3.13-13.11,4c-1.79,1.09-1.92,4.31.36,4.11,1.34-.11,13.06-3.34,13.06-3.34s-9.27,3.75-10.12,4.58c-1.38,1.36-.23,3.37,1.78,2.89,1.38-.33,7.92-3.58,9.77-4,0,0,1.75.44,3.38,3.93s10.32,10.38,10.32,10.38Z" transform="translate(1368.48 -658.27)"></path><path class="cls-12" d="M-784.94,1037.28c0,.11,1.38.67,3.81,1a22.56,22.56,0,0,0,4.28.11c1.59-.21,3.32-.48,5.14-.76l3.86-.63-.23,0c5.15,1.74,8.93,2.87,9,2.66s-3.58-1.68-8.71-3.54l-.1,0-.13,0-3.84.58-5.08.83a27,27,0,0,1-4.14.1C-783.44,1037.45-784.9,1037.13-784.94,1037.28Z" transform="translate(1368.48 -658.27)"></path><path class="cls-11" d="M-739.67,1054.26c-1.25,1.2-3.33,1-4.83.08s-2.65-2.21-4.08-3.19c-4.28-2.9-10.35-2.1-14.48-5.2-.58-.44-1.15-1.15-.85-1.81s1.09-.69,1.76-.68l17.12.13" transform="translate(1368.48 -658.27)"></path><path class="cls-12" d="M-745,1043.59a6.7,6.7,0,0,0-1.85-.21c-1.19-.06-2.92-.13-5-.19l-7.48-.16-2.17,0a3.37,3.37,0,0,0-2.5.56,1.45,1.45,0,0,0-.26,1.6,2.91,2.91,0,0,0,.88,1.09,11.09,11.09,0,0,0,2.17,1.29c3.11,1.38,6.27,1.59,8.91,2.39a13,13,0,0,1,3.54,1.54c1,.66,1.85,1.47,2.71,2.13a6,6,0,0,0,4.84,1.63c1.26-.27,1.66-1,1.62-1a5,5,0,0,1-1.68.59,5.87,5.87,0,0,1-4.35-1.78c-.8-.67-1.62-1.52-2.69-2.27a13.31,13.31,0,0,0-3.73-1.73c-2.74-.88-5.89-1.13-8.76-2.42a10.28,10.28,0,0,1-2-1.15c-.56-.44-.84-1-.54-1.28s1.07-.3,1.8-.29h2.17l7.49,0c2.13,0,3.85-.07,5-.12A6.93,6.93,0,0,0-745,1043.59Z" transform="translate(1368.48 -658.27)"></path><path class="cls-8" d="M-1014.29,1395.61c15.71,5.49,36.21.59,49.66-9.23s23.12-23.88,31.69-38.15c3.66-6.09,7.23-12.44,8.39-19.45s-.55-14.89-6-19.46c-8.45-7.11-21.39-3.51-31,2-30,17.1-50.52,49.86-52.77,84.33" transform="translate(1368.48 -658.27)"></path><path class="cls-8" d="M-997.42,1433.23c9.44,12.45,25.66,18,41.26,18.72s31-3.6,45.62-9.19c5.29-2,11.09-4.82,12.9-10.19,1.38-4.06,0-8.7-2.76-12s-6.59-5.5-10.54-7.18c-14.36-6.12-30.81-6.4-45.91-2.49s-28.31,12.68-40.57,22.34" transform="translate(1368.48 -658.27)"></path><path class="cls-8" d="M-1014.52,1328.29c13,.26,22.86-11.14,28.75-22.74A84.28,84.28,0,0,0-978,1253c-1.19-6.65-3.7-13.82-9.65-17s-13.91-1.11-19,3.52-7.85,11.23-9.87,17.79c-7,22.59-5.48,48.56,2,71" transform="translate(1368.48 -658.27)"></path><path class="cls-8" d="M-1057.25,1400.24c22.18-37.75,25.87-83.94,12.77-125.72-2.12-6.77-6.13-14.53-13.22-15-7.85-.5-12.77,8.26-14.94,15.82-7.61,26.53-6,54.71-4.31,82.25,1,17,6.87,31.48,19.7,42.63" transform="translate(1368.48 -658.27)"></path><path class="cls-8" d="M-1080.32,1415.77a90.74,90.74,0,0,0-53.83-57.08c-5.89-2.22-13.38-3.48-17.77,1s-3,11.81-.22,17.33c4.47,8.91,11.72,16.07,18.94,23,6.57,6.25,13.4,12.53,21.71,16.16s23.57,4.56,31.17-.39" transform="translate(1368.48 -658.27)"></path><path class="cls-7" d="M-942.8,1318.78s-.12.14-.39.35l-1.19.93-4.65,3.47-3.37,2.49c-1.22.94-2.48,2-3.87,3.15-2.75,2.3-6,4.76-9.26,7.87-1.66,1.52-3.41,3.1-5.23,4.75s-3.55,3.54-5.43,5.4c-3.82,3.67-7.51,8-11.49,12.38a266.17,266.17,0,0,0-22.87,31.18,267.07,267.07,0,0,0-17.67,34.41c-2.18,5.54-4.36,10.76-5.94,15.82-.82,2.51-1.72,4.91-2.4,7.27s-1.3,4.63-1.91,6.8c-1.32,4.31-2.08,8.32-2.9,11.8-.39,1.74-.79,3.36-1.09,4.86s-.5,2.89-.72,4.13c-.43,2.42-.78,4.33-1,5.72-.12.6-.22,1.09-.29,1.48a2.22,2.22,0,0,1-.14.5,1.71,1.71,0,0,1,0-.52c0-.39.11-.89.19-1.49q.32-2.1.84-5.75l.63-4.16c.27-1.51.65-3.14,1-4.89.77-3.5,1.48-7.54,2.75-11.87.6-2.18,1.21-4.47,1.86-6.84s1.54-4.79,2.35-7.32c1.55-5.09,3.7-10.34,5.87-15.91a258.87,258.87,0,0,1,17.67-34.59,259.29,259.29,0,0,1,23-31.26c4-4.43,7.75-8.7,11.61-12.36,1.9-1.86,3.66-3.72,5.49-5.38l5.29-4.71c3.31-3.08,6.6-5.52,9.38-7.78,1.41-1.1,2.7-2.17,3.93-3.08l3.44-2.43,4.77-3.32,1.25-.84A2.82,2.82,0,0,1-942.8,1318.78Z" transform="translate(1368.48 -658.27)"></path><path class="cls-7" d="M-913.43,1423.43a7.75,7.75,0,0,1-1.52-.25c-1-.18-2.43-.57-4.32-.88a122.45,122.45,0,0,0-16.06-2,119.39,119.39,0,0,0-52.15,8.77,119.36,119.36,0,0,0-43,30.82,120.32,120.32,0,0,0-9.93,12.77c-1.11,1.57-1.85,2.86-2.42,3.69a7.51,7.51,0,0,1-.9,1.25,9.73,9.73,0,0,1,.72-1.36c.51-.87,1.2-2.2,2.26-3.8a108.88,108.88,0,0,1,9.71-13,117,117,0,0,1,43.15-31.3,117,117,0,0,1,52.6-8.54,108.35,108.35,0,0,1,16.09,2.3c1.89.38,3.31.83,4.29,1.07A9,9,0,0,1-913.43,1423.43Z" transform="translate(1368.48 -658.27)"></path><path class="cls-7" d="M-995.34,1251.05a4,4,0,0,1-.09.59c-.09.44-.21,1-.35,1.69l-1.46,6.5c-1.28,5.64-3.23,13.78-5.68,23.83-4.88,20.1-12,47.77-19.38,78.43-3.68,15.35-7,30-9.88,43.36s-5.21,25.45-7,35.63c-1,5.08-1.67,9.7-2.36,13.75s-1.23,7.54-1.65,10.4-.78,5-1,6.58c-.12.7-.22,1.26-.29,1.71a2.71,2.71,0,0,1-.14.57,2.19,2.19,0,0,1,0-.59c0-.44.11-1,.19-1.72.2-1.58.48-3.8.83-6.61s.83-6.37,1.48-10.43,1.29-8.69,2.21-13.79c1.69-10.2,4-22.3,6.78-35.69s6.12-28.06,9.8-43.41c7.4-30.68,14.62-58.32,19.68-78.37,2.52-10,4.57-18.06,6-23.74.7-2.75,1.26-4.91,1.65-6.45l.46-1.68A2.1,2.1,0,0,1-995.34,1251.05Z" transform="translate(1368.48 -658.27)"></path><path class="cls-7" d="M-1046.28,1471.06a1.4,1.4,0,0,1-.14-.46c-.08-.37-.19-.82-.31-1.36q-.4-1.93-1.09-5.26c-.94-4.56-2.19-11.19-3.61-19.41-2.84-16.42-6.22-39.23-8.29-64.6-1-12.69-1.56-24.8-1.81-35.83s-.09-21,.26-29.29c.1-4.17.37-7.93.56-11.24s.4-6.15.61-8.47.38-4,.5-5.34l.15-1.39a1.53,1.53,0,0,1,.09-.47,1.75,1.75,0,0,1,0,.48c0,.38,0,.83-.05,1.39-.08,1.32-.18,3.1-.3,5.36s-.33,5.17-.44,8.48-.35,7.06-.4,11.22c-.25,8.33-.27,18.24,0,29.25s.89,23.1,1.89,35.77c2.07,25.32,5.33,48.12,8,64.56,1.33,8.22,2.46,14.87,3.28,19.46l.9,5.29c.08.55.15,1,.2,1.38A1.35,1.35,0,0,1-1046.28,1471.06Z" transform="translate(1368.48 -658.27)"></path><path class="cls-7" d="M-1044.64,1475.85a8.29,8.29,0,0,1-.58-1.3c-.37-1-.85-2.23-1.46-3.8-.31-.84-.66-1.75-1-2.75s-.92-2-1.42-3.19-1.06-2.37-1.63-3.66-1.32-2.61-2-4l-2.26-4.4-2.7-4.64c-1.78-3.26-4.09-6.49-6.31-10a238.35,238.35,0,0,0-16.71-21.35,262.78,262.78,0,0,0-19.17-19.19c-3.19-2.69-6.11-5.38-9.06-7.63l-4.19-3.35-4-2.94c-2.51-1.91-4.88-3.5-7-4.9s-3.86-2.62-5.37-3.52L-1133,1373a8.65,8.65,0,0,1-1.17-.82,6.28,6.28,0,0,1,1.27.64l3.55,2c1.55.86,3.39,2,5.49,3.39s4.52,2.91,7.07,4.78l4,2.9,4.25,3.31c3,2.23,5.94,4.91,9.16,7.59A249.09,249.09,0,0,1-1080,1416a227.26,227.26,0,0,1,16.72,21.5c2.21,3.56,4.5,6.83,6.26,10.12.91,1.62,1.8,3.19,2.66,4.69s1.5,3,2.21,4.46,1.41,2.75,2,4.07l1.56,3.71q.73,1.74,1.35,3.24l1,2.79c.53,1.6,1,2.89,1.28,3.87A7,7,0,0,1-1044.64,1475.85Z" transform="translate(1368.48 -658.27)"></path><path class="cls-7" d="M-951,1362.57c0,.17-2.69.17-7,.41a129.82,129.82,0,0,0-16.75,2,129.73,129.73,0,0,0-16.32,4.26c-4.11,1.36-6.6,2.34-6.67,2.19a6.45,6.45,0,0,1,1.67-.91c1.09-.52,2.72-1.21,4.75-2A100.11,100.11,0,0,1-975,1364a100.42,100.42,0,0,1,16.91-1.73c2.18,0,3.94,0,5.15.1A6.61,6.61,0,0,1-951,1362.57Z" transform="translate(1368.48 -658.27)"></path><path class="cls-7" d="M-934.29,1444.3c-.32.16-2.83-7.07-9.13-13.77s-13.25-9.82-13.06-10.13a16.17,16.17,0,0,1,4.51,2,39.62,39.62,0,0,1,9.31,7.42,39.29,39.29,0,0,1,6.71,9.84C-934.65,1442.42-934.18,1444.26-934.29,1444.3Z" transform="translate(1368.48 -658.27)"></path><path class="cls-7" d="M-991.35,1281.7c.21.23-3.88,4.27-8.34,9.76s-7.62,10.28-7.88,10.12,2.54-5.24,7.07-10.78S-991.53,1281.5-991.35,1281.7Z" transform="translate(1368.48 -658.27)"></path><path class="cls-7" d="M-1004.76,1258.56c.29,0,1.19,3.87,2,8.75s1.28,8.88,1,8.93-1.18-3.87-2-8.75S-1005,1258.6-1004.76,1258.56Z" transform="translate(1368.48 -658.27)"></path><path class="cls-7" d="M-1046.25,1331.18c.25.14-2.65,6.25-6.49,13.67s-7.17,13.31-7.43,13.18,2.65-6.25,6.5-13.67S-1046.51,1331.05-1046.25,1331.18Z" transform="translate(1368.48 -658.27)"></path><path class="cls-7" d="M-1070.95,1306.53c.26-.13,2.72,4.29,5.5,9.88s4.83,10.22,4.57,10.35-2.72-4.3-5.5-9.88S-1071.21,1306.65-1070.95,1306.53Z" transform="translate(1368.48 -658.27)"></path><path class="cls-7" d="M-1107.25,1390.85c-.07.3-4.47-.56-10-.93s-10-.18-10-.48,4.48-1,10.07-.56S-1107.18,1390.59-1107.25,1390.85Z" transform="translate(1368.48 -658.27)"></path><path class="cls-7" d="M-1082.46,1465.4l12.35,64.94a9.11,9.11,0,0,0,8.94,7.41h36.48a9.1,9.1,0,0,0,9-7.62l10.74-64.73Z" transform="translate(1368.48 -658.27)"></path><polygon class="cls-1" points="290.04 828.24 359.8 828.24 363.51 807.13 286.02 807.13 290.04 828.24"></polygon><polygon class="cls-15" points="290.04 828.24 291.5 835.93 358.74 835.93 359.8 828.24 290.04 828.24"></polygon></g></svg>