<svg xmlns="http://www.w3.org/2000/svg" xmlns:xlink="http://www.w3.org/1999/xlink" id="OBJECTS" viewBox="0 0 1271.33 734.92"><defs><style>.cls-1{fill:#f7d406;}.cls-18,.cls-2,.cls-60,.cls-69,.cls-70{fill:none;}.cls-2,.cls-60{stroke:#fff;}.cls-2,.cls-69,.cls-70{stroke-miterlimit:10;}.cls-3{fill:#fff;}.cls-4{fill:#f7eecb;}.cls-5{fill:#cbdceb;}.cls-6{fill:#333;}.cls-7{fill:url(#linear-gradient);}.cls-8{fill:#615d6c;}.cls-9{fill:url(#linear-gradient-2);}.cls-10{fill:#4d4d4d;}.cls-11{fill:url(#linear-gradient-3);}.cls-12{isolation:isolate;}.cls-13{fill:#03608e;}.cls-14{fill:#1175af;}.cls-15{fill:#4096c1;}.cls-16{fill:#ec5e20;}.cls-17{fill:#ff5f55;}.cls-19{fill:url(#linear-gradient-4);}.cls-20{fill:url(#linear-gradient-5);}.cls-21{fill:url(#linear-gradient-6);}.cls-22{fill:#06608c;}.cls-23{fill:#3f92bc;}.cls-24{fill:#ff8d02;}.cls-25{fill:#ffc757;}.cls-26{fill:#ffe3ab;}.cls-27{fill:#ff9554;}.cls-28{fill:#e1e8f2;}.cls-29{fill:#171e26;}.cls-30{fill:#1f2f3f;}.cls-31{fill:#f9fbfc;}.cls-32{fill:#673e29;}.cls-33{fill:#a6d0f4;}.cls-34{fill:#113570;}.cls-35{fill:url(#linear-gradient-7);}.cls-36{fill:url(#linear-gradient-8);}.cls-37{fill:url(#linear-gradient-9);}.cls-38{fill:#535685;}.cls-39{fill:#696fa3;}.cls-40{fill:#7b81b3;}.cls-41{fill:#c7bfce;}.cls-42{fill:#113c7a;}.cls-43{fill:#ff7240;}.cls-44{fill:#cb6a50;}.cls-45{fill:#dbdbdb;}.cls-46{fill:#f58688;}.cls-47{fill:#f5a588;}.cls-48{fill:#cf7a68;}.cls-49{fill:#f5b99c;}.cls-50{fill:#e18b70;}.cls-51{fill:#d78c63;}.cls-52{fill:#ffc5a8;}.cls-53{fill:#bac0d2;}.cls-54{fill:#c7c9d7;}.cls-55{fill:#777db2;opacity:0.2;}.cls-56{fill:url(#linear-gradient-10);}.cls-57{fill:url(#linear-gradient-11);}.cls-58{fill:url(#linear-gradient-12);}.cls-59{fill:#f2f8fd;}.cls-60{stroke-linecap:round;stroke-linejoin:round;stroke-width:2px;stroke-dasharray:0 5;}.cls-61{fill:#bdc5cb;}.cls-62{fill:#eaf1f7;}.cls-63{fill:#4385ff;}.cls-64{fill:#94c3ff;}.cls-65{opacity:0.53;}.cls-66{fill:#dfdfdf;}.cls-67{fill:#1196c3;}.cls-68{fill:#ea5e7a;}.cls-69{stroke:#f9fbfc;}.cls-69,.cls-70{stroke-width:0.78px;}.cls-70{stroke:#c7d8f2;}.cls-71{fill:#f2f9ff;}.cls-72{fill:#e6f4ff;}.cls-73{fill:#aec4e1;}.cls-74{fill:#c7d8f2;}.cls-75{fill:#4b5cc0;}.cls-76{fill:#ff8161;}.cls-77{fill:#575973;}.cls-78{fill:#63687a;}.cls-79{opacity:0.41;}.cls-80{fill:#afe1f9;}.cls-81{fill:#f7dd59;}.cls-82{fill:#fbc93b;}</style><linearGradient id="linear-gradient" x1="-167.73" y1="1188.9" x2="-48.78" y2="1188.9" gradientUnits="userSpaceOnUse"><stop offset="0.16" stop-color="#443f54"></stop><stop offset="0.55" stop-color="#2a253a"></stop></linearGradient><linearGradient id="linear-gradient-2" x1="-114.44" y1="1158.41" x2="-102.81" y2="1158.41" gradientUnits="userSpaceOnUse"><stop offset="0.05" stop-color="#e5e5e5"></stop><stop offset="0.55" stop-color="#ccc"></stop></linearGradient><linearGradient id="linear-gradient-3" x1="-117.15" y1="1136.29" x2="-100.11" y2="1136.29" xlink:href="#linear-gradient"></linearGradient><linearGradient id="linear-gradient-4" x1="834.11" y1="787.5" x2="921.84" y2="787.5" xlink:href="#linear-gradient"></linearGradient><linearGradient id="linear-gradient-5" x1="873.41" y1="765.01" x2="881.99" y2="765.01" xlink:href="#linear-gradient-2"></linearGradient><linearGradient id="linear-gradient-6" x1="871.41" y1="748.7" x2="883.98" y2="748.7" xlink:href="#linear-gradient"></linearGradient><linearGradient id="linear-gradient-7" x1="576.24" y1="1018.87" x2="626.26" y2="1018.87" xlink:href="#linear-gradient"></linearGradient><linearGradient id="linear-gradient-8" x1="598.65" y1="1006.05" x2="603.54" y2="1006.05" xlink:href="#linear-gradient-2"></linearGradient><linearGradient id="linear-gradient-9" x1="597.51" y1="996.75" x2="604.67" y2="996.75" xlink:href="#linear-gradient"></linearGradient><linearGradient id="linear-gradient-10" x1="457.44" y1="1086.13" x2="507.46" y2="1086.13" xlink:href="#linear-gradient"></linearGradient><linearGradient id="linear-gradient-11" x1="479.85" y1="1073.31" x2="484.74" y2="1073.31" xlink:href="#linear-gradient-2"></linearGradient><linearGradient id="linear-gradient-12" x1="478.71" y1="1064.01" x2="485.88" y2="1064.01" xlink:href="#linear-gradient"></linearGradient></defs><path class="cls-1" d="M958.41,965.84c17.37,10,17.46,26.29.2,36.32l-81,47.08c-17.26,10-45.33,10-62.7,0l-81.55-47.08c-17.37-10-17.46-26.29-.2-36.32l81-47.08c17.26-10,45.33-10,62.7,0Z" transform="translate(265.03 -589.89)"></path><path class="cls-1" d="M293,1014.92c17.37,10,17.46,26.29.2,36.32l-81,47.08c-17.25,10-45.32,10-62.7,0l-81.54-47.08c-17.37-10-17.46-26.29-.21-36.32l81-47.08c17.26-10,45.33-10,62.7,0Z" transform="translate(265.03 -589.89)"></path><polyline class="cls-2" points="346.04 283.24 252.91 336.09 252.91 443.06 198.8 473.26"></polyline><circle class="cls-3" cx="347.93" cy="281.35" r="3.78"></circle><polygon class="cls-3" points="252.91 357.33 243.52 373.61 262.31 373.61 252.91 357.33"></polygon><polygon class="cls-3" points="252.91 398.14 247.25 407.95 258.58 407.95 252.91 398.14"></polygon><polyline class="cls-2" points="495.8 477.04 592.7 538.7 592.7 482.07 651.85 517.31 671.98 500.95"></polyline><polygon class="cls-3" points="593.17 505.32 586.88 516.22 599.46 516.22 593.17 505.32"></polygon><polygon class="cls-3" points="542.08 500.23 545.36 507.27 533.2 505.38 542.08 500.23"></polygon><polygon class="cls-3" points="722.04 558.75 725.32 565.79 713.16 563.9 722.04 558.75"></polygon><polyline class="cls-2" points="928.71 448.09 1014.28 396.5 1014.28 357.49 1053.93 331.84"></polyline><polygon class="cls-3" points="1015.07 374.13 1008.78 385.03 1021.36 385.03 1015.07 374.13"></polygon><path class="cls-1" d="M5.12,1233.89c17.37,10,17.47,26.29.21,36.32l-81,47.08c-17.26,10-45.33,10-62.7,0l-81.54-47.08c-17.38-10-17.47-26.29-.21-36.32l81-47.08c17.26-10,45.32-10,62.7,0Z" transform="translate(265.03 -589.89)"></path><path class="cls-2" d="M5.12,1210c17.37,10,17.47,26.29.21,36.32l-81,47.08c-17.26,10-45.33,10-62.7,0l-81.54-47.08c-17.38-10-17.47-26.29-.21-36.32l81-47.08c17.26-10,45.32-10,62.7,0Z" transform="translate(265.03 -589.89)"></path><path class="cls-4" d="M34,1203.54-67.62,1262.6c-21.65,12.58-56.86,12.58-78.65,0l-102.3-59.06c-11-6.33-16.45-14.64-16.42-22.94l0,11.75c0,8.3,5.46,16.61,16.42,22.94l102.3,59.07c21.8,12.58,57,12.58,78.66,0L34,1215.29c10.76-6.25,16.14-14.43,16.17-22.62l0-11.75C50.16,1189.11,44.77,1197.29,34,1203.54Z" transform="translate(265.03 -589.89)"></path><path class="cls-3" d="M33.76,1158c21.79,12.58,21.91,33,.26,45.56L-67.62,1262.6c-21.65,12.58-56.86,12.58-78.65,0l-102.3-59.06c-21.8-12.58-21.91-33-.26-45.56l101.63-59.07c21.66-12.58,56.87-12.58,78.66,0Z" transform="translate(265.03 -589.89)"></path><path class="cls-2" d="M293,993.21c17.37,10,17.46,26.29.2,36.32l-81,47.08c-17.25,10-45.32,10-62.7,0l-81.54-47.08c-17.37-10-17.46-26.29-.21-36.32l81-47.08c17.26-10,45.33-10,62.7,0Z" transform="translate(265.03 -589.89)"></path><path class="cls-4" d="M321.89,964.11l-101.63,59.07c-21.66,12.58-56.87,12.58-78.66,0L39.3,964.12c-11-6.34-16.44-14.65-16.42-22.94l0,11.75c0,8.3,5.45,16.61,16.42,22.94l102.3,59.06c21.79,12.58,57,12.58,78.65,0l101.64-59.06c10.75-6.25,16.14-14.43,16.16-22.62l0-11.76C338,949.68,332.65,957.86,321.89,964.11Z" transform="translate(265.03 -589.89)"></path><path class="cls-3" d="M321.63,918.55c21.8,12.58,21.91,33,.26,45.56l-101.63,59.07c-21.66,12.58-56.87,12.58-78.66,0L39.3,964.12c-21.79-12.59-21.91-33-.26-45.57l101.64-59.06c21.65-12.58,56.86-12.58,78.66,0Z" transform="translate(265.03 -589.89)"></path><path class="cls-5" d="M-27.94,1167.93c12.26,7.09,12.33,18.57.14,25.65L-85,1226.83c-12.19,7.08-32,7.08-44.27,0l-57.59-33.25c-12.27-7.08-12.33-18.56-.14-25.64l57.21-33.25c12.18-7.08,32-7.08,44.27,0Z" transform="translate(265.03 -589.89)"></path><path class="cls-6" d="M-102,1210.87a6.22,6.22,0,0,1-6.22,6.23,6.23,6.23,0,0,1-6.23-6.23,6.22,6.22,0,0,1,6.23-6.22A6.21,6.21,0,0,1-102,1210.87Z" transform="translate(265.03 -589.89)"></path><path class="cls-6" d="M-158.86,1176.42a6.23,6.23,0,0,1-6.23,6.23,6.23,6.23,0,0,1-6.23-6.23,6.22,6.22,0,0,1,6.23-6.22A6.22,6.22,0,0,1-158.86,1176.42Z" transform="translate(265.03 -589.89)"></path><path class="cls-6" d="M-45.13,1176.42a6.23,6.23,0,0,1-6.23,6.23,6.23,6.23,0,0,1-6.23-6.23,6.22,6.22,0,0,1,6.23-6.22A6.22,6.22,0,0,1-45.13,1176.42Z" transform="translate(265.03 -589.89)"></path><path class="cls-7" d="M-98.62,1175.52a9.31,9.31,0,0,1-1,.67,11.21,11.21,0,0,1-1.34.69l-3,28.89h-8.16l-3.33-28.89a12.34,12.34,0,0,1-1.26-.63,11,11,0,0,1-1.1-.73l-49.87-1.83,0-4.73V1172l0,4.74,49.87,1.83a13.12,13.12,0,0,0,1.1.73,13.65,13.65,0,0,0,1.27.63h0l3.32,28.88H-104l3-28.88a12.18,12.18,0,0,0,1.35-.69l.08,0a10.54,10.54,0,0,0,.92-.62l49.84-1.83v-3.07Z" transform="translate(265.03 -589.89)"></path><path class="cls-8" d="M-48.79,1169v4.74l-49.84,1.82a11.51,11.51,0,0,1-2.35,1.36l-3,28.89h-8.16l-3.33-28.89a12.34,12.34,0,0,1-1.26-.63,11,11,0,0,1-1.1-.73l-49.87-1.83,0-4.73,49.85-1.83a11.08,11.08,0,0,1,2.35-1.37l3-28.87h8.18l3.31,28.89a11.55,11.55,0,0,1,1.27.63,9.84,9.84,0,0,1,1.09.73Z" transform="translate(265.03 -589.89)"></path><path class="cls-9" d="M-103.56,1143.89a4.37,4.37,0,0,0-1-.72,9.09,9.09,0,0,0-8.22,0,4.3,4.3,0,0,0-1,.72h-.75v27.38a2.91,2.91,0,0,0,1.7,2.38,9.09,9.09,0,0,0,8.22,0,2.9,2.9,0,0,0,1.71-2.38v-27.38Z" transform="translate(265.03 -589.89)"></path><path class="cls-10" d="M-104.52,1141.52c2.28,1.31,2.28,3.43,0,4.74a9,9,0,0,1-8.23,0c-2.27-1.31-2.27-3.43,0-4.74A9.09,9.09,0,0,1-104.52,1141.52Z" transform="translate(265.03 -589.89)"></path><path class="cls-11" d="M-101.21,1124.67a8.52,8.52,0,0,0-3.93-2.08,13.33,13.33,0,0,0-7,0,8.62,8.62,0,0,0-3.93,2.08h-1.1v20.81c0,1.75,1.6,3.49,4.8,4.44a13.12,13.12,0,0,0,7.45,0c3.2-1,4.79-2.69,4.79-4.44v-20.81Z" transform="translate(265.03 -589.89)"></path><path class="cls-10" d="M-104.9,1120.23c6.39,1.9,6.39,7,0,8.88a13.12,13.12,0,0,1-7.45,0c-6.4-1.9-6.4-7,0-8.88A13.12,13.12,0,0,1-104.9,1120.23Z" transform="translate(265.03 -589.89)"></path><g class="cls-12"><polygon class="cls-13" points="140.8 565.84 74.28 527.18 74.27 521.69 140.79 560.35 140.8 565.84"></polygon><polygon class="cls-14" points="140.79 560.35 74.27 521.69 78.26 511.55 144.78 550.2 140.79 560.35"></polygon><polygon class="cls-15" points="144.78 550.2 78.26 511.55 139.29 476.31 205.81 514.97 144.78 550.2"></polygon><polygon class="cls-15" points="214.58 410.24 148.06 371.58 160.56 364.36 227.08 403.02 214.58 410.24"></polygon><polygon class="cls-14" points="205.81 514.97 139.29 476.31 148.06 371.58 214.58 410.24 205.81 514.97"></polygon><polygon class="cls-13" points="214.58 410.24 227.08 403.02 219.82 520.24 204.63 529 140.8 565.84 140.79 560.35 144.78 550.2 205.81 514.97 214.58 410.24"></polygon></g><polygon class="cls-14" points="175.77 531.97 186.86 525.83 172 517.57 175.77 531.97"></polygon><path class="cls-16" d="M-97.7,1101.94a12.65,12.65,0,0,1,5.74,9.94l-.05,19.48c0,3.66-2.61,5.14-5.78,3.31l-80-46.21a12.67,12.67,0,0,1-5.75-10l0-19.48c0-3.65,2.6-5.13,5.79-3.29Z" transform="translate(265.03 -589.89)"></path><path class="cls-17" d="M-93.66,1099.59l-80-46.21c-1.6-.93-3.06-1-4.1-.4l-4.05,2.35c1.05-.61,2.51-.53,4.11.4l80,46.21a12.65,12.65,0,0,1,5.74,9.94l-.05,19.48c0,1.82-.65,3.1-1.69,3.7l4-2.34A4.07,4.07,0,0,0-88,1129l0-19.48A12.65,12.65,0,0,0-93.66,1099.59Z" transform="translate(265.03 -589.89)"></path><path class="cls-3" d="M-151.53,1082.24l3.6,14.34-1.47-.85-1.13-4.51-3.78-2.18-1.11,3.21-1.42-.82,3.65-10.15ZM-154,1088l3.22,1.86-1-4.13c-.23-.94-.39-1.75-.54-2.55l0,0c-.16.63-.33,1.28-.54,1.9L-154,1088" transform="translate(265.03 -589.89)"></path><path class="cls-3" d="M-156.26,1079.51l-3.83,10-1.52-.87-3.45-14.25,1.49.86,1.64,7c.46,1.92.85,3.63,1.12,5.23h0a37.8,37.8,0,0,1,1.23-3.85l1.82-5Z" transform="translate(265.03 -589.89)"></path><path class="cls-3" d="M-141.64,1087.75a9.87,9.87,0,0,1,2.53,2l-.34,1.1a8.61,8.61,0,0,0-2.14-1.76c-2.5-1.44-4.16-.56-4.17,2.65a8.29,8.29,0,0,0,4.08,7.29,5.34,5.34,0,0,0,2.24.79l.28,1.42a6.91,6.91,0,0,1-2.82-1,10.72,10.72,0,0,1-5.24-9.23C-147.21,1087.14-144.94,1085.85-141.64,1087.75Z" transform="translate(265.03 -589.89)"></path><path class="cls-3" d="M-132.87,1093l3.6,14.33-1.47-.84-1.12-4.51-3.78-2.19-1.12,3.22-1.42-.82,3.65-10.15Zm-2.48,5.73,3.2,1.85-1-4.12c-.23-.94-.39-1.76-.55-2.56l0,0c-.15.64-.34,1.28-.54,1.91l-1,2.94" transform="translate(265.03 -589.89)"></path><path class="cls-3" d="M-119.67,1100.64l0,12.24-1.39-.81-3.36-8.16c-.74-1.79-1.45-3.61-2-5.24h0c.07,1.6.1,3.08.1,5.11l0,5.23-1.3-.74,0-12.24,1.5.86,3.4,8.17c.79,1.89,1.39,3.53,1.9,5.08h0c-.13-1.71-.15-3.21-.14-5.12v-5.12Z" transform="translate(265.03 -589.89)"></path><polygon class="cls-3" points="154.42 515.98 154.42 517.32 151.16 515.44 151.13 526.34 149.74 525.53 149.77 514.64 146.53 512.77 146.54 511.43 154.42 515.98"></polygon><line class="cls-18" x1="626.22" y1="508.37" x2="625.75" y2="508.37"></line><path class="cls-2" d="M961.24,855.41c17.37,10,17.46,26.29.2,36.32l-81,47.08c-17.26,10-45.33,10-62.7,0l-81.55-47.08c-17.37-10-17.46-26.29-.2-36.32l81-47.08c17.26-10,45.33-10,62.7,0Z" transform="translate(265.03 -589.89)"></path><path class="cls-4" d="M990.13,826.32,888.5,885.38c-21.65,12.58-56.86,12.58-78.66,0l-102.3-59.06c-11-6.33-16.44-14.64-16.42-22.94l0,11.75c0,8.3,5.45,16.61,16.42,22.94l102.3,59.07c21.79,12.58,57,12.58,78.66,0L990.1,838.07c10.76-6.25,16.14-14.43,16.16-22.62l0-11.75C1006.27,811.89,1000.89,820.07,990.13,826.32Z" transform="translate(265.03 -589.89)"></path><path class="cls-3" d="M989.88,780.76c21.79,12.58,21.91,33,.25,45.56L888.5,885.38c-21.65,12.58-56.86,12.58-78.66,0l-102.3-59.06c-21.79-12.58-21.91-33-.25-45.56l101.63-59.07c21.65-12.58,56.86-12.58,78.66,0Z" transform="translate(265.03 -589.89)"></path><path class="cls-5" d="M937.2,772c9,5.22,9.1,13.69.11,18.91l-42.19,24.53c-9,5.22-23.61,5.22-32.66,0L820,791c-9-5.23-9.09-13.7-.11-18.92l42.2-24.52c9-5.22,23.61-5.22,32.65,0Z" transform="translate(265.03 -589.89)"></path><path class="cls-6" d="M882.59,803.71a4.6,4.6,0,1,1-4.6-4.59A4.59,4.59,0,0,1,882.59,803.71Z" transform="translate(265.03 -589.89)"></path><path class="cls-6" d="M840.65,778.3a4.6,4.6,0,1,1-4.6-4.59A4.59,4.59,0,0,1,840.65,778.3Z" transform="translate(265.03 -589.89)"></path><path class="cls-6" d="M924.53,778.3a4.6,4.6,0,1,1-4.59-4.59A4.59,4.59,0,0,1,924.53,778.3Z" transform="translate(265.03 -589.89)"></path><path class="cls-19" d="M885.08,777.63a8,8,0,0,1-.74.5q-.47.27-1,.51l-2.21,21.3h-6l-2.45-21.3a8.4,8.4,0,0,1-1.74-1l-36.79-1.35,0-3.49v2.27l0,3.49,36.78,1.35a8.14,8.14,0,0,0,.81.54,9,9,0,0,0,.93.47h0l2.45,21.3h6l2.21-21.3q.52-.24,1-.51l.06,0a6.74,6.74,0,0,0,.68-.46l36.76-1.34v-2.27Z" transform="translate(265.03 -589.89)"></path><path class="cls-8" d="M921.83,772.79v3.5l-36.76,1.34a8.74,8.74,0,0,1-1.73,1l-2.21,21.3h-6l-2.45-21.3a8.4,8.4,0,0,1-1.74-1l-36.79-1.35,0-3.49,36.77-1.35a8.72,8.72,0,0,1,1.73-1l2.21-21.3h6l2.44,21.31a8.24,8.24,0,0,1,.94.47,7,7,0,0,1,.8.54Z" transform="translate(265.03 -589.89)"></path><path class="cls-20" d="M881.43,754.31a3.68,3.68,0,0,0-.7-.54,6.74,6.74,0,0,0-6.06,0,3.47,3.47,0,0,0-.71.54h-.55V774.5a2.13,2.13,0,0,0,1.26,1.75,6.67,6.67,0,0,0,6.06,0A2.13,2.13,0,0,0,882,774.5V754.31Z" transform="translate(265.03 -589.89)"></path><path class="cls-10" d="M880.73,752.56c1.68,1,1.68,2.53,0,3.5a6.74,6.74,0,0,1-6.06,0c-1.68-1-1.68-2.54,0-3.5A6.67,6.67,0,0,1,880.73,752.56Z" transform="translate(265.03 -589.89)"></path><path class="cls-21" d="M883.17,740.13a6.26,6.26,0,0,0-2.9-1.53,9.78,9.78,0,0,0-5.15,0,6.22,6.22,0,0,0-2.89,1.53h-.82v15.35c0,1.29,1.18,2.57,3.54,3.28a9.71,9.71,0,0,0,5.5,0c2.35-.71,3.53-2,3.53-3.28V740.13Z" transform="translate(265.03 -589.89)"></path><path class="cls-10" d="M880.45,736.85c4.71,1.41,4.71,5.15,0,6.55a9.54,9.54,0,0,1-5.5,0c-4.72-1.4-4.72-5.14,0-6.55A9.71,9.71,0,0,1,880.45,736.85Z" transform="translate(265.03 -589.89)"></path><g class="cls-12"><polygon class="cls-22" points="1131.22 173.15 1082.16 144.64 1082.15 140.58 1131.21 169.09 1131.22 173.15"></polygon><polygon class="cls-14" points="1131.21 169.09 1082.15 140.58 1085.09 133.1 1134.15 161.62 1131.21 169.09"></polygon><polygon class="cls-23" points="1134.15 161.62 1085.09 133.1 1130.11 107.11 1179.17 135.63 1134.15 161.62"></polygon><polygon class="cls-23" points="1185.64 58.38 1136.57 29.87 1145.79 24.55 1194.85 53.06 1185.64 58.38"></polygon><polygon class="cls-14" points="1179.17 135.63 1130.11 107.11 1136.57 29.87 1185.64 58.38 1179.17 135.63"></polygon><polygon class="cls-22" points="1185.64 58.38 1194.85 53.06 1189.5 139.51 1178.3 145.98 1131.22 173.15 1131.21 169.09 1134.15 161.62 1179.17 135.63 1185.64 58.38"></polygon></g><path class="cls-24" d="M846.12,653.76l-6.9,2.26a2.55,2.55,0,0,1,.74-.12,2.55,2.55,0,0,0,.74-.13l6.89-2.26a2.19,2.19,0,0,1-.73.12A2.55,2.55,0,0,0,846.12,653.76Z" transform="translate(265.03 -589.89)"></path><path class="cls-24" d="M864,724a2.85,2.85,0,0,1-.83.46L870,722.2a2.36,2.36,0,0,0,.83-.46,2.5,2.5,0,0,1,.83-.45l-6.9,2.26A2.57,2.57,0,0,0,864,724Z" transform="translate(265.03 -589.89)"></path><path class="cls-24" d="M853.06,643.13a2.67,2.67,0,0,0-1.82-.07l-6.9,2.26a2.73,2.73,0,0,1,1.82.07,2.68,2.68,0,0,0,1.82.08l6.89-2.27A2.7,2.7,0,0,1,853.06,643.13Z" transform="translate(265.03 -589.89)"></path><path class="cls-24" d="M875.25,728a2.76,2.76,0,0,1-1.53,1.32l6.89-2.26a2.76,2.76,0,0,0,1.53-1.32,2.75,2.75,0,0,1,1.54-1.32l-6.9,2.26A2.77,2.77,0,0,0,875.25,728Z" transform="translate(265.03 -589.89)"></path><path class="cls-24" d="M862.72,636.74a3.93,3.93,0,0,1-.83-.52,4.26,4.26,0,0,0-.84-.52,2.74,2.74,0,0,0-2-.16l-6.89,2.26a2.77,2.77,0,0,1,2,.16,3.9,3.9,0,0,1,.84.53,3.51,3.51,0,0,0,.83.51,2.74,2.74,0,0,0,2,.16l6.89-2.26A2.76,2.76,0,0,1,862.72,636.74Z" transform="translate(265.03 -589.89)"></path><path class="cls-24" d="M888.31,725a3.13,3.13,0,0,0-2,2.49,3.13,3.13,0,0,1-2,2.48l6.9-2.27a3.09,3.09,0,0,0,2-2.47,3.13,3.13,0,0,1,2-2.49Z" transform="translate(265.03 -589.89)"></path><path class="cls-24" d="M916.2,685.43c-1.85-1.88-2.19-5.16-.71-6.84,1.79-2,.84-6.22-1.73-7.63a5.66,5.66,0,0,1-2.33-6.6,5.64,5.64,0,0,0-2.54-6.72,3.33,3.33,0,0,0-.88-.27,3,3,0,0,1-.87-.26,5.63,5.63,0,0,1-2.84-5.46,5.62,5.62,0,0,0-2.85-5.48,2.75,2.75,0,0,0-1.93-.19,2.79,2.79,0,0,1-1.92-.2,5.44,5.44,0,0,1-2.81-4.09,5.4,5.4,0,0,0-2.81-4.1,2.74,2.74,0,0,0-2-.16l-3,1a3.25,3.25,0,0,1-.73-.23,5,5,0,0,1-2.43-2.71,4.94,4.94,0,0,0-2.4-2.71,2.84,2.84,0,0,0-2.07-.17l-6,2a5.2,5.2,0,0,1-.9-1,4.66,4.66,0,0,0-1.73-1.49,2.81,2.81,0,0,0-2.06-.16l-6.9,2.27a2.81,2.81,0,0,1,2.06.16,4.4,4.4,0,0,1,1.73,1.48,4.48,4.48,0,0,0,1.73,1.48,2.84,2.84,0,0,0,2.07.17l6-2a5.37,5.37,0,0,1,1.59,2.19,5,5,0,0,0,2.42,2.72,2.85,2.85,0,0,0,2.06.17l3-1a3.1,3.1,0,0,1,.71.23,5.34,5.34,0,0,1,2.81,4.09A5.42,5.42,0,0,0,890.7,648a2.82,2.82,0,0,0,1.93.2,2.77,2.77,0,0,1,1.92.19,5.62,5.62,0,0,1,2.86,5.48,5.63,5.63,0,0,0,2.84,5.47,3.86,3.86,0,0,0,.86.26,3,3,0,0,1,.89.26,5.62,5.62,0,0,1,2.53,6.72,5.69,5.69,0,0,0,2.33,6.61c2.57,1.4,3.52,5.58,1.73,7.62-1.48,1.68-1.14,5,.71,6.84,2.25,2.29,2.17,6.4-.14,7.51-1.9.9-2.36,4-1,6.41,1.29,2.22,1,4.83-.4,6l-2.32.76c-1.67.55-2.53,2.82-1.82,5.23a5.26,5.26,0,0,1,0,3.29l-5.45,1.79c-1.29.42-2.18,1.89-2.08,3.82s-.81,3.43-2.07,3.84l6.89-2.26c1.27-.42,2.18-1.84,2.08-3.84a4.93,4.93,0,0,1,.25-1.89l5.46-1.79c1.62-.53,2.57-2.74,1.83-5.22a4.53,4.53,0,0,1,1-4.72l2.33-.76c2-.68,2.77-3.89,1.24-6.53-1.39-2.42-.93-5.5,1-6.41C918.37,691.83,918.44,687.71,916.2,685.43Zm-42-50.37a4.4,4.4,0,0,1-.51-.29,3.21,3.21,0,0,1,.82.25,3.67,3.67,0,0,1,.46.27A2.82,2.82,0,0,1,874.22,635.06Z" transform="translate(265.03 -589.89)"></path><path class="cls-25" d="M885.08,639.86a5.34,5.34,0,0,1,2.81,4.09A5.42,5.42,0,0,0,890.7,648a2.82,2.82,0,0,0,1.93.2,2.77,2.77,0,0,1,1.92.19,5.62,5.62,0,0,1,2.86,5.48,5.63,5.63,0,0,0,2.84,5.47,3.86,3.86,0,0,0,.86.26,3,3,0,0,1,.89.26,5.62,5.62,0,0,1,2.53,6.72,5.69,5.69,0,0,0,2.33,6.61c2.57,1.4,3.52,5.58,1.73,7.62-1.48,1.68-1.14,5,.71,6.84,2.25,2.29,2.17,6.4-.14,7.51-1.9.9-2.36,4-1,6.41,1.7,2.93.61,6.58-2,6.64-2.14.06-3.36,2.62-2.55,5.36,1,3.31-1,6.13-3.65,5.15-2.16-.8-4,1-3.89,3.75.16,3-1.94,4.68-4.11,3.69a4,4,0,0,1-.83-.53,3.75,3.75,0,0,0-.84-.52c-1.75-.81-3.55.14-4,2.33s-2.32,3.1-4,2.32a4.44,4.44,0,0,1-1.72-1.48,4.55,4.55,0,0,0-1.74-1.49,2.65,2.65,0,0,0-3.59,1.16,2.65,2.65,0,0,1-3.6,1.15,5,5,0,0,1-2.41-2.7,5,5,0,0,0-2.42-2.72A2.63,2.63,0,0,0,864,724a2.62,2.62,0,0,1-2.86.29,5.36,5.36,0,0,1-2.81-4.09,5.42,5.42,0,0,0-2.81-4.09,2.82,2.82,0,0,0-1.93-.2,2.78,2.78,0,0,1-1.92-.19,5.65,5.65,0,0,1-2.86-5.48,5.65,5.65,0,0,0-2.83-5.47,3.79,3.79,0,0,0-.87-.26,3,3,0,0,1-.88-.26,5.63,5.63,0,0,1-2.54-6.73,5.68,5.68,0,0,0-2.33-6.6c-2.57-1.41-3.52-5.59-1.73-7.62,1.48-1.69,1.14-5-.71-6.85-2.24-2.28-2.17-6.4.14-7.5,1.9-.91,2.36-4,1-6.41-1.7-2.94-.6-6.59,2-6.65,2.14,0,3.36-2.62,2.55-5.35-1-3.31,1-6.14,3.65-5.16,2.17.82,4-1,3.89-3.75-.16-3,1.94-4.67,4.1-3.68a3.9,3.9,0,0,1,.84.53,3.51,3.51,0,0,0,.83.51c1.76.81,3.56-.13,4-2.32s2.32-3.11,4-2.32a4.4,4.4,0,0,1,1.73,1.48,4.48,4.48,0,0,0,1.73,1.48,2.67,2.67,0,0,0,3.6-1.15,2.66,2.66,0,0,1,3.61-1.15,5,5,0,0,1,2.4,2.7,5,5,0,0,0,2.42,2.72,2.65,2.65,0,0,0,2.88-.29A2.58,2.58,0,0,1,885.08,639.86Z" transform="translate(265.03 -589.89)"></path><path class="cls-26" d="M902,659.9a3,3,0,0,0-.89-.26,3.42,3.42,0,0,1-1.83-.92L844,704.16l.17.1a3,3,0,0,0,.88.26,3.79,3.79,0,0,1,.87.26,5.45,5.45,0,0,1,2.78,4.14L904.53,663A5.19,5.19,0,0,0,902,659.9Z" transform="translate(265.03 -589.89)"></path><polygon class="cls-16" points="1126.62 82.87 1124.52 96.9 1122.98 96.21 1123.97 89.64 1118.28 87.11 1117.3 93.68 1115.79 93.01 1117.88 78.98 1119.4 79.66 1118.52 85.53 1124.2 88.06 1125.08 82.19 1126.62 82.87"></polygon><polygon class="cls-16" points="1130.76 84.72 1128.67 98.74 1127.15 98.07 1129.24 84.04 1130.76 84.72"></polygon><polygon class="cls-16" points="1149.12 92.89 1148.9 94.41 1144.07 92.27 1143.41 96.69 1147.97 98.73 1147.75 100.22 1143.18 98.19 1142.43 103.25 1147.52 105.51 1147.29 107.03 1140.69 104.09 1142.78 90.07 1149.12 92.89"></polygon><path class="cls-16" d="M873.61,689a29.31,29.31,0,0,0,.33,4.26l-1.57-.7a24.88,24.88,0,0,1-.29-3.7c-.05-2.09-.57-3.1-1.94-3.77l-1.43-.64-.91,6.08-1.51-.68L868.35,676a14.53,14.53,0,0,1,3,1,6.24,6.24,0,0,1,3.22,2.66,4.79,4.79,0,0,1,.53,3.07,2.65,2.65,0,0,1-2.75,2.6v.06A4.94,4.94,0,0,1,873.61,689Zm-3.14-5.23c1.62.72,2.8.12,3-1.49a3.47,3.47,0,0,0-2.31-3.82,6.38,6.38,0,0,0-1.52-.5l-.76,5.12,1.55.69" transform="translate(265.03 -589.89)"></path><path class="cls-16" d="M894.06,689a8.91,8.91,0,0,1,.91,5.77c-.34,2.29-1.21,3.9-2.51,4.7s-3.21.72-5.49-.3a25.31,25.31,0,0,1-2.73-1.39L886.3,684a20.8,20.8,0,0,1,3.27,1.14A8.91,8.91,0,0,1,894.06,689Zm-6.58,8.85c3.25,1.44,5.33.06,5.9-3.72a6.57,6.57,0,0,0-4-7.53,7.71,7.71,0,0,0-1.8-.6L886,697.05a11.49,11.49,0,0,0,1.51.78" transform="translate(265.03 -589.89)"></path><path class="cls-27" d="M801.56,633.53l0-3.59s-.7-7,0-7.86,2.72-.78,2.72-.78,1.64-3.42,3.71-3,2.9,4.41,3.38,7.22-2.16,6.18-2.16,6.18l-1.56,3.71Z" transform="translate(265.03 -589.89)"></path><path class="cls-28" d="M775.55,679.67s13.68-14.16,16.51-19.83c2.33-4.64,5.79-17.66,7.8-26.25a4.13,4.13,0,0,1,5.3-3,7.4,7.4,0,0,1,2.48,1.41c2.36,3.3,1.41,5.19,1.41,5.19s-.94,22.18-3.3,27.85-18.88,29.73-24.07,29.73S770.83,690.05,775.55,679.67Z" transform="translate(265.03 -589.89)"></path><ellipse class="cls-5" cx="1061.81" cy="233.24" rx="44.97" ry="28.57"></ellipse><path class="cls-29" d="M777.09,817.4l-.4,5.53a2,2,0,0,0,1.24,2.05,6,6,0,0,0,3.3.33c3.16-.48,4.62-2.19,5.11-3.16s6.81-5.35,6.08-7.54c-1.22-2.19-3.41,0-5.6,0S780,813.51,777.09,817.4Z" transform="translate(265.03 -589.89)"></path><path class="cls-29" d="M778.55,732.84s-1.46,37.23-.73,48.91c0,0-2.92,29.21-1.46,36.14,0,0,5.11,3.65,9.49.73,1.1-.36,1.1-1.82,1.1-1.82s2.92-27.38,3.65-35.78,6.57-33.58,5.47-39.06S788,728.82,778.55,732.84Z" transform="translate(265.03 -589.89)"></path><path class="cls-29" d="M802.09,825.19s-2,6.21-.54,7.67a4.69,4.69,0,0,0,4.62,1.4,24.08,24.08,0,0,0,2.62-1l.42-1.28.49.86a6.08,6.08,0,0,0,1.7-.67c1-.55,3.77-1.65,4.93-2.38s3.22-2,3.41-3.58-5.54-1-7.06-1a13.06,13.06,0,0,1-3-.55c-.55,0-6.45.73-6.45.73" transform="translate(265.03 -589.89)"></path><path class="cls-30" d="M811.33,732.15s1.53,5.56,1.53,16.75-1,39.42-1,39.42-.49,28.72-1,36c0,0-3.41,4.38-9.25,1-2.92-3.4-1.95-5.84-1.95-5.84s-3.89-17.52-2.43-33.58c0,0-5.36-32.61-6.33-36.5s-18-5.58-11.32-24.58Z" transform="translate(265.03 -589.89)"></path><path class="cls-31" d="M778.06,727.48a22.81,22.81,0,0,0,.82-6,55.77,55.77,0,0,0-1.67-12,83.46,83.46,0,0,1-4-18.18c-.71-9.19,3.82-16.18,11.33-15.48,2.7.25,7.75,3,12.62,5.53,3.92,2.07,10,5.84,14.44,8.81a6.93,6.93,0,0,1,3.08,6.08c-.16,3.66-.45,7.93-.8,11.67-.38,4.06-1.6,13-2.22,19,0,0,2.06,5.51,2.06,9.76s-8.49,6.13-10.85,6.61-11.33.47-18.41-2.36S775.86,734.25,778.06,727.48Z" transform="translate(265.03 -589.89)"></path><path class="cls-27" d="M806.84,673.51c.76-2.34,1-11.86.06-15.17-1.21-4.25-5.34-8-11.53-7.65-6,.29-10.32,2.91-11.78,7.34a16.15,16.15,0,0,0,.92,10.55c1.08,2.26,3.52,4.25,6.19,5.66a65.62,65.62,0,0,0,9.76,4.28C803.5,679.41,805.75,676.91,806.84,673.51Z" transform="translate(265.03 -589.89)"></path><path class="cls-27" d="M789.35,671.87c3-1.19,9.81.1,12.19,2.06,0,0-2.35,9.47-2.38,9.48-4.35.22-10.53-1.94-12-3.72Z" transform="translate(265.03 -589.89)"></path><path class="cls-27" d="M801.54,667.43c-1.24-1.69-3.73-1.09-3.73,1.6,0,3.13,2.13,4.9,3.73,4.9C801.54,671.92,801.62,669.83,801.54,667.43Z" transform="translate(265.03 -589.89)"></path><path class="cls-31" d="M788,676.74s3.53,3,11.92,4.26l1.59,2.8a20.54,20.54,0,0,1-7.67.61,12.86,12.86,0,0,1-7.91-4.5l-.36-.73Z" transform="translate(265.03 -589.89)"></path><path class="cls-32" d="M781.47,660.2s-.79-7.37,6-10.47,15.58-1,19,3.71c2.38,4-.91,7.3-1.64,8.76s0,4.38-.73,5.48.18,2.74.18,2.74L803,671.51a14,14,0,0,0-2-2.92c-.73-.55-3,1.46-2.5,3.41a5.53,5.53,0,0,0,2.32,3l-1.46,1a8.66,8.66,0,0,1-4.51.86,16.22,16.22,0,0,1-6.69-1.83c-1.21-.73-4.87-3.41-6.33-6.57S780,662.26,781.47,660.2Z" transform="translate(265.03 -589.89)"></path><path class="cls-27" d="M831.94,635.78l.47-4.25a31.78,31.78,0,0,1,.47-5.9c.48-1.42,2.36-1.42,2.36-1.42s3.07-3.3,4-3.53,2.83,3.77,3.06,5.19.47,6.37-.23,7.31a18,18,0,0,1-3.54,2.6l-.95,2.59Z" transform="translate(265.03 -589.89)"></path><path class="cls-31" d="M802.92,694.3s13.68-14.16,16.51-19.83c2.33-4.64,8.15-29,10.16-37.58a4.12,4.12,0,0,1,5.3-3,7.11,7.11,0,0,1,2.48,1.4c2.36,3.31,1.41,5.2,1.41,5.2s-3.3,33.5-5.66,39.17-18.88,29.73-24.07,29.73S798.2,704.68,802.92,694.3Z" transform="translate(265.03 -589.89)"></path><path class="cls-33" d="M39,1118.39l-9.81,5.37c-5.34,3.1-14,3.1-19.38,0l-25.21-14.55c-2.7-1.56-4-3.61-4-5.66v2.9c0,2,1.34,4.09,4,5.65l25.21,14.56c5.37,3.1,14,3.1,19.38,0l9.81-5.37c2.65-1.54,4-3.56,4-5.57v-2.9C43,1114.84,41.63,1116.85,39,1118.39Z" transform="translate(265.03 -589.89)"></path><path class="cls-3" d="M38.92,1107.17c5.37,3.1,5.4,8.12.06,11.22l-9.81,5.37c-5.34,3.1-14,3.1-19.38,0l-25.21-14.55c-5.37-3.1-5.4-8.13-.06-11.23l9.81-5.37c5.33-3.1,14-3.1,19.38,0Z" transform="translate(265.03 -589.89)"></path><path class="cls-33" d="M76.73,1083.16l-9.81,5.36c-5.33,3.1-14,3.1-19.38,0L22.33,1074c-2.7-1.56-4-3.61-4-5.65v2.89c0,2,1.34,4.1,4,5.66l25.2,14.55c5.37,3.1,14,3.1,19.38,0l9.82-5.37c2.65-1.54,4-3.55,4-5.57v-2.9C80.71,1079.6,79.39,1081.62,76.73,1083.16Z" transform="translate(265.03 -589.89)"></path><path class="cls-3" d="M76.67,1071.93c5.37,3.1,5.4,8.13.06,11.23l-9.81,5.36c-5.33,3.1-14,3.1-19.38,0L22.33,1074c-5.37-3.1-5.39-8.13-.06-11.23l9.81-5.36c5.34-3.1,14-3.1,19.38,0Z" transform="translate(265.03 -589.89)"></path><path class="cls-33" d="M118,1044.77l-9.81,5.37c-5.34,3.1-14,3.1-19.39,0l-25.2-14.55c-2.7-1.56-4-3.61-4-5.66v2.9c0,2,1.35,4.09,4,5.65L88.75,1053c5.37,3.1,14,3.1,19.38,0l9.81-5.37c2.65-1.54,4-3.56,4-5.57v-2.9C121.93,1041.22,120.6,1043.23,118,1044.77Z" transform="translate(265.03 -589.89)"></path><path class="cls-3" d="M117.89,1033.55c5.37,3.1,5.39,8.12.06,11.22l-9.81,5.37c-5.34,3.1-14,3.1-19.39,0l-25.2-14.55c-5.37-3.1-5.4-8.13-.07-11.23L73.3,1019c5.33-3.1,14-3.1,19.38,0Z" transform="translate(265.03 -589.89)"></path><path class="cls-33" d="M691.8,974.76,682,980.12c-5.34,3.1-14,3.1-19.38,0L637.4,965.57c-2.7-1.56-4-3.61-4-5.65v2.89c0,2.05,1.34,4.09,4,5.65L662.6,983c5.37,3.1,14,3.1,19.38,0l9.81-5.37c2.65-1.54,4-3.55,4-5.57v-2.9C695.78,971.2,694.45,973.22,691.8,974.76Z" transform="translate(265.03 -589.89)"></path><path class="cls-3" d="M691.74,963.53c5.37,3.1,5.4,8.13.06,11.23L682,980.12c-5.34,3.1-14,3.1-19.38,0L637.4,965.57c-5.37-3.1-5.4-8.13-.06-11.23l9.81-5.36c5.33-3.1,14-3.1,19.38,0Z" transform="translate(265.03 -589.89)"></path><path class="cls-33" d="M729.56,939.52l-9.82,5.36c-5.33,3.1-14,3.1-19.38,0l-25.21-14.55c-2.7-1.56-4-3.61-4-5.65v2.9c0,2,1.34,4.09,4,5.65l25.2,14.55c5.37,3.1,14,3.1,19.38,0l9.82-5.36c2.65-1.54,4-3.56,4-5.58V934C733.53,936,732.21,938,729.56,939.52Z" transform="translate(265.03 -589.89)"></path><path class="cls-3" d="M729.49,928.29c5.37,3.1,5.4,8.13.07,11.23l-9.82,5.36c-5.33,3.1-14,3.1-19.38,0l-25.21-14.55c-5.37-3.1-5.39-8.12-.06-11.23l9.81-5.36c5.34-3.1,14-3.1,19.39,0Z" transform="translate(265.03 -589.89)"></path><path class="cls-33" d="M770.77,901.14,761,906.5c-5.34,3.1-14,3.1-19.38,0L716.37,892c-2.7-1.56-4-3.61-4-5.65v2.89c0,2,1.35,4.09,4.05,5.65l25.21,14.56c5.37,3.1,14,3.1,19.38,0l9.81-5.37c2.65-1.54,4-3.55,4-5.57v-2.9C774.75,897.58,773.42,899.6,770.77,901.14Z" transform="translate(265.03 -589.89)"></path><path class="cls-3" d="M770.71,889.91c5.37,3.1,5.39,8.13.06,11.23L761,906.5c-5.34,3.1-14,3.1-19.38,0L716.37,892c-5.37-3.1-5.4-8.13-.06-11.23l9.81-5.36c5.33-3.1,14-3.1,19.38,0Z" transform="translate(265.03 -589.89)"></path><path class="cls-33" d="M264.83,1038.48l9.81,5.37c5.34,3.1,14,3.1,19.38,0l25.21-14.56c2.7-1.56,4-3.6,4-5.65v2.9c0,2-1.35,4.09-4.05,5.65L294,1046.74c-5.37,3.1-14,3.1-19.38,0l-9.81-5.36c-2.65-1.54-4-3.56-4-5.58v-2.89C260.85,1034.93,262.18,1036.94,264.83,1038.48Z" transform="translate(265.03 -589.89)"></path><path class="cls-3" d="M264.89,1027.26c-5.37,3.1-5.39,8.12-.06,11.22l9.81,5.37c5.34,3.1,14,3.1,19.38,0l25.21-14.56c5.37-3.1,5.4-8.12.06-11.22l-9.81-5.37c-5.33-3.1-14-3.1-19.38,0Z" transform="translate(265.03 -589.89)"></path><path class="cls-33" d="M321.46,1027.16l9.81,5.36c5.34,3.1,14,3.1,19.39,0l25.2-14.55c2.7-1.56,4.05-3.61,4.05-5.65v2.89c0,2-1.35,4.09-4.05,5.65l-25.21,14.56c-5.37,3.1-14,3.1-19.38,0l-9.81-5.37c-2.65-1.54-4-3.55-4-5.57v-2.9C317.48,1023.6,318.81,1025.62,321.46,1027.16Z" transform="translate(265.03 -589.89)"></path><path class="cls-3" d="M321.52,1015.93c-5.37,3.1-5.39,8.13-.06,11.23l9.81,5.36c5.34,3.1,14,3.1,19.39,0l25.2-14.55c5.37-3.1,5.4-8.13.07-11.23l-9.82-5.36c-5.33-3.1-14-3.1-19.38,0Z" transform="translate(265.03 -589.89)"></path><path class="cls-33" d="M383.13,1014.57l9.81,5.37c5.33,3.1,14,3.1,19.38,0l25.21-14.56c2.7-1.56,4.05-3.6,4-5.65v2.9c0,2-1.34,4.09-4,5.65l-25.21,14.55c-5.37,3.1-14.05,3.1-19.38,0l-9.82-5.36c-2.65-1.54-4-3.56-4-5.58V1009C379.15,1011,380.48,1013,383.13,1014.57Z" transform="translate(265.03 -589.89)"></path><path class="cls-3" d="M383.19,1003.34c-5.37,3.1-5.4,8.13-.06,11.23l9.81,5.37c5.33,3.1,14,3.1,19.38,0l25.21-14.56c5.37-3.1,5.4-8.12.06-11.22l-9.81-5.37c-5.34-3.1-14-3.1-19.38,0Z" transform="translate(265.03 -589.89)"></path><path class="cls-1" d="M649.77,1199.91c17.37,10,17.46,26.29.2,36.32l-81,47.08c-17.26,10-45.33,10-62.7,0l-81.55-47.08c-17.37-10-17.46-26.29-.2-36.32l81-47.08c17.26-10,45.33-10,62.7,0Z" transform="translate(265.03 -589.89)"></path><path class="cls-2" d="M649.77,1101.75c17.37,10,17.46,26.29.2,36.32l-81,47.08c-17.26,10-45.33,10-61.52-1.65l-81.55-47.08c-18.55-8.38-18.64-24.63-1.38-34.66l81-47.09c17.26-10,45.33-10,62.7,0Z" transform="translate(265.03 -589.89)"></path><path class="cls-4" d="M678.66,1072.66,577,1131.72c-21.65,12.59-56.86,12.59-78.66,0l-102.3-59.06c-11-6.33-16.44-14.64-16.42-22.94l0,11.76c0,8.29,5.45,16.6,16.42,22.94l102.3,59.06c21.79,12.58,57,12.58,78.66,0l101.63-59.07c10.76-6.25,16.14-14.43,16.17-22.62l0-11.75C694.81,1058.23,689.42,1066.41,678.66,1072.66Z" transform="translate(265.03 -589.89)"></path><path class="cls-3" d="M678.41,1027.1c21.79,12.58,21.91,33,.25,45.56L577,1131.72c-21.65,12.59-56.86,12.59-78.66,0l-102.3-59.06c-21.79-12.58-21.9-33-.25-45.56L497.45,968c21.65-12.59,56.87-12.59,78.66,0Z" transform="translate(265.03 -589.89)"></path><path class="cls-34" d="M585.35,930.79s-3.9.21-6.07,5.85-7.81,17.58-7.81,17.58L553,951.4s-3,2.82-1.09,5.64c1.3,1.08,20.4,5.2,22.57,4.77s10.63-13.67,10.63-13.67,6.07-11.93,5.2-14.32S585.35,930.79,585.35,930.79Z" transform="translate(265.03 -589.89)"></path><circle class="cls-6" cx="866.29" cy="438.22" r="2.62"></circle><path class="cls-6" d="M580,1013.62a2.62,2.62,0,1,1-2.62-2.61A2.62,2.62,0,0,1,580,1013.62Z" transform="translate(265.03 -589.89)"></path><path class="cls-6" d="M627.79,1013.62a2.62,2.62,0,1,1-2.62-2.61A2.62,2.62,0,0,1,627.79,1013.62Z" transform="translate(265.03 -589.89)"></path><path class="cls-35" d="M605.3,1013.24a4.43,4.43,0,0,1-.42.29c-.18.1-.37.2-.57.29L603.05,1026h-3.43l-1.4-12.14a3.76,3.76,0,0,1-.53-.27,4.1,4.1,0,0,1-.46-.31l-21-.77v1.3l21,.77a3.15,3.15,0,0,0,.47.3,3.76,3.76,0,0,0,.53.27h0l1.39,12.15h3.44l1.26-12.15a5.85,5.85,0,0,0,.56-.29l0,0a3.77,3.77,0,0,0,.39-.26l21-.77v-1.29Z" transform="translate(265.03 -589.89)"></path><path class="cls-8" d="M626.25,1010.48v2l-21,.76a5,5,0,0,1-1,.58L603.05,1026h-3.43l-1.4-12.14a3.76,3.76,0,0,1-.53-.27,4.1,4.1,0,0,1-.46-.31l-21-.77v-2l21-.77a5.37,5.37,0,0,1,1-.57L599.45,997h3.44l1.39,12.14a4.53,4.53,0,0,1,.54.27,3.58,3.58,0,0,1,.45.31Z" transform="translate(265.03 -589.89)"></path><path class="cls-36" d="M603.22,999.94a2.19,2.19,0,0,0-.4-.3,3.83,3.83,0,0,0-3.46,0,2.19,2.19,0,0,0-.4.3h-.31v11.52a1.21,1.21,0,0,0,.71,1,3.83,3.83,0,0,0,3.46,0,1.22,1.22,0,0,0,.72-1V999.94Z" transform="translate(265.03 -589.89)"></path><path class="cls-10" d="M602.82,999a1,1,0,0,1,0,2,3.83,3.83,0,0,1-3.46,0,1.05,1.05,0,0,1,0-2A3.77,3.77,0,0,1,602.82,999Z" transform="translate(265.03 -589.89)"></path><path class="cls-37" d="M604.21,991.86a3.5,3.5,0,0,0-1.65-.87,5.64,5.64,0,0,0-2.94,0,3.55,3.55,0,0,0-1.65.87h-.46v8.75c0,.74.67,1.47,2,1.87a5.59,5.59,0,0,0,3.14,0c1.34-.4,2-1.13,2-1.87v-8.75Z" transform="translate(265.03 -589.89)"></path><ellipse class="cls-10" cx="866.12" cy="401.97" rx="3.51" ry="2.09"></ellipse><g class="cls-12"><polygon class="cls-38" points="859.56 415.03 831.59 398.78 831.58 396.46 859.55 412.72 859.56 415.03"></polygon><polygon class="cls-39" points="859.55 412.72 831.58 396.46 833.26 392.2 861.23 408.45 859.55 412.72"></polygon><polygon class="cls-40" points="861.23 408.45 833.26 392.2 858.92 377.38 886.9 393.64 861.23 408.45"></polygon><polygon class="cls-40" points="890.58 349.6 862.61 333.34 867.87 330.31 895.84 346.56 890.58 349.6"></polygon><polygon class="cls-39" points="886.9 393.64 858.92 377.38 862.61 333.34 890.58 349.6 886.9 393.64"></polygon><polygon class="cls-38" points="890.58 349.6 895.84 346.56 892.79 395.85 886.4 399.54 859.56 415.03 859.55 412.72 861.23 408.45 886.9 393.64 890.58 349.6"></polygon></g><path class="cls-30" d="M591.14,977.94s-11.57,15-13.31,19.67-7.52,42.23-7.52,42.23-5.78,7.52-5.21,9.84,12.73-2.89,13.89-6.37v-5.2l2.31-1.16,9.84-37s13.89-9.25,14.46-14.46S599.82,973.89,591.14,977.94Z" transform="translate(265.03 -589.89)"></path><path class="cls-30" d="M584.73,970.79s-16.15,10.62-19.63,14.67-13.88,40.5-13.88,40.5-6.36,6.36-4.63,7.52,10.42-1.74,11.57-4-1.73,1.16,1.16-2.32S574.94,993,574.94,993l16.78-10.41Z" transform="translate(265.03 -589.89)"></path><path class="cls-30" d="M582.53,964.28c0,2.2-1.34,11.35-1.34,12.68.89,2.85,5.52,10.7,11.64,11.94a28.24,28.24,0,0,0,7.79-.06c2.43-.45,5.69-5.31,7.12-7.45A28,28,0,0,0,605.58,971c-3.14-2.38-6.74-3.78-9.91-5.29C592.29,964.06,584.72,960.85,582.53,964.28Z" transform="translate(265.03 -589.89)"></path><path class="cls-41" d="M582.53,964.28c1,4.54,10.09,8.67,15,9,3.92.24,6.91-.56,8.09-2.27,2.78-6.41,8.38-22.82,7-27.16a43.83,43.83,0,0,0-10.52-10.14c-4.29-2.67-13.6-3.48-17.41-2.24-4,1.3-3.26,9.65-3.15,14.88C581.65,951,582.14,959,582.53,964.28Z" transform="translate(265.03 -589.89)"></path><path class="cls-42" d="M603.28,933.85s.47,4.6-2.38,7.13a67.86,67.86,0,0,1-3.8,9.51c-1.91,3.49-4.44,19.66-4.44,19.66s3.17,19.66,3.8,20.93,9.2-1.27,12-6c1.59-3.49,1.27-5.08,1.27-5.08l-1.59-9.83s5.71-20.92,5.71-23.78-.63-5.07-1.58-5.71S603.28,933.85,603.28,933.85Z" transform="translate(265.03 -589.89)"></path><path class="cls-42" d="M593,931.63s-3.8,5.23-4,8.56-1.11,9.35-1.11,9.35l-3.17,21.25-6.34,7.61L580,964.76s-.63-25.68.64-28.85a8.84,8.84,0,0,1,4.08-4.79C586,930.2,593,931.63,593,931.63Z" transform="translate(265.03 -589.89)"></path><polygon class="cls-42" points="855.47 349.19 856.26 353.47 855.31 355.53 855.78 357.27 851.82 376.14 852.29 379.15 855.47 376.77 858 357.59 859.43 355.21 859.27 353.78 862.6 351.72 855.47 349.19"></polygon><path class="cls-3" d="M600.8,931.68a4.75,4.75,0,0,1,2.64,1.9l.95,2a10.74,10.74,0,0,1-3.49,5.55,49.21,49.21,0,0,0-4.44,3.81l-1.11-2.86-3.17.95-.95-3.64-2.22.79a31.45,31.45,0,0,1,1.59-4.12C591.23,935,600.8,931.68,600.8,931.68Z" transform="translate(265.03 -589.89)"></path><path class="cls-43" d="M591.34,930.81c0-1.14,3.93-2.43,5.9-2.43s3.9.89,4,2c0,0,.39,3.26.69,5,.22,3-4.86,6-7.65,4.94a2.58,2.58,0,0,1-1.84-2Z" transform="translate(265.03 -589.89)"></path><path class="cls-27" d="M586.9,930.2a15.13,15.13,0,0,1,0-3.66,13.47,13.47,0,0,1-.33-1.88,9.49,9.49,0,0,1,8.36-9.79c5-.77,8.36,1.89,9.42,5.14a11.39,11.39,0,0,1-.35,7.7,8.91,8.91,0,0,1-3.72,3.88,3.32,3.32,0,0,1-.66,2.13c-1.88,1.64-6,4.67-8.14,3.87a4.64,4.64,0,0,1-2.38-1.59A23.25,23.25,0,0,1,586.9,930.2Z" transform="translate(265.03 -589.89)"></path><path class="cls-29" d="M591.49,913.71s-5.91,3.17-5.49,7.82c.63,3.18,3.8,3.81,6.34,3.81s3.81,2.11,4.65,2.32a7.64,7.64,0,0,0,1.69.22l1.06,2.11.63-3.38,1.06,4.44s3.38-2.33,4-5.92.63-7.19-1.48-9.51S596.15,911.18,591.49,913.71Z" transform="translate(265.03 -589.89)"></path><path class="cls-27" d="M600.26,926.82c.91-1.24,2.74-.79,2.74,1.18,0,2.3-1.56,3.59-2.74,3.59Z" transform="translate(265.03 -589.89)"></path><g class="cls-12"><polygon class="cls-44" points="739.6 449.54 735.35 447.07 735.24 398.57 739.49 401.04 739.6 449.54"></polygon><polygon class="cls-45" points="739.49 401.04 735.24 398.57 792.97 365.24 797.22 367.71 739.49 401.04"></polygon><polygon class="cls-46" points="797.22 367.71 797.33 416.21 739.6 449.54 739.49 401.04 797.22 367.71"></polygon></g><polygon class="cls-47" points="743.62 391.82 743.5 440.32 842.23 497.24 842.35 448.74 743.62 391.82"></polygon><polygon class="cls-48" points="743.56 418.95 842.28 475.87 842.35 448.74 743.62 391.82 743.56 418.95"></polygon><g class="cls-12"><polygon class="cls-44" points="838.66 501.95 834.41 499.49 834.29 450.99 838.54 453.45 838.66 501.95"></polygon><polygon class="cls-45" points="838.54 453.45 834.29 450.99 892.02 417.66 896.27 420.13 838.54 453.45"></polygon><polygon class="cls-49" points="896.27 420.13 896.38 468.62 838.66 501.95 838.54 453.45 896.27 420.13"></polygon></g><g class="cls-12"><polygon class="cls-50" points="904.19 418.86 904.17 423.42 838.72 461.46 838.73 456.9 904.19 418.86"></polygon><polygon class="cls-51" points="838.73 456.9 838.72 461.46 725.59 395.71 725.61 391.15 838.73 456.9"></polygon><polygon class="cls-52" points="904.19 418.86 838.73 456.9 725.61 391.15 791.06 353.11 904.19 418.86"></polygon></g><path class="cls-27" d="M594.18,987.63l-1.45,1.73a17.15,17.15,0,0,0-2.75,2.46c-.58.87-2,5.07-1.44,5.21a5.31,5.31,0,0,0,2,.43c1.16,0,4.77-2.17,5.5-3.18a12.39,12.39,0,0,0,1.15-3.72l.73-1.34Z" transform="translate(265.03 -589.89)"></path><path class="cls-3" d="M594.39,985.68l-1.3,2.27a8.88,8.88,0,0,0,4.12,2.61l.76.32,1.09-2.38Z" transform="translate(265.03 -589.89)"></path><path class="cls-34" d="M609.94,941.06a3.34,3.34,0,0,1,3.44,1,8.1,8.1,0,0,1,1.78,5c.23,5-1.16,20.39-1.6,22.34s-14.18,19.75-14.18,19.75-3.17,1.08-6.07-3.26l11.43-20s1.3-16.41,1.3-19.23C606,944.45,608.07,941.44,609.94,941.06Z" transform="translate(265.03 -589.89)"></path><path class="cls-3" d="M553.08,951.83l-2-.22a5.82,5.82,0,0,0-.6,4.34c.17.33.25.52.25.52l1.68.32A6,6,0,0,0,553.08,951.83Z" transform="translate(265.03 -589.89)"></path><path class="cls-27" d="M551,952.26l-1.81-.5L545.65,950s-1.66-1-1.66-.51a2.05,2.05,0,0,0,.94,1.74c.65.29.72.65.72.65l-2.31-.43s-3.19-.15-3.11.21a2.22,2.22,0,0,0,.94,1.38c.58.36,3.61,3,4.48,3.18a24.12,24.12,0,0,0,3.76-.22l.8-.21.94.14S552.16,954.8,551,952.26Z" transform="translate(265.03 -589.89)"></path><path class="cls-50" d="M546.88,976.93c2.77,1.6,2.77,4.18,0,5.76L529.25,993a10.94,10.94,0,0,1-10,0l-17.79-10.27c-2.75-1.58-2.77-4.17,0-5.76l17.67-10.27a11,11,0,0,1,10,0Z" transform="translate(265.03 -589.89)"></path><g class="cls-12"><path class="cls-53" d="M531.13,979.61v0a.61.61,0,0,1-.07.14h0l-.12.13-.09.07-.12.07-7.32,4.07-7.91-4.56v.55l7.9,4.56,7.33-4.06,0,0,.08-.05.09-.07h0l.08-.1h0l0,0,0-.05,0-.08h0v0l0,0a.28.28,0,0,0,0-.09h0v-.55A.77.77,0,0,1,531.13,979.61Z" transform="translate(265.03 -589.89)"></path><path class="cls-3" d="M530.74,978.88c.56.32.55.86,0,1.17l-7.32,4.07-7.91-4.56,6.19-4.71a2.17,2.17,0,0,1,2,0Z" transform="translate(265.03 -589.89)"></path></g><g class="cls-12"><path class="cls-54" d="M541.57,961.6a2.92,2.92,0,0,1,1.3,1.86l3.79,25.47c.1.67-.32.92-.94.56l-38.65-22.35a2.91,2.91,0,0,1-1.3-1.85L502,939.82c-.1-.67.32-.92.94-.56Z" transform="translate(265.03 -589.89)"></path><path class="cls-3" d="M547.29,988.69v-.07a.07.07,0,0,1,0,0v-.09L543.49,963h0a.09.09,0,0,0,0,0v-.1a.43.43,0,0,0,0-.05l0,0h0s0,0,0-.06a.08.08,0,0,1,0-.05l0,0,0-.05,0,0h0v0a.05.05,0,0,1,0,0l0,0,0,0,0,0,0,0v0h0v0l0,0v0l0,0,0,0,0,0,0,0,0,0,0,0h0v0l-.12-.16,0,0h0l0,0,0,0,0,0,0,0,0,0,0,0,0,0,0,0,0,0h0l0,0,0,0,0,0,0,0,0,0-.05,0h0l0,0,0,0-.05,0,0,0,0,0L503.54,938.8h0l0,0-.05,0,0,0,0,0h-.45l0,0-.1.05-.62.45a.35.35,0,0,1,.14-.06h.19a.79.79,0,0,1,.2,0h0a1,1,0,0,1,.23.11l38.65,22.34a1.88,1.88,0,0,1,.23.16h0l.22.19h0a2.18,2.18,0,0,1,.21.22h0l.19.24h0a2.13,2.13,0,0,1,.16.25h0l.14.26h0a2,2,0,0,1,.1.26h0a2.38,2.38,0,0,1,0,.26l3.79,25.47a.82.82,0,0,1,0,.21h0a.86.86,0,0,1,0,.17h0a1,1,0,0,1,0,.1.33.33,0,0,1-.12.14h0l.62-.45a.31.31,0,0,0,.11-.14l0,0a.14.14,0,0,0,0-.07h0s0,0,0,0,0,0,0-.05v-.08Z" transform="translate(265.03 -589.89)"></path></g><polygon class="cls-55" points="785.19 386.1 780.5 389.66 788.41 394.23 793.95 391.15 785.19 386.1"></polygon><polygon class="cls-53" points="790.08 378.55 788.41 394.83 780.48 390.23 783.58 375 790.08 378.55"></polygon><polygon class="cls-50" points="830.9 423.87 842.98 430.88 862.51 419.61 850.43 412.59 830.9 423.87"></polygon><polygon class="cls-5" points="828.69 419.7 828.7 422.69 840.77 429.71 840.76 426.72 828.69 419.7"></polygon><polygon class="cls-4" points="840.76 426.72 840.77 429.71 860.3 418.43 860.29 415.44 840.76 426.72"></polygon><polygon class="cls-3" points="828.69 419.7 840.76 426.72 860.29 415.44 848.22 408.43 828.69 419.7"></polygon><polygon class="cls-3" points="813.7 409.91 825.77 416.93 845.3 405.65 833.23 398.64 813.7 409.91"></polygon><path class="cls-5" d="M534.24,1073.43c6.65,3.84,6.69,10.07.08,13.91l-31,18c-6.61,3.85-17.36,3.85-24,0l-31.23-18c-6.65-3.84-6.69-10.07-.08-13.91l31-18c6.61-3.84,17.36-3.84,24,0Z" transform="translate(265.03 -589.89)"></path><path class="cls-6" d="M485.08,1095.37a2.62,2.62,0,1,1-2.62-2.62A2.62,2.62,0,0,1,485.08,1095.37Z" transform="translate(265.03 -589.89)"></path><path class="cls-6" d="M461.17,1080.88a2.62,2.62,0,1,1-2.62-2.62A2.62,2.62,0,0,1,461.17,1080.88Z" transform="translate(265.03 -589.89)"></path><path class="cls-6" d="M509,1080.88a2.62,2.62,0,1,1-2.62-2.62A2.62,2.62,0,0,1,509,1080.88Z" transform="translate(265.03 -589.89)"></path><path class="cls-56" d="M486.5,1080.5a4.38,4.38,0,0,1-.42.28,3.81,3.81,0,0,1-.57.29l-1.26,12.15h-3.43l-1.4-12.15c-.19-.08-.36-.17-.53-.26a4.1,4.1,0,0,1-.46-.31l-21-.77v1.3l21,.77a5.4,5.4,0,0,0,.47.3,3.76,3.76,0,0,0,.53.27h0l1.39,12.14h3.44l1.26-12.14a5.85,5.85,0,0,0,.56-.29l0,0a3.77,3.77,0,0,0,.39-.26l21-.77v-1.3Z" transform="translate(265.03 -589.89)"></path><path class="cls-8" d="M507.45,1077.74v2l-21,.77a4.28,4.28,0,0,1-1,.57l-1.26,12.15h-3.43l-1.4-12.15c-.19-.08-.36-.17-.53-.26a4.1,4.1,0,0,1-.46-.31l-21-.77v-2l21-.77a4.85,4.85,0,0,1,1-.57l1.26-12.14h3.44l1.39,12.15a4.53,4.53,0,0,1,.54.27,3.58,3.58,0,0,1,.45.31Z" transform="translate(265.03 -589.89)"></path><path class="cls-57" d="M484.42,1067.2a1.82,1.82,0,0,0-.4-.3,3.83,3.83,0,0,0-3.46,0,1.82,1.82,0,0,0-.4.3h-.31v11.52a1.21,1.21,0,0,0,.71,1,3.83,3.83,0,0,0,3.46,0,1.2,1.2,0,0,0,.72-1V1067.2Z" transform="translate(265.03 -589.89)"></path><path class="cls-10" d="M484,1066.2a1.05,1.05,0,0,1,0,2,3.83,3.83,0,0,1-3.46,0,1.06,1.06,0,0,1,0-2A3.83,3.83,0,0,1,484,1066.2Z" transform="translate(265.03 -589.89)"></path><path class="cls-58" d="M485.41,1059.12a3.6,3.6,0,0,0-1.65-.88,5.64,5.64,0,0,0-2.94,0,3.65,3.65,0,0,0-1.65.88h-.46v8.75c0,.73.67,1.47,2,1.87a5.59,5.59,0,0,0,3.14,0c1.34-.4,2-1.14,2-1.87v-8.75Z" transform="translate(265.03 -589.89)"></path><ellipse class="cls-10" cx="747.32" cy="469.22" rx="3.51" ry="2.09"></ellipse><g class="cls-12"><polygon class="cls-40" points="751.58 475.55 724.7 459.93 749.36 445.7 776.23 461.31 751.58 475.55"></polygon></g><path class="cls-29" d="M501.25,1068.64s-1.72,5.32-.47,6.57a4,4,0,0,0,4,1.2,19.45,19.45,0,0,0,2.24-.88l.37-1.1.41.73a4.83,4.83,0,0,0,1.46-.57c.84-.47,3.24-1.41,4.23-2s2.77-1.72,2.92-3.07-4.75-.89-6.05-.84a11.36,11.36,0,0,1-2.61-.47c-.47,0-5.53.63-5.53.63" transform="translate(265.03 -589.89)"></path><path class="cls-29" d="M483.77,1038.35s16.79-5.27,21.1-4.07,6.24,2.63,6.48,4.55-2.88,29.5-2.88,29.5a6.4,6.4,0,0,1-6,1.92c-2.88-.72-3.12-1.44-3.12-1.44s0-16.55-.48-19a12.62,12.62,0,0,1,.24-5s-10.07,3.83-12.95,1.68S481.37,1041.23,483.77,1038.35Z" transform="translate(265.03 -589.89)"></path><path class="cls-30" d="M479.3,1040.83s1.91,8.63,7,12.47,19.5-.32,19.5-.32l3.36-1.2,4.08.48s-.4,14.47-.08,16.39,1.28,11.19,1,12.15c0,1,4.47,2.56,6.71,1l1.92-1.28s3.2-24.3,2.88-29.42-2.88-7.35-4.8-8.31-24.62-2.24-25.9-2.56S479.3,1040.83,479.3,1040.83Z" transform="translate(265.03 -589.89)"></path><path class="cls-59" d="M501.77,1008.82a5.18,5.18,0,0,0-2.3-4.56c-3.36-2.24-7.94-5.09-10.91-6.65-3.67-1.94-7.47-4-9.51-4.17-5.66-.53-9.07,4.74-8.54,11.66a62.85,62.85,0,0,0,3,13.71,42.09,42.09,0,0,1,1.26,9,14.29,14.29,0,0,1-.62,4.5,40.67,40.67,0,0,0-1.33,4,3.3,3.3,0,0,0,1.1,3.5c2.37,1.93,7.07,5.11,12.65,5.49,8.07.55,11.18-1.11,11.18-1.11l1.66-.36a2.71,2.71,0,0,0,1.65-2c.16-1.32-1.25-7.6-1.54-9.81.46-4.57,1.38-11.29,1.67-14.36C501.43,1014.81,501.65,1011.58,501.77,1008.82Z" transform="translate(265.03 -589.89)"></path><path class="cls-27" d="M495.82,991.66c.57-1.77.76-8.94.05-11.44a8.24,8.24,0,0,0-8.69-5.76c-4.49.22-7.78,2.19-8.88,5.53a12.16,12.16,0,0,0,.69,8,10.65,10.65,0,0,0,4.66,4.27,49.32,49.32,0,0,0,7.36,3.22C493.31,996.1,495,994.22,495.82,991.66Z" transform="translate(265.03 -589.89)"></path><path class="cls-27" d="M482.64,990.42c2.25-.9,7.39.08,9.19,1.55,0,0-1.78,7.15-1.8,7.15-3.27.17-7.93-1.46-9-2.81Z" transform="translate(265.03 -589.89)"></path><path class="cls-27" d="M491.83,987.07c-.94-1.27-2.81-.82-2.81,1.21,0,2.36,1.6,3.69,2.81,3.69C491.83,990.46,491.89,988.89,491.83,987.07Z" transform="translate(265.03 -589.89)"></path><path class="cls-59" d="M481.65,994.1s2.66,2.29,9,3.21l1.19,2.11a15.58,15.58,0,0,1-5.78.45,9.68,9.68,0,0,1-6-3.39l-.27-.55Z" transform="translate(265.03 -589.89)"></path><path class="cls-32" d="M476.7,981.62s-.6-5.55,4.49-7.89,11.74-.78,14.36,2.8c1.79,3-.69,5.5-1.24,6.61s0,3.3-.55,4.12.14,2.07.14,2.07l-1,.82a10.4,10.4,0,0,0-1.51-2.2c-.55-.41-2.25,1.1-1.88,2.57a4.17,4.17,0,0,0,1.74,2.29l-1.1.74a6.63,6.63,0,0,1-3.39.64,12.27,12.27,0,0,1-5.05-1.38,13.86,13.86,0,0,1-4.77-4.95C475.87,985.47,475.6,983.18,476.7,981.62Z" transform="translate(265.03 -589.89)"></path><polygon class="cls-38" points="745.95 484.19 719.08 468.57 715.88 424.76 742.76 440.38 745.95 484.19"></polygon><polygon class="cls-40" points="742.76 440.38 715.88 424.76 720.93 421.85 747.8 437.46 742.76 440.38"></polygon><polygon class="cls-39" points="747.8 437.46 751.58 475.55 776.23 461.31 777.86 463.53 777.87 465.76 752.08 480.65 745.95 484.19 742.76 440.38 747.8 437.46"></polygon><path class="cls-29" d="M515.64,1081.35s-1.72,5.32-.47,6.57a4,4,0,0,0,4,1.2,20.37,20.37,0,0,0,2.24-.88l.36-1.1.42.73a4.83,4.83,0,0,0,1.46-.57c.84-.47,3.24-1.41,4.23-2s2.76-1.72,2.92-3.08-4.75-.88-6-.83a11.24,11.24,0,0,1-2.61-.47c-.47,0-5.53.63-5.53.63" transform="translate(265.03 -589.89)"></path><path class="cls-27" d="M529.49,1010.62s2.72-3.36,3.84-3.52,4.64-.48,5.91,0,1,1.44.64,2.24-2.23,2.08-3.83,2.4l-1.6.32-1.92,1Z" transform="translate(265.03 -589.89)"></path><path class="cls-59" d="M495.92,1002.14a8.73,8.73,0,0,1,5.44,3.84c1.91,3.2,8.95,10.55,10.55,11.19s15.66-7,17.58-7.35a3.31,3.31,0,0,1,3.84,2.87c.32,1.92-14.39,14.39-19.82,14.71s-14.39-7.35-18.23-10.87S490.81,1002.14,495.92,1002.14Z" transform="translate(265.03 -589.89)"></path><line class="cls-60" x1="38.35" y1="687.2" x2="86.8" y2="718.03"></line><path class="cls-3" d="M-61.2,1286.05h0a2.67,2.67,0,0,0,2.68,0l4-2.34a2.67,2.67,0,0,0,0-4.62h0a2.67,2.67,0,0,0-2.68,0l-4,2.33A2.67,2.67,0,0,0-61.2,1286.05Z" transform="translate(265.03 -589.89)"></path><path class="cls-3" d="M-48.48,1278.71h0a2.67,2.67,0,0,0,2.68,0l52.25-30.17a2.67,2.67,0,0,0,0-4.62h0a2.67,2.67,0,0,0-2.68,0l-52.25,30.17A2.68,2.68,0,0,0-48.48,1278.71Z" transform="translate(265.03 -589.89)"></path><path class="cls-3" d="M-1.74,921.73h0a2.67,2.67,0,0,0,2.68,0l4-2.33a2.68,2.68,0,0,0,0-4.63H5a2.67,2.67,0,0,0-2.68,0l-4,2.33A2.67,2.67,0,0,0-1.74,921.73Z" transform="translate(265.03 -589.89)"></path><path class="cls-3" d="M11,914.38h0a2.67,2.67,0,0,0,2.68,0l52.24-30.16a2.67,2.67,0,0,0,0-4.63h0a2.67,2.67,0,0,0-2.68,0L11,909.75A2.67,2.67,0,0,0,11,914.38Z" transform="translate(265.03 -589.89)"></path><path class="cls-3" d="M578.41,1182.23h0a2.67,2.67,0,0,0,2.68,0l4-2.33a2.67,2.67,0,0,0,0-4.62h0a2.65,2.65,0,0,0-2.68,0l-4,2.33A2.67,2.67,0,0,0,578.41,1182.23Z" transform="translate(265.03 -589.89)"></path><path class="cls-3" d="M591.14,1174.88h0a2.7,2.7,0,0,0,2.68,0l52.25-30.17a2.68,2.68,0,0,0,0-4.63h0a2.67,2.67,0,0,0-2.68,0l-52.25,30.17A2.67,2.67,0,0,0,591.14,1174.88Z" transform="translate(265.03 -589.89)"></path><path class="cls-3" d="M885.16,937.77h0a2.65,2.65,0,0,0,2.68,0l4-2.33a2.68,2.68,0,0,0,0-4.63h0a2.67,2.67,0,0,0-2.68,0l-4,2.33A2.67,2.67,0,0,0,885.16,937.77Z" transform="translate(265.03 -589.89)"></path><path class="cls-3" d="M897.89,930.43h0a2.67,2.67,0,0,0,2.68,0l52.25-30.17a2.67,2.67,0,0,0,0-4.62h0a2.7,2.7,0,0,0-2.68,0L897.89,925.8A2.67,2.67,0,0,0,897.89,930.43Z" transform="translate(265.03 -589.89)"></path><polyline class="cls-2" points="62.89 403.1 62.89 510.7 14.75 538.07 14.75 568.08"></polyline><polygon class="cls-5" points="626.68 274.61 626.51 334.89 592.16 315.06 592.33 254.78 626.68 274.61"></polygon><polygon class="cls-61" points="622.19 277.14 623.38 276.45 623.2 336.73 622.02 337.42 622.19 277.14"></polygon><polygon class="cls-3" points="587.84 257.31 589.03 256.62 623.38 276.45 622.19 277.14 587.84 257.31"></polygon><polygon class="cls-62" points="622.19 277.14 622.02 337.42 587.67 317.59 587.84 257.31 622.19 277.14"></polygon><polygon class="cls-33" points="595.15 270.23 595.15 271.1 615.14 282.64 615.14 281.78 595.15 270.23"></polygon><polygon class="cls-33" points="603.8 278.69 603.8 279.55 615.13 286.09 615.13 285.23 603.8 278.69"></polygon><polygon class="cls-33" points="596.75 291.55 596.75 292.41 615.08 303 615.09 302.14 596.75 291.55"></polygon><polygon class="cls-33" points="603.76 291.78 603.76 292.64 615.09 299.18 615.1 298.32 603.76 291.78"></polygon><polygon class="cls-33" points="600.75 286.57 600.75 287.44 615.1 295.73 615.11 294.86 600.75 286.57"></polygon><polygon class="cls-33" points="609.92 286.05 609.92 286.91 615.12 289.92 615.12 289.06 609.92 286.05"></polygon><path class="cls-63" d="M344.57,895.49c-3.19-1.85-6.2-1.38-7.45,1.53-1.56,3.62.21,9.73,4,14l.87-2c-2.54-3-3.73-7.17-2.65-9.67.88-2,3-2.38,5.26-1.08a9.24,9.24,0,0,1,1.65,1.24l.87-2A12.86,12.86,0,0,0,344.57,895.49Z" transform="translate(265.03 -589.89)"></path><path class="cls-64" d="M347.09,897.41l-.87,2,.41.41c2.89,3,4.3,7.56,3.15,10.23,0,.09-.08.18-.13.27a.93.93,0,0,0,0,.1c-.84,1.47-2.44,1.83-4.22,1.12a7.3,7.3,0,0,1-.85-.41l-.22-.14-.35-.23,0,0c-.23-.16-.45-.34-.68-.53l-.09-.08-.25-.23-.09-.08-.33-.32L342,909l-.87,2c.17.19.33.37.51.55s.31.31.46.46l.14.12.36.33.12.1c.32.28.65.53,1,.76l.08.05.44.29.05,0,.3.18c.24.14.48.27.72.38l.51.23c2.71,1.07,5.14.39,6.23-2.13,1.62-3.79-.38-10.29-4.48-14.52Z" transform="translate(265.03 -589.89)"></path><path class="cls-64" d="M328.31,897.94v.44a.33.33,0,0,1-.5.29l-2.07-1.19a.32.32,0,0,1-.17-.29v-.44a.33.33,0,0,1,.5-.29l2.07,1.19A.34.34,0,0,1,328.31,897.94Z" transform="translate(265.03 -589.89)"></path><path class="cls-64" d="M334.86,903.87v.44a.34.34,0,0,1-.5.29l-8.62-4.94a.32.32,0,0,1-.17-.29v-.44a.33.33,0,0,1,.5-.29l8.62,4.94A.34.34,0,0,1,334.86,903.87Z" transform="translate(265.03 -589.89)"></path><g class="cls-65"><path class="cls-64" d="M331.31,906.19v.44a.34.34,0,0,1-.51.29L325.74,904a.34.34,0,0,1-.17-.29v-.43a.34.34,0,0,1,.5-.3l5.07,2.91A.34.34,0,0,1,331.31,906.19Z" transform="translate(265.03 -589.89)"></path></g><path class="cls-64" d="M333.52,905.28v.44a.33.33,0,0,1-.5.29l-7.28-4.17a.35.35,0,0,1-.17-.3v-.43a.33.33,0,0,1,.5-.29l7.28,4.17A.32.32,0,0,1,333.52,905.28Z" transform="translate(265.03 -589.89)"></path><path class="cls-25" d="M229.61,711.74a1.77,1.77,0,0,1,.76,1.06l1.33,5.55a4.89,4.89,0,0,0,2.09,2.95l4.36,2.52c.77.44,1.08,1.76.46,1.91l-3.54.92c-.77.19-1.1,1.15-.8,2.36l1.32,5.54c.18.74-.26,1-.75.76a1.51,1.51,0,0,1-.47-.45l-3.51-5a4.38,4.38,0,0,0-1.29-1.23,1.84,1.84,0,0,0-1.3-.27l-3.53.91a.63.63,0,0,1-.47-.09,1.65,1.65,0,0,1-.75-1.63l1.36-4a4,4,0,0,0-.8-3.29l-3.51-5c-.61-.87-.3-1.82.47-1.38l4.35,2.51c1,.55,1.81.34,2.11-.53l1.36-4C229,711.59,229.29,711.56,229.61,711.74Z" transform="translate(265.03 -589.89)"></path><path class="cls-25" d="M252,724.25a1.76,1.76,0,0,1,.75,1.06l1.34,5.54a4.91,4.91,0,0,0,2.09,3l4.35,2.51c.77.45,1.08,1.76.47,1.92l-3.54.91c-.78.19-1.1,1.16-.81,2.37l1.33,5.53c.18.74-.26,1.05-.75.76a1.51,1.51,0,0,1-.47-.45l-3.51-5a4.24,4.24,0,0,0-1.3-1.22,1.77,1.77,0,0,0-1.29-.27l-3.53.9a.63.63,0,0,1-.47-.09,1.65,1.65,0,0,1-.76-1.63l1.37-4a4,4,0,0,0-.8-3.29l-3.51-5c-.62-.86-.3-1.82.47-1.37l4.35,2.51c.95.55,1.81.34,2.1-.53l1.37-4C251.39,724.09,251.71,724.07,252,724.25Z" transform="translate(265.03 -589.89)"></path><path class="cls-25" d="M274.44,736.76a1.71,1.71,0,0,1,.76,1.06l1.34,5.54a4.84,4.84,0,0,0,2.09,3l4.35,2.51c.77.44,1.08,1.76.46,1.92l-3.54.91c-.77.19-1.1,1.15-.8,2.36l1.33,5.54c.18.74-.26,1.05-.76.76a1.63,1.63,0,0,1-.47-.45l-3.51-5a4.38,4.38,0,0,0-1.29-1.23,1.84,1.84,0,0,0-1.3-.27l-3.52.91a.61.61,0,0,1-.47-.09,1.64,1.64,0,0,1-.76-1.63l1.36-4a4,4,0,0,0-.8-3.29l-3.51-5c-.61-.87-.3-1.82.48-1.38l4.35,2.52c.95.55,1.81.33,2.1-.54l1.36-4C273.81,736.6,274.13,736.57,274.44,736.76Z" transform="translate(265.03 -589.89)"></path><path class="cls-25" d="M296.86,749.26a1.77,1.77,0,0,1,.76,1.06l1.33,5.55a4.92,4.92,0,0,0,2.09,3l4.35,2.51c.78.45,1.09,1.77.47,1.92l-3.54.91c-.77.2-1.1,1.16-.8,2.37l1.32,5.54c.18.73-.26,1-.75.76a1.45,1.45,0,0,1-.47-.46l-3.51-5a4.25,4.25,0,0,0-1.29-1.23,1.79,1.79,0,0,0-1.3-.27l-3.53.9a.62.62,0,0,1-.47-.08,1.65,1.65,0,0,1-.75-1.64l1.36-4a4,4,0,0,0-.8-3.29l-3.51-5c-.62-.87-.3-1.83.47-1.38l4.35,2.51c1,.55,1.81.34,2.11-.53l1.36-4C296.22,749.1,296.54,749.08,296.86,749.26Z" transform="translate(265.03 -589.89)"></path><path class="cls-25" d="M319.28,761.77a1.73,1.73,0,0,1,.75,1.06l1.34,5.54a4.87,4.87,0,0,0,2.09,3l4.35,2.51c.77.44,1.08,1.76.47,1.92l-3.54.91c-.78.19-1.1,1.15-.81,2.37l1.33,5.53c.18.74-.26,1-.76.76a1.61,1.61,0,0,1-.46-.45l-3.51-5a4.24,4.24,0,0,0-1.3-1.22,1.72,1.72,0,0,0-1.29-.27l-3.53.9a.63.63,0,0,1-.47-.09,1.65,1.65,0,0,1-.76-1.63l1.36-4a4,4,0,0,0-.79-3.3l-3.52-5c-.61-.87-.29-1.82.48-1.37l4.35,2.51c.95.55,1.81.33,2.1-.54l1.37-4C318.64,761.61,319,761.58,319.28,761.77Z" transform="translate(265.03 -589.89)"></path><path class="cls-66" d="M232.51,910.93c-31.39-18.12-82.11-18.12-113.28,0s-31,47.5.37,65.62,82.1,18.11,113.27,0S263.87,929,232.51,910.93ZM212.74,964c-20.13,11.7-52.89,11.7-73.14,0s-20.37-30.67-.24-42.36,52.88-11.7,73.14,0S232.87,952.29,212.74,964Z" transform="translate(265.03 -589.89)"></path><g class="cls-12"><path class="cls-66" d="M234,900.13l0,10.57-.32-.19,0-10.57Z" transform="translate(265.03 -589.89)"></path><path class="cls-66" d="M117.53,900.8l0,10.57-.23.14,0-10.56Z" transform="translate(265.03 -589.89)"></path><path class="cls-66" d="M243.15,917.32l.43.37Z" transform="translate(265.03 -589.89)"></path><path class="cls-66" d="M236.82,901.93l0,10.56-.37-.24,0-10.57Z" transform="translate(265.03 -589.89)"></path><path class="cls-66" d="M115.53,902.11l0,10.56-.35.24,0-10.56Z" transform="translate(265.03 -589.89)"></path><path class="cls-66" d="M115.18,902.35l.35-.24Z" transform="translate(265.03 -589.89)"></path><path class="cls-66" d="M107.53,919.1l.46-.44Z" transform="translate(265.03 -589.89)"></path><path class="cls-66" d="M112,915.21l0-10.56.37-.29,0,10.56Z" transform="translate(265.03 -589.89)"></path><path class="cls-66" d="M112,915.21l0,0,0-10.56,0,0Z" transform="translate(265.03 -589.89)"></path><path class="cls-66" d="M104.77,922l.3-.35Z" transform="translate(265.03 -589.89)"></path><path class="cls-66" d="M243.28,917.43l-.13-.11,0-10.57.13.12Z" transform="translate(265.03 -589.89)"></path><path class="cls-66" d="M243.28,917.43l0-10.56.28.25,0,10.56Z" transform="translate(265.03 -589.89)"></path><path class="cls-66" d="M243.56,917.68l0-10.56h0l0,10.56Z" transform="translate(265.03 -589.89)"></path><path class="cls-66" d="M104,922.89l.32-.38Z" transform="translate(265.03 -589.89)"></path><path class="cls-66" d="M244.34,918.39l-.11-.11,0-10.56.11.1Z" transform="translate(265.03 -589.89)"></path><path class="cls-66" d="M244.34,918.39l0-10.57.34.31,0,10.57Z" transform="translate(265.03 -589.89)"></path><path class="cls-66" d="M244.68,918.7l0-10.57h0l0,10.57Z" transform="translate(265.03 -589.89)"></path><path class="cls-66" d="M108,918.66l0-10.56h0l0,10.56Z" transform="translate(265.03 -589.89)"></path><path class="cls-66" d="M107.56,919.07l0-10.56.42-.41,0,10.56Z" transform="translate(265.03 -589.89)"></path><path class="cls-66" d="M107.56,919.07l0,0,0-10.56,0,0Z" transform="translate(265.03 -589.89)"></path><path class="cls-66" d="M107,909.05l0,10.57-.41.41,0-10.57Z" transform="translate(265.03 -589.89)"></path><path class="cls-66" d="M106.45,909.65l.18-.19Z" transform="translate(265.03 -589.89)"></path><path class="cls-66" d="M106.63,909.46l0,10.57-.18.18,0-10.56Z" transform="translate(265.03 -589.89)"></path><path class="cls-66" d="M106.45,909.65l0,10.56a2.39,2.39,0,0,1-.22.23l0-10.56Z" transform="translate(265.03 -589.89)"></path><path class="cls-66" d="M106,910.11l.21-.23Z" transform="translate(265.03 -589.89)"></path><path class="cls-66" d="M106.23,909.88l0,10.56-.21.23,0-10.56Z" transform="translate(265.03 -589.89)"></path><path class="cls-66" d="M106,910.11l0,10.56-.17.18,0-10.56Z" transform="translate(265.03 -589.89)"></path><path class="cls-66" d="M105.85,910.29l0,10.56-.28.3,0-10.56Z" transform="translate(265.03 -589.89)"></path><path class="cls-66" d="M105.57,910.59l.28-.3Z" transform="translate(265.03 -589.89)"></path><path class="cls-66" d="M105.57,910.59l0,10.56-.1.12,0-10.57Z" transform="translate(265.03 -589.89)"></path><path class="cls-66" d="M105.47,910.7l0,10.57-.3.34,0-10.57C105.27,910.93,105.37,910.82,105.47,910.7Z" transform="translate(265.03 -589.89)"></path><path class="cls-66" d="M105.16,911l0,10.57-.06.07,0-10.56Z" transform="translate(265.03 -589.89)"></path><path class="cls-66" d="M105.1,911.12l0,10.56-.3.35,0-10.56Z" transform="translate(265.03 -589.89)"></path><path class="cls-66" d="M104.8,911.47l0,10.56-.06.07,0-10.57Z" transform="translate(265.03 -589.89)"></path><path class="cls-66" d="M104.74,911.53l0,10.57-.32.37,0-10.56C104.52,911.78,104.63,911.66,104.74,911.53Z" transform="translate(265.03 -589.89)"></path><path class="cls-66" d="M104.42,911.91l0,10.56,0,0,0-10.56Z" transform="translate(265.03 -589.89)"></path><path class="cls-66" d="M104.39,912l0,10.56-.32.38,0-10.56C104.18,912.2,104.28,912.07,104.39,912Z" transform="translate(265.03 -589.89)"></path><path class="cls-66" d="M104.07,912.33l0,10.56,0,0,0-10.56Z" transform="translate(265.03 -589.89)"></path><path class="cls-66" d="M103.72,912.76l.32-.39Z" transform="translate(265.03 -589.89)"></path><path class="cls-66" d="M104,912.37l0,10.56-.32.4,0-10.57Z" transform="translate(265.03 -589.89)"></path><path class="cls-66" d="M103.72,912.76l0,10.57,0,0,0-10.56Z" transform="translate(265.03 -589.89)"></path><path class="cls-66" d="M102.46,925l0-10.56c.38-.54.79-1.07,1.21-1.6l0,10.56C103.25,923.88,102.84,924.42,102.46,925Z" transform="translate(265.03 -589.89)"></path><path class="cls-66" d="M100.53,927.94l0-10.57a35,35,0,0,1,1.93-3l0,10.56A35.18,35.18,0,0,0,100.53,927.94Z" transform="translate(265.03 -589.89)"></path><path class="cls-66" d="M131.26,918.05c.16-.18.33-.36.5-.53C131.59,917.69,131.42,917.87,131.26,918.05Z" transform="translate(265.03 -589.89)"></path><path class="cls-66" d="M126,937.08l.18-.51C126.1,936.74,126,936.91,126,937.08Z" transform="translate(265.03 -589.89)"></path><path class="cls-66" d="M98.63,931.73l0-10.56a32.84,32.84,0,0,1,1.9-3.8l0,10.57A32.72,32.72,0,0,0,98.63,931.73Z" transform="translate(265.03 -589.89)"></path><path class="cls-66" d="M128.62,921.32l.28-.4Z" transform="translate(265.03 -589.89)"></path><path class="cls-66" d="M128.25,921.88l.27-.41Z" transform="translate(265.03 -589.89)"></path><path class="cls-66" d="M128.16,922l.09-.15Z" transform="translate(265.03 -589.89)"></path><path class="cls-66" d="M127.9,922.45c.08-.14.17-.28.26-.42C128.07,922.17,128,922.31,127.9,922.45Z" transform="translate(265.03 -589.89)"></path><path class="cls-66" d="M127.26,923.59c.08-.15.15-.29.24-.44C127.41,923.3,127.34,923.44,127.26,923.59Z" transform="translate(265.03 -589.89)"></path><path class="cls-66" d="M127,924.17l.23-.46Z" transform="translate(265.03 -589.89)"></path><path class="cls-66" d="M97.53,934.82l0-10.56a30,30,0,0,1,1.1-3.09l0,10.56A32.52,32.52,0,0,0,97.53,934.82Z" transform="translate(265.03 -589.89)"></path><path class="cls-66" d="M126.45,925.33c.06-.16.13-.32.2-.48C126.58,925,126.51,925.17,126.45,925.33Z" transform="translate(265.03 -589.89)"></path><path class="cls-66" d="M126.22,925.92c.06-.16.12-.33.19-.49C126.34,925.59,126.28,925.76,126.22,925.92Z" transform="translate(265.03 -589.89)"></path><path class="cls-66" d="M125.81,927.12l.18-.54Z" transform="translate(265.03 -589.89)"></path><path class="cls-66" d="M125.65,927.75v0Z" transform="translate(265.03 -589.89)"></path><path class="cls-67" d="M221.28,917.75l-.32-.31-.31-.31-.33-.31-.33-.32-.34-.3-.35-.31-.35-.3c-5.91-4.15-6.07-4.24-6.22-4.33-20.14-11.63-52.71-11.63-72.73,0l-.46.27c-6.91,5.14-7,5.23-7.09,5.31l-.34.33-.32.32a23,23,0,0,0-6.15,10.35v-.1l-.18.76c-.06.27-.11.55-.16.82v.18h0v-.18c0,.24-.06.48-.09.73s0,.25,0,.37a17.27,17.27,0,0,0-.1,1.75l0,10.57v0a17.14,17.14,0,0,1,.1-1.76c0-.13,0-.25.05-.38a22,22,0,0,1,6.58-12.55l.33-.33.33-.32c.09-.09.18-.17,7.09-5.31l.46-.27c20-11.64,52.59-11.64,72.73,0,.15.09.31.18,6.22,4.33l.35.3.35.31.34.31.33.31.33.31.31.31.32.32c4.43,4.55,6.64,9.63,6.63,14.71l0-10.56C227.92,927.39,225.71,922.31,221.28,917.75Z" transform="translate(265.03 -589.89)"></path><path class="cls-66" d="M256.54,943.11c0-7.89-3.41-15.79-10.3-22.87l0-10.57c6.88,7.08,10.32,15,10.3,22.88C256.56,935.71,256.54,939.94,256.54,943.11Z" transform="translate(265.03 -589.89)"></path><path class="cls-66" d="M125.24,945.51a18.45,18.45,0,0,1-.21-2.77l0-10.56a18.32,18.32,0,0,0,.21,2.76Z" transform="translate(265.03 -589.89)"></path><path class="cls-66" d="M125.24,945.51c0-.33,0-.78,0-1.11,0-.17,0-.4,0-.57v-3c0-1.58,0-3.15,0-4.72v-1.13c.09.55.2,1.1.34,1.64l0,10.57C125.44,946.6,125.33,946.05,125.24,945.51Z" transform="translate(265.03 -589.89)"></path><path class="cls-66" d="M125.58,947.15a5.3,5.3,0,0,1,0-.69v-.7l0-9.18a21,21,0,0,0,3,6.53l0,10.56A20.83,20.83,0,0,1,125.58,947.15Z" transform="translate(265.03 -589.89)"></path><path class="cls-66" d="M128.56,953.67a2.7,2.7,0,0,1,0-.75v-2.48c0-1.07,0-2.15,0-3.22v-4.11c.48.71,1,1.41,1.59,2.11l0,10.56A23.78,23.78,0,0,1,128.56,953.67Z" transform="translate(265.03 -589.89)"></path><path class="cls-66" d="M130.15,955.78s0,0,0-.06v-1.05l0-9.45a35.46,35.46,0,0,0,8.3,7.1l0,10.57A35.72,35.72,0,0,1,130.15,955.78Z" transform="translate(265.03 -589.89)"></path><path class="cls-67" d="M118.28,964.06c-.56-.34-1.09-.7-1.63-1s-1-.65-1.49-1-1.17-.82-1.74-1.24-1-.75-1.46-1.13c-.83-.65-1.63-1.32-2.39-2-.43-.37-.85-.75-1.26-1.13s-.91-.87-1.34-1.31-.84-.88-1.25-1.32q-.89-1-1.68-1.95c-.36-.44-.71-.88-1-1.33s-.64-.87-.94-1.3-.7-1.06-1-1.6-.69-1.16-1-1.75-.55-1-.79-1.57-.38-.83-.56-1.24c-.27-.64-.5-1.28-.72-1.92-.3-.87-.57-1.75-.79-2.63l0-.14c-.09-.38-.15-.75-.22-1.12.17-.85.36-1.69.61-2.53l0-10.56a27.62,27.62,0,0,0-1.15,7c0,.27,0,.53,0,.8v0l0,10.56a26.7,26.7,0,0,0,.33,4.27.64.64,0,0,1,0,.07c.1.68.24,1.36.4,2l0,.14c.08.34.16.68.25,1v-.12h0v.12c.09.32.18.64.28.95s.18.44.26.67c.22.64.45,1.28.72,1.91.18.42.36.83.56,1.24s.51,1,.79,1.57.65,1.17,1,1.75.66,1.07,1,1.6.62.87.94,1.3.68.89,1,1.33q.8,1,1.68,2c.41.44.82.89,1.25,1.33s.88.87,1.34,1.3l1.26,1.14c.76.67,1.56,1.33,2.39,2,.48.38,1,.76,1.46,1.14s1.15.83,1.74,1.24l1.49,1c.48.31.92.63,1.41.94v0l.21.14Z" transform="translate(265.03 -589.89)"></path><polygon class="cls-67" points="403.5 362.43 403.47 372.99 383.28 384.73 383.31 374.17 403.5 362.43"></polygon><path class="cls-66" d="M234.41,975h0l0-10.57h0Z" transform="translate(265.03 -589.89)"></path><path class="cls-67" d="M256.4,945.63q.11-1.07.12-2.13c0-.13,0-.26,0-.39l0-10.56s0,.06,0,.09v-.09c0,.13,0,.26,0,.39q0,1.06-.12,2.13c0,.33-.08.66-.13,1-.07.54-.15,1.08-.26,1.61s-.17.93-.28,1.39a.14.14,0,0,0,0,.07c-.17.65-.36,1.31-.57,2l-.12.36c-.2.57-.41,1.15-.64,1.72l-.15.35c-.27.65-.57,1.3-.89,1.94l0,0a35.92,35.92,0,0,1-2.43,4.08l-.15.22c-.41.58-.84,1.17-1.3,1.75l-.21.28c-.48.59-1,1.18-1.49,1.77l-.18.2a51,51,0,0,1-6,5.61l-.15.12c-.72.58-1.47,1.15-2.24,1.71l-.1.07c-1.64,1.19-3.39,2.34-5.27,3.45l0,10.56.56-.34v0c1.67-1,3.23-2.06,4.71-3.13l.1-.07c.77-.56,1.51-1.13,2.23-1.7l.16-.13a50.2,50.2,0,0,0,5.95-5.61l.18-.2.62-.69.36-.44c.18-.21.34-.43.51-.64l.21-.28c.46-.58.89-1.16,1.3-1.75l.15-.21a36.93,36.93,0,0,0,2.43-4.09l0,0c.32-.65.62-1.3.89-1.95l.15-.35c.23-.57.44-1.14.64-1.72l.12-.36c.21-.65.4-1.3.57-2a.14.14,0,0,1,0-.06,2.1,2.1,0,0,1,.06-.24,1.94,1.94,0,0,1,.05-.2l.06-.3v-.16h0v.13c0-.21.06-.41.1-.62.11-.54.19-1.08.26-1.61C256.32,946.29,256.37,946,256.4,945.63Z" transform="translate(265.03 -589.89)"></path><path class="cls-68" d="M233.92,964.76l0,10.56.51-.3,0-10.57Z" transform="translate(265.03 -589.89)"></path><path class="cls-1" d="M232.93,899.52l.72.42.72.43.71.44.69.43.68.44.37.25,1,.65.36.25.68.48.64.47.62.46.63.48.61.48.6.49.59.49.57.49.53.46.56.51.55.5.53.51.51.51.51.51c17,17.53,12.93,40.08-12.39,55.1L213.56,953c16.07-9.66,18.64-24.07,7.72-35.29l-.32-.31-.31-.31-.33-.31-.33-.32-.34-.3-.35-.31-.35-.3c-5.91-4.15-6.07-4.24-6.22-4.33-20.14-11.63-52.71-11.63-72.73,0l-.46.27c-6.91,5.14-7,5.23-7.09,5.31l-.34.33-.32.32c-10.83,11-8.58,25.12,6.69,34.83l-20.2,11.74c-24.74-15.19-28.52-37.66-11.24-55l.48-.48.5-.47.5-.48.52-.47.53-.47.54-.47.56-.47.56-.46.58-.46.59-.46.61-.46.61-.45.62-.45.63-.45.66-.44.66-.44.34-.23.77-.49.69-.43.72-.44,1-.56C150.84,881.4,201.54,881.4,232.93,899.52Z" transform="translate(265.03 -589.89)"></path><polygon class="cls-67" points="498.91 374.88 498.88 385.44 478.56 373.71 478.58 363.14 498.91 374.88"></polygon></g><path class="cls-69" d="M295.12,778.88,324.2,795.7a10,10,0,0,1,4.54,7.84l-.05,17.14" transform="translate(265.03 -589.89)"></path><path class="cls-69" d="M324.05,851.11,219.12,790.44a10,10,0,0,1-4.52-7.85l.13-45c0-2.89,2-4,4.55-2.6l33.07,19.12" transform="translate(265.03 -589.89)"></path><path class="cls-70" d="M328.69,820.68" transform="translate(265.03 -589.89)"></path><path class="cls-71" d="M121.08,825.7v2a1.58,1.58,0,0,0,2.36,1.37l9.71-5.59a1.6,1.6,0,0,0,.79-1.37v-2a1.58,1.58,0,0,0-2.36-1.37l-9.71,5.6A1.57,1.57,0,0,0,121.08,825.7Z" transform="translate(265.03 -589.89)"></path><path class="cls-71" d="M90.34,853.52v2.06A1.57,1.57,0,0,0,92.69,857l40.46-23.19a1.6,1.6,0,0,0,.79-1.37v-2.06a1.57,1.57,0,0,0-2.36-1.36L91.13,852.16A1.57,1.57,0,0,0,90.34,853.52Z" transform="translate(265.03 -589.89)"></path><g class="cls-65"><path class="cls-71" d="M107,864.42v2.06a1.58,1.58,0,0,0,2.36,1.37l23.77-13.63a1.58,1.58,0,0,0,.79-1.37v-2.06a1.56,1.56,0,0,0-2.35-1.36L107.8,863.06A1.57,1.57,0,0,0,107,864.42Z" transform="translate(265.03 -589.89)"></path></g><path class="cls-71" d="M96.61,860.15v2.06A1.57,1.57,0,0,0,99,863.58L133.14,844a1.59,1.59,0,0,0,.8-1.37v-2.06a1.57,1.57,0,0,0-2.36-1.36L97.4,858.79A1.57,1.57,0,0,0,96.61,860.15Z" transform="translate(265.03 -589.89)"></path><path class="cls-1" d="M314.6,799.4a9.94,9.94,0,0,1,4.53,7.84l-.13,45c0,2.88-2.05,4-4.56,2.6L209.52,794.13a10,10,0,0,1-4.53-7.84l.13-45c0-2.88,2-4,4.55-2.59Z" transform="translate(265.03 -589.89)"></path><path class="cls-31" d="M226,764.39v1.72a1.32,1.32,0,0,1-2,1.14l-8.1-4.67a1.31,1.31,0,0,1-.66-1.14v-1.71a1.31,1.31,0,0,1,2-1.14l8.1,4.67A1.29,1.29,0,0,1,226,764.39Z" transform="translate(265.03 -589.89)"></path><path class="cls-31" d="M251.68,787.61v1.72a1.31,1.31,0,0,1-2,1.14L216,771.12a1.32,1.32,0,0,1-.66-1.14v-1.72a1.32,1.32,0,0,1,2-1.14L251,786.48A1.29,1.29,0,0,1,251.68,787.61Z" transform="translate(265.03 -589.89)"></path><g class="cls-65"><path class="cls-31" d="M237.76,796.71v1.72a1.31,1.31,0,0,1-2,1.14L216,788.2a1.34,1.34,0,0,1-.66-1.14v-1.72a1.31,1.31,0,0,1,2-1.14l19.84,11.37A1.32,1.32,0,0,1,237.76,796.71Z" transform="translate(265.03 -589.89)"></path></g><path class="cls-31" d="M246.45,793.15v1.72a1.32,1.32,0,0,1-2,1.14L216,779.66a1.32,1.32,0,0,1-.66-1.14V776.8a1.32,1.32,0,0,1,2-1.14L245.79,792A1.34,1.34,0,0,1,246.45,793.15Z" transform="translate(265.03 -589.89)"></path><g class="cls-12"><path class="cls-64" d="M287.69,829.76l-.53-.25Z" transform="translate(265.03 -589.89)"></path><path class="cls-72" d="M289.73,808.58a2.24,2.24,0,0,1,.35.26l.13.14c.78,1-.12,3.43-1.09,2.87l-.11-.07-.1-.09-.09-.11a1.75,1.75,0,0,1-.33-1,4.6,4.6,0,0,1,.3-1.67A.57.57,0,0,1,289.73,808.58Z" transform="translate(265.03 -589.89)"></path><path class="cls-72" d="M288.82,811.58l.09.11c.26,1.69.56,3.65.82,5.27,0,0-1.44,1.79-3.28,1.47-.32-.06-.63.53-.65.56l-.64-1.49a7,7,0,0,1-1.59-3.14l0-.42,0-1c2.29.37,4.86,0,5.26-1.22A1.09,1.09,0,0,1,288.82,811.58Z" transform="translate(265.03 -589.89)"></path><path class="cls-73" d="M289.71,817l.76.56a5.26,5.26,0,0,1,.15,2.21c-.16.94-2.15,2.75-2.58,2.5l0,0a11.58,11.58,0,0,1-1.13-2.28,2.06,2.06,0,0,1-.8-.31,8,8,0,0,1-1.25-.93l-1.58.27a15.2,15.2,0,0,1-.15-2.83l.22-2,.22-.12a2,2,0,0,0,0,.35,7,7,0,0,0,1.59,3.14l.64,1.49s.33-.62.65-.56A3.76,3.76,0,0,0,289.71,817Z" transform="translate(265.03 -589.89)"></path><path class="cls-74" d="M301.66,820c0,9-5.87,13.16-13.45,10,5.17,2.14,9.52.89,11.78-3-1.94-3.43-6.42-7.15-9.52-9.47l-.74-.57c-.26-1.62-.56-3.58-.82-5.27l.1.09.11.07c1,.56,1.87-1.84,1.09-2.87a4.79,4.79,0,0,0,.61-3.81,7.08,7.08,0,0,0-1.94-2.8s-.16-.37-1.7-3.13a9.78,9.78,0,0,0-3.47-3.6,3.52,3.52,0,0,0-3-.52c-1.87.79-.48,4.6-.41,4.8-.08.4-1.64,8-.3,11.21a2.86,2.86,0,0,0,1.1,1,7.31,7.31,0,0,0,2.43.79l0,1a36.51,36.51,0,0,0-7.25-1.86c-2,.51-2,1.78-2.11,3.7a33.68,33.68,0,0,0,10.49,12.29c-8-5.39-14.26-16.73-14.23-26.12,0-9.9,7-13.89,15.65-8.92S301.69,810.07,301.66,820Z" transform="translate(265.03 -589.89)"></path><path class="cls-75" d="M283.71,795.64a9.78,9.78,0,0,1,3.47,3.6c1.54,2.76,1.69,3.11,1.7,3.13a7.08,7.08,0,0,1,1.94,2.8,4.79,4.79,0,0,1-.61,3.81l-.13-.14a2.24,2.24,0,0,0-.35-.26.57.57,0,0,0-.94.34,4.6,4.6,0,0,0-.3,1.67l-.2-.34a28.61,28.61,0,0,1-.39-4.53,7.42,7.42,0,0,0-2.75-3.92,4.18,4.18,0,0,0-.36-.23,2.73,2.73,0,0,0-1.42-.32,4.56,4.56,0,0,1-2.16-.74c-.28-.16-.59-.35-.93-.59-.07-.2-1.46-4,.41-4.8A3.52,3.52,0,0,1,283.71,795.64Z" transform="translate(265.03 -589.89)"></path><path class="cls-72" d="M286.11,790.64c-9.77-5.64-17.71-1.12-17.74,10.11s7.86,24.89,17.63,30.53,17.7,1.11,17.74-10.11S295.88,796.28,286.11,790.64Zm2.36,39.45h0l-.23-.09h0l-.55-.24-.58-.27-.27-.14-.3-.16-.28-.15-.26-.15-.27-.16-.22-.13-.21-.13-.21-.14-.2-.13-.21-.13-.33-.23-.06,0-.28-.21-.12-.08-.23-.17-.28-.22-.06,0c-7.33-5.7-12.9-16.28-12.87-25.13,0-9.9,7-13.89,15.65-8.92s15.59,17,15.56,26.94v.84a.28.28,0,0,1,0,.09v.41s0,.08,0,.12v.09a.34.34,0,0,1,0,.1.31.31,0,0,1,0,.1v.2l0,.1v.09a.41.41,0,0,1,0,.11v.08s0,.07,0,.11l0,.08a.41.41,0,0,1,0,.11s0,.06,0,.09,0,.06,0,.1,0,.06,0,.08,0,.07,0,.11l0,.08v.1l0,.08,0,.1v.08l0,.11v.07l0,.11,0,.07,0,.1V824l0,.1,0,.07s0,.07,0,.1l0,.07,0,.11,0,.06,0,.11,0,.06,0,.1,0,.07,0,.1,0,.06,0,.11,0,0a.49.49,0,0,1,0,.11v0a1.17,1.17,0,0,1-.05.11v0l-.05.12v0l-.05.12v0l-.06.13v0l-.06.14h0l-.06.14h0a.61.61,0,0,1-.07.14h0c-2.1,4.32-6.55,5.85-11.89,3.74m.37.14.42.15Zm.51.18.11,0Zm-.72-.26.13.05Zm1,.36-.09,0Zm.2.06h0Zm.23.06h0Zm-1.73-.58.08,0h0l.08,0Z" transform="translate(265.03 -589.89)"></path><path class="cls-64" d="M287.94,829.87l-.23-.1Z" transform="translate(265.03 -589.89)"></path><path class="cls-64" d="M288,829.89l.22.09Z" transform="translate(265.03 -589.89)"></path><path class="cls-72" d="M284.79,801.57a4.18,4.18,0,0,1,.36.23,7.42,7.42,0,0,1,2.75,3.92,28.61,28.61,0,0,0,.39,4.53l.2.34a1.75,1.75,0,0,0,.33,1,1.09,1.09,0,0,0-.05.17c-.4,1.19-3,1.59-5.26,1.22a7.31,7.31,0,0,1-2.43-.79,2.86,2.86,0,0,1-1.1-1c-1.34-3.18.22-10.81.3-11.21.34.24.65.43.93.59a4.56,4.56,0,0,0,2.16.74A2.73,2.73,0,0,1,284.79,801.57Z" transform="translate(265.03 -589.89)"></path></g><path class="cls-75" d="M290.47,817.53c3.1,2.32,7.58,6,9.52,9.47-2.33,4-6.9,5.2-12.28,2.77l-.55-.26-.27-.14-.3-.15-.26-.14-.07,0-.26-.15-.21-.12-.21-.13-.07,0-.15-.09-.06,0-.16-.1-.22-.15-.23-.15a33.7,33.7,0,0,1-10.5-12.27c.08-1.94.14-3.21,2.11-3.72a36.51,36.51,0,0,1,7.25,1.86l0,.42a2,2,0,0,1,0-.35l-.22.12-.22,2a15.2,15.2,0,0,0,.15,2.83l1.58-.27a8,8,0,0,0,1.25.93,2.06,2.06,0,0,0,.8.31A11.58,11.58,0,0,0,288,822.2c.46.27,2.45-1.54,2.61-2.48A5.11,5.11,0,0,0,290.47,817.53Z" transform="translate(265.03 -589.89)"></path><polygon class="cls-5" points="484.07 276.09 484.13 294.97 457.92 310.1 457.87 291.22 484.07 276.09"></polygon><path class="cls-27" d="M196.33,784.22l2.07-1.58,2.67-5.59s1.46-.61,1.83-.73a19.63,19.63,0,0,1,3.16.48,19.1,19.1,0,0,1,1.7-1.82c.36-.24,1.82-1.82,2.43-1.46s.48,1,.12,1.46-1.58,1.7-1.58,1.7L207.39,780l.12,1.22a1.08,1.08,0,0,1,1,.73c.24.73.24,1.46-.61,1.7a9.88,9.88,0,0,0-1.58.61,17.19,17.19,0,0,1-2.67,1.58,19.76,19.76,0,0,1-2.07.61l-.61,1.45Z" transform="translate(265.03 -589.89)"></path><path class="cls-76" d="M208.49,781.91s0,0,0-.07a4.66,4.66,0,0,0-1.44.21c-.69.29-1.66,1.66-2,2s-2.73,1.37-3.8.39a8.3,8.3,0,0,0-3.39-1.28l-1.44,1.11,4.62,3.64.61-1.45a19.76,19.76,0,0,0,2.07-.61,17.19,17.19,0,0,0,2.67-1.58,9.88,9.88,0,0,1,1.58-.61C208.73,783.37,208.73,782.64,208.49,781.91Z" transform="translate(265.03 -589.89)"></path><path class="cls-31" d="M194.05,785.15l2.58-2.11s4.35.94,4.82,4.58l-2.11,2.23Z" transform="translate(265.03 -589.89)"></path><path class="cls-77" d="M180,796.65l14.1-13s6.35.35,7.05,5.64l-14.1,16.22S180,804.06,180,796.65Z" transform="translate(265.03 -589.89)"></path><path class="cls-27" d="M207.72,869.59l.91,3.77a43.44,43.44,0,0,1,1,5.59c-.13.65-.65.52-.65.52a7.55,7.55,0,0,1-2.73,1.3c-.91,0-3.12.26-3.77-.26s-.91-2.08-1-2.86a1.18,1.18,0,0,1,.65-1.17,7.2,7.2,0,0,1,.13-2.21,12.32,12.32,0,0,1,.52-1.95l-.13-1.3Z" transform="translate(265.03 -589.89)"></path><path class="cls-76" d="M209.53,879.26a1.71,1.71,0,0,1-.74,0c-.35-.07-1.43.81-2.11.78s-1.65.49-2.21.06-.81-.84-.52-1.43a1.36,1.36,0,0,0-.22-1.39,4,4,0,0,1,.09-2.21,4.67,4.67,0,0,1,2.05-2.18,7.09,7.09,0,0,0,2.11-2.19l-.26-1.06L202.65,871l.13,1.3a12.32,12.32,0,0,0-.52,1.95,7.2,7.2,0,0,0-.13,2.21,1.18,1.18,0,0,0-.65,1.17c.13.78.39,2.34,1,2.86s2.86.26,3.77.26a7.55,7.55,0,0,0,2.73-1.3A.51.51,0,0,0,209.53,879.26Z" transform="translate(265.03 -589.89)"></path><path class="cls-31" d="M200.38,869.1l1.07,2.73a5.94,5.94,0,0,0,3.61.3,6.81,6.81,0,0,0,3.31-2.34l-.78-2.15Z" transform="translate(265.03 -589.89)"></path><path class="cls-29" d="M153.39,934.58l-.43,5.9a2.19,2.19,0,0,0,1.34,2.19,6.45,6.45,0,0,0,3.51.36c3.38-.52,4.94-2.34,5.46-3.38s7.28-5.72,6.5-8.06c-1.3-2.34-3.64,0-6,0S156.51,930.42,153.39,934.58Z" transform="translate(265.03 -589.89)"></path><path class="cls-29" d="M155,844.25s-1.56,39.77-.78,52.25c0,0-3.12,31.19-1.56,38.6,0,0,5.46,3.9,10.14.78,1.17-.39,1.17-2,1.17-2s3.12-29.25,3.9-38.21,7-35.88,5.85-41.73S165.09,840,155,844.25Z" transform="translate(265.03 -589.89)"></path><path class="cls-29" d="M180.1,942.9s-2.14,6.63-.58,8.19a5,5,0,0,0,4.94,1.49,24.38,24.38,0,0,0,2.79-1.1l.46-1.37.52.91a6.27,6.27,0,0,0,1.82-.71c1-.59,4-1.76,5.26-2.54s3.44-2.14,3.64-3.83-5.92-1.11-7.54-1a14.24,14.24,0,0,1-3.25-.59c-.58,0-6.89.78-6.89.78" transform="translate(265.03 -589.89)"></path><path class="cls-30" d="M190,843.51s1.63,5.93,1.63,17.89-1,42.11-1,42.11-.52,30.68-1,38.48c0,0-3.64,4.68-9.88,1-3.12-3.64-2.08-6.24-2.08-6.24s-4.16-18.72-2.6-35.87c0,0-5.72-34.84-6.76-39s-19.18-6-12.09-26.25Z" transform="translate(265.03 -589.89)"></path><path class="cls-78" d="M193.6,805.2a7.4,7.4,0,0,0-3.29-6.48c-4.76-3.18-11.23-7.2-15.42-9.42-5.21-2.75-10.6-5.64-13.48-5.91-8-.75-12.86,6.72-12.1,16.54a89.08,89.08,0,0,0,4.21,19.42,59.1,59.1,0,0,1,1.78,12.8,20.07,20.07,0,0,1-.87,6.38c-1.3,3.12-2.6,15.59-2.6,15.59s8.84,9.1,20.28,9.88S188,862.44,188,862.44l.78-5.2,1.56,4.68a3.81,3.81,0,0,0,2.33-2.86c.24-1.87-1.85-17.91-2.26-21,.66-6.48,2-16,2.37-20.35C193.12,813.68,193.43,809.12,193.6,805.2Z" transform="translate(265.03 -589.89)"></path><path class="cls-27" d="M185.17,780.87c.81-2.5,1.08-12.67.07-16.2-1.3-4.54-5.71-8.5-12.32-8.17-6.35.31-11,3.11-12.58,7.84a17.23,17.23,0,0,0,1,11.27c1.15,2.41,3.76,4.54,6.61,6a69.24,69.24,0,0,0,10.43,4.57C181.61,787.17,184,784.51,185.17,780.87Z" transform="translate(265.03 -589.89)"></path><path class="cls-27" d="M166.49,779.12c3.18-1.27,10.48.11,13,2.2,0,0-2.51,10.12-2.54,10.12-4.65.25-11.25-2.06-12.83-4Z" transform="translate(265.03 -589.89)"></path><path class="cls-27" d="M179.51,774.37c-1.33-1.8-4-1.15-4,1.72,0,3.34,2.27,5.23,4,5.23C179.51,779.17,179.6,777,179.51,774.37Z" transform="translate(265.03 -589.89)"></path><path class="cls-31" d="M165.09,784.33s3.77,3.25,12.74,4.55l1.69,3a22,22,0,0,1-8.19.65,13.71,13.71,0,0,1-8.45-4.81l-.39-.78Z" transform="translate(265.03 -589.89)"></path><path class="cls-78" d="M190.31,798.72s.29.17.75.51a14.8,14.8,0,0,1,5.22,7.06c1.56,4.94,4.68,28.6,4.68,28.6l7.8,32.49s-1.3,3.64-6.5,3.38a3.88,3.88,0,0,1-3.64-2.34s-6.76-24.69-7.79-29.11-3.9-19.76-5.2-25.22S184.6,800.24,190.31,798.72Z" transform="translate(265.03 -589.89)"></path><path class="cls-32" d="M158.07,766.65s-.84-7.86,6.37-11.18,16.64-1.1,20.34,4c2.54,4.29-1,7.8-1.75,9.35s0,4.68-.78,5.85.19,2.93.19,2.93l-1.36,1.17a14.84,14.84,0,0,0-2.15-3.12c-.78-.59-3.18,1.56-2.66,3.64a5.92,5.92,0,0,0,2.47,3.25l-1.56,1c-.78.52-2.34.91-4.81.91a17.32,17.32,0,0,1-7.15-2c-1.3-.78-5.2-3.64-6.76-7S156.51,768.86,158.07,766.65Z" transform="translate(265.03 -589.89)"></path><g class="cls-79"><path class="cls-74" d="M296,852.77a7.75,7.75,0,0,1,3.51,6.07l-.1,34.77c0,2.23-1.59,3.13-3.53,2L214.7,848.7a7.69,7.69,0,0,1-3.5-6.07l.1-34.77c0-2.23,1.58-3.13,3.52-2Z" transform="translate(265.03 -589.89)"></path></g><path class="cls-31" d="M227.46,825.7V827a1,1,0,0,1-1.53.88l-6.26-3.61a1,1,0,0,1-.51-.88v-1.33a1,1,0,0,1,1.52-.88l6.27,3.61A1,1,0,0,1,227.46,825.7Z" transform="translate(265.03 -589.89)"></path><path class="cls-31" d="M247.3,843.66V845a1,1,0,0,1-1.52.88l-26.11-15a1,1,0,0,1-.51-.88v-1.33a1,1,0,0,1,1.52-.88l26.11,15A1,1,0,0,1,247.3,843.66Z" transform="translate(265.03 -589.89)"></path><g class="cls-65"><path class="cls-31" d="M236.54,850.7V852a1,1,0,0,1-1.52.88l-15.35-8.8a1,1,0,0,1-.51-.88V841.9a1,1,0,0,1,1.52-.88l15.35,8.8A1,1,0,0,1,236.54,850.7Z" transform="translate(265.03 -589.89)"></path></g><path class="cls-31" d="M243.26,847.94v1.33a1,1,0,0,1-1.53.88l-22.06-12.64a1,1,0,0,1-.51-.88V835.3a1,1,0,0,1,1.52-.88l22.06,12.64A1,1,0,0,1,243.26,847.94Z" transform="translate(265.03 -589.89)"></path><path class="cls-14" d="M271.28,848.05a11.79,11.79,0,0,1,5.36,9.29,3.77,3.77,0,0,1,0,.48s-.11.94-.32,2.12a.53.53,0,0,1,.64-.11,1,1,0,0,1,.34.36c.63,1-.61,3.25-1.1,3a1.82,1.82,0,0,1-.48-.48,9.17,9.17,0,0,1-.57,1.71,1.21,1.21,0,0,1-.68.4,9.33,9.33,0,0,0,1.09,3.83c.94,1.54,3.2,3.65,4.86,5.5l-.09.06-.2.12-.21.11-.21.11-.22.1-.22.08-.23.08-.23.07a6.27,6.27,0,0,1-1,.19l-.16,0h-1.56l-.19,0h-.1l-.19,0h-.1l-.19,0-.1,0-.19,0-.1,0-.19-.05-.11,0-.19-.06-.11,0-.19-.06-.11,0-.2-.06-.11,0-.19-.08-.11,0-.2-.08-.11,0-.2-.08-.12-.06-.2-.09-.11,0-.21-.11-.11-.05-.22-.12-.1-.05-.32-.18-.32-.19-.11-.07-.21-.13-.12-.08-.2-.13-.12-.09-.2-.13-.12-.09-.19-.13-.13-.1-.19-.14-.12-.09-.19-.15-.12-.1-.18-.14-.13-.11-.17-.15-.13-.11-.17-.15-.14-.12-.15-.14-.14-.13-.14-.13-.16-.15-.11-.11-.18-.18-.06-.06a28.27,28.27,0,0,1-4.76-6.46c1.64.12,3.7.54,4.6.11.64-.31.95-1.37,1.08-2.39a7.37,7.37,0,0,1-.9-1.5,21.87,21.87,0,0,1-.56-2.36.59.59,0,0,1-.47-.07c-.49-.3-1.71-3.93-1.09-4.25a.32.32,0,0,1,.34,0,2.14,2.14,0,0,1,.65.86c-.21-1.43-.33-2.45-.34-2.5s0-.34,0-.5C265.9,847.71,268.31,846.34,271.28,848.05Z" transform="translate(265.03 -589.89)"></path><path class="cls-80" d="M271.62,845.66c6.68,3.86,12.08,13.21,12.06,20.88,0,3.66-1.26,6.28-3.28,7.6-1.66-1.85-3.92-4-4.86-5.5a9.33,9.33,0,0,1-1.09-3.83,1.21,1.21,0,0,0,.68-.4,9.17,9.17,0,0,0,.57-1.71,1.82,1.82,0,0,0,.48.48c.49.26,1.73-1.94,1.1-3a1,1,0,0,0-.34-.36.53.53,0,0,0-.64.11c.21-1.18.34-2.06.34-2.11v-.49a11.79,11.79,0,0,0-5.36-9.29c-3-1.71-5.38-.34-5.39,3.08,0,.16,0,.34,0,.51,0,0,.11,1.06.32,2.49a2.14,2.14,0,0,0-.65-.86.32.32,0,0,0-.34,0c-.62.32.6,4,1.09,4.25a.59.59,0,0,0,.47.07,21.87,21.87,0,0,0,.56,2.36,7.37,7.37,0,0,0,.9,1.5c-.13,1-.44,2.08-1.08,2.39-.9.43-3,0-4.59-.11a24,24,0,0,1-3.1-11.12C259.51,844.9,264.94,841.81,271.62,845.66Z" transform="translate(265.03 -589.89)"></path><path class="cls-81" d="M126.37,758.2c-4.32-2.51-10.31-2.15-16.92,1.66-13.12,7.58-23.72,25.93-23.67,41,0,7.49,2.66,12.77,6.93,15.25l5.21,3C93.65,816.66,91,811.39,91,803.9c0-15.08,10.56-33.44,23.68-41,6.61-3.82,12.59-4.17,16.91-1.66Z" transform="translate(265.03 -589.89)"></path><path class="cls-1" d="M114.66,762.89c-13.12,7.57-23.72,25.93-23.68,41s10.71,21.16,23.84,13.59,23.73-26,23.68-41S127.78,755.31,114.66,762.89Z" transform="translate(265.03 -589.89)"></path><polygon class="cls-3" points="391.25 184.49 395.16 186.72 377.78 216.82 369.5 212.1 373.38 205.37 377.75 207.86 391.25 184.49"></polygon><path class="cls-82" d="M539.53,896.71h41.31a6.08,6.08,0,1,1,0,12.15h-3l-2.93,2.94-2.94-2.94h-32.4a6.08,6.08,0,1,1,0-12.15Z" transform="translate(265.03 -589.89)"></path><path class="cls-3" d="M551.35,904.73h27.18a.68.68,0,0,0,.68-.68h0a.67.67,0,0,0-.68-.68H551.35a.68.68,0,0,0-.68.68h0A.69.69,0,0,0,551.35,904.73Z" transform="translate(265.03 -589.89)"></path><path class="cls-3" d="M559.85,901h18.68a.68.68,0,0,0,.68-.68h0a.67.67,0,0,0-.68-.68H559.85a.67.67,0,0,0-.68.68h0A.68.68,0,0,0,559.85,901Z" transform="translate(265.03 -589.89)"></path><path class="cls-14" d="M542.92,877.51h37.93a5.58,5.58,0,1,1,0,11.15h-2.79l-2.69,2.7-2.7-2.7H542.92a5.58,5.58,0,1,1,0-11.15Z" transform="translate(265.03 -589.89)"></path><path class="cls-3" d="M578.94,883.94H545a.63.63,0,0,1-.63-.63h0a.63.63,0,0,1,.63-.62h33.9a.63.63,0,0,1,.63.62h0A.63.63,0,0,1,578.94,883.94Z" transform="translate(265.03 -589.89)"></path><path class="cls-1" d="M451.48,953.53h37.93a5.58,5.58,0,0,1,0,11.16h-2.79l-2.7,2.7-2.69-2.7H451.48a5.58,5.58,0,0,1,0-11.16Z" transform="translate(265.03 -589.89)"></path><path class="cls-3" d="M487.5,960H453.59a.62.62,0,0,1-.62-.62h0a.62.62,0,0,1,.62-.62H487.5a.62.62,0,0,1,.62.62h0A.62.62,0,0,1,487.5,960Z" transform="translate(265.03 -589.89)"></path><polygon class="cls-3" points="1046.38 30.2 1048.18 35.09 1053.06 36.89 1048.18 38.7 1046.38 43.58 1044.57 38.7 1039.69 36.89 1044.57 35.09 1046.38 30.2"></polygon><polygon class="cls-3" points="1102.06 0 1103.87 4.88 1108.75 6.69 1103.87 8.49 1102.06 13.38 1100.26 8.49 1095.37 6.69 1100.26 4.88 1102.06 0"></polygon><polygon class="cls-3" points="1203.05 72.68 1204.86 77.56 1209.74 79.36 1204.86 81.17 1203.05 86.05 1201.25 81.17 1196.37 79.36 1201.25 77.56 1203.05 72.68"></polygon></svg>