<svg xmlns="http://www.w3.org/2000/svg" viewBox="0 0 986.98 785.87"><defs><style>.cls-1{fill:#1175af;}.cls-2{fill:#fafafa;}.cls-3{fill:#045d89;}.cls-4{fill:#ebebeb;}.cls-5{fill:#f7d406;}.cls-6{fill:#fff;}.cls-7{fill:#ec5e20;}.cls-8{fill:#e0e0e0;}.cls-9{fill:#263238;}.cls-10{fill:#ffbf9d;}.cls-11{fill:#455a64;}.cls-12{opacity:0.5;}.cls-13{opacity:0.4;}.cls-14{opacity:0.2;}.cls-15{fill:#ff9a6c;}</style></defs><g id="Character"><path class="cls-1" d="M-1366.82-76.29c0,.31-203.3.56-454,.56s-454.06-.25-454.06-.56,203.25-.56,454.06-.56S-1366.82-76.6-1366.82-76.29Z" transform="translate(2276.32 861.59)"></path><rect class="cls-2" x="172.99" y="0.59" width="737.78" height="483.06"></rect><path class="cls-3" d="M-1363.29-827c0,.29-165.17.53-368.88.53s-368.92-.24-368.92-.53,165.14-.52,368.92-.52S-1363.29-827.32-1363.29-827Z" transform="translate(2276.32 861.59)"></path><path class="cls-3" d="M-2077.2-842.8a4.23,4.23,0,0,1-4.23,4.23,4.23,4.23,0,0,1-4.23-4.23,4.23,4.23,0,0,1,4.23-4.23A4.24,4.24,0,0,1-2077.2-842.8Z" transform="translate(2276.32 861.59)"></path><path class="cls-3" d="M-2061.92-842.8a4.23,4.23,0,0,1-4.23,4.23,4.23,4.23,0,0,1-4.23-4.23,4.24,4.24,0,0,1,4.23-4.23A4.23,4.23,0,0,1-2061.92-842.8Z" transform="translate(2276.32 861.59)"></path><path class="cls-3" d="M-2046.64-842.8a4.23,4.23,0,0,1-4.23,4.23,4.22,4.22,0,0,1-4.22-4.23,4.23,4.23,0,0,1,4.22-4.23A4.23,4.23,0,0,1-2046.64-842.8Z" transform="translate(2276.32 861.59)"></path><rect class="cls-4" x="419.28" y="60.16" width="251.78" height="13.9"></rect><path class="cls-3" d="M-1404.6-412.54c0-3.15-.15-134.77-.39-350.48l.39.39-661.5.13h-.05l.52-.52c0,123.76,0,242.32,0,350.48l-.49-.49,661.55.49-661.55.49h-.49v-.49c0-108.16,0-226.72,0-350.48v-.53h.57l661.5.13h.4v.4C-1404.45-547.31-1404.59-415.68-1404.6-412.54Z" transform="translate(2276.32 861.59)"></path><path class="cls-3" d="M-1984.72-413.25c-.29,0-.29-78.46,0-175.23s.74-175.24,1-175.24.29,78.44,0,175.24S-1984.43-413.25-1984.72-413.25Z" transform="translate(2276.32 861.59)"></path><path class="cls-3" d="M-1886.57-413c-.29,0-.3-78.46,0-175.23s.74-175.24,1-175.24.3,78.45,0,175.25S-1886.28-413-1886.57-413Z" transform="translate(2276.32 861.59)"></path><path class="cls-3" d="M-1788.43-412.68c-.29,0-.29-78.47,0-175.23s.74-175.24,1-175.24.29,78.44,0,175.24S-1788.14-412.68-1788.43-412.68Z" transform="translate(2276.32 861.59)"></path><path class="cls-3" d="M-1690.29-412.4c-.28,0-.29-78.46,0-175.23s.74-175.24,1-175.24.3,78.45,0,175.25S-1690-412.4-1690.29-412.4Z" transform="translate(2276.32 861.59)"></path><path class="cls-3" d="M-1592.14-412.11c-.29,0-.3-78.47,0-175.23s.75-175.24,1-175.24.29,78.44,0,175.24S-1591.85-412.11-1592.14-412.11Z" transform="translate(2276.32 861.59)"></path><path class="cls-3" d="M-1494-411.83c-.29,0-.29-78.46,0-175.23s.74-175.24,1-175.24.29,78.45,0,175.25S-1493.71-411.83-1494-411.83Z" transform="translate(2276.32 861.59)"></path><path class="cls-3" d="M-1404.6-678.28c0,.28-147.93.52-330.37.52s-330.4-.24-330.4-.52,147.9-.53,330.4-.53S-1404.6-678.57-1404.6-678.28Z" transform="translate(2276.32 861.59)"></path><path class="cls-3" d="M-1404.6-588.49c0,.29-147.93.53-330.37.53s-330.4-.24-330.4-.53,147.9-.52,330.4-.52S-1404.6-588.78-1404.6-588.49Z" transform="translate(2276.32 861.59)"></path><path class="cls-3" d="M-1404.6-498.69c0,.29-147.93.52-330.37.52s-330.4-.23-330.4-.52,147.9-.52,330.4-.52S-1404.6-499-1404.6-498.69Z" transform="translate(2276.32 861.59)"></path><path class="cls-4" d="M-2059.51-490.7s-7.83,50.84.31,82.52l78.31-2.85s-16.07-50.59-5.89-75.87Z" transform="translate(2276.32 861.59)"></path><path class="cls-5" d="M-2059.2-492.56s.53,62.47,3.71,81.53l78.35-3.71s-6.89-61.41-4.24-77.82Z" transform="translate(2276.32 861.59)"></path><path class="cls-6" d="M-1993.19-466.32c0,.29-11.74,1.23-26.25,2.1s-26.31,1.35-26.32,1.06,11.73-1.23,26.25-2.1S-1993.2-466.61-1993.19-466.32Z" transform="translate(2276.32 861.59)"></path><path class="cls-6" d="M-1993.17-453.09c0,.29-11.74,1.23-26.25,2.1s-26.3,1.35-26.32,1.06,11.73-1.23,26.26-2.1S-1993.18-453.38-1993.17-453.09Z" transform="translate(2276.32 861.59)"></path><path class="cls-6" d="M-2006.48-440.1c0,.15-1.66.38-4.37.63s-6.44.55-10.58.79-7.88.42-10.6.49-4.4,0-4.41-.11,1.66-.37,4.37-.63,6.44-.54,10.58-.79,7.88-.41,10.6-.48S-2006.49-440.24-2006.48-440.1Z" transform="translate(2276.32 861.59)"></path><path class="cls-4" d="M-1880.24-754.23s-6.43,52.92,1.7,84.6l77-3.93s-16.14-51.58-6-76.87Z" transform="translate(2276.32 861.59)"></path><path class="cls-5" d="M-1879.94-756.09s.53,62.47,3.71,81.53l78.35-3.71s-6.88-61.41-4.24-77.82Z" transform="translate(2276.32 861.59)"></path><path class="cls-6" d="M-1813.93-729.85c0,.29-11.73,1.23-26.25,2.1s-26.3,1.35-26.32,1.06,11.74-1.23,26.26-2.1S-1813.94-730.14-1813.93-729.85Z" transform="translate(2276.32 861.59)"></path><path class="cls-6" d="M-1813.9-716.62c0,.29-11.74,1.23-26.26,2.11s-26.3,1.34-26.32,1,11.74-1.23,26.26-2.1S-1813.92-716.91-1813.9-716.62Z" transform="translate(2276.32 861.59)"></path><path class="cls-6" d="M-1827.22-703.63c0,.15-1.66.38-4.37.64s-6.44.54-10.58.79-7.88.41-10.6.48-4.4,0-4.41-.11,1.66-.37,4.37-.63,6.44-.54,10.58-.79,7.88-.41,10.6-.48S-1827.23-703.77-1827.22-703.63Z" transform="translate(2276.32 861.59)"></path><path class="cls-4" d="M-1777.11-494.21s-6.33,57.86,1.81,89.54L-1698-408s-16.56-57.07-6.39-82.36Z" transform="translate(2276.32 861.59)"></path><path class="cls-5" d="M-1776.8-496.07s.53,62.47,3.7,81.53l78.35-3.71s-6.88-61.41-4.24-77.82Z" transform="translate(2276.32 861.59)"></path><path class="cls-6" d="M-1710.79-469.83c0,.29-11.74,1.23-26.26,2.1s-26.3,1.35-26.32,1.06,11.74-1.23,26.26-2.1S-1710.81-470.12-1710.79-469.83Z" transform="translate(2276.32 861.59)"></path><path class="cls-6" d="M-1710.77-456.6c0,.29-11.74,1.23-26.26,2.11s-26.3,1.34-26.32,1.05,11.74-1.22,26.26-2.1S-1710.79-456.89-1710.77-456.6Z" transform="translate(2276.32 861.59)"></path><path class="cls-6" d="M-1724.09-443.61c0,.15-1.66.38-4.36.64s-6.45.54-10.59.79-7.88.41-10.6.48-4.4,0-4.4-.11,1.66-.37,4.36-.63,6.45-.54,10.58-.79,7.88-.41,10.6-.48S-1724.1-443.75-1724.09-443.61Z" transform="translate(2276.32 861.59)"></path><path class="cls-4" d="M-1481.86-670.24s-8,49.67.1,81.35l78.51-1.69s-16.06-50.58-5.89-75.86Z" transform="translate(2276.32 861.59)"></path><path class="cls-5" d="M-1481.56-672.1s.53,62.46,3.71,81.52l78.35-3.7s-6.88-61.41-4.24-77.82Z" transform="translate(2276.32 861.59)"></path><path class="cls-6" d="M-1415.55-645.86c0,.28-11.73,1.22-26.25,2.1s-26.3,1.35-26.32,1.06,11.74-1.23,26.26-2.11S-1415.56-646.15-1415.55-645.86Z" transform="translate(2276.32 861.59)"></path><path class="cls-6" d="M-1415.52-632.63c0,.28-11.74,1.23-26.26,2.1s-26.3,1.35-26.32,1.06,11.74-1.23,26.26-2.1S-1415.54-632.92-1415.52-632.63Z" transform="translate(2276.32 861.59)"></path><path class="cls-6" d="M-1428.84-619.64c0,.14-1.66.37-4.37.63s-6.44.54-10.58.79-7.88.42-10.6.48-4.4,0-4.41-.1,1.66-.38,4.37-.63,6.44-.55,10.58-.79,7.88-.42,10.6-.49S-1428.85-619.79-1428.84-619.64Z" transform="translate(2276.32 861.59)"></path><path class="cls-4" d="M-1678.82-670.55s-8,49.67.11,81.35l78.5-1.69s-16.06-50.58-5.89-75.86Z" transform="translate(2276.32 861.59)"></path><path class="cls-7" d="M-1678.51-672.41s.53,62.47,3.71,81.52l78.34-3.7s-6.88-61.41-4.23-77.82Z" transform="translate(2276.32 861.59)"></path><path class="cls-6" d="M-1612.5-646.17c0,.29-11.74,1.23-26.26,2.1s-26.3,1.35-26.32,1.06,11.74-1.23,26.26-2.1S-1612.52-646.46-1612.5-646.17Z" transform="translate(2276.32 861.59)"></path><path class="cls-6" d="M-1612.48-632.94c0,.29-11.74,1.23-26.25,2.1s-26.31,1.35-26.32,1.06,11.73-1.23,26.25-2.1S-1612.5-633.23-1612.48-632.94Z" transform="translate(2276.32 861.59)"></path><path class="cls-6" d="M-1625.8-619.95c0,.15-1.66.38-4.36.63s-6.45.54-10.58.79-7.89.42-10.6.49-4.4,0-4.41-.11,1.66-.37,4.36-.63,6.45-.54,10.59-.79,7.88-.42,10.59-.48S-1625.81-620.09-1625.8-619.95Z" transform="translate(2276.32 861.59)"></path><path class="cls-8" d="M-2059.26-673.09s-7.22,69.94,2.39,84.6l72.66-4.48-3.86-77.71Z" transform="translate(2276.32 861.59)"></path><path class="cls-1" d="M-1878.88-578.07s.52,60.85,3.61,79.42l76.33-3.61s-6.71-59.82-4.13-75.81Z" transform="translate(2276.32 861.59)"></path><path class="cls-6" d="M-1841.28-569.46a1,1,0,0,1,.28,0l.82,0a18.7,18.7,0,0,1,3.18.16,17.09,17.09,0,0,1,4.85,1.44,15.77,15.77,0,0,1,5.28,4.18,18.35,18.35,0,0,1,3.66,7.35,17.69,17.69,0,0,1-.8,9.42,27.63,27.63,0,0,1-2.15,4.72,49.44,49.44,0,0,0-2.44,4.76,40.68,40.68,0,0,0-3.08,10.83l0,.25h-.24l-7.54.12-7.91.12h-.28v-.29c-.12-3.84-1.85-7.33-3.66-10.43-.92-1.56-1.92-3-2.86-4.51a44.29,44.29,0,0,1-2.68-4.38,14.73,14.73,0,0,1-1.19-9.29,19.66,19.66,0,0,1,2.94-7.61,14.75,14.75,0,0,1,5-4.47,18.72,18.72,0,0,1,4.68-1.81,20.8,20.8,0,0,1,3.12-.51l.82,0a.9.9,0,0,1,.28,0l-.28,0-.81.09a22.76,22.76,0,0,0-3.07.6,19,19,0,0,0-4.59,1.87,14.54,14.54,0,0,0-4.81,4.43,19.53,19.53,0,0,0-2.81,7.46,14.31,14.31,0,0,0,1.21,9,43.24,43.24,0,0,0,2.67,4.32c.93,1.46,2,2.93,2.88,4.51,1.84,3.13,3.62,6.67,3.77,10.7l-.29-.28,7.9-.13,7.54-.11-.28.25a41,41,0,0,1,3.15-11,50.31,50.31,0,0,1,2.48-4.8,28.12,28.12,0,0,0,2.13-4.62,17.43,17.43,0,0,0,.84-9.17,18.05,18.05,0,0,0-3.52-7.2,15.57,15.57,0,0,0-5.11-4.15,17.75,17.75,0,0,0-4.76-1.51,20.3,20.3,0,0,0-3.14-.25l-.82,0A.84.84,0,0,1-1841.28-569.46Z" transform="translate(2276.32 861.59)"></path><path class="cls-6" d="M-1837.37-527.07s0-.08-.05-.24-.06-.4-.11-.71c-.1-.63-.24-1.55-.42-2.72-.34-2.37-.85-5.8-1.19-10.07-.08-1.07-.16-2.18-.2-3.35s-.09-2.39,0-3.65a10.27,10.27,0,0,1,.86-3.82,5.77,5.77,0,0,1,2.91-2.91,3.9,3.9,0,0,1,4.16.79,2.9,2.9,0,0,1,.89,2.09,3.76,3.76,0,0,1-.78,2.18,5,5,0,0,1-1.84,1.49,9.91,9.91,0,0,1-2.27.75,27.36,27.36,0,0,1-4.81.56,27,27,0,0,1-4.85-.24,8.78,8.78,0,0,1-2.3-.66,5.72,5.72,0,0,1-1.92-1.37,4.35,4.35,0,0,1-1.11-2,3.45,3.45,0,0,1,.27-2.26,3.1,3.1,0,0,1,1.6-1.55,2.73,2.73,0,0,1,2.17.1,4,4,0,0,1,1.62,1.38,5.49,5.49,0,0,1,.81,1.9,22.11,22.11,0,0,1,.39,3.89c.13,2.51.25,4.85.36,7,.22,4.27.39,7.72.51,10.12.06,1.19.1,2.12.13,2.76,0,.3,0,.54,0,.71v.25l0-.25c0-.17,0-.41,0-.71,0-.64-.09-1.57-.17-2.75-.14-2.4-.34-5.85-.58-10.12-.13-2.14-.26-4.48-.4-7a22.24,22.24,0,0,0-.39-3.85,5.59,5.59,0,0,0-.78-1.83,3.88,3.88,0,0,0-1.54-1.3,2.49,2.49,0,0,0-2-.09,2.83,2.83,0,0,0-1.47,1.44,3.2,3.2,0,0,0-.25,2.11,4.15,4.15,0,0,0,1,1.94,6.91,6.91,0,0,0,4.09,2,27.25,27.25,0,0,0,4.8.23,27.76,27.76,0,0,0,4.77-.55,9.8,9.8,0,0,0,2.22-.73,4.68,4.68,0,0,0,1.75-1.42,3.51,3.51,0,0,0,.74-2,2.71,2.71,0,0,0-.82-1.93,3.68,3.68,0,0,0-3.92-.75,5.58,5.58,0,0,0-2.8,2.8,10,10,0,0,0-.85,3.74c-.07,1.25,0,2.46,0,3.63s.1,2.28.18,3.35c.32,4.26.8,7.7,1.11,10.07.16,1.17.29,2.09.38,2.73,0,.3.07.54.09.71A2.18,2.18,0,0,1-1837.37-527.07Z" transform="translate(2276.32 861.59)"></path><path class="cls-6" d="M-1847.42-526.67s.1.95.2,2.54q.15,2.76.34,6.61l-.06-.16,5.14,5.92-.27-.11,5.94-.34-.25.13c1-1.16,2-2.38,3-3.61.5-.61,1-1.21,1.48-1.81l-.08.23c-.08-3.48-.15-6.77-.22-9.78l.32.31-11.09.12h-3.21a7.7,7.7,0,0,1-1.2,0,7.2,7.2,0,0,1,1.06-.1l3.13-.16,11.3-.44.31,0v.32c.09,3,.19,6.31.3,9.79v.13l-.08.1-1.48,1.81-3,3.6-.1.12h-.15l-5.94.29h-.17l-.1-.13-5-6-.06-.07v-.09c0-2.64,0-4.89-.07-6.78C-1847.46-525.86-1847.45-526.7-1847.42-526.67Z" transform="translate(2276.32 861.59)"></path><path class="cls-6" d="M-1832.09-518.07a4,4,0,0,1-.56-.24c-.36-.16-.88-.38-1.54-.61a15.39,15.39,0,0,0-5.37-.82,15.35,15.35,0,0,0-5.3,1.15,15.28,15.28,0,0,0-1.5.7,3.24,3.24,0,0,1-.55.27,3.07,3.07,0,0,1,.5-.35,13.27,13.27,0,0,1,1.48-.78,14.39,14.39,0,0,1,5.37-1.22,14.4,14.4,0,0,1,5.43.89,12.41,12.41,0,0,1,1.52.69A2.67,2.67,0,0,1-1832.09-518.07Z" transform="translate(2276.32 861.59)"></path><path class="cls-6" d="M-1832.09-520.45a2.57,2.57,0,0,1-.56-.24c-.36-.16-.88-.38-1.54-.61a15.41,15.41,0,0,0-5.37-.81,15.09,15.09,0,0,0-5.3,1.14c-.65.27-1.16.52-1.5.7a2.48,2.48,0,0,1-.55.27,3.07,3.07,0,0,1,.5-.35,12.63,12.63,0,0,1,1.48-.77,14.37,14.37,0,0,1,5.37-1.23,14.1,14.1,0,0,1,5.42.9,12.2,12.2,0,0,1,1.53.68A2.67,2.67,0,0,1-1832.09-520.45Z" transform="translate(2276.32 861.59)"></path><path class="cls-6" d="M-1832.23-522.71a2.79,2.79,0,0,1-.56-.23,14,14,0,0,0-1.54-.61,15.16,15.16,0,0,0-5.37-.82,15.09,15.09,0,0,0-5.3,1.14c-.65.27-1.16.52-1.5.7a4.09,4.09,0,0,1-.55.28,2,2,0,0,1,.5-.36,12.63,12.63,0,0,1,1.48-.77,14.37,14.37,0,0,1,5.37-1.23,14.13,14.13,0,0,1,5.42.9,12.2,12.2,0,0,1,1.53.68A2.67,2.67,0,0,1-1832.23-522.71Z" transform="translate(2276.32 861.59)"></path><path class="cls-5" d="M-1867.33-506.07c.12,0-.07.94-1,2a12.17,12.17,0,0,1-4.4,3c-3.87,1.66-7.31,1.59-7.31,1.35s3.25-.74,6.9-2.31a16.43,16.43,0,0,0,4.28-2.6C-1867.88-505.42-1867.48-506.14-1867.33-506.07Z" transform="translate(2276.32 861.59)"></path><path class="cls-3" d="M-1363.29-378c0-3.39-.16-188.33-.42-483.06l.42.41-737.72.11h-.06l.53-.52c0,171.76,0,335.23-.05,483.06l-.48-.48,737.78.48-737.78.48h-.48V-378c0-147.83,0-311.3,0-483.06v-.52h.58l737.72.1h.42v.42C-1363.13-566.34-1363.29-381.4-1363.29-378Z" transform="translate(2276.32 861.59)"></path><polygon class="cls-5" points="849.01 411.1 834.51 386.37 820.75 411.1 625.54 411.1 625.54 513.16 929.51 513.16 929.51 411.1 849.01 411.1"></polygon><path class="cls-2" d="M-1596.11-398.57a15,15,0,0,0,9-13.77c.1-8.27-6.1-15.06-13.86-15.16s-14.12,6.52-14.23,14.79a15,15,0,0,0,8.83,14c-21.63,3.08-20.85,26.57-20.85,26.57l51.09.67S-1574.72-395.15-1596.11-398.57Z" transform="translate(2276.32 861.59)"></path><path class="cls-2" d="M-1381.49-420.24c0,.29-38.8.52-86.65.52s-86.65-.23-86.65-.52,38.79-.52,86.65-.52S-1381.49-420.53-1381.49-420.24Z" transform="translate(2276.32 861.59)"></path><path class="cls-2" d="M-1381.49-404.68c0,.29-38.8.52-86.65.52s-86.65-.23-86.65-.52,38.79-.52,86.65-.52S-1381.49-405-1381.49-404.68Z" transform="translate(2276.32 861.59)"></path><path class="cls-2" d="M-1381.49-389.12c0,.29-38.8.52-86.65.52s-86.65-.23-86.65-.52,38.79-.52,86.65-.52S-1381.49-389.41-1381.49-389.12Z" transform="translate(2276.32 861.59)"></path><path class="cls-2" d="M-1468.14-373.72c0,.29-19.4.53-43.32.53s-43.33-.24-43.33-.53,19.39-.52,43.33-.52S-1468.14-374-1468.14-373.72Z" transform="translate(2276.32 861.59)"></path><path class="cls-1" d="M-1557.26-667.65s-15,45.44-20,54.62l51,15.59,9.27-5.92s12.39-36.6,14-48.89Z" transform="translate(2276.32 861.59)"></path><polygon class="cls-9" points="752.75 256.55 750.06 264.15 759.34 258.24 752.75 256.55"></polygon><path class="cls-6" d="M-1516.88-636.38c0,.14-2.22-.58-5.71-1.79l-13.64-4.69-13.7-4.49c-3.51-1.14-5.67-1.87-5.63-2s2.27.35,5.84,1.31,8.47,2.42,13.83,4.21,10.13,3.6,13.56,5S-1516.83-636.51-1516.88-636.38Z" transform="translate(2276.32 861.59)"></path><path class="cls-6" d="M-1521.22-626.13c0,.14-2.18-.33-5.6-1.25s-8.12-2.31-13.26-4-9.74-3.35-13-4.64-5.3-2.18-5.25-2.31,2.14.51,5.5,1.62l13.12,4.34,13.14,4.28C-1523.25-627-1521.18-626.27-1521.22-626.13Z" transform="translate(2276.32 861.59)"></path><path class="cls-6" d="M-1526.38-616.91c-.1.27-7.78-2.07-17.16-5.23s-16.92-6-16.82-6.23,7.77,2.07,17.15,5.24S-1526.29-617.18-1526.38-616.91Z" transform="translate(2276.32 861.59)"></path><path class="cls-9" d="M-2196.4-648a15.59,15.59,0,0,0-6.37-15.62,16.79,16.79,0,0,0-17-.88,18.19,18.19,0,0,0-9.37,14.35c-.58,6.71,2.46,13.14,5.06,19.36s4.84,13.19,2.68,19.58c-1.78,5.27-6.2,9.1-10,13.16-3.45,3.69-6.6,8-7.52,12.93s.94,10.74,5.42,13.07a7.25,7.25,0,0,1,2.85,1.86c1.23,1.77-.07,4.1-.91,6.09a13.84,13.84,0,0,0-.46,9.41c2.09,6.74,9.46,11.05,16.5,10.66s13.46-4.87,17.34-10.75,5.5-13,5.83-20.08-.52-14.09-1.18-21.12c-1.64-17.63,6.6-35.87,7.48-53.56" transform="translate(2276.32 861.59)"></path><path class="cls-10" d="M-2180.56-542.91h0a17.64,17.64,0,0,0,19-16.92c.37-9.61.7-19.33.7-19.33s14.56-1.36,15.61-15.77.58-47.68.58-47.68h0a50.21,50.21,0,0,0-50.75,3.26l.9,50.72v27.28C-2194.45-552.19-2189.69-543.61-2180.56-542.91Z" transform="translate(2276.32 861.59)"></path><path class="cls-9" d="M-2159.63-612.53c-2.48-3.08-6.53-4.3-9.85-2.15a8.39,8.39,0,0,0-2.79,10.48,11.05,11.05,0,0,0,7.07,5.34,5.55,5.55,0,0,1,4.34,6,18.55,18.55,0,0,1-5.06,10c-4.23,4.65-10.44,7.16-16.68,7.9s-13.17-.55-16.74-5.6c-2.6-3.67-2.79-8.47-2.88-13l-.66-31.88a45.6,45.6,0,0,1,.72-11.44c.88-3.72,2.84-7.35,6-9.45,3.5-2.31,7.94-2.51,11.93-3.8,5-1.61,9.23-4.92,13.9-7.31s10.4-3.82,15.09-1.47c3.36,1.69,5.62,5,8.89,6.91,4.66,2.65,11,2.05,13.26,8.9a11.56,11.56,0,0,1-.07,7.33c-3.16,9.32-14.71,13.08-23,9.05-.16,1.58,1.4,5.1-.27,10.08-.53,1.6-.72,4-3.21,4.07" transform="translate(2276.32 861.59)"></path><path class="cls-9" d="M-2199.59-582A43.75,43.75,0,0,1-2213-611.71a43.75,43.75,0,0,1,11.08-30.62" transform="translate(2276.32 861.59)"></path><path class="cls-11" d="M-2188.65-577.39s-.24.12-.73.2a7.53,7.53,0,0,1-2.18,0,12.23,12.23,0,0,1-7.06-3.67c-2.47-2.41-4.42-6-6.36-10a64.8,64.8,0,0,1-4.75-13.66,51.94,51.94,0,0,1-1.22-14.41,45.49,45.49,0,0,1,2.2-11.61,38.17,38.17,0,0,1,3.25-7.27,19.39,19.39,0,0,1,1.17-1.82c.28-.4.45-.6.48-.58.2.1-2.26,3.53-4.19,9.89a48.16,48.16,0,0,0-1.95,11.44,53.36,53.36,0,0,0,1.28,14.14,67.15,67.15,0,0,0,4.61,13.47c1.86,4,3.72,7.5,6,9.86a12.39,12.39,0,0,0,6.6,3.79A20.56,20.56,0,0,0-2188.65-577.39Z" transform="translate(2276.32 861.59)"></path><path class="cls-11" d="M-2203.58-640.84c.15-.08,1.29,2.09,3.45,5.35a70.9,70.9,0,0,0,9.77,11.72,70.64,70.64,0,0,0,12.12,9.28c3.35,2,5.56,3.07,5.48,3.23a5.66,5.66,0,0,1-1.63-.55,40.56,40.56,0,0,1-4.22-2,59.42,59.42,0,0,1-12.47-9.17,59.34,59.34,0,0,1-9.67-12.07,39.9,39.9,0,0,1-2.22-4.14A5.16,5.16,0,0,1-2203.58-640.84Z" transform="translate(2276.32 861.59)"></path><path class="cls-11" d="M-2175.75-618.34c-.05.11-1.9-.65-4.66-2.32a53.27,53.27,0,0,1-9.86-7.8,53.24,53.24,0,0,1-7.76-9.9c-1.65-2.77-2.41-4.62-2.3-4.67s1.13,1.64,2.92,4.27a69.06,69.06,0,0,0,7.88,9.56,67.83,67.83,0,0,0,9.53,7.92C-2177.38-619.47-2175.67-618.48-2175.75-618.34Z" transform="translate(2276.32 861.59)"></path><path class="cls-11" d="M-2157-618.35a7.12,7.12,0,0,1-2-.15,39,39,0,0,1-5.34-1.1,55.83,55.83,0,0,1-16.34-7.45,55.92,55.92,0,0,1-13.11-12.27,40.34,40.34,0,0,1-3.05-4.52,7.39,7.39,0,0,1-.9-1.79c.16-.1,1.63,2.34,4.53,5.85A62.33,62.33,0,0,0-2180-627.92a62.33,62.33,0,0,0,16,7.61C-2159.74-619-2156.93-618.54-2157-618.35Z" transform="translate(2276.32 861.59)"></path><path class="cls-11" d="M-2215.47-558.31c-.05,0,.29-.41.63-1.25a6.39,6.39,0,0,0,.17-3.9,9.51,9.51,0,0,0-3.45-5.1c-1.9-1.6-4.46-2.83-7.12-4.61a15.7,15.7,0,0,1-3.75-3.4,9.44,9.44,0,0,1-1.91-5.18c-.18-3.91,1.64-7.83,4.2-11.16s5.74-6.43,7.63-10.45a23.59,23.59,0,0,0,1.52-13.46,62.48,62.48,0,0,0-3.86-13.37,103.5,103.5,0,0,1-4.18-12.45c-.91-4.06-1.56-8.26-.14-11.94a8.75,8.75,0,0,1,3.54-4.27,6.51,6.51,0,0,1,5.08-.67c3.22,1,5.22,3.3,6.91,5.11s3,3.48,4.22,4.85l2.64,3.09a7.07,7.07,0,0,1,.86,1.12,6.19,6.19,0,0,1-1-1l-2.78-3-4.36-4.73c-1.69-1.76-3.73-4-6.66-4.78a5.73,5.73,0,0,0-4.47.64,8,8,0,0,0-3.15,3.89c-1.28,3.37-.66,7.42.27,11.4a106.28,106.28,0,0,0,4.2,12.32,62.7,62.7,0,0,1,3.94,13.58,24.55,24.55,0,0,1-1.63,14.05c-2,4.25-5.32,7.32-7.79,10.6s-4.24,6.93-4.1,10.52a8.59,8.59,0,0,0,1.69,4.75,14.88,14.88,0,0,0,3.52,3.27c2.56,1.77,5.15,3.08,7.07,4.77a9.8,9.8,0,0,1,3.47,5.46,6.41,6.41,0,0,1-.36,4.07A3.54,3.54,0,0,1-2215.47-558.31Z" transform="translate(2276.32 861.59)"></path><path class="cls-7" d="M-2249.41-93.82l9.79-11.91-22.19-18.49-14.51,17.28,1.3,1.23c5.84,5.44,30.08,27.26,35.21,29.43C-2234.09-73.86-2249.41-93.82-2249.41-93.82Z" transform="translate(2276.32 861.59)"></path><g class="cls-12"><path class="cls-6" d="M-2268.13-100.41a10,10,0,0,0,1.11-7.09,9.71,9.71,0,0,0-3.85-5.94l-5.17,6.2Z" transform="translate(2276.32 861.59)"></path></g><g class="cls-13"><path class="cls-6" d="M-2242.2-83.74s5,7.41,3.29,7.81-27.06-20.72-37.41-31l.45-.47,29.33,24.89S-2243.53-84.76-2242.2-83.74Z" transform="translate(2276.32 861.59)"></path></g><path class="cls-9" d="M-2276.21-107.71a2.65,2.65,0,0,0,.34.36l1,1,3.88,3.53c3.31,3,7.92,7,13.12,11.34s10,8.17,13.49,10.89l4.18,3.19,1.14.85a2.93,2.93,0,0,0,.42.28,2.61,2.61,0,0,0-.37-.33l-1.11-.9-4.1-3.29c-3.47-2.77-8.23-6.62-13.43-11s-9.83-8.34-13.17-11.25l-4-3.45c-.41-.35-.76-.66-1.09-.93A2.76,2.76,0,0,0-2276.21-107.71Z" transform="translate(2276.32 861.59)"></path><path class="cls-9" d="M-2246.83-82.18a12.09,12.09,0,0,1,2.35-1.3,11.2,11.2,0,0,1,2.67-.39,3.88,3.88,0,0,0-2.78.06A3.88,3.88,0,0,0-2246.83-82.18Z" transform="translate(2276.32 861.59)"></path><path class="cls-9" d="M-2250.61-91a3.1,3.1,0,0,0,1.41-.27c.75-.24,1.33-.51,1.3-.6a3.1,3.1,0,0,0-1.41.27C-2250.06-91.32-2250.64-91-2250.61-91Z" transform="translate(2276.32 861.59)"></path><path class="cls-9" d="M-2251.61-93.41c0,.1.54.16,1.21.13s1.21-.12,1.21-.22-.55-.15-1.22-.13S-2251.62-93.5-2251.61-93.41Z" transform="translate(2276.32 861.59)"></path><path class="cls-9" d="M-2251-96.45c-.07.08.4.58,1,1.12s1.2.92,1.26.84-.4-.57-1-1.11S-2250.94-96.52-2251-96.45Z" transform="translate(2276.32 861.59)"></path><path class="cls-9" d="M-2250.16-98.25a2.88,2.88,0,0,0,1,1.45,2.9,2.9,0,0,0,1.48.94c0-.09-.57-.53-1.24-1.19S-2250.08-98.3-2250.16-98.25Z" transform="translate(2276.32 861.59)"></path><path class="cls-9" d="M-2248.24-92.27a5,5,0,0,0,1.43,1.18,9.68,9.68,0,0,0,1.8.93,4.78,4.78,0,0,0,1.16.37,1,1,0,0,0,.73-.15.72.72,0,0,0,.25-.75,3.4,3.4,0,0,0-3.87-1.93,3.41,3.41,0,0,0-1.25.56c-.26.2-.38.34-.36.36a5.2,5.2,0,0,1,1.66-.68,3.35,3.35,0,0,1,1.88.23,2.86,2.86,0,0,1,1.6,1.53c.09.36-.22.55-.6.49a4.87,4.87,0,0,1-1.09-.33,12.45,12.45,0,0,1-1.78-.84C-2247.66-91.86-2248.21-92.31-2248.24-92.27Z" transform="translate(2276.32 861.59)"></path><path class="cls-9" d="M-2247.93-91.89s.52-.15,1-.85a3.16,3.16,0,0,0,.48-1.37,1.85,1.85,0,0,0-.59-1.71.72.72,0,0,0-1,.29,1.92,1.92,0,0,0-.29.84,5.37,5.37,0,0,0,0,1.42A2.6,2.6,0,0,0-2248-92c.05,0-.07-.49-.09-1.27a6.13,6.13,0,0,1,.12-1.35c.05-.47.37-1.12.78-.89s.45.92.43,1.39a2.92,2.92,0,0,1-.37,1.26A6.86,6.86,0,0,1-2247.93-91.89Z" transform="translate(2276.32 861.59)"></path><path class="cls-9" d="M-2270.7-113.4c0,.05.69.47,1.59,1.42a9.31,9.31,0,0,1,2.35,4.46,9.32,9.32,0,0,1-.4,5c-.45,1.23-1,1.9-.9,1.93s.16-.14.38-.45a7.56,7.56,0,0,0,.75-1.39,8.94,8.94,0,0,0,.51-5.19,8.86,8.86,0,0,0-2.51-4.55,7.85,7.85,0,0,0-1.25-1A1.5,1.5,0,0,0-2270.7-113.4Z" transform="translate(2276.32 861.59)"></path><path class="cls-9" d="M-2260.7-120.72a52.21,52.21,0,0,0-4,4.4,52.64,52.64,0,0,0-3.73,4.62,49.18,49.18,0,0,0,4-4.39A51.34,51.34,0,0,0-2260.7-120.72Z" transform="translate(2276.32 861.59)"></path><path class="cls-9" d="M-2263.54-100.25a16.49,16.49,0,0,0,3,3,16.06,16.06,0,0,0,3.47,2.45c0-.08-1.47-1.2-3.24-2.71S-2263.46-100.32-2263.54-100.25Z" transform="translate(2276.32 861.59)"></path><path class="cls-9" d="M-2267.88-103.88c-.1,0-.14.41-.26.86s-.3.82-.22.88.41-.26.55-.79S-2267.79-103.89-2267.88-103.88Z" transform="translate(2276.32 861.59)"></path><path class="cls-9" d="M-2267.82-107.29c-.09,0-.14.36-.11.79s.15.76.24.75.15-.36.11-.78S-2267.72-107.29-2267.82-107.29Z" transform="translate(2276.32 861.59)"></path><path class="cls-9" d="M-2269.38-110.17c0,.09.25.33.48.72s.32.75.42.75.17-.46-.13-.94S-2269.35-110.26-2269.38-110.17Z" transform="translate(2276.32 861.59)"></path><path class="cls-9" d="M-2270.69-112c-.08,0,0,.26.08.49s.29.37.37.32.06-.27-.07-.49S-2270.6-112-2270.69-112Z" transform="translate(2276.32 861.59)"></path><path class="cls-7" d="M-2147.49-88.89l-.34-15.41-28.88.46.26,22.56,1.79.08c8,.32,40.59,1,45.89-.66C-2122.86-83.75-2147.49-88.89-2147.49-88.89Z" transform="translate(2276.32 861.59)"></path><g class="cls-12"><path class="cls-6" d="M-2166-81.68a10.09,10.09,0,0,0-3.78-6.1,9.78,9.78,0,0,0-6.79-2l.12,8.08Z" transform="translate(2276.32 861.59)"></path></g><g class="cls-13"><path class="cls-6" d="M-2135.45-85.95s8.64,2.34,7.59,3.78-34,1.94-48.59.89l0-.65,38.47-.26S-2137.13-85.85-2135.45-85.95Z" transform="translate(2276.32 861.59)"></path></g><path class="cls-9" d="M-2176.87-81.94a3,3,0,0,0,.5,0l1.43.06,5.25.15c4.44.09,10.57.13,17.34,0s12.9-.32,17.33-.54l5.25-.3,1.42-.1a1.82,1.82,0,0,0,.5-.07,3.92,3.92,0,0,0-.5,0l-1.43,0-5.25.19c-4.43.16-10.56.34-17.33.44s-12.89.1-17.33.07l-5.25,0h-1.43A2.83,2.83,0,0,0-2176.87-81.94Z" transform="translate(2276.32 861.59)"></path><path class="cls-9" d="M-2137.94-81.74a11.28,11.28,0,0,1,.94-2.52,12,12,0,0,1,1.76-2,3.9,3.9,0,0,0-2.06,1.86A3.82,3.82,0,0,0-2137.94-81.74Z" transform="translate(2276.32 861.59)"></path><path class="cls-9" d="M-2146.53-85.94c.08.06.48-.45.89-1.12s.68-1.25.6-1.3-.48.45-.9,1.12S-2146.61-86-2146.53-85.94Z" transform="translate(2276.32 861.59)"></path><path class="cls-9" d="M-2148.89-87.14c.07.07.52-.24,1-.69s.83-.88.77-1-.52.24-1,.69S-2148.95-87.21-2148.89-87.14Z" transform="translate(2276.32 861.59)"></path><path class="cls-9" d="M-2150.41-89.84a3.41,3.41,0,0,0,1.51.17,3.5,3.5,0,0,0,1.51-.18,3.41,3.41,0,0,0-1.51-.17A3.33,3.33,0,0,0-2150.41-89.84Z" transform="translate(2276.32 861.59)"></path><path class="cls-9" d="M-2150.95-91.75a3,3,0,0,0,1.69.46,3,3,0,0,0,1.74-.26,9.56,9.56,0,0,0-1.72-.09A9,9,0,0,0-2150.95-91.75Z" transform="translate(2276.32 861.59)"></path><path class="cls-9" d="M-2145.59-88.47a5.21,5.21,0,0,0,1.86,0,10.37,10.37,0,0,0,2-.47,5.1,5.1,0,0,0,1.13-.48,1,1,0,0,0,.45-.58.74.74,0,0,0-.29-.74,3.41,3.41,0,0,0-4.2,1.06,3.29,3.29,0,0,0-.58,1.25,1,1,0,0,0,0,.5,5,5,0,0,1,.82-1.6,3.33,3.33,0,0,1,1.57-1.05,2.83,2.83,0,0,1,2.21.12c.3.21.19.56-.14.76a5.3,5.3,0,0,1-1,.46,13.4,13.4,0,0,1-1.91.53C-2144.88-88.54-2145.59-88.53-2145.59-88.47Z" transform="translate(2276.32 861.59)"></path><path class="cls-9" d="M-2145.11-88.39a1.76,1.76,0,0,0,.2-1.29,3.16,3.16,0,0,0-.53-1.35,1.91,1.91,0,0,0-1.56-.92.75.75,0,0,0-.56.87,2,2,0,0,0,.33.82,5.6,5.6,0,0,0,.89,1.11,2.78,2.78,0,0,0,1.08.74s-.38-.33-.9-.91a6.39,6.39,0,0,1-.79-1.1c-.27-.39-.45-1.09,0-1.18s1,.4,1.24.77a3,3,0,0,1,.54,1.19A6,6,0,0,1-2145.11-88.39Z" transform="translate(2276.32 861.59)"></path><path class="cls-9" d="M-2176.4-89.85c0,.06.83-.09,2.14,0a9.39,9.39,0,0,1,4.68,1.85,9.22,9.22,0,0,1,3,4.07c.46,1.23.52,2.06.58,2s0-.21,0-.58a8.45,8.45,0,0,0-.34-1.56,9,9,0,0,0-3-4.26,9,9,0,0,0-4.88-1.81,7.43,7.43,0,0,0-1.59.06A1.82,1.82,0,0,0-2176.4-89.85Z" transform="translate(2276.32 861.59)"></path><path class="cls-9" d="M-2173.59-101.92a49.26,49.26,0,0,0-.16,5.94,52.86,52.86,0,0,0,.19,5.94,49.26,49.26,0,0,0,.16-5.94A50.16,50.16,0,0,0-2173.59-101.92Z" transform="translate(2276.32 861.59)"></path><path class="cls-9" d="M-2162.39-84.55a16.64,16.64,0,0,0,4.22.36,16.13,16.13,0,0,0,4.22-.41c0-.1-1.89,0-4.22.06S-2162.38-84.65-2162.39-84.55Z" transform="translate(2276.32 861.59)"></path><path class="cls-9" d="M-2168-84.47c-.07.07.16.4.36.83s.31.81.41.8.14-.46-.09-1S-2168-84.54-2168-84.47Z" transform="translate(2276.32 861.59)"></path><path class="cls-9" d="M-2170.22-87.09c-.07.07.12.37.42.66s.61.49.68.42-.13-.37-.43-.67S-2170.16-87.16-2170.22-87.09Z" transform="translate(2276.32 861.59)"></path><path class="cls-9" d="M-2173.29-88.26c0,.1.4.09.83.23s.73.37.81.3-.17-.46-.71-.63S-2173.33-88.35-2173.29-88.26Z" transform="translate(2276.32 861.59)"></path><path class="cls-9" d="M-2175.48-88.8c0,.09.14.24.38.33s.46.09.5,0-.14-.24-.38-.33S-2175.44-88.89-2175.48-88.8Z" transform="translate(2276.32 861.59)"></path><path class="cls-9" d="M-2189.3-416.48s-9.62,40.69-6.9,48.74,20.34,12.71,20.34,12.71l-.59,111.42-97.44,120.44,36,29.44s105.48-120.67,114.78-142.52-5.93-182-5.93-182Z" transform="translate(2276.32 861.59)"></path><path class="cls-9" d="M-2139.53-433.06l4.76,338.4-49.57.26-32.2-270.17h0c-4.89-16.13-10.48-32.82-9.46-52l6.64-19.46Z" transform="translate(2276.32 861.59)"></path><path class="cls-11" d="M-2197-381.37a9,9,0,0,1,1.16,1c.72.7,1.77,1.74,3.06,3.15,2.61,2.8,6.26,7,10.62,12.43l.07.08v.12c.9,15.16,2.68,37.27,4.83,61.83,1.72,20,3.48,38.27,4.57,52.52v.12l-.09.12-13.79,18.48-3.83,5c-.42.52-.75,1-1,1.3s-.36.43-.38.41a2,2,0,0,1,.28-.48l.93-1.37,3.66-5.16,13.51-18.69-.08.24c-1.3-14.2-3-32.5-4.8-52.43-2.15-24.56-3.8-46.69-4.5-61.89l.08.2c-4.28-5.46-7.84-9.73-10.35-12.61-1.25-1.44-2.25-2.52-2.93-3.26A9,9,0,0,1-2197-381.37Z" transform="translate(2276.32 861.59)"></path><path class="cls-11" d="M-2142.63-249c-.13.32-5.7-2.93-13.39-3.48s-13.69,1.67-13.77,1.33c0-.11,1.38-.84,3.86-1.51a30.31,30.31,0,0,1,10-.87,30.48,30.48,0,0,1,9.73,2.43C-2143.86-250.09-2142.57-249.14-2142.63-249Z" transform="translate(2276.32 861.59)"></path><path class="cls-11" d="M-2125.15-233.35c.23.17-13.71,18.89-31.14,41.79s-31.74,41.34-32,41.17,13.71-18.89,31.14-41.8S-2125.38-233.53-2125.15-233.35Z" transform="translate(2276.32 861.59)"></path><path class="cls-11" d="M-2127.58-407.93c.09,0-.59,1.77-2.79,3.69a14.25,14.25,0,0,1-10.57,3.36,14.26,14.26,0,0,1-9.64-5.5c-1.75-2.33-2.05-4.17-2-4.18s.73,1.63,2.54,3.72a14.42,14.42,0,0,0,9.17,4.92,14.44,14.44,0,0,0,10-2.9C-2128.64-406.49-2127.74-408-2127.58-407.93Z" transform="translate(2276.32 861.59)"></path><path class="cls-10" d="M-2234.39-505.74s-7.52,55.06,0,62,14.75,4.66,14.75,4.66l14.31-12,2.82-54.74Z" transform="translate(2276.32 861.59)"></path><path class="cls-5" d="M-2227.43-550.48s-10.77,12.17-13,58.7c0,0,30.67,5.82,31.23,4.14S-2227.43-550.48-2227.43-550.48Z" transform="translate(2276.32 861.59)"></path><path class="cls-1" d="M-2218.76-491.78" transform="translate(2276.32 861.59)"></path><path class="cls-5" d="M-2226-416.56l97.69,1.59-1.52-14.7s-10.76-56-10.68-56.7l1.69-3.56c4.45-9.34,5-18.81.83-28.27h47.43l-2-38.48-49.78-7.34-18.5-1.46s-32.64,1.7-33.34,1.79c-13.66,1.65-29.54,2.7-35.35,17.31-3.11,7.82-.16,19.55,4.91,31.64l12.07,37.14c4.82,20.42-2.87,19.45-7.09,40C-2220.28-434.5-2226.06-419.41-2226-416.56Z" transform="translate(2276.32 861.59)"></path><path class="cls-2" d="M-2098.2-554.94c0,.29-27.84.52-62.17.52s-62.18-.23-62.18-.52,27.83-.52,62.18-.52S-2098.2-555.23-2098.2-554.94Z" transform="translate(2276.32 861.59)"></path><path class="cls-2" d="M-2095.34-536.45c0,.29-31,.52-69.18.52s-69.19-.23-69.19-.52,31-.52,69.19-.52S-2095.34-536.74-2095.34-536.45Z" transform="translate(2276.32 861.59)"></path><path class="cls-2" d="M-2226-515.41c0,.29-2.58.53-5.77.53s-5.76-.24-5.76-.53,2.58-.52,5.76-.52S-2226-515.7-2226-515.41Z" transform="translate(2276.32 861.59)"></path><path class="cls-2" d="M-2135.51-514.77c0,.29-20.26.52-45.24.52s-45.25-.23-45.25-.52,20.25-.52,45.25-.52S-2135.51-515.06-2135.51-514.77Z" transform="translate(2276.32 861.59)"></path><path class="cls-2" d="M-2137.5-493.09c0,.29-18.19.52-40.61.52s-40.61-.23-40.61-.52,18.18-.52,40.61-.52S-2137.5-493.38-2137.5-493.09Z" transform="translate(2276.32 861.59)"></path><path class="cls-2" d="M-2138.09-473c0,.29-16.48.52-36.81.52s-36.81-.23-36.81-.52,16.48-.53,36.81-.53S-2138.09-473.29-2138.09-473Z" transform="translate(2276.32 861.59)"></path><path class="cls-2" d="M-2134.87-456.74c0,.29-17.63.52-39.37.52s-39.38-.23-39.38-.52,17.63-.53,39.38-.53S-2134.87-457-2134.87-456.74Z" transform="translate(2276.32 861.59)"></path><path class="cls-2" d="M-2129.77-436c0,.29-20.06.52-44.79.52s-44.8-.23-44.8-.52,20.05-.52,44.8-.52S-2129.77-436.31-2129.77-436Z" transform="translate(2276.32 861.59)"></path><path class="cls-9" d="M-2213.11-479.33a7.67,7.67,0,0,1-.83-1.86c-.56-1.43-1.21-3.14-2-5.13-1.66-4.35-4-10.33-6.42-17s-4.44-12.79-5.7-17.28c-.63-2.24-1.1-4.07-1.37-5.35a7.5,7.5,0,0,1-.33-2c.15,0,1,2.72,2.41,7.14s3.54,10.47,6,17.14,4.64,12.69,6.12,17.11c.75,2.2,1.31,4,1.67,5.25A7.29,7.29,0,0,1-2213.11-479.33Z" transform="translate(2276.32 861.59)"></path><g class="cls-14"><path d="M-2206-442.61c9-3.72,17.89-8.11,25.4-14.35s13.6-14.5,15.89-24c.43-1.8.5-4.14-1.14-5a3.16,3.16,0,0,0-3.59.9,12.24,12.24,0,0,0-1.94,3.46,25,25,0,0,1-8.67,10.21c-4.29,2.91-9.37,4.38-14.19,6.29s-9.67,4.45-12.57,8.75-3.16,10.76.65,14.27" transform="translate(2276.32 861.59)"></path></g><path class="cls-9" d="M-2161.55-498.18s.05.27.05.79,0,1.27-.07,2.25a52.58,52.58,0,0,1-1.21,8.21,59.14,59.14,0,0,1-12,24.46,59.16,59.16,0,0,1-21.76,16.39,53.71,53.71,0,0,1-7.84,2.74c-.94.26-1.69.39-2.2.49a2.4,2.4,0,0,1-.78.1,21.09,21.09,0,0,1,2.87-1,67.84,67.84,0,0,0,7.64-3,61.75,61.75,0,0,0,21.26-16.38,61.77,61.77,0,0,0,12.07-24,64.46,64.46,0,0,0,1.52-8.08A20.17,20.17,0,0,1-2161.55-498.18Z" transform="translate(2276.32 861.59)"></path><path class="cls-7" d="M-2086-650.63s-.23-1.24-.43-3.69a39.48,39.48,0,0,1,.84-10.87,42.81,42.81,0,0,1,2.44-7.67,43,43,0,0,1,4.71-8.5,44.3,44.3,0,0,1,18.56-15.21,49,49,0,0,1,13.91-3.84,53.69,53.69,0,0,1,15.91.33c11,1.77,22.31,7.49,31.49,16.71a69.36,69.36,0,0,1,12,16.13,64,64,0,0,1,6.78,20.28,60.38,60.38,0,0,1-.67,22.61,51.62,51.62,0,0,1-3.89,11.17,46.44,46.44,0,0,1-6.83,10,46.08,46.08,0,0,1-21.28,12.93,77.62,77.62,0,0,1-26,2.67,102.8,102.8,0,0,1-26.8-4.84c-8.77-3-17.31-8.09-23.05-16a47.76,47.76,0,0,1-8.87-27.62,52.89,52.89,0,0,1,2.05-14.9,60.8,60.8,0,0,1,6.25-13.93,66.83,66.83,0,0,1,9.77-12,66.22,66.22,0,0,1,12.68-9.28,58.72,58.72,0,0,1,14.92-5.55,54,54,0,0,1,16.11-.85c21.61,2.12,42.27,16.69,51.27,37.69a55.07,55.07,0,0,1,3,33.79,43.88,43.88,0,0,1-7.24,15.85,38.68,38.68,0,0,1-13.41,11.34,47.62,47.62,0,0,1-17,5,60.93,60.93,0,0,1-17.87-.75,62.11,62.11,0,0,1-31.76-16.55,50.82,50.82,0,0,1-10.56-15,39.2,39.2,0,0,1-3.49-18.08c.68-12.52,7.33-24.17,16.56-32.56a58.64,58.64,0,0,1,33.56-15,49.88,49.88,0,0,1,18.37,1.61,47.84,47.84,0,0,1,8.59,3.32,46.66,46.66,0,0,1,7.8,4.82,45.5,45.5,0,0,1,12.13,13.54,40.22,40.22,0,0,1,3.68,8.3c.52,1.43.79,2.92,1.17,4.38s.57,3,.66,4.48a48.55,48.55,0,0,1-9.3,33.77,52.36,52.36,0,0,1-28.86,18.95,56.56,56.56,0,0,1-33.9-1.65c-21.37-7.76-37.9-26.81-41.45-48.38a46.7,46.7,0,0,1,5.4-31.12,54.46,54.46,0,0,1,22.28-21.39,66,66,0,0,1,29.21-7.22,76.13,76.13,0,0,1,28.78,5c18,6.82,32.82,20.51,39.32,37.29a57.15,57.15,0,0,1-4.25,49.55A46.54,46.54,0,0,1-1989.85-595a56.78,56.78,0,0,1-21.59,6.73c-14.78,1.55-28.71-2.44-40.25-8.18a89.43,89.43,0,0,1-28.46-21.94c-7.17-8.5-11.67-18-13.19-27a44.22,44.22,0,0,1,2.69-23.84,40,40,0,0,1,10-14.57,33.75,33.75,0,0,1,9.16-5.88c2.32-.83,3.52-1.19,3.52-1.19l-.87.33c-.58.22-1.47.51-2.61,1a34.1,34.1,0,0,0-9.05,5.94,39.76,39.76,0,0,0-9.83,14.52,44,44,0,0,0-2.58,23.66c1.54,9,6,18.36,13.17,26.79A88.89,88.89,0,0,0-2051.43-597c11.49,5.69,25.31,9.61,39.91,8a56.15,56.15,0,0,0,21.32-6.68,45.81,45.81,0,0,0,16.83-16.26c8.42-13.77,10.49-32.35,4.13-48.87s-21.1-30-38.88-36.77a75.24,75.24,0,0,0-28.45-4.91,65.42,65.42,0,0,0-28.81,7.14,53.62,53.62,0,0,0-21.88,21,45.75,45.75,0,0,0-5.27,30.5c3.49,21.18,19.8,40,40.84,47.6a55.62,55.62,0,0,0,33.3,1.62,51.44,51.44,0,0,0,28.3-18.59,47.53,47.53,0,0,0,9.09-33.05c-.09-1.48-.42-2.92-.64-4.38-.38-1.42-.64-2.88-1.15-4.27a39.05,39.05,0,0,0-3.59-8.1,44.58,44.58,0,0,0-11.85-13.23,48.6,48.6,0,0,0-34-9.54A57.53,57.53,0,0,0-2065.22-671c-9.07,8.23-15.58,19.66-16.23,31.83a38.12,38.12,0,0,0,3.4,17.6,49.75,49.75,0,0,0,10.34,14.64,61.12,61.12,0,0,0,31.22,16.28,60,60,0,0,0,17.57.74,46.66,46.66,0,0,0,16.65-4.9,37.43,37.43,0,0,0,13.07-11,42.71,42.71,0,0,0,7.07-15.48,54.12,54.12,0,0,0-2.93-33.16c-8.82-20.64-29.2-35-50.44-37.12a53.37,53.37,0,0,0-15.82.82A57.64,57.64,0,0,0-2066-685.3a64.82,64.82,0,0,0-12.49,9.13,65.52,65.52,0,0,0-9.63,11.83,60.09,60.09,0,0,0-6.16,13.7,52.21,52.21,0,0,0-2,14.64,46.93,46.93,0,0,0,8.68,27.12c5.61,7.72,14,12.77,22.62,15.7a102.46,102.46,0,0,0,26.57,4.83A77,77,0,0,0-2012.7-591a45.29,45.29,0,0,0,21-12.69,45.25,45.25,0,0,0,6.73-9.85,51,51,0,0,0,3.86-11,59.89,59.89,0,0,0,.69-22.36A65.41,65.41,0,0,0-1999-683c-9.08-9.15-20.28-14.85-31.16-16.63a53.13,53.13,0,0,0-15.77-.37,48.66,48.66,0,0,0-13.81,3.76,44,44,0,0,0-18.47,15,43.34,43.34,0,0,0-4.72,8.42,42.57,42.57,0,0,0-2.47,7.61,40.45,40.45,0,0,0-.94,10.82c0,1.23.2,2.15.24,2.77S-2086-650.63-2086-650.63Z" transform="translate(2276.32 861.59)"></path><path class="cls-7" d="M-2007.08-661c.09.28-13.07,4.66-29.37,9.78s-29.61,9-29.7,8.77,13.07-4.65,29.38-9.77S-2007.17-661.32-2007.08-661Z" transform="translate(2276.32 861.59)"></path><path class="cls-7" d="M-2003.36-651.5c.1.27-12.16,4.73-27.38,10s-27.63,9.25-27.72,9,12.16-4.73,27.38-10S-2003.45-651.78-2003.36-651.5Z" transform="translate(2276.32 861.59)"></path><path class="cls-7" d="M-2025.82-631.87c.31.42-6,2.94-13.69,5.67-3.87,1.37-7.4,2.54-10,3.34s-4.19,1.21-4.24,1.08,1.49-.81,4-1.78,6-2.26,9.87-3.63,7.38-2.56,9.94-3.4S-2025.73-631.93-2025.82-631.87Z" transform="translate(2276.32 861.59)"></path><path class="cls-10" d="M-2014.49-622.42s-9.2-4.26-9.64-2,.17,3.14,2,3.71,6.81,2.25,6.81,2.25Z" transform="translate(2276.32 861.59)"></path><path class="cls-15" d="M-2015-618.22s-9.21-4.26-9.64-2,.16,3.14,2,3.7,6.81,2.26,6.81,2.26Z" transform="translate(2276.32 861.59)"></path><path class="cls-10" d="M-2036.18-608.83-2071.06-563c-5,7.37-12.71,11-17.94,11.18l-3.27.27,1.63,31.15,13.76-1.56a27.62,27.62,0,0,0,20.82-13.62l35.49-61.33a104.31,104.31,0,0,0,6.23-12.24c2.08-5.3-.15-13.23-.15-13.23l-14.1,8.87v-9.58s-1.5-.51-4.42,2.36C-2035.52-618.31-2036.18-608.83-2036.18-608.83Z" transform="translate(2276.32 861.59)"></path><path class="cls-11" d="M-2028.78-627.27l.18,33.72a2.73,2.73,0,0,0,2.91,2.72h0a2.72,2.72,0,0,0,2.53-2.73v-34.05l-3.21-5.21Z" transform="translate(2276.32 861.59)"></path><polygon class="cls-9" points="249.91 228.76 249.03 230.79 251.11 230.71 249.91 228.76"></polygon><path class="cls-9" d="M-2023.2-627.62a4.57,4.57,0,0,1-2.79.89,5.13,5.13,0,0,1-2.88-.52c0-.13,1.29.18,2.86.1S-2023.25-627.74-2023.2-627.62Z" transform="translate(2276.32 861.59)"></path><path class="cls-9" d="M-2026.07-590.84a9.05,9.05,0,0,1-.09-1.42c0-1.17,0-2.45-.08-3.88,0-3.63-.07-8-.11-12.78s0-9.15,0-12.79q0-2.13.06-3.87a8.38,8.38,0,0,1,.08-1.42,8.38,8.38,0,0,1,.08,1.42c0,1.16,0,2.45.07,3.87,0,3.64,0,8,.08,12.79s0,9.14,0,12.78c0,1.43,0,2.71,0,3.88A11.59,11.59,0,0,1-2026.07-590.84Z" transform="translate(2276.32 861.59)"></path><path class="cls-7" d="M-1406.53-223.83c15.71,5.49,36.21.59,49.66-9.23s23.12-23.88,31.69-38.15c3.66-6.09,7.23-12.44,8.39-19.45s-.55-14.89-6-19.46c-8.45-7.11-21.39-3.51-31,2-30,17.1-50.52,49.86-52.77,84.33" transform="translate(2276.32 861.59)"></path><path class="cls-7" d="M-1389.66-186.21c9.44,12.45,25.66,18,41.26,18.72s31-3.6,45.62-9.19c5.29-2,11.09-4.82,12.9-10.19,1.38-4.06,0-8.7-2.76-12s-6.59-5.5-10.54-7.18c-14.36-6.12-30.81-6.4-45.91-2.49s-28.31,12.68-40.57,22.34" transform="translate(2276.32 861.59)"></path><path class="cls-7" d="M-1406.76-291.15c13,.26,22.86-11.14,28.75-22.74a84.28,84.28,0,0,0,7.74-52.55c-1.19-6.65-3.7-13.82-9.65-17s-13.91-1.11-19,3.52-7.85,11.23-9.87,17.79c-7,22.6-5.48,48.56,2,71" transform="translate(2276.32 861.59)"></path><path class="cls-7" d="M-1449.49-219.2c22.18-37.75,25.87-83.94,12.77-125.72-2.12-6.77-6.13-14.53-13.22-15-7.85-.5-12.77,8.26-14.94,15.82-7.61,26.53-6,54.71-4.31,82.25,1,17,6.87,31.48,19.7,42.63" transform="translate(2276.32 861.59)"></path><path class="cls-7" d="M-1472.56-203.67a90.74,90.74,0,0,0-53.83-57.08c-5.89-2.22-13.38-3.48-17.77,1s-3,11.81-.22,17.33c4.47,8.91,11.72,16.08,18.94,22.95,6.57,6.25,13.4,12.53,21.71,16.16s23.57,4.56,31.17-.39" transform="translate(2276.32 861.59)"></path><path class="cls-9" d="M-1335-300.66s-.12.14-.39.35l-1.19.93-4.65,3.47-3.37,2.49c-1.22.94-2.48,2-3.87,3.15-2.75,2.3-6,4.76-9.26,7.87-1.66,1.52-3.41,3.1-5.23,4.75s-3.55,3.54-5.43,5.4c-3.82,3.67-7.51,8-11.49,12.38a266.17,266.17,0,0,0-22.87,31.18,267.07,267.07,0,0,0-17.67,34.41c-2.18,5.54-4.36,10.76-5.94,15.82-.82,2.51-1.72,4.91-2.4,7.27s-1.3,4.63-1.91,6.8c-1.32,4.31-2.08,8.32-2.9,11.8-.39,1.74-.79,3.36-1.09,4.86s-.5,2.89-.72,4.13c-.43,2.42-.78,4.33-1,5.72-.12.6-.22,1.09-.29,1.48a2.22,2.22,0,0,1-.14.5,1.65,1.65,0,0,1,0-.51c0-.4.11-.9.19-1.5q.32-2.1.84-5.75l.63-4.16c.27-1.51.65-3.14,1-4.89.77-3.5,1.48-7.53,2.75-11.87.6-2.18,1.21-4.46,1.86-6.84s1.54-4.79,2.35-7.32c1.55-5.09,3.7-10.34,5.87-15.91a258.87,258.87,0,0,1,17.67-34.59,259.29,259.29,0,0,1,23-31.26c4-4.43,7.75-8.7,11.61-12.36,1.9-1.86,3.66-3.72,5.49-5.37l5.29-4.72c3.31-3.08,6.6-5.52,9.38-7.78,1.41-1.1,2.7-2.17,3.93-3.08l3.44-2.43,4.77-3.32,1.25-.84A2.82,2.82,0,0,1-1335-300.66Z" transform="translate(2276.32 861.59)"></path><path class="cls-9" d="M-1305.67-196a7.75,7.75,0,0,1-1.52-.25c-1-.18-2.43-.56-4.32-.88a122.45,122.45,0,0,0-16.06-2,119.39,119.39,0,0,0-52.15,8.77,119.36,119.36,0,0,0-43,30.82,120.32,120.32,0,0,0-9.93,12.77c-1.11,1.57-1.85,2.86-2.42,3.69a7.51,7.51,0,0,1-.9,1.25,9.73,9.73,0,0,1,.72-1.36c.51-.87,1.2-2.2,2.26-3.8a108.88,108.88,0,0,1,9.71-13,116.9,116.9,0,0,1,43.15-31.29,117,117,0,0,1,52.6-8.55,108.35,108.35,0,0,1,16.09,2.3c1.89.38,3.31.83,4.29,1.07A9,9,0,0,1-1305.67-196Z" transform="translate(2276.32 861.59)"></path><path class="cls-9" d="M-1387.59-368.39a2.32,2.32,0,0,1-.08.59c-.09.44-.21,1-.35,1.7l-1.46,6.49c-1.28,5.64-3.23,13.78-5.68,23.83-4.88,20.1-12,47.77-19.38,78.43-3.68,15.35-7,30-9.88,43.37s-5.21,25.44-7,35.62c-.95,5.08-1.67,9.7-2.36,13.75s-1.23,7.54-1.65,10.4-.78,5-1,6.58c-.12.7-.22,1.26-.29,1.71a2.48,2.48,0,0,1-.14.57,2.19,2.19,0,0,1,0-.59c0-.44.11-1,.19-1.72.2-1.58.48-3.8.83-6.61s.83-6.37,1.48-10.43,1.29-8.69,2.21-13.79c1.69-10.2,4-22.3,6.78-35.69s6.12-28.06,9.8-43.41c7.4-30.68,14.62-58.32,19.68-78.37,2.52-10,4.57-18.06,6-23.74.7-2.75,1.25-4.91,1.65-6.45.19-.69.34-1.24.45-1.68A3.69,3.69,0,0,1-1387.59-368.39Z" transform="translate(2276.32 861.59)"></path><path class="cls-9" d="M-1438.52-148.38a1.4,1.4,0,0,1-.14-.46c-.08-.37-.19-.81-.31-1.36q-.4-1.94-1.09-5.26c-.94-4.56-2.19-11.19-3.61-19.41-2.84-16.42-6.22-39.23-8.29-64.6-1-12.69-1.56-24.8-1.81-35.83s-.09-21,.26-29.29c.1-4.17.37-7.93.56-11.24s.4-6.15.61-8.47.38-4,.5-5.34l.15-1.39a1.53,1.53,0,0,1,.09-.47,1.75,1.75,0,0,1,0,.48c0,.38,0,.83-.05,1.39-.08,1.32-.18,3.1-.3,5.36s-.33,5.17-.44,8.48-.35,7.06-.4,11.23c-.25,8.32-.27,18.24,0,29.24s.89,23.1,1.89,35.77c2.07,25.32,5.33,48.12,8,64.56,1.33,8.22,2.46,14.87,3.28,19.46l.9,5.29c.08.55.15,1,.2,1.38A1.35,1.35,0,0,1-1438.52-148.38Z" transform="translate(2276.32 861.59)"></path><path class="cls-9" d="M-1436.88-143.59a8.29,8.29,0,0,1-.58-1.3c-.37-1-.85-2.23-1.46-3.8-.31-.84-.66-1.75-1-2.74s-.92-2.06-1.42-3.2-1.06-2.37-1.63-3.66-1.32-2.61-2-4l-2.26-4.4-2.7-4.64c-1.78-3.26-4.09-6.49-6.31-10A238.35,238.35,0,0,0-1473-202.72a262.78,262.78,0,0,0-19.17-19.19c-3.19-2.69-6.11-5.38-9.06-7.63l-4.19-3.35-4-2.94c-2.51-1.91-4.88-3.5-7-4.9s-3.86-2.61-5.37-3.52l-3.44-2.18a8.65,8.65,0,0,1-1.17-.82,7.06,7.06,0,0,1,1.27.64l3.55,2c1.55.86,3.39,2,5.49,3.39s4.52,2.91,7.07,4.78l4,2.9,4.25,3.31c3,2.24,5.94,4.91,9.16,7.59a250.88,250.88,0,0,1,19.32,19.22,227.26,227.26,0,0,1,16.72,21.5c2.21,3.56,4.5,6.83,6.26,10.12.91,1.62,1.8,3.19,2.66,4.69s1.5,3,2.21,4.46,1.41,2.75,2,4.07l1.56,3.72c.49,1.15.94,2.23,1.35,3.23l1,2.79c.53,1.6,1,2.89,1.28,3.87A7,7,0,0,1-1436.88-143.59Z" transform="translate(2276.32 861.59)"></path><path class="cls-9" d="M-1343.27-256.87c0,.17-2.69.17-7,.41a129.82,129.82,0,0,0-16.75,2,129.73,129.73,0,0,0-16.32,4.26c-4.11,1.36-6.6,2.34-6.67,2.19a6.45,6.45,0,0,1,1.67-.91c1.09-.52,2.72-1.21,4.75-2a99.22,99.22,0,0,1,16.38-4.58,99.53,99.53,0,0,1,16.91-1.74c2.18,0,3.94,0,5.15.1A6.61,6.61,0,0,1-1343.27-256.87Z" transform="translate(2276.32 861.59)"></path><path class="cls-9" d="M-1326.53-175.14c-.32.16-2.83-7.07-9.13-13.77s-13.25-9.82-13.06-10.13a16.17,16.17,0,0,1,4.51,2,39.62,39.62,0,0,1,9.31,7.42,39.29,39.29,0,0,1,6.71,9.84C-1326.89-177-1326.42-175.18-1326.53-175.14Z" transform="translate(2276.32 861.59)"></path><path class="cls-9" d="M-1383.6-337.74c.22.23-3.87,4.27-8.33,9.76s-7.62,10.28-7.88,10.12,2.54-5.24,7.07-10.78S-1383.77-337.94-1383.6-337.74Z" transform="translate(2276.32 861.59)"></path><path class="cls-9" d="M-1397-360.88c.29-.05,1.19,3.87,2,8.75s1.28,8.88,1,8.93-1.18-3.87-2-8.75S-1397.28-360.84-1397-360.88Z" transform="translate(2276.32 861.59)"></path><path class="cls-9" d="M-1438.49-288.26c.25.14-2.65,6.25-6.49,13.67s-7.17,13.31-7.43,13.18,2.65-6.25,6.5-13.67S-1438.75-288.39-1438.49-288.26Z" transform="translate(2276.32 861.59)"></path><path class="cls-9" d="M-1463.19-312.91c.26-.13,2.72,4.29,5.5,9.88s4.83,10.22,4.57,10.35-2.72-4.3-5.5-9.88S-1463.45-312.78-1463.19-312.91Z" transform="translate(2276.32 861.59)"></path><path class="cls-9" d="M-1499.49-228.59c-.07.3-4.47-.55-10-.93s-10-.18-10-.48,4.48-1,10.07-.56S-1499.42-228.85-1499.49-228.59Z" transform="translate(2276.32 861.59)"></path><path class="cls-9" d="M-1474.7-154l12.35,64.94a9.11,9.11,0,0,0,8.94,7.41h36.48a9.1,9.1,0,0,0,9-7.62l10.74-64.73Z" transform="translate(2276.32 861.59)"></path><polygon class="cls-1" points="805.64 728.66 875.4 728.66 879.11 707.56 801.63 707.56 805.64 728.66"></polygon><polygon class="cls-2" points="805.64 728.66 807.1 736.36 874.34 736.36 875.4 728.66 805.64 728.66"></polygon></g></svg>