<svg xmlns="http://www.w3.org/2000/svg" viewBox="0 0 1105.31 806.79"><defs><style>.cls-1{fill:#1175af;}.cls-2{fill:#f9e79b;}.cls-10,.cls-12,.cls-2,.cls-5{fill-rule:evenodd;}.cls-3{fill:#fafafa;}.cls-12,.cls-17,.cls-4{fill:#fff;}.cls-5{fill:#f9edb4;}.cls-6{fill:#e0e0e0;}.cls-10,.cls-7{fill:#f7d406;}.cls-8{fill:#263238;}.cls-9{fill:#ec5e20;}.cls-11{opacity:0.4;}.cls-13{fill:none;}.cls-14{fill:#ffbf9d;}.cls-15{fill:#f98e5f;}.cls-16{fill:#e8505b;}.cls-17,.cls-18{opacity:0.6;}.cls-19{opacity:0.3;}.cls-20{fill:#f5f5f5;}.cls-21{fill:#ebebeb;}.cls-22{opacity:0.5;}</style></defs><g id="Character"><path class="cls-1" d="M-2729.31,90.14c0,.28-224.11.5-500.5.5s-500.53-.22-500.53-.5,224.05-.5,500.53-.5S-2729.31,89.87-2729.31,90.14Z" transform="translate(3790.64 699.97)"></path><path class="cls-2" d="M-2818.8-223.47a39.09,39.09,0,0,1-10.35.26l-5.35,8-14.82-5.71,1.39-9.5a38.71,38.71,0,0,1-7.51-7.14l-9.41,1.86-6.44-14.52,7.69-5.73a39.15,39.15,0,0,1-.25-10.36l-8-5.34,5.72-14.82,9.5,1.38a39.2,39.2,0,0,1,7.13-7.5l-1.86-9.42,14.52-6.44,5.74,7.7a38.66,38.66,0,0,1,10.35-.26l5.35-8,14.82,5.71-1.39,9.5a38.66,38.66,0,0,1,7.5,7.14l9.42-1.86,6.44,14.52-7.7,5.73a38.74,38.74,0,0,1,.26,10.36l8,5.34-5.71,14.82-9.5-1.38a39,39,0,0,1-7.14,7.5l1.86,9.42-14.52,6.44-5.73-7.7Zm.11-22.79a17,17,0,0,0,8.66-22.48,17,17,0,0,0-22.48-8.67,17.05,17.05,0,0,0-8.67,22.49A17,17,0,0,0-2818.69-246.26Z" transform="translate(3790.64 699.97)"></path><rect class="cls-3" x="118.74" y="672.43" width="285.53" height="115.98"></rect><path class="cls-1" d="M-3386.36,88.43s0-.71,0-2.07,0-3.38,0-6c0-5.3,0-13.07-.08-23.09,0-20-.1-49-.17-84.8l.32.31-285.52.14h0l.45-.45c0,40.61,0,79.81,0,116l-.43-.43,204.72.21,59.39.12,15.89,0,4.12,0,1.41,0s-.45,0-1.36,0l-4.07,0-15.8.05-59.29.12-205,.21h-.44v-.44c0-36.16,0-75.36,0-116V-28h.47l285.52.14h.32v.32c-.08,35.91-.13,64.93-.18,85,0,10-.06,17.73-.07,23,0,2.6,0,4.6,0,6S-3386.36,88.43-3386.36,88.43Z" transform="translate(3790.64 699.97)"></path><path class="cls-1" d="M-3671.61-11.9c0-.25,63.82-.46,142.53-.46s142.55.21,142.55.46-63.81.45-142.55.45S-3671.61-11.65-3671.61-11.9Z" transform="translate(3790.64 699.97)"></path><circle class="cls-1" cx="128.91" cy="681.07" r="2.07"></circle><circle class="cls-1" cx="136.01" cy="681.07" r="2.07"></circle><path class="cls-1" d="M-3645.56-18.9a2.07,2.07,0,0,1-2.07,2.07,2.07,2.07,0,0,1-2.07-2.07,2.07,2.07,0,0,1,2.07-2.07A2.07,2.07,0,0,1-3645.56-18.9Z" transform="translate(3790.64 699.97)"></path><rect class="cls-1" x="143.01" y="706.92" width="68.97" height="68.97"></rect><path class="cls-1" d="M-3406.12,25.43c0,.25-35.49.45-79.26.45s-79.26-.2-79.26-.45,35.48-.45,79.26-.45S-3406.12,25.18-3406.12,25.43Z" transform="translate(3790.64 699.97)"></path><path class="cls-1" d="M-3406.12,39.48c0,.25-35.49.45-79.26.45s-79.26-.2-79.26-.45,35.48-.45,79.26-.45S-3406.12,39.23-3406.12,39.48Z" transform="translate(3790.64 699.97)"></path><path class="cls-1" d="M-3462.59,53.53a4.75,4.75,0,0,1-1,.09l-3,.08-10.94.15-36.08.13-36.08-.13-10.93-.15-3-.08a4.58,4.58,0,0,1-1-.09,4.58,4.58,0,0,1,1-.09l3-.09,10.93-.14,36.08-.13,36.08.13,10.94.14,3,.09A4.75,4.75,0,0,1-3462.59,53.53Z" transform="translate(3790.64 699.97)"></path><rect class="cls-4" x="187.91" y="618" width="252.25" height="170.43"></rect><path class="cls-1" d="M-3350.47,88.45s0-1.07,0-3.1,0-5.06,0-9c0-7.89,0-19.46-.09-34.28-.05-29.61-.11-72.17-.19-124.06l.36.37-252.23.09h0l.45-.46c0,60.72,0,118.45,0,170.43l-.41-.42,181.73.21,51.92.11,13.81.05,3.57,0,1.22,0s-.39,0-1.18,0l-3.52,0-13.72,0-51.83.11-182,.21h-.42v-.42c0-52,0-109.71,0-170.43v-.45h.47l252.23.09h.36V-82c-.08,52-.14,94.62-.19,124.29,0,14.78-.07,26.32-.09,34.19q0,5.86,0,8.93C-3350.44,87.44-3350.47,88.45-3350.47,88.45Z" transform="translate(3790.64 699.97)"></path><path class="cls-1" d="M-3602.72-66.77c0-.25,56.42-.45,126-.45s126,.2,126,.45-56.41.46-126,.46S-3602.72-66.52-3602.72-66.77Z" transform="translate(3790.64 699.97)"></path><path class="cls-1" d="M-3592.77-74.44a2,2,0,0,1-2,2,2,2,0,0,1-2-2,2,2,0,0,1,2-2A2,2,0,0,1-3592.77-74.44Z" transform="translate(3790.64 699.97)"></path><ellipse class="cls-1" cx="202.77" cy="625.53" rx="2.02" ry="2.04"></ellipse><ellipse class="cls-1" cx="209.6" cy="625.53" rx="2.02" ry="2.04"></ellipse><rect class="cls-1" x="209.6" y="650.98" width="67.29" height="67.9"></rect><path class="cls-1" d="M-3385.06-29.8c0,.25-26.25.45-58.61.45s-58.62-.2-58.62-.45,26.24-.46,58.62-.46S-3385.06-30.06-3385.06-29.8Z" transform="translate(3790.64 699.97)"></path><path class="cls-1" d="M-3385.06-17.19c0,.26-26.25.46-58.61.46s-58.62-.2-58.62-.46,26.24-.45,58.62-.45S-3385.06-17.44-3385.06-17.19Z" transform="translate(3790.64 699.97)"></path><path class="cls-1" d="M-3385.06-4.57c0,.25-26.25.46-58.61.46s-58.62-.21-58.62-.46S-3476-5-3443.67-5-3385.06-4.82-3385.06-4.57Z" transform="translate(3790.64 699.97)"></path><path class="cls-1" d="M-3433,8.05a16.37,16.37,0,0,1-2.72.18l-7.42.14c-6.27.08-14.93.13-24.49.13s-18.23-.05-24.5-.13l-7.42-.14a16.59,16.59,0,0,1-2.73-.18,14.17,14.17,0,0,1,2.73-.18l7.42-.14c6.27-.09,14.93-.14,24.5-.14s18.22,0,24.49.14l7.42.14A14,14,0,0,1-3433,8.05Z" transform="translate(3790.64 699.97)"></path><rect class="cls-1" x="213.81" y="741.77" width="31.62" height="31.91"></rect><rect class="cls-1" x="271.16" y="741.77" width="31.62" height="31.91"></rect><rect class="cls-1" x="328.51" y="741.77" width="31.62" height="31.91"></rect><rect class="cls-1" x="385.85" y="741.77" width="31.62" height="31.91"></rect><path class="cls-5" d="M-3536.43-542.16a36.19,36.19,0,0,1-9.63.23l-5,7.42-13.78-5.31,1.29-8.83a35.88,35.88,0,0,1-7-6.64l-8.76,1.73-6-13.49,7.15-5.33a36.12,36.12,0,0,1-.23-9.62l-7.41-5,5.3-13.78,8.83,1.29a35.88,35.88,0,0,1,6.64-7l-1.73-8.75,13.49-6,5.33,7.15a36.12,36.12,0,0,1,9.62-.23l5-7.41,13.78,5.31-1.29,8.83a35.83,35.83,0,0,1,7,6.63l8.75-1.73,6,13.5-7.15,5.32a36.19,36.19,0,0,1,.23,9.63l7.41,5-5.3,13.77-8.84-1.29a35.53,35.53,0,0,1-6.63,7l1.73,8.75-13.49,6-5.33-7.15Zm.1-21.18a15.84,15.84,0,0,0,8-20.9,15.83,15.83,0,0,0-20.9-8,15.83,15.83,0,0,0-8.05,20.89A15.83,15.83,0,0,0-3536.33-563.34Z" transform="translate(3790.64 699.97)"></path><path class="cls-6" d="M-3617-392.11s0-.62,0-1.81,0-3,0-5.25c0-4.61,0-11.38-.07-20.06,0-17.37-.08-42.39-.14-73.11l.27.27-173.23.08h0l.35-.35c0,35.47,0,69.37,0,100.23l-.33-.33,124.6.16,35.78.09,9.54,0,2.47,0,.85,0-.81,0-2.43,0-9.47,0-35.71.09-124.82.16h-.33v-.33c0-30.86,0-64.76,0-100.23v-.35h.37l173.23.08h.27v.27c-.06,30.79-.11,55.87-.14,73.27,0,8.66-.05,15.41-.07,20,0,2.27,0,4,0,5.2S-3617-392.11-3617-392.11Z" transform="translate(3790.64 699.97)"></path><path class="cls-6" d="M-3617-480.2c0,.19-38.75.35-86.54.35s-86.55-.16-86.55-.35,38.74-.36,86.55-.36S-3617-480.4-3617-480.2Z" transform="translate(3790.64 699.97)"></path><rect class="cls-7" x="15.36" y="236.3" width="53.51" height="53.51"></rect><path class="cls-6" d="M-3629.6-454.85a3.49,3.49,0,0,1-.79.07l-2.26.07-8.3.11-27.38.1-27.39-.1-8.3-.11-2.26-.07a3.44,3.44,0,0,1-.78-.07,3.44,3.44,0,0,1,.78-.07l2.26-.07,8.3-.11,27.39-.1,27.38.1,8.3.11,2.26.07A3.49,3.49,0,0,1-3629.6-454.85Z" transform="translate(3790.64 699.97)"></path><path class="cls-6" d="M-3627.88-442.9a3,3,0,0,1-.8.07l-2.31.07-8.49.11-28,.11-28-.11-8.48-.11-2.31-.07a2.92,2.92,0,0,1-.8-.07,3.54,3.54,0,0,1,.8-.07l2.31-.06,8.48-.12,28-.1,28,.1,8.49.12,2.31.06A3.65,3.65,0,0,1-3627.88-442.9Z" transform="translate(3790.64 699.97)"></path><path class="cls-6" d="M-3627.88-430.94a3.65,3.65,0,0,1-.8.07l-2.31.06-8.49.12-28,.1-28-.1-8.48-.12-2.31-.06a3.54,3.54,0,0,1-.8-.07,2.92,2.92,0,0,1,.8-.07l2.31-.07,8.48-.11,28-.11,28,.11,8.49.11,2.31.07A3,3,0,0,1-3627.88-430.94Z" transform="translate(3790.64 699.97)"></path><path class="cls-6" d="M-3627.88-419a3.65,3.65,0,0,1-.8.07l-2.31.07-8.49.11-28,.1-28-.1-8.48-.11-2.31-.07a3.54,3.54,0,0,1-.8-.07,3.54,3.54,0,0,1,.8-.07l2.31-.07,8.48-.11,28-.1,28,.1,8.49.11,2.31.07A3.65,3.65,0,0,1-3627.88-419Z" transform="translate(3790.64 699.97)"></path><path class="cls-6" d="M-2846.06-592.27s0-.42,0-1.22,0-2,0-3.54c0-3.12,0-7.69-.05-13.55,0-11.72-.06-28.61-.1-49.35l.19.18-117,.06h0l.24-.24c0,23.95,0,46.83,0,67.66l-.23-.22,84.12.11,24.16.06,6.44,0h2.24l-.55,0h-1.64l-6.39,0-24.11.06-84.27.1h-.22v-.23c0-20.83,0-43.71,0-67.66v-.24h.25l117,0h.18v.19c0,20.78-.07,37.72-.1,49.46,0,5.85,0,10.4,0,13.51,0,1.53,0,2.71,0,3.51S-2846.06-592.27-2846.06-592.27Z" transform="translate(3790.64 699.97)"></path><path class="cls-6" d="M-2846-651.74c0,.13-26.16.24-58.42.24s-58.43-.11-58.43-.24,26.16-.24,58.43-.24S-2846-651.87-2846-651.74Z" transform="translate(3790.64 699.97)"></path><rect class="cls-7" x="837.75" y="59.39" width="36.13" height="36.13"></rect><path class="cls-6" d="M-2854.54-634.62a2.85,2.85,0,0,1-.53,0l-1.53.05-5.6.08-18.49.07-18.49-.07-5.6-.08-1.52-.05a2.9,2.9,0,0,1-.54,0,1.8,1.8,0,0,1,.54,0l1.52-.05,5.6-.07,18.49-.07,18.49.07,5.6.07,1.53.05A1.76,1.76,0,0,1-2854.54-634.62Z" transform="translate(3790.64 699.97)"></path><path class="cls-6" d="M-2853.38-626.55a2.9,2.9,0,0,1-.54,0l-1.56,0-5.73.08-18.9.07-18.9-.07-5.73-.08-1.55,0a3,3,0,0,1-.55,0,1.84,1.84,0,0,1,.55-.05l1.55,0,5.73-.07,18.9-.07,18.9.07,5.73.07,1.56,0A1.8,1.8,0,0,1-2853.38-626.55Z" transform="translate(3790.64 699.97)"></path><path class="cls-6" d="M-2853.38-618.48a2.9,2.9,0,0,1-.54,0l-1.56.05-5.73.07-18.9.07-18.9-.07-5.73-.07-1.55-.05a3,3,0,0,1-.55,0,1.84,1.84,0,0,1,.55,0l1.55-.05,5.73-.07,18.9-.07,18.9.07,5.73.07,1.56.05A1.8,1.8,0,0,1-2853.38-618.48Z" transform="translate(3790.64 699.97)"></path><path class="cls-6" d="M-2853.38-610.41a2.9,2.9,0,0,1-.54,0l-1.56,0-5.73.07-18.9.07-18.9-.07-5.73-.07-1.55,0a3,3,0,0,1-.55,0,1.84,1.84,0,0,1,.55-.05l1.55,0,5.73-.07,18.9-.07,18.9.07,5.73.07,1.56,0A1.8,1.8,0,0,1-2853.38-610.41Z" transform="translate(3790.64 699.97)"></path><path class="cls-8" d="M-2778.13-525a7.61,7.61,0,0,1,.05.76c0,.55,0,1.24,0,2.1,0,1.91.06,4.54.11,7.85.05,6.79.13,16.31.22,27.7l-.43-.43,38.4-.07c.11-.11-.94.94-.5.49h0v-5.21c0-1.72,0-3.44,0-5.13,0-3.39,0-6.7,0-9.93,0-6.44,0-12.53.05-18.12l.43.44-27.7-.22-7.85-.12-2.1-.05a3.58,3.58,0,0,1-.75,0,3.68,3.68,0,0,1,.66,0l2-.05,7.75-.12,28-.22h.44v.43c0,5.59,0,11.68.05,18.12,0,3.23,0,6.54,0,9.93v10.34h0c.45-.44-.6.62-.5.51l-38.4-.07h-.44v-.43c.1-11.5.17-21.12.23-28,0-3.26.08-5.87.11-7.75,0-.82,0-1.49.05-2A3.08,3.08,0,0,1-2778.13-525Z" transform="translate(3790.64 699.97)"></path><path class="cls-9" d="M-2731.72-533.59c.64.52-7.61,11.63-18.43,24.81l-6.49,7.77-.94,1.14-1.08-1c-9-8.07-15.21-14.15-14.78-14.64s7.34,4.73,16.64,12.49l-2,.17c2-2.45,4.13-5.1,6.36-7.87C-2741.65-523.86-2732.36-534.12-2731.72-533.59Z" transform="translate(3790.64 699.97)"></path><path class="cls-1" d="M-2760.09-564.06a6.3,6.3,0,0,1,1,0l2.81.08c.62,0,1.31,0,2.07.09l2.48.35,2.9.41,3.23.8A52.37,52.37,0,0,1-2730-555.5a56.26,56.26,0,0,1,16.22,15.79,56.74,56.74,0,0,1,9.19,25.78,57.85,57.85,0,0,1,.15,7.58c-.09,1.28-.06,2.59-.25,3.88s-.39,2.59-.58,3.9a55.64,55.64,0,0,1-5.27,15.43,59.48,59.48,0,0,1-10.08,13.86,58.2,58.2,0,0,1-14.51,10.43,52.89,52.89,0,0,1-17.69,5.43,37.1,37.1,0,0,1-4.72.4,42.11,42.11,0,0,1-4.77.08,57.34,57.34,0,0,1-9.55-1.2,55.83,55.83,0,0,1-19-8l.58.06-19.37,7.78-1.15.46.33-1.19q2.92-10.66,5.69-20.72l.1.52A55.65,55.65,0,0,1-2815-498.91a50.47,50.47,0,0,1-.75-12.13,38.39,38.39,0,0,1,.55-5.82c.15-1,.29-1.9.44-2.84s.45-1.83.68-2.74a55.38,55.38,0,0,1,21.61-31.51,52.61,52.61,0,0,1,12.87-6.79l2.89-1,2.75-.7,2.52-.62c.81-.15,1.59-.24,2.32-.35,1.46-.19,2.75-.44,3.88-.49l2.84-.1,1.74,0a3.79,3.79,0,0,1,.59,0,2.13,2.13,0,0,1-.59.08l-1.73.14-2.83.19c-1.12.09-2.39.37-3.84.58a55,55,0,0,0-23,9.71,54.89,54.89,0,0,0-21.08,31.16c-.21.9-.48,1.78-.65,2.7s-.27,1.85-.42,2.78a40,40,0,0,0-.51,5.72,49.52,49.52,0,0,0,.79,11.89A54.5,54.5,0,0,0-2803.74-476l.18.23-.08.29q-2.73,10-5.65,20.72l-.82-.73,19.37-7.8.3-.12.27.18a54.63,54.63,0,0,0,18.6,7.82,55.88,55.88,0,0,0,9.34,1.18,40.23,40.23,0,0,0,4.66-.09,33.87,33.87,0,0,0,4.62-.38,51.69,51.69,0,0,0,17.3-5.3,57.38,57.38,0,0,0,14.22-10.17,58.65,58.65,0,0,0,9.89-13.55,54.66,54.66,0,0,0,5.21-15.09c.2-1.28.39-2.56.59-3.82s.17-2.55.26-3.8a55.78,55.78,0,0,0-.12-7.44,56,56,0,0,0-8.89-25.39,55.81,55.81,0,0,0-15.86-15.69,52.63,52.63,0,0,0-15.42-7l-3.19-.85-2.86-.47-2.46-.41c-.75-.08-1.44-.1-2.06-.15l-2.79-.2A5.94,5.94,0,0,1-2760.09-564.06Z" transform="translate(3790.64 699.97)"></path><path class="cls-10" d="M-2826.74-63.32a61.48,61.48,0,0,1-13.33-9.4l-14.25,5.08-13.39-21.14L-2857-99.5a61.6,61.6,0,0,1-2.8-16.07l-13.65-6.48,5.48-24.41,15.11,0a61.14,61.14,0,0,1,9.4-13.33l-5.07-14.25,21.13-13.39,10.72,10.67a61.67,61.67,0,0,1,16.07-2.8l6.48-13.65,24.42,5.47,0,15.12a61.44,61.44,0,0,1,13.33,9.39l14.25-5.07,13.39,21.14-10.67,10.71a61.75,61.75,0,0,1,2.8,16.07l13.65,6.49-5.47,24.41-15.12,0a61.14,61.14,0,0,1-9.4,13.33l5.08,14.25L-2769-48.51l-10.71-10.67a61.75,61.75,0,0,1-16.08,2.8l-6.48,13.65-24.41-5.48,0-15.11ZM-2805.21-92a26.84,26.84,0,0,0,32.06-20.32,26.83,26.83,0,0,0-20.31-32.06,26.85,26.85,0,0,0-32.07,20.32A26.84,26.84,0,0,0-2805.21-92Z" transform="translate(3790.64 699.97)"></path><path class="cls-10" d="M-2736.81-201.62a30.64,30.64,0,0,1-6.61-4.66l-7.07,2.52-6.64-10.49,5.29-5.31a30.91,30.91,0,0,1-1.39-8l-6.77-3.21,2.72-12.12h7.5a30.36,30.36,0,0,1,4.66-6.62l-2.52-7.06,10.48-6.65,5.32,5.3a30.41,30.41,0,0,1,8-1.39l3.22-6.78,12.11,2.72,0,7.5a30.4,30.4,0,0,1,6.61,4.66l7.07-2.52,6.65,10.49-5.3,5.32a30.34,30.34,0,0,1,1.39,8l6.77,3.21-2.71,12.12h-7.5a30.71,30.71,0,0,1-4.66,6.62l2.51,7.07-10.48,6.64-5.32-5.3a29.94,29.94,0,0,1-8,1.39l-3.22,6.78-12.11-2.72,0-7.5Zm10.68-14.25a13.31,13.31,0,0,0,15.91-10.08,13.32,13.32,0,0,0-10.08-15.91,13.32,13.32,0,0,0-15.91,10.08A13.33,13.33,0,0,0-2726.13-215.87Z" transform="translate(3790.64 699.97)"></path><g class="cls-11"><path class="cls-12" d="M-2736.81-201.62a30.64,30.64,0,0,1-6.61-4.66l-7.07,2.52-6.64-10.49,5.29-5.31a30.91,30.91,0,0,1-1.39-8l-6.77-3.21,2.72-12.12h7.5a30.36,30.36,0,0,1,4.66-6.62l-2.52-7.06,10.48-6.65,5.32,5.3a30.41,30.41,0,0,1,8-1.39l3.22-6.78,12.11,2.72,0,7.5a30.4,30.4,0,0,1,6.61,4.66l7.07-2.52,6.65,10.49-5.3,5.32a30.34,30.34,0,0,1,1.39,8l6.77,3.21-2.71,12.12h-7.5a30.71,30.71,0,0,1-4.66,6.62l2.51,7.07-10.48,6.64-5.32-5.3a29.94,29.94,0,0,1-8,1.39l-3.22,6.78-12.11-2.72,0-7.5Zm10.68-14.25a13.31,13.31,0,0,0,15.91-10.08,13.32,13.32,0,0,0-10.08-15.91,13.32,13.32,0,0,0-15.91,10.08A13.33,13.33,0,0,0-2726.13-215.87Z" transform="translate(3790.64 699.97)"></path></g><path class="cls-13" d="M-3435.38-535.61a27.77,27.77,0,0,1-7.39.18l-3.82,5.7-10.59-4.08,1-6.79a27.8,27.8,0,0,1-5.36-5.1l-6.72,1.33-4.6-10.37,5.49-4.1a28.19,28.19,0,0,1-.18-7.39l-5.69-3.82,4.08-10.59,6.78,1a28.1,28.1,0,0,1,5.1-5.36l-1.33-6.73,10.38-4.6,4.09,5.5a27.43,27.43,0,0,1,7.4-.18l3.82-5.7,10.58,4.08-1,6.79a27.8,27.8,0,0,1,5.36,5.1l6.73-1.33,4.6,10.37-5.5,4.1a27.36,27.36,0,0,1,.18,7.39l5.7,3.82-4.08,10.59-6.79-1a27.5,27.5,0,0,1-5.1,5.36l1.33,6.73-10.37,4.6-4.1-5.5Zm.08-16.28a12.16,12.16,0,0,0,6.19-16.06,12.16,12.16,0,0,0-16.06-6.19,12.17,12.17,0,0,0-6.19,16.06A12.16,12.16,0,0,0-3435.3-551.89Z" transform="translate(3790.64 699.97)"></path><path class="cls-7" d="M-3435.3-551.89s-.22.16-.69.37a9.09,9.09,0,0,1-2.15.68,12.09,12.09,0,0,1-8.12-1.21,12.51,12.51,0,0,1-6.57-10.09,12.41,12.41,0,0,1,1.62-7.16,12.63,12.63,0,0,1,5.84-5.3,12.68,12.68,0,0,1,7.84-.77,12.36,12.36,0,0,1,6.4,3.61,12.5,12.5,0,0,1,3.07,11.64,12.14,12.14,0,0,1-4.56,6.83,9.23,9.23,0,0,1-1.94,1.14,2.35,2.35,0,0,1-.74.26c0-.09,1-.5,2.44-1.71a12.11,12.11,0,0,0,4.11-6.69,11.82,11.82,0,0,0-3.05-10.83,11.64,11.64,0,0,0-5.94-3.3,11.78,11.78,0,0,0-7.23.74,11.77,11.77,0,0,0-5.39,4.86,11.65,11.65,0,0,0-1.55,6.62,11.86,11.86,0,0,0,6,9.53,12.18,12.18,0,0,0,7.72,1.45C-3436.32-551.51-3435.34-552-3435.3-551.89Z" transform="translate(3790.64 699.97)"></path><path class="cls-7" d="M-3435.38-535.61s.1.09.28.32l.81,1,3.14,4.07-.19,0,10.33-4.69-.15.28-1.36-6.71,0-.18.14-.11a27.86,27.86,0,0,0,5-5.32l.11-.16.2,0,6.79,1-.38.22,4-10.6.15.47-5.71-3.8-.2-.14,0-.25a27.17,27.17,0,0,0-.19-7.28l0-.26.21-.16,5.49-4.1-.14.53c-1.45-3.25-3-6.76-4.62-10.36l.52.27-6.73,1.33-.28.06-.18-.22a27.74,27.74,0,0,0-5.27-5l-.24-.17,0-.29c.31-2.13.65-4.44,1-6.79l.31.53-10.59-4.07.59-.19-3.82,5.7-.17.25-.3,0a27.26,27.26,0,0,0-7.25.17h0c-.21-.08.48.2-.48-.19h0l0,0,0,0-.06-.09-.13-.17-.26-.35-.52-.69-1-1.38c-.69-.92-1.37-1.83-2-2.74l.6.16-10.38,4.6.29-.55c.44,2.26.89,4.51,1.32,6.73l.06.29-.23.18a27.44,27.44,0,0,0-5,5.26l-.17.24-.29,0-6.78-1,.51-.3q-2.1,5.41-4.09,10.58l-.18-.55,5.69,3.83.23.16,0,.27a27.13,27.13,0,0,0,.16,7.27l0,.26-.21.16-5.51,4.08.14-.5c1.6,3.65,3.12,7.1,4.57,10.38l-.43-.22,6.73-1.3.22,0,.13.17a27.45,27.45,0,0,0,5.28,5l.16.12,0,.2c-.37,2.46-.71,4.68-1,6.78l-.19-.32,10.56,4.15-.27.08c1.55-2.25,2.81-4.11,3.88-5.66l.05-.08h.1a29.36,29.36,0,0,0,5.55.13l1.37-.12a1.69,1.69,0,0,1,.45,0,2.76,2.76,0,0,1-.44.11c-.3,0-.76.13-1.37.2a26.29,26.29,0,0,1-5.6,0l.15-.07-3.76,5.73-.1.15-.17-.06-10.61-4-.22-.08,0-.24c.3-2.1.61-4.32,1-6.79l.13.32a28.43,28.43,0,0,1-5.45-5.14l.35.13-6.72,1.35-.3.06-.12-.28c-1.47-3.28-3-6.72-4.63-10.36l-.14-.31.27-.2,5.48-4.11-.16.42a27.67,27.67,0,0,1-.2-7.51l.19.42-5.7-3.81-.31-.2.14-.35c1.32-3.44,2.67-7,4.06-10.59l.14-.36.37.06,6.79,1-.46.2a28.17,28.17,0,0,1,5.18-5.46l-.17.48c-.44-2.22-.88-4.47-1.33-6.73l-.08-.39.36-.16,10.37-4.6.37-.17.24.32c.67.91,1.36,1.83,2,2.74l1,1.38.51.69.26.35.13.17.06.09,0,0,0,0v0h0l-.48-.19h0a28,28,0,0,1,7.52-.19l-.47.22,3.82-5.69.23-.33.37.14,10.58,4.09.37.14-.06.38c-.35,2.35-.69,4.66-1,6.79l-.19-.46a28.4,28.4,0,0,1,5.44,5.19l-.46-.17,6.73-1.32.36-.07.15.34,4.59,10.38.14.33-.28.21-5.51,4.08.17-.41a28,28,0,0,1,.16,7.51l-.18-.39,5.69,3.84.26.17-.11.3c-1.45,3.7-2.82,7.24-4.12,10.57l-.1.27-.28-.05-6.78-1,.31-.13a27.84,27.84,0,0,1-5.18,5.4l.1-.29c.47,2.43.9,4.69,1.29,6.74l0,.2-.19.08-10.4,4.51-.12.05-.08-.1-3-4.12-.76-1.08A4.07,4.07,0,0,1-3435.38-535.61Z" transform="translate(3790.64 699.97)"></path><path class="cls-7" d="M-3435.3-551.89l-.35.14a9.48,9.48,0,0,1-1.07.37,11.85,11.85,0,0,1-4.34.5,12.3,12.3,0,0,1-6.47-2.39,12.24,12.24,0,0,1-4.75-7.79,12.3,12.3,0,0,1,3.29-10.5,12.33,12.33,0,0,1,12.11-3.27,12.29,12.29,0,0,1,6,3.75,12.56,12.56,0,0,1,3,6.72,12.6,12.6,0,0,1-1.48,7.48,12.54,12.54,0,0,1-2.41,3.12,14.23,14.23,0,0,1-1.56,1.25q-.4.28-.84.54l-.43.26-.21.11-.09.06h0l.05-.05a.53.53,0,0,0,.06-.54l-.58-.25A8.2,8.2,0,0,0-3434-553a11.8,11.8,0,0,0,5.42-12.71,12,12,0,0,0-9.38-9.09A12.09,12.09,0,0,0-3449.3-571a12.15,12.15,0,0,0-2.87,10.19,12.19,12.19,0,0,0,4.68,7.55,12.29,12.29,0,0,0,6.39,2.39,11.86,11.86,0,0,0,4.35-.48c1-.29,1.44-.55,1.45-.52a3.77,3.77,0,0,1-1.39.71,11.41,11.41,0,0,1-4.43.68,12.53,12.53,0,0,1-6.7-2.33,12.69,12.69,0,0,1-5-7.87,12.87,12.87,0,0,1,2.94-10.87,12.91,12.91,0,0,1,12.15-4.17,12.87,12.87,0,0,1,6.4,3.26,13,13,0,0,1,3.74,6.5,12.75,12.75,0,0,1-5.87,13.8,7.94,7.94,0,0,1-1.67.77l-.38.13-.19-.38a.53.53,0,0,1,.09-.59l.09-.09.08,0,.12-.07.22-.13.41-.23q.39-.24.78-.51a12.52,12.52,0,0,0,1.44-1.15,11.48,11.48,0,0,0,2.23-2.88,11.67,11.67,0,0,0,1.38-6.89,11.64,11.64,0,0,0-2.73-6.2,11.46,11.46,0,0,0-5.5-3.5,11.48,11.48,0,0,0-11.27,3,11.6,11.6,0,0,0-3.19,9.81,11.75,11.75,0,0,0,4.39,7.46,12.11,12.11,0,0,0,6.18,2.45,12.85,12.85,0,0,0,4.25-.31C-3435.81-551.79-3435.31-552-3435.3-551.89Z" transform="translate(3790.64 699.97)"></path><path class="cls-7" d="M-3435.38-535.61c.43.57,1.58,2.11,4.15,5.57l-.13,0,10.58-4.69-.1.2c-.41-2.07-.87-4.38-1.36-6.87l.4,0c0,.06,0,.13-.07.2l-.33-.23a27.92,27.92,0,0,0,5.1-5.37l.28.36-.22.1-.05-.46,7,1-.28.16,4.22-11,.11.35-5.88-3.94.45-.38a2.29,2.29,0,0,1,.13.27l-.59.09a27.62,27.62,0,0,0-.18-7.39l.62.07a2.24,2.24,0,0,1-.12.29l-.49-.38,5.69-4.25-.11.41-4.81-10.83.4.21-7,1.38.06-.72.32.12-.42.58a28.12,28.12,0,0,0-5.36-5.08l.59-.46.13.32-.74.09c.32-2.15.67-4.58,1-7.06l.25.43-11.11-4.27.5-.15-4,5.93-.53-.62.33-.15.13.8a28,28,0,0,0-7.38.19h.06l0-.81h.05l-.34.8h-.06s0,0,0,0a.57.57,0,0,0,.17,0l.27-.75-.07-.05,0,0h0l.12.05.23.09-.5.66-4.27-5.72.53.14-10.88,4.84.26-.5c.43,2.15.91,4.56,1.39,7l-.87-.07a2.67,2.67,0,0,1,.12-.33l.71.51a27.89,27.89,0,0,0-5.07,5.34l-.55-.69.32-.14.11.88-7.05-1,.51-.3-4.25,11.08-.18-.56,5.91,4-.7.6c0-.09-.09-.19-.13-.29l.91-.16a27.67,27.67,0,0,0,.19,7.35l-.92-.1c0-.09.07-.19.11-.29l.74.57-5.67,4.24.15-.58c1.51,3.36,3.15,7,4.81,10.76l-.55-.28,6.93-1.39-.07,1-.24-.09.55-.77a27.59,27.59,0,0,0,5.33,5l-.75.6-.09-.22.95-.12-1,6.95-.32-.53,10.88,4.13-.59.19,3.85-5.82.62.73-.1,0-.16-.95a26,26,0,0,0,6.28-.12l.52-.07s0,0,0,0a.16.16,0,0,0,0,.09l0,0h0c-.15,0,.09.75.27.66l.06,0,.11,0h0l-1,.1c-.71.08-1.44.12-2.16.15a30.46,30.46,0,0,1-4.28-.19l.47-.22-3.9,5.73-.56-.76.19-.05,0,.94-10.56-4.13.61-.72.13.23-.93.17c.35-2.32.7-4.62,1-6.92l.2.48a28.49,28.49,0,0,1-5.6-5.36l.48.17-6.88,1.34.13-.92.3.15-.68.64q-2.31-5.25-4.57-10.38l.91-.08-.09.35-.76-.51,5.65-4.19-.19.46a28,28,0,0,1-.17-7.81l.21.45-5.85-3.93.72-.54.12.38-.9,0q2.08-5.35,4.1-10.58l.67.57-.36.21-.16-.86,7,1-.44.18a28.32,28.32,0,0,1,5.41-5.67l-.16.45c-.47-2.37-.92-4.67-1.36-6.94l.84.13-.2.38-.58-.62,10.38-4.59.07.83-.43-.11.47-.69,4.09,5.5-.19-.14.24.09.11.05h0l-.06,0-.47.26.18.54,0,0h-.05l.31-.8h0l0,0-.2,0h0a28,28,0,0,1,7.63-.15l-.39.18,3.94-5.86.47.62-.41.13,0-.78,10.58,4.09-.48.57-.22-.37.74-.14c-.37,2.47-.7,4.75-1,7l-.15-.37a28,28,0,0,1,5.65,5.39l-.36-.14,6.92-1.36-.1.68-.36-.19.5-.46,4.6,10.37-.64.05a3.29,3.29,0,0,1,.1-.37l.53.36c-2.08,1.54-3.89,2.88-5.65,4.2l.13-.32A28,28,0,0,1-3412-560l-.13-.29,5.84,3.92-.44.33-.1-.33.54,0c-1.54,4-2.85,7.4-4.08,10.58l-.37-.31.27-.16.09.48-6.92-1,.22-.09a28.17,28.17,0,0,1-5.28,5.55l.07-.2c.57,2.86,1,4.93,1.35,6.84l-.33,0,.1-.2.23.25-10.37,4.6,0-.21.14,0-.12.18-4.1-5.5a9.84,9.84,0,0,1,1.1,1.29l3.18,4.07.19.25-.31-.07-.13,0-.3-.08.28-.13L-3421-535l.46-.21-.23.46-.1.19-.23.45-.11-.5c-.39-1.91-.82-4-1.4-6.83l0-.12.1-.08a27.81,27.81,0,0,0,5.16-5.5l.08-.12.14,0,6.93,1,.73.1-.63.38-.27.15-.63.37.26-.68,4-10.61.3-.77.25.79.1.32.25.79-.68-.46-5.86-3.89-.16-.1,0-.19a27.56,27.56,0,0,0-.21-7.58l0-.19.16-.12,5.63-4.23.78-.58-.25.94-.1.38-.24.93-.4-.88c-1.45-3.26-3-6.64-4.63-10.36l-.42-.94.92.47.36.19.91.47-1,.21L-3418-580l-.22,0-.14-.17a27.17,27.17,0,0,0-5.53-5.23l-.19-.14,0-.23c.32-2.24.65-4.52,1-7l.16-1.13.58,1,.21.37.58,1-1.06-.41-10.6-4.06-1.1-.42,1.13-.36.41-.13,1.12-.36-.65,1-3.93,5.87-.14.22-.26,0a27.34,27.34,0,0,0-7.38.16h-.15l-.09,0h0l.08-.2,0,0,.17-.41c.08-.2.06-.14.06-.14h0l0,0h0l0,0,.18.55-.47.25h-.05l0,0h0l-.11,0-.23-.09-.11,0-.08-.09-4.1-5.5-.75-1,1.22.32.42.11,1.21.31-1.14.51-10.37,4.61-1.18.52.59-1.14.2-.38.59-1.14.25,1.26c.45,2.27.91,4.56,1.38,6.93l.05.27-.22.17a27.15,27.15,0,0,0-5.23,5.51l-.16.22-.28,0-7-1-1.32-.19,1.15-.68.36-.2,1.16-.68-.49,1.25-4.08,10.58-.49,1.27-.41-1.29-.12-.39-.41-1.3,1.13.76,5.85,3.93.25.17,0,.29a26.94,26.94,0,0,0,.18,7.55l.05.29-.24.17-5.65,4.2-1.11.83.35-1.34.09-.35.35-1.35.57,1.27,4.58,10.38.57,1.28-1.25-.64-.29-.16-1.25-.65,1.38-.27,6.88-1.34.29,0,.19.23a27.69,27.69,0,0,0,5.41,5.18l.25.17,0,.3c-.34,2.3-.69,4.6-1,6.92l-.21,1.4-.71-1.22-.13-.22-.72-1.24,1.33.52,10.57,4.13,1.32.51-1.35.43-.19.06-1.37.43.81-1.19,3.89-5.73.17-.25.3,0a30.05,30.05,0,0,0,4.14.18c.7,0,1.39-.07,2.09-.15l1.08-.1h.21l.06,0c.19-.09.43.68.27.66h0l-.1.07-.23.15a1.91,1.91,0,0,1-.5.16l-.54.08a26.59,26.59,0,0,1-6.53.12l-1.82-.18,1.66-.77.1-.05,1.61-.75-1,1.48-3.85,5.82-.22.34-.38-.14-10.87-4.14-.37-.15,0-.39,1-7,.26-1.77.69,1.64.1.22.68,1.63-1.43-1a28.71,28.71,0,0,1-5.52-5.22l-1.11-1.38,1.67.61.24.08,1.66.61-1.73.34-6.93,1.39-.39.07-.16-.36c-1.66-3.71-3.3-7.4-4.8-10.77l-.16-.35.31-.24c2-1.46,3.92-2.92,5.68-4.24l1.4-1-.66,1.61-.12.29-.65,1.6-.27-1.7a28.39,28.39,0,0,1-.2-7.61l.19-1.71.73,1.56.13.29.73,1.56-1.43-1-5.91-4-.32-.21.14-.36,4.26-11.08.14-.35.37.06,7.05,1,1.64.24-1.53.64-.32.14-1.52.64,1-1.34a29.15,29.15,0,0,1,5.25-5.51l1.28-1-.56,1.54-.13.33-.56,1.54-.31-1.6c-.48-2.44-1-4.85-1.38-7l-.07-.36.33-.14,10.88-4.82.32-.14.21.28,4.25,5.72.93,1.24-1.43-.58-.24-.1-.11,0,0,0-.05,0-.06,0,.27-.75c.2,0,.13,0,.16,0h.07s0-.07,0,.08l-.21.51,0,0-.1.24h0l-1.13-.46,1.16-.35h.07a28.66,28.66,0,0,1,7.59-.18l1.5.17-1.37.64-.32.15-1.38.63.85-1.25,4-5.92.18-.28.31.12,11.1,4.3.29.12,0,.31c-.37,2.47-.73,4.91-1,7l-.2,1.38-.54-1.28-.14-.32-.53-1.28,1.12.81a28.65,28.65,0,0,1,5.48,5.24l.84,1.05-1.26-.46-.32-.12-1.26-.46,1.32-.26,7-1.35.29-.06.11.27c1.68,3.81,3.31,7.5,4.78,10.85l.11.25-.22.16-5.71,4.22-.94.7.44-1.08c0-.1.08-.21.12-.29l.44-1.08.18,1.15a28.43,28.43,0,0,1,.16,7.56l-.13,1.09-.46-1c0-.1-.09-.19-.13-.27l-.46-1,.92.62,5.86,4,.19.13-.08.21q-2.28,5.8-4.29,11l-.07.19-.21,0-7-1.06-.84-.13.78-.32.22-.09.78-.33-.5.68a28.08,28.08,0,0,1-5.22,5.41l-.58.47.26-.7.07-.2.26-.71.14.74c.47,2.49.91,4.8,1.3,6.88l0,.14-.13.06-10.64,4.57-.09,0,0-.07-3-4.23-.74-1.09C-3435.32-535.49-3435.38-535.61-3435.38-535.61Z" transform="translate(3790.64 699.97)"></path><path class="cls-7" d="M-3445.36-618.73a18.84,18.84,0,0,1-5,.12l-2.58,3.83-7.12-2.74.66-4.57a18.93,18.93,0,0,1-3.61-3.44l-4.52.9-3.1-7,3.7-2.75a18.5,18.5,0,0,1-.12-5l-3.84-2.57,2.75-7.13,4.57.67a18.61,18.61,0,0,1,3.43-3.61l-.89-4.53,7-3.1,2.76,3.7a18.91,18.91,0,0,1,5-.12l2.57-3.84,7.13,2.75-.67,4.57a19.19,19.19,0,0,1,3.61,3.43l4.53-.89,3.09,7-3.7,2.76a18.92,18.92,0,0,1,.13,5l3.83,2.57-2.75,7.13-4.57-.67a18.3,18.3,0,0,1-3.43,3.61l.9,4.53-7,3.1-2.76-3.7Zm.06-11a8.21,8.21,0,0,0,4.17-10.82,8.21,8.21,0,0,0-10.82-4.17,8.21,8.21,0,0,0-4.17,10.82A8.21,8.21,0,0,0-3445.3-629.69Z" transform="translate(3790.64 699.97)"></path><path class="cls-7" d="M-3445.3-629.69a6.47,6.47,0,0,1-1.92.66,8.17,8.17,0,0,1-5.43-.84,8.16,8.16,0,0,1-2.88-2.56,8.46,8.46,0,0,1-1.48-4.17,7.87,7.87,0,0,1,.17-2.41,8.12,8.12,0,0,1,.91-2.36,8.42,8.42,0,0,1,3.88-3.52,8.44,8.44,0,0,1,5.22-.52,7.93,7.93,0,0,1,2.36.91,7.79,7.79,0,0,1,1.9,1.49,8.29,8.29,0,0,1,2.11,3.9,8.3,8.3,0,0,1,0,3.85,8.14,8.14,0,0,1-3,4.59,6.35,6.35,0,0,1-1.78,1c0-.06.66-.32,1.67-1.12a8.23,8.23,0,0,0,2.81-4.52,8.07,8.07,0,0,0,0-3.69,8.08,8.08,0,0,0-2-3.69,7.61,7.61,0,0,0-1.81-1.4,7.8,7.8,0,0,0-2.23-.85,8,8,0,0,0-4.93.5,8,8,0,0,0-3.68,3.32,7.77,7.77,0,0,0-.87,2.22,7.77,7.77,0,0,0-.18,2.29,8.1,8.1,0,0,0,1.37,4,7.89,7.89,0,0,0,2.72,2.49,8.13,8.13,0,0,0,5.24.95C-3446-629.41-3445.32-629.75-3445.3-629.69Z" transform="translate(3790.64 699.97)"></path><path class="cls-7" d="M-3445.36-618.73s.07.06.19.22l.54.69,2.09,2.74-.09,0,7-3.14-.07.13c-.28-1.37-.58-2.89-.91-4.52l0-.08.07-.06a18.54,18.54,0,0,0,3.39-3.59l0-.07h.1l4.57.65-.18.11,2.73-7.14.07.22-3.84-2.56-.1-.06v-.12a18.27,18.27,0,0,0-.13-4.93l0-.12.1-.07,3.7-2.77-.07.26c-1-2.19-2-4.56-3.1-7l.24.12-4.53.9-.13,0-.09-.11a18.27,18.27,0,0,0-3.56-3.38l-.12-.09,0-.13c.21-1.43.44-3,.67-4.57l.14.25-7.12-2.75.27-.09-2.57,3.84-.08.12-.14,0a18.48,18.48,0,0,0-4.91.12h0c-.1,0,.22.1-.23-.09h0l0,0,0-.06-.09-.12-.17-.23-.35-.47-.69-.92-1.38-1.85.29.07-7,3.1.14-.26c.3,1.53.59,3,.89,4.53l0,.14-.1.09a18.47,18.47,0,0,0-3.4,3.56l-.08.11-.13,0-4.57-.67.24-.14c-.94,2.43-1.86,4.81-2.76,7.12l-.08-.25,3.84,2.57.1.07v.13a18.36,18.36,0,0,0,.11,4.92l0,.13-.1.07-3.7,2.75.06-.23,3.08,7-.2-.1,4.53-.88.1,0,.07.08a19,19,0,0,0,3.56,3.41l.08.06v.09c-.25,1.66-.47,3.15-.69,4.57l-.08-.15,7.11,2.77-.12,0,2.59-3.81,0,0h0a19.49,19.49,0,0,0,3.75.07l.92-.09.3,0-.3.06-.92.13a18.35,18.35,0,0,1-3.76,0l.07,0-2.55,3.85,0,.07-.08,0-7.14-2.72-.11,0,0-.12c.2-1.41.41-2.9.65-4.57l.06.15a18.67,18.67,0,0,1-3.65-3.45l.17.06-4.53.9-.14,0-.06-.13c-1-2.2-2-4.52-3.11-7l-.06-.14.12-.09,3.7-2.77-.08.2a18.82,18.82,0,0,1-.13-5l.09.2-3.84-2.56-.14-.1.06-.16q1.33-3.48,2.74-7.13l.06-.17.18,0,4.57.66-.22.09a19.07,19.07,0,0,1,3.48-3.65l-.09.22c-.29-1.49-.59-3-.89-4.53l0-.18.17-.07,7-3.11.17-.07.11.15,1.37,1.84.7.93.34.47.18.23.08.12,0,.06,0,0h0l-.23-.09h0a18.54,18.54,0,0,1,5-.12l-.22.1c.89-1.32,1.76-2.63,2.58-3.84l.1-.15.17.07,7.13,2.75.17.06,0,.18c-.24,1.58-.47,3.14-.68,4.57l-.09-.21a18.64,18.64,0,0,1,3.65,3.47l-.21-.08,4.52-.89.18,0,.07.16,3.09,7,.06.15-.13.1-3.71,2.75.08-.19a19,19,0,0,1,.12,5l-.09-.18,3.83,2.58.13.08-.06.14-2.76,7.12-.05.12-.13,0-4.57-.68.15-.06a18.83,18.83,0,0,1-3.47,3.63l.05-.14c.31,1.64.61,3.16.87,4.54l0,.09-.09,0-7,3,0,0,0,0-2-2.77-.52-.72Z" transform="translate(3790.64 699.97)"></path><path class="cls-10" d="M-3359-583.08a36.53,36.53,0,0,1-9.62.24l-5,7.41-13.78-5.31,1.29-8.83a36.13,36.13,0,0,1-7-6.63l-8.76,1.72-6-13.49,7.15-5.33a36.12,36.12,0,0,1-.23-9.62l-7.41-5,5.3-13.78,8.83,1.29a35.88,35.88,0,0,1,6.64-7l-1.73-8.75,13.49-6,5.33,7.15a36.12,36.12,0,0,1,9.62-.23l5-7.41,13.78,5.31-1.29,8.83a36.13,36.13,0,0,1,7,6.63l8.75-1.73,6,13.5-7.15,5.33a36.1,36.1,0,0,1,.23,9.62l7.41,5-5.31,13.77-8.83-1.29a36.16,36.16,0,0,1-6.63,7l1.73,8.75-13.49,6-5.34-7.15Zm.11-21.18a15.84,15.84,0,0,0,8.05-20.9,15.83,15.83,0,0,0-20.9-8.05,15.83,15.83,0,0,0-8.05,20.9A15.84,15.84,0,0,0-3358.86-604.26Z" transform="translate(3790.64 699.97)"></path><g class="cls-11"><path class="cls-4" d="M-3445.36-618.73a18.84,18.84,0,0,1-5,.12l-2.58,3.83-7.12-2.74.66-4.57a18.93,18.93,0,0,1-3.61-3.44l-4.52.9-3.1-7,3.7-2.75a18.5,18.5,0,0,1-.12-5l-3.84-2.57,2.75-7.13,4.57.67a18.61,18.61,0,0,1,3.43-3.61l-.89-4.53,7-3.1,2.76,3.7a18.91,18.91,0,0,1,5-.12l2.57-3.84,7.13,2.75-.67,4.57a19.19,19.19,0,0,1,3.61,3.43l4.53-.89,3.09,7-3.7,2.76a18.92,18.92,0,0,1,.13,5l3.83,2.57-2.75,7.13-4.57-.67a18.3,18.3,0,0,1-3.43,3.61l.9,4.53-7,3.1-2.76-3.7Zm.06-11a8.21,8.21,0,0,0,4.17-10.82,8.21,8.21,0,0,0-10.82-4.17,8.21,8.21,0,0,0-4.17,10.82A8.21,8.21,0,0,0-3445.3-629.69Z" transform="translate(3790.64 699.97)"></path><path class="cls-4" d="M-3445.3-629.69a6.47,6.47,0,0,1-1.92.66,8.17,8.17,0,0,1-5.43-.84,8.16,8.16,0,0,1-2.88-2.56,8.46,8.46,0,0,1-1.48-4.17,7.87,7.87,0,0,1,.17-2.41,8.12,8.12,0,0,1,.91-2.36,8.42,8.42,0,0,1,3.88-3.52,8.44,8.44,0,0,1,5.22-.52,7.93,7.93,0,0,1,2.36.91,7.79,7.79,0,0,1,1.9,1.49,8.29,8.29,0,0,1,2.11,3.9,8.3,8.3,0,0,1,0,3.85,8.14,8.14,0,0,1-3,4.59,6.35,6.35,0,0,1-1.78,1c0-.06.66-.32,1.67-1.12a8.23,8.23,0,0,0,2.81-4.52,8.07,8.07,0,0,0,0-3.69,8.08,8.08,0,0,0-2-3.69,7.61,7.61,0,0,0-1.81-1.4,7.8,7.8,0,0,0-2.23-.85,8,8,0,0,0-4.93.5,8,8,0,0,0-3.68,3.32,7.77,7.77,0,0,0-.87,2.22,7.77,7.77,0,0,0-.18,2.29,8.1,8.1,0,0,0,1.37,4,7.89,7.89,0,0,0,2.72,2.49,8.13,8.13,0,0,0,5.24.95C-3446-629.41-3445.32-629.75-3445.3-629.69Z" transform="translate(3790.64 699.97)"></path><path class="cls-4" d="M-3445.36-618.73s.07.06.19.22l.54.69,2.09,2.74-.09,0,7-3.14-.07.13c-.28-1.37-.58-2.89-.91-4.52l0-.08.07-.06a18.54,18.54,0,0,0,3.39-3.59l0-.07h.1l4.57.65-.18.11,2.73-7.14.07.22-3.84-2.56-.1-.06v-.12a18.27,18.27,0,0,0-.13-4.93l0-.12.1-.07,3.7-2.77-.07.26c-1-2.19-2-4.56-3.1-7l.24.12-4.53.9-.13,0-.09-.11a18.27,18.27,0,0,0-3.56-3.38l-.12-.09,0-.13c.21-1.43.44-3,.67-4.57l.14.25-7.12-2.75.27-.09-2.57,3.84-.08.12-.14,0a18.48,18.48,0,0,0-4.91.12h0c-.1,0,.22.1-.23-.09h0l0,0,0-.06-.09-.12-.17-.23-.35-.47-.69-.92-1.38-1.85.29.07-7,3.1.14-.26c.3,1.53.59,3,.89,4.53l0,.14-.1.09a18.47,18.47,0,0,0-3.4,3.56l-.08.11-.13,0-4.57-.67.24-.14c-.94,2.43-1.86,4.81-2.76,7.12l-.08-.25,3.84,2.57.1.07v.13a18.36,18.36,0,0,0,.11,4.92l0,.13-.1.07-3.7,2.75.06-.23,3.08,7-.2-.1,4.53-.88.1,0,.07.08a19,19,0,0,0,3.56,3.41l.08.06v.09c-.25,1.66-.47,3.15-.69,4.57l-.08-.15,7.11,2.77-.12,0,2.59-3.81,0,0h0a19.49,19.49,0,0,0,3.75.07l.92-.09.3,0-.3.06-.92.13a18.35,18.35,0,0,1-3.76,0l.07,0-2.55,3.85,0,.07-.08,0-7.14-2.72-.11,0,0-.12c.2-1.41.41-2.9.65-4.57l.06.15a18.67,18.67,0,0,1-3.65-3.45l.17.06-4.53.9-.14,0-.06-.13c-1-2.2-2-4.52-3.11-7l-.06-.14.12-.09,3.7-2.77-.08.2a18.82,18.82,0,0,1-.13-5l.09.2-3.84-2.56-.14-.1.06-.16q1.33-3.48,2.74-7.13l.06-.17.18,0,4.57.66-.22.09a19.07,19.07,0,0,1,3.48-3.65l-.09.22c-.29-1.49-.59-3-.89-4.53l0-.18.17-.07,7-3.11.17-.07.11.15,1.37,1.84.7.93.34.47.18.23.08.12,0,.06,0,0h0l-.23-.09h0a18.54,18.54,0,0,1,5-.12l-.22.1c.89-1.32,1.76-2.63,2.58-3.84l.1-.15.17.07,7.13,2.75.17.06,0,.18c-.24,1.58-.47,3.14-.68,4.57l-.09-.21a18.64,18.64,0,0,1,3.65,3.47l-.21-.08,4.52-.89.18,0,.07.16,3.09,7,.06.15-.13.1-3.71,2.75.08-.19a19,19,0,0,1,.12,5l-.09-.18,3.83,2.58.13.08-.06.14-2.76,7.12-.05.12-.13,0-4.57-.68.15-.06a18.83,18.83,0,0,1-3.47,3.63l.05-.14c.31,1.64.61,3.16.87,4.54l0,.09-.09,0-7,3,0,0,0,0-2-2.77-.52-.72Z" transform="translate(3790.64 699.97)"></path></g><path class="cls-14" d="M-3313.61-398.65l2.33-.42s18.25,6.05,17.85,2.5c-.54-4.69-17.15-9.07-18.74-9.16-2.65-.15-18.43,1.22-20.67,2.37s-15.9,13.92-15.9,13.92l16.38,17.86s4.51.58,10.62-4.41c3.1-2.54,7.72-7,7.72-7s-.19-1.31.23-1.79c1.23-1.45.39-2.4.39-2.4a3.06,3.06,0,0,0,2.32-2.34,2.23,2.23,0,0,0-.4-1.71c-1-1-1.49-.85-1.49-.85s2.48-.71,3-2.86-2.54-3.15-2.54-3.15" transform="translate(3790.64 699.97)"></path><path class="cls-15" d="M-3293.81-395.74c0,.12-1.54.45-4.08.34a23.51,23.51,0,0,1-4.41-.65c-1.59-.49-3.31-1.08-5.13-1.69l-3.85-1.33.24,0c-5.59.88-9.66,1.37-9.7,1.14s4-1.09,9.55-2.09l.11,0,.13,0,3.83,1.27,5.06,1.75a28.32,28.32,0,0,0,4.23.84C-3295.37-395.83-3293.82-395.9-3293.81-395.74Z" transform="translate(3790.64 699.97)"></path><path class="cls-14" d="M-3314.85-397.73l-6,4.62a6.71,6.71,0,0,0-1.84,1.84,2.24,2.24,0,0,0,0,2.46,2.18,2.18,0,0,0,1.9.69,5.44,5.44,0,0,0,2-.68,64.46,64.46,0,0,0,7.12-4" transform="translate(3790.64 699.97)"></path><path class="cls-15" d="M-3311.25-393a18.43,18.43,0,0,1-3.17,2.36,23.81,23.81,0,0,1-3.78,2.12,10.94,10.94,0,0,1-2.5.79,3.49,3.49,0,0,1-1.5-.06,2.07,2.07,0,0,1-1.32-1,2.8,2.8,0,0,1,.51-3,13.39,13.39,0,0,1,1.93-1.76c1.26-1,2.43-1.88,3.42-2.59,2-1.42,3.34-2.14,3.4-2a28.8,28.8,0,0,1-3,2.53l-3.29,2.71a14,14,0,0,0-1.77,1.67,2,2,0,0,0-.41,2.06,1.77,1.77,0,0,0,1.93.65,10.79,10.79,0,0,0,2.31-.69,29.1,29.1,0,0,0,3.76-1.9A17,17,0,0,1-3311.25-393Z" transform="translate(3790.64 699.97)"></path><path class="cls-14" d="M-3313.44-391.46s1.86-1.75,2.64-1.61a2.4,2.4,0,0,1,2.34,1.75c.36,1.25-.16,1.69-2.42,4.08" transform="translate(3790.64 699.97)"></path><path class="cls-14" d="M-3313.44-391.46l-4.95,4a5.57,5.57,0,0,0-1.51,1.59,2,2,0,0,0,0,2.11,1.68,1.68,0,0,0,1.54.58,4.59,4.59,0,0,0,1.62-.59,54,54,0,0,0,5.85-3.48" transform="translate(3790.64 699.97)"></path><path class="cls-15" d="M-3308.53-390a7.46,7.46,0,0,1-2.3,3,20.18,20.18,0,0,1-3.36,2.44,21.5,21.5,0,0,1-2.2,1.11,6,6,0,0,1-2.7.63,1.88,1.88,0,0,1-1.44-.78,2.12,2.12,0,0,1-.28-1.55,4,4,0,0,1,1.47-2.19c1.18-1,2.26-1.88,3.2-2.58a12,12,0,0,1,3.19-2,26.54,26.54,0,0,1-2.8,2.52c-.88.76-1.93,1.67-3.05,2.7A3.33,3.33,0,0,0-3320-385a1,1,0,0,0,1,1.31,5.45,5.45,0,0,0,2.29-.55,21.06,21.06,0,0,0,2.13-1,22.1,22.1,0,0,0,3.35-2.21C-3309.44-388.86-3308.65-390.07-3308.53-390Z" transform="translate(3790.64 699.97)"></path><path class="cls-14" d="M-3342.59-385.8c1.07,1.44,3.25,1.55,4.94.93s3.11-1.8,4.75-2.55c4.89-2.22,11-.32,15.76-2.78.67-.34,1.38-1,1.19-1.69s-1-.9-1.68-1l-17.57-2.89" transform="translate(3790.64 699.97)"></path><path class="cls-15" d="M-3335.2-395.8a7.23,7.23,0,0,1,1.93.12c1.23.14,3,.38,5.21.69l7.7,1.16,2.22.35a3.51,3.51,0,0,1,2.47,1,1.49,1.49,0,0,1,0,1.68,3.06,3.06,0,0,1-1.1,1,11.92,11.92,0,0,1-2.45.94c-3.43.86-6.7.51-9.55.87a13.28,13.28,0,0,0-3.9.95c-1.15.5-2.16,1.18-3.16,1.71a6.24,6.24,0,0,1-5.24.81c-1.25-.5-1.54-1.28-1.5-1.27a5.51,5.51,0,0,0,1.62.89,6.07,6.07,0,0,0,4.77-1c.94-.55,1.93-1.28,3.16-1.86a13.88,13.88,0,0,1,4.13-1.11c3-.41,6.24-.12,9.41-.93a11.07,11.07,0,0,0,2.22-.83c.66-.35,1.05-.92.79-1.21s-1.05-.51-1.8-.62l-2.22-.39-7.67-1.37c-2.18-.41-3.94-.75-5.16-1A6.75,6.75,0,0,1-3335.2-395.8Z" transform="translate(3790.64 699.97)"></path><path class="cls-14" d="M-3312.25-385.94s1.38-1.3,1.95-1.2a1.79,1.79,0,0,1,1.74,1.3c.26.93-.12,1.25-1.79,3" transform="translate(3790.64 699.97)"></path><path class="cls-14" d="M-3312.25-385.94l-3.67,3a4.06,4.06,0,0,0-1.12,1.18,1.46,1.46,0,0,0,0,1.56,1.23,1.23,0,0,0,1.14.43,3.35,3.35,0,0,0,1.2-.44,39.67,39.67,0,0,0,4.34-2.58" transform="translate(3790.64 699.97)"></path><path class="cls-15" d="M-3308.61-384.85c.09,0-.36,1.09-1.66,2.3a13.52,13.52,0,0,1-2.49,1.84,13.07,13.07,0,0,1-1.63.83,4.6,4.6,0,0,1-2.06.49,1.57,1.57,0,0,1-1.15-.63,1.63,1.63,0,0,1-.22-1.23,3,3,0,0,1,1.13-1.68c.9-.72,1.74-1.33,2.44-1.85a9.09,9.09,0,0,1,2.36-1.5c.07.1-.7.86-2,2l-2.28,2a2.4,2.4,0,0,0-.83,1.23c-.07.49.13.81.61.85a4.08,4.08,0,0,0,1.65-.41,16.27,16.27,0,0,0,1.57-.74,17.52,17.52,0,0,0,2.48-1.61C-3309.33-384-3308.73-384.93-3308.61-384.85Z" transform="translate(3790.64 699.97)"></path><path class="cls-15" d="M-3326.22-379.71c-.25-.07.25-1.92-.43-4.05s-2.07-3.4-1.91-3.6,2,.89,2.75,3.34S-3326-379.57-3326.22-379.71Z" transform="translate(3790.64 699.97)"></path><path class="cls-1" d="M-3466.78-408.58c-8.45-4.32-16.8-5.3-25.91-5.56-10.61-.31-25.56-1.8-37-.58,0,0-35.94,2.81-36.1,29.81l5.71,99.75-7.45,44.42,104.37,3.15-.75-52.4c.34,23.52-.8-50.88-.43-70.74,1.61-14.66,8.6-16.39,9.74-25.92C-3453.59-395.07-3459.22-404.72-3466.78-408.58Z" transform="translate(3790.64 699.97)"></path><path class="cls-1" d="M-3488.42-413.46s15.87-.27,26.3,4.85,67.56,40.16,67.56,40.16l43.88-24.32,23.21,21.75-50.33,33.22a34.64,34.64,0,0,1-33.11,3.15l-56.76-22.53Z" transform="translate(3790.64 699.97)"></path><path class="cls-8" d="M-3464.33-377.15c.28,0,.55,15.51.61,34.63s-.12,34.64-.39,34.64-.55-15.51-.61-34.64S-3464.61-377.15-3464.33-377.15Z" transform="translate(3790.64 699.97)"></path><path class="cls-16" d="M-3597.45,32.56l-9.89,39.22-16.76,28.76a4.14,4.14,0,0,0,1.74,5.8h0a4.11,4.11,0,0,0,3.8-.06c7.52-4.06,35.14-19.13,35.7-22,.65-3.37,13.17-40.68,13.17-40.68Z" transform="translate(3790.64 699.97)"></path><path class="cls-17" d="M-3622.36,106.34l40.23-24.73-.46,1.65a6.26,6.26,0,0,1-2.5,3.5c-3.28,2.23-12.47,8.17-33.35,19.56a4.16,4.16,0,0,1-3.92,0Z" transform="translate(3790.64 699.97)"></path><g class="cls-18"><path class="cls-4" d="M-3586.66,66.82a2.5,2.5,0,0,0-1.53,3,2.41,2.41,0,0,0,2.93,1.55,2.65,2.65,0,0,0,1.61-3.16c-.49-1.13-2.19-1.92-3.23-1.27" transform="translate(3790.64 699.97)"></path></g><path class="cls-8" d="M-3608.74,91.77c-.25,0-.56-2.23-2.58-4s-4.26-1.85-4.25-2.1.57-.27,1.52-.15a6.51,6.51,0,0,1,3.32,1.58,6.41,6.41,0,0,1,2,3.12C-3608.53,91.18-3608.63,91.77-3608.74,91.77Z" transform="translate(3790.64 699.97)"></path><path class="cls-8" d="M-3613,96.23c-.23.11-1.13-1.5-3-2.63s-3.67-1.29-3.67-1.55,2-.54,4.15.79S-3612.72,96.18-3613,96.23Z" transform="translate(3790.64 699.97)"></path><path class="cls-8" d="M-3601.72,86.51c-.23.14-1.61-2.35-4.34-4.37s-5.47-2.68-5.41-3,3,0,5.95,2.24S-3601.5,86.46-3601.72,86.51Z" transform="translate(3790.64 699.97)"></path><path class="cls-8" d="M-3597.72,74.84c-.17.21-2.07-1.29-4.85-2.16s-5.18-.82-5.19-1.09,2.5-.73,5.47.24S-3597.54,74.69-3597.72,74.84Z" transform="translate(3790.64 699.97)"></path><path class="cls-8" d="M-3594.53,63.4c-.18.19-2-1.7-5-2.39s-5.45.13-5.53-.13c0-.1.52-.47,1.56-.74a9,9,0,0,1,4.17,0,9,9,0,0,1,3.73,1.88C-3594.78,62.75-3594.44,63.33-3594.53,63.4Z" transform="translate(3790.64 699.97)"></path><path class="cls-8" d="M-3598.84,58.85a3.53,3.53,0,0,1,.35-1.48,10.71,10.71,0,0,1,2.24-3.54,4.69,4.69,0,0,1,2.55-1.63,1.66,1.66,0,0,1,1.71.86,2.69,2.69,0,0,1,.13,1.93,5.86,5.86,0,0,1-6.39,3.85,6.8,6.8,0,0,1-5.49-5.2,2.34,2.34,0,0,1,.42-1.92,1.64,1.64,0,0,1,1.88-.38,5.84,5.84,0,0,1,2.2,2,12,12,0,0,1,1.82,3.77,3.68,3.68,0,0,1,.23,1.51,19.33,19.33,0,0,0-2.55-4.9,5.43,5.43,0,0,0-2-1.73.88.88,0,0,0-1,.2,1.6,1.6,0,0,0-.2,1.28,6.06,6.06,0,0,0,4.81,4.45,5.08,5.08,0,0,0,5.47-3.19,1.94,1.94,0,0,0,0-1.35.91.91,0,0,0-.94-.49,4.25,4.25,0,0,0-2.18,1.34A15.84,15.84,0,0,0-3598.84,58.85Z" transform="translate(3790.64 699.97)"></path><path class="cls-16" d="M-3465.18,37.72l-2.19,33s32.8,10.88,33,17l-64.07.46,1.29-51.48Z" transform="translate(3790.64 699.97)"></path><g class="cls-18"><path class="cls-4" d="M-3487.08,67.29a2.62,2.62,0,0,0-1.9,2.93,2.52,2.52,0,0,0,2.89,1.91,2.76,2.76,0,0,0,2-3.11c-.39-1.23-2.07-2.23-3.22-1.65" transform="translate(3790.64 699.97)"></path></g><g class="cls-18"><path class="cls-4" d="M-3498.45,88.14l.13-5.19,61.88,1.71a4.42,4.42,0,0,1,2.38,3.48Z" transform="translate(3790.64 699.97)"></path></g><path class="cls-8" d="M-3466.32,70.37c0,.31-1.59.41-3.15,1.37s-2.43,2.25-2.72,2.11.24-1.92,2.16-3S-3466.24,70.09-3466.32,70.37Z" transform="translate(3790.64 699.97)"></path><path class="cls-8" d="M-3459.69,73.35c.07.31-1.3.8-2.41,2.09s-1.45,2.68-1.76,2.66-.45-1.8,1-3.38S-3459.68,73.06-3459.69,73.35Z" transform="translate(3790.64 699.97)"></path><path class="cls-8" d="M-3456.11,81.51c-.29.06-.68-1.52.18-3.21s2.33-2.32,2.46-2.06-.81,1.15-1.49,2.55S-3455.8,81.49-3456.11,81.51Z" transform="translate(3790.64 699.97)"></path><path class="cls-8" d="M-3466.65,62.81c-.14.28-1.56-.2-3.34-.13s-3.16.58-3.32.31,1.21-1.35,3.29-1.4S-3466.49,62.57-3466.65,62.81Z" transform="translate(3790.64 699.97)"></path><path class="cls-8" d="M-3466.34,56.15c0,.13-1.24.29-3.2-.11a14.72,14.72,0,0,1-3.33-1.13,14,14,0,0,1-1.81-1,3.73,3.73,0,0,1-.94-.78,1.37,1.37,0,0,1-.1-1.67,1.74,1.74,0,0,1,1.39-.67,4.41,4.41,0,0,1,1.2.2,11.61,11.61,0,0,1,2,.75,11.13,11.13,0,0,1,2.89,2c1.45,1.42,1.92,2.6,1.81,2.66s-.84-.9-2.31-2.08a12.6,12.6,0,0,0-2.82-1.7,11.78,11.78,0,0,0-1.82-.63c-.67-.19-1.25-.22-1.43.08-.07.11-.08.16.06.36a3,3,0,0,0,.69.57,15.94,15.94,0,0,0,1.67,1,17.21,17.21,0,0,0,3.06,1.28C-3467.53,55.86-3466.33,56-3466.34,56.15Z" transform="translate(3790.64 699.97)"></path><path class="cls-8" d="M-3466.76,56.59c-.11,0-.7-1.1-.75-3.12A10.64,10.64,0,0,1-3467,50a10.6,10.6,0,0,1,.88-1.92,2.65,2.65,0,0,1,2.1-1.56,1.49,1.49,0,0,1,1.31.93,4.19,4.19,0,0,1,.29,1.19,7.05,7.05,0,0,1-.06,2.16,7.39,7.39,0,0,1-1.47,3.27c-1.3,1.62-2.62,2-2.64,1.85s1-.73,2-2.3a7.3,7.3,0,0,0,1.11-3,6.38,6.38,0,0,0,0-1.85c-.07-.69-.31-1.25-.57-1.18s-.88.48-1.15,1a10.54,10.54,0,0,0-.85,1.72,11.28,11.28,0,0,0-.72,3.18C-3466.88,55.37-3466.59,56.55-3466.76,56.59Z" transform="translate(3790.64 699.97)"></path><polygon class="cls-8" points="325.45 451.46 227.83 450.72 180.66 760.56 221.17 765.7 273.1 510.94 288.64 766.61 288.68 767.37 332.5 766.6 325.45 451.46"></polygon><path class="cls-8" d="M-3476.64-252.88a17.8,17.8,0,0,1-2.9,1.09c-1.89.66-4.66,1.46-8.13,2.3a117,117,0,0,1-12.33,2.28,131.2,131.2,0,0,1-15.33,1,132.18,132.18,0,0,1-15.33-.92,118.41,118.41,0,0,1-12.35-2.21c-3.47-.82-6.25-1.61-8.14-2.26a17.3,17.3,0,0,1-2.91-1.07,19.3,19.3,0,0,1,3,.7c1.91.53,4.71,1.21,8.18,1.94s7.65,1.43,12.3,2a143.54,143.54,0,0,0,15.23.84,141.83,141.83,0,0,0,15.21-.93c4.66-.58,8.83-1.28,12.29-2.05s6.26-1.44,8.18-2A19.84,19.84,0,0,1-3476.64-252.88Z" transform="translate(3790.64 699.97)"></path><path class="cls-8" d="M-3530.26-476a57.09,57.09,0,0,1-3.21-10.81,19.16,19.16,0,0,1,1.18-11.06,11.66,11.66,0,0,1,8.46-6.78c2.3-.34,4.72.16,6.93-.54,2.57-.81,4.37-3.05,6.41-4.79a19.59,19.59,0,0,1,11.5-4.6,11.66,11.66,0,0,1,6.41,1.24,6.54,6.54,0,0,1,3.47,5.29,31.22,31.22,0,0,1,8-1.53,10.51,10.51,0,0,1,7.5,2.61c1.94,1.9,2.74,5.08,1.41,7.44a5.2,5.2,0,0,1,6.59,2.2,6.67,6.67,0,0,1-.77,7.2,12.46,12.46,0,0,1-7.66,3.94c-2.55.23-5.51.34-7.89-.59" transform="translate(3790.64 699.97)"></path><path class="cls-14" d="M-3510.7-393h0a18.94,18.94,0,0,0,20.82-19.36c-.17-6.11-.3-11.33-.27-12.07,0,0,15.23-1.64,16.13-16.75s-.08-49.94-.08-49.94h0a52.59,52.59,0,0,0-53.1,4.15l-2.32,1.61,1.79,74A18.92,18.92,0,0,0-3510.7-393Z" transform="translate(3790.64 699.97)"></path><path class="cls-15" d="M-3490.12-424.63a35.17,35.17,0,0,1-19.44-6.53s4.15,11.1,19.29,10.45Z" transform="translate(3790.64 699.97)"></path><path class="cls-14" d="M-3528.4-469.59c-.25-.12-10.24-3.56-10.4,6.79s10.27,8.37,10.29,8.07S-3528.4-469.59-3528.4-469.59Z" transform="translate(3790.64 699.97)"></path><path class="cls-15" d="M-3531.61-458.7s-.18.13-.49.26a1.81,1.81,0,0,1-1.35,0c-1.09-.42-2-2.17-2-4a6.07,6.07,0,0,1,.54-2.58,2.1,2.1,0,0,1,1.38-1.36.93.93,0,0,1,1.06.51c.13.29.06.5.12.51s.22-.17.14-.59a1.13,1.13,0,0,0-.39-.66,1.43,1.43,0,0,0-1-.28,2.53,2.53,0,0,0-1.9,1.58,6,6,0,0,0-.67,2.87c0,2.09,1.07,4.06,2.56,4.51a1.93,1.93,0,0,0,1.65-.25C-3531.63-458.45-3531.58-458.68-3531.61-458.7Z" transform="translate(3790.64 699.97)"></path><path class="cls-8" d="M-3473.57-486.42a35.5,35.5,0,0,1-22-2.16c-7.69-3.34-16.51-4.7-18.36-3.09s-1.84,9.35-9.14,12c0,0,1.93,21.8-4,21.8-4.34,0-4.08-30.53-4.08-30.53l14-7.78,15.52-3.8,14.68-.78,13.87,3.46Z" transform="translate(3790.64 699.97)"></path><path class="cls-8" d="M-3477.67-468.78a2.2,2.2,0,0,1-2.13,2.23,2.12,2.12,0,0,1-2.27-2,2.2,2.2,0,0,1,2.12-2.23A2.11,2.11,0,0,1-3477.67-468.78Z" transform="translate(3790.64 699.97)"></path><path class="cls-8" d="M-3477.18-471.26c-.28.28-2-.95-4.33-.95s-4.12,1.2-4.38.91c-.12-.13.16-.65.92-1.21a6.08,6.08,0,0,1,3.5-1.08,5.8,5.8,0,0,1,3.44,1.12C-3477.3-471.91-3477-471.39-3477.18-471.26Z" transform="translate(3790.64 699.97)"></path><path class="cls-8" d="M-3500.95-468.22a2.21,2.21,0,0,1-2.13,2.23,2.13,2.13,0,0,1-2.28-2,2.21,2.21,0,0,1,2.13-2.23A2.11,2.11,0,0,1-3500.95-468.22Z" transform="translate(3790.64 699.97)"></path><path class="cls-8" d="M-3500.55-470.82c-.28.29-1.95-.95-4.33-.94s-4.12,1.19-4.38.9c-.12-.13.15-.65.92-1.2a6,6,0,0,1,3.5-1.08,5.8,5.8,0,0,1,3.44,1.11C-3500.67-471.47-3500.42-470.95-3500.55-470.82Z" transform="translate(3790.64 699.97)"></path><path class="cls-8" d="M-3491.92-453.19a15.93,15.93,0,0,1,3.86-.7c.6-.06,1.18-.18,1.28-.59a3.13,3.13,0,0,0-.4-1.8l-1.8-4.62c-2.49-6.59-4.3-12-4-12.1s2.5,5.16,5,11.74c.6,1.63,1.18,3.17,1.72,4.65a3.5,3.5,0,0,1,.32,2.38,1.49,1.49,0,0,1-1,.89,4.19,4.19,0,0,1-1,.15C-3490.42-453.06-3491.92-453-3491.92-453.19Z" transform="translate(3790.64 699.97)"></path><path class="cls-8" d="M-3498.92-451.54c.39,0,.39,2.55,2.6,4.39s5,1.54,5,1.9c0,.17-.62.51-1.78.54a6.41,6.41,0,0,1-4.15-1.45,5.59,5.59,0,0,1-2-3.68C-3499.39-450.92-3499.1-451.56-3498.92-451.54Z" transform="translate(3790.64 699.97)"></path><path class="cls-8" d="M-3499.94-480.14c-.23.65-2.61.34-5.4.68s-5,1.1-5.41.52c-.17-.28.23-.89,1.14-1.51a9,9,0,0,1,4-1.41,9,9,0,0,1,4.22.5C-3500.35-480.95-3499.84-480.44-3499.94-480.14Z" transform="translate(3790.64 699.97)"></path><path class="cls-8" d="M-3478.06-478.14c-.42.54-2.05,0-4-.05s-3.64.36-4-.2c-.17-.28.09-.82.82-1.33a5.58,5.58,0,0,1,3.27-.88,5.56,5.56,0,0,1,3.21,1.08C-3478.1-479-3477.87-478.41-3478.06-478.14Z" transform="translate(3790.64 699.97)"></path><rect class="cls-4" x="89.03" y="376.53" width="285.53" height="115.98"></rect><path class="cls-9" d="M-3416.07-207.46s0-.72,0-2.08,0-3.38,0-6c0-5.3-.05-13.07-.08-23.08,0-20-.1-49-.17-84.81l.32.31-285.52.14h0l.45-.45c0,40.61,0,79.81,0,116l-.43-.44,204.72.21,59.39.12,15.9,0,4.11,0,1.42,0-1.37,0-4.06,0-15.8,0-59.29.12-205,.21h-.43v-.43c0-36.17,0-75.37,0-116v-.46h.47l285.52.14h.31v.32c-.07,35.91-.13,64.94-.17,85,0,10-.06,17.73-.08,23,0,2.61,0,4.6,0,6S-3416.07-207.46-3416.07-207.46Z" transform="translate(3790.64 699.97)"></path><path class="cls-9" d="M-3701.32-307.8c0-.25,63.82-.46,142.53-.46s142.55.21,142.55.46-63.81.45-142.55.45S-3701.32-307.55-3701.32-307.8Z" transform="translate(3790.64 699.97)"></path><g class="cls-19"><path class="cls-9" d="M-3689.37-314.8a2.07,2.07,0,0,1-2.07,2.07,2.06,2.06,0,0,1-2.07-2.07,2.07,2.07,0,0,1,2.07-2.07A2.07,2.07,0,0,1-3689.37-314.8Z" transform="translate(3790.64 699.97)"></path></g><g class="cls-19"><path class="cls-9" d="M-3682.27-314.8a2.07,2.07,0,0,1-2.07,2.07,2.06,2.06,0,0,1-2.07-2.07,2.07,2.07,0,0,1,2.07-2.07A2.07,2.07,0,0,1-3682.27-314.8Z" transform="translate(3790.64 699.97)"></path></g><g class="cls-19"><path class="cls-9" d="M-3675.27-314.8a2.07,2.07,0,0,1-2.07,2.07,2.06,2.06,0,0,1-2.07-2.07,2.07,2.07,0,0,1,2.07-2.07A2.07,2.07,0,0,1-3675.27-314.8Z" transform="translate(3790.64 699.97)"></path></g><rect class="cls-9" x="113.29" y="411.02" width="68.97" height="68.97"></rect><path class="cls-9" d="M-3435.83-270.47c0,.25-35.49.45-79.26.45s-79.27-.2-79.27-.45,35.49-.45,79.27-.45S-3435.83-270.72-3435.83-270.47Z" transform="translate(3790.64 699.97)"></path><path class="cls-9" d="M-3435.83-256.42c0,.25-35.49.45-79.26.45s-79.27-.2-79.27-.45,35.49-.45,79.27-.45S-3435.83-256.67-3435.83-256.42Z" transform="translate(3790.64 699.97)"></path><path class="cls-9" d="M-3492.31-242.37a4.58,4.58,0,0,1-1,.09l-3,.09-10.93.14-36.08.13-36.08-.13-10.94-.14-3-.09a4.75,4.75,0,0,1-1-.09,4.75,4.75,0,0,1,1-.09l3-.09,10.94-.14,36.08-.13,36.08.13,10.93.14,3,.09A4.58,4.58,0,0,1-3492.31-242.37Z" transform="translate(3790.64 699.97)"></path><path class="cls-1" d="M-3555.17-405.55s-13.92,7.17-20.1,32.9c-3.05,12.69-15.67,54-17.7,77.08-1.26,14.35,14.4,27.72,28.65,29.82l.65.09c29.61,5.94,58.24-2.1,58.24-2.1l-6-27s-37.84-7.34-42.66-9.59l14.68-58S-3528.4-403.07-3555.17-405.55Z" transform="translate(3790.64 699.97)"></path><path class="cls-8" d="M-3551.73-399.72a1.78,1.78,0,0,1,.53.06c.34.07.86.14,1.52.3a17.11,17.11,0,0,1,5.46,2.47,16.5,16.5,0,0,1,5.78,7.54,31.59,31.59,0,0,1,1.92,12.54,48.65,48.65,0,0,1-.76,7.39c-.53,2.56-1.24,5.12-1.9,7.83-1.35,5.4-2.79,11.18-4.32,17.28l-10.07,40.06-.35-.6c4.43,1.25,9.14,2.49,13.93,3.68,5,1.23,10,2.36,14.89,3.3,2.45.45,4.89.87,7.3,1.17a36.49,36.49,0,0,1,3.65.53,10.38,10.38,0,0,1,1.82.58,3.31,3.31,0,0,1,1.55,1.31,11.29,11.29,0,0,1,1.21,3.51c.25,1.15.5,2.29.76,3.43.47,2.28.88,4.53,1.27,6.75.79,4.42,1.55,8.69,2.54,12.72l.1.43-.42.1a140.74,140.74,0,0,1-44.91,3.7,107.44,107.44,0,0,1-17-2.52,6.12,6.12,0,0,1,1.14.13l3.31.52c2.89.43,7.15,1,12.59,1.36a144.19,144.19,0,0,0,44.65-4l-.32.53c-1-4.06-1.79-8.35-2.59-12.77-.41-2.21-.82-4.45-1.3-6.72-.25-1.12-.5-2.26-.76-3.4a10.51,10.51,0,0,0-1.07-3.19c-.53-.91-1.63-1.18-2.78-1.48s-2.33-.35-3.56-.51c-2.45-.29-4.89-.71-7.36-1.17-4.93-.93-9.91-2.07-14.95-3.3-4.8-1.19-9.51-2.44-14-3.7l-.47-.13.12-.47c3.64-14.31,7.08-27.81,10.18-40l4.42-17.26c.67-2.69,1.41-5.3,1.94-7.77a47.46,47.46,0,0,0,.82-7.28,31.56,31.56,0,0,0-1.75-12.33,16.15,16.15,0,0,0-5.5-7.43,17.66,17.66,0,0,0-5.3-2.59c-.65-.19-1.16-.29-1.49-.38A2.86,2.86,0,0,1-3551.73-399.72Z" transform="translate(3790.64 699.97)"></path><path class="cls-8" d="M-3572.24-293c-.1,0,0-1.37,1-3.31a15.49,15.49,0,0,1,5.79-6,15.41,15.41,0,0,1,8.06-2.2,7,7,0,0,1,3.39.67c0,.18-1.32-.09-3.38,0a17.21,17.21,0,0,0-7.56,2.36,17.07,17.07,0,0,0-5.68,5.52C-3571.69-294.18-3572.07-292.92-3572.24-293Z" transform="translate(3790.64 699.97)"></path><path class="cls-14" d="M-3509.81-292.37l10.91-1.19s4.49-7.45,7.44-10.05,18.19-9.89,18.19-9.89a4.21,4.21,0,0,1,0,5.35c-1,1.2-8.21,5.25-8.21,5.25h0a4.15,4.15,0,0,0,4.74,5.24c4.46-.81,9.66-1.74,10.35-1.74s5.22-4.22,8.49-7.42c2-1.91,5.46-.08,4.68,2.55a1.33,1.33,0,0,1-.39.66s4.7-.17.51,6.15c0,0,1,5.84-2.48,8.51,0,0-1.48,7.05-3.69,9.49s-23.83,7-23.83,7l-22.51,2.18Z" transform="translate(3790.64 699.97)"></path><path class="cls-15" d="M-3474.8-291a13.29,13.29,0,0,0,3.86.09,20.27,20.27,0,0,0,9.09-2.39,18.82,18.82,0,0,0,6.33-6.94,13,13,0,0,0,1.65-3.5c-.13-.08-.93,1.17-2.25,3.12a20.91,20.91,0,0,1-6.24,6.47,23.16,23.16,0,0,1-8.64,2.54C-3473.34-291.28-3474.81-291.11-3474.8-291Z" transform="translate(3790.64 699.97)"></path><path class="cls-15" d="M-3472.58-285.95c0,.13,1.34.43,3.53.27a24.41,24.41,0,0,0,3.81-.55,11.8,11.8,0,0,0,4.46-1.82,20.6,20.6,0,0,0,3.31-3.4l2.38-3a12.76,12.76,0,0,0,2-2.89c-.11-.09-1.07.84-2.55,2.43-.73.78-1.61,1.74-2.54,2.82a23.12,23.12,0,0,1-3.21,3.2,12.29,12.29,0,0,1-4.07,1.73,37.23,37.23,0,0,1-3.67.74C-3471.24-286-3472.56-286.09-3472.58-285.95Z" transform="translate(3790.64 699.97)"></path><path class="cls-15" d="M-3469.54-280.38c.07.4,3.93-.42,8.5-1.7a3.88,3.88,0,0,0,1.67-1,13,13,0,0,0,1.17-1.19,16.2,16.2,0,0,0,1.67-2.26c.84-1.37,1.08-2.37,1-2.41s-.58.8-1.53,2a23.57,23.57,0,0,1-1.76,2,14.84,14.84,0,0,1-1.14,1.09,3.25,3.25,0,0,1-1.28.78c-2.33.62-4.37,1.28-5.87,1.76A10.64,10.64,0,0,0-3469.54-280.38Z" transform="translate(3790.64 699.97)"></path><path class="cls-7" d="M-3119.61-553.35s.41,0,1.22,0a26.65,26.65,0,0,1,3.6.28,33.54,33.54,0,0,1,13.35,4.61,34.49,34.49,0,0,1,8.12,6.58,35.66,35.66,0,0,1,6.77,10.62,36.85,36.85,0,0,1,2.67,14.45q0,7.88,0,16.77c0,47.41.06,116,.12,200.74s0,185.67,0,297.72V51.77a38.07,38.07,0,0,1-1.36,10.86,35.81,35.81,0,0,1-4.54,10,38.9,38.9,0,0,1-7.41,8.23,36,36,0,0,1-20.55,8c-7.46.22-14.87.06-22.36.1l-45.31,0-93-.05-47.57,0-24,0A37.54,37.54,0,0,1-3373,82.45,36.43,36.43,0,0,1-3387.08,63a39.05,39.05,0,0,1-1.49-12v-12q0-24,0-47.58,0-47.23,0-93c0-61,.05-119.8.07-175.84s.05-109.28.07-159.12q0-37.36,0-72.11v-8.63c0-1.43.12-2.88.2-4.31.25-1.42.36-2.86.73-4.24a36.36,36.36,0,0,1,7.48-15.08,37,37,0,0,1,13.2-9.86,37.24,37.24,0,0,1,15.81-3l31,0,14.92,0h7.31a11.38,11.38,0,0,1,7,2,11.7,11.7,0,0,1,4.35,5.71c.92,2.29.7,4.75.72,7v3.46a25.22,25.22,0,0,0,.11,3.39,11.3,11.3,0,0,0,2.66,6,10.49,10.49,0,0,0,5.44,3.38,12.21,12.21,0,0,0,3.2.31h16.12l46.92.07,20.68,0c1.63,0,3.3.07,4.85-.07a10.22,10.22,0,0,0,4.35-1.53,11.22,11.22,0,0,0,5-7.17,19.5,19.5,0,0,0,.28-4.32c0-1.44,0-2.85,0-4.25a23.9,23.9,0,0,1,.18-4.15,12.1,12.1,0,0,1,1.35-3.81,11.16,11.16,0,0,1,5.68-5c2.33-1,4.82-.71,7.06-.76l23.08.06,14.19.06c3.2,0,4.84.06,4.84.06s-1.64,0-4.84,0l-14.19,0-23.08,0c-2.27.05-4.7-.24-7,.76a10.84,10.84,0,0,0-5.49,4.88,11.87,11.87,0,0,0-1.3,3.71,25,25,0,0,0-.17,4.09c0,1.4,0,2.81,0,4.25a20.64,20.64,0,0,1-.28,4.41,11.63,11.63,0,0,1-5.15,7.43,10.71,10.71,0,0,1-4.52,1.6c-1.65.15-3.24.05-4.9.08h-83.72a12.78,12.78,0,0,1-3.35-.32,11.11,11.11,0,0,1-5.74-3.56,11.79,11.79,0,0,1-2.81-6.27,25.32,25.32,0,0,1-.12-3.47v-3.46c0-2.32.17-4.67-.7-6.82a11.11,11.11,0,0,0-4.12-5.4,10.74,10.74,0,0,0-6.64-1.84h-53.25a36.67,36.67,0,0,0-15.52,2.95,36.18,36.18,0,0,0-12.92,9.68,35.53,35.53,0,0,0-7.31,14.76c-.36,1.36-.47,2.77-.71,4.15-.08,1.41-.18,2.81-.19,4.24v8.63q0,34.69,0,72.11c0,49.84,0,103.08,0,159.12s0,114.86,0,175.84q0,45.73,0,93,0,23.63,0,47.58v12a38.09,38.09,0,0,0,1.45,11.75,35.33,35.33,0,0,0,13.71,18.94,36.57,36.57,0,0,0,22.6,6.22l24,0,47.57,0,93,.06,45.31,0c7.47,0,15,.12,22.3-.09a35,35,0,0,0,20-7.76,37.34,37.34,0,0,0,7.22-8,35,35,0,0,0,4.43-9.76,37.15,37.15,0,0,0,1.33-10.6q0-5.4,0-10.79,0-21.51,0-42.53c.06-112,.12-213,.17-297.72s.15-153.33.2-200.74q0-8.89,0-16.77a36.5,36.5,0,0,0-2.59-14.34,35.44,35.44,0,0,0-6.69-10.56,34.25,34.25,0,0,0-8-6.58,33.92,33.92,0,0,0-13.26-4.68,30.39,30.39,0,0,0-3.6-.33Z" transform="translate(3790.64 699.97)"></path><path class="cls-7" d="M-3119.35-377c0-.28,3-.5,6.73-.5-1,1-.28.27-.5.49h0v-1.34q0-.61,0-1.26c0-.8.06-1.53.1-2.14.09-1.21.22-2,.36-2s.26.76.35,2c.05.61.08,1.34.11,2.14q0,.65,0,1.26v1.34h0c-.23.23.5-.49-.5.51C-3116.34-376.55-3119.35-376.78-3119.35-377Z" transform="translate(3790.64 699.97)"></path><path class="cls-7" d="M-3145.29-377c0-.28,2.9-.5,6.49-.5s6.48.22,6.48.5-2.9.5-6.48.5S-3145.29-376.78-3145.29-377Z" transform="translate(3790.64 699.97)"></path><path class="cls-7" d="M-3171.23-377c0-.28,2.9-.5,6.48-.5s6.49.22,6.49.5-2.91.5-6.49.5S-3171.23-376.78-3171.23-377Z" transform="translate(3790.64 699.97)"></path><path class="cls-7" d="M-3197.18-377c0-.28,2.9-.5,6.49-.5s6.48.22,6.48.5-2.9.5-6.48.5S-3197.18-376.78-3197.18-377Z" transform="translate(3790.64 699.97)"></path><path class="cls-7" d="M-3223.12-377c0-.28,2.9-.5,6.48-.5s6.49.22,6.49.5-2.9.5-6.49.5S-3223.12-376.78-3223.12-377Z" transform="translate(3790.64 699.97)"></path><path class="cls-7" d="M-3249.07-377c0-.28,2.91-.5,6.49-.5s6.48.22,6.48.5-2.9.5-6.48.5S-3249.07-376.78-3249.07-377Z" transform="translate(3790.64 699.97)"></path><path class="cls-7" d="M-3275-377c0-.28,2.9-.5,6.48-.5s6.49.22,6.49.5-2.9.5-6.49.5S-3275-376.78-3275-377Z" transform="translate(3790.64 699.97)"></path><path class="cls-7" d="M-3301-377c0-.28,2.91-.5,6.49-.5s6.49.22,6.49.5-2.91.5-6.49.5S-3301-376.78-3301-377Z" transform="translate(3790.64 699.97)"></path><path class="cls-7" d="M-3326.9-377c0-.28,2.9-.5,6.49-.5s6.48.22,6.48.5-2.9.5-6.48.5S-3326.9-376.78-3326.9-377Z" transform="translate(3790.64 699.97)"></path><path class="cls-7" d="M-3346.6-383.78c.28,0,.5,3,.5,6.73-1-1-.27-.28-.49-.5h1.35l1.26,0c.81,0,1.53.06,2.14.1,1.21.09,2,.22,2,.36s-.76.26-2,.35c-.61.05-1.33.08-2.14.11l-1.26,0h-1.35c-.23-.23.49.5-.51-.5C-3347.1-380.77-3346.87-383.78-3346.6-383.78Z" transform="translate(3790.64 699.97)"></path><path class="cls-7" d="M-3346.6-410.09c.28,0,.5,2.95.5,6.58s-.22,6.58-.5,6.58-.5-2.95-.5-6.58S-3346.87-410.09-3346.6-410.09Z" transform="translate(3790.64 699.97)"></path><path class="cls-7" d="M-3346.6-436.4c.28,0,.5,2.94.5,6.57s-.22,6.58-.5,6.58-.5-2.94-.5-6.58S-3346.87-436.4-3346.6-436.4Z" transform="translate(3790.64 699.97)"></path><path class="cls-7" d="M-3339.87-456.28c0,.27-3,.5-6.73.5l.5-.5h0v1.33l0,1.26c0,.81-.06,1.53-.1,2.14-.09,1.22-.22,2-.36,2s-.26-.75-.35-2c-.05-.61-.08-1.33-.11-2.14l0-1.26v-1.33h0l.5-.5C-3342.88-456.78-3339.87-456.56-3339.87-456.28Z" transform="translate(3790.64 699.97)"></path><path class="cls-7" d="M-3313.93-456.28c0,.27-2.9.5-6.48.5s-6.49-.23-6.49-.5,2.9-.5,6.49-.5S-3313.93-456.56-3313.93-456.28Z" transform="translate(3790.64 699.97)"></path><path class="cls-7" d="M-3288-456.28c0,.27-2.91.5-6.49.5s-6.49-.23-6.49-.5,2.91-.5,6.49-.5S-3288-456.56-3288-456.28Z" transform="translate(3790.64 699.97)"></path><path class="cls-7" d="M-3262-456.28c0,.27-2.9.5-6.49.5s-6.48-.23-6.48-.5,2.9-.5,6.48-.5S-3262-456.56-3262-456.28Z" transform="translate(3790.64 699.97)"></path><path class="cls-7" d="M-3236.1-456.28c0,.27-2.9.5-6.48.5s-6.49-.23-6.49-.5,2.91-.5,6.49-.5S-3236.1-456.56-3236.1-456.28Z" transform="translate(3790.64 699.97)"></path><path class="cls-7" d="M-3210.15-456.28c0,.27-2.91.5-6.49.5s-6.48-.23-6.48-.5,2.9-.5,6.48-.5S-3210.15-456.56-3210.15-456.28Z" transform="translate(3790.64 699.97)"></path><path class="cls-7" d="M-3184.21-456.28c0,.27-2.9.5-6.48.5s-6.49-.23-6.49-.5,2.9-.5,6.49-.5S-3184.21-456.56-3184.21-456.28Z" transform="translate(3790.64 699.97)"></path><path class="cls-7" d="M-3158.26-456.28c0,.27-2.91.5-6.49.5s-6.48-.23-6.48-.5,2.9-.5,6.48-.5S-3158.26-456.56-3158.26-456.28Z" transform="translate(3790.64 699.97)"></path><path class="cls-7" d="M-3132.32-456.28c0,.27-2.9.5-6.48.5s-6.49-.23-6.49-.5,2.9-.5,6.49-.5S-3132.32-456.56-3132.32-456.28Z" transform="translate(3790.64 699.97)"></path><path class="cls-7" d="M-3112.62-449.56c-.28,0-.5-3-.5-6.72,1,1,.27.27.49.5H-3114l-1.26,0c-.8,0-1.53-.06-2.14-.11-1.21-.09-2-.22-2-.35s.76-.27,2-.36c.61,0,1.34-.08,2.14-.1l1.26,0h1.35c.23.22-.49-.5.51.5C-3112.12-452.57-3112.35-449.56-3112.62-449.56Z" transform="translate(3790.64 699.97)"></path><path class="cls-7" d="M-3112.62-423.25c-.28,0-.5-2.94-.5-6.57s.22-6.58.5-6.58.5,2.94.5,6.58S-3112.35-423.25-3112.62-423.25Z" transform="translate(3790.64 699.97)"></path><path class="cls-7" d="M-3112.62-396.93c-.28,0-.5-2.95-.5-6.58s.22-6.58.5-6.58.5,2.95.5,6.58S-3112.35-396.93-3112.62-396.93Z" transform="translate(3790.64 699.97)"></path><rect class="cls-7" x="442.52" y="241.63" width="4.12" height="4.12"></rect><rect class="cls-7" x="441.98" y="320.86" width="4.12" height="4.12"></rect><rect class="cls-7" x="558.97" y="320.86" width="4.12" height="4.12"></rect><rect class="cls-7" x="558.97" y="240.76" width="4.12" height="4.12"></rect><path class="cls-8" d="M-3112.73-495.73c0,.15-5.88.33-13.14.39s-13.13,0-13.13-.17,5.87-.33,13.13-.39S-3112.74-495.88-3112.73-495.73Z" transform="translate(3790.64 699.97)"></path><path class="cls-8" d="M-3112.68-489c0,.15-5.88.33-13.13.39s-13.14,0-13.14-.17,5.88-.33,13.14-.39S-3112.68-489.16-3112.68-489Z" transform="translate(3790.64 699.97)"></path><path class="cls-8" d="M-3112.62-482.29c0,.16-5.88.33-13.13.39s-13.14,0-13.14-.17,5.88-.33,13.13-.39S-3112.62-482.44-3112.62-482.29Z" transform="translate(3790.64 699.97)"></path><path class="cls-1" d="M-3193-260.52c0,.26-18.16.47-40.56.47s-40.55-.21-40.55-.47,18.15-.46,40.55-.46S-3193-260.77-3193-260.52Z" transform="translate(3790.64 699.97)"></path><path class="cls-8" d="M-3128.3-243.87c0,.26-32.64.46-72.89.46s-72.89-.2-72.89-.46,32.63-.46,72.89-.46S-3128.3-244.12-3128.3-243.87Z" transform="translate(3790.64 699.97)"></path><path class="cls-8" d="M-3130-232c0,.25-32.26.46-72,.46s-72-.21-72-.46,32.24-.46,72-.46S-3130-232.24-3130-232Z" transform="translate(3790.64 699.97)"></path><path class="cls-8" d="M-3189-220.64c0,.26-19,.46-42.53.46s-42.53-.2-42.53-.46,19-.46,42.53-.46S-3189-220.89-3189-220.64Z" transform="translate(3790.64 699.97)"></path><path class="cls-1" d="M-3193-79.57c0,.26-18.16.47-40.56.47s-40.55-.21-40.55-.47,18.15-.46,40.55-.46S-3193-79.82-3193-79.57Z" transform="translate(3790.64 699.97)"></path><path class="cls-8" d="M-3128.3-62.92c0,.26-32.64.46-72.89.46s-72.89-.2-72.89-.46,32.63-.46,72.89-.46S-3128.3-63.17-3128.3-62.92Z" transform="translate(3790.64 699.97)"></path><path class="cls-8" d="M-3130-51c0,.25-32.26.46-72,.46s-72-.21-72-.46,32.24-.46,72-.46S-3130-51.29-3130-51Z" transform="translate(3790.64 699.97)"></path><path class="cls-8" d="M-3189-39.69c0,.25-19,.46-42.53.46s-42.53-.21-42.53-.46,19-.46,42.53-.46S-3189-39.95-3189-39.69Z" transform="translate(3790.64 699.97)"></path><path class="cls-7" d="M-3192.75-342.38c0,.26-18.16.46-40.56.46s-40.55-.2-40.55-.46,18.15-.46,40.55-.46S-3192.75-342.63-3192.75-342.38Z" transform="translate(3790.64 699.97)"></path><path class="cls-8" d="M-3128.08-325.73c0,.25-32.64.46-72.89.46s-72.89-.21-72.89-.46,32.63-.46,72.89-.46S-3128.08-326-3128.08-325.73Z" transform="translate(3790.64 699.97)"></path><path class="cls-8" d="M-3129.79-313.84c0,.25-32.26.46-72,.46s-72-.21-72-.46,32.24-.47,72-.47S-3129.79-314.1-3129.79-313.84Z" transform="translate(3790.64 699.97)"></path><path class="cls-8" d="M-3188.8-302.5c0,.25-19,.46-42.53.46s-42.53-.21-42.53-.46,19-.47,42.53-.47S-3188.8-302.76-3188.8-302.5Z" transform="translate(3790.64 699.97)"></path><path class="cls-7" d="M-3308.84-299c0-.27,3-.5,6.72-.5s6.72.23,6.72.5-3,.5-6.72.5S-3308.84-298.73-3308.84-299Z" transform="translate(3790.64 699.97)"></path><path class="cls-7" d="M-3335.74-299c0-.27,3-.5,6.73-.5s6.72.23,6.72.5-3,.5-6.72.5S-3335.74-298.73-3335.74-299Z" transform="translate(3790.64 699.97)"></path><path class="cls-7" d="M-3340.71-320.93c.28,0,.5,3,.5,6.72s-.22,6.73-.5,6.73-.5-3-.5-6.73S-3341-320.93-3340.71-320.93Z" transform="translate(3790.64 699.97)"></path><path class="cls-7" d="M-3337.2-344.32c0,.19-1.41.36-3.51.44l.44-.44c0,.94.06,2.05.06,3.22,0,3.71-.22,6.72-.5,6.72s-.5-3-.5-6.72c0-1.17,0-2.28.06-3.22l0-.45h.42C-3338.61-344.67-3337.2-344.51-3337.2-344.32Z" transform="translate(3790.64 699.97)"></path><path class="cls-7" d="M-3310.3-344.32c0,.28-3,.5-6.73.5s-6.72-.22-6.72-.5,3-.5,6.72-.5S-3310.3-344.59-3310.3-344.32Z" transform="translate(3790.64 699.97)"></path><path class="cls-7" d="M-3295.4-332.33c-.27,0-.5-3-.5-6.73,0-2.14.08-4.05.19-5.26l.31.31c-.92-.08-1.46-.19-1.46-.31s.54-.22,1.46-.31l.28,0,0,.33c.12,1.21.19,3.12.19,5.26C-3294.9-335.34-3295.12-332.33-3295.4-332.33Z" transform="translate(3790.64 699.97)"></path><path class="cls-7" d="M-3295.4-305.44c-.27,0-.5-3-.5-6.72s.23-6.73.5-6.73.5,3,.5,6.73S-3295.12-305.44-3295.4-305.44Z" transform="translate(3790.64 699.97)"></path><rect class="cls-7" x="492.25" y="398.76" width="5.02" height="5.02"></rect><rect class="cls-7" x="492.25" y="351.92" width="5.02" height="5.02"></rect><rect class="cls-7" x="447.42" y="398.76" width="5.02" height="5.02"></rect><rect class="cls-7" x="447.42" y="353.15" width="5.02" height="5.02"></rect><path class="cls-1" d="M-3308.84-215.59c0-.27,3-.5,6.72-.5s6.72.23,6.72.5-3,.5-6.72.5S-3308.84-215.31-3308.84-215.59Z" transform="translate(3790.64 699.97)"></path><path class="cls-1" d="M-3335.74-215.59c0-.27,3-.5,6.73-.5s6.72.23,6.72.5-3,.5-6.72.5S-3335.74-215.31-3335.74-215.59Z" transform="translate(3790.64 699.97)"></path><path class="cls-1" d="M-3340.71-237.51c.28,0,.5,3,.5,6.72s-.22,6.73-.5,6.73-.5-3-.5-6.73S-3341-237.51-3340.71-237.51Z" transform="translate(3790.64 699.97)"></path><path class="cls-1" d="M-3337.2-260.9c0,.19-1.41.36-3.51.44l.44-.44c0,.95.06,2,.06,3.22,0,3.71-.22,6.72-.5,6.72s-.5-3-.5-6.72c0-1.17,0-2.27.06-3.22l0-.45.42,0C-3338.61-261.25-3337.2-261.08-3337.2-260.9Z" transform="translate(3790.64 699.97)"></path><path class="cls-1" d="M-3310.3-260.9c0,.28-3,.5-6.73.5s-6.72-.22-6.72-.5,3-.5,6.72-.5S-3310.3-261.17-3310.3-260.9Z" transform="translate(3790.64 699.97)"></path><path class="cls-1" d="M-3295.4-248.91c-.27,0-.5-3-.5-6.72,0-2.15.08-4.06.19-5.27l.31.31c-.92-.08-1.46-.19-1.46-.31s.54-.22,1.46-.31l.28,0,0,.33c.12,1.21.19,3.12.19,5.27C-3294.9-251.92-3295.12-248.91-3295.4-248.91Z" transform="translate(3790.64 699.97)"></path><path class="cls-1" d="M-3295.4-222c-.27,0-.5-3-.5-6.72s.23-6.72.5-6.72.5,3,.5,6.72S-3295.12-222-3295.4-222Z" transform="translate(3790.64 699.97)"></path><rect class="cls-1" x="492.25" y="482.18" width="5.02" height="5.02"></rect><rect class="cls-1" x="492.25" y="435.34" width="5.02" height="5.02"></rect><rect class="cls-1" x="447.42" y="482.18" width="5.02" height="5.02"></rect><rect class="cls-1" x="447.42" y="436.57" width="5.02" height="5.02"></rect><path class="cls-7" d="M-3308.6-127.24c0-.28,3-.5,6.72-.5s6.73.22,6.73.5-3,.5-6.73.5S-3308.6-127-3308.6-127.24Z" transform="translate(3790.64 699.97)"></path><path class="cls-7" d="M-3335.5-127.24c0-.28,3-.5,6.73-.5s6.72.22,6.72.5-3,.5-6.72.5S-3335.5-127-3335.5-127.24Z" transform="translate(3790.64 699.97)"></path><path class="cls-7" d="M-3340.47-149.17c.28,0,.51,3,.51,6.73s-.23,6.72-.51,6.72-.5-3-.5-6.72S-3340.74-149.17-3340.47-149.17Z" transform="translate(3790.64 699.97)"></path><path class="cls-7" d="M-3337-172.55c0,.19-1.41.35-3.5.44l.43-.44c0,.94.07,2,.07,3.21,0,3.72-.23,6.73-.51,6.73s-.5-3-.5-6.73c0-1.17,0-2.27.07-3.21l0-.46.42,0C-3338.37-172.91-3337-172.74-3337-172.55Z" transform="translate(3790.64 699.97)"></path><path class="cls-7" d="M-3310.06-172.55c0,.27-3,.5-6.73.5s-6.72-.23-6.72-.5,3-.5,6.72-.5S-3310.06-172.83-3310.06-172.55Z" transform="translate(3790.64 699.97)"></path><path class="cls-7" d="M-3295.15-160.57c-.28,0-.51-3-.51-6.72,0-2.14.08-4.05.2-5.26l.3.31c-.92-.09-1.46-.2-1.46-.31s.54-.23,1.46-.31l.28,0,0,.34c.12,1.21.2,3.12.2,5.26C-3294.65-163.58-3294.88-160.57-3295.15-160.57Z" transform="translate(3790.64 699.97)"></path><path class="cls-7" d="M-3295.15-133.67c-.28,0-.51-3-.51-6.73s.23-6.72.51-6.72.5,3,.5,6.72S-3294.88-133.67-3295.15-133.67Z" transform="translate(3790.64 699.97)"></path><rect class="cls-7" x="492.49" y="570.52" width="5.02" height="5.02"></rect><rect class="cls-7" x="492.49" y="523.68" width="5.02" height="5.02"></rect><rect class="cls-7" x="447.66" y="570.52" width="5.02" height="5.02"></rect><rect class="cls-7" x="447.66" y="524.91" width="5.02" height="5.02"></rect><path class="cls-1" d="M-3308.84-39.14c0-.27,3-.5,6.72-.5s6.72.23,6.72.5-3,.5-6.72.5S-3308.84-38.86-3308.84-39.14Z" transform="translate(3790.64 699.97)"></path><path class="cls-1" d="M-3335.74-39.14c0-.27,3-.5,6.73-.5s6.72.23,6.72.5-3,.5-6.72.5S-3335.74-38.86-3335.74-39.14Z" transform="translate(3790.64 699.97)"></path><path class="cls-1" d="M-3340.71-61.06c.28,0,.5,3,.5,6.72s-.22,6.73-.5,6.73-.5-3-.5-6.73S-3341-61.06-3340.71-61.06Z" transform="translate(3790.64 699.97)"></path><path class="cls-1" d="M-3337.2-84.45c0,.19-1.41.36-3.51.44l.44-.44c0,.94.06,2,.06,3.22,0,3.71-.22,6.72-.5,6.72s-.5-3-.5-6.72c0-1.17,0-2.28.06-3.22l0-.45h.42C-3338.61-84.8-3337.2-84.64-3337.2-84.45Z" transform="translate(3790.64 699.97)"></path><path class="cls-1" d="M-3310.3-84.45c0,.28-3,.5-6.73.5s-6.72-.22-6.72-.5,3-.5,6.72-.5S-3310.3-84.72-3310.3-84.45Z" transform="translate(3790.64 699.97)"></path><path class="cls-1" d="M-3295.4-72.46c-.27,0-.5-3-.5-6.73,0-2.14.08-4,.19-5.26l.31.31c-.92-.08-1.46-.19-1.46-.31s.54-.22,1.46-.31l.28,0,0,.33c.12,1.21.19,3.12.19,5.26C-3294.9-75.47-3295.12-72.46-3295.4-72.46Z" transform="translate(3790.64 699.97)"></path><path class="cls-1" d="M-3295.4-45.57c-.27,0-.5-3-.5-6.72s.23-6.73.5-6.73.5,3,.5,6.73S-3295.12-45.57-3295.4-45.57Z" transform="translate(3790.64 699.97)"></path><rect class="cls-1" x="492.25" y="658.63" width="5.02" height="5.02"></rect><rect class="cls-1" x="492.25" y="611.79" width="5.02" height="5.02"></rect><rect class="cls-1" x="447.42" y="658.63" width="5.02" height="5.02"></rect><rect class="cls-1" x="447.42" y="613.02" width="5.02" height="5.02"></rect><path class="cls-7" d="M-3308.84,52c0-.27,3-.5,6.72-.5s6.72.23,6.72.5-3,.5-6.72.5S-3308.84,52.31-3308.84,52Z" transform="translate(3790.64 699.97)"></path><path class="cls-7" d="M-3335.74,52c0-.27,3-.5,6.73-.5s6.72.23,6.72.5-3,.5-6.72.5S-3335.74,52.31-3335.74,52Z" transform="translate(3790.64 699.97)"></path><path class="cls-7" d="M-3340.71,30.11c.28,0,.5,3,.5,6.72s-.22,6.72-.5,6.72-.5-3-.5-6.72S-3341,30.11-3340.71,30.11Z" transform="translate(3790.64 699.97)"></path><path class="cls-7" d="M-3337.2,6.72c0,.19-1.41.36-3.51.44l.44-.44c0,.94.06,2.05.06,3.22,0,3.71-.22,6.72-.5,6.72s-.5-3-.5-6.72c0-1.17,0-2.28.06-3.22l0-.45h.42C-3338.61,6.37-3337.2,6.53-3337.2,6.72Z" transform="translate(3790.64 699.97)"></path><path class="cls-7" d="M-3310.3,6.72c0,.28-3,.5-6.73.5s-6.72-.22-6.72-.5,3-.5,6.72-.5S-3310.3,6.45-3310.3,6.72Z" transform="translate(3790.64 699.97)"></path><path class="cls-7" d="M-3295.4,18.71c-.27,0-.5-3-.5-6.73,0-2.14.08-4.05.19-5.26l.31.31c-.92-.08-1.46-.19-1.46-.31s.54-.22,1.46-.31l.28,0,0,.33c.12,1.21.19,3.12.19,5.26C-3294.9,15.7-3295.12,18.71-3295.4,18.71Z" transform="translate(3790.64 699.97)"></path><path class="cls-7" d="M-3295.4,45.6c-.27,0-.5-3-.5-6.72s.23-6.73.5-6.73.5,3,.5,6.73S-3295.12,45.6-3295.4,45.6Z" transform="translate(3790.64 699.97)"></path><rect class="cls-7" x="492.25" y="749.8" width="5.02" height="5.02"></rect><rect class="cls-7" x="492.25" y="702.96" width="5.02" height="5.02"></rect><rect class="cls-7" x="447.42" y="749.8" width="5.02" height="5.02"></rect><rect class="cls-7" x="447.42" y="704.19" width="5.02" height="5.02"></rect><path class="cls-7" d="M-3194.69-174.08c0,.26-18.16.46-40.55.46s-40.56-.2-40.56-.46,18.16-.46,40.56-.46S-3194.69-174.33-3194.69-174.08Z" transform="translate(3790.64 699.97)"></path><path class="cls-8" d="M-3130-157.43c0,.25-32.64.46-72.89.46s-72.9-.21-72.9-.46,32.63-.46,72.9-.46S-3130-157.69-3130-157.43Z" transform="translate(3790.64 699.97)"></path><path class="cls-8" d="M-3131.73-145.54c0,.25-32.25.46-72,.46s-72-.21-72-.46,32.25-.47,72-.47S-3131.73-145.8-3131.73-145.54Z" transform="translate(3790.64 699.97)"></path><path class="cls-8" d="M-3190.74-134.2c0,.25-19,.46-42.53.46s-42.53-.21-42.53-.46,19-.47,42.53-.47S-3190.74-134.46-3190.74-134.2Z" transform="translate(3790.64 699.97)"></path><path class="cls-7" d="M-3194.69,10.66c0,.26-18.16.47-40.55.47s-40.56-.21-40.56-.47,18.16-.46,40.56-.46S-3194.69,10.41-3194.69,10.66Z" transform="translate(3790.64 699.97)"></path><path class="cls-8" d="M-3130,27.31c0,.26-32.64.46-72.89.46s-72.9-.2-72.9-.46,32.63-.46,72.9-.46S-3130,27.06-3130,27.31Z" transform="translate(3790.64 699.97)"></path><path class="cls-8" d="M-3131.73,39.2c0,.25-32.25.46-72,.46s-72-.21-72-.46,32.25-.46,72-.46S-3131.73,38.94-3131.73,39.2Z" transform="translate(3790.64 699.97)"></path><path class="cls-8" d="M-3190.74,50.54c0,.26-19,.46-42.53.46s-42.53-.2-42.53-.46,19-.46,42.53-.46S-3190.74,50.29-3190.74,50.54Z" transform="translate(3790.64 699.97)"></path><path class="cls-7" d="M-3345.79-483.17l.53,0,1.48-.05,5.44-.13-.15.15c0-1.2,0-2.52-.07-3.94,0-.74-.06-1.43,0-2.27a2.1,2.1,0,0,1,1.83-1.68c.87,0,1.65-.06,2.6,0a2.11,2.11,0,0,1,1.78,2.1c0,1.84,0,3.76.06,5.75l-.25-.25,6.86-.07-.26.27c0-2.77-.05-5.62-.07-8.55,0-.73,0-1.46,0-2.18a2.19,2.19,0,0,0-1-1.62l-3-3-2.89-2.85-1.4-1.39a3.32,3.32,0,0,0-1.42-1.06,1.88,1.88,0,0,0-1.58.3c-.41.35-.85.85-1.27,1.26l-2.47,2.48c-1.54,1.61-3.16,3.08-4.33,4.47a5,5,0,0,0-.35,2.56v2.42c0,1.48,0,2.78,0,3.89s0,1.82,0,2.49a6,6,0,0,1,0,.9s0-.27,0-.82,0-1.47-.07-2.45-.06-2.44-.09-3.93c0-.78,0-1.6-.05-2.47,0-.43,0-.88,0-1.35a2.94,2.94,0,0,1,.38-1.43c1.27-1.56,2.79-2.93,4.35-4.59l2.44-2.5c.44-.43.8-.86,1.32-1.31a2.32,2.32,0,0,1,2-.4,3.68,3.68,0,0,1,1.65,1.18l1.41,1.38,2.9,2.85,3,2.95a5.71,5.71,0,0,1,.77.83,2.22,2.22,0,0,1,.35,1.16c0,.72,0,1.45,0,2.18,0,2.93,0,5.79.07,8.55v.27h-.26l-6.86,0h-.25v-.25q0-3,0-5.76a1.64,1.64,0,0,0-1.38-1.66c-.79-.05-1.72,0-2.49,0a1.68,1.68,0,0,0-1.48,1.33c-.07.69,0,1.5,0,2.2v4.09h-.15l-5.53,0-1.44,0A2.76,2.76,0,0,1-3345.79-483.17Z" transform="translate(3790.64 699.97)"></path><path class="cls-7" d="M-3348.12-424.75a1.47,1.47,0,0,1-.47.06l-1.37,0-5.29.1-19.45.16-28.84.1-17,0H-3425a15.31,15.31,0,0,0-4.37.33,8.2,8.2,0,0,0-5.66,6.1,26.15,26.15,0,0,0-.19,4.55v4.61c0,3.06,0,6.06,0,9,0,5.9,0,11.6,0,17,0,10.84-.07,20.61-.1,28.85s-.13,14.77-.16,19.45c0,2.23-.07,4-.1,5.29,0,.55,0,1,0,1.37a1.34,1.34,0,0,1-.05.47,1.74,1.74,0,0,1-.05-.47c0-.37,0-.82,0-1.37,0-1.29-.05-3.06-.09-5.29,0-4.68-.1-11.3-.16-19.45s-.07-18-.11-28.85c0-5.43,0-11.13,0-17,0-3,0-6,0-9v-4.61a26.73,26.73,0,0,1,.21-4.76,9.17,9.17,0,0,1,6.37-6.84,16.13,16.13,0,0,1,4.64-.37h4.47l17,0,28.84.11,19.45.16,5.29.09,1.37.05A2.48,2.48,0,0,1-3348.12-424.75Z" transform="translate(3790.64 699.97)"></path><path class="cls-7" d="M-3343.11-424.91a3,3,0,0,1-3,3,3,3,0,0,1-3-3,3,3,0,0,1,3-3A3,3,0,0,1-3343.11-424.91Z" transform="translate(3790.64 699.97)"></path><path class="cls-7" d="M-3287.8-400.17c-.09,0-.09-.69-.43-1.84a7.69,7.69,0,0,0-2.83-4,7.4,7.4,0,0,0-6.92-1,7.34,7.34,0,0,0-4.74,6.81,7.33,7.33,0,0,0,4.74,6.81,7.4,7.4,0,0,0,6.92-1,7.67,7.67,0,0,0,2.83-4c.34-1.14.34-1.83.43-1.83a4.06,4.06,0,0,1,0,1.93,7.69,7.69,0,0,1-2.78,4.48,8,8,0,0,1-7.66,1.26,8.19,8.19,0,0,1-5.43-7.67,8.19,8.19,0,0,1,5.43-7.67,8,8,0,0,1,7.66,1.26,7.66,7.66,0,0,1,2.78,4.48A4.07,4.07,0,0,1-3287.8-400.17Z" transform="translate(3790.64 699.97)"></path><path class="cls-8" d="M-2883.64,88.91l-225.69-.14a49.16,49.16,0,0,1-49.13-49.17l.11-565.79a49.16,49.16,0,0,1,49.19-49.15l225.69.13A49.17,49.17,0,0,1-2834.34-526l-.11,565.8A49.17,49.17,0,0,1-2883.64,88.91Z" transform="translate(3790.64 699.97)"></path><path class="cls-4" d="M-2883.71-555.2l-43.76,0a10.85,10.85,0,0,0-10.62,11.1v7.93a10.87,10.87,0,0,1-10.62,11.11l-85.29,0a10.89,10.89,0,0,1-10.63-11.12v-7.94a10.87,10.87,0,0,0-10.62-11.11h-15.39l-38.3,0a34.42,34.42,0,0,0-34.44,34.42l-.11,552.26a34.43,34.43,0,0,0,34.41,34.44l225.23.13a34.43,34.43,0,0,0,34.45-34.42l.11-552.26A34.43,34.43,0,0,0-2883.71-555.2Z" transform="translate(3790.64 699.97)"></path><path class="cls-8" d="M-2877.06-499.43c0,.14-5.68.31-12.7.37s-12.72,0-12.72-.16,5.69-.32,12.71-.38S-2877.06-499.58-2877.06-499.43Z" transform="translate(3790.64 699.97)"></path><path class="cls-8" d="M-2877-492.93c0,.15-5.69.32-12.71.37s-12.71,0-12.71-.16,5.68-.32,12.71-.37S-2877-493.08-2877-492.93Z" transform="translate(3790.64 699.97)"></path><path class="cls-8" d="M-2876.95-486.43c0,.15-5.69.32-12.71.38s-12.71,0-12.71-.17,5.69-.31,12.71-.37S-2876.95-486.57-2876.95-486.43Z" transform="translate(3790.64 699.97)"></path><path class="cls-8" d="M-3108.26-479l.53,0,1.47,0,5.42-.13-.15.16c0-1.21,0-2.52-.06-3.94,0-.73-.06-1.42,0-2.26a2.08,2.08,0,0,1,1.82-1.68c.87,0,1.64-.05,2.59,0a2.11,2.11,0,0,1,1.78,2.1c0,1.83,0,3.75.07,5.74l-.25-.25,6.84-.07-.26.26c0-2.75-.05-5.61-.07-8.53,0-.73,0-1.45,0-2.17a2.21,2.21,0,0,0-1-1.62l-3-2.95-2.89-2.85-1.39-1.38c-.49-.46-.86-.94-1.42-1.06a1.86,1.86,0,0,0-1.57.3c-.42.35-.86.85-1.28,1.26l-2.45,2.47c-1.55,1.61-3.16,3.08-4.33,4.46a4.84,4.84,0,0,0-.34,2.56c0,.85,0,1.65,0,2.41,0,1.48,0,2.78,0,3.89s0,1.81,0,2.48,0,.88,0,.9a5,5,0,0,1,0-.83c0-.66,0-1.46-.07-2.44s0-2.43-.09-3.92c0-.77,0-1.6,0-2.46,0-.44,0-.89,0-1.35a2.85,2.85,0,0,1,.37-1.43c1.27-1.55,2.78-2.93,4.34-4.58l2.44-2.49c.44-.44.8-.86,1.32-1.31a2.3,2.3,0,0,1,2-.4,3.75,3.75,0,0,1,1.65,1.18l1.4,1.38c1,.93,1.92,1.87,2.9,2.84l3,2.94a5.64,5.64,0,0,1,.76.83,2.14,2.14,0,0,1,.36,1.15c0,.73,0,1.46,0,2.19,0,2.92,0,5.77.07,8.53v.26h-.26l-6.85.05h-.25v-.25c0-2,0-3.91,0-5.74a1.65,1.65,0,0,0-1.39-1.66c-.78,0-1.71,0-2.48,0a1.67,1.67,0,0,0-1.47,1.33c-.07.69,0,1.49,0,2.19v4.09h-.15l-5.52,0-1.44,0A2.23,2.23,0,0,1-3108.26-479Z" transform="translate(3790.64 699.97)"></path><rect class="cls-20" x="672.16" y="255.35" width="240.09" height="43.67" rx="18.42"></rect><path class="cls-8" d="M-2896.8-400.95s.46-.06,1.37-.12a20.48,20.48,0,0,0,4-.77,18.94,18.94,0,0,0,5.77-3,18,18,0,0,0,5.48-6.94,17.38,17.38,0,0,0,1.44-5.09,46.85,46.85,0,0,0,.17-5.88,38.59,38.59,0,0,0-.29-6.4,17.88,17.88,0,0,0-2.38-6.4,18.17,18.17,0,0,0-12.12-8.42c-2.63-.5-5.46-.27-8.34-.32l-8.87,0-189.45.13a18.07,18.07,0,0,0-12.23,4.81,18,18,0,0,0-5.68,11.66c-.15,2.18,0,4.48-.08,6.7a21.21,21.21,0,0,0,.68,6.49,18.19,18.19,0,0,0,7.44,10.18,17.34,17.34,0,0,0,5.82,2.48,26,26,0,0,0,6.32.47h37.33l85.17.1,57.42.14,15.61.08,4.06.05c.92,0,1.39.05,1.39.05s-.47,0-1.39,0l-4.06.05-15.61.08-57.42.14-85.17.1h-37.33a27.74,27.74,0,0,1-6.52-.49,18.39,18.39,0,0,1-6.1-2.6,19.05,19.05,0,0,1-7.81-10.67,22,22,0,0,1-.71-6.73c0-2.25-.08-4.45.08-6.77a18.81,18.81,0,0,1,6-12.24,18.87,18.87,0,0,1,12.83-5.05l189.45.13h8.87c2.87.06,5.7-.17,8.45.36a18.71,18.71,0,0,1,12.44,8.72,18.49,18.49,0,0,1,2.41,6.58,39.86,39.86,0,0,1,.25,6.48,46,46,0,0,1-.2,5.93,17.86,17.86,0,0,1-1.52,5.18,18.09,18.09,0,0,1-5.63,7,18.92,18.92,0,0,1-5.88,3,18.83,18.83,0,0,1-4,.69Z" transform="translate(3790.64 699.97)"></path><path class="cls-8" d="M-2893.1-423.83c-.08,0-.08-.71-.41-1.89a8,8,0,0,0-2.9-4.15,7.63,7.63,0,0,0-7.15-1,7.57,7.57,0,0,0-4.91,7.05,7.55,7.55,0,0,0,4.91,7,7.6,7.6,0,0,0,7.15-1,8,8,0,0,0,2.9-4.14c.33-1.19.33-1.9.41-1.89s0,.17.07.51a6.46,6.46,0,0,1-.15,1.46,7.85,7.85,0,0,1-2.85,4.57,8.17,8.17,0,0,1-7.81,1.27,8.34,8.34,0,0,1-5.53-7.81,8.35,8.35,0,0,1,5.53-7.82,8.2,8.2,0,0,1,7.81,1.28,7.83,7.83,0,0,1,2.85,4.56,6.49,6.49,0,0,1,.15,1.47C-2893-424-2893.07-423.83-2893.1-423.83Z" transform="translate(3790.64 699.97)"></path><path class="cls-8" d="M-2888.74-410.19c-.18.17-1.92-1.42-3.87-3.53s-3.4-4-3.22-4.14,1.91,1.41,3.87,3.53S-2888.56-410.36-2888.74-410.19Z" transform="translate(3790.64 699.97)"></path><rect class="cls-7" x="682.28" y="334.95" width="52.55" height="52.55"></rect><path class="cls-7" d="M-2954.71-359.37c0,.25-17.57.45-39.24.45s-39.25-.2-39.25-.45,17.57-.44,39.25-.44S-2954.71-359.61-2954.71-359.37Z" transform="translate(3790.64 699.97)"></path><path class="cls-8" d="M-2892.12-343.26c0,.25-31.58.45-70.53.45s-70.55-.2-70.55-.45,31.58-.44,70.55-.44S-2892.12-343.5-2892.12-343.26Z" transform="translate(3790.64 699.97)"></path><path class="cls-8" d="M-2893.78-331.75c0,.24-31.21.44-69.7.44s-69.72-.2-69.72-.44,31.21-.45,69.72-.45S-2893.78-332-2893.78-331.75Z" transform="translate(3790.64 699.97)"></path><path class="cls-8" d="M-2950.88-320.78c0,.25-18.43.45-41.16.45s-41.16-.2-41.16-.45,18.43-.44,41.16-.44S-2950.88-321-2950.88-320.78Z" transform="translate(3790.64 699.97)"></path><rect class="cls-9" x="682.28" y="422.51" width="52.55" height="52.55"></rect><path class="cls-9" d="M-2954.71-271.81c0,.24-17.57.44-39.24.44s-39.25-.2-39.25-.44,17.57-.45,39.25-.45S-2954.71-272.06-2954.71-271.81Z" transform="translate(3790.64 699.97)"></path><path class="cls-8" d="M-2892.12-255.7c0,.24-31.58.44-70.53.44s-70.55-.2-70.55-.44,31.58-.45,70.55-.45S-2892.12-255.95-2892.12-255.7Z" transform="translate(3790.64 699.97)"></path><path class="cls-8" d="M-2893.78-244.2c0,.25-31.21.45-69.7.45s-69.72-.2-69.72-.45,31.21-.44,69.72-.44S-2893.78-244.44-2893.78-244.2Z" transform="translate(3790.64 699.97)"></path><path class="cls-8" d="M-2950.88-233.22c0,.24-18.43.44-41.16.44s-41.16-.2-41.16-.44,18.43-.45,41.16-.45S-2950.88-233.47-2950.88-233.22Z" transform="translate(3790.64 699.97)"></path><rect class="cls-7" x="682.28" y="510.06" width="52.55" height="52.55"></rect><path class="cls-7" d="M-2954.71-184.26c0,.25-17.57.45-39.24.45s-39.25-.2-39.25-.45,17.57-.44,39.25-.44S-2954.71-184.5-2954.71-184.26Z" transform="translate(3790.64 699.97)"></path><path class="cls-8" d="M-2892.12-168.15c0,.25-31.58.45-70.53.45s-70.55-.2-70.55-.45,31.58-.45,70.55-.45S-2892.12-168.4-2892.12-168.15Z" transform="translate(3790.64 699.97)"></path><path class="cls-8" d="M-2893.78-156.64c0,.24-31.21.44-69.7.44s-69.72-.2-69.72-.44,31.21-.45,69.72-.45S-2893.78-156.89-2893.78-156.64Z" transform="translate(3790.64 699.97)"></path><path class="cls-8" d="M-2950.88-145.67c0,.25-18.43.45-41.16.45s-41.16-.2-41.16-.45,18.43-.45,41.16-.45S-2950.88-145.92-2950.88-145.67Z" transform="translate(3790.64 699.97)"></path><rect class="cls-9" x="682.28" y="597.62" width="52.55" height="52.55"></rect><path class="cls-9" d="M-2954.71-96.7c0,.24-17.57.44-39.24.44s-39.25-.2-39.25-.44,17.57-.45,39.25-.45S-2954.71-96.95-2954.71-96.7Z" transform="translate(3790.64 699.97)"></path><path class="cls-8" d="M-2892.12-80.59c0,.24-31.58.44-70.53.44s-70.55-.2-70.55-.44,31.58-.45,70.55-.45S-2892.12-80.84-2892.12-80.59Z" transform="translate(3790.64 699.97)"></path><path class="cls-8" d="M-2893.78-69.09c0,.25-31.21.45-69.7.45s-69.72-.2-69.72-.45,31.21-.45,69.72-.45S-2893.78-69.34-2893.78-69.09Z" transform="translate(3790.64 699.97)"></path><path class="cls-8" d="M-2950.88-58.12c0,.25-18.43.45-41.16.45s-41.16-.2-41.16-.45,18.43-.44,41.16-.44S-2950.88-58.36-2950.88-58.12Z" transform="translate(3790.64 699.97)"></path><rect class="cls-6" x="682.28" y="685.17" width="52.55" height="52.55"></rect><path class="cls-6" d="M-2954.71-9.15c0,.25-17.57.45-39.24.45s-39.25-.2-39.25-.45,17.57-.45,39.25-.45S-2954.71-9.4-2954.71-9.15Z" transform="translate(3790.64 699.97)"></path><path class="cls-21" d="M-2892.12,7c0,.25-31.58.45-70.53.45s-70.55-.2-70.55-.45,31.58-.45,70.55-.45S-2892.12,6.71-2892.12,7Z" transform="translate(3790.64 699.97)"></path><path class="cls-21" d="M-2893.78,18.46c0,.25-31.21.45-69.7.45s-69.72-.2-69.72-.45S-3002,18-2963.48,18-2893.78,18.22-2893.78,18.46Z" transform="translate(3790.64 699.97)"></path><path class="cls-21" d="M-2950.88,29.44c0,.25-18.43.45-41.16.45s-41.16-.2-41.16-.45S-3014.77,29-2992,29-2950.88,29.19-2950.88,29.44Z" transform="translate(3790.64 699.97)"></path><rect class="cls-4" x="517.92" y="0.45" width="285.53" height="115.98"></rect><path class="cls-1" d="M-2987.18-583.54s0-.71,0-2.07,0-3.39,0-6c0-5.29,0-13.07-.08-23.08,0-20-.1-49-.17-84.81l.32.32-285.51.13h0l.45-.45c0,40.61,0,79.82,0,116l-.43-.43,204.72.2,59.39.12,15.89,0,4.12,0,1.41,0s-.45,0-1.36,0l-4.06,0-15.81.06-59.29.12-205,.2h-.44v-.43c0-36.16,0-75.37,0-116V-700h.48l285.51.13h.32v.32c-.07,35.92-.13,64.94-.17,85,0,10-.06,17.73-.08,23,0,2.61,0,4.6,0,6S-2987.18-583.54-2987.18-583.54Z" transform="translate(3790.64 699.97)"></path><path class="cls-1" d="M-3272.43-683.88c0-.25,63.82-.45,142.54-.45s142.54.2,142.54.45-63.81.45-142.54.45S-3272.43-683.63-3272.43-683.88Z" transform="translate(3790.64 699.97)"></path><g class="cls-19"><circle class="cls-1" cx="528.09" cy="9.1" r="2.07"></circle></g><g class="cls-19"><path class="cls-1" d="M-3253.37-690.88a2.08,2.08,0,0,1-2.08,2.08,2.08,2.08,0,0,1-2.07-2.08,2.07,2.07,0,0,1,2.07-2.07A2.08,2.08,0,0,1-3253.37-690.88Z" transform="translate(3790.64 699.97)"></path></g><g class="cls-19"><path class="cls-1" d="M-3246.38-690.88a2.07,2.07,0,0,1-2.07,2.08,2.08,2.08,0,0,1-2.07-2.08,2.07,2.07,0,0,1,2.07-2.07A2.07,2.07,0,0,1-3246.38-690.88Z" transform="translate(3790.64 699.97)"></path></g><rect class="cls-1" x="542.19" y="34.94" width="68.97" height="68.97"></rect><g class="cls-22"><rect class="cls-4" x="542.19" y="34.94" width="68.97" height="68.97"></rect></g><path class="cls-1" d="M-3006.94-646.55c0,.25-35.49.45-79.25.45s-79.27-.2-79.27-.45,35.48-.45,79.27-.45S-3006.94-646.8-3006.94-646.55Z" transform="translate(3790.64 699.97)"></path><path class="cls-1" d="M-3006.94-632.5c0,.25-35.49.45-79.25.45s-79.27-.2-79.27-.45,35.48-.45,79.27-.45S-3006.94-632.75-3006.94-632.5Z" transform="translate(3790.64 699.97)"></path><path class="cls-1" d="M-3063.41-618.45a4.75,4.75,0,0,1-1,.09l-3,.09-10.94.14-36.07.13-36.09-.13-10.93-.14-3-.09a4.75,4.75,0,0,1-1-.09,4.75,4.75,0,0,1,1-.09l3-.08,10.93-.15,36.09-.13,36.07.13,10.94.15,3,.08A4.75,4.75,0,0,1-3063.41-618.45Z" transform="translate(3790.64 699.97)"></path></g></svg>