<svg xmlns="http://www.w3.org/2000/svg" viewBox="0 0 834.87 834.42"><defs><style>.cls-1{fill:#1175af;}.cls-2{fill:#f4e38c;}.cls-3{fill:#f7d406;}.cls-4{fill:#f9e68c;}.cls-5{fill:#fff;}.cls-6{fill:#263238;}.cls-7{fill:#ec5e20;}.cls-8{fill:#e0e0e0;}.cls-9{opacity:0.3;}.cls-10,.cls-17{fill:#032d60;}.cls-11{fill:#ebebeb;}.cls-12{opacity:0.1;}.cls-13{fill:#f5f5f5;}.cls-14{fill:#ffbf9d;}.cls-15{fill:#ff9a6c;}.cls-16{fill:#455a64;}.cls-17{font-size:24px;font-family:Montserrat-Bold, Montserrat;font-weight:700;}.cls-18{letter-spacing:-0.01em;}.cls-19{letter-spacing:-0.01em;}.cls-20{letter-spacing:-0.01em;}.cls-21{letter-spacing:0em;}.cls-22{letter-spacing:0.01em;}.cls-23{letter-spacing:0.01em;}.cls-24{letter-spacing:0em;}</style></defs><g id="Table"><path class="cls-1" d="M-4397.75,1495c0,.28-181.07.5-404.37.5s-404.41-.22-404.41-.5,181-.5,404.41-.5S-4397.75,1494.75-4397.75,1495Z" transform="translate(5214.85 -661.1)"></path></g><g id="Background_Complete" data-name="Background Complete"><path class="cls-2" d="M-4510,1334.49a56.57,56.57,0,0,1,13.78-6l2.84-13.64,23.05-.41L-4467,1328a56.33,56.33,0,0,1,14,5.5l11.65-7.64,16.58,16-7.22,11.9a56.26,56.26,0,0,1,6,13.79l13.64,2.84.41,23-13.53,3.31a56.51,56.51,0,0,1-5.51,14l7.64,11.65-16,16.58-11.91-7.22a56.26,56.26,0,0,1-13.79,6l-2.84,13.64-23,.41-3.32-13.54a56.48,56.48,0,0,1-14-5.5l-11.64,7.64-16.59-16,7.22-11.91a56.64,56.64,0,0,1-6-13.79l-13.64-2.84-.41-23,13.54-3.32a56.48,56.48,0,0,1,5.5-14l-7.63-11.65,16-16.58,11.91,7.22Zm12.28,30.71a24.72,24.72,0,0,0,.62,35,24.73,24.73,0,0,0,35-.61,24.73,24.73,0,0,0-.62-35A24.73,24.73,0,0,0-4497.72,1365.2Z" transform="translate(5214.85 -661.1)"></path><path class="cls-2" d="M-4497.72,1365.2a18.78,18.78,0,0,1,4.61-4,24.65,24.65,0,0,1,16.13-3.81,25,25,0,0,1,11,3.9,25.15,25.15,0,0,1,8.86,10,23.45,23.45,0,0,1,2.25,6.94,23.64,23.64,0,0,1,.14,7.61,25.44,25.44,0,0,1-6.86,14.26,25.46,25.46,0,0,1-14,7.36,23.52,23.52,0,0,1-7.62.13,23.8,23.8,0,0,1-7-2,25.3,25.3,0,0,1-10.3-8.51,25,25,0,0,1-4.28-10.82,24.62,24.62,0,0,1,3.25-16.26,18.62,18.62,0,0,1,3.87-4.74c.14.11-1.49,1.62-3.39,5a24.61,24.61,0,0,0-2.74,15.83,24.23,24.23,0,0,0,4.25,10.3,24.36,24.36,0,0,0,9.87,8,22.67,22.67,0,0,0,6.66,1.85,22.64,22.64,0,0,0,7.2-.15,24.23,24.23,0,0,0,13.23-7,24.19,24.19,0,0,0,6.51-13.46,22.55,22.55,0,0,0-.1-7.2,22.47,22.47,0,0,0-2.09-6.59,24.24,24.24,0,0,0-8.34-9.58,24,24,0,0,0-10.43-3.88,24.64,24.64,0,0,0-15.73,3.28C-4496.15,1363.65-4497.6,1365.33-4497.72,1365.2Z" transform="translate(5214.85 -661.1)"></path><path class="cls-2" d="M-4510,1334.49a5.52,5.52,0,0,1-.77-.41l-2.29-1.32-9-5.3.28,0-15.92,16.67.05-.44c2.32,3.52,4.91,7.43,7.68,11.61l.14.21-.13.23a56.52,56.52,0,0,0-5.41,13.89l-.07.27-.27.07-13.52,3.36.38-.5c.14,7.25.3,15,.46,23l-.45-.53,13.65,2.81.35.07.09.34a56.45,56.45,0,0,0,5.95,13.63l.2.32-.2.31-7.2,11.92-.1-.78,16.6,16-.82-.07,11.64-7.65.35-.22.35.19a56,56,0,0,0,13.82,5.43l.4.1.1.4c1.05,4.24,2.18,8.86,3.33,13.53l-.69-.53,23.05-.41-.67.56c.89-4.31,1.86-9,2.83-13.64l.09-.42.41-.12a55.79,55.79,0,0,0,13.6-5.91h0l.37-.22.37.22,11.9,7.22-.87.11,16-16.58-.08.87-7.63-11.65-.23-.35.21-.37a56.39,56.39,0,0,0,5.44-13.81l.1-.4.4-.1,13.54-3.31-.52.67q-.19-11.81-.38-23l.52.63-13.64-2.86-.37-.08-.11-.37a56.06,56.06,0,0,0-5.9-13.64l-.19-.32.19-.31,7.24-11.9.09.73-16.55-16,.68.07-11.67,7.6-.26.17-.27-.15a56.31,56.31,0,0,0-13.85-5.49l-.27-.07-.07-.27c-1.19-4.92-2.26-9.36-3.27-13.55l.42.32-23.06.31.31-.26-2.93,13.63,0,.13-.13,0a58.44,58.44,0,0,0-10.54,4l-2.48,1.3a5.32,5.32,0,0,1-.82.42,6.32,6.32,0,0,1,.76-.52c.53-.33,1.33-.81,2.43-1.4a54.2,54.2,0,0,1,10.53-4.29l-.16.17,2.75-13.66,0-.24h.25l23.05-.51h.33l.09.32c1,4.19,2.13,8.61,3.36,13.53l-.34-.35a57,57,0,0,1,14.12,5.51l-.53,0,11.63-7.66.36-.24.32.3,16.61,16,.34.33-.24.4-7.2,11.92v-.63a56.93,56.93,0,0,1,6.07,13.93l-.48-.45,13.65,2.82.51.1v.53q.21,11.23.42,23v.54l-.52.13-13.53,3.33.5-.5a57,57,0,0,1-5.56,14.16l0-.72q3.78,5.76,7.64,11.64l.3.47-.39.41-16,16.58-.4.41-.48-.29-11.91-7.22h.72a57.39,57.39,0,0,1-13.94,6l.5-.53c-1,4.68-1.95,9.33-2.85,13.64l-.11.55h-.56l-23.05.39h-.56l-.13-.54c-1.14-4.67-2.27-9.29-3.31-13.53l.5.5a57.37,57.37,0,0,1-14.14-5.58l.69,0-11.65,7.62-.45.29-.37-.37-16.57-16-.36-.35.26-.43,7.24-11.9v.63a56.82,56.82,0,0,1-6-13.94l.44.42-13.63-2.87-.44-.09v-.45c-.12-8.08-.24-15.79-.35-23v-.4l.39-.1,13.55-3.28-.34.35a56.93,56.93,0,0,1,5.59-14.08v.43l-7.59-11.68-.15-.24.2-.21c6.56-6.71,12-12.26,16.1-16.49l.13-.13.15.1,8.78,5.45,2.25,1.44A6.05,6.05,0,0,1-4510,1334.49Z" transform="translate(5214.85 -661.1)"></path><path class="cls-2" d="M-5175,756.93a56.41,56.41,0,0,1,13.78-6l2.84-13.64,23.05-.4,3.31,13.53a56.33,56.33,0,0,1,14,5.5l11.65-7.64,16.58,16-7.22,11.91a56.19,56.19,0,0,1,6,13.78l13.64,2.84.41,23-13.53,3.32a56.44,56.44,0,0,1-5.51,14l7.64,11.65-16,16.58-11.91-7.22a56.26,56.26,0,0,1-13.79,6l-2.84,13.64-23,.41-3.32-13.53a56.51,56.51,0,0,1-14-5.51l-11.65,7.64-16.58-16,7.22-11.91a56.64,56.64,0,0,1-6-13.79l-13.64-2.83-.41-23,13.54-3.32a56.48,56.48,0,0,1,5.5-14l-7.64-11.65,16-16.58,11.91,7.22Zm12.28,30.71a24.72,24.72,0,0,0,.62,35,24.73,24.73,0,0,0,35-.61,24.73,24.73,0,0,0-.62-35A24.73,24.73,0,0,0-5162.73,787.64Z" transform="translate(5214.85 -661.1)"></path><path class="cls-2" d="M-5162.73,787.64a18.65,18.65,0,0,1,4.61-4,24.58,24.58,0,0,1,16.13-3.82,25,25,0,0,1,11,3.9,25.28,25.28,0,0,1,8.86,10,23.45,23.45,0,0,1,2.25,6.94,23.65,23.65,0,0,1,.14,7.61,25.44,25.44,0,0,1-6.86,14.26,25.48,25.48,0,0,1-14,7.37,24.1,24.1,0,0,1-7.62.13,24.12,24.12,0,0,1-7-2,25.3,25.3,0,0,1-10.3-8.51,24.92,24.92,0,0,1-4.28-10.82,24.62,24.62,0,0,1,3.25-16.26,18.62,18.62,0,0,1,3.87-4.74c.14.11-1.49,1.62-3.39,5a24.63,24.63,0,0,0-2.74,15.84,24.25,24.25,0,0,0,4.25,10.29,24.36,24.36,0,0,0,9.87,8,22.67,22.67,0,0,0,6.66,1.85,22.64,22.64,0,0,0,7.2-.15,24.17,24.17,0,0,0,13.23-7,24.19,24.19,0,0,0,6.51-13.45,22.61,22.61,0,0,0-.1-7.21,22.47,22.47,0,0,0-2.09-6.59,24.24,24.24,0,0,0-8.34-9.58,24,24,0,0,0-10.43-3.88,24.64,24.64,0,0,0-15.73,3.28C-5161.16,786.09-5162.61,787.77-5162.73,787.64Z" transform="translate(5214.85 -661.1)"></path><path class="cls-2" d="M-5175,756.93a4.63,4.63,0,0,1-.77-.4l-2.29-1.32-9-5.31.28,0-15.92,16.67.05-.44,7.68,11.62.14.2-.13.23a56.68,56.68,0,0,0-5.41,13.89l-.07.27-.27.07-13.53,3.36.39-.5c.14,7.26.3,15,.46,23l-.45-.53,13.65,2.81.35.07.09.34a56.29,56.29,0,0,0,5.95,13.63l.2.32-.2.32c-2.23,3.69-4.69,7.77-7.2,11.91l-.1-.78c5.21,5,10.84,10.44,16.6,16l-.82-.07,11.64-7.65.35-.22.35.2a56.38,56.38,0,0,0,13.82,5.42l.4.1.1.4c1.05,4.24,2.18,8.86,3.33,13.53l-.69-.53,23.05-.41-.67.56c.89-4.31,1.86-9,2.83-13.64l.09-.42.41-.12a55.79,55.79,0,0,0,13.6-5.91h0l.37-.22.37.22,11.9,7.22-.87.11,16-16.58-.08.87-7.63-11.65-.23-.35.21-.37a56.23,56.23,0,0,0,5.44-13.81l.1-.4.4-.1,13.54-3.31-.52.67q-.19-11.8-.38-23l.52.63-13.64-2.86-.37-.08-.11-.37a56.06,56.06,0,0,0-5.9-13.64l-.19-.32.19-.31,7.24-11.9.09.73-16.55-16,.68.06-11.67,7.6-.26.17-.27-.15a56.31,56.31,0,0,0-13.85-5.49l-.27-.07-.07-.27-3.27-13.54.41.31-23.05.31.31-.26L-5161,751l0,.13-.13,0a58.3,58.3,0,0,0-10.54,4.06l-2.48,1.29a5.32,5.32,0,0,1-.82.42,6.32,6.32,0,0,1,.76-.52c.53-.33,1.33-.81,2.43-1.4a54.85,54.85,0,0,1,10.53-4.29l-.16.18,2.75-13.67.05-.24h.25l23-.5h.33l.09.33c1,4.18,2.13,8.6,3.36,13.52l-.34-.34a57,57,0,0,1,14.12,5.51h-.53l11.63-7.66.36-.24.32.3,16.61,16,.34.33-.24.4-7.2,11.92v-.63a57.09,57.09,0,0,1,6.07,13.93l-.48-.45,13.65,2.82.51.11v.52q.21,11.24.42,23v.53l-.52.13-13.53,3.33.5-.5a57,57,0,0,1-5.56,14.16l0-.72q3.78,5.76,7.64,11.64l.3.47-.39.41-16,16.59-.4.4-.48-.29-11.91-7.22h.72a57,57,0,0,1-13.94,6l.5-.53c-1,4.68-2,9.33-2.85,13.64l-.11.55h-.56l-23.05.39h-.56l-.13-.54c-1.14-4.67-2.27-9.29-3.31-13.53l.5.5a57.37,57.37,0,0,1-14.14-5.58l.69,0-11.65,7.62-.45.29-.37-.37c-5.76-5.56-11.37-11-16.57-16l-.36-.35.26-.43,7.24-11.9v.63a56.82,56.82,0,0,1-6-13.94l.44.42-13.63-2.87-.44-.09v-.45c-.12-8.08-.24-15.79-.35-23v-.41l.39-.09,13.55-3.28-.34.34a57.09,57.09,0,0,1,5.59-14.08v.43l-7.59-11.68-.15-.24.2-.2,16.1-16.5.13-.13.15.1L-5178,755l2.25,1.43A7.76,7.76,0,0,1-5175,756.93Z" transform="translate(5214.85 -661.1)"></path><path class="cls-2" d="M-4435.61,1260.72a30.2,30.2,0,0,1,7.3-3.17l1.51-7.23,12.21-.21,1.76,7.17a30.05,30.05,0,0,1,7.41,2.91l6.17-4,8.79,8.48-3.83,6.31a29.44,29.44,0,0,1,3.17,7.3l7.23,1.51.22,12.21-7.17,1.76a29.69,29.69,0,0,1-2.92,7.41l4.05,6.17-8.49,8.79-6.31-3.83a29.65,29.65,0,0,1-7.3,3.17l-1.5,7.23-12.22.22-1.75-7.17a29.93,29.93,0,0,1-7.41-2.92l-6.18,4-8.78-8.49,3.82-6.31a30,30,0,0,1-3.17-7.3l-7.23-1.5-.21-12.22,7.17-1.75a29.9,29.9,0,0,1,2.91-7.41l-4-6.17,8.48-8.79,6.31,3.82Zm6.51,16.27a13.11,13.11,0,0,0,.33,18.53,13.09,13.09,0,0,0,18.52-.33,13.09,13.09,0,0,0-.32-18.52A13.11,13.11,0,0,0-4429.1,1277Z" transform="translate(5214.85 -661.1)"></path><path class="cls-2" d="M-5119.61,671.72a29.75,29.75,0,0,1,7.31-3.18l1.5-7.22,12.21-.22,1.76,7.17a29.69,29.69,0,0,1,7.41,2.92l6.17-4.05,8.79,8.49-3.83,6.3a29.75,29.75,0,0,1,3.18,7.31l7.22,1.5.22,12.21-7.17,1.76a29.69,29.69,0,0,1-2.92,7.41l4.05,6.17-8.49,8.79-6.3-3.82a30.1,30.1,0,0,1-7.31,3.17l-1.5,7.23-12.21.21-1.76-7.17a30.05,30.05,0,0,1-7.41-2.91l-6.17,4-8.79-8.48,3.82-6.31a30.1,30.1,0,0,1-3.17-7.31l-7.23-1.5-.21-12.21,7.17-1.76a30.05,30.05,0,0,1,2.91-7.41l-4-6.17,8.48-8.79,6.31,3.83Zm6.51,16.27a13.1,13.1,0,0,0,.33,18.52,13.11,13.11,0,0,0,18.53-.32,13.11,13.11,0,0,0-.33-18.53A13.1,13.1,0,0,0-5113.1,688Z" transform="translate(5214.85 -661.1)"></path><path class="cls-2" d="M-4429.1,1277a10.16,10.16,0,0,1,2.44-2.14,13,13,0,0,1,8.55-2,13.21,13.21,0,0,1,5.81,2.06,13.52,13.52,0,0,1,4.7,5.3,12.81,12.81,0,0,1,1.19,3.68,12.64,12.64,0,0,1,.07,4,13.45,13.45,0,0,1-3.63,7.55,13.49,13.49,0,0,1-7.43,3.91,12.69,12.69,0,0,1-4,.06,12.47,12.47,0,0,1-3.72-1.06,13.43,13.43,0,0,1-5.46-4.51,13.28,13.28,0,0,1-2.26-5.73,13,13,0,0,1,1.72-8.61,9.88,9.88,0,0,1,2-2.52c.07.06-.79.86-1.8,2.66a13.13,13.13,0,0,0-1.45,8.39,12.88,12.88,0,0,0,2.25,5.45,12.91,12.91,0,0,0,5.23,4.24,11.92,11.92,0,0,0,3.53,1,11.69,11.69,0,0,0,3.82-.08,12.82,12.82,0,0,0,7-3.7,12.82,12.82,0,0,0,3.44-7.13,11.92,11.92,0,0,0-.05-3.82,12.37,12.37,0,0,0-1.1-3.49,12.94,12.94,0,0,0-4.42-5.08,12.8,12.8,0,0,0-5.53-2.05,13,13,0,0,0-8.33,1.74A31.86,31.86,0,0,0-4429.1,1277Z" transform="translate(5214.85 -661.1)"></path><path class="cls-2" d="M-4435.61,1260.72l-.41-.21-1.21-.7L-4442,1257l.15,0-8.44,8.84,0-.24,4.07,6.16.07.11-.06.11a29.93,29.93,0,0,0-2.87,7.37l0,.14-.14,0-7.17,1.77.21-.26c.07,3.85.15,7.93.24,12.21l-.24-.28,7.23,1.49.19,0,.05.19a30,30,0,0,0,3.15,7.22l.1.16-.1.17-3.82,6.32-.05-.42,8.8,8.48-.44,0,6.17-4,.18-.12.19.11a29.54,29.54,0,0,0,7.32,2.87l.22.06,0,.21c.55,2.25,1.15,4.7,1.76,7.17l-.36-.28,12.21-.22-.36.3c.48-2.29,1-4.75,1.5-7.23l.05-.22.22-.07a29.63,29.63,0,0,0,7.2-3.13h0l.2-.12.19.12,6.31,3.83-.47.06,8.49-8.79,0,.46c-1.37-2.07-2.71-4.13-4-6.17l-.12-.19.11-.19a29.35,29.35,0,0,0,2.88-7.32l.06-.21.21-.05,7.17-1.76-.27.36q-.11-6.26-.2-12.21l.27.33-7.22-1.52-.2,0-.06-.19a29.62,29.62,0,0,0-3.13-7.23l-.1-.17.1-.17,3.84-6.3,0,.39-8.77-8.5.36,0-6.18,4-.14.09-.14-.08a29.51,29.51,0,0,0-7.34-2.91l-.15,0,0-.14c-.63-2.61-1.2-5-1.74-7.18l.22.17-12.21.16.16-.13c-.62,2.88-1.12,5.24-1.55,7.22v.07l-.07,0a31.43,31.43,0,0,0-5.59,2.14l-1.31.69-.44.22.41-.27c.28-.17.7-.43,1.29-.74a28.52,28.52,0,0,1,5.57-2.28l-.08.1c.39-2,.87-4.35,1.45-7.24l0-.13h.14l12.21-.26h.17l.05.18c.55,2.21,1.13,4.56,1.78,7.16l-.18-.18a30.2,30.2,0,0,1,7.48,2.92h-.28l6.16-4.06.19-.13.17.16,8.8,8.47.18.17-.13.21-3.81,6.32v-.34a30.74,30.74,0,0,1,3.22,7.38l-.26-.23,7.23,1.49.27.06v.27c.07,4,.15,8,.22,12.21v.29l-.28.07-7.17,1.76.27-.26a30.55,30.55,0,0,1-2.95,7.5v-.38q2,3,4.05,6.17l.16.24-.21.22-8.48,8.79-.2.21-.26-.15-6.31-3.83h.38a30.63,30.63,0,0,1-7.39,3.21l.27-.29c-.52,2.48-1,5-1.51,7.23l-.06.29h-.3l-12.21.21h-.29l-.07-.29c-.61-2.47-1.21-4.92-1.76-7.17l.27.27a30.32,30.32,0,0,1-7.5-3h.37l-6.17,4-.24.15-.2-.19-8.77-8.5-.2-.18.14-.23,3.84-6.3v.33a30.41,30.41,0,0,1-3.2-7.38l.24.21-7.23-1.51-.23,0v-.24c-.07-4.28-.13-8.37-.19-12.21v-.22l.2,0,7.18-1.73-.18.18a30.41,30.41,0,0,1,3-7.46v.23l-4-6.19-.08-.13.1-.11,8.53-8.74.07-.06.08,0,4.65,2.89,1.2.76A3.22,3.22,0,0,1-4435.61,1260.72Z" transform="translate(5214.85 -661.1)"></path><path class="cls-2" d="M-4652.63,1362.13c9.89-4.62,21.53-5.22,32.51-3.58,5.89.89,12,2.49,16.06,6.5s4.77,11.07.16,14.52c-2.74,2-6.57,2.36-10.12,2.32-8.6-.09-18.13-1.46-25,3.23-3.92,2.67-6.52,7.11-11.21,8.42s-9.75-1.16-12.18-4.91-2.51-8.42-1.38-12.64A19.31,19.31,0,0,1-4652.63,1362.13Z" transform="translate(5214.85 -661.1)"></path><path class="cls-2" d="M-4675.29,1322.53c6.05,7.82,17.8,5.23,23.25.45s7.75-11.69,9.85-18.29c4.79-15.07,9.62-30.89,6.06-46.24-1.07-4.59-3-9.16-6.53-12.57s-9-5.43-14-4.23c-5.92,1.42-9.61,6.67-12.27,11.67a101.9,101.9,0,0,0-12,47.31c0,7.61,1,15.61,5.71,21.9" transform="translate(5214.85 -661.1)"></path><path class="cls-2" d="M-4691.89,1333.75c6.56-7.06,7.81-17.35,4.89-26.19s-9.52-16.36-17.13-22.5a94.73,94.73,0,0,0-30.67-16.39c-4.43-1.41-9.11-2.52-13.79-2.12s-9.39,2.57-11.57,6.34c-3.23,5.58-.14,12.34,3.21,17.86a212.14,212.14,0,0,0,20.14,27.78c6,7,13,14,22.16,17.19s18.76,2.81,23.64-3" transform="translate(5214.85 -661.1)"></path><path class="cls-3" d="M-4675.7,1440.5a14.89,14.89,0,0,0,.55-3.55c.28-2.59.63-5.83,1-9.7a128.16,128.16,0,0,1,2.41-14.22,102,102,0,0,1,5.71-16.79,60.7,60.7,0,0,1,9.47-15.2,34.8,34.8,0,0,1,12-9,35.92,35.92,0,0,1,10.08-2.84,20.49,20.49,0,0,0,3.9-.51,20.27,20.27,0,0,0-4-.06,33.26,33.26,0,0,0-10.51,2.48,34.93,34.93,0,0,0-12.63,9.09,59.4,59.4,0,0,0-9.81,15.5,95.43,95.43,0,0,0-5.67,17.06,109.91,109.91,0,0,0-2.09,14.41c-.34,4.12-.47,7.45-.53,9.76A14.91,14.91,0,0,0-4675.7,1440.5Z" transform="translate(5214.85 -661.1)"></path><path class="cls-3" d="M-4675,1433a6.25,6.25,0,0,0,.11-1.65c0-1.24,0-2.8,0-4.71,0-4.1,0-10,.24-17.33.4-14.63,1.79-30.37,4.47-52.56,2.54-20.87,6-45.15,9.56-60.94.77-3.59,1.55-6.82,2.28-9.65s1.3-5.29,1.87-7.26.9-3.38,1.22-4.59a6.76,6.76,0,0,0,.32-1.62,6.36,6.36,0,0,0-.63,1.54l-1.52,4.52c-.67,2-1.35,4.39-2.14,7.21s-1.67,6-2.52,9.63a489.42,489.42,0,0,0-10.05,56.55,530.38,530.38,0,0,0-4,57.15c-.1,7.33.08,13.27.28,17.36.13,1.92.24,3.48.32,4.71A6.72,6.72,0,0,0-4675,1433Z" transform="translate(5214.85 -661.1)"></path><path class="cls-3" d="M-4674.85,1394a29.12,29.12,0,0,0,0-4.93,125,125,0,0,0-1.66-13.34,163.35,163.35,0,0,0-4.8-19.45,148.94,148.94,0,0,0-9-23c-7.45-16-17.57-29.08-26.37-37.18a64.24,64.24,0,0,0-6.2-5.22c-1-.73-1.8-1.45-2.65-2l-2.41-1.5a36.09,36.09,0,0,0-4.58-2.66c-.26.32,6.49,3.92,15,12.13s18.32,21.18,25.71,37a171.15,171.15,0,0,1,9,22.79,183.82,183.82,0,0,1,5.1,19.25c1.12,5.55,1.77,10.08,2.16,13.22A29.89,29.89,0,0,0-4674.85,1394Z" transform="translate(5214.85 -661.1)"></path><polygon class="cls-3" points="494.31 761.88 498.63 815.49 574.68 815.49 579 761.88 494.31 761.88"></polygon><rect class="cls-3" x="486.97" y="740.74" width="101.11" height="21.13"></rect><polygon class="cls-2" points="486.96 813.44 486.96 819.29 491.72 819.29 586.41 819.29 586.41 813.44 486.96 813.44"></polygon><polygon class="cls-3" points="496.37 829.6 491.72 819.29 582.78 819.29 577.35 829.6 496.37 829.6"></polygon><path class="cls-4" d="M-4637.26,1440.5a2,2,0,0,1-.35.49l-1.14,1.37-4.43,5.13-.19.23-.19-.24-10.89-13.63h.63l-10.72,13.74-.33.43-.38-.41-12.71-13.69h.73l-.7.8-11.36,12.9-.38.43-.35-.45-10.72-13.74.62,0-13.2,13.63-.23.24-.18-.28-4.14-6.29-1.06-1.67a2.54,2.54,0,0,1-.32-.6,2.77,2.77,0,0,1,.44.53l1.18,1.61c1.05,1.51,2.51,3.58,4.34,6.18l-.42,0c3.39-3.59,7.8-8.27,13-13.79l.33-.35.3.38,10.82,13.67h-.73l11.33-12.93.7-.79.36-.41.38.4,12.67,13.72-.71,0,10.82-13.68.32-.4.31.4c4.28,5.55,7.93,10.26,10.65,13.78h-.38l4.6-5,1.24-1.29A2.75,2.75,0,0,1-4637.26,1440.5Z" transform="translate(5214.85 -661.1)"></path><path class="cls-4" d="M-4634.79,1422.62c0,.24-19.05.43-42.55.43s-42.56-.19-42.56-.43,19-.43,42.56-.43S-4634.79,1422.39-4634.79,1422.62Z" transform="translate(5214.85 -661.1)"></path><path class="cls-4" d="M-4630.94,1481c0,.24-20.71.43-46.25.43s-46.26-.19-46.26-.43,20.71-.43,46.26-.43S-4630.94,1480.74-4630.94,1481Z" transform="translate(5214.85 -661.1)"></path><rect class="cls-3" x="360.59" y="464.33" width="91.02" height="91.02" rx="9.61"></rect><path class="cls-5" d="M-4828.89,1193.11a2,2,0,0,1-1.43-.6,2,2,0,0,1,0-2.85l10.82-10.82a18.64,18.64,0,0,1,1.34-24.65,18.41,18.41,0,0,1,13.09-5.42,18.41,18.41,0,0,1,13.08,5.42,18.52,18.52,0,0,1,0,26.16,18.37,18.37,0,0,1-13.08,5.42,18.22,18.22,0,0,1-11.57-4.07l-10.82,10.81A2,2,0,0,1-4828.89,1193.11Zm23.82-40.29a14.36,14.36,0,0,0-10.23,4.23,14.39,14.39,0,0,0-4.22,10.22,14.35,14.35,0,0,0,4.22,10.22,14.37,14.37,0,0,0,10.23,4.24,14.37,14.37,0,0,0,10.22-4.24,14.35,14.35,0,0,0,4.22-10.22,14.39,14.39,0,0,0-4.22-10.22A14.36,14.36,0,0,0-4805.07,1152.82Z" transform="translate(5214.85 -661.1)"></path><rect class="cls-3" x="741.81" y="64.18" width="86.38" height="86.38" rx="10.38"></rect><path class="cls-5" d="M-4426.3,783.43a3.64,3.64,0,0,1-3.66,3.62,3.64,3.64,0,0,1-3.62-3.66,3.63,3.63,0,0,1,3.65-3.62A3.65,3.65,0,0,1-4426.3,783.43Z" transform="translate(5214.85 -661.1)"></path><path class="cls-5" d="M-4437.22,778.75a10.09,10.09,0,0,1,14.6-.2c1.85,1.88,4.76-1,2.91-2.88a14.23,14.23,0,0,0-20.39.17c-1.82,1.91,1.06,4.82,2.88,2.91Z" transform="translate(5214.85 -661.1)"></path><path class="cls-5" d="M-4449.58,761.8C-4444,757-4437.44,754-4430,754a29,29,0,0,1,19.94,7.63c1.92,1.8,4.83-1.08,2.91-2.89a33.26,33.26,0,0,0-22.83-8.84c-8.52,0-16.08,3.5-22.45,9-2,1.73.9,4.63,2.89,2.91Z" transform="translate(5214.85 -661.1)"></path><path class="cls-5" d="M-4444.7,771.19a20.45,20.45,0,0,1,14.4-6.65,20.45,20.45,0,0,1,15,6.23c1.84,1.89,4.75-1,2.91-2.88a24.52,24.52,0,0,0-17.92-7.44,24.58,24.58,0,0,0-17.31,7.83c-1.78,1.93,1.09,4.85,2.89,2.91Z" transform="translate(5214.85 -661.1)"></path></g><g id="Icons"><path class="cls-1" d="M-4544.69,1101.93c.28,0,.5,9.68.5,21.62s-.22,21.62-.5,21.62-.5-9.68-.5-21.62S-4545,1101.93-4544.69,1101.93Z" transform="translate(5214.85 -661.1)"></path><path class="cls-1" d="M-4707.36,871.24c-.28,0-.5-16.13-.5-36s.22-36,.5-36,.5,16.12.5,36S-4707.08,871.24-4707.36,871.24Z" transform="translate(5214.85 -661.1)"></path><path class="cls-6" d="M-4763,956.64a7,7,0,0,1-1.33.1l-3.81.09-14,.16-46.26.15h-6.69a25,25,0,0,1-3.33-.12,11.71,11.71,0,0,1-3.22-.93,15,15,0,0,1-7.94-9.4,19,19,0,0,1-.83-5.77q0-2.77.06-5.4c.05-3.47.09-6.71.13-9.68.1-5.83.19-10.59.25-14,.05-1.57.09-2.83.12-3.81a7.35,7.35,0,0,1,.11-1.33,5.76,5.76,0,0,1,.09,1.33c0,1,0,2.24.07,3.82,0,3.42,0,8.18.06,14v9.68c.09,3.48-.4,7.26.82,10.88a14.06,14.06,0,0,0,7.46,8.78,10.64,10.64,0,0,0,2.95.85,23.85,23.85,0,0,0,3.2.11h6.69l46.26.14,14,.16,3.81.1A6,6,0,0,1-4763,956.64Z" transform="translate(5214.85 -661.1)"></path><rect class="cls-5" x="445.65" y="20.66" width="117.03" height="117.03" rx="19.94"></rect><path class="cls-1" d="M-4672.11,798.79a38,38,0,0,0,4.35-.6,19.81,19.81,0,0,0,10.53-6.4,19,19,0,0,0,4.15-7.93c.92-3.19.58-6.85.63-10.75,0-7.8-.05-16.68-.08-26.48s0-20.57-.06-32.11c0-2.88,0-5.82,0-8.8s.16-6-.66-8.91a19.46,19.46,0,0,0-11.89-13.28,19.27,19.27,0,0,0-4.63-1.15,43.7,43.7,0,0,0-4.89-.15h-74.58a19.57,19.57,0,0,0-10.32,3,18.7,18.7,0,0,0-4.11,3.46,18.1,18.1,0,0,0-3,4.41,19.33,19.33,0,0,0-1.68,5,28.28,28.28,0,0,0-.35,5.3V714.1c0,14.13,0,27.75,0,40.73q0,9.72,0,19c.05,3.08-.21,6.12.38,9a19.59,19.59,0,0,0,3.52,7.79,19.41,19.41,0,0,0,13.85,7.76c5.28.19,10.48.07,15.37.13l46.48.15,12.64.1,3.29,0c.74,0,1.12,0,1.12,0s-.38,0-1.12.05l-3.29,0-12.64.09-46.48.16c-4.92,0-10,.12-15.44-.06a20.22,20.22,0,0,1-14.45-8,20.6,20.6,0,0,1-3.69-8.12c-.62-3-.35-6.09-.42-9.14q0-9.22,0-19c0-13,0-26.6,0-40.73V703.42a28.29,28.29,0,0,1,.35-5.48,20.28,20.28,0,0,1,1.77-5.28,19.14,19.14,0,0,1,3.15-4.63,19.29,19.29,0,0,1,4.32-3.63,20.59,20.59,0,0,1,10.85-3.14h43.71l20.79,0h10.08a44.29,44.29,0,0,1,5,.17,19.59,19.59,0,0,1,4.85,1.21,20.34,20.34,0,0,1,12.41,13.92c.85,3.06.64,6.19.66,9.13s0,5.92,0,8.8c0,11.54,0,22.29-.06,32.11s-.05,18.68-.07,26.48c-.07,3.87.24,7.58-.73,10.87a19.56,19.56,0,0,1-4.31,8.07,19.82,19.82,0,0,1-10.79,6.34,17.1,17.1,0,0,1-3.27.39C-4671.73,798.8-4672.11,798.79-4672.11,798.79Z" transform="translate(5214.85 -661.1)"></path><rect class="cls-5" x="590.14" y="60.83" width="117.03" height="117.03" rx="19.94"></rect><path class="cls-1" d="M-4527.62,839a37.74,37.74,0,0,0,4.34-.6,19.8,19.8,0,0,0,10.54-6.4,19.09,19.09,0,0,0,4.15-7.93c.92-3.19.58-6.85.63-10.75,0-7.8-.05-16.68-.08-26.49s0-20.56-.06-32.1c0-2.88,0-5.82,0-8.8s.16-6-.66-8.92a19.45,19.45,0,0,0-11.9-13.28,19.05,19.05,0,0,0-4.62-1.14,41.44,41.44,0,0,0-4.89-.15h-74.58a19.57,19.57,0,0,0-10.32,3,18.65,18.65,0,0,0-4.11,3.45,18.49,18.49,0,0,0-3,4.41,18.79,18.79,0,0,0-1.68,5,27.36,27.36,0,0,0-.35,5.3v10.68c0,14.12,0,27.74,0,40.72q0,9.74,0,19c.05,3.07-.21,6.12.38,9a19.71,19.71,0,0,0,3.51,7.79,19.43,19.43,0,0,0,13.86,7.76c5.28.19,10.47.07,15.37.12l46.48.16,12.64.1,3.29,0c.74,0,1.12.06,1.12.06s-.38,0-1.12,0l-3.29,0-12.64.09-46.48.16c-4.93,0-10,.11-15.44-.06a20.2,20.2,0,0,1-14.45-8,20.62,20.62,0,0,1-3.69-8.11c-.62-3-.36-6.09-.42-9.14q0-9.23,0-19c0-13,0-26.6,0-40.72V743.59a28.24,28.24,0,0,1,.35-5.48,19.91,19.91,0,0,1,1.77-5.28,19.14,19.14,0,0,1,3.15-4.63,19.6,19.6,0,0,1,4.32-3.64,20.58,20.58,0,0,1,10.85-3.13h74.58a44.26,44.26,0,0,1,5,.16,19.85,19.85,0,0,1,4.84,1.21,20.33,20.33,0,0,1,12.42,13.92c.85,3.07.64,6.19.66,9.14s0,5.92,0,8.8c0,11.54,0,22.29-.06,32.1s-.05,18.69-.08,26.49c-.07,3.87.25,7.58-.72,10.87a19.45,19.45,0,0,1-4.31,8.06,19.85,19.85,0,0,1-10.79,6.35,18,18,0,0,1-3.27.39C-4527.25,839-4527.62,839-4527.62,839Z" transform="translate(5214.85 -661.1)"></path><rect class="cls-5" x="717.41" y="202.14" width="117.03" height="117.03" rx="19.94"></rect><path class="cls-1" d="M-4400.35,980.27a37.7,37.7,0,0,0,4.35-.6,19.8,19.8,0,0,0,10.54-6.4,19.14,19.14,0,0,0,4.14-7.93c.92-3.19.59-6.85.63-10.75,0-7.8-.05-16.68-.07-26.48s0-20.57-.06-32.11c0-2.88,0-5.82,0-8.8s.16-6-.65-8.91a19.48,19.48,0,0,0-11.9-13.28,18.7,18.7,0,0,0-4.63-1.15,41.44,41.44,0,0,0-4.89-.15h-74.58a19.59,19.59,0,0,0-10.32,3,18.7,18.7,0,0,0-4.11,3.46,18.19,18.19,0,0,0-3,4.4,19.17,19.17,0,0,0-1.69,5,27.46,27.46,0,0,0-.34,5.3q0,5.39,0,10.68c0,14.12,0,27.75,0,40.72q0,9.74,0,19c.06,3.08-.2,6.12.38,9a19.73,19.73,0,0,0,3.52,7.79,19.41,19.41,0,0,0,13.85,7.76c5.29.19,10.48.07,15.37.12l46.49.16,12.63.1,3.29.05c.74,0,1.12,0,1.12,0s-.38,0-1.12.05l-3.29,0-12.63.09-46.49.16c-4.92,0-10,.11-15.44-.06a20.2,20.2,0,0,1-14.44-8,20.46,20.46,0,0,1-3.69-8.12c-.63-3-.36-6.09-.43-9.14q0-9.22,0-19c0-13,0-26.6,0-40.72V884.9a28.31,28.31,0,0,1,.36-5.48,20.25,20.25,0,0,1,1.76-5.28,19.43,19.43,0,0,1,3.15-4.63,19.29,19.29,0,0,1,4.32-3.63,20.59,20.59,0,0,1,10.85-3.14h74.58a44.21,44.21,0,0,1,5,.17,19.59,19.59,0,0,1,4.85,1.21,20.36,20.36,0,0,1,12.42,13.92c.84,3.06.63,6.19.66,9.13s0,5.92,0,8.8c0,11.54,0,22.29-.06,32.11s0,18.68-.07,26.48c-.07,3.87.24,7.58-.73,10.87a19.56,19.56,0,0,1-4.31,8.07,19.82,19.82,0,0,1-10.79,6.34,17.77,17.77,0,0,1-3.27.39C-4400,980.28-4400.35,980.27-4400.35,980.27Z" transform="translate(5214.85 -661.1)"></path><rect class="cls-5" x="285.91" y="119.34" width="117.03" height="117.03" rx="19.94"></rect><path class="cls-1" d="M-4831.85,897.47a38,38,0,0,0,4.35-.6,19.81,19.81,0,0,0,10.53-6.4,19,19,0,0,0,4.15-7.93c.92-3.19.58-6.85.63-10.75,0-7.8-.05-16.68-.08-26.48s0-20.57-.06-32.11c0-2.88,0-5.82,0-8.8s.16-6-.66-8.91a19.46,19.46,0,0,0-11.89-13.28,19.27,19.27,0,0,0-4.63-1.15,43.7,43.7,0,0,0-4.89-.15H-4909a19.57,19.57,0,0,0-10.32,3,18.7,18.7,0,0,0-4.11,3.46,18.1,18.1,0,0,0-3,4.41,19,19,0,0,0-1.68,5,28.28,28.28,0,0,0-.35,5.3v10.68c0,14.13,0,27.75,0,40.73q0,9.72,0,19c.05,3.08-.21,6.12.38,9a19.59,19.59,0,0,0,3.52,7.79,19.41,19.41,0,0,0,13.85,7.76c5.28.19,10.48.07,15.37.13l46.48.15,12.64.1,3.29,0c.74,0,1.12.05,1.12.05s-.38,0-1.12,0l-3.29.05-12.64.09-46.48.16c-4.92,0-10,.12-15.44-.06a20.22,20.22,0,0,1-14.45-8,20.6,20.6,0,0,1-3.69-8.12c-.62-3-.35-6.09-.42-9.14q0-9.22,0-19c0-13,0-26.6,0-40.73V802.1a28.29,28.29,0,0,1,.35-5.48,20.28,20.28,0,0,1,1.77-5.28,19.14,19.14,0,0,1,3.15-4.63,19.29,19.29,0,0,1,4.32-3.63,20.59,20.59,0,0,1,10.85-3.14h43.71l20.79,0h10.08a44.29,44.29,0,0,1,5,.17,19.59,19.59,0,0,1,4.85,1.21,20.34,20.34,0,0,1,12.41,13.92c.85,3.06.64,6.19.66,9.13s0,5.92,0,8.8c0,11.54,0,22.29-.06,32.11s0,18.68-.07,26.48c-.07,3.87.24,7.58-.73,10.87a19.56,19.56,0,0,1-4.31,8.07,19.82,19.82,0,0,1-10.79,6.34,17.1,17.1,0,0,1-3.27.39C-4831.47,897.48-4831.85,897.47-4831.85,897.47Z" transform="translate(5214.85 -661.1)"></path><path class="cls-6" d="M-4494.72,924.13c0,.28-13.28.5-29.66.5s-29.67-.22-29.67-.5,13.28-.5,29.67-.5S-4494.72,923.85-4494.72,924.13Z" transform="translate(5214.85 -661.1)"></path><rect class="cls-7" x="304.56" y="201.16" width="14.77" height="11.31"></rect><rect class="cls-7" x="323.25" y="175.09" width="14.77" height="37.38"></rect><rect class="cls-7" x="343.78" y="191.18" width="14.77" height="21.29"></rect><rect class="cls-7" x="363.39" y="164.24" width="14.77" height="48.22"></rect><path class="cls-7" d="M-4903.9,850.62a7.36,7.36,0,0,1-7.35-7.35,7.36,7.36,0,0,1,7.35-7.35,7.36,7.36,0,0,1,7.35,7.35A7.36,7.36,0,0,1-4903.9,850.62Zm0-12.78a5.44,5.44,0,0,0-5.43,5.43,5.44,5.44,0,0,0,5.43,5.43,5.44,5.44,0,0,0,5.43-5.43A5.43,5.43,0,0,0-4903.9,837.84Z" transform="translate(5214.85 -661.1)"></path><path class="cls-7" d="M-4882.77,822.65a7.36,7.36,0,0,1-7.35-7.35,7.36,7.36,0,0,1,7.35-7.35,7.36,7.36,0,0,1,7.35,7.35A7.36,7.36,0,0,1-4882.77,822.65Zm0-12.78a5.44,5.44,0,0,0-5.43,5.43,5.43,5.43,0,0,0,5.43,5.43,5.44,5.44,0,0,0,5.43-5.43A5.44,5.44,0,0,0-4882.77,809.87Z" transform="translate(5214.85 -661.1)"></path><path class="cls-7" d="M-4863.67,840.36A7.36,7.36,0,0,1-4871,833a7.36,7.36,0,0,1,7.35-7.35,7.36,7.36,0,0,1,7.35,7.35A7.36,7.36,0,0,1-4863.67,840.36Zm0-12.78a5.44,5.44,0,0,0-5.43,5.43,5.44,5.44,0,0,0,5.43,5.43,5.43,5.43,0,0,0,5.43-5.43A5.44,5.44,0,0,0-4863.67,827.58Z" transform="translate(5214.85 -661.1)"></path><path class="cls-7" d="M-4843.25,814.69a7.36,7.36,0,0,1-7.35-7.35,7.35,7.35,0,0,1,7.35-7.35,7.36,7.36,0,0,1,7.35,7.35A7.36,7.36,0,0,1-4843.25,814.69Zm0-12.78a5.43,5.43,0,0,0-5.43,5.43,5.44,5.44,0,0,0,5.43,5.43,5.44,5.44,0,0,0,5.43-5.43A5.44,5.44,0,0,0-4843.25,801.91Z" transform="translate(5214.85 -661.1)"></path><rect class="cls-7" x="-4863.84" y="819.48" width="20.63" height="1.92" transform="translate(2480.95 -4283.3) rotate(-54.9)"></rect><rect class="cls-7" x="-4874.31" y="818.63" width="1.92" height="13.06" transform="translate(3293.04 -3800.64) rotate(-43.72)"></rect><rect class="cls-7" x="-4904.56" y="828.41" width="21.71" height="1.92" transform="translate(2666.97 -4205.89) rotate(-52.18)"></rect><path class="cls-6" d="M-4842,898.85a5.6,5.6,0,0,1-5.6,5.59,5.59,5.59,0,0,1-5.59-5.59,5.6,5.6,0,0,1,5.59-5.6A5.6,5.6,0,0,1-4842,898.85Z" transform="translate(5214.85 -661.1)"></path><path class="cls-6" d="M-4701.86,798.79a5.6,5.6,0,0,1-5.6,5.59,5.59,5.59,0,0,1-5.59-5.59,5.6,5.6,0,0,1,5.59-5.6A5.6,5.6,0,0,1-4701.86,798.79Z" transform="translate(5214.85 -661.1)"></path><path class="cls-6" d="M-4492.26,924.13a5.6,5.6,0,0,1-5.59,5.6,5.6,5.6,0,0,1-5.6-5.6,5.6,5.6,0,0,1,5.6-5.6A5.6,5.6,0,0,1-4492.26,924.13Z" transform="translate(5214.85 -661.1)"></path><path class="cls-1" d="M-4559.15,839.79a5.59,5.59,0,0,1-5.59,5.59,5.6,5.6,0,0,1-5.6-5.59,5.6,5.6,0,0,1,5.6-5.6A5.6,5.6,0,0,1-4559.15,839.79Z" transform="translate(5214.85 -661.1)"></path><rect class="cls-5" x="333.66" y="11.86" width="75.88" height="75.88" rx="19.94"></rect><path class="cls-1" d="M-4825.26,748.83c0-.06.95,0,2.72-.3a19.17,19.17,0,0,0,7.27-2.62,19.8,19.8,0,0,0,8-9,19.67,19.67,0,0,0,1.63-7.4c0-2.73,0-5.64,0-8.68,0-6.1,0-12.77-.06-19.93,0-1.79,0-3.61,0-5.46a33.14,33.14,0,0,0-.28-5.55,18.16,18.16,0,0,0-1.69-5.39,18.63,18.63,0,0,0-3.28-4.79,19.69,19.69,0,0,0-10.35-5.83,31.55,31.55,0,0,0-6.27-.39h-33.64a19.74,19.74,0,0,0-12.38,4.45,19.74,19.74,0,0,0-6.64,10.93,30.22,30.22,0,0,0-.44,6.39v6.39q0,6.32,0,12.37c0,4,0,8,0,11.76a48.63,48.63,0,0,0,.15,5.58,21.19,21.19,0,0,0,1.35,5.16,19.69,19.69,0,0,0,14.65,11.68,60.14,60.14,0,0,0,8.61.35l7.75,0,12.41.09,7.84.09,2,0a5.16,5.16,0,0,1,.69.05,2.79,2.79,0,0,1-.69,0l-2,0-7.84.1-12.41.08-7.75,0a59.32,59.32,0,0,1-8.73-.28A20.41,20.41,0,0,1-4880,736.81a21.06,21.06,0,0,1-1.43-5.37,49.18,49.18,0,0,1-.19-5.69c0-3.81,0-7.74,0-11.76s0-8.16,0-12.37q0-3.17,0-6.39a31.42,31.42,0,0,1,.45-6.59,20.75,20.75,0,0,1,7-11.5,20.7,20.7,0,0,1,13-4.68h33.64a32.59,32.59,0,0,1,6.46.42,20.48,20.48,0,0,1,10.83,6.15,19.25,19.25,0,0,1,3.42,5,18.83,18.83,0,0,1,1.75,5.64,33.32,33.32,0,0,1,.26,5.69c0,1.85,0,3.67,0,5.46,0,7.16,0,13.83-.06,19.93,0,3.05,0,5.93-.07,8.69a20.15,20.15,0,0,1-1.75,7.62,20.06,20.06,0,0,1-8.29,9.15,18.68,18.68,0,0,1-7.45,2.49A15.3,15.3,0,0,1-4825.26,748.83Z" transform="translate(5214.85 -661.1)"></path><path class="cls-1" d="M-4840,710.5a9.32,9.32,0,0,0,5.55-8.62c0-5.14-3.87-9.34-8.7-9.36s-8.76,4.13-8.78,9.28a9.31,9.31,0,0,0,5.57,8.7c-13.45,2-12.84,16.65-12.84,16.65l31.81.14S-4826.63,712.52-4840,710.5Z" transform="translate(5214.85 -661.1)"></path><path class="cls-1" d="M-4827.31,727.34h0l-31.85-.14v-.05a20.73,20.73,0,0,1,1.37-7.58,14.68,14.68,0,0,1,3.8-5.65,14.42,14.42,0,0,1,7.54-3.44,9.3,9.3,0,0,1-5.44-8.68,9.6,9.6,0,0,1,2.6-6.61,8.45,8.45,0,0,1,6.18-2.72h0c4.85,0,8.77,4.25,8.75,9.41a9.34,9.34,0,0,1-5.43,8.6,14,14,0,0,1,7.46,3.46,14.76,14.76,0,0,1,3.72,5.7,21.19,21.19,0,0,1,1.3,7.66Zm-31.8-.24,31.71.15a21.66,21.66,0,0,0-1.3-7.58,14.57,14.57,0,0,0-3.7-5.66,14,14,0,0,0-7.57-3.46l-.17,0,.16-.07a9.22,9.22,0,0,0,5.52-8.58c0-5.11-3.86-9.29-8.65-9.31h0a8.33,8.33,0,0,0-6.11,2.69,9.5,9.5,0,0,0-2.58,6.54,9.23,9.23,0,0,0,5.54,8.66l.16.07-.17,0A14.37,14.37,0,0,0-4854,714a14.55,14.55,0,0,0-3.77,5.61A20.94,20.94,0,0,0-4859.11,727.1Z" transform="translate(5214.85 -661.1)"></path><rect class="cls-5" x="725.16" y="354.45" width="86.38" height="86.38" rx="19.94"></rect><path class="cls-1" d="M-4423.24,1101.93c0-.08,1.1,0,3.13-.37a20,20,0,0,0,8.23-3.43,19.83,19.83,0,0,0,7.73-11.52c.7-2.67.52-5.66.53-8.84s0-6.53,0-10c0-7,0-14.75-.06-23,0-2.07,0-4.17,0-6.31a32.77,32.77,0,0,0-.35-6.42,19.49,19.49,0,0,0-6.53-11.28,19.7,19.7,0,0,0-12.85-4.65h-46.27a19.39,19.39,0,0,0-13.92,5.88,19.49,19.49,0,0,0-5.54,13.61c0,10.13,0,19.91,0,29.22q0,7,0,13.6a45.6,45.6,0,0,0,.21,6.45,18.34,18.34,0,0,0,1.82,5.87,19.7,19.7,0,0,0,8,8.39,20.23,20.23,0,0,0,10.43,2.51l33.35.16,9.07.09,2.35.05a7.09,7.09,0,0,1,.81,0,3.83,3.83,0,0,1-.81,0l-2.35,0-9.07.1-33.35.16a21,21,0,0,1-10.81-2.55,20.39,20.39,0,0,1-8.32-8.69,18.85,18.85,0,0,1-1.92-6.12,46.52,46.52,0,0,1-.25-6.57q0-6.61,0-13.6c0-9.31,0-19.09,0-29.22a20.52,20.52,0,0,1,5.8-14.31,20.39,20.39,0,0,1,14.64-6.18h31.36l14.91,0A20.6,20.6,0,0,1-4410,1020a20.36,20.36,0,0,1,6.8,11.82,35,35,0,0,1,.34,6.58c0,2.14,0,4.24,0,6.31,0,8.28,0,16-.06,23q0,5.28,0,10c0,3.14.12,6.21-.63,9a20.11,20.11,0,0,1-8.05,11.7,19.66,19.66,0,0,1-8.42,3.32,12.83,12.83,0,0,1-2.36.18A4.4,4.4,0,0,1-4423.24,1101.93Z" transform="translate(5214.85 -661.1)"></path><rect class="cls-5" x="330.88" y="335.09" width="86.38" height="86.38" rx="19.94"></rect><path class="cls-1" d="M-4817.53,1082.57c0-.09,1.1,0,3.13-.37a20.07,20.07,0,0,0,8.23-3.44,19.84,19.84,0,0,0,7.73-11.51c.7-2.68.52-5.67.53-8.85s0-6.52,0-10c0-7,0-14.76-.06-23,0-2.07,0-4.18,0-6.32a32.67,32.67,0,0,0-.35-6.41,19.37,19.37,0,0,0-6.53-11.28,19.65,19.65,0,0,0-12.85-4.65H-4864a19.38,19.38,0,0,0-13.92,5.87,19.56,19.56,0,0,0-5.54,13.62c0,10.13,0,19.9,0,29.21q0,7,0,13.61a47,47,0,0,0,.21,6.44,18.48,18.48,0,0,0,1.82,5.88,19.76,19.76,0,0,0,8,8.39,20.21,20.21,0,0,0,10.43,2.5l33.35.16,9.07.1,2.36,0a3.77,3.77,0,0,1,.8,0,7,7,0,0,1-.8,0l-2.36.05-9.07.09-33.35.16a20.9,20.9,0,0,1-10.81-2.54,20.5,20.5,0,0,1-8.32-8.69,19.08,19.08,0,0,1-1.92-6.13,46.37,46.37,0,0,1-.25-6.56q0-6.62,0-13.61c0-9.31,0-19.08,0-29.21a20.52,20.52,0,0,1,5.81-14.31,20.31,20.31,0,0,1,14.63-6.18h46.27a20.6,20.6,0,0,1,13.45,4.91,20.36,20.36,0,0,1,6.8,11.82,34.12,34.12,0,0,1,.34,6.57c0,2.14,0,4.25,0,6.32,0,8.27,0,16-.06,23q0,5.28,0,10c0,3.15.12,6.21-.63,9a20.11,20.11,0,0,1-8.05,11.7,19.44,19.44,0,0,1-8.42,3.31,14,14,0,0,1-2.36.19A6,6,0,0,1-4817.53,1082.57Z" transform="translate(5214.85 -661.1)"></path><path class="cls-7" d="M-4837,1038.93a10.6,10.6,0,0,0,6.32-9.81c0-5.86-4.41-10.63-9.91-10.66s-10,4.7-10,10.56a10.59,10.59,0,0,0,6.34,9.91c-15.31,2.31-14.62,19-14.62,19l36.21.17S-4821.85,1041.22-4837,1038.93Z" transform="translate(5214.85 -661.1)"></path><path class="cls-1" d="M-4715.1,755.21a21.26,21.26,0,0,1-6.54-1,21.35,21.35,0,0,1-13.75-26.86,21.34,21.34,0,0,1,26.85-13.75,21.16,21.16,0,0,1,12.44,10.58,21.17,21.17,0,0,1,1.32,16.27h0A21.38,21.38,0,0,1-4715.1,755.21Zm0-38.84a17.54,17.54,0,0,0-16.67,12.13,17.52,17.52,0,0,0,11.28,22,17.51,17.51,0,0,0,22-11.28h0a17.51,17.51,0,0,0-11.27-22A17.59,17.59,0,0,0-4715.07,716.37Z" transform="translate(5214.85 -661.1)"></path><path class="cls-1" d="M-4686.86,768a1.93,1.93,0,0,1-1.42-.62l-15.85-17.27a1.91,1.91,0,0,1,.11-2.71,1.91,1.91,0,0,1,2.71.12l15.86,17.26a1.93,1.93,0,0,1-.11,2.72A1.91,1.91,0,0,1-4686.86,768Z" transform="translate(5214.85 -661.1)"></path><path class="cls-7" d="M-4437.42,957.3A35.63,35.63,0,0,1-4473,921.71a35.63,35.63,0,0,1,35.59-35.59,35.64,35.64,0,0,1,35.59,35.59A35.64,35.64,0,0,1-4437.42,957.3Zm0-69.26a33.71,33.71,0,0,0-33.67,33.67,33.7,33.7,0,0,0,33.67,33.67,33.71,33.71,0,0,0,33.67-33.67A33.72,33.72,0,0,0-4437.42,888Z" transform="translate(5214.85 -661.1)"></path><path class="cls-7" d="M-4438.49,957.18a33.38,33.38,0,0,1-9.13-8.4c-4.07-5.29-8.82-14.4-8.33-27.8s5.58-22.1,9.75-27.06a31.33,31.33,0,0,1,9.14-7.7l.85,1.72c-.17.09-16.92,8.66-17.82,33.12s16.3,34.34,16.47,34.44Z" transform="translate(5214.85 -661.1)"></path><path class="cls-7" d="M-4436.92,957.16l-1-1.64c.17-.1,16.82-10.72,15.92-35.2S-4438.94,888-4439.1,888l.82-1.74c.7.33,17.25,8.38,18.19,34S-4436.74,957.05-4436.92,957.16Z" transform="translate(5214.85 -661.1)"></path><path class="cls-7" d="M-4436.95,910.43c-14.42,0-23.71-4.9-29-9l1.18-1.52c5,3.92,13.91,8.6,27.78,8.6,13.42,0,21.92-4.65,26.69-8.55l1.22,1.48C-4414,905.54-4423,910.43-4436.95,910.43Z" transform="translate(5214.85 -661.1)"></path><path class="cls-7" d="M-4410.17,942.45c-5-3.8-13.91-8.34-27.79-8.34-13.42,0-21.93,4.51-26.7,8.3l-1.2-1.51c5-4,13.93-8.71,27.9-8.71,14.42,0,23.7,4.75,28.95,8.73Z" transform="translate(5214.85 -661.1)"></path><rect class="cls-7" x="743.66" y="259.75" width="68.44" height="1.92"></rect><rect class="cls-7" x="614.78" y="530.71" width="48.69" height="48.69"></rect><rect class="cls-7" x="675.75" y="533.66" width="50.15" height="4.17"></rect><rect class="cls-7" x="675.75" y="543.29" width="50.15" height="4.17"></rect><rect class="cls-7" x="675.75" y="552.93" width="50.15" height="4.17"></rect><rect class="cls-7" x="675.75" y="562.56" width="50.15" height="4.17"></rect><rect class="cls-7" x="675.75" y="572.19" width="50.15" height="4.17"></rect><path class="cls-7" d="M608.94,484.94h119A7.05,7.05,0,0,1,735,492V517.5a0,0,0,0,1,0,0H602a0,0,0,0,1,0,0V491.89A7,7,0,0,1,608.94,484.94Z"></path><path class="cls-1" d="M-4492.28,1263.06a14.15,14.15,0,0,0,4.7-1,12.38,12.38,0,0,0,4.65-3.45,12.1,12.1,0,0,0,2.83-7.26c0-12.14-.07-29.65-.12-51.27,0-10.83,0-22.69-.07-35.41v-4.82a14.34,14.34,0,0,0-.53-4.72,12.17,12.17,0,0,0-6-7.24,12.26,12.26,0,0,0-4.72-1.33c-1.65-.09-3.44,0-5.16,0h-10.6l-93.14,0a12,12,0,0,0-5.7,1.4,12,12,0,0,0-4.29,4,11.56,11.56,0,0,0-1.85,5.47c-.1,2,0,4,0,6q0,12.07,0,23.76c0,15.58,0,30.61,0,44.93,0,3.58,0,7.11,0,10.6v5.19a24.33,24.33,0,0,0,.24,5,12.22,12.22,0,0,0,5.31,7.79,12,12,0,0,0,4.36,1.75,25.41,25.41,0,0,0,4.72.23l35.42.06,51.28.16,13.94.09,3.63,0c.81,0,1.23,0,1.23,0s-.42,0-1.23.06l-3.63,0-13.94.1-51.28.16-35.42.06a26.14,26.14,0,0,1-4.88-.23,13.19,13.19,0,0,1-4.67-1.86,13.13,13.13,0,0,1-5.71-8.33,26.11,26.11,0,0,1-.27-5.2v-5.19c0-3.49,0-7,0-10.6,0-14.32,0-29.35,0-44.93q0-11.69,0-23.76c0-2-.05-4,0-6.09a12.62,12.62,0,0,1,2-6,13,13,0,0,1,4.65-4.28,13,13,0,0,1,6.17-1.52l93.14,0h10.6c1.75,0,3.44,0,5.22.05a13.1,13.1,0,0,1,5.07,1.44,13,13,0,0,1,6.43,7.78,15.09,15.09,0,0,1,.56,5c0,1.62,0,3.22,0,4.82,0,12.72,0,24.58-.06,35.41-.06,21.66-.06,39.16-.19,51.29a12.38,12.38,0,0,1-3,7.43,12.48,12.48,0,0,1-4.79,3.44,12.39,12.39,0,0,1-3.54.84C-4491.86,1263.08-4492.28,1263.06-4492.28,1263.06Z" transform="translate(5214.85 -661.1)"></path><path class="cls-1" d="M-4539.09,1146a5.6,5.6,0,0,1-5.6,5.59,5.59,5.59,0,0,1-5.59-5.59,5.6,5.6,0,0,1,5.59-5.6A5.6,5.6,0,0,1-4539.09,1146Z" transform="translate(5214.85 -661.1)"></path><path class="cls-7" d="M-4521.95,785.06c2.94,10.29-3.76,20.36-14.3,20.36h-55.46c-9,0-16-8.68-13.44-17.42.14-.47.3-.92.48-1.36a14.67,14.67,0,0,1,15.91-8.64c1.52-11.24,11.21-20.8,22.31-22s22.57,6,26.43,16.66C-4540,772.64-4525.73,771.87-4521.95,785.06Z" transform="translate(5214.85 -661.1)"></path><path class="cls-5" d="M-4568.85,815.25V794h-8.34a1.2,1.2,0,0,1-1-1.9l13.72-19.37a1.21,1.21,0,0,1,2,0l13.71,19.22a1.21,1.21,0,0,1-1,1.91h-8.12v21.44Z" transform="translate(5214.85 -661.1)"></path><path class="cls-1" d="M-4458.63,1039.72s-10.6,32.16-14.16,38.65l36.09,11,6.57-4.18s8.76-25.9,9.87-34.6Z" transform="translate(5214.85 -661.1)"></path><polygon class="cls-6" points="780.06 422.92 778.15 428.3 784.71 424.11 780.06 422.92"></polygon><path class="cls-5" d="M-4430,1061.85a25.1,25.1,0,0,1-4.05-1.27l-9.64-3.31-9.7-3.18a26.49,26.49,0,0,1-4-1.43,23.3,23.3,0,0,1,4.14.93c2.53.68,6,1.71,9.78,3s7.17,2.54,9.6,3.52A24,24,0,0,1-4430,1061.85Z" transform="translate(5214.85 -661.1)"></path><path class="cls-5" d="M-4433.13,1069.11a22.11,22.11,0,0,1-4-.89c-2.42-.65-5.74-1.63-9.38-2.83s-6.89-2.37-9.23-3.28a20.69,20.69,0,0,1-3.72-1.64,23.11,23.11,0,0,1,3.9,1.14l9.28,3.08,9.3,3A23.1,23.1,0,0,1-4433.13,1069.11Z" transform="translate(5214.85 -661.1)"></path><path class="cls-5" d="M-4436.78,1075.63c-.07.19-5.5-1.47-12.14-3.7s-12-4.21-11.91-4.41,5.5,1.47,12.15,3.7S-4436.72,1075.43-4436.78,1075.63Z" transform="translate(5214.85 -661.1)"></path></g><g id="Device"><path class="cls-8" d="M-4519.37,1097.22l-25.06-88.22h-219.1l-28.54,87.93a8.22,8.22,0,0,0,7.74,10.81h100.06l4.06-4h47.26l4.05,4h101.7A8.22,8.22,0,0,0-4519.37,1097.22Z" transform="translate(5214.85 -661.1)"></path><g class="cls-9"><path d="M-4519.37,1097.22l-25.06-88.22h-219.1l-28.54,87.93a8.22,8.22,0,0,0,7.74,10.81h100.06l4.06-4h47.26l4.05,4h101.7A8.22,8.22,0,0,0-4519.37,1097.22Z" transform="translate(5214.85 -661.1)"></path></g><path class="cls-8" d="M-4763.62,1006.73V877.28a9.27,9.27,0,0,1,9.24-9.29H-4553a9.26,9.26,0,0,1,9.23,9.29v129.45Z" transform="translate(5214.85 -661.1)"></path><rect class="cls-5" x="464.52" y="219.7" width="193.22" height="115.11"></rect><path class="cls-10" d="M-4557.11,995.91s0-.73,0-2.09,0-3.42,0-6.05c0-5.32-.06-13.09-.1-23.07-.05-20-.12-48.68-.21-83.9l.39.39-193.21.11h0l.5-.5c0,40.77,0,79.68,0,115.11l-.46-.47,139,.23,39.9.12,10.65.06,2.75,0,1,0s-.29,0-.89,0l-2.71,0-10.54.06-39.8.12-139.28.23h-.46v-.46c0-35.43,0-74.34,0-115.11v-.5h.51l193.21.11h.39v.39c-.09,35.32-.16,64.13-.2,84.14-.05,9.94-.08,17.69-.1,23q0,3.92,0,6C-4557.08,995.24-4557.11,995.91-4557.11,995.91Z" transform="translate(5214.85 -661.1)"></path><path class="cls-10" d="M-4650.16,874.73a3.53,3.53,0,0,1-3.56,3.5,3.53,3.53,0,0,1-3.56-3.5,3.52,3.52,0,0,1,3.56-3.49A3.52,3.52,0,0,1-4650.16,874.73Z" transform="translate(5214.85 -661.1)"></path><path class="cls-8" d="M-4519.37,1094l-25.06-88.22h-219.1l-28.54,87.92a8.23,8.23,0,0,0,7.74,10.82h100.06l4.06-4h47.26l4.05,4h101.7A8.22,8.22,0,0,0-4519.37,1094Z" transform="translate(5214.85 -661.1)"></path><path class="cls-11" d="M-4560,1011.4l-190.94-.65a4.45,4.45,0,0,0-4.31,2.66l-15.31,43.42c-.83,2.36,1.32,4.72,4.3,4.72h220.95c3,0,5.11-2.34,4.3-4.69l-14.7-42.78A4.43,4.43,0,0,0-4560,1011.4Z" transform="translate(5214.85 -661.1)"></path><g class="cls-12"><path d="M-4619.28,1094.71h-75.37c-3.09,0-5.35-3.19-4.57-6.46l4.26-17.82a4.81,4.81,0,0,1,4.57-3.86h67.32a4.84,4.84,0,0,1,4.61,4l3.78,17.82C-4614,1091.62-4616.24,1094.71-4619.28,1094.71Z" transform="translate(5214.85 -661.1)"></path></g><path class="cls-10" d="M-4619.54,1025.13l-2-9.09a1.36,1.36,0,0,0-1.32-1.07h-11.76a1.36,1.36,0,0,0-1.34,1.55l1.3,9.1a1.36,1.36,0,0,0,1.34,1.17l12.42,0A1.35,1.35,0,0,0-4619.54,1025.13Z" transform="translate(5214.85 -661.1)"></path><path class="cls-10" d="M-4655,1025.34l-.84-9.13a1.36,1.36,0,0,0-1.35-1.24h-12a1.35,1.35,0,0,0-1.35,1.41l.33,9.15a1.36,1.36,0,0,0,1.36,1.31l12.51,0A1.36,1.36,0,0,0-4655,1025.34Z" transform="translate(5214.85 -661.1)"></path><path class="cls-10" d="M-4636.32,1025.25l-1.3-9.11A1.36,1.36,0,0,0-4639,1015h-13.83a1.36,1.36,0,0,0-1.35,1.48l.84,9.13a1.35,1.35,0,0,0,1.35,1.23l14.29,0A1.36,1.36,0,0,0-4636.32,1025.25Z" transform="translate(5214.85 -661.1)"></path><path class="cls-10" d="M-4724,1025.49l1.86-8.29a1.83,1.83,0,0,0-1.78-2.23h-11.39a1.83,1.83,0,0,0-1.75,1.33l-2.37,8.31a1.81,1.81,0,0,0,1.75,2.32h11.91A1.82,1.82,0,0,0-4724,1025.49Z" transform="translate(5214.85 -661.1)"></path><path class="cls-10" d="M-4558.12,1024.84l-3.46-9a1.35,1.35,0,0,0-1.26-.87h-22.34a1.36,1.36,0,0,0-1.27,1.83l3.36,9a1.35,1.35,0,0,0,1.27.89l22.44,0A1.36,1.36,0,0,0-4558.12,1024.84Z" transform="translate(5214.85 -661.1)"></path><path class="cls-10" d="M-4673.5,1015h-13a1.36,1.36,0,0,0-1.36,1.29l-.44,9.18a1.35,1.35,0,0,0,1.36,1.42l13.77,0a1.35,1.35,0,0,0,1.35-1.4l-.34-9.16A1.35,1.35,0,0,0-4673.5,1015Z" transform="translate(5214.85 -661.1)"></path><path class="cls-10" d="M-4740.78,1015h-9.06a1.84,1.84,0,0,0-1.72,1.21l-3,8.34a1.82,1.82,0,0,0,1.72,2.43h9.67a1.82,1.82,0,0,0,1.75-1.32l2.38-8.32A1.83,1.83,0,0,0-4740.78,1015Z" transform="translate(5214.85 -661.1)"></path><path class="cls-10" d="M-4707.18,1025.71l1.2-9.2a1.35,1.35,0,0,0-1.34-1.54h-11.56a1.36,1.36,0,0,0-1.32,1.06l-2.07,9.23a1.36,1.36,0,0,0,1.33,1.65l12.42,0A1.35,1.35,0,0,0-4707.18,1025.71Z" transform="translate(5214.85 -661.1)"></path><path class="cls-10" d="M-4704.29,1016.15l-1.2,9.21a1.36,1.36,0,0,0,1.35,1.53l12.86,0a1.35,1.35,0,0,0,1.35-1.29l.44-9.19a1.35,1.35,0,0,0-1.35-1.42h-12.1A1.37,1.37,0,0,0-4704.29,1016.15Z" transform="translate(5214.85 -661.1)"></path><path class="cls-10" d="M-4601.87,1025l-2.68-9.07a1.36,1.36,0,0,0-1.3-1h-12.53a1.36,1.36,0,0,0-1.33,1.65l2,9.08a1.35,1.35,0,0,0,1.33,1.06h13.26A1.36,1.36,0,0,0-4601.87,1025Z" transform="translate(5214.85 -661.1)"></path><path class="cls-10" d="M-4585.18,1024.89l-3.37-9a1.35,1.35,0,0,0-1.27-.89h-11.5a1.36,1.36,0,0,0-1.3,1.74l2.68,9.06a1.35,1.35,0,0,0,1.3,1l12.19,0A1.36,1.36,0,0,0-4585.18,1024.89Z" transform="translate(5214.85 -661.1)"></path><path class="cls-10" d="M-4673,1028.91h-14.18a1.35,1.35,0,0,0-1.35,1.29l-.46,9.47a1.36,1.36,0,0,0,1.36,1.42l15,0a1.35,1.35,0,0,0,1.35-1.41l-.34-9.45A1.36,1.36,0,0,0-4673,1028.91Z" transform="translate(5214.85 -661.1)"></path><path class="cls-10" d="M-4579.89,1039.12l-3.46-9.32a1.36,1.36,0,0,0-1.27-.88h-12.57a1.36,1.36,0,0,0-1.3,1.74l2.77,9.34a1.36,1.36,0,0,0,1.3,1l13.26,0A1.35,1.35,0,0,0-4579.89,1039.12Z" transform="translate(5214.85 -661.1)"></path><path class="cls-10" d="M-4597.65,1039.23l-2.77-9.34a1.35,1.35,0,0,0-1.3-1h-13.65a1.35,1.35,0,0,0-1.33,1.64l2,9.36a1.34,1.34,0,0,0,1.32,1.07l14.41,0A1.35,1.35,0,0,0-4597.65,1039.23Z" transform="translate(5214.85 -661.1)"></path><path class="cls-10" d="M-4706,1041.11l14,0a1.34,1.34,0,0,0,1.35-1.29l.46-9.47a1.35,1.35,0,0,0-1.35-1.42h-13.25a1.37,1.37,0,0,0-1.35,1.18l-1.24,9.5A1.36,1.36,0,0,0-4706,1041.11Z" transform="translate(5214.85 -661.1)"></path><path class="cls-10" d="M-4668.3,1041.06h13.3a1.37,1.37,0,0,0,1.35-1.48l-.87-9.43a1.36,1.36,0,0,0-1.35-1.23h-12.78a1.36,1.36,0,0,0-1.35,1.41l.35,9.44A1.34,1.34,0,0,0-4668.3,1041.06Z" transform="translate(5214.85 -661.1)"></path><path class="cls-10" d="M-4652.86,1030.39l.86,9.42a1.36,1.36,0,0,0,1.36,1.23l15,0a1.36,1.36,0,0,0,1.34-1.55l-1.34-9.39a1.36,1.36,0,0,0-1.34-1.17h-14.54A1.36,1.36,0,0,0-4652.86,1030.39Z" transform="translate(5214.85 -661.1)"></path><path class="cls-10" d="M-4616.46,1039.36l-2-9.37a1.34,1.34,0,0,0-1.32-1.07h-12.78a1.35,1.35,0,0,0-1.34,1.54l1.34,9.39a1.34,1.34,0,0,0,1.34,1.16h13.46A1.36,1.36,0,0,0-4616.46,1039.36Z" transform="translate(5214.85 -661.1)"></path><path class="cls-10" d="M-4726.44,1028.9h-28.31a1.36,1.36,0,0,0-1.27.87l-3.68,9.57a1.35,1.35,0,0,0,1.27,1.84l29.86,0a1.36,1.36,0,0,0,1.32-1.06l2.13-9.53A1.36,1.36,0,0,0-4726.44,1028.9Z" transform="translate(5214.85 -661.1)"></path><path class="cls-10" d="M-4724.13,1041.14l13.75,0a1.36,1.36,0,0,0,1.34-1.18l1.24-9.5a1.35,1.35,0,0,0-1.34-1.54H-4722a1.36,1.36,0,0,0-1.32,1.06l-2.13,9.52A1.36,1.36,0,0,0-4724.13,1041.14Z" transform="translate(5214.85 -661.1)"></path><path class="cls-10" d="M-4563,1040.93l8.85,0a1.35,1.35,0,0,0,1.25-1.86l-3.72-9.27a1.36,1.36,0,0,0-1.26-.85H-4566a1.35,1.35,0,0,0-1.29,1.78l3,9.29A1.35,1.35,0,0,0-4563,1040.93Z" transform="translate(5214.85 -661.1)"></path><path class="cls-10" d="M-4566.26,1039.16l-3-9.3a1.35,1.35,0,0,0-1.29-.94H-4580a1.35,1.35,0,0,0-1.27,1.83l3.46,9.31a1.36,1.36,0,0,0,1.27.88h9A1.36,1.36,0,0,0-4566.26,1039.16Z" transform="translate(5214.85 -661.1)"></path><path class="cls-10" d="M-4707.31,1057.07l13.91,0a2,2,0,0,0,2-1.95l.48-9.89a2,2,0,0,0-2-2.14H-4706a2,2,0,0,0-2,1.78l-1.29,9.87A2,2,0,0,0-4707.31,1057.07Z" transform="translate(5214.85 -661.1)"></path><path class="cls-10" d="M-4552.35,1043.12h-21.37a2,2,0,0,0-1.91,2.76l3.75,10.09a2.07,2.07,0,0,0,1.91,1.33l21.56,0a2,2,0,0,0,1.9-2.78l-3.94-10.13A2.05,2.05,0,0,0-4552.35,1043.12Z" transform="translate(5214.85 -661.1)"></path><path class="cls-10" d="M-4726.62,1044.72l-2.2,9.83a2,2,0,0,0,2,2.49l13.76,0a2,2,0,0,0,2-1.77l1.29-9.86a2.06,2.06,0,0,0-2-2.31h-12.85A2.05,2.05,0,0,0-4726.62,1044.72Z" transform="translate(5214.85 -661.1)"></path><path class="cls-10" d="M-4745.3,1044.61l-2.91,10.16a1.76,1.76,0,0,0,1.69,2.24l14.06,0a1.76,1.76,0,0,0,1.72-1.37l2.32-10.36a1.77,1.77,0,0,0-1.74-2.15l-13.47.18A1.76,1.76,0,0,0-4745.3,1044.61Z" transform="translate(5214.85 -661.1)"></path><path class="cls-10" d="M-4613.45,1045.6l2.17,10a2,2,0,0,0,2,1.61l14.25,0a2,2,0,0,0,2-2.63l-3-10.05a2,2,0,0,0-2-1.46h-13.43A2.05,2.05,0,0,0-4613.45,1045.6Z" transform="translate(5214.85 -661.1)"></path><path class="cls-10" d="M-4689.24,1045.07l-.47,9.9a2,2,0,0,0,2,2.13l72.54.12a2,2,0,0,0,2-2.47l-2.16-10a2.05,2.05,0,0,0-2-1.61h-69.9A2.05,2.05,0,0,0-4689.24,1045.07Z" transform="translate(5214.85 -661.1)"></path><path class="cls-10" d="M-4761.16,1044.18l-3.91,10.62a1.62,1.62,0,0,0,1.52,2.18l11.79,0a1.61,1.61,0,0,0,1.55-1.17l3.05-10.64a1.63,1.63,0,0,0-1.56-2.07h-10.92A1.63,1.63,0,0,0-4761.16,1044.18Z" transform="translate(5214.85 -661.1)"></path><path class="cls-10" d="M-4594,1045.74l3,10.06a2,2,0,0,0,1.95,1.46l13,0a2,2,0,0,0,1.92-2.76l-3.75-10.08a2,2,0,0,0-1.92-1.33h-12.24A2,2,0,0,0-4594,1045.74Z" transform="translate(5214.85 -661.1)"></path><path class="cls-10" d="M-4543.65,1006.07c0,.27-49.12.5-109.69.5s-109.7-.23-109.7-.5,49.1-.5,109.7-.5S-4543.65,1005.79-4543.65,1006.07Z" transform="translate(5214.85 -661.1)"></path><path class="cls-13" d="M-4696.2,913.86a29.09,29.09,0,0,1,6.62-4.13l.41-7.23,11.81-2,2.74,6.7A29.47,29.47,0,0,1-4667,909l5.39-4.81,9.75,7-2.79,6.67a29.18,29.18,0,0,1,4.13,6.62l7.23.41,2,11.81-6.7,2.75a29.31,29.31,0,0,1-1.75,7.6l4.81,5.4-6.95,9.75-6.67-2.79a29.53,29.53,0,0,1-6.62,4.13l-.41,7.23-11.81,2-2.75-6.7a28.93,28.93,0,0,1-7.6-1.76l-5.4,4.82-9.75-6.95,2.8-6.67a29.58,29.58,0,0,1-4.14-6.62l-7.23-.41-2-11.81,6.69-2.75a29.74,29.74,0,0,1,1.76-7.6l-4.82-5.4,6.95-9.75,6.68,2.79Zm8.67,14.83a12.84,12.84,0,0,0,3,17.92,12.83,12.83,0,0,0,17.91-3,12.84,12.84,0,0,0-3-17.92A12.84,12.84,0,0,0-4687.53,928.69Z" transform="translate(5214.85 -661.1)"></path><path class="cls-13" d="M-4631.13,943.94a20,20,0,0,1,4.48-2.8l.28-4.89,8-1.34,1.86,4.53a20.16,20.16,0,0,1,5.15,1.19l3.66-3.26,6.6,4.71-1.9,4.51a19.48,19.48,0,0,1,2.8,4.49l4.9.27,1.34,8-4.54,1.86a19.44,19.44,0,0,1-1.19,5.15l3.27,3.65-4.71,6.6-4.52-1.89a20,20,0,0,1-4.48,2.8l-.28,4.89-8,1.34-1.86-4.53a20.16,20.16,0,0,1-5.15-1.19l-3.66,3.26-6.6-4.71,1.9-4.51a19.48,19.48,0,0,1-2.8-4.49l-4.9-.27-1.34-8,4.54-1.86a19.44,19.44,0,0,1,1.19-5.15l-3.27-3.65,4.71-6.6,4.52,1.89Zm5.87,10a8.7,8.7,0,0,0,2,12.13,8.7,8.7,0,0,0,12.13-2,8.7,8.7,0,0,0-2-12.13A8.7,8.7,0,0,0-4625.26,954Z" transform="translate(5214.85 -661.1)"></path><path class="cls-13" d="M-4634.88,897.18a17.44,17.44,0,0,1,4-2.47l.24-4.33,7.08-1.19,1.64,4a18.17,18.17,0,0,1,4.56,1l3.24-2.88,5.84,4.16-1.68,4a17.35,17.35,0,0,1,2.48,4l4.33.25,1.19,7.07-4,1.65a17.43,17.43,0,0,1-1.05,4.56l2.89,3.23-4.17,5.85-4-1.68a17.7,17.7,0,0,1-4,2.48l-.25,4.33-7.08,1.18-1.64-4a17.34,17.34,0,0,1-4.56-1l-3.23,2.89-5.85-4.17,1.68-4a17.7,17.7,0,0,1-2.48-4l-4.33-.24-1.19-7.08,4-1.64a17.25,17.25,0,0,1,1.05-4.56l-2.89-3.24,4.17-5.84,4,1.67Zm5.19,8.89a7.7,7.7,0,0,0,1.8,10.74,7.7,7.7,0,0,0,10.74-1.8,7.7,7.7,0,0,0-1.8-10.74A7.71,7.71,0,0,0-4629.69,906.07Z" transform="translate(5214.85 -661.1)"></path></g><g id="Character"><path class="cls-6" d="M-5067.91,907.53c-8.77-5.39-11.06-18.16-6.48-27.39s14.5-14.94,24.64-16.73a47.42,47.42,0,0,1,41,12.94c5.7,5.7,10.36,13.17,18,15.71,6.72,2.23,14.09,0,21.13.82,9.43,1.09,17.6,7.66,22.54,15.77s7.08,17.6,8.34,27c1.15,8.63,2,18.12,8.06,24.35,5.94,6.07,15.21,7.24,22.55,11.52,13.82,8,18.56,28.39,9.71,41.71-2.82,4.24-6.9,8.16-7.16,13.25-.24,4.65,2.83,8.74,4.3,13.16,3.78,11.36-5.37,25.07-17.32,25.93-6,.44-12.54-1.82-17.91,1s-7.24,9.27-10.61,14.25c-6.63,9.79-20.72,13.65-31.41,8.6-4.47-2.11-8.72-5.64-13.65-5.24s-8.74,4.67-13.57,5.68c-6.33,1.32-12.42-3.27-16.27-8.46s-6.57-11.34-11.47-15.56c-6.4-5.53-15.3-6.79-23.35-9.43a66.36,66.36,0,0,1-39.94-36.85,66.33,66.33,0,0,1,1.64-54.31" transform="translate(5214.85 -661.1)"></path><path class="cls-14" d="M-5087.4,1116.84l-11.72-169.51a14.41,14.41,0,0,1,12.25-15.15l75.53-22.59c24.34-3.63,41.9,25.78,44.5,50.25,2.89,27.2,5.35,60.51,3,81-4.73,41.19-38.32,47.91-38.32,47.91s.36,41.87.83,56.74l10,46Z" transform="translate(5214.85 -661.1)"></path><path class="cls-6" d="M-4981.69,995.07a5.25,5.25,0,0,1-4.83,5.51,5,5,0,0,1-5.61-4.5,5.24,5.24,0,0,1,4.83-5.51A5,5,0,0,1-4981.69,995.07Z" transform="translate(5214.85 -661.1)"></path><path class="cls-6" d="M-4973.57,974.74c-.62.71-4.72-2.06-10.36-1.8s-9.66,3.26-10.31,2.59c-.31-.29.3-1.55,2.05-2.94a14.38,14.38,0,0,1,8.21-2.93,13.87,13.87,0,0,1,8.29,2.29C-4973.9,973.21-4973.26,974.42-4973.57,974.74Z" transform="translate(5214.85 -661.1)"></path><path class="cls-6" d="M-5032.52,996.79a5.24,5.24,0,0,1-4.83,5.51,5,5,0,0,1-5.61-4.5,5.25,5.25,0,0,1,4.82-5.51A5,5,0,0,1-5032.52,996.79Z" transform="translate(5214.85 -661.1)"></path><path class="cls-6" d="M-5029,978.18c-.63.71-4.73-2-10.37-1.8s-9.66,3.26-10.31,2.6c-.31-.3.29-1.56,2-3a14.38,14.38,0,0,1,8.21-2.92,13.82,13.82,0,0,1,8.29,2.28C-5029.35,976.65-5028.71,977.86-5029,978.18Z" transform="translate(5214.85 -661.1)"></path><path class="cls-6" d="M-5006.72,1019.17c0-.32,3.44-1.08,9.09-2,1.44-.21,2.79-.56,3-1.55s-.37-2.58-1.14-4.23c-1.51-3.43-3.08-7-4.74-10.8-6.59-15.37-11.43-28-10.81-28.3s6.47,12,13.06,27.37c1.59,3.79,3.12,7.41,4.56,10.87.62,1.61,1.64,3.43,1,5.62a3.62,3.62,0,0,1-2.28,2.21,10.18,10.18,0,0,1-2.43.45C-5003.14,1019.31-5006.69,1019.49-5006.72,1019.17Z" transform="translate(5214.85 -661.1)"></path><path class="cls-15" d="M-5002.41,1086s-25,2.8-52.95-12.42c0,0,12.29,30.27,53.07,24.68Z" transform="translate(5214.85 -661.1)"></path><path class="cls-15" d="M-5007,1032.63a13.9,13.9,0,0,0-11.7-5.57,9,9,0,0,0-7.25,4.36,8.7,8.7,0,0,0,.52,9.11,8.68,8.68,0,0,0,9.31,2.91c3.15-.91,5.69-3.21,8.09-5.5a6.48,6.48,0,0,0,1.69-2.19,2.89,2.89,0,0,0-.34-2.86" transform="translate(5214.85 -661.1)"></path><path class="cls-6" d="M-5023.17,1023.79c.92-.09,1.19,6,6.62,10.16s11.93,3.17,12,4c.1.38-1.41,1.26-4.16,1.45a15.27,15.27,0,0,1-10-3,13.25,13.25,0,0,1-5.16-8.54C-5024.21,1025.32-5023.59,1023.77-5023.17,1023.79Z" transform="translate(5214.85 -661.1)"></path><path class="cls-6" d="M-5027.52,954.83c-.49,1.56-6.16,1.08-12.75,2.16s-11.87,3.12-12.81,1.78c-.42-.64.45-2.12,2.55-3.7a21.35,21.35,0,0,1,9.39-3.75,21.42,21.42,0,0,1,10.08.75C-5028.59,952.94-5027.31,954.09-5027.52,954.83Z" transform="translate(5214.85 -661.1)"></path><path class="cls-6" d="M-4976.39,955.4c-.94,1.32-4.88.16-9.56.3-4.69,0-8.6,1.23-9.57-.07-.43-.64.14-2,1.82-3.24A13.24,13.24,0,0,1-4986,950a13.15,13.15,0,0,1,7.73,2.25C-4976.58,953.45-4976,954.75-4976.39,955.4Z" transform="translate(5214.85 -661.1)"></path><path class="cls-6" d="M-4939.61,948.07c-2-6.1-5.59-11.9-11-15.33-3-1.87-6.42-3-9.19-5.16-6-4.69-7.48-13-11.23-19.59a30.88,30.88,0,0,0-23.77-15.28c-8.13-.71-16.45,1.84-24.38,0-5.87-1.39-11-5.11-17-6.15-11.56-2-22.16,6.41-30.4,14.77.09,8.25,6.75,13.67,13.15,18.88a28.62,28.62,0,0,0,23.27,5.77c6.28-1.24,13.14-4.52,18.64-1.25,5.78,3.45,6.15,12.09,11.3,16.43,7.36,6.2,18.82.11,28.09,2.71,7.16,2,11.71,8.76,16.52,14.42s12,11,19.08,8.78C-4937,960.64-4937.62,954.18-4939.61,948.07Z" transform="translate(5214.85 -661.1)"></path><path class="cls-6" d="M-5026.69,914.46c-5.19-1.4-15.81-4.6-18.65-9-6.16-9.65-16.87-16.14-27.71-15.39a26.07,26.07,0,0,0-23.17,21c-13.12.29-25.81,8.72-31.92,21.21a37.79,37.79,0,0,0-2,4.84,28.52,28.52,0,0,0-1.56,24c1.86,4.65,5,9.79,2.64,14.21s-8.55,4.73-13.33,6.46c-8.33,3-13.61,12.7-11.63,21.33.72,3.09,2.25,6.17,1.65,9.29s-3.37,5.58-5.46,8.14a24.07,24.07,0,0,0-3.8,23.22,24,24,0,0,0,18.19,14.94c3.68.61,7.67.4,10.88,2.31,3.68,2.2,5.34,6.56,8,9.95a20.33,20.33,0,0,0,22.13,6.58,18.57,18.57,0,0,0,4.39-2.3c2.52,3.39,6.41,5.64,13,5.54l-2.78-86.27a7.14,7.14,0,0,0,5.29,4c13.9,2.93,15.51-25.64,12.3-33.33,4.95-4.52,9.95-9.11,13.69-14.82s6.88-21.16,6-28.09C-5045.57,922.41-5024.41,915.08-5026.69,914.46Z" transform="translate(5214.85 -661.1)"></path><path class="cls-14" d="M-5083.89,1001.37c-.57-8.76-11.33-10.48-18.87-6-4.13,2.47-7.26,7.37-6.74,16.67,1.39,24.82,26,18.31,26,17.6C-5083.48,1029.22-5083.23,1011.64-5083.89,1001.37Z" transform="translate(5214.85 -661.1)"></path><path class="cls-15" d="M-5091.58,1020.69c-.12-.08-.42.32-1.13.7a4.33,4.33,0,0,1-3.23.25c-2.67-.82-5.11-4.86-5.48-9.32a14.29,14.29,0,0,1,.86-6.26c.66-1.86,1.76-3.19,3.07-3.5a2.19,2.19,0,0,1,2.61,1c.38.68.25,1.18.38,1.22s.51-.45.25-1.46a2.73,2.73,0,0,0-1.06-1.5,3.23,3.23,0,0,0-2.43-.5c-1.9.24-3.53,2.09-4.3,4.1a14.8,14.8,0,0,0-1.11,7c.44,5,3.26,9.53,6.9,10.36a4.67,4.67,0,0,0,3.92-.87C-5091.59,1021.29-5091.49,1020.73-5091.58,1020.69Z" transform="translate(5214.85 -661.1)"></path><path class="cls-16" d="M-5061,908.25c.19.27-2.49.75-4.89,4.22s-3.24,9.92-1.58,17.2l.15.63-.61.16a24,24,0,0,0-15.8,14.33,18.72,18.72,0,0,0-1.19,6.08,36.75,36.75,0,0,0,.87,6.55,48.38,48.38,0,0,1,1.05,7.05,11.65,11.65,0,0,1-1.86,7.36c-3,4.74-7.95,7.13-12.18,9.43s-8.38,4.53-11.42,7.72a31,31,0,0,0-9,20.95,32.32,32.32,0,0,0,3.49,15.29c1.7,3.37,3.11,5,3,5.07s-.41-.34-1.08-1.1a27.24,27.24,0,0,1-2.49-3.64,31.53,31.53,0,0,1-4.13-15.64,31.94,31.94,0,0,1,9-22.06c3.16-3.39,7.46-5.87,11.77-8.11s8.88-4.66,11.5-8.85c2.7-3.81,1.4-8.71.61-13.15a37.65,37.65,0,0,1-.87-6.88,20.25,20.25,0,0,1,1.36-6.65,25.2,25.2,0,0,1,17-15l-.46.79c-1.59-7.63-.52-14.37,2.24-17.93a10.41,10.41,0,0,1,3.84-3.22A6,6,0,0,1-5061,908.25Z" transform="translate(5214.85 -661.1)"></path><path class="cls-14" d="M-4740.82,1217.35l16.92-6.49s4.61-14.76,7.68-19.09,19.41-17.6,20.36-18,11.69-24.42,16.58-23.64,8.27,4.21,6.9,10.75-12.2,19.55-9.2,21.72,7.89,2.95,7.89,2.95,1.33-7.5,5.44-9.93,8.81,1.6,8.81,1.6l.13,3.24,4.06-3.72s4.28-15.07,10.76-15c0,0,2.54-5.6,6.4-8.6a5.58,5.58,0,0,1,8.59,2.51h0l-11.63,34.15-32,35.25s-15,5.77-18.82,7.53-21.17,13.78-28.85,16.35-16.59,6.47-16.59,6.47Z" transform="translate(5214.85 -661.1)"></path><path class="cls-15" d="M-4695.94,1206.83c0-.2-2.29-.53-6.07-.62s-9.25.19-14.49,3.18a17.57,17.57,0,0,0-6,5.79,27.14,27.14,0,0,0-2.86,6.07c-1.2,3.6-1.59,5.89-1.4,6s1-2.12,2.48-5.53,3.79-8.13,8.61-10.86,10-3.18,13.69-3.44S-4695.94,1207.08-4695.94,1206.83Z" transform="translate(5214.85 -661.1)"></path><path class="cls-15" d="M-4681.16,1183.5c.25-.36-1.49-1.94-4.21-2.75s-5.05-.46-5,0,2.11.84,4.57,1.6S-4681.41,1183.9-4681.16,1183.5Z" transform="translate(5214.85 -661.1)"></path><path class="cls-15" d="M-4644.89,1189.89c-.22,0,.08-2.8.74-7.41s1.71-11,3-18.44l.48,1a35.94,35.94,0,0,0-3.5-1.65,4.44,4.44,0,0,0-3.41.43,9.87,9.87,0,0,0-4,4.78,35.79,35.79,0,0,0-2.09,5.91c-.93,3.94-1.55,7.61-2.11,10.66-1.11,6.11-1.82,9.9-2.08,9.87s0-3.88.78-10.07c.4-3.1.88-6.76,1.74-10.85a35.15,35.15,0,0,1,2.11-6.28,11.44,11.44,0,0,1,4.75-5.67,6.32,6.32,0,0,1,4.78-.56,32.4,32.4,0,0,1,3.8,1.82l.61.28-.13.68c-1.37,7.38-2.64,13.78-3.62,18.33S-4644.68,1189.93-4644.89,1189.89Z" transform="translate(5214.85 -661.1)"></path><path class="cls-15" d="M-4686.93,1219c-.08,0,0-.52.15-1.47a20.37,20.37,0,0,1,1.38-3.92,49.92,49.92,0,0,1,8.39-12.24l-.18.31c2.22-6.56.2-16,6.14-24.52a7.75,7.75,0,0,1,6.16-2.74,11.36,11.36,0,0,1,6,2.09l.43.29-.07.53c-1.19,9.59-2.29,17.88-3.14,23.75a15.49,15.49,0,0,1-2.16,6.69c-.83,1.42-1.43,2.09-1.51,2a12.8,12.8,0,0,1,1-2.31,16.88,16.88,0,0,0,1.58-6.6c.54-5.91,1.4-14.2,2.48-23.76l.36.82a9.7,9.7,0,0,0-5-1.69,5.92,5.92,0,0,0-4.73,2.14,14,14,0,0,0-2.76,5.74,55.3,55.3,0,0,0-1.34,6.27c-.35,2.08-.45,4-.69,6.07a36.81,36.81,0,0,1-1.25,5.65l-.06.18-.13.13a57.52,57.52,0,0,0-8.71,11.57C-4686.33,1217.09-4686.72,1219.08-4686.93,1219Z" transform="translate(5214.85 -661.1)"></path><path class="cls-5" d="M-5098.3,1112.69c1-1.47,7.81-14.59,7.81-14.59l38.51,33.2s37.75,31.62,37.75,29.57l6-30.41,7.42-27.68,13.85,20.93s43.52,85.32,43.52,86.35,26.93,89.32,26.93,89.32l-5.79,35.8-.68,126.84-81.15-3.41-16-25.57-27.62-162.64Z" transform="translate(5214.85 -661.1)"></path><polygon class="cls-6" points="217.77 775.82 304.22 775.82 317.92 833.92 184.97 833.92 217.77 775.82"></polygon><path class="cls-1" d="M-4999.8,1412.4c-2.72-41.65-1.58-120.24-17.52-161.24s-80-141.73-80-141.73l-15.71,24.43-41.2,15.46,55.89,226.55s-21.52,50.68-31.77,80.29c-3.07,8.85-7.2,23.88-11.73,38.86h141.43C-4999.12,1462.08-4998.51,1432.08-4999.8,1412.4Z" transform="translate(5214.85 -661.1)"></path><path class="cls-1" d="M-4729,1204.88l-109,60.6-75.56-107.81c-.2-.28-.42-.57-.65-.87-8.59-11.38-17-23.91-30.95-27l-2.11-.47,4,129s53.72,59.22,83.84,83.71c9,7.29,31.7,2.73,42.53-3.24,43.4-24,117.51-85.35,117.51-85.35Z" transform="translate(5214.85 -661.1)"></path><path class="cls-1" d="M-4911.39,1376.84s7.94-61.6,10.55-77.07c13.63-81-46.43-170.48-46.43-170.48l-27.46-4.54-23.68-19.57,10.46,29.23s34.4,96.25,41.24,127,10.25,125.28,11.31,123c.63-1.34,4.77,57.07,10,110.61h58.29Z" transform="translate(5214.85 -661.1)"></path><path class="cls-6" d="M-4916.48,1308.25a13.38,13.38,0,0,1,0-2q.12-2.15.31-5.71c.08-1.26.17-2.63.26-4.13s0-3.16,0-4.92c0-3.53.08-7.54-.26-12-.81-17.72-4.62-42.18-13.49-67.81a232,232,0,0,0-10.94-26.92v0a229.92,229.92,0,0,0-12.63-24.61c-4.16-7.24-8-13.55-11.23-18.77s-5.76-9.23-7.61-12.18l-2-3.26a6.33,6.33,0,0,1-.65-1.16,5.61,5.61,0,0,1,.83,1c.56.81,1.29,1.85,2.2,3.14,1.89,2.76,4.61,6.83,7.93,12s7.24,11.43,11.49,18.66a222.65,222.65,0,0,1,12.87,24.66l0,0a227.13,227.13,0,0,1,11.07,27.08c8.91,25.75,12.59,50.39,13.17,68.19.28,4.46.14,8.49.06,12,0,1.77-.08,3.41-.12,4.94s-.26,2.87-.37,4.13q-.34,3.57-.56,5.71A10.28,10.28,0,0,1-4916.48,1308.25Z" transform="translate(5214.85 -661.1)"></path><path class="cls-6" d="M-5014.93,1161.34a6.45,6.45,0,0,1-1.53-.68l-4.16-2.19-14.66-8.11.86-.44c-.72,6.59-1.93,14.29-3.14,22.49-.49,3.34-.95,6.6-1.33,9.72l-.15,1.2-.91-.78c-7.85-6.68-14.67-12.55-19.5-16.78l-5.64-5a12,12,0,0,1-1.93-1.94,13.32,13.32,0,0,1,2.23,1.59l5.88,4.73c5,4.06,11.91,9.8,19.79,16.42l-1.06.42c.36-3.13.81-6.4,1.3-9.75,1.22-8.22,2.49-15.89,3.31-22.43l.11-.88.75.44,14.42,8.53,4,2.48A5.43,5.43,0,0,1-5014.93,1161.34Z" transform="translate(5214.85 -661.1)"></path><path class="cls-6" d="M-4992.53,1123.71a17.66,17.66,0,0,1,.12,3.48c-.05,2.49-.1,5.66-.17,9.44-.2,8-.57,19-1.06,31.15,0,.3,0,.6,0,.89l-.09,2.12-1.13-1.79c-5.53-8.7-10.58-16.66-14.58-23l.91-.12-4,11a23.23,23.23,0,0,1-1.67,4,24.85,24.85,0,0,1,1.13-4.17l3.57-11.12.32-1,.59.9,14.83,22.81-1.22.33c0-.29,0-.58,0-.88.49-12.16,1-23.17,1.45-31.14.24-3.78.43-6.94.59-9.43A17.65,17.65,0,0,1-4992.53,1123.71Z" transform="translate(5214.85 -661.1)"></path><path class="cls-1" d="M-5154.19,1149.32a61.41,61.41,0,0,0-9.56,7.36,65.16,65.16,0,0,0-16.66,26.24c-3.89,11.11-7.75,24.78-10,33.39l-10.43,158.13a93.12,93.12,0,0,0,6.65,41.15l32.29,79.43h69.62l-37.58-106.27L-5117,1271.5Z" transform="translate(5214.85 -661.1)"></path><polyline class="cls-1" points="103.55 470.13 118.86 516.05 135.18 516.05 124.59 522.79 208.31 682.81"></polyline><path class="cls-6" d="M-5006.53,1343.91a2.4,2.4,0,0,1-.37-.56c-.26-.45-.57-1-1-1.7l-3.59-6.6-13-24.38L-5066.9,1230l-23.9-45.8-.26-.5.47-.3,10.61-6.71.31,1.07-16.32-.06h-.37l-.12-.36c-4.58-14-8.32-25.51-11-33.59-1.24-3.92-2.23-7-2.93-9.24l-.73-2.42a3.78,3.78,0,0,1-.2-.84,3.5,3.5,0,0,1,.35.79c.22.62.51,1.4.87,2.38l3.2,9.14,11.39,33.45-.5-.35,16.32-.06h2l-1.68,1.08-10.57,6.76.22-.8,24,45.75c16.41,31.54,31.27,60.09,42.09,80.87l12.62,24.58c1.43,2.84,2.55,5.09,3.37,6.72.35.71.63,1.29.85,1.76A2.87,2.87,0,0,1-5006.53,1343.91Z" transform="translate(5214.85 -661.1)"></path><path class="cls-1" d="M-5142.18,1171.71a102.11,102.11,0,0,1,22.59,86.89" transform="translate(5214.85 -661.1)"></path><path class="cls-6" d="M-5119.59,1258.6c-.27,0,.87-5.15,1.36-13.51a108.48,108.48,0,0,0-.22-14.68,116.76,116.76,0,0,0-3-17.7,115,115,0,0,0-6-16.94,105.06,105.06,0,0,0-7-12.92c-4.49-7.07-8-11-7.76-11.14a18.72,18.72,0,0,1,2.52,2.66,39.57,39.57,0,0,1,2.71,3.33c1,1.35,2.21,2.84,3.33,4.63a97.76,97.76,0,0,1,7.29,12.93,108.78,108.78,0,0,1,6.15,17.11,108,108,0,0,1,3,17.94,96.84,96.84,0,0,1-.07,14.85c-.1,2.11-.43,4-.65,5.66a38.69,38.69,0,0,1-.75,4.23A18.61,18.61,0,0,1-5119.59,1258.6Z" transform="translate(5214.85 -661.1)"></path><path class="cls-6" d="M-5092.26,1495a2,2,0,0,1-.24-.52c-.16-.41-.36-.94-.62-1.59-.54-1.47-1.3-3.52-2.26-6.14-2-5.41-4.75-13.13-8.19-22.66-6.84-19.25-16.28-45.77-26.74-75.2l0-.1v-.12c.09-.82.19-1.7.29-2.59,3.53-31.63,6.72-60.25,9-81.06,1.2-10.31,2.17-18.68,2.86-24.55.35-2.84.63-5.07.82-6.67.1-.71.18-1.28.24-1.73a2.41,2.41,0,0,1,.12-.59,2.5,2.5,0,0,1,0,.6c0,.45-.08,1-.14,1.74-.15,1.6-.36,3.84-.64,6.69-.6,5.88-1.47,14.26-2.54,24.59-2.24,20.81-5.33,49.45-8.75,81.09-.1.89-.19,1.77-.28,2.59l0-.22c10.36,29.46,19.69,56,26.46,75.29,3.32,9.58,6,17.34,7.89,22.77l2.09,6.2c.22.67.39,1.21.52,1.62A4.16,4.16,0,0,1-5092.26,1495Z" transform="translate(5214.85 -661.1)"></path><path class="cls-6" d="M-4929,1170.35a154.34,154.34,0,0,1,11.31,21.5c1.62,3.39,3,7.29,4.61,11.39,1.38,4.19,3,8.62,4.29,13.44,1.44,4.76,2.55,9.86,3.75,15.13.49,2.66,1,5.37,1.49,8.11s.8,5.57,1.21,8.41a270.82,270.82,0,0,1,.78,58.59c-.41,3.72-.79,7.09-1.13,10.07s-.79,5.49-1.08,7.57-.58,3.59-.77,4.77a10.42,10.42,0,0,1-.33,1.65,11.09,11.09,0,0,1,.13-1.68c.15-1.18.34-2.78.58-4.79s.66-4.62.92-7.59.62-6.34,1-10.06a285.34,285.34,0,0,0-1.07-58.41c-.41-2.82-.7-5.63-1.2-8.37s-1-5.43-1.47-8.08c-1.18-5.25-2.26-10.33-3.67-15.07-1.23-4.8-2.85-9.22-4.19-13.41-1.61-4.1-2.91-8-4.48-11.39-.75-1.72-1.45-3.35-2.13-4.9s-1.42-3-2.06-4.3c-1.3-2.67-2.4-5-3.45-6.81l-2.28-4.25A11.14,11.14,0,0,1-4929,1170.35Z" transform="translate(5214.85 -661.1)"></path><path class="cls-6" d="M-4836.94,1299.13a17.84,17.84,0,0,1-2-4.73,47.19,47.19,0,0,1-2.17-12.22,47.28,47.28,0,0,1,1.08-12.37,17.81,17.81,0,0,1,1.58-4.89c.15,0-.36,1.94-.89,5a58.41,58.41,0,0,0-.77,12.19,58.16,58.16,0,0,0,1.85,12.06C-4837.47,1297.24-4836.79,1299.07-4836.94,1299.13Z" transform="translate(5214.85 -661.1)"></path><text class="cls-17" transform="translate(513.52 273.94)"><tspan class="cls-18">P</tspan><tspan class="cls-19" x="17.33" y="0">r</tspan><tspan x="27.46" y="0">o</tspan><tspan class="cls-20" x="43.18" y="0">c</tspan><tspan class="cls-21" x="57.19" y="0">ess</tspan><tspan x="-35.44" y="28.8">Man</tspan><tspan class="cls-22" x="18.88" y="28.8">a</tspan><tspan x="33.83" y="28.8">ge</tspan><tspan class="cls-23" x="65.77" y="28.8">m</tspan><tspan class="cls-24" x="91.09" y="28.8">ent</tspan></text></g></svg>