<svg width="416" height="343" viewBox="0 0 416 343" fill="none" xmlns="http://www.w3.org/2000/svg">
<g clip-path="url(#clip0)">
<path d="M377.015 27.9896C376.298 25.1867 375.19 22.541 373.756 20.0917L377.067 15.0753L372.465 10.4519L367.862 5.82843L362.881 9.16832C360.456 7.72759 357.822 6.61429 355.019 5.89392L353.845 0H347.339H340.833L339.646 5.89392C336.856 6.61429 334.209 7.72759 331.784 9.16832L326.79 5.84153L322.187 10.465L317.585 15.0884L320.897 20.1048C319.462 22.541 318.354 25.1867 317.637 28.0027L311.77 29.1946V35.7303V42.266L317.637 43.4578C318.354 46.2607 319.462 48.9195 320.897 51.3557L317.585 56.3721L322.187 60.9955L326.79 65.619L331.784 62.2922C334.209 63.7329 336.843 64.8462 339.646 65.5666L340.833 71.4605H347.339H353.845L355.032 65.5666C357.822 64.8462 360.469 63.7329 362.894 62.2922L367.888 65.619L372.491 60.9955L377.093 56.3721L373.782 51.3557C375.216 48.9195 376.324 46.2738 377.041 43.4578L382.909 42.266V35.7303V29.1946L377.015 27.9896ZM347.339 58.6249C334.744 58.6249 324.534 48.3694 324.534 35.7172C324.534 23.0649 334.744 12.8095 347.339 12.8095C359.935 12.8095 370.144 23.0649 370.144 35.7172C370.144 48.3694 359.935 58.6249 347.339 58.6249Z" fill="#606BF1"/>
<path d="M385.894 83.5892C385.568 82.3056 385.059 81.0875 384.394 79.9742L385.92 77.6821L383.808 75.5603L381.695 73.4385L379.414 74.9709C378.305 74.3161 377.093 73.8052 375.815 73.4647L375.267 70.7666H372.281H369.296L368.761 73.4647C367.483 73.7921 366.271 74.303 365.162 74.9709L362.881 73.4385L360.768 75.5603L358.656 77.6821L360.182 79.9742C359.53 81.0875 359.021 82.3056 358.682 83.5892L355.996 84.1393V87.1386V90.138L358.682 90.6881C359.008 91.9716 359.517 93.1897 360.182 94.303L358.656 96.5951L360.768 98.7169L362.881 100.839L365.162 99.3063C366.271 99.9612 367.483 100.472 368.761 100.813L369.296 103.511H372.281H375.267L375.815 100.813C377.093 100.485 378.305 99.9743 379.414 99.3063L381.695 100.839L383.808 98.7169L385.92 96.5951L384.394 94.303C385.046 93.1897 385.555 91.9716 385.894 90.6881L388.58 90.138V87.1386V84.1393L385.894 83.5892ZM372.294 97.6429C366.518 97.6429 361.837 92.9408 361.837 87.1386C361.837 81.3364 366.518 76.6343 372.294 76.6343C378.071 76.6343 382.752 81.3364 382.752 87.1386C382.752 92.9408 378.071 97.6429 372.294 97.6429Z" fill="#606BF1"/>
<path d="M196.754 291.905H228.777V194.21H196.754V291.905Z" fill="#AEBECC"/>
<path d="M88.5844 241.271H336.959C344.73 241.271 351.028 234.944 351.028 227.138V59.4497C351.028 51.6435 344.73 45.3174 336.959 45.3174H88.5844C80.8133 45.3174 74.5156 51.6435 74.5156 59.4497V227.138C74.5287 234.944 80.8133 241.271 88.5844 241.271Z" fill="#F0F0F0"/>
<path d="M85.3498 210.555L340.191 210.555V24.464L85.3498 24.464L85.3498 210.555Z" fill="#F5F7FF"/>
<path d="M85.3516 46.955H340.193V24.4795H85.3516V46.955Z" fill="#606BF1"/>
<path d="M203.859 224.61C203.859 229.561 207.849 233.569 212.778 233.569C217.706 233.569 221.696 229.561 221.696 224.61C221.696 219.659 217.706 215.651 212.778 215.651C207.849 215.651 203.859 219.659 203.859 224.61Z" fill="#757575"/>
<path d="M164.237 69.6003H247.346C249.132 69.6003 250.58 68.1464 250.58 66.3521V66.1818C250.58 64.3874 249.132 62.9336 247.346 62.9336H164.237C162.451 62.9336 161.004 64.3874 161.004 66.1818V66.3521C161.017 68.1464 162.464 69.6003 164.237 69.6003Z" fill="#C4D9F9"/>
<path d="M164.237 81.611H247.346C249.132 81.611 250.58 80.1572 250.58 78.3628V78.1925C250.58 76.3982 249.132 74.9443 247.346 74.9443H164.237C162.451 74.9443 161.004 76.3982 161.004 78.1925V78.3628C161.017 80.1572 162.464 81.611 164.237 81.611Z" fill="#C4D9F9"/>
<path d="M164.237 93.6218H247.346C249.132 93.6218 250.58 92.1679 250.58 90.3736V90.2033C250.58 88.4089 249.132 86.9551 247.346 86.9551H164.237C162.451 86.9551 161.004 88.4089 161.004 90.2033V90.3736C161.017 92.1679 162.464 93.6218 164.237 93.6218Z" fill="#C4D9F9"/>
<path d="M207.121 197.473H111.599C103.633 197.473 97.1523 190.963 97.1523 182.96V124.584C97.1523 116.582 103.633 110.072 111.599 110.072H207.121C215.087 110.072 221.568 116.582 221.568 124.584V182.96C221.568 190.95 215.087 197.473 207.121 197.473ZM111.599 111.893C104.637 111.893 98.9647 117.59 98.9647 124.584V182.96C98.9647 189.955 104.637 195.652 111.599 195.652H207.121C214.083 195.652 219.755 189.955 219.755 182.96V124.584C219.755 117.59 214.083 111.893 207.121 111.893H111.599Z" fill="#C4D9F9"/>
<path d="M119.149 132.076H199.559C203.08 132.076 205.935 129.208 205.935 125.672V124.454C205.935 120.917 203.08 118.049 199.559 118.049H119.149C115.629 118.049 112.773 120.917 112.773 124.454V125.672C112.773 129.208 115.629 132.076 119.149 132.076Z" fill="#C4D9F9"/>
<path d="M284.79 288.213H140.738V295.587H284.79V288.213Z" fill="#F0F0F0"/>
<path d="M311.532 129.247C311.532 136.909 307.412 143.615 301.258 147.23C300.019 147.95 298.702 148.553 297.32 149.024C297.203 149.064 297.072 149.103 296.942 149.142C294.999 149.745 292.926 150.072 290.788 150.072C287.476 150.072 284.346 149.286 281.569 147.911C274.737 144.506 270.043 137.42 270.043 129.247C270.043 117.747 279.327 108.422 290.774 108.422C302.249 108.422 311.532 117.747 311.532 129.247Z" fill="#C4D9F9"/>
<path d="M285.848 127.047C285.848 127.047 284.427 117.839 292.015 118.009C299.604 118.179 299.499 122.724 299.369 127.243C299.238 131.762 296.331 131.421 299.604 137.708C302.889 143.995 296.761 143.995 296.761 143.995L292.015 137.446L285.848 127.047Z" fill="#3C4145"/>
<path d="M291.18 118.9C291.18 118.9 286.043 119.712 285.834 127.047C285.626 134.381 287.216 135.94 291.715 134.421C296.213 132.888 297.634 125.213 297.739 124.034C297.843 122.842 298.117 118.022 291.18 118.9Z" fill="#EEA886"/>
<path d="M300.213 144.414C300.226 146.614 299.053 148.081 297.332 149.024C297.214 149.063 297.084 149.103 296.953 149.142C295.011 149.744 292.938 150.072 290.799 150.072C287.487 150.072 284.358 149.286 281.581 147.911C280.955 146.653 281.855 144.885 283.693 142.148C284.958 140.275 286.196 138.363 288.309 137.42C291.438 136.922 294.737 136.896 297.071 138.219C298.935 139.279 300.174 141.192 300.213 144.414Z" fill="#FFD760"/>
<path d="M284.696 142.043L282.336 145.789C282.336 145.763 282.492 145.2 282.766 143.562C282.818 143.248 282.871 142.907 282.923 142.515C282.936 142.397 282.962 142.279 283.001 142.174C284.018 139.83 287.173 138.088 287.278 138.035L284.696 142.043Z" fill="#FFD760"/>
<path d="M301.257 147.244C300.019 147.964 298.702 148.566 297.32 149.038C297.202 149.077 297.072 149.117 296.941 149.156C296.42 147.794 295.964 146.615 295.859 146.314C295.833 146.222 295.768 146.065 295.677 145.842C295.246 144.807 294.295 142.489 294.282 140.682C294.269 139.516 294.66 138.56 295.82 138.285C296.276 138.18 296.694 138.167 297.059 138.232C298.363 138.468 299.119 139.647 299.549 140.695C299.562 140.708 299.562 140.734 299.575 140.747C299.927 141.638 300.045 142.411 300.045 142.411C300.045 142.411 300.071 142.489 300.097 142.633C300.175 142.921 300.305 143.471 300.488 144.205C300.723 145.03 300.983 146.091 301.257 147.244Z" fill="#EEA886"/>
<path d="M294.62 131.12C294.176 131.959 293.707 137.211 293.707 137.211C293.707 137.211 287.422 139.595 288.061 138.245C288.348 137.63 288.439 136.831 288.439 136.15C288.439 135.613 288.4 135.141 288.374 134.879C288.361 134.735 288.348 134.657 288.348 134.657C288.348 134.657 295.063 130.269 294.62 131.12Z" fill="#EEA886"/>
<path d="M289.094 124.165C289.094 124.165 291.728 128.474 294.127 130.177C296.526 131.88 295.314 133.229 295.314 133.229C295.314 133.229 301.572 119.987 295.627 119.07C289.668 118.153 286.017 118.088 285.848 127.047C285.848 127.047 288.547 124.1 289.094 124.165Z" fill="#3C4145"/>
<path d="M291.963 134.342C290.998 135.769 288.456 136.149 288.456 136.149C288.456 135.612 288.417 135.141 288.391 134.879C290.007 135.193 291.963 134.342 291.963 134.342Z" fill="#A77860"/>
<path d="M283.017 142.135C283.017 142.135 282.874 142.423 282.77 143.563L283.695 142.161C283.695 142.161 285.351 139.777 285.912 139.162C286.473 138.546 287.294 137.996 287.294 137.996C287.294 137.996 284.008 139.568 283.017 142.135Z" fill="#FFD760"/>
<path d="M295.535 145.684C295.535 145.684 299.564 144.099 300.764 144.008C300.764 144.008 299.955 137.498 295.992 138.192C292.015 138.874 295.535 145.684 295.535 145.684Z" fill="#FFD760"/>
<path d="M288.324 137.433C288.324 137.433 285.364 142.004 286.368 142.41C287.372 142.816 292.796 141.873 295.104 137.537C295.091 137.524 291.649 135.756 288.324 137.433Z" fill="#EEA886"/>
<path d="M319.186 68.487C319.186 75.1275 316.813 81.2048 312.862 85.9199C311.936 87.0201 310.932 88.0549 309.85 88.9848C309.537 89.2598 309.224 89.5218 308.898 89.7706C308.533 90.0588 308.168 90.3338 307.79 90.6089C304.244 93.1367 300.058 94.8263 295.521 95.3764C294.725 95.4812 293.917 95.5336 293.095 95.5598C292.796 95.5729 292.509 95.5729 292.209 95.5729C291.335 95.5729 290.475 95.5336 289.614 95.455C288.662 95.3633 287.724 95.2192 286.811 95.0359C282.73 94.1976 278.975 92.4425 275.78 89.9802C274.815 89.2336 273.903 88.4347 273.055 87.5702C272.885 87.4 272.729 87.2297 272.56 87.0594C271.96 86.4177 271.386 85.7497 270.851 85.0424C267.318 80.4582 265.219 74.7084 265.219 68.4739C265.219 53.5034 277.293 41.375 292.196 41.375C307.112 41.375 319.186 53.5165 319.186 68.487Z" fill="#C4D9F9"/>
<path d="M309.785 83.4318L307.79 90.6093C304.244 93.1371 300.058 94.8267 295.521 95.3768C294.725 95.4816 293.917 95.534 293.096 95.5602C292.796 95.5733 292.509 95.5733 292.209 95.5733C291.335 95.5733 290.475 95.534 289.614 95.4554C288.662 95.3637 287.724 95.2196 286.811 95.0363C282.73 94.198 278.975 92.4429 275.78 89.9806C275.402 87.6099 274.985 84.9904 274.633 82.528C276.615 81.7815 282.925 79.6335 286.915 78.2713C286.967 78.2582 287.02 78.232 287.085 78.2189C287.176 78.1927 287.254 78.1535 287.346 78.1273C287.58 78.0487 287.802 77.9701 288.024 77.9046C288.245 77.826 288.454 77.7605 288.649 77.695C289.471 77.42 290.045 77.2235 290.24 77.158C290.292 77.1449 290.318 77.1318 290.318 77.1318H290.371L295.729 77.5379L296.629 77.6034L296.903 77.6295C296.903 77.6295 296.942 77.6426 297.02 77.6557C297.346 77.7343 298.285 77.9832 299.524 78.363C302.705 79.3453 307.842 81.1921 309.785 83.4318Z" fill="#D9C7C1"/>
<path d="M293.614 55.0232C293.614 55.0232 300.042 56.1103 298.947 66.2086C297.864 76.3068 292.192 75.4162 291.814 75.4031C291.436 75.39 286.116 75.521 285.83 63.1699C285.817 63.183 285.738 54.054 293.614 55.0232Z" fill="#EEA987"/>
<path d="M296.432 72.4818C296.432 72.4818 296.21 76.6337 296.602 77.5506C296.993 78.4543 291.438 81.3227 287.996 78.0614C287.996 78.0614 288.7 73.5165 288.479 71.9055C288.257 70.2945 296.432 72.4818 296.432 72.4818Z" fill="#EEA987"/>
<path d="M299.079 63.3662C299.079 63.3662 299.796 62.6196 300.044 63.3924C300.292 64.1651 298.91 67.5705 298.988 67.7146C298.988 67.7146 298.858 68.0158 298.688 67.8456C298.519 67.6753 299.079 63.3662 299.079 63.3662Z" fill="#EEA987"/>
<path d="M285.898 63.0906C285.898 63.0906 285.22 62.3178 284.933 63.0644C284.646 63.8241 285.676 67.2164 285.807 67.439C285.807 67.439 286.028 67.7926 286.198 67.6355C286.38 67.4652 285.898 63.0906 285.898 63.0906Z" fill="#EEA987"/>
<path d="M299.485 62.5015C299.263 63.8899 299.054 64.9115 299.054 64.9115L298.116 66.1427C298.116 66.1427 298.168 63.4315 298.024 62.9992C297.972 62.8421 297.907 62.5539 297.842 62.2396C297.737 61.7288 297.62 61.1525 297.555 60.956C297.438 60.6548 292.053 59.07 287.254 61.2835C287.254 61.2835 287.293 61.7026 287.293 62.161C287.293 62.698 287.228 63.3136 286.98 63.4053C286.524 63.5755 286.707 66.5749 286.707 66.5749L285.963 65.7104C285.963 65.7104 285.742 64.1387 285.533 62.3313C285.533 62.3313 285.533 62.3313 285.533 62.3182C285.481 61.899 285.442 61.4668 285.39 61.0346C285.285 59.2271 285.455 55.9265 287.815 53.9881C289.406 53.307 291.935 52.7307 296.16 54.0274C296.16 54.0274 297.125 54.0929 297.398 54.3548C300.045 57.2756 299.485 62.5015 299.485 62.5015Z" fill="#E8734D"/>
<path d="M288.906 74.0674C288.906 74.0674 289.936 75.495 292.309 75.4426C294.695 75.3903 295.726 74.146 295.726 74.146C295.726 74.146 294.604 76.5167 292.296 76.4905C290.001 76.4512 288.906 74.0674 288.906 74.0674Z" fill="#C78D71"/>
<path d="M287.332 78.1403C287.332 78.1403 289.053 81.1527 292.326 81.4278C294.399 81.6111 296.185 78.9654 297.033 77.6688C297.033 77.6819 292.391 75.691 287.332 78.1403Z" fill="#EEA987"/>
<path d="M296.431 76.7256C296.431 76.7256 295.114 78.4545 292.324 80.3012L294.058 82.9993L297.031 77.6817L296.431 76.7256Z" fill="#EDDAD3"/>
<path d="M288.125 77.1318C288.125 77.1318 289.794 79.2406 292.324 80.3015L290.42 83.0781L287.082 78.2189L288.125 77.1318Z" fill="#EDDAD3"/>
<path d="M292.324 80.3018L293.81 82.5807C293.81 82.5807 292.246 83.4714 290.785 82.5284L292.324 80.3018Z" fill="#FFD760"/>
<path d="M311.505 83.0118C311.505 83.0118 311.492 83.0642 311.466 83.1559C311.296 83.7453 310.671 85.985 309.849 88.9843C309.536 89.2594 309.223 89.5213 308.897 89.7702C308.532 90.0583 308.167 90.3334 307.789 90.6084C304.242 93.1362 300.057 94.8258 295.52 95.3759C295.924 85.998 297.032 77.668 297.032 77.668C297.906 77.9037 298.74 78.1264 299.522 78.3621C306.368 80.3399 309.836 82.0688 311.023 82.7236C311.036 82.7236 311.036 82.7367 311.049 82.7367C311.362 82.9201 311.505 83.0118 311.505 83.0118Z" fill="#323657"/>
<path d="M286.81 95.0364C282.729 94.1982 278.973 92.4431 275.779 89.9807C274.814 89.2342 273.901 88.4352 273.054 87.5708C272.884 87.4005 272.728 87.2302 272.558 87.06C272.089 85.0429 271.776 83.7332 271.75 83.6415C271.75 83.6415 275.088 81.4411 286.901 78.2715C286.914 78.5596 286.914 86.1693 286.81 95.0364Z" fill="#323657"/>
<path d="M293.173 82.8418C293.069 85.3172 293.056 90.1109 293.095 95.5726C292.795 95.5857 292.508 95.5857 292.208 95.5857C291.334 95.5857 290.474 95.5464 289.613 95.4678C290.135 88.7226 291.008 84.5051 291.413 82.8418C291.543 82.2917 291.621 82.0166 291.621 82.0166L293.199 82.2786C293.199 82.4488 293.186 82.6322 293.173 82.8418Z" fill="#FFD760"/>
<path d="M312.862 85.9204C311.937 87.0206 310.933 88.0553 309.85 88.9853C309.537 89.2603 309.224 89.5223 308.898 89.7711L311.024 82.7246C311.037 82.7246 311.037 82.7377 311.05 82.7377C311.18 82.8294 311.311 82.9604 311.467 83.1568C311.884 83.7069 312.354 84.6762 312.862 85.9204Z" fill="#323657"/>
<path d="M273.067 87.5836C272.897 87.4133 272.741 87.2431 272.571 87.0728C271.972 86.431 271.398 85.763 270.863 85.0558C271.163 84.3223 271.476 83.8377 271.763 83.6543L273.067 87.5836Z" fill="#323657"/>
<path d="M129.306 39.9609H99.0302C97.3482 39.9609 95.9922 38.5987 95.9922 36.9091V34.5254C95.9922 32.8358 97.3482 31.4736 99.0302 31.4736H129.293C130.975 31.4736 132.331 32.8358 132.331 34.5254V36.9091C132.344 38.5856 130.988 39.9609 129.306 39.9609Z" fill="#F5F7FF"/>
<path d="M311.535 178.887C311.535 190.347 302.29 199.712 290.803 199.712C279.329 199.712 270.059 190.36 270.059 178.887C270.059 167.387 279.342 158.062 290.803 158.062C302.251 158.062 311.535 167.387 311.535 178.887Z" fill="#C4D9F9"/>
<path d="M290.789 187.191C290.215 187.191 289.746 186.719 289.746 186.143V171.631C289.746 171.055 290.215 170.583 290.789 170.583C291.363 170.583 291.832 171.055 291.832 171.631V186.143C291.845 186.719 291.376 187.191 290.789 187.191Z" fill="#949494"/>
<path d="M298.013 179.934H283.567C282.993 179.934 282.523 179.463 282.523 178.887C282.523 178.31 282.993 177.839 283.567 177.839H298.013C298.587 177.839 299.056 178.31 299.056 178.887C299.07 179.463 298.6 179.934 298.013 179.934Z" fill="#949494"/>
<path d="M246.509 130.518H235.205C232.962 130.518 231.137 128.684 231.137 126.431V115.076C231.137 112.823 232.962 110.989 235.205 110.989H246.509C248.752 110.989 250.577 112.823 250.577 115.076V126.431C250.577 128.684 248.752 130.518 246.509 130.518Z" fill="#606BF1"/>
<path d="M240.239 125.056L235.324 120.747C234.919 120.394 234.88 119.778 235.232 119.372C235.584 118.966 236.197 118.927 236.601 119.28L240.083 122.332L245.037 116.779C245.389 116.373 246.002 116.346 246.406 116.7C246.811 117.054 246.837 117.669 246.485 118.075L240.239 125.056Z" fill="#F3F3F3"/>
<path d="M246.509 155.547H235.205C232.962 155.547 231.137 153.713 231.137 151.461V140.105C231.137 137.852 232.962 136.019 235.205 136.019H246.509C248.752 136.019 250.577 137.852 250.577 140.105V151.461C250.577 153.727 248.752 155.547 246.509 155.547Z" fill="#606BF1"/>
<path d="M240.239 150.086L235.324 145.777C234.919 145.423 234.88 144.807 235.232 144.401C235.584 143.995 236.197 143.956 236.601 144.31L240.083 147.361L245.037 141.808C245.389 141.402 246.002 141.376 246.406 141.729C246.811 142.083 246.837 142.699 246.485 143.105L240.239 150.086Z" fill="#F3F3F3"/>
<path d="M246.509 180.59H235.205C232.962 180.59 231.137 178.756 231.137 176.504V165.148C231.137 162.895 232.962 161.062 235.205 161.062H246.509C248.752 161.062 250.577 162.895 250.577 165.148V176.504C250.577 178.756 248.752 180.59 246.509 180.59Z" fill="#606BF1"/>
<path d="M152.879 301.612C152.879 301.612 151.888 303.852 151.054 304.73C150.219 305.62 147.025 307.192 147.012 309.825C146.999 312.68 152.397 311.881 154.509 311.776C156.621 311.671 156.778 310.152 157.664 308.541C158.551 306.93 159.451 307.205 159.62 305.895C159.79 304.599 158.942 301.678 158.942 301.678L152.879 301.612Z" fill="#131C24"/>
<path d="M152.789 300.787L152.633 302.136C152.633 302.136 155.958 303.249 159.1 302.254L158.931 300.407L152.789 300.787Z" fill="#4F4946"/>
<path d="M191.826 301.612C191.826 301.612 192.817 303.852 193.651 304.73C194.486 305.62 197.68 307.192 197.693 309.825C197.706 312.68 192.308 311.881 190.196 311.776C188.084 311.671 187.927 310.152 187.041 308.541C186.154 306.93 185.254 307.205 185.085 305.895C184.915 304.599 185.763 301.678 185.763 301.678L191.826 301.612Z" fill="#131C24"/>
<path d="M191.916 300.787L192.073 302.136C192.073 302.136 188.748 303.249 185.605 302.254L185.775 300.407L191.916 300.787Z" fill="#4F4946"/>
<path d="M190.169 264.808C190.169 268.318 193.428 300.407 193.428 300.407C193.05 301.573 185.031 301.442 183.78 300.853C182.528 300.263 178.89 268.462 178.668 264.926C178.434 261.377 173.218 230.558 172.123 230.676C171.028 230.794 165.825 263.826 164.952 266.511C164.078 269.209 160.101 301.154 160.101 301.154C157.35 302.673 150.805 300.774 150.805 300.774C150.805 300.774 152.174 267.978 152.33 266.982C152.565 265.515 152.317 261.56 152.956 252.798C153.53 244.952 155.577 227.886 156.881 218.639C156.933 218.312 156.972 217.997 157.011 217.696C157.272 215.902 157.454 214.579 157.546 213.937C157.585 213.662 157.611 213.518 157.611 213.518C157.963 213.361 158.328 213.23 158.706 213.099C167.872 210.021 185.305 210.217 185.305 210.217C185.305 210.217 185.54 213.361 185.566 213.518C185.592 213.701 185.631 213.989 185.67 214.369C185.774 215.181 185.918 216.399 186.1 217.801C186.1 217.814 186.1 217.827 186.1 217.827C186.1 217.866 186.114 217.919 186.114 217.958C186.726 222.974 187.6 230.309 187.522 231.082C187.43 232.261 190.169 261.298 190.169 264.808Z" fill="#56548C"/>
<path d="M191.475 160.865L186.977 177.08C186.821 177.604 186.638 178.259 186.443 179.005L186.429 179.032C186.429 179.032 186.429 179.045 186.429 179.058C185.673 181.952 184.747 186.353 184.474 191.252C184.291 194.592 184.904 208.003 184.904 208.003C184.904 208.003 178.098 210.557 167.901 209.916C167.901 209.916 156.936 209.654 157.836 202.908C160.196 185.043 157.888 177.669 157.575 175.875C157.575 175.875 156.284 167.637 155.215 160.367C158.305 159.215 171.279 154.316 171.279 154.316L178.111 154.827C178.111 154.84 188.477 157.394 191.475 160.865Z" fill="#A4A4A4"/>
<path d="M174.705 131.396C174.705 131.396 181.368 132.522 180.234 143C179.099 153.478 173.219 152.548 172.828 152.535C172.436 152.522 166.908 152.666 166.621 139.857C166.621 139.857 166.543 130.387 174.705 131.396Z" fill="#FFC8AF"/>
<path d="M177.625 149.497C177.625 149.497 177.391 153.806 177.795 154.749C178.199 155.692 172.449 158.652 168.863 155.273C168.863 155.273 169.58 150.558 169.359 148.894C169.137 147.231 177.625 149.497 177.625 149.497Z" fill="#FFC8AF"/>
<path d="M180.365 140.04C180.365 140.04 181.108 139.267 181.369 140.066C181.63 140.865 180.183 144.388 180.274 144.559C180.274 144.559 180.144 144.86 179.961 144.69C179.792 144.506 180.365 140.04 180.365 140.04Z" fill="#FFC8AF"/>
<path d="M166.701 139.752C166.701 139.752 165.997 138.94 165.697 139.725C165.397 140.511 166.467 144.035 166.61 144.257C166.61 144.257 166.845 144.624 167.014 144.454C167.197 144.297 166.701 139.752 166.701 139.752Z" fill="#FFC8AF"/>
<path d="M180.797 139.149C180.562 140.577 180.354 141.651 180.354 141.651L179.389 142.921C179.389 142.921 179.441 140.105 179.298 139.66C179.245 139.49 179.18 139.202 179.102 138.874C178.998 138.35 178.88 137.748 178.802 137.551C178.672 137.237 173.091 135.6 168.11 137.892C168.11 137.892 168.149 138.324 168.149 138.809C168.149 139.372 168.084 140.001 167.823 140.092C167.341 140.263 167.55 143.38 167.55 143.38L166.78 142.476C166.78 142.476 166.559 140.852 166.337 138.979C166.337 138.979 166.337 138.979 166.337 138.966C166.285 138.534 166.233 138.075 166.194 137.63C166.076 135.744 166.272 132.326 168.71 130.322C170.353 129.614 174.851 128.894 177.368 130.361C177.368 130.361 178.711 131.199 178.998 131.474C181.71 134.5 180.797 139.149 180.797 139.149Z" fill="#E8734D"/>
<path d="M169.828 151.134C169.828 151.134 170.897 152.614 173.362 152.561C175.839 152.509 176.908 151.212 176.908 151.212C176.908 151.212 175.735 153.675 173.349 153.649C170.962 153.622 169.828 151.134 169.828 151.134Z" fill="#C78D71"/>
<path d="M168.188 155.364C168.188 155.364 169.974 158.481 173.364 158.782C175.515 158.966 177.354 156.228 178.227 154.879C178.227 154.879 173.442 152.823 168.188 155.364Z" fill="#FFC8AF"/>
<path d="M177.627 153.897C177.627 153.897 176.271 155.692 173.363 157.604L175.163 160.394L178.24 154.854L177.627 153.897Z" fill="#CFCFCF"/>
<path d="M169.007 154.316C169.007 154.316 170.741 156.504 173.362 157.604L171.38 160.485L167.938 155.574L169.007 154.316Z" fill="#CFCFCF"/>
<path d="M173.363 157.617L174.914 159.975C174.914 159.975 173.285 160.905 171.785 159.922L173.363 157.617Z" fill="#FFD760"/>
<path d="M157.453 211.133C157.453 211.133 165.811 214.238 184.717 211.317L184.469 207.872C184.469 207.872 173.517 211.12 157.792 208.344L157.453 211.133Z" fill="#1A2833"/>
<path d="M178.251 154.866C178.251 154.866 176.295 169.549 176.569 182.201C176.843 194.853 180.924 218.573 180.924 218.573C180.924 218.573 188.213 217.853 190.025 215.574C190.025 215.574 185.84 192.744 185.957 189.352C186.075 185.973 191.316 160.524 191.316 160.524C191.316 160.524 189.269 157.787 178.251 154.866Z" fill="#56548C"/>
<path d="M167.782 155.64C167.782 155.64 167.769 169.562 167.495 182.215C167.221 194.867 165.565 218.416 165.565 218.416C165.565 218.416 157.012 217.198 155.199 214.906C155.199 214.906 158.211 192.745 158.094 189.366C157.976 185.987 154.234 160.787 154.234 160.787C154.234 160.787 155.538 158.927 167.782 155.64Z" fill="#56548C"/>
<path d="M173.989 208.934H168.852V212.771H173.989V208.934Z" fill="#3E5E78"/>
<path d="M172.646 159.386C172.646 159.386 170.352 167.244 170.156 182.87C169.96 198.495 170.443 202.975 170.443 202.975L172.229 206.537L174.615 202.817C174.615 202.817 173.846 166.878 174.289 159.661L172.646 159.386Z" fill="#FFD760"/>
<path d="M182.215 181.363C182.215 181.363 185.605 179.647 186.074 179.346C186.544 179.044 192.216 178.193 192.933 178.219C193.65 178.246 193.676 178.809 193.48 179.018C193.272 179.228 187.613 180.158 187.509 180.289C187.404 180.42 187.991 180.38 187.991 180.38C187.991 180.38 194.106 180.289 194.523 180.695C194.954 181.101 194.458 181.494 194.21 181.599C194.21 181.599 194.771 182.24 194.119 182.502C193.48 182.764 192.607 182.934 192.607 182.934C192.607 182.934 193.415 183.354 192.881 183.72C192.346 184.087 185.879 186.104 185.879 186.104C185.879 186.104 183.48 181.494 182.215 181.363Z" fill="#FFC8AF"/>
<path d="M193.888 193.124C189.481 194.185 179.272 192.469 175.386 191.605C174.565 191.422 173.626 191.225 172.674 191.042C171.084 190.727 169.428 190.426 168.085 190.177C166.429 189.876 165.242 189.68 165.242 189.68C165.242 189.68 186.652 184.847 187.434 184.847C188.229 184.847 185.452 172.273 185.452 172.273C185.452 172.273 182.701 161.742 184.122 157.604C184.122 157.604 189.559 159.254 191.307 160.524C192.284 161.232 193.015 165.79 193.68 168.894C194.527 172.823 196.496 181.795 196.718 183.681C196.926 185.41 198.295 192.063 193.888 193.124Z" fill="#56548C"/>
<path d="M161.132 157.669C161.132 157.669 154.561 159.922 154.248 160.786C152.918 164.414 152.305 168.383 151.875 169.968C151.353 171.906 150.167 177.721 149.854 179.607C149.463 182.017 148.719 190.583 149.045 191.893C149.463 193.556 153.361 193.438 155.473 193.111C157.586 192.784 186.871 185.619 186.871 185.619C186.871 185.619 185.202 180.144 185.11 179.66C185.11 179.66 162.54 182.253 159.659 182.869C158.016 183.222 157.664 183.353 157.664 183.353C157.664 183.353 162.619 162.829 161.132 157.669Z" fill="#56548C"/>
<path d="M165.019 182.162C165.019 182.162 162.072 179.752 161.681 179.359C161.29 178.967 155.931 176.91 155.227 176.779C154.523 176.648 154.405 177.211 154.458 177.486C154.549 177.984 160.012 179.818 160.077 179.975C160.142 180.132 159.595 179.949 159.595 179.949C159.595 179.949 153.649 178.534 153.141 178.849C152.632 179.163 153.036 179.648 153.245 179.792C153.245 179.792 152.567 180.302 153.141 180.695C153.714 181.088 154.523 181.442 154.523 181.442C154.523 181.442 153.649 181.678 154.079 182.149C154.523 182.634 157.652 183.341 157.652 183.341C157.652 183.341 163.754 182.018 165.019 182.162Z" fill="#FFC8AF"/>
<path d="M182.607 186.654L172.672 191.029C171.081 190.715 169.425 190.413 168.082 190.164L182.607 186.654Z" fill="#263947"/>
<path d="M177.82 131.317C177.82 131.317 179.476 130.479 180.363 131.579C181.263 132.679 181.354 138.639 180.259 140.931C179.176 143.21 180.441 132.797 177.82 131.317Z" fill="#E8734D"/>
<path d="M114.897 190.426H111.938V325.41H114.897V190.426Z" fill="#706865"/>
<path d="M119.056 303.13H39.52C34.6174 303.13 30.6406 299.136 30.6406 294.224V142.947C30.6406 138.022 34.6174 134.027 39.52 134.027H119.043C123.946 134.027 127.922 138.022 127.922 142.947V294.211C127.922 299.149 123.946 303.13 119.056 303.13Z" fill="#BDAFAA"/>
<path d="M116.489 296.529H42.0901C37.2528 296.529 33.3281 292.587 33.3281 287.728V145.566C33.3281 140.707 37.2528 136.765 42.0901 136.765H116.489C121.326 136.765 125.251 140.707 125.251 145.566V287.715C125.251 292.587 121.326 296.529 116.489 296.529Z" fill="white"/>
<path d="M93.7741 132.757H64.7891V139.332H93.7741V132.757Z" fill="#706865"/>
<path d="M107.555 290.138H48.7111C43.9389 290.138 40.0664 286.248 40.0664 281.455V247.807C40.0664 243.013 43.9389 239.123 48.7111 239.123H107.555C112.327 239.123 116.199 243.013 116.199 247.807V281.455C116.199 286.248 112.327 290.138 107.555 290.138ZM48.7111 240.236C44.5517 240.236 41.1747 243.629 41.1747 247.807V281.455C41.1747 285.633 44.5517 289.025 48.7111 289.025H107.555C111.701 289.025 115.091 285.633 115.091 281.455V247.807C115.091 243.642 111.714 240.236 107.555 240.236H48.7111Z" fill="#DBE6F7"/>
<path d="M54.7629 208.75H54.75C54.8017 208.776 54.8146 208.776 54.7629 208.75Z" fill="#323657"/>
<path d="M105.861 205.108C100.567 205.108 96.2773 200.786 96.2773 195.469C96.2773 190.151 100.58 185.842 105.861 185.842C111.155 185.842 115.444 190.164 115.444 195.469C115.457 200.786 111.155 205.108 105.861 205.108ZM105.861 186.968C101.193 186.968 97.3856 190.793 97.3856 195.482C97.3856 200.184 101.193 203.995 105.861 203.995C110.529 203.995 114.336 200.171 114.336 195.482C114.336 190.78 110.542 186.968 105.861 186.968Z" fill="#DBE6F7"/>
<path d="M105.861 227.309C100.567 227.309 96.2773 222.987 96.2773 217.682C96.2773 212.365 100.58 208.056 105.861 208.056C111.155 208.056 115.444 212.378 115.444 217.682C115.457 222.987 111.155 227.309 105.861 227.309ZM105.861 209.169C101.193 209.169 97.3856 212.993 97.3856 217.682C97.3856 222.371 101.193 226.196 105.861 226.196C110.529 226.196 114.336 222.371 114.336 217.682C114.336 212.993 110.542 209.169 105.861 209.169Z" fill="#DBE6F7"/>
<path d="M62.6369 195.901C61.8416 195.901 61.0462 195.862 60.2509 195.783C59.3773 195.704 58.5037 195.573 57.6692 195.39C54.0053 194.643 50.4979 193.032 47.512 190.74C46.6254 190.059 45.7909 189.313 45.0086 188.527C44.8521 188.37 44.6957 188.199 44.5522 188.055C44.0046 187.466 43.47 186.85 42.9746 186.209C39.5845 181.808 37.7852 176.53 37.7852 170.95C37.7852 157.197 48.9333 145.999 62.6239 145.999V147.112C49.5461 147.112 38.8934 157.8 38.8934 170.95C38.8934 176.281 40.6015 181.323 43.8482 185.528C44.3176 186.143 44.8261 186.733 45.3606 187.296C45.491 187.44 45.6345 187.584 45.7909 187.741C46.5341 188.501 47.3425 189.208 48.19 189.863C51.0325 192.063 54.3834 193.596 57.8908 194.303C58.6992 194.473 59.5207 194.591 60.3552 194.67C61.1114 194.748 61.8807 194.774 62.6369 194.774C62.9108 194.774 63.1715 194.774 63.4193 194.761C64.1364 194.735 64.8535 194.683 65.5576 194.591C69.4301 194.12 73.1592 192.666 76.3537 190.4C76.6927 190.164 77.0186 189.915 77.3316 189.666C77.6054 189.457 77.8792 189.221 78.166 188.972C79.1179 188.147 80.0045 187.243 80.8129 186.274C84.3985 181.991 86.3674 176.543 86.3674 170.937C86.3674 169.771 86.2761 168.592 86.1197 167.44L87.2279 167.283C87.4105 168.488 87.4887 169.719 87.4887 170.937C87.4887 176.805 85.4156 182.502 81.6735 186.994C80.8259 188.003 79.8871 188.959 78.8962 189.824C78.5963 190.086 78.3095 190.321 78.0226 190.544C77.6966 190.806 77.3576 191.055 77.0056 191.317C73.6677 193.7 69.7561 195.22 65.701 195.717C64.9709 195.809 64.2146 195.862 63.4714 195.888C63.1976 195.901 62.9238 195.901 62.6369 195.901Z" fill="#DBE6F7"/>
<path d="M79.9655 184.165C79.8872 184.06 79.796 183.969 79.7177 183.89C79.6917 183.851 79.6525 183.825 79.5874 183.785C79.5743 183.785 79.5743 183.772 79.5613 183.772C78.4921 183.183 75.3758 181.624 69.2085 179.843C68.0872 179.502 67.2397 179.28 66.9528 179.201C66.8746 179.188 66.8485 179.175 66.8485 179.175L66.6008 179.162C66.6008 179.149 66.5878 179.123 66.5878 179.109C66.34 178.546 66.3661 176.608 66.4052 175.442C67.2788 174.434 68.0611 172.849 68.5044 170.386C68.6479 170.491 68.7522 170.255 68.7522 170.255C68.6739 170.111 69.9257 167.047 69.704 166.365C69.5736 165.973 69.3128 166.025 69.1173 166.13C69.1433 165.959 69.1825 165.763 69.2085 165.567C69.2085 165.567 69.704 160.864 67.331 158.245C67.0832 158.009 66.2096 157.944 66.2096 157.944C62.4023 156.778 60.1206 157.302 58.6993 157.904C56.5871 159.646 56.4176 162.606 56.5219 164.244C56.561 164.623 56.6131 165.016 56.6523 165.396C56.6523 165.409 56.6523 165.409 56.6523 165.409C56.6653 165.553 56.6914 165.711 56.7044 165.855C56.5088 165.737 56.2481 165.671 56.1046 166.064C55.8569 166.745 56.7696 169.81 56.887 169.993C56.887 169.993 57.0825 170.308 57.239 170.164C57.6823 172.849 58.4646 174.512 59.2861 175.521C59.2078 177.027 58.934 178.913 58.8558 179.411C58.6602 179.476 58.4646 179.542 58.243 179.62C58.1647 179.646 58.0865 179.673 58.0083 179.699C57.9561 179.712 57.904 179.725 57.8649 179.751C47.2383 182.606 44.2264 184.584 44.2264 184.584C43.9656 184.754 43.6918 185.187 43.418 185.855C43.9004 186.483 44.4219 187.086 44.9565 187.662C45.1 187.819 45.2434 187.977 45.3999 188.121C46.1691 188.893 46.9906 189.627 47.8511 190.295C50.7196 192.508 54.0967 194.093 57.7736 194.84C58.595 195.01 59.4425 195.141 60.3031 195.219C61.0724 195.298 61.8417 195.324 62.637 195.324C62.9108 195.324 63.1716 195.324 63.4324 195.311C64.1756 195.285 64.8927 195.233 65.6229 195.141C69.704 194.643 73.4722 193.124 76.6667 190.845C77.0057 190.596 77.3447 190.347 77.6707 190.085C77.9575 189.863 78.2444 189.627 78.5182 189.378C79.4961 188.527 80.3957 187.61 81.2302 186.614C80.7739 185.527 80.3436 184.663 79.9655 184.165Z" fill="#DBE6F7"/>
<path d="M340.489 240.304H369.266V238.588H340.489V240.304Z" fill="#E2D2CA"/>
<path d="M365.395 244.769H362.879V322.804H365.395V244.769Z" fill="#706865"/>
<path d="M324.983 240.549H344.984V238.1H324.983V240.549Z" fill="#CCBDB7"/>
<path d="M331.206 240.299H338.781V217.195H331.206V240.299Z" fill="#606BF1"/>
<path d="M268.762 244.772H379.578V240.332H268.762V244.772Z" fill="#B59074"/>
<path d="M400.85 213.478C400.85 213.478 402.063 230.557 398.738 232.6C396.652 233.884 388.359 238.193 388.607 239.005C388.855 239.817 393.288 246.209 393.288 246.209C393.288 246.209 409.221 235.665 409.73 232.351C410.225 229.103 408.947 207.348 406.757 206.353C405.114 205.606 404.253 206.222 402.18 207.767C399.299 209.915 400.85 213.478 400.85 213.478Z" fill="#323657"/>
<path d="M371.811 218.35L370.402 217.827C370.402 217.827 372.15 213.701 372.919 213.793C373.806 213.91 374.901 214.199 374.901 214.199L371.811 218.35Z" fill="#EAD8CF"/>
<path d="M371.484 219.058C371.667 218.927 374.47 213.518 374.47 213.518L380.468 214.33L377.234 220.734L371.484 219.058Z" fill="#DA9B5B"/>
<path d="M381.254 312.142C381.254 312.142 381.749 315.6 381.815 316.111C381.88 316.635 387.33 315.81 387.33 315.81L387.773 311.697C387.76 311.697 381.932 311.658 381.254 312.142Z" fill="#424773"/>
<path d="M381.749 315.679C381.749 315.679 380.028 317.761 378.346 318.665C376.677 319.568 374.056 319.935 373.065 320.865C372.348 321.546 370.47 324.467 377.407 324.401C384.343 324.349 387.681 324.807 388.438 323.694C389.181 322.581 387.355 315.43 387.355 315.43C387.355 315.43 385.713 316.045 381.749 315.679Z" fill="#292C47"/>
<path d="M346.332 312.181C346.332 312.181 346.827 315.639 346.893 316.15C346.958 316.674 352.408 315.849 352.408 315.849L352.851 311.736C352.838 311.736 347.01 311.697 346.332 312.181Z" fill="#424773"/>
<path d="M346.828 315.717C346.828 315.717 345.094 317.8 343.425 318.703C341.756 319.607 335.602 320.354 334.624 321.297C333.907 321.978 332.72 324.702 342.486 324.453C349.423 324.27 352.761 324.859 353.504 323.746C354.247 322.633 352.435 315.481 352.435 315.481C352.435 315.481 350.883 316.11 346.828 315.717Z" fill="#292C47"/>
<path d="M398.827 252.469C398.827 252.469 379.008 255.835 374.536 256.542C370.064 257.249 345.799 263.314 342.761 265.16C340.349 266.627 344.026 301.965 344.886 315.442H354.443L355.135 275.01C366.609 275.298 374.784 272.312 383.142 273.582C391.499 274.853 398.462 276.673 403.769 269.522C403.769 269.522 403.964 254.027 398.827 252.469Z" fill="#292C47"/>
<path d="M379.297 315.482L388.606 314.906L389.519 275.011C394.461 275.128 396.143 274.814 400.146 274.33L407.669 256.766C401.084 258.088 379.962 263.445 377.145 265.161C374.72 266.641 378.436 302.005 379.297 315.482Z" fill="#292C47"/>
<path d="M389.7 177.865C389.7 177.865 382.438 175.848 379.66 181.519C376.896 187.177 378.148 197.918 381.812 198.926C385.476 199.935 390.743 198.769 392.256 195.246C393.781 191.722 394.994 186.706 394.629 183.471C394.264 180.223 391.63 178.638 389.7 177.865Z" fill="#FFC8AF"/>
<path d="M383.715 197.787C383.715 197.787 383.793 202.096 383.324 203.013C382.854 203.929 393.442 203.707 393.442 203.707C393.442 203.707 391.773 198.533 392.725 194.132C393.651 189.771 383.715 197.787 383.715 197.787Z" fill="#FFC8AF"/>
<path d="M393.289 192.495C393.289 192.495 392.728 193.648 389.977 193.465C387.239 193.281 383.627 189.954 382.453 189.666C381.293 189.365 381.215 188.71 381.215 188.71L380.602 189.81L379.415 189.994C379.415 189.994 380.224 186.667 378.464 185.488C376.703 184.322 379.259 174.879 388.19 177.158C388.19 177.158 395.01 178.415 395.101 182.24C395.205 186.051 394.605 190.465 393.289 192.495Z" fill="#3A3F47"/>
<path d="M382.762 202.908C382.762 202.908 382.788 201.153 383.583 200.983C384.379 200.812 391.902 199.778 392.88 200.157L393.297 202.476C393.297 202.476 391.419 203.628 382.762 202.908Z" fill="#E2D2CA"/>
<path d="M380.586 187.911C380.795 186.47 382.412 184.82 383.35 187.06C384.276 189.3 382.725 192.561 381.668 192.391C380.625 192.22 380.312 189.863 380.586 187.911Z" fill="#FFC8AF"/>
<path d="M351.226 223.642C351.226 223.642 351.239 223.642 351.226 223.642C351.187 223.668 351.174 223.668 351.226 223.642Z" fill="#323657"/>
<path d="M391.824 178.887C391.824 178.887 400.678 178.468 393.376 192.351L391.824 178.887Z" fill="#3A3F47"/>
<path d="M411.552 320.21L410.9 322.07L383.062 313.413L384.392 309.641L411.552 320.21Z" fill="#918783"/>
<path d="M382.093 312.089H385.262V281.689H382.093V312.089Z" fill="#918783"/>
<path d="M374.365 281.86H393.023V280.066H374.365V281.86Z" fill="#5E5854"/>
<path d="M355.578 320.21L356.23 322.07L384.068 313.412L382.842 309.404L355.578 320.21Z" fill="#918783"/>
<path d="M375.191 321.873V324.034L384.071 313.412L382.845 309.404L375.191 321.873Z" fill="#918783"/>
<path d="M352.973 322.803C352.973 324.244 354.133 325.423 355.58 325.423C357.015 325.423 358.188 324.257 358.188 322.803C358.188 321.362 357.028 320.184 355.58 320.184C354.146 320.184 352.973 321.362 352.973 322.803Z" fill="#BFB2AC"/>
<path d="M374.969 322.803C374.969 324.244 376.129 325.423 377.576 325.423C379.011 325.423 380.184 324.257 380.184 322.803C380.184 321.362 379.024 320.184 377.576 320.184C376.129 320.184 374.969 321.362 374.969 322.803Z" fill="#BFB2AC"/>
<path d="M408.961 322.803C408.961 324.244 410.121 325.423 411.569 325.423C413.003 325.423 414.176 324.257 414.176 322.803C414.176 321.362 413.016 320.184 411.569 320.184C410.121 320.184 408.961 321.362 408.961 322.803Z" fill="#BFB2AC"/>
<path d="M364.795 280.066H402.333C404.172 280.066 405.671 278.573 405.671 276.713V276.622C405.671 274.775 404.172 273.269 402.333 273.269H364.795C362.956 273.269 361.457 274.775 361.457 276.622V276.713C361.457 278.573 362.956 280.066 364.795 280.066Z" fill="#E2D2CA"/>
<path d="M282.948 322.801H285.465V244.765H282.948V322.801Z" fill="#706865"/>
<path d="M305.614 228.33H364.366C366.205 228.33 367.691 226.837 367.691 224.991V185.331C367.691 183.484 366.205 181.991 364.366 181.991H305.614C303.775 181.991 302.289 183.484 302.289 185.331V224.991C302.289 226.824 303.775 228.33 305.614 228.33Z" fill="#7181F4"/>
<path d="M304.851 221.067H365.129V184.486H304.851V221.067Z" fill="#F5F7FF"/>
<path d="M304.851 187.399H365.129V184.492H304.851V187.399Z" fill="#CECFD6"/>
<path d="M309.134 218.808H312.29C313.424 218.808 314.35 217.878 314.35 216.739V191.644C314.35 190.504 313.424 189.574 312.29 189.574H309.134C308 189.574 307.074 190.504 307.074 191.644V216.739C307.074 217.878 308 218.808 309.134 218.808Z" fill="#CECFD6"/>
<path d="M351.276 192.299H362.307C362.92 192.299 363.415 191.801 363.415 191.185V190.714C363.415 190.098 362.92 189.601 362.307 189.601H351.276C350.663 189.601 350.168 190.098 350.168 190.714V191.185C350.168 191.788 350.663 192.299 351.276 192.299Z" fill="#CECFD6"/>
<path d="M352.463 219.555H361.133C362.398 219.555 363.428 218.52 363.428 217.25V196.412C363.428 195.141 362.398 194.106 361.133 194.106H352.463C351.198 194.106 350.168 195.141 350.168 196.412V217.25C350.168 218.52 351.198 219.555 352.463 219.555Z" fill="#CECFD6"/>
<path d="M332.879 224.571C332.879 225.737 333.818 226.693 334.991 226.693C336.152 226.693 337.103 225.75 337.103 224.571C337.103 223.405 336.165 222.449 334.991 222.449C333.818 222.449 332.879 223.405 332.879 224.571Z" fill="#59524F"/>
<path d="M321.441 240.393V239.568C321.441 239.568 322.589 234.434 330.764 234.434C338.926 234.434 338.77 240.393 338.77 240.393H321.441V240.393Z" fill="#606BF1"/>
<path d="M338.864 235.194C338.864 235.194 337.091 235.05 336.439 234.657C335.787 234.264 331.901 231.631 330.988 232.063C330.076 232.483 324 234.355 324.208 235.246C324.417 236.137 324.978 236.058 325.408 235.901C325.838 235.744 330.245 234.814 330.636 234.971C330.636 234.971 326.308 236.556 326.282 237.722C326.268 238.874 327.194 239.162 327.598 239.608C328.016 240.04 328.498 241.127 329.619 241.219C330.741 241.297 336.191 239.398 337.312 239.306C338.434 239.215 340.507 239.372 340.65 239.188C340.807 238.992 338.864 235.194 338.864 235.194Z" fill="#FFC8AF"/>
<path d="M371.159 205.344C376.818 204.349 382.764 202.908 382.764 202.908L393.299 202.476C393.299 202.476 402.961 204.61 406.768 206.339C407.133 206.497 407.133 214.997 408.124 217.237L404.969 223.929C404.969 223.929 403.143 237.184 402.765 243.078C402.596 245.789 403.261 269.221 403.261 269.221C403.261 269.221 402.309 269.693 395.124 270.491C387.94 271.29 369.973 270.203 369.855 269.352C369.738 268.501 373.337 237.59 373.493 235.992C373.741 233.53 372.789 222.187 372.789 222.187C371.433 224.008 367.978 232.273 364.379 236.189C362.267 238.494 351.784 239.922 349.802 239.987C345.499 240.131 337.65 240.996 337.428 240.577C337.246 240.328 336.75 233.582 337.233 233.412C337.663 233.268 352.227 232.43 355.969 230.439C357.338 229.706 361.419 220.773 361.419 220.773C361.419 220.773 368.043 206.745 371.159 205.344Z" fill="#323657"/>
<path d="M391.918 268.527H409.598C413.132 268.527 416 265.646 416 262.096V232.548C416 228.999 413.132 226.117 409.598 226.117H391.918C388.384 226.117 385.516 228.999 385.516 232.548V262.096C385.516 265.646 388.371 268.527 391.918 268.527Z" fill="#E2D2CA"/>
<path d="M390.914 278.376C395.412 278.376 399.05 276.857 401.749 273.871C407.838 267.113 406.743 255.233 406.704 254.722C406.612 253.792 405.778 253.098 404.852 253.19C403.926 253.281 403.235 254.12 403.327 255.05C403.34 255.181 404.304 265.96 399.232 271.579C397.172 273.858 394.46 274.958 390.914 274.958C389.975 274.958 389.219 275.718 389.219 276.661C389.219 277.617 389.975 278.376 390.914 278.376Z" fill="#E2D2CA"/>
<path d="M335.864 199.437C335.864 201.533 335.108 203.458 333.87 204.938C333.583 205.292 333.257 205.606 332.918 205.907C332.813 205.999 332.722 206.077 332.618 206.156C332.501 206.248 332.383 206.339 332.266 206.418C331.144 207.217 329.828 207.754 328.393 207.924C328.146 207.95 327.885 207.977 327.624 207.977C327.533 207.977 327.441 207.977 327.35 207.977C327.076 207.977 326.803 207.963 326.529 207.937C326.229 207.911 325.929 207.859 325.642 207.806C324.351 207.544 323.165 206.994 322.161 206.208C321.861 205.973 321.574 205.724 321.3 205.449C321.248 205.396 321.196 205.344 321.144 205.292C320.948 205.095 320.779 204.872 320.609 204.65C319.501 203.209 318.836 201.388 318.836 199.424C318.836 194.696 322.643 190.871 327.35 190.871C332.057 190.884 335.864 194.709 335.864 199.437Z" fill="#EEF0F7"/>
<path d="M332.893 204.153L332.267 206.418C331.146 207.217 329.829 207.754 328.394 207.925C328.147 207.951 327.886 207.977 327.625 207.977C327.534 207.977 327.443 207.977 327.351 207.977C327.078 207.977 326.804 207.964 326.53 207.938C326.23 207.911 325.93 207.859 325.643 207.807C324.352 207.545 323.166 206.995 322.162 206.209C322.045 205.462 321.914 204.637 321.797 203.864C322.423 203.629 324.418 202.948 325.669 202.528C325.682 202.528 325.708 202.515 325.721 202.515C325.748 202.502 325.774 202.502 325.8 202.489C325.878 202.463 325.943 202.437 326.008 202.424C326.074 202.397 326.139 202.371 326.204 202.358C326.465 202.266 326.647 202.214 326.712 202.188C326.725 202.188 326.739 202.175 326.739 202.175H326.752L328.447 202.306L328.733 202.332H328.825C328.825 202.332 328.838 202.332 328.864 202.345C328.968 202.371 329.268 202.45 329.659 202.568C330.663 202.869 332.28 203.445 332.893 204.153Z" fill="#D9C7C1"/>
<path d="M327.792 195.194C327.792 195.194 329.813 195.534 329.474 198.73C329.135 201.913 327.336 201.638 327.219 201.638C327.101 201.638 325.419 201.677 325.328 197.774C325.328 197.761 325.302 194.88 327.792 195.194Z" fill="#EEA987"/>
<path d="M328.679 200.694C328.679 200.694 328.614 202.004 328.732 202.292C328.849 202.581 327.102 203.484 326.02 202.45C326.02 202.45 326.241 201.022 326.176 200.511C326.098 200.013 328.679 200.694 328.679 200.694Z" fill="#EEA987"/>
<path d="M329.514 197.813C329.514 197.813 329.736 197.577 329.814 197.813C329.892 198.062 329.449 199.136 329.488 199.175C329.488 199.175 329.449 199.267 329.397 199.214C329.345 199.175 329.514 197.813 329.514 197.813Z" fill="#EEA987"/>
<path d="M325.355 197.735C325.355 197.735 325.133 197.486 325.055 197.735C324.964 197.97 325.29 199.044 325.329 199.11C325.329 199.11 325.394 199.215 325.459 199.175C325.511 199.11 325.355 197.735 325.355 197.735Z" fill="#EEA987"/>
<path d="M329.645 197.551C329.58 197.983 329.515 198.311 329.515 198.311L329.215 198.704C329.215 198.704 329.228 197.852 329.189 197.708C329.176 197.656 329.15 197.564 329.136 197.473C329.097 197.315 329.071 197.132 329.045 197.067C329.006 196.975 327.311 196.464 325.799 197.171C325.799 197.171 325.812 197.302 325.812 197.446C325.812 197.617 325.786 197.813 325.707 197.839C325.564 197.892 325.629 198.835 325.629 198.835L325.394 198.56C325.394 198.56 325.329 198.062 325.264 197.499C325.251 197.368 325.238 197.224 325.212 197.093C325.173 196.517 325.238 195.482 325.981 194.866C326.477 194.657 327.285 194.473 328.615 194.879C328.615 194.879 328.915 194.906 329.006 194.984C329.814 195.901 329.645 197.551 329.645 197.551Z" fill="#E8734D"/>
<path d="M326.309 201.192C326.309 201.192 326.635 201.638 327.391 201.625C328.147 201.612 328.473 201.219 328.473 201.219C328.473 201.219 328.121 201.965 327.391 201.952C326.661 201.952 326.309 201.192 326.309 201.192Z" fill="#C78D71"/>
<path d="M325.809 202.49C325.809 202.49 326.356 203.446 327.386 203.524C328.038 203.577 328.612 202.752 328.873 202.346C328.873 202.346 327.399 201.704 325.809 202.49Z" fill="#EEA987"/>
<path d="M328.679 202.044C328.679 202.044 328.262 202.594 327.375 203.17L327.923 204.022L328.861 202.345L328.679 202.044Z" fill="#EDDAD3"/>
<path d="M326.06 202.162C326.06 202.162 326.582 202.83 327.39 203.158L326.79 204.035L325.734 202.503L326.06 202.162Z" fill="#EDDAD3"/>
<path d="M327.389 203.17L327.858 203.89C327.858 203.89 327.363 204.165 326.906 203.877L327.389 203.17Z" fill="#FFD760"/>
<path d="M333.441 204.021C333.441 204.021 333.441 204.034 333.427 204.074C333.375 204.257 333.18 204.964 332.919 205.907C332.815 205.999 332.723 206.078 332.619 206.156C332.502 206.248 332.384 206.34 332.267 206.418C331.146 207.217 329.829 207.754 328.395 207.924C328.525 204.964 328.877 202.345 328.877 202.345C329.151 202.423 329.412 202.489 329.659 202.567C331.824 203.196 332.919 203.733 333.284 203.943C333.284 203.943 333.284 203.943 333.297 203.943C333.388 203.995 333.441 204.021 333.441 204.021Z" fill="#323657"/>
<path d="M325.641 207.82C324.35 207.558 323.163 207.008 322.159 206.222C321.859 205.987 321.573 205.738 321.299 205.463C321.247 205.41 321.194 205.358 321.142 205.306C320.999 204.664 320.895 204.258 320.895 204.232C320.895 204.232 321.951 203.537 325.68 202.542C325.68 202.621 325.68 205.017 325.641 207.82Z" fill="#323657"/>
<path d="M327.649 203.969C327.61 204.755 327.61 206.261 327.623 207.99C327.531 207.99 327.44 207.99 327.349 207.99C327.075 207.99 326.801 207.977 326.527 207.951C326.697 205.829 326.971 204.493 327.088 203.969C327.127 203.799 327.153 203.707 327.153 203.707L327.649 203.786C327.662 203.838 327.662 203.903 327.649 203.969Z" fill="#FFD760"/>
<path d="M333.869 204.938C333.582 205.292 333.256 205.606 332.917 205.907C332.813 205.999 332.721 206.078 332.617 206.156L333.282 203.93C333.282 203.93 333.282 203.93 333.295 203.93C333.334 203.956 333.373 203.995 333.426 204.061C333.556 204.244 333.699 204.545 333.869 204.938Z" fill="#323657"/>
<path d="M321.312 205.462C321.26 205.41 321.208 205.357 321.156 205.305C320.96 205.108 320.791 204.886 320.621 204.663C320.712 204.427 320.817 204.283 320.908 204.218L321.312 205.462Z" fill="#323657"/>
<path d="M264.099 308.147C264.099 308.147 262.99 306.326 261.465 305.619C259.939 304.911 256.823 307.387 256.549 308.762L252.938 314.054L253.629 314.525L255.558 311.696C254.241 314.879 252.364 318.677 253.681 320.589C255.454 323.156 259.47 325.75 260.526 325.304C261.582 324.859 261.374 317.393 261.374 317.393C260.226 310.805 264.099 308.147 264.099 308.147Z" fill="#1D3B54"/>
<path d="M264.099 308.147C264.099 308.147 262.782 310.688 262.104 312.666C261.426 314.643 261.295 320.105 260.878 320.485C260.448 320.865 257.084 319.162 256.64 317.119C256.197 315.076 257.553 310.989 258.857 308.841C260.161 306.693 261.478 305.619 261.478 305.619C261.478 305.619 263.76 306.051 264.099 308.147Z" fill="#FFBEA0"/>
<path d="M277.071 260.21C277.071 260.21 275.011 271.186 275.011 273.818C275.011 276.451 274.294 280.747 272.638 283.93C270.969 287.112 263.681 308.854 263.042 311.395C262.403 313.923 261.868 316.32 261.868 316.32C261.868 316.32 258.23 314.644 258.23 312.26C258.23 309.876 261.399 290.138 261.96 286.235C262.507 282.332 267.11 262.358 267.11 262.358L277.071 260.21Z" fill="#FFBEA0"/>
<path d="M265.43 259.489C265.43 259.489 266.147 268.644 266.068 271.028C265.99 273.412 264.882 278.821 264.882 280.262C264.882 281.69 264.882 311.369 266.068 314.944C267.255 318.52 262.744 316.058 262.744 316.058C262.744 316.058 254.907 296.542 254.907 288.396C254.907 280.249 255.859 276.189 255.298 271.028C254.751 265.855 252.273 259.044 252.273 259.044L265.43 259.489Z" fill="#FFC8AF"/>
<path d="M253.562 215.455C253.562 215.455 249.35 220.642 248.242 227.57C247.133 234.499 249.559 247.544 250.419 251.329C251.175 254.643 252.623 265.252 252.701 266.365C252.701 266.365 266.874 267.976 277.644 264.558C277.644 264.558 278.635 249.745 279.261 243.458C279.9 237.171 276.797 215.953 276.797 215.953L253.562 215.455Z" fill="#FFD760"/>
<path d="M269.771 323.982C264.699 319.529 266.055 314.958 266.055 314.958C266.055 314.958 264.021 314.238 262.378 314.644C260.735 315.063 259.849 319.005 260.5 320.263L261.009 326.746L261.843 326.68L261.57 323.223C262.548 326.563 263.486 330.754 265.729 331.422C268.754 332.312 273.552 331.788 274.1 330.754C274.673 329.719 269.771 323.982 269.771 323.982Z" fill="#1D3B54"/>
<path d="M272.757 166.968C272.757 166.968 271.505 174.486 272.587 177.001C273.67 179.529 266.824 174.054 266.824 174.054C266.824 174.054 269.667 165.776 272.757 166.968Z" fill="#754836"/>
<path d="M270.227 146.103C270.227 146.103 259.235 143.576 257.866 155.376C256.497 167.177 261.438 168.657 258.087 176.66C254.737 184.663 266.263 174.054 266.263 174.054L270.227 146.103Z" fill="#754836"/>
<path d="M269.275 145.933C272.092 145.88 278.311 147.478 279.067 155.01C279.067 155.01 278.781 157.027 278.259 158.598C277.724 160.17 279.015 164.898 278.637 165.121C278.259 165.343 276.72 165.592 276.72 165.592C276.72 165.592 274.934 170.661 273.148 170.569C271.362 170.478 264.62 168.88 261.609 162.423C258.584 155.966 257.879 146.156 269.275 145.933Z" fill="#FFC8AF"/>
<path d="M238.516 239.371C238.516 239.371 238.776 234.826 239.976 234.119C241.176 233.412 240.485 234.826 240.485 234.826C240.485 234.826 239.806 238.127 239.663 239.463C239.663 239.528 238.516 239.371 238.516 239.371Z" fill="#1D3B54"/>
<path d="M244.058 229.155C244.058 229.155 244.397 231.185 245.01 233.15C245.622 235.114 246.196 235.743 245.948 236.87C245.766 237.721 244.801 238.35 244.566 238.088C244.319 237.813 244.214 234.512 242.845 234.525C241.489 234.538 243.249 238.612 242.441 238.31C241.633 238.009 238.516 236.293 238.712 234.63C238.908 232.966 240.159 231.762 240.081 229.273C240.003 227.02 240.707 226.077 240.707 226.077L244.058 229.155Z" fill="#FFC8AF"/>
<path d="M242.976 234.381C242.976 234.381 244.789 234.84 244.684 241.009L242.637 240.668C242.637 240.668 242.676 237.263 242.064 235.403C242.05 235.403 242.155 234.198 242.976 234.381Z" fill="#1D3B54"/>
<path d="M250.501 242.397L234.516 237.839L234.568 257.616L250.475 267.204L250.501 242.397Z" fill="#C4D9F9"/>
<path d="M250.473 267.204L248.465 267.57L232.988 257.904L233.184 237.931L234.514 237.839L250.473 267.204Z" fill="#C4D9F9"/>
<path d="M270.799 173.674C270.799 173.674 275.063 175.429 275.819 175.966C276.575 176.503 278.101 182.698 278.479 183.222C278.857 183.759 282.534 188.343 282.026 192.076C281.621 194.996 279.979 196.542 278.909 197.695C277.84 198.847 276.862 205.016 276.523 205.933C276.184 206.85 277.253 218.886 277.253 218.886C277.253 218.886 264.749 223.772 253.562 215.442C253.562 215.442 255.792 207.374 255.792 205.933C255.792 204.479 254.344 194.237 250.472 188.199C246.586 182.161 251.163 175.743 254.123 174.97C257.096 174.211 262.793 172.062 262.793 172.062L270.799 173.674Z" fill="#FFD760"/>
<path d="M257.149 174.067C257.149 174.067 250.891 173.674 247.748 177.354C244.606 181.022 244.775 185.383 243.98 187.269C243.185 189.155 241.359 197.302 240.955 198.625C240.551 199.948 240.16 207.361 239.599 213.32C239.025 219.28 239.143 230.413 239.143 230.413L245.127 229.326C245.127 229.326 245.362 218.717 245.519 212.561C245.675 206.405 250.656 195.534 252.533 190.779C254.437 185.999 261.934 177.053 257.149 174.067Z" fill="#FFD760"/>
<path d="M275.194 175.625C275.194 175.625 277.945 175.795 279.262 178.559C280.579 181.309 281.074 183.601 281.426 184.296C281.765 184.99 286.524 194.053 286.798 196.057C287.085 198.061 286.629 201.729 284.112 202.711C281.596 203.68 272.586 203.798 272.586 203.798C272.586 203.798 274.868 199.135 272.755 196.725C272.755 196.725 279.301 195.533 280.852 195.376C282.482 195.193 273.121 177.681 275.194 175.625Z" fill="#FFD760"/>
<path d="M260.199 183.405L272.403 212.01L287.607 204.82L276.354 177.341L260.199 183.405Z" fill="#1D3B54"/>
<path d="M267.201 197.459C267.201 197.459 265.545 197.904 265.024 197.97C264.502 198.048 265.141 199.018 265.793 199.044C266.432 199.083 267.201 197.459 267.201 197.459Z" fill="#EEA886"/>
<path d="M268.312 205.592C268.312 205.592 269.081 205.553 269.407 205.37C269.407 205.37 269.98 204.99 270.398 204.754C270.528 204.676 270.645 204.61 270.737 204.584C271.076 204.44 271.858 204.243 272.575 203.68C273.292 203.117 275.626 200.89 275.626 200.89L274.088 198.559L272.901 196.699C272.901 196.699 267.894 196.843 267.164 197.276C267.099 197.315 267.021 197.367 266.969 197.406C266.395 197.839 266.134 198.415 265.86 198.677C265.756 198.782 264.817 199.816 264.869 200.222C264.948 200.799 265.234 201.166 265.599 201.336C265.599 201.336 265.808 202.462 266.382 202.96C266.382 202.96 266.538 204.008 267.438 204.414C267.412 204.44 267.686 205.475 268.312 205.592Z" fill="#EEA886"/>
<path d="M272.758 196.713C272.758 196.713 280.177 195.377 282.237 195.167C282.237 195.167 282.38 192.548 282.002 190.334C281.624 188.121 279.812 185.147 279.812 185.147L283.606 188.645C283.606 188.645 286.722 194.656 286.801 196.058C286.866 197.459 287.244 199.633 285.392 201.834C283.541 204.034 274.831 203.026 274.831 203.026C274.831 203.026 275.561 200.301 272.758 196.713Z" fill="#FFD760"/>
<path d="M270.474 169.378C270.474 169.378 270.24 170.085 269.953 171.146C269.809 171.683 269.653 172.312 269.523 172.993C269.144 174.853 268.897 177.027 269.34 178.494C269.34 178.494 265.35 179.764 262.377 174.054C262.377 174.054 263.89 168.042 262.247 164.322C260.604 160.602 270.474 169.378 270.474 169.378Z" fill="#FFC8AF"/>
<path d="M279.065 155.01C279.065 155.01 274.398 158.009 269.847 158.52C265.284 159.018 262.754 165.946 262.754 165.946C262.754 165.946 255.583 154.735 261.359 147.845C267.122 140.956 280.291 146.287 279.065 155.01Z" fill="#754836"/>
<path d="M267.956 158.245C267.956 157.367 267.017 156.005 265.544 157.171C264.07 158.336 265.883 162.593 267.082 162.213C268.269 161.846 267.956 159.161 267.956 158.245Z" fill="#FFC8AF"/>
<path d="M271.048 173.778C271.048 173.778 272.925 179.345 268.531 179.318C264.137 179.292 262.22 175.821 260.969 172.743C260.969 172.743 262.99 171.761 263.942 171.617C264.88 171.46 271.048 173.778 271.048 173.778Z" fill="#FFC8AF"/>
<path d="M244.685 240.733L242.625 241.008V240.039L244.685 240.733Z" fill="#1D3B54"/>
<path d="M239.677 239.306L238.543 239.437C238.543 239.437 238.543 239.097 238.543 238.979C238.556 238.874 239.638 239.241 239.677 239.306Z" fill="#1D3B54"/>
<path d="M266.053 314.957C266.053 314.957 266.627 317.799 267.344 319.79C268.061 321.781 271.425 326.169 271.334 326.745C271.242 327.321 267.513 328.133 265.857 326.797C264.202 325.474 262.689 321.388 262.35 318.86C262.011 316.332 262.194 314.708 262.194 314.708C262.194 314.708 264.475 313.529 266.053 314.957Z" fill="#FFC8AF"/>
<path d="M270.304 169.954C270.16 170.491 269.952 171.146 269.782 171.788C266.17 169.338 264.449 166.431 264.449 166.431C266.496 168.395 270.304 169.954 270.304 169.954Z" fill="#A77860"/>
<path d="M103.112 62.7373H145.631C149.099 62.7373 151.902 65.5533 151.902 69.0372V86.2999C151.902 89.7839 149.099 92.5998 145.631 92.5998H103.112C99.6432 92.5998 96.8399 89.7839 96.8399 86.2999V69.0372C96.8269 65.5533 99.6432 62.7373 103.112 62.7373Z" fill="#C4D9F9"/>
<path d="M68.4922 212.732C68.4922 212.718 68.4922 212.718 68.4922 212.732C68.5316 212.745 68.5447 212.758 68.4922 212.732Z" fill="#323657"/>
<path d="M42.2971 207.964H82.9778C84.1122 207.964 85.0249 207.047 85.0249 205.907V204.65C85.0249 203.511 84.1122 202.594 82.9778 202.594H42.2971C41.1627 202.594 40.25 203.511 40.25 204.65V205.907C40.25 207.034 41.1627 207.964 42.2971 207.964Z" fill="#DBE6F7"/>
<path d="M42.2971 217.656H82.9778C84.1122 217.656 85.0249 216.739 85.0249 215.6V214.342C85.0249 213.203 84.1122 212.286 82.9778 212.286H42.2971C41.1627 212.286 40.25 213.203 40.25 214.342V215.6C40.25 216.739 41.1627 217.656 42.2971 217.656Z" fill="#DBE6F7"/>
<path d="M42.2971 227.348H82.9778C84.1122 227.348 85.0249 226.432 85.0249 225.292V224.035C85.0249 222.895 84.1122 221.979 82.9778 221.979H42.2971C41.1627 221.979 40.25 222.895 40.25 224.035V225.292C40.25 226.432 41.1627 227.348 42.2971 227.348Z" fill="#DBE6F7"/>
<path d="M110.726 181.86H101.012C98.8995 181.86 97.1914 180.144 97.1914 178.022V147.845C97.1914 145.724 98.8995 144.008 101.012 144.008H110.726C112.838 144.008 114.546 145.724 114.546 147.845V178.022C114.546 180.144 112.838 181.86 110.726 181.86Z" fill="#DBE6F7"/>
<path d="M6.24811 249.601C6.24811 249.601 6.91309 250.701 7.00436 251.592C7.06955 252.299 7.66933 253.36 7.91707 253.949C8.17784 254.539 8.99928 257.184 9.02536 257.879C9.0384 258.154 8.41254 259.935 8.50381 260.511C8.59508 261.074 8.92105 262.201 8.41254 262.279C7.90403 262.358 7.33033 261.428 7.33033 261.428C7.33033 261.428 7.38248 261.952 6.9522 262.148C6.11773 262.541 5.67441 262.201 5.67441 262.201C5.67441 262.201 5.36148 262.777 4.98336 262.856C4.13584 263.026 3.7186 262.685 3.7186 262.685C3.7186 262.685 3.34048 263.013 2.75374 263C1.9975 262.987 1.68457 262.332 1.68457 262.332C1.68457 262.332 0.73274 262.528 0.458927 262.083C0.185115 261.638 0.224231 261.153 0.119921 260.747C0.00257259 260.341 0.0938436 256.674 1.33252 254.041C2.5712 251.408 1.01959 248.828 1.01959 248.828L6.24811 249.601Z" fill="#FFC8AF"/>
<path d="M7.45824 261.075C7.45824 261.075 7.54951 257.787 6.67591 257.093C5.81536 256.399 5.71105 257.578 5.71105 257.578C5.71105 257.578 5.8284 256.399 4.88961 256.242C3.95082 256.085 3.91171 257.473 3.91171 257.473C3.91171 257.473 3.75524 256.569 2.7643 256.753C1.77336 256.936 2.00806 258.089 2.00806 258.089C2.00806 258.089 1.06927 256.962 0.456451 258.049C-0.573607 259.883 0.417335 262.057 0.417335 262.057C0.417335 262.057 0.704186 262.555 1.64297 262.306C1.64297 262.306 2.26883 263.577 3.67701 262.66C3.67701 262.66 5.12431 263.459 5.64586 262.175C5.67193 262.188 7.26266 262.948 7.45824 261.075Z" fill="#FAB799"/>
<path d="M17.3555 202.253C17.3555 202.253 11.7489 221.009 9.85826 227.925C9.27152 230.099 7.82422 250.819 7.57649 251.644C7.32875 252.483 0.222656 253.622 0.222656 253.622C0.222656 253.622 1.08321 227.702 1.16144 226.287C1.23968 224.873 8.99771 195.927 11.2534 194.892C12.9484 194.12 13.8351 194.761 15.9604 196.346C18.9593 198.586 17.3555 202.253 17.3555 202.253Z" fill="#56548C"/>
<path d="M84.7952 167.553L71.9766 175.982L72.5979 176.936L85.4165 168.507L84.7952 167.553Z" fill="#4DA8F2"/>
<path d="M86.7837 172.404C86.7837 172.404 86.6664 173.138 86.4577 173.426C86.4577 173.426 86.0405 173.924 85.7667 174.303C85.6754 174.421 85.6102 174.526 85.5711 174.605C85.4016 174.906 85.1278 175.639 84.515 176.255C83.9022 176.871 81.5291 178.861 81.5291 178.861L79.4951 177.119L77.3828 176.163C77.3828 176.163 78.5693 170.99 79.0648 170.348C79.117 170.282 79.1691 170.23 79.2213 170.178C79.7037 169.667 80.2644 169.497 80.5512 169.261C80.6555 169.169 81.7377 168.383 82.1289 168.488C82.6635 168.632 82.9894 168.947 83.1068 169.313C83.1068 169.313 84.1499 169.641 84.5541 170.243C84.5541 170.243 85.519 170.505 85.8188 171.422C85.7928 171.409 86.7446 171.789 86.7837 172.404Z" fill="#FFC8AF"/>
<path d="M12.8048 330.295C12.8048 330.295 12.2963 333.858 12.2311 334.395C12.1659 334.932 6.5462 334.08 6.5462 334.08L6.08984 329.837C6.10288 329.837 12.1007 329.797 12.8048 330.295Z" fill="#424773"/>
<path d="M12.2935 333.936C12.2935 333.936 14.0668 336.084 15.7879 337.014C17.509 337.944 20.208 338.324 21.225 339.293C21.9552 339.987 23.8979 343 16.7527 342.934C9.60752 342.869 6.15226 343.367 5.39602 342.201C4.62673 341.048 6.50431 333.688 6.50431 333.688C6.50431 333.688 8.19934 334.316 12.2935 333.936Z" fill="#292C47"/>
<path d="M53.0548 330.295C53.0548 330.295 52.5463 333.858 52.4811 334.395C52.4159 334.932 46.7962 334.08 46.7962 334.08L46.3398 329.837C46.3398 329.837 52.3507 329.797 53.0548 330.295Z" fill="#424773"/>
<path d="M52.5305 333.936C52.5305 333.936 54.3037 336.084 56.0248 337.014C57.7459 337.944 64.0828 338.717 65.0998 339.686C65.8299 340.38 67.0556 343.196 57.0027 342.934C49.8575 342.751 46.4023 343.367 45.646 342.201C44.8767 341.048 46.7543 333.688 46.7543 333.688C46.7543 333.688 48.345 334.355 52.5305 333.936Z" fill="#292C47"/>
<path d="M17.4576 238.822C17.4576 238.822 12.1769 247.244 12.5681 254.854C12.9593 262.463 10.6514 270.78 9.85606 278.731C8.96942 287.598 5.3577 308.58 5.22731 313.335C5.09693 318.076 5.78798 333.217 5.78798 333.217L13.0245 333.387C13.0245 333.387 19.1005 296.688 20.6782 292.942C22.2559 289.196 30.0661 262.503 30.3268 259.503C30.6006 256.517 17.4576 238.822 17.4576 238.822Z" fill="#56548C"/>
<path d="M45.2462 239.962C45.2462 239.962 49.223 260.826 49.7445 265.489C50.2661 270.152 50.6181 288.043 50.8789 290.951C51.1397 293.858 53.3302 328.973 54.0343 333.387H44.7768C44.7768 333.387 37.6707 307.794 37.6707 295.692C37.6707 283.59 32.1814 269.379 28.6348 261.389C25.0883 253.4 16.9782 253.217 14.8008 238.39C14.8008 238.39 42.2864 235.26 45.2462 239.962Z" fill="#56548C"/>
<path d="M26.26 168.016C26.26 168.016 33.3401 165.357 36.6128 170.78C39.8724 176.189 39.5595 187.034 35.9869 188.37C32.4143 189.706 27.0554 189.012 25.23 185.619C23.4046 182.227 21.7487 177.328 21.8269 174.054C21.9182 170.767 24.4085 168.959 26.26 168.016Z" fill="#FFC8AF"/>
<path d="M35.2305 188.606C35.2305 188.606 34.9306 190.531 35.426 191.474C35.9085 192.417 26.2468 192.443 26.2468 192.443C26.2468 192.443 25.4645 187.296 23.9781 182.948C22.4786 178.599 35.2305 188.606 35.2305 188.606Z" fill="#FFC8AF"/>
<path d="M23.9642 182.947C23.9642 182.947 24.6291 184.048 27.3542 183.629C30.0793 183.196 33.4042 179.555 34.5386 179.162C35.6729 178.769 35.686 178.088 35.686 178.088L36.4031 179.136L37.6157 179.215C37.6157 179.215 36.5204 175.953 38.1764 174.631C39.8323 173.308 36.4552 164.1 27.7193 167.165C27.7193 167.165 21.0174 169.025 21.2521 172.849C21.4868 176.674 22.4647 181.048 23.9642 182.947Z" fill="#D88A51"/>
<path d="M35.9849 191.369C35.9849 191.369 35.9588 189.562 35.1374 189.392C34.316 189.221 26.1277 188.423 25.1367 188.829V190.937C25.1367 190.924 27.0664 192.116 35.9849 191.369Z" fill="#E2D2CA"/>
<path d="M35.504 176.7C35.3476 176.058 33.7308 174.224 33.1049 176.189C32.4791 178.154 34.0437 180.799 34.9173 180.577C35.7909 180.341 35.8952 178.324 35.504 176.7Z" fill="#FFC8AF"/>
<path d="M49.5323 194.106C43.9126 193.36 35.985 191.369 35.985 191.369L25.1368 190.924C25.1368 190.924 15.1753 193.124 11.2506 194.905C10.8725 195.076 10.8725 203.838 9.85547 206.13L13.1021 213.019C13.1021 213.019 14.9797 226.667 15.3708 232.744C15.5534 235.534 11.4983 258.887 11.4983 258.887C11.4983 258.887 15.8402 260.171 23.2462 260.996C30.6522 261.821 49.1672 260.695 49.2845 259.817C49.4019 258.94 45.6989 227.086 45.5424 225.436C45.2947 222.908 46.416 209.457 46.416 209.457C48.1241 208.121 63.1447 201.127 67.2388 197.473C68.3341 196.49 72.9628 191.972 74.2797 190.413C78.9345 184.886 82.7549 180.131 83.2243 179.11C83.7458 178.533 78.1653 175.482 77.6568 175.311C77.2134 175.167 70.9157 183.353 68.4905 185.999C67.4083 187.178 62.923 190.452 62.923 190.452C62.923 190.452 53.0527 194.303 49.5323 194.106Z" fill="#56548C"/>
<path d="M24.2506 168.645C24.2506 168.645 15.2148 169.352 23.9768 182.947L24.2506 168.645Z" fill="#D88A51"/>
<path d="M85.4305 168.514L86.1607 167.374L84.8047 167.557L85.4305 168.514Z" fill="#DFE1E8"/>
</g>
<defs>
<clipPath id="clip0">
<rect width="416" height="343" fill="white"/>
</clipPath>
</defs>
</svg>
