<svg width="492" height="356" viewBox="0 0 492 356" fill="none" xmlns="http://www.w3.org/2000/svg">
<path d="M377.454 8.20166H78.0137V185.61H377.454V8.20166Z" fill="#25408F"/>
<path d="M375.71 13.2271H79.6543V180.585H375.71V13.2271Z" fill="white" stroke="#25408F" stroke-miterlimit="10" stroke-linecap="round" stroke-linejoin="round"/>
<path d="M379.095 5.22803H74.5273V14.765H379.095V5.22803Z" fill="#25408F"/>
<path d="M231.016 18.023C235.717 18.023 239.528 14.2122 239.528 9.51148C239.528 4.81072 235.717 1 231.016 1C226.316 1 222.505 4.81072 222.505 9.51148C222.505 14.2122 226.316 18.023 231.016 18.023Z" fill="white" stroke="#25408F" stroke-miterlimit="10" stroke-linecap="round" stroke-linejoin="round"/>
<path d="M235.527 9.51162C235.527 11.9728 233.476 14.0237 231.015 14.0237C228.554 14.0237 226.503 11.9728 226.503 9.51162C226.503 7.05047 228.554 4.99951 231.015 4.99951C233.476 4.99951 235.527 7.05047 235.527 9.51162Z" fill="#25408F" stroke="#25408F" stroke-miterlimit="10"/>
<path d="M133.39 121.928H96.7803V84.8057H159.027V121.928H140.363" stroke="#25408F" stroke-miterlimit="10"/>
<path d="M195.534 139.771H145.9V169.408H195.534V139.771Z" stroke="#25408F" stroke-miterlimit="10"/>
<path d="M250.397 84.8057H256.652V121.928H194.406V84.8057H244.449" stroke="#25408F" stroke-miterlimit="10"/>
<path d="M199.636 30.6606H272.65V67.6805H178.409V30.6606H192.663" stroke="#25408F" stroke-miterlimit="10"/>
<path d="M353.766 84.8057H291.519V121.928H353.766V84.8057Z" stroke="#25408F" stroke-miterlimit="10"/>
<path d="M173.281 48.9141C173.281 48.9141 140.26 53.5287 120.879 81.5243" stroke="#25408F" stroke-miterlimit="10"/>
<path d="M152.156 125.927L156.566 138.746" stroke="#25408F" stroke-miterlimit="10"/>
<path d="M197.277 124.799L193.278 136.797" stroke="#25408F" stroke-miterlimit="10"/>
<path d="M151.746 134.541L156.565 138.746L157.796 133.003" stroke="#25408F" stroke-miterlimit="10"/>
<path d="M191.33 133.003L193.176 137.823L198.201 134.849" stroke="#25408F" stroke-miterlimit="10"/>
<path d="M121.802 75.7817L120.879 81.4219L127.237 77.5251" stroke="#25408F" stroke-miterlimit="10"/>
<path d="M258.499 102.444H289.674" stroke="#25408F" stroke-miterlimit="10"/>
<path d="M283.11 98.5469L289.981 102.444L283.726 106.341" stroke="#25408F" stroke-miterlimit="10"/>
<path d="M160.053 102.444H191.228" stroke="#25408F" stroke-miterlimit="10"/>
<path d="M184.665 98.5469L191.535 102.444L185.28 106.341" stroke="#25408F" stroke-miterlimit="10"/>
<path d="M225.273 70.6543V80.1913" stroke="#25408F" stroke-miterlimit="10"/>
<path d="M229.17 73.6279L225.273 80.4986L221.376 74.1407" stroke="#25408F" stroke-miterlimit="10"/>
<path d="M289.365 113.622H259.421" stroke="#25408F" stroke-miterlimit="10"/>
<path d="M265.676 109.725L259.113 113.621L265.164 117.518" stroke="#25408F" stroke-miterlimit="10"/>
<path d="M197.893 42.146H254.294" stroke="#25408F" stroke-miterlimit="10"/>
<path d="M197.893 47.5806H254.294" stroke="#25408F" stroke-miterlimit="10"/>
<path d="M197.893 53.0156H254.294" stroke="#25408F" stroke-miterlimit="10"/>
<path d="M102.626 98.5469H153.285" stroke="#25408F" stroke-miterlimit="10"/>
<path d="M102.626 103.982H153.285" stroke="#25408F" stroke-miterlimit="10"/>
<path d="M102.626 109.314H153.285" stroke="#25408F" stroke-miterlimit="10"/>
<path d="M200.97 98.5469H251.628" stroke="#25408F" stroke-miterlimit="10"/>
<path d="M200.97 103.982H251.628" stroke="#25408F" stroke-miterlimit="10"/>
<path d="M200.97 109.314H251.628" stroke="#25408F" stroke-miterlimit="10"/>
<path d="M295.621 98.5469H346.28" stroke="#25408F" stroke-miterlimit="10"/>
<path d="M295.621 103.982H346.28" stroke="#25408F" stroke-miterlimit="10"/>
<path d="M295.621 109.314H346.28" stroke="#25408F" stroke-miterlimit="10"/>
<path d="M152.361 149.821H191.022" stroke="#25408F" stroke-miterlimit="10"/>
<path d="M152.361 155.154H191.022" stroke="#25408F" stroke-miterlimit="10"/>
<path d="M152.361 160.589H191.022" stroke="#25408F" stroke-miterlimit="10"/>
<path d="M323.822 46.8629C323.617 46.8629 323.515 46.7604 323.412 46.6579C323.309 46.4528 323.309 46.1451 323.617 45.94L324.027 45.7349L323.925 45.8375C323.72 45.94 323.412 45.94 323.207 45.6324C323.104 45.4273 323.104 45.1196 323.412 44.9145L325.463 43.5814L323.72 44.6069C323.514 44.7094 323.207 44.7094 323.002 44.4018C322.899 44.1967 322.899 43.8891 323.207 43.684L326.899 41.3254L323.412 43.3763C323.207 43.4789 322.899 43.4789 322.694 43.1712C322.592 42.9661 322.592 42.6585 322.797 42.4534L328.539 38.6591L323.002 41.8381C322.797 41.9406 322.489 41.9406 322.284 41.633C322.181 41.4279 322.181 41.1203 322.386 40.9152L331 34.7623L322.386 39.6846C322.181 39.7871 321.874 39.7871 321.669 39.4795C321.566 39.2744 321.566 38.9667 321.771 38.7617L327.924 34.4546L321.874 37.9413C321.669 38.0438 321.361 38.0438 321.156 37.7362C321.053 37.5311 321.053 37.2234 321.258 37.0183L324.745 34.6597L321.464 36.6081C321.258 36.7107 320.951 36.7107 320.746 36.4031C320.643 36.198 320.643 35.8903 320.848 35.6852L323.104 34.147L321.053 35.275C320.848 35.3776 320.541 35.3776 320.336 35.0699C320.233 34.8648 320.233 34.5572 320.438 34.3521L326.488 29.9425L320.541 33.3266C320.336 33.4292 320.028 33.4292 319.823 33.1215C319.72 32.9164 319.72 32.6088 319.925 32.4037L325.258 28.3018L320.028 31.3782C319.823 31.4808 319.515 31.4808 319.31 31.1731C319.207 30.968 319.207 30.6604 319.413 30.4553L321.976 28.5069L319.618 29.9425C319.413 30.0451 319.105 30.0451 318.9 29.7374C318.797 29.5323 318.797 29.2247 319.002 29.0196L321.156 27.3788L319.207 28.5069C319.002 28.6094 318.695 28.6094 318.49 28.3018C318.387 28.0967 318.387 27.789 318.592 27.5839L319.618 26.7635L318.797 27.2763C318.592 27.3788 318.285 27.3788 318.182 27.1737C317.977 26.9686 317.977 26.7635 318.182 26.5585L319.823 24.5075L318.387 25.3279C318.182 25.4304 317.977 25.4304 317.874 25.3279C317.669 25.2253 317.669 25.0202 317.669 24.8151L317.772 24.1998C317.567 24.1998 317.464 24.0973 317.362 23.9948C317.259 23.7897 317.259 23.482 317.567 23.2769L318.285 22.8667C318.49 22.7642 318.695 22.7642 318.797 22.8667C319.002 22.9693 319.002 23.1744 319.002 23.3795L318.9 23.8922L321.566 22.354C321.771 22.2514 322.079 22.2514 322.181 22.4565C322.386 22.6616 322.386 22.8667 322.181 23.0718L320.541 25.1228L325.36 22.354C325.565 22.2514 325.873 22.2514 326.078 22.5591C326.181 22.7642 326.181 23.0718 325.976 23.2769L324.95 24.0973L327.514 22.6616C327.719 22.5591 328.027 22.5591 328.232 22.8667C328.334 23.0718 328.334 23.3795 328.129 23.5846L325.976 25.2253L329.462 23.1744C329.667 23.0718 329.975 23.0718 330.18 23.3795C330.283 23.5846 330.283 23.8922 330.078 24.0973L327.514 26.0457L331.616 24.1998C331.821 24.0973 332.129 24.0973 332.334 24.4049C332.436 24.61 332.436 24.9177 332.231 25.1228L326.899 29.2247L333.872 25.2253C334.077 25.1228 334.385 25.1228 334.59 25.4304C334.692 25.6355 334.692 25.9432 334.487 26.1483L328.437 30.5578L335.82 26.2508C336.025 26.1483 336.333 26.1483 336.538 26.4559C336.641 26.661 336.641 26.9686 336.436 27.1737L334.179 28.712L337.051 27.0712C337.256 26.9686 337.564 26.9686 337.769 27.2763C337.871 27.4814 337.871 27.789 337.666 27.9941L334.179 30.3527L338.281 27.9941C338.487 27.8916 338.794 27.8916 338.999 28.1992C339.102 28.4043 339.102 28.712 338.897 28.917L332.744 33.2241L339.717 29.2247C339.922 29.1221 340.23 29.1221 340.435 29.4298C340.537 29.6349 340.537 29.9425 340.332 30.1476L331.718 36.3005L341.255 30.7629C341.46 30.6604 341.768 30.6604 341.973 30.968C342.076 31.1731 342.076 31.4808 341.871 31.6858L336.128 35.4801L342.383 31.8909C342.588 31.7884 342.896 31.7884 343.101 32.096C343.204 32.3011 343.204 32.6088 342.896 32.8139L339.204 35.1725L343.101 32.9164C343.306 32.8139 343.614 32.8139 343.819 33.1215C343.922 33.3266 343.922 33.6343 343.614 33.8394L341.563 35.1725L343.716 33.9419C343.922 33.8394 344.229 33.8394 344.434 34.147C344.537 34.3521 344.537 34.6597 344.229 34.8648L343.819 35.0699L344.229 34.8648C344.434 34.7623 344.742 34.7623 344.947 35.0699C345.05 35.275 345.05 35.5827 344.844 35.7878L338.897 39.9922L345.05 36.4031C345.255 36.3005 345.562 36.3005 345.767 36.6081C345.87 36.8132 345.87 37.1209 345.665 37.326L345.562 37.4285C345.767 37.326 346.075 37.326 346.28 37.6336C346.383 37.8387 346.383 38.1464 346.178 38.3515L345.05 39.1718L346.178 38.5566C346.383 38.454 346.69 38.454 346.793 38.6591C346.998 38.8642 346.998 39.1718 346.793 39.2744L344.844 41.5305L346.69 40.4024C346.895 40.2999 347.101 40.2999 347.306 40.505C347.511 40.6075 347.511 40.9152 347.408 41.1203L347.203 41.633C347.408 41.633 347.613 41.7355 347.716 41.8381C347.818 42.0432 347.818 42.3508 347.511 42.5559L346.383 43.1712C346.178 43.2738 345.972 43.2738 345.767 43.0687C345.562 42.9661 345.562 42.6585 345.665 42.4534L345.87 42.0432L342.691 43.8891C342.486 43.9916 342.178 43.9916 342.076 43.7865C341.871 43.5814 341.871 43.2738 342.076 43.1712L344.024 40.9152L336.538 45.2222C336.333 45.3247 336.025 45.3247 335.82 45.0171C335.718 44.812 335.718 44.5043 335.923 44.2992L337.051 43.4789L332.846 45.94C332.641 46.0426 332.334 46.0426 332.129 45.7349C332.026 45.5298 332.026 45.2222 332.231 45.0171L332.334 44.9145L329.462 46.5553C329.257 46.6579 328.95 46.6578 328.744 46.3502C328.642 46.1451 328.642 45.8375 328.847 45.6324L334.795 41.4279L324.232 47.5808C324.027 46.8629 323.925 46.8629 323.822 46.8629Z" fill="#25408F"/>
<path d="M308.029 61.2201C303.414 57.2207 300.543 51.478 300.543 45.2226C300.543 33.122 311.003 23.2773 324.026 23.2773C336.947 23.2773 347.51 33.122 347.51 45.2226C347.51 57.3233 337.05 67.1679 324.026 67.1679C320.54 67.1679 317.156 66.45 314.182 65.1169" stroke="#25408F" stroke-miterlimit="10"/>
<path d="M279.931 40.5054H294.698" stroke="#25408F" stroke-miterlimit="10"/>
<path d="M279.931 45.6323H294.698" stroke="#25408F" stroke-miterlimit="10"/>
<path d="M279.931 50.7598H294.698" stroke="#25408F" stroke-miterlimit="10"/>
<path d="M101.088 127.568H127.135" stroke="#25408F" stroke-miterlimit="10"/>
<path d="M101.088 132.696H127.135" stroke="#25408F" stroke-miterlimit="10"/>
<path d="M95.6523 61.2197H121.7" stroke="#25408F" stroke-miterlimit="10"/>
<path d="M101.088 137.721H127.135" stroke="#25408F" stroke-miterlimit="10"/>
<path d="M101.088 148.488H127.135" stroke="#25408F" stroke-miterlimit="10"/>
<path d="M101.088 153.616H127.135" stroke="#25408F" stroke-miterlimit="10"/>
<path d="M101.088 158.64H127.135" stroke="#25408F" stroke-miterlimit="10"/>
<path d="M317.771 23.8921L324.129 46.8628L347.305 41.5303" stroke="#25408F" stroke-miterlimit="10"/>
<path d="M95.96 29.7373V55.2718H136.877" stroke="#25408F" stroke-miterlimit="10"/>
<path d="M108.677 33.2241H100.165V55.2719H108.677V33.2241Z" fill="#25408F" stroke="#25408F" stroke-miterlimit="10"/>
<path d="M130.313 38.249H121.802V55.272H130.313V38.249Z" fill="#25408F" stroke="#25408F" stroke-miterlimit="10"/>
<path d="M119.547 26.3535H111.035V55.2721H119.547V26.3535Z" fill="#25408F" stroke="#25408F" stroke-miterlimit="10"/>
<path d="M470.053 70.1232C474.704 50.0969 462.239 30.0925 442.213 25.4421C422.186 20.7918 402.182 33.2564 397.532 53.2826C392.881 73.3089 405.346 93.3133 425.372 97.9637C445.398 102.614 465.403 90.1495 470.053 70.1232Z" fill="#25408F" stroke="#25408F" stroke-miterlimit="10"/>
<path d="M446.079 90.8045C462.142 84.0014 469.648 65.4654 462.844 49.4032C456.041 33.3409 437.505 25.8349 421.443 32.638C405.381 39.4411 397.875 57.9771 404.678 74.0393C411.481 90.1016 430.017 97.6076 446.079 90.8045Z" fill="white" stroke="#25408F" stroke-miterlimit="10"/>
<path d="M443.495 41.4272L433.753 61.7317H447.699" stroke="#25408F" stroke-miterlimit="10"/>
<path d="M437.342 61.7318C437.342 63.6802 435.804 65.3209 433.753 65.3209C431.804 65.3209 430.164 63.7827 430.164 61.7318C430.164 59.7834 431.702 58.1426 433.753 58.1426C435.701 58.1426 437.342 59.7834 437.342 61.7318Z" fill="#25408F" stroke="#25408F" stroke-miterlimit="10"/>
<path d="M232.656 157.82L227.938 150.846C227.938 150.846 228.861 139.669 227.836 137.925C226.81 136.182 209.48 134.131 208.454 135.464C207.429 136.797 211.018 137.925 211.018 137.925C211.018 137.925 208.557 139.053 208.864 140.284C209.275 142.13 212.351 142.335 212.351 142.335C212.351 142.335 209.89 143.976 210.198 145.104C210.403 145.924 212.966 146.642 212.966 146.642C212.966 146.642 210.403 147.77 212.454 149.206C214.505 150.641 216.248 152.179 216.248 152.179C216.248 152.179 214.812 155.256 218.709 157.922C222.606 160.588 229.272 165.511 229.272 165.511L232.656 157.82Z" fill="white" stroke="#25408F" stroke-miterlimit="10" stroke-linecap="round" stroke-linejoin="round"/>
<path d="M209.07 130.747L205.275 130.439V131.67L208.352 133.413C208.249 133.413 208.967 130.439 209.07 130.747Z" fill="#25408F" stroke="#25408F" stroke-miterlimit="10" stroke-linecap="round" stroke-linejoin="round"/>
<path d="M224.042 138.541C223.836 138.541 223.734 138.541 223.529 138.438L208.352 133.618C207.531 133.413 207.121 132.49 207.326 131.67C207.531 130.85 208.454 130.439 209.275 130.645L224.452 135.464C225.272 135.669 225.682 136.592 225.477 137.413C225.272 138.131 224.657 138.541 224.042 138.541Z" fill="white" stroke="#25408F" stroke-miterlimit="10" stroke-linecap="round" stroke-linejoin="round"/>
<path d="M231.939 141.515C231.734 141.515 231.529 141.515 231.221 141.412L223.427 138.951C222.402 138.643 221.786 137.515 222.094 136.387C222.402 135.362 223.53 134.746 224.658 135.054L232.451 137.515C233.477 137.823 234.092 138.951 233.785 140.079C233.477 140.899 232.759 141.515 231.939 141.515Z" fill="#25408F" stroke="#25408F" stroke-miterlimit="10" stroke-linecap="round" stroke-linejoin="round"/>
<path d="M225.682 143.771C225.682 143.771 224.247 139.771 223.221 137.72C222.196 135.772 220.042 134.029 219.222 131.978C218.402 129.927 216.248 133.106 217.068 134.541C217.889 136.08 219.735 138.233 219.735 139.259C219.735 140.284 220.042 141.002 218.914 144.386C217.786 147.668 217.068 151.564 219.735 154.231" fill="white"/>
<path d="M225.682 143.771C225.682 143.771 224.247 139.771 223.221 137.72C222.196 135.772 220.042 134.029 219.222 131.978C218.402 129.927 216.248 133.106 217.068 134.541C217.889 136.08 219.735 138.233 219.735 139.259C219.735 140.284 220.042 141.002 218.914 144.386C217.786 147.668 217.068 151.564 219.735 154.231" stroke="#25408F" stroke-miterlimit="10" stroke-linecap="round" stroke-linejoin="round"/>
<path d="M211.019 137.925L219.735 139.464" stroke="#25408F" stroke-miterlimit="10" stroke-linecap="round" stroke-linejoin="round"/>
<path d="M212.352 142.335C213.378 142.028 218.813 144.591 218.813 144.591" stroke="#25408F" stroke-miterlimit="10" stroke-linecap="round" stroke-linejoin="round"/>
<path d="M212.864 146.642L217.376 148.078" stroke="#25408F" stroke-miterlimit="10" stroke-linecap="round" stroke-linejoin="round"/>
<path d="M293.364 144.386C293.364 144.386 290.801 142.848 289.673 146.95C288.545 151.052 285.161 158.23 283.725 159.768C282.289 161.306 267.727 175.663 267.727 175.663C267.727 175.663 261.472 170.741 260.036 172.587C258.601 174.433 257.575 174.638 257.575 174.638L232.656 155.051L223.427 168.998C223.427 168.998 257.268 199.967 260.139 200.89C262.908 201.813 264.959 201.505 265.984 200.993C267.01 200.48 285.571 186.431 285.571 186.431C285.571 186.431 296.954 149.821 297.877 148.591C298.697 147.462 293.364 144.386 293.364 144.386Z" fill="#25408F" stroke="#25408F" stroke-miterlimit="10" stroke-linecap="round" stroke-linejoin="round"/>
<path d="M259.934 175.868C259.934 175.868 264.959 181.713 264.959 189.097L259.934 175.868Z" fill="#25408F"/>
<path d="M259.934 175.868C259.934 175.868 264.959 181.713 264.959 189.097" stroke="#25408F" stroke-miterlimit="10" stroke-linecap="round" stroke-linejoin="round"/>
<path d="M268.035 178.227C268.035 178.227 269.573 182.124 267.215 190.635L268.035 178.227Z" fill="#25408F"/>
<path d="M268.035 178.227C268.035 178.227 269.573 182.124 267.215 190.635" stroke="#25408F" stroke-miterlimit="10" stroke-linecap="round" stroke-linejoin="round"/>
<path d="M304.439 99.2646C304.439 99.2646 293.466 92.0862 294.799 85.2155C296.132 78.4473 320.744 72.9097 334.896 77.5244C349.047 82.139 351.919 103.366 350.073 116.39C348.227 129.516 347.099 159.358 347.099 159.358L299.004 160.793C299.004 160.793 303.516 125.824 304.439 114.749C305.259 103.777 304.439 99.2646 304.439 99.2646Z" fill="#25408F" stroke="#25408F" stroke-miterlimit="10" stroke-linecap="round" stroke-linejoin="round"/>
<path d="M279.828 291.85C280.853 302.31 282.801 348.354 283.929 355.122H333.973C333.87 347.226 333.768 294.208 334.896 289.901C336.331 284.466 338.28 266.418 336.126 256.06C333.973 245.703 331.204 240.678 331.204 240.678H279.315L279.417 244.985C279.417 244.883 278.392 276.98 279.828 291.85Z" fill="#25408F" stroke="#25408F" stroke-miterlimit="10" stroke-linecap="round" stroke-linejoin="round"/>
<path d="M290.903 260.47C292.954 261.905 295.005 262.931 295.005 264.879C296.03 283.133 300.03 334.304 301.465 352.763" stroke="white" stroke-miterlimit="10" stroke-linecap="round" stroke-linejoin="round"/>
<path d="M305.772 143.771L331.102 144.693C331.102 144.693 310.695 176.073 310.9 193.301C311.105 210.529 314.489 246.216 314.489 246.216C314.489 246.216 303.311 255.035 291.826 253.394C290.595 253.189 289.877 242.832 289.877 242.832C289.877 242.832 289.16 252.882 288.237 252.676C281.776 251.548 279.212 244.883 279.212 244.883L280.546 210.427C280.546 210.427 280.546 187.764 283.109 181.303C285.57 174.843 302.696 145.924 302.696 145.924L305.772 143.771Z" fill="white" stroke="#25408F" stroke-miterlimit="10" stroke-linecap="round" stroke-linejoin="round"/>
<path d="M304.849 163.665C304.849 163.665 297.055 179.97 294.184 189.507C291.313 199.044 290.082 242.73 290.082 242.73" stroke="#25408F" stroke-miterlimit="10" stroke-linecap="round" stroke-linejoin="round"/>
<path d="M328.128 144.386C328.128 144.386 310.285 170.946 306.901 180.483C303.517 190.02 301.158 226.629 301.671 242.114C302.081 257.599 307.003 274.724 307.003 274.724C307.003 274.724 327.41 278.826 350.176 271.75C350.176 271.75 343.92 244.267 340.947 235.243C337.973 226.219 336.742 217.092 336.742 217.092C336.742 217.092 357.149 151.974 357.047 150.949C357.047 149.923 356.636 148.898 354.585 148.283C352.534 147.667 328.128 144.386 328.128 144.386Z" fill="#25408F" stroke="#25408F" stroke-miterlimit="10" stroke-linecap="round" stroke-linejoin="round"/>
<path d="M311.823 245.908L338.178 243.857L338.588 248.062L327.308 249.498" fill="#25408F"/>
<path d="M311.823 245.908L338.178 243.857L338.588 248.062L327.308 249.498" stroke="#25408F" stroke-miterlimit="10" stroke-linecap="round" stroke-linejoin="round"/>
<path d="M305.567 147.155C305.567 147.155 284.34 184.585 283.93 191.353C283.417 198.121 280.34 229.296 278.597 239.14C276.854 248.985 269.265 268.161 269.265 268.161C269.265 268.161 267.317 259.752 267.932 256.061C268.547 252.369 276.649 231.141 277.572 226.424C278.495 221.707 279.623 204.787 279.418 197.301C279.212 189.917 278.7 184.482 280.238 179.047C281.776 173.612 293.364 144.488 293.364 144.488L310.182 143.668L305.567 147.155Z" fill="#25408F" stroke="#25408F" stroke-miterlimit="10" stroke-linecap="round" stroke-linejoin="round"/>
<path d="M300.953 143.976L297.466 160.178L306.491 153.102L300.953 143.976Z" fill="white" stroke="#25408F" stroke-miterlimit="10" stroke-linecap="round" stroke-linejoin="round"/>
<path d="M311.823 136.182L300.953 143.976L305.055 154.641L304.849 163.665L317.053 145.514L311.823 136.182Z" fill="white" stroke="#25408F" stroke-miterlimit="10" stroke-linecap="round" stroke-linejoin="round"/>
<path d="M311.105 131.977C311.105 131.977 309.054 147.052 308.438 151.154C307.823 155.153 304.849 163.767 304.849 163.767C304.849 163.767 324.128 145.104 325.051 143.668C325.974 142.13 329.358 127.26 329.358 127.26C329.358 127.26 316.95 131.772 311.105 131.977Z" fill="white" stroke="#25408F" stroke-miterlimit="10" stroke-linecap="round" stroke-linejoin="round"/>
<path d="M310.593 136.182C313.259 137.823 315.207 137.823 318.284 137.31C321.36 136.797 325.462 134.028 328.231 131.772C328.846 129.106 329.257 127.158 329.257 127.158C329.257 127.158 316.848 131.772 311.106 131.977C311.106 131.977 310.9 133.721 310.593 136.182Z" fill="#25408F" stroke="#25408F" stroke-miterlimit="10" stroke-linecap="round" stroke-linejoin="round"/>
<path d="M317.361 86.1387L303.107 97.3164C303.107 97.3164 301.671 108.186 301.158 115.672C300.646 123.158 303.825 128.594 307.927 132.285C312.028 135.874 314.285 136.08 318.284 135.464C322.283 134.849 328.128 130.132 330.385 128.081C332.538 126.03 336.64 119.877 336.64 119.877C336.64 119.877 339.922 120.492 340.844 118.954C341.767 117.416 342.075 116.698 342.075 116.698C342.075 116.698 328.539 109.109 323.001 99.4699C317.464 89.9329 317.361 86.1387 317.361 86.1387Z" fill="white" stroke="#25408F" stroke-miterlimit="10" stroke-linecap="round" stroke-linejoin="round"/>
<path d="M312.848 106.033C312.848 106.033 312.438 109.007 311.515 110.545C310.592 112.083 306.798 112.903 308.849 114.647C310.9 116.39 314.181 116.288 314.181 116.288" stroke="#25408F" stroke-miterlimit="10" stroke-linecap="round" stroke-linejoin="round"/>
<path d="M322.488 108.084C322.488 109.212 322.078 110.135 321.463 110.135C320.847 110.135 320.334 109.314 320.232 108.186C320.232 107.058 320.642 106.135 321.257 106.135C321.873 106.135 322.488 106.956 322.488 108.084Z" fill="#25408F"/>
<path d="M310.49 106.648C310.49 107.776 310.08 108.699 309.464 108.699C308.849 108.699 308.336 107.879 308.234 106.751C308.234 105.623 308.644 104.7 309.259 104.7C309.977 104.597 310.49 105.52 310.49 106.648Z" fill="#25408F"/>
<path d="M306.491 102.033C306.491 102.033 309.157 99.1621 312.233 102.136" stroke="#25408F" stroke-miterlimit="10" stroke-linecap="round" stroke-linejoin="round"/>
<path d="M318.078 102.649C318.078 102.649 323.821 100.495 326.179 105.417" stroke="#25408F" stroke-miterlimit="10" stroke-linecap="round" stroke-linejoin="round"/>
<path d="M314.898 148.385L304.849 163.665L319.616 155.769L314.898 148.385Z" fill="white" stroke="#25408F" stroke-miterlimit="10" stroke-linecap="round" stroke-linejoin="round"/>
<path d="M331.818 135.054L314.898 148.385L319.82 162.229L336.023 143.463L331.818 135.054Z" fill="white" stroke="#25408F" stroke-miterlimit="10" stroke-linecap="round" stroke-linejoin="round"/>
<path d="M311.208 213.81C311.208 213.81 308.439 213.195 304.747 210.939C300.953 208.683 296.954 209.503 293.569 209.606C290.185 209.709 287.827 210.426 288.237 211.76C288.647 213.093 292.031 212.99 292.954 212.99C293.98 212.99 295.723 214.631 295.723 214.631L287.314 216.682C287.314 216.682 284.648 218.425 286.699 220.374C288.75 222.322 289.16 221.912 289.16 221.912C289.16 221.912 292.339 226.937 295.723 227.142C299.107 227.347 312.849 223.963 312.849 223.963L311.208 213.81Z" fill="white" stroke="#25408F" stroke-miterlimit="10" stroke-linecap="round" stroke-linejoin="round"/>
<path d="M335.204 175.047C335.614 177.098 337.768 207.247 337.768 207.247L309.875 213.81L311.31 229.603C311.31 229.603 361.149 223.758 362.071 220.681C362.994 217.605 359.713 164.69 360.021 161.613C360.226 158.537 364.328 148.282 352.227 148.282" fill="#25408F"/>
<path d="M335.204 175.047C335.614 177.098 337.768 207.247 337.768 207.247L309.875 213.81L311.31 229.603C311.31 229.603 361.149 223.758 362.071 220.681C362.994 217.605 359.713 164.69 360.02 161.613C360.226 158.537 364.328 148.282 352.227 148.282" stroke="#25408F" stroke-miterlimit="10" stroke-linecap="round" stroke-linejoin="round"/>
<path d="M339.819 170.022C339.819 170.022 347.92 159.563 356.842 159.973L339.819 170.022Z" fill="#25408F"/>
<path d="M339.819 170.022C339.819 170.022 347.92 159.563 356.842 159.973" stroke="#25408F" stroke-miterlimit="10" stroke-linecap="round" stroke-linejoin="round"/>
<path d="M339.819 173.919C339.819 173.919 346.792 170.022 353.765 170.022L339.819 173.919Z" fill="#25408F"/>
<path d="M339.819 173.919C339.819 173.919 346.792 170.022 353.765 170.022" stroke="#25408F" stroke-miterlimit="10" stroke-linecap="round" stroke-linejoin="round"/>
<path d="M28.5849 355.122V295.747C28.5849 294.721 27.7645 294.003 26.8416 294.003H19.5607C18.5352 294.003 17.8174 294.824 17.8174 295.747V355.122H28.5849Z" fill="#25408F" stroke="#25408F" stroke-miterlimit="10" stroke-linecap="round" stroke-linejoin="round"/>
<path d="M19.5615 355.122V295.747C19.5615 294.721 18.7411 294.003 17.8182 294.003H10.5373C9.51178 294.003 8.79395 294.824 8.79395 295.747V355.122H19.5615Z" fill="#25408F" stroke="#25408F" stroke-miterlimit="10" stroke-linecap="round" stroke-linejoin="round"/>
<path d="M23.5607 355.122H153.386C152.258 352.763 150.823 350.61 148.977 349.379C143.132 345.687 87.0379 336.971 87.0379 336.971L28.7907 336.048L26.0219 336.971C26.0219 336.971 22.9454 341.278 23.2531 343.431C23.3556 344.559 23.4582 349.892 23.5607 355.122Z" fill="#25408F" stroke="#25408F" stroke-miterlimit="10" stroke-linecap="round" stroke-linejoin="round"/>
<path d="M76.4755 224.578C76.4755 224.578 62.8366 232.372 58.222 236.679C53.6073 240.986 45.8136 255.24 45.1984 263.957C44.5831 272.673 37.8149 305.796 37.8149 305.796C37.8149 305.796 23.8684 332.971 26.0219 336.971C28.1754 340.97 85.4997 336.971 87.0379 336.971C88.5761 336.971 85.4997 319.948 85.4997 319.948C85.4997 319.948 107.137 286.517 108.163 277.493C109.086 268.469 102.625 244.062 101.395 238.422C100.062 232.885 79.2443 223.348 76.4755 224.578Z" fill="white" stroke="#25408F" stroke-miterlimit="10" stroke-linecap="round" stroke-linejoin="round"/>
<path d="M65.8096 271.853C65.8096 271.853 76.6797 282.107 81.1918 285.491" stroke="#25408F" stroke-miterlimit="10" stroke-linecap="round" stroke-linejoin="round"/>
<path d="M60.6826 279.852C60.6826 279.852 80.6795 286.722 85.8069 287.235" stroke="#25408F" stroke-miterlimit="10" stroke-linecap="round" stroke-linejoin="round"/>
<path d="M118.931 189.917C118.931 189.917 120.469 201.402 120.161 204.786C119.854 208.171 116.777 219.964 115.854 222.425C114.931 224.886 114.008 227.655 110.624 227.347C107.24 227.039 105.087 225.501 105.087 225.501L101.703 236.987L78.1167 223.348L81.1931 217.195C81.1931 217.195 77.809 211.657 76.8861 202.325C75.9632 192.993 81.1931 182.534 88.0638 178.432C94.832 174.432 106.625 175.97 110.009 178.739C113.393 181.508 118.931 189.917 118.931 189.917Z" fill="white" stroke="#25408F" stroke-miterlimit="10" stroke-linecap="round" stroke-linejoin="round"/>
<path d="M76.7834 218.733C78.014 219.041 104.676 231.141 104.984 234.218C105.292 237.294 106.522 246.934 106.522 246.934C106.522 246.934 98.421 239.858 88.8841 234.525C79.2445 229.295 74.6299 225.501 74.6299 225.501L76.7834 218.733Z" fill="white" stroke="#25408F" stroke-miterlimit="10" stroke-linecap="round" stroke-linejoin="round"/>
<path d="M100.369 164.485C100.369 164.485 108.47 161.101 114.931 162.639C121.391 164.177 123.955 171.663 123.955 177.816C123.955 183.969 120.571 191.455 119.341 191.763C118.11 192.07 115.034 177.201 109.086 172.894C103.138 168.484 100.369 164.485 100.369 164.485Z" fill="#25408F" stroke="#25408F" stroke-miterlimit="10" stroke-linecap="round" stroke-linejoin="round"/>
<path d="M90.422 166.331C90.422 166.331 103.138 159.563 114.316 169.1C125.493 178.637 121.699 188.276 119.238 191.763C116.777 195.147 116.777 201.71 114.931 202.941C113.085 204.171 112.777 198.018 110.624 196.788C108.47 195.557 108.778 200.172 106.317 206.427C103.856 212.58 92.6781 221.604 86.8328 220.989C80.9876 220.374 73.8092 213.913 69.8099 200.274C65.8105 186.635 68.5793 172.074 75.9627 167.459C83.3462 162.639 90.422 166.331 90.422 166.331Z" fill="#25408F" stroke="#25408F" stroke-miterlimit="10" stroke-linecap="round" stroke-linejoin="round"/>
<path d="M115.136 172.176C115.136 172.176 117.597 179.252 111.341 187.251C105.086 195.147 96.5744 199.557 90.3189 195.762C84.0635 191.968 83.7559 187.558 83.7559 187.558" stroke="#25408F" stroke-miterlimit="10" stroke-linecap="round" stroke-linejoin="round"/>
<path d="M73.5014 188.892C73.5014 188.892 72.1683 210.222 84.9868 212.375C97.8053 214.529 104.984 201.197 104.984 201.197" stroke="#25408F" stroke-miterlimit="10" stroke-linecap="round" stroke-linejoin="round"/>
<path d="M77.6037 189.302C84.6831 189.302 90.4222 183.471 90.4222 176.278C90.4222 169.085 84.6831 163.254 77.6037 163.254C70.5242 163.254 64.7852 169.085 64.7852 176.278C64.7852 183.471 70.5242 189.302 77.6037 189.302Z" fill="#25408F" stroke="#25408F" stroke-miterlimit="10" stroke-linecap="round" stroke-linejoin="round"/>
<path d="M74.835 174.329C74.835 174.329 76.4757 165.818 81.0904 164.792" stroke="#25408F" stroke-miterlimit="10" stroke-linecap="round" stroke-linejoin="round"/>
<path d="M74.3223 175.457C74.3223 175.457 83.6541 172.176 87.9611 175.765" stroke="#25408F" stroke-miterlimit="10" stroke-linecap="round" stroke-linejoin="round"/>
<path d="M73.8097 177.098C73.8097 177.098 69.7078 179.867 71.0409 186.122" stroke="#25408F" stroke-miterlimit="10" stroke-linecap="round" stroke-linejoin="round"/>
<path d="M112.47 203.864C112.47 203.864 111.547 194.532 108.779 194.839C106.01 195.147 107.24 209.094 108.779 211.247C110.317 213.401 111.855 211.555 111.855 211.555" fill="white"/>
<path d="M112.47 203.864C112.47 203.864 111.547 194.532 108.779 194.839C106.01 195.147 107.24 209.094 108.779 211.247C110.317 213.401 111.855 211.555 111.855 211.555" stroke="#25408F" stroke-miterlimit="10" stroke-linecap="round" stroke-linejoin="round"/>
<path d="M374.275 342.508H86.6279L96.2674 318.102H309.567L374.275 342.508Z" fill="white" stroke="#25408F" stroke-miterlimit="10" stroke-linecap="round" stroke-linejoin="round"/>
<path d="M370.276 347.431H89.8076V355.122H370.276V347.431Z" fill="#25408F" stroke="#25408F" stroke-miterlimit="10" stroke-linecap="round" stroke-linejoin="round"/>
<path d="M374.275 342.509H86.6279V351.533H374.275V342.509Z" fill="#25408F" stroke="#25408F" stroke-miterlimit="10" stroke-linecap="round" stroke-linejoin="round"/>
<path d="M194.918 321.281L203.327 334.407H135.748L142.311 321.281H194.918Z" fill="white"/>
<path d="M182.202 325.178L190.611 338.406H123.032L129.595 325.178H182.202Z" fill="white"/>
<path d="M100.061 252.779L113.085 313.18L163.538 320.256C163.538 320.256 178.716 314.103 179.946 314.103C181.177 314.103 183.33 317.795 184.253 319.025C185.176 320.256 186.714 322.102 187.33 323.025C187.945 323.948 188.252 328.562 187.33 329.793C186.407 331.023 184.561 334.408 182.715 334.1C180.869 333.792 182.715 328.87 182.715 328.87C182.715 328.87 171.845 333.177 168.461 333.177C165.077 333.177 158.206 330.1 158.206 330.1C158.206 330.1 100.574 336.561 97.1899 335.33C93.8058 334.1 91.9599 332.254 90.7294 329.793C89.4988 327.332 69.707 260.983 69.707 260.983" fill="white"/>
<path d="M100.061 252.779L113.085 313.18L163.538 320.256C163.538 320.256 178.716 314.103 179.946 314.103C181.177 314.103 183.33 317.795 184.253 319.025C185.176 320.256 186.714 322.102 187.33 323.025C187.945 323.948 188.252 328.562 187.33 329.793C186.407 331.023 184.561 334.408 182.715 334.1C180.869 333.792 182.715 328.87 182.715 328.87C182.715 328.87 171.845 333.177 168.461 333.177C165.077 333.177 158.206 330.1 158.206 330.1C158.206 330.1 100.574 336.561 97.1899 335.33C93.8058 334.1 91.9599 332.254 90.7294 329.793C89.4988 327.332 69.707 260.983 69.707 260.983" stroke="#25408F" stroke-miterlimit="10" stroke-linecap="round" stroke-linejoin="round"/>
<path d="M184.252 319.025C183.329 317.795 181.176 314.103 179.945 314.103C178.715 314.103 163.538 320.256 163.538 320.256L134.722 316.154C135.952 319.743 137.388 325.793 136.157 332.459C148.155 331.229 158.308 330.1 158.308 330.1C158.308 330.1 165.076 333.177 168.563 333.177C171.947 333.177 182.817 328.87 182.817 328.87C182.817 328.87 180.971 333.792 182.817 334.1C184.663 334.408 186.508 331.023 187.431 329.793C188.354 328.562 188.047 323.948 187.431 323.025C186.816 322.102 185.175 320.256 184.252 319.025Z" fill="white" stroke="#25408F" stroke-miterlimit="10" stroke-linecap="round" stroke-linejoin="round"/>
<path d="M1 355.122H491.384" stroke="#25408F" stroke-miterlimit="10" stroke-linecap="round" stroke-linejoin="round"/>
<path d="M270.393 334.818H324.949V333.074L243.731 320.974L245.679 322.717L270.393 334.818Z" fill="white" stroke="#25408F" stroke-miterlimit="10" stroke-linecap="round" stroke-linejoin="round"/>
<path d="M270.393 333.074H324.948L296.132 321.179L245.679 320.974L270.393 333.074Z" fill="white" stroke="#25408F" stroke-miterlimit="10" stroke-linecap="round" stroke-linejoin="round"/>
<path d="M279.315 323.639H284.34L281.776 322.511L276.751 322.614L279.315 323.639Z" fill="white" stroke="#25408F" stroke-width="0.75" stroke-miterlimit="10" stroke-linecap="round" stroke-linejoin="round"/>
<path d="M289.672 327.946L292.236 329.074H297.363L294.697 327.946H289.672Z" fill="white" stroke="#25408F" stroke-width="0.75" stroke-miterlimit="10" stroke-linecap="round" stroke-linejoin="round"/>
<path d="M299.106 326.305H293.466L294.902 326.92H300.645L299.106 326.305Z" fill="white" stroke="#25408F" stroke-width="0.75" stroke-miterlimit="10" stroke-linecap="round" stroke-linejoin="round"/>
<path d="M287.211 326.92H292.338L290.8 326.305H285.673L287.211 326.92Z" fill="white" stroke="#25408F" stroke-width="0.75" stroke-miterlimit="10" stroke-linecap="round" stroke-linejoin="round"/>
<path d="M291.005 325.28H296.645L295.004 324.665H289.467L291.005 325.28Z" fill="white" stroke="#25408F" stroke-width="0.75" stroke-miterlimit="10" stroke-linecap="round" stroke-linejoin="round"/>
<path d="M271.521 323.639H276.648L274.187 322.614H269.162L271.521 323.639Z" fill="white" stroke="#25408F" stroke-width="0.75" stroke-miterlimit="10" stroke-linecap="round" stroke-linejoin="round"/>
<path d="M281.674 324.665L283.315 325.28H288.339L286.801 324.665H281.674Z" fill="white" stroke="#25408F" stroke-width="0.75" stroke-miterlimit="10" stroke-linecap="round" stroke-linejoin="round"/>
<path d="M306.798 331.946H312.643L308.233 330.1H302.388L306.798 331.946Z" fill="white" stroke="#25408F" stroke-width="0.75" stroke-miterlimit="10" stroke-linecap="round" stroke-linejoin="round"/>
<path d="M294.697 330.1L299.004 331.946H304.132L299.825 330.1H294.697Z" fill="white" stroke="#25408F" stroke-width="0.75" stroke-miterlimit="10" stroke-linecap="round" stroke-linejoin="round"/>
<path d="M286.903 330.1L291.21 331.946H296.338L292.031 330.1H286.903Z" fill="white" stroke="#25408F" stroke-width="0.75" stroke-miterlimit="10" stroke-linecap="round" stroke-linejoin="round"/>
<path d="M284.34 330.1H274.29L277.879 331.946H288.647L284.34 330.1Z" fill="white" stroke="#25408F" stroke-width="0.75" stroke-miterlimit="10" stroke-linecap="round" stroke-linejoin="round"/>
<path d="M287.006 323.639H292.544L289.775 322.511H284.34L287.006 323.639Z" fill="white" stroke="#25408F" stroke-width="0.75" stroke-miterlimit="10" stroke-linecap="round" stroke-linejoin="round"/>
<path d="M297.363 327.946L300.03 329.074H305.772L303.106 327.946H297.363Z" fill="white" stroke="#25408F" stroke-width="0.75" stroke-miterlimit="10" stroke-linecap="round" stroke-linejoin="round"/>
<path d="M289.57 329.074L287.006 327.946H281.878L284.545 329.074H289.57Z" fill="white" stroke="#25408F" stroke-width="0.75" stroke-miterlimit="10" stroke-linecap="round" stroke-linejoin="round"/>
<path d="M268.855 323.639L266.599 322.716H259.831L261.574 323.639H268.855Z" fill="white" stroke="#25408F" stroke-width="0.75" stroke-miterlimit="10" stroke-linecap="round" stroke-linejoin="round"/>
<path d="M283.109 326.305H277.981L279.417 326.92H284.545L283.109 326.305Z" fill="white" stroke="#25408F" stroke-width="0.75" stroke-miterlimit="10" stroke-linecap="round" stroke-linejoin="round"/>
<path d="M273.982 324.665L275.52 325.28H280.648L279.109 324.665H273.982Z" fill="white" stroke="#25408F" stroke-width="0.75" stroke-miterlimit="10" stroke-linecap="round" stroke-linejoin="round"/>
<path d="M276.854 326.92L275.316 326.305H266.907L268.137 326.92H276.854Z" fill="white" stroke="#25408F" stroke-width="0.75" stroke-miterlimit="10" stroke-linecap="round" stroke-linejoin="round"/>
<path d="M264.856 325.28H272.855L271.317 324.665H263.523L264.856 325.28Z" fill="white" stroke="#25408F" stroke-width="0.75" stroke-miterlimit="10" stroke-linecap="round" stroke-linejoin="round"/>
<path d="M279.213 327.946H270.086L272.342 329.074H281.879L279.213 327.946Z" fill="white" stroke="#25408F" stroke-width="0.75" stroke-miterlimit="10" stroke-linecap="round" stroke-linejoin="round"/>
<path d="M270.393 333.074H268.445L230.707 278.724L232.553 278.108H257.267L270.393 333.074Z" fill="white" stroke="#25408F" stroke-miterlimit="10" stroke-linecap="round" stroke-linejoin="round"/>
<path d="M268.445 333.074L243.731 320.973L230.605 278.108H255.319L268.445 333.074Z" fill="white" stroke="#25408F" stroke-miterlimit="10" stroke-linecap="round" stroke-linejoin="round"/>
<path d="M484.205 355.122V289.184C484.205 288.158 483.385 287.44 482.462 287.44H458.465C457.44 287.44 456.722 288.261 456.722 289.184V355.122H484.205Z" fill="#25408F" stroke="#25408F" stroke-miterlimit="10" stroke-linecap="round" stroke-linejoin="round"/>
<path d="M379.299 250.011C379.299 250.011 368.737 257.086 367.403 261.393C366.07 265.7 358.174 290.414 357.354 292.363C356.533 294.311 350.073 304.258 350.073 304.258L315.309 305.899C315.309 305.899 299.619 302.412 298.184 302.412C296.85 302.412 283.314 311.334 282.186 313.795C281.058 316.256 278.699 319.743 279.725 320.563C280.853 321.384 282.391 320.051 282.391 320.051C282.391 320.051 282.904 323.845 289.672 322.512C296.44 321.179 303.208 316.256 303.208 316.256C303.208 316.256 311.617 320.358 314.899 319.538C315.001 319.538 315.104 319.435 315.207 319.435V323.025C315.207 323.025 361.045 325.486 362.994 324.973C364.942 324.46 374.889 312.257 374.889 312.257L386.58 249.293C386.58 249.19 386.067 243.242 379.299 250.011Z" fill="#25408F" stroke="#25408F" stroke-miterlimit="10" stroke-linecap="round" stroke-linejoin="round"/>
<path d="M316.027 306.822L315.412 305.899H315.309C315.309 305.899 299.619 302.413 298.184 302.413C296.85 302.413 283.314 311.334 282.186 313.795C281.058 316.257 278.699 319.743 279.725 320.564C280.853 321.384 282.391 320.051 282.391 320.051C282.391 320.051 282.904 323.845 289.672 322.512C296.44 321.179 303.208 316.257 303.208 316.257C303.208 316.257 311.617 320.359 314.899 319.538C315.001 319.538 315.104 319.436 315.207 319.436V323.025L316.027 306.822Z" fill="#4C4C4C" stroke="#25408F" stroke-miterlimit="10" stroke-linecap="round" stroke-linejoin="round"/>
<path d="M380.53 355.122H381.555C380.735 353.174 380.017 351.328 379.71 350.405C378.889 347.533 368.429 309.898 367.301 304.361C366.173 298.823 366.686 291.029 369.66 280.057C372.531 269.084 379.299 250.113 379.299 250.113L369.66 263.547C369.66 263.547 361.559 294.824 361.559 298.926C361.559 303.028 365.661 323.537 369.66 333.689C372.018 339.432 376.838 348.559 380.53 355.122Z" fill="#25408F" stroke="#25408F" stroke-miterlimit="10" stroke-linecap="round" stroke-linejoin="round"/>
<path d="M383.607 242.422C383.607 242.422 373.557 258.112 370.891 268.982C368.224 279.852 365.968 289.286 365.968 299.131C365.968 308.873 376.838 336.561 378.479 340.047C380.12 343.534 397.758 344.662 403.193 327.844C408.628 311.026 411.089 262.419 407.808 251.343C404.526 240.268 390.375 235.141 383.607 242.422Z" fill="white" stroke="#25408F" stroke-miterlimit="10" stroke-linecap="round" stroke-linejoin="round"/>
<path d="M380.735 240.166C380.017 241.191 371.096 246.216 371.096 246.216L370.788 255.548L373.454 250.523L377.659 262.931L382.171 239.858L380.735 240.166Z" fill="#808080" stroke="#25408F" stroke-miterlimit="10" stroke-linecap="round" stroke-linejoin="round"/>
<path d="M381.759 355.122H455.594C453.133 348.662 443.801 323.435 443.493 322.307C443.186 320.974 435.494 261.598 427.496 250.523C419.497 239.551 400.833 235.551 396.834 237.807C396.834 237.807 383.503 264.88 378.478 277.493C373.453 290.209 370.171 315.231 370.171 318.923C370.171 322.614 377.145 345.585 377.145 345.585L381.759 355.122Z" fill="#25408F" stroke="#25408F" stroke-miterlimit="10" stroke-linecap="round" stroke-linejoin="round"/>
<path d="M434.983 335.228L402.988 344.765L405.039 348.866L422.78 343.431" stroke="#25408F" stroke-miterlimit="10" stroke-linecap="round" stroke-linejoin="round"/>
<path d="M364.942 193.199C364.942 193.199 362.378 201.095 362.276 202.736C362.173 204.377 362.378 206.325 362.378 206.325C362.378 206.325 362.481 207.351 361.968 208.171C361.456 208.991 355.405 214.837 356.123 215.965C356.841 217.093 360.943 221.707 360.943 221.707C360.943 221.707 363.814 235.551 367.711 237.09C371.608 238.73 377.043 237.705 377.043 237.705L378.991 243.14L403.193 235.244L402.782 227.245C402.782 227.245 405.244 213.093 402.475 202.839C399.911 192.686 375.607 181.611 364.942 193.199Z" fill="white" stroke="#25408F" stroke-miterlimit="10" stroke-linecap="round" stroke-linejoin="round"/>
<path d="M365.762 209.401C365.454 210.632 364.839 211.452 364.429 211.35C364.019 211.247 363.814 210.222 364.121 208.991C364.429 207.761 365.044 206.94 365.454 207.043C365.865 207.248 366.07 208.273 365.762 209.401Z" fill="#25408F"/>
<path d="M364.019 204.069C364.019 204.069 367.403 203.044 368.736 206.736L364.019 204.069Z" fill="white"/>
<path d="M364.019 204.069C364.019 204.069 367.403 203.044 368.736 206.736" stroke="#25408F" stroke-miterlimit="10" stroke-linecap="round" stroke-linejoin="round"/>
<path d="M361.66 223.758C361.66 223.758 364.326 226.425 369.146 224.784L361.66 223.758Z" fill="white"/>
<path d="M361.66 223.758C361.66 223.758 364.326 226.425 369.146 224.784" stroke="#25408F" stroke-miterlimit="10" stroke-linecap="round" stroke-linejoin="round"/>
<path d="M379.812 173.817C379.812 173.817 377.659 167.767 370.788 166.434C363.917 165.101 358.892 174.74 360.636 178.432C362.379 182.124 363.199 182.944 359.815 183.149C356.534 183.354 350.176 191.968 355.713 197.301C361.354 202.633 368.122 195.045 368.429 197.711C368.737 200.377 367.814 202.838 371.096 202.941C374.377 203.043 379.71 202.736 378.889 204.787C378.069 206.838 377.864 211.76 380.94 212.478C384.017 213.196 385.965 209.401 388.119 209.914C390.272 210.427 393.246 217.4 391.298 221.194C389.349 224.989 388.119 224.989 387.811 225.912C387.606 226.834 393.554 233.192 399.809 232.064C405.962 230.936 414.063 228.885 414.986 222.22C415.909 215.554 413.961 214.118 416.524 211.76C419.088 209.401 421.549 208.683 420.831 204.889C420.114 201.095 417.755 199.864 418.473 196.788C419.191 193.711 416.114 179.457 402.783 173.304C389.657 167.254 379.812 173.817 379.812 173.817Z" fill="#25408F" stroke="#25408F" stroke-miterlimit="10" stroke-linecap="round" stroke-linejoin="round"/>
<path d="M405.962 227.757L375.403 245.498L377.659 262.931L410.269 236.987L405.962 227.757Z" fill="white" stroke="#25408F" stroke-miterlimit="10" stroke-linecap="round" stroke-linejoin="round"/>
<path d="M325.974 310.309C325.974 310.309 319.821 308.053 315.925 306.925C309.259 304.976 303.003 302.207 300.645 302.823C298.286 303.541 286.903 311.334 286.903 311.334C286.903 311.334 282.904 320.974 283.212 322.307C283.519 323.64 285.981 321.486 285.981 321.486C285.981 321.486 284.545 323.332 285.878 324.665C287.211 325.999 288.544 323.332 288.544 323.332C288.544 323.332 288.237 326.716 290.185 326.306C292.236 325.999 292.338 324.46 292.338 324.46C292.338 324.46 292.441 326.306 294.184 326.306C295.928 326.306 299.517 319.333 299.517 319.333L305.875 319.641C305.875 319.641 310.9 322.307 313.874 322.614C316.847 322.922 320.539 320.974 320.539 320.974L324.539 321.999L327.923 312.36L325.974 310.309Z" fill="white" stroke="#25408F" stroke-miterlimit="10" stroke-linecap="round" stroke-linejoin="round"/>
<path d="M286.083 321.486C286.083 321.486 289.468 313.283 290.083 312.77C290.596 312.257 297.466 308.36 297.466 308.36" stroke="#25408F" stroke-miterlimit="10" stroke-linecap="round" stroke-linejoin="round"/>
<path d="M288.647 323.332C288.647 323.332 292.749 314.923 293.159 314.513C293.569 314.103 298.799 311.539 298.799 311.539" stroke="#25408F" stroke-miterlimit="10" stroke-linecap="round" stroke-linejoin="round"/>
<path d="M292.544 324.46C292.544 324.46 296.543 316.769 297.159 316.359C297.876 315.949 299.62 315.026 299.62 315.026" stroke="#25408F" stroke-miterlimit="10" stroke-linecap="round" stroke-linejoin="round"/>
<path d="M414.473 249.805C414.473 249.805 393.451 263.444 393.758 268.879C394.066 274.212 395.809 274.212 395.809 274.212L385.144 314.308C385.144 314.308 381.76 311.642 381.453 315.026C381.145 318.41 381.145 318.41 381.145 318.41L325.359 309.078L319.719 323.127C319.719 323.127 342.792 332.151 358.79 337.791C374.787 343.431 391.502 349.789 393.143 346.816C394.784 343.842 427.907 294.414 429.855 290.722C431.906 287.03 431.906 280.364 431.906 280.364" fill="#25408F"/>
<path d="M414.473 249.805C414.473 249.805 393.451 263.444 393.758 268.879C394.066 274.212 395.809 274.212 395.809 274.212L385.144 314.308C385.144 314.308 381.76 311.642 381.453 315.026C381.145 318.41 381.145 318.41 381.145 318.41L325.359 309.078L319.719 323.127C319.719 323.127 342.792 332.151 358.79 337.791C374.787 343.431 391.502 349.789 393.143 346.816C394.784 343.842 427.907 294.414 429.855 290.722C431.906 287.03 431.906 280.364 431.906 280.364" stroke="#25408F" stroke-miterlimit="10" stroke-linecap="round" stroke-linejoin="round"/>
<path d="M395.81 274.212C395.81 274.212 402.168 261.188 417.55 260.163" stroke="#25408F" stroke-miterlimit="10" stroke-linecap="round" stroke-linejoin="round"/>
<circle cx="307.516" cy="106.751" r="4.11466" stroke="#25408F"/>
<circle cx="320.848" cy="108.802" r="4.11466" stroke="#25408F"/>
</svg>
