<svg width="255.56600000000003" height="49.091" xmlns="http://www.w3.org/2000/svg">

 <g>
  <title>background</title>
  <rect fill="none" id="canvas_background" height="402" width="582" y="-1" x="-1"/>
 </g>
 <g>
  <title>Layer 1</title>
  <g id="svg_1">
   <path id="svg_3" d="m22.5,0l-22.5,12.273l0,24.813l22.5,12.005l22.5,-12.005l0,-24.68c0,0 -22.5,-12.406 -22.5,-12.406zm-2.045,43.364l-13.631,-7.272l8.593,-5.729c2.209,-1.471 -0.135,-4.825 -2.543,-3.222l-8.783,5.854l0,-16.161l16.364,8.924l0,17.606zm-14.047,-29.925l14.046,-7.662l0,9.053c0,2.706 4.091,2.708 4.091,0l0,-9.031l14.134,7.795l-16.169,8.628l-16.102,-8.783zm18.137,12.334l16.364,-8.732l0,15.955l-8.72,-5.813c-2.416,-1.606 -4.752,1.749 -2.547,3.22l8.534,5.688l-13.631,7.274c0,0 0,-17.592 0,-17.592z" fill="#FFFFFF"/>
   <text font-weight="bold" stroke="null" transform="matrix(1.031853583925977,0,0,1.0712152605692367,3.45530942328449,-1.8093608604345492) " xml:space="preserve" text-anchor="start" font-family="Georgia, Times, 'Times New Roman', serif" font-size="36" id="svg_5" y="36.689243" x="50.516953" stroke-opacity="null" stroke-width="0" fill="#ffffff">Khang Thi</text>
  </g>
 </g>
</svg>