<svg id="Layer_1" data-name="Layer 1" xmlns="http://www.w3.org/2000/svg" width="800" height="325" viewBox="0 0 800 325"><defs><style>.cls-1,.cls-15,.cls-8{fill:#006fcf;}.cls-1,.cls-10,.cls-15,.cls-16,.cls-17,.cls-3,.cls-4,.cls-5{stroke:#fff;}.cls-1,.cls-10,.cls-12,.cls-13,.cls-15,.cls-16,.cls-17,.cls-3,.cls-4,.cls-5,.cls-9{stroke-miterlimit:10;}.cls-1{stroke-width:0.91px;}.cls-13,.cls-2{fill:#fff;}.cls-10,.cls-16,.cls-3,.cls-7{fill:#00175a;}.cls-11,.cls-17,.cls-4{fill:#ff6d6a;}.cls-4,.cls-5{stroke-width:0.98px;}.cls-14,.cls-5{fill:#b2b9cd;}.cls-6{fill:#ccd1de;}.cls-12,.cls-9{fill:none;}.cls-9{stroke:#b2b9cd;stroke-width:1.5px;}.cls-10{stroke-width:0.55px;}.cls-12,.cls-13{stroke:#00175a;stroke-width:1.38px;}.cls-15,.cls-16,.cls-17{stroke-width:0.43px;}</style></defs><rect class="cls-1" x="282.85" y="127.72" width="43.24" height="43.24"/><rect class="cls-2" x="290.49" y="157.26" width="14.79" height="6.33"/><rect class="cls-1" x="325.97" y="127.72" width="43.24" height="43.24"/><rect class="cls-2" x="333.62" y="157.26" width="14.79" height="6.33"/><rect class="cls-1" x="299.84" y="84.48" width="43.24" height="43.24"/><rect class="cls-2" x="307.48" y="114.02" width="14.79" height="6.33"/><rect class="cls-3" x="269.5" y="241.16" width="35.5" height="35.5"/><rect class="cls-2" x="275.78" y="263.14" width="17.46" height="7.47"/><rect class="cls-3" x="269.5" y="205.52" width="35.5" height="35.5"/><rect class="cls-2" x="275.78" y="227.5" width="17.46" height="7.47"/><rect class="cls-3" x="305.08" y="241.09" width="35.5" height="35.5"/><rect class="cls-2" x="311.36" y="263.07" width="17.46" height="7.47"/><rect class="cls-3" x="305.08" y="205.52" width="35.5" height="35.5"/><rect class="cls-2" x="311.36" y="227.5" width="17.46" height="7.47"/><rect class="cls-4" x="346.17" y="251.22" width="47.41" height="25.78"/><rect class="cls-2" x="352.45" y="263.47" width="17.46" height="7.47"/><rect class="cls-4" x="346.17" y="225.56" width="47.41" height="25.78"/><rect class="cls-2" x="352.45" y="237.82" width="17.46" height="7.47"/><rect class="cls-5" x="350.9" y="39.7" width="47.41" height="25.78"/><rect class="cls-2" x="357.18" y="51.96" width="17.46" height="7.47"/><rect class="cls-5" x="350.9" y="14.05" width="47.41" height="25.78"/><rect class="cls-2" x="357.18" y="26.3" width="17.46" height="7.47"/><rect class="cls-4" x="393.58" y="251.22" width="47.41" height="25.78"/><rect class="cls-2" x="399.86" y="263.47" width="17.46" height="7.47"/><rect class="cls-4" x="393.58" y="225.56" width="47.41" height="25.78"/><rect class="cls-2" x="399.86" y="237.82" width="17.46" height="7.47"/><rect class="cls-6" x="264.58" y="69.92" width="5.48" height="254.49"/><rect class="cls-6" x="353.47" y="-29.2" width="5.48" height="192.76" transform="translate(289.04 423.39) rotate(-90)"/><rect class="cls-6" x="353.47" y="76.53" width="5.48" height="192.76" transform="translate(183.31 529.12) rotate(-90)"/><rect class="cls-6" x="353.47" y="182.25" width="5.48" height="192.76" transform="translate(77.58 634.85) rotate(-90)"/><rect class="cls-6" x="443.94" y="69.92" width="5.48" height="254.49"/><rect class="cls-1" x="72.1" y="234.97" width="43.24" height="43.24"/><rect class="cls-2" x="79.74" y="264.51" width="14.79" height="6.33"/><rect class="cls-1" x="115.22" y="234.97" width="43.24" height="43.24"/><rect class="cls-2" x="122.86" y="264.51" width="14.79" height="6.33"/><rect class="cls-1" x="89.08" y="191.73" width="43.24" height="43.24"/><rect class="cls-2" x="96.73" y="221.27" width="14.79" height="6.33"/><rect class="cls-3" x="214.41" y="241.63" width="35.5" height="35.5" transform="translate(464.32 518.75) rotate(-180)"/><rect class="cls-2" x="226.17" y="263.6" width="17.46" height="7.47" transform="translate(469.8 534.68) rotate(-180)"/><rect class="cls-3" x="214.41" y="205.98" width="35.5" height="35.5" transform="translate(464.32 447.46) rotate(-180)"/><rect class="cls-2" x="226.17" y="227.96" width="17.46" height="7.47" transform="translate(469.8 463.39) rotate(-180)"/><rect class="cls-3" x="178.84" y="241.55" width="35.5" height="35.5" transform="translate(393.17 518.6) rotate(-180)"/><rect class="cls-2" x="190.6" y="263.53" width="17.46" height="7.47" transform="translate(398.65 534.53) rotate(-180)"/><rect class="cls-5" x="190.51" y="145.9" width="47.41" height="25.78" transform="translate(428.42 317.57) rotate(-180)"/><rect class="cls-2" x="214.17" y="158.15" width="17.46" height="7.47" transform="translate(445.81 323.78) rotate(-180)"/><rect class="cls-5" x="190.51" y="120.24" width="47.41" height="25.78" transform="translate(428.42 266.26) rotate(-180)"/><rect class="cls-2" x="214.17" y="132.5" width="17.46" height="7.47" transform="translate(445.81 272.46) rotate(-180)"/><rect class="cls-4" x="121.07" y="146.42" width="47.41" height="25.78" transform="translate(289.54 318.61) rotate(-180)"/><rect class="cls-2" x="144.74" y="158.67" width="17.46" height="7.47" transform="translate(306.93 324.81) rotate(-180)"/><rect class="cls-4" x="121.07" y="120.76" width="47.41" height="25.78" transform="translate(289.54 267.29) rotate(-180)"/><rect class="cls-2" x="144.74" y="133.01" width="17.46" height="7.47" transform="translate(306.93 273.5) rotate(-180)"/><rect class="cls-4" x="73.66" y="146.42" width="47.41" height="25.78" transform="translate(194.73 318.61) rotate(-180)"/><rect class="cls-2" x="97.33" y="158.67" width="17.46" height="7.47" transform="translate(212.12 324.81) rotate(-180)"/><rect class="cls-4" x="73.66" y="120.76" width="47.41" height="25.78" transform="translate(194.73 267.29) rotate(-180)"/><rect class="cls-2" x="97.33" y="133.01" width="17.46" height="7.47" transform="translate(212.12 273.5) rotate(-180)"/><rect class="cls-6" x="249.43" y="69.92" width="5.48" height="254.49" transform="translate(504.34 394.33) rotate(-180)"/><rect class="cls-6" x="160.53" y="-29.2" width="5.48" height="192.76" transform="translate(96.09 230.45) rotate(-90)"/><rect class="cls-6" x="160.53" y="76.53" width="5.48" height="192.76" transform="translate(-9.63 336.18) rotate(-90)"/><rect class="cls-6" x="160.53" y="182.25" width="5.48" height="192.76" transform="translate(-115.36 441.9) rotate(-90)"/><rect class="cls-6" x="70.06" y="69.92" width="5.48" height="254.49" transform="translate(145.6 394.33) rotate(-180)"/><path class="cls-6" d="M646.53,192.29V183l0,.71c0-.26,0-.52,0-.77v-2.5c.42-5.73,3.62-10,6.12-13.93l.59-1c2.31-4.62,5.53-9.22,6.82-14.25a43.72,43.72,0,0,0,1.41-14.89,23.3,23.3,0,0,0-4.21-11.48,20.74,20.74,0,0,0-8-7.2,28,28,0,0,0-6.78-2.5c-.69-.15-1.63-.31-2.56-.45a42.39,42.39,0,0,0-6.06-.44,44.74,44.74,0,0,0-8.19.34c-.63.11-2.72.21-3.34.37-6.5,1.68-11.58,4.34-14.41,10.2h0a22.66,22.66,0,0,0-2.74,4.78c-1,2.77-4.62,10.72-.8,15.13a1.22,1.22,0,0,1,.06,1.89c-.91,1.11-4.23,5.67-5.3,7.09a2,2,0,0,0,1.91,3.27c1-.09,1.23.92,1,1.74a6.59,6.59,0,0,1-.92,1.75,2.46,2.46,0,0,0,.68,3.06,1.29,1.29,0,0,1,.21.24,2.89,2.89,0,0,0,1.78,4.82c.83.19,1.15.5,1,1.28-.14,1.11-.34,2.21-.47,3.32-.32,2.92,1,4.36,3.76,4.56a35.3,35.3,0,0,0,6-.33L619,177s.06,14.44,0,16.58c-.7,6.14-5.91,13.87-12.24,13.87l26.84,18.39L661,207.47C654.23,207.47,646.61,199.05,646.53,192.29Z"/><path class="cls-6" d="M595.33,199.43h11.75a12.11,12.11,0,0,0,12.11-12.12v-9.52h27v9.52a12.11,12.11,0,0,0,12.11,12.12h13.62c25.66,0,31.48,31.5,11,43.77a16.38,16.38,0,0,0-6.92,8.13l-.55,1.4a62.65,62.65,0,0,1-.61,26.08c-3.38,15.13-6.59,42.7,1,68.21,11.61,38.89-95.5,37.47-84.88,0,7-24.59,5.12-51,2.44-66.33-1.77-10.15-3.5-18.52-1-28.51h0a15.92,15.92,0,0,0-7.52-8.84C562.85,231.8,570.44,199.43,595.33,199.43Z"/><path class="cls-7" d="M646.57,183.61c0-.24,0-.48,0-.73V183Z"/><path class="cls-7" d="M625.71,114.56c-.63.11-2.72.21-3.34.37-6.5,1.68-11.58,4.34-14.41,10.2.22-.46,10.67-1.8,16.07,3.79,1.53,1.58,3.18,3.14,3.94,5.21,1,2.64-1.18,11-.74,13.77s2.19,5.79,5,6A6.35,6.35,0,0,1,637,146c3.46-.56,7,.68,7,4.19,0,3-2.32,5.45-3.42,8.25-3.81,9.68,5.62,9.17,5.62,16.62,0,2.58.11,5.19.27,7.82a17.07,17.07,0,0,1,.31-4.71c.06-.26.13-.51.2-.76.11-.46.23-.91.37-1.35.1-.28.2-.55.31-.82s.3-.79.46-1.17.25-.54.38-.8.36-.73.55-1.08l.42-.77c.21-.36.41-.71.63-1l.42-.7.72-1.12,1.25-1.93.08-.13,0-.06.57-1c.13-.28.28-.55.43-.82s.29-.58.45-.87.32-.58.48-.87l1-1.75.45-.8.57-1c.13-.25.27-.5.41-.75l.56-1.09.36-.71c.18-.36.35-.73.51-1.1s.23-.48.33-.71c.18-.41.33-.82.49-1.24l.24-.61c.22-.62.41-1.25.57-1.88a45.73,45.73,0,0,0,1.55-11.12,36.65,36.65,0,0,0-.14-3.77,26.33,26.33,0,0,0-.48-3.1,23.55,23.55,0,0,0-3.73-8.38,20.74,20.74,0,0,0-8-7.2,28,28,0,0,0-6.78-2.5c-.69-.15-1.63-.31-2.56-.45a42.39,42.39,0,0,0-6.06-.44c-1.38,0-2.75,0-4.11,0A24.26,24.26,0,0,0,625.71,114.56Z"/><ellipse class="cls-8" cx="651.29" cy="193.89" rx="23.44" ry="25.79"/><rect class="cls-2" x="603.54" y="138.4" width="6.25" height="14.92" rx="2.05" transform="translate(1213.34 291.73) rotate(180)"/><path class="cls-7" d="M607.08,154.42h-.82a3.82,3.82,0,0,1-3.82-3.81v-9.49a3.83,3.83,0,0,1,3.82-3.82h.82a3.83,3.83,0,0,1,3.82,3.82v9.49A3.82,3.82,0,0,1,607.08,154.42Zm-.82-14.92a1.63,1.63,0,0,0-1.62,1.62v9.49a1.62,1.62,0,0,0,1.62,1.61h.82a1.61,1.61,0,0,0,1.61-1.61v-9.49a1.62,1.62,0,0,0-1.61-1.62Z"/><path class="cls-7" d="M645.18,154.7a1.1,1.1,0,0,1-1.1-1.1v-4a4,4,0,0,0-4-4H611.3a1.1,1.1,0,0,1,0-2.2h28.79a6.19,6.19,0,0,1,6.19,6.19v4A1.1,1.1,0,0,1,645.18,154.7Z"/><circle class="cls-2" cx="634.99" cy="162.58" r="1.85"/><path class="cls-8" d="M662.4,136.29a23.3,23.3,0,0,0-4.21-11.48,20.74,20.74,0,0,0-8-7.2,27.87,27.87,0,0,0-6.78-2.5c-.69-.15-1.63-.31-2.56-.45a43.39,43.39,0,0,0-5.45-.56,56.65,56.65,0,0,0-13.23.83,15,15,0,0,1,6.24,2.32c3.1,2.3,5.94,5.81,7.67,11.89,2.67,9.39,2.75,19.37,1.89,29.1-.59,6.65.51,16-21.52,20.2h0a30.31,30.31,0,0,0-11.1,22.14c-.57,14,2.07,33.86,20.45,38.37,29.39,7.21,29.16-45.66,29.16-45.66-.51-7-4.3-22.34-1.44-26.8a9.85,9.85,0,0,0,.52-.89c2.32-4.67,5.6-9.33,6.92-14.42A43.71,43.71,0,0,0,662.4,136.29Z"/><path class="cls-7" d="M656.31,174c-.11.07.07.26-.07.12S656.27,174,656.31,174Z"/><path class="cls-7" d="M668.59,194.27c-.76-.36,0-.73-.44-1.09,0-.05.42,0,.32-.07-.59-.36-.21-.86.27-1.26l.12,0c.09-.08-.31-.18-.25-.26a.75.75,0,0,0,.22,0c-.23,0-.1-.15-.28-.19.1,0,.29,0,.39-.07l-.27-.05c-.64-.13.07-.31-.28-.49a.37.37,0,0,0,.18,0c-.41-.28-.36-.63-.52-.94a2.44,2.44,0,0,0,.38,0c-.29,0-.36-.1-.42-.18.29-.06-.28-.14-.12-.24H668c-.31-.05.17-.12-.2-.15l.23-.06c-.42,0,.21-.12,0-.17h-.08c-.1,0,.1-.1,0-.14H668c-.12-.12.11-.21-.22-.18.26-.06.13.11.5,0-.36-.39-.29-.81-.36-1.22a.85.85,0,0,1,.28-.12c-.07,0-.09-.15-.26-.16a.51.51,0,0,0,.18-.07c.11-.09-.37,0-.24-.14a.66.66,0,0,0,.31,0c-.26,0-.23-.13-.33-.2a.59.59,0,0,0,.19,0c-.29-.05,0-.17-.15-.22h.19c.2-.16-.4,0-.28-.11a.51.51,0,0,0,.21,0c-.36-.05-.27-.23-.4-.31h.07c-.06-.1,0-.24-.14-.33.08-.06.46-.07.37-.18-.37.08-.19-.17-.59,0,0-.11.16-.3,0-.34.15,0,.44-.14.49-.07l.21-.11c.15,0,0,.08.14,0,0,0-.18-.13-.13-.19-.24,0-.67,0-.75-.11.15,0,.39-.12.46-.1H667s.29-.08.18-.11a1.07,1.07,0,0,1-.25,0s-.14-.13.22-.25c.13-.05.09.05.21,0s-.15,0-.18-.11l.05,0c0-.06-.2-.1-.38,0,0,0,.21-.07.12,0s-.3,0-.32-.11a1,1,0,0,0,.26,0,1.2,1.2,0,0,1-.57-.17c-.17.05.32-.05.23,0,.19-.21-.41-.18-.11-.4,0,0-.23.08-.18.07s.24-.15.14-.16c.14-.06-.06,0-.12-.07s.07,0,.1,0c-.14,0-.43-.19-.27-.4a.78.78,0,0,1-.37,0l.22-.07c.12-.08-.07-.1.12-.17-.3,0,.33.17.09.15.17-.09-.4,0-.1-.08,0-.06-.3,0-.13-.17,0,0,.33-.06.29-.11s-.12,0-.22,0h-.11c-.21.08,0-.09-.22,0,.16-.08-.17-.08.18-.21l.28-.11a2.13,2.13,0,0,0-.45.08,1.34,1.34,0,0,1,.12-.06c-.42.17,0-.11-.34,0,.1-.15-.08-.21.16-.36-.15,0-.32,0-.27-.1a.39.39,0,0,0,.16,0c.1-.1,0-.06-.1-.07.07,0,.2-.2.32-.33a1.56,1.56,0,0,0-.49.19c.37-.25-.33,0,0-.29.06,0,.23,0,.31-.11.37-.27-.34,0-.2-.15l-.32.2c.18-.15-.26,0,.08-.19-.14,0,0-.16-.27,0,.18-.29-.35-.22.14-.64-.06,0,0-.07-.19,0s.15,0,0,0-.11,0-.15.06,0-.13.32-.25-.57.23-.53,0,.17-.12.13-.14l-.25.08c0-.11.25-.24.46-.38-.06,0-.08-.07-.25,0l.23-.23c-.17.17-.15.05-.21.07l.06,0c.08-.06,0-.08,0-.08a.51.51,0,0,0-.17.23c-.1,0-.1,0-.22,0,.2-.14.1-.17.1-.22s-.21.1-.21.08,0-.07.14-.15-.08.1,0,.05.24-.21.07-.16-.39.31-.32.15a1.71,1.71,0,0,0,.23-.12l.05-.14-.18.14.08-.07c-.2.12-.14,0-.36.1,0,0,.07-.16.06-.2h0c.08-.12,0-.11-.18,0l0,0s-.07-.06-.19,0c.09-.16.63-.58.37-.45-.05,0-.38.2-.47.31,0-.19-.31,0-.13-.36-.07.05-.11.1-.17.11,0-.2-.42-.07-.22-.47.1,0,.16-.16.24-.25-.17.12.11-.19-.14.05s-.21.22-.23.32-.26-.09-.17-.26a.38.38,0,0,1-.16.15c.22-.24.2-.33.08-.28l-.14.15.11-.18c-.06,0-.29.3-.21.12a1.55,1.55,0,0,0,.13-.17c-.15.08-.38.25-.32.08l.14-.26a.34.34,0,0,0-.2.21,1,1,0,0,1,.12-.5c-.52.38-.74.28-.89.13l.08-.12c0-.15-.16.2-.14.09s.13-.28.26-.4-.23.16-.3.19.1-.09,0,.12c-.05.05,0-.19-.18.05a3,3,0,0,1,.24-.38l-.11.09c.12-.33.43-.44.6-.84h-.07c.12-.29.29-.22.24-.39a1.76,1.76,0,0,0-.41.58c-.13,0-.39.58-.47.49s.09,0,.19-.21-.15.06-.15,0a.76.76,0,0,1-.25.39c0-.14.17-.22.11-.28-.09.14-.22.22-.22.35-.21.33,0-.13-.2.12.1-.25.37-.52.35-.68-.11.24-.26.27-.4.63a1.24,1.24,0,0,1,.19-.39c0-.17-.32.37-.1-.1l-.13.23c0-.08,0-.15.07-.29s-.28.27-.1-.1c0,0-.12,0-.2.24s.15-.15,0,.21c.09-.3-.09,0-.17.07l.06-.14c0,.05-.07,0-.15.14a.5.5,0,0,0,.09-.21l-.12.2c-.12.08.15-.39,0-.36l.13-.14s0-.19,0-.14l-.3.57c-.08.07.07-.23,0,0l.15-.21c0-.06.11-.35,0-.37a.86.86,0,0,0-.22.46s0-.15.06-.28c-.1,0-.08.22-.19.32,0-.14,0-.36.06-.57l.19-.32h0c.16-.26.05-.22.19-.5,0,0-.09,0-.14.1-.09.49-.33.59-.45,1-.15.08.28-1-.06-.43,0,.12-.18.42-.07.33,0-.07-.18.41-.2.2s.07-.45.24-.67c0,.14,0,.12,0,.08s.15-.42.07-.45-.12,0-.18.24.08,0,0,.23c-.11.06,0-.32-.18.1.06,0,0,.25,0,.41l-.09.08.06-.15c-.07-.16-.12.28-.2.21l0-.34c.1-.27.1.17.22-.29-.06,0-.15.19-.18,0l.07-.08s.13-.62-.07-.29c-.08.12-.05.16-.1.33s-.19.19-.26.2c.09-.33-.11-.06,0-.39,0,.21.14.23.27-.08s.07.07.2-.32c-.09,0,0-.42.07-.68,0,0-.07.08-.1.12-.07.24,0,.24-.1.49-.08-.09-.22,0-.32.24a.64.64,0,0,1,.1-.38.35.35,0,0,1-.35-.12c0,.41-.15.06-.16.4a1.14,1.14,0,0,1,0,.57s0-.17,0-.26c-.08.2,0-.36-.11,0,.13-.11.11-.48.19-.79-.12.17,0-.22,0-.23a1.19,1.19,0,0,1-.33.34c-.07-.32-.29-.05-.38-.05,0-.17,0-.52,0-.59s0,.39-.07.22l0-.07c0,.08-.17-.26-.24.25l.06-.38s0,0-.06.09a1,1,0,0,1,0-.32c0-.28-.14,0-.21,0l0,.23c-.13.17-.19-.06-.31,0v-.22l-.07.13c0-.22,0-.36-.09-.18l.2-.54c0,.13-.07.27,0,.49s.13.13.16-.08c0,0,0,0-.08.1a1.41,1.41,0,0,1,.1-.5s0-.09-.06,0c.05-.15.1-.17.18-.17s0,.19,0,.28c0-.27.1-.35.19-.27,0,.32.19-.19.3-.09a2.41,2.41,0,0,1-.22.6c0,.14.07,0,.13.14a1.85,1.85,0,0,1,.21-.64l0,.21c.09-.1.12-.4.22-.33a1.59,1.59,0,0,0,.48.21l0,.2c.15-.42.27-.13.41-.29.13.23.41-.1.42.26a1.13,1.13,0,0,1,.92,0l-.14.27c.12-.19,0,.18,0,.15,0-.25.17-.27.26-.43.06.27.32.09.52-.06l-.07.19c.26-.32.29.05.4.18s-.06.28,0,.28a1,1,0,0,1,.45-.36.52.52,0,0,1,.22.34c.54-.27.72.18,1.18.15l-.11.22c.59-.23.72.39,1.12.38l-.27.31c0,.16.23.06.39-.19,0,.16.32,0,.15.31,0,.12.22-.06.32-.05,0,.25.13.27.33.34l0,0c-.08.06-.2.19-.18.24s.12.25.41-.16c0,.33.51.18.37.6.08-.11.13-.09.21-.13.13.13,0,.46.32.42,0,.06-.21.11-.17.18s.13-.12.23-.12c.38.06.18.61.4.77.48.23.63.73.9,1.09l-.08,0c.4-.06-.15.5.41.32-.07.07,0,.13-.15.2.3,0-.06.41.31.41,0,0,0,0-.07,0-.12.26.21.26.1.51a.43.43,0,0,0-.18,0c-.14.15.45,0,0,.21,0,0,.23-.07.21-.09,0,.43.43.69.7,1-.15.37-.74.29-.32.38-.08,0,.18-.05.09,0,.15,0-.47.31-.22.28s.17,0,.34-.07c-.13.23-.37.34-.12.4l-.15,0c.46,0,.29.27.81.26a13.64,13.64,0,0,1,1,2.49c0,.87.46,1.7.2,2.59-.39.24-.38.25-.2.46-.07,0-.08,0-.14,0,.33,0,0,.15.36.15a4.32,4.32,0,0,0,.08.94c0-.05-.31-.06-.29,0l.22,0-.09,0a.37.37,0,0,0,.32,0c.36.83-.34,1.64-.29,2.43-.15.19,0,.46,0,.67-.47.6-.85,1.11-.56,1.74C669.63,194.68,668.78,194.53,668.59,194.27Z"/><path class="cls-7" d="M656.45,174a1,1,0,0,1,0,.48A4.23,4.23,0,0,1,656.45,174Z"/><path class="cls-7" d="M658.05,175.87c0-.05,0,.06,0,.09s-.06.15-.06.06S658,175.93,658.05,175.87Z"/><path class="cls-7" d="M658.44,176.05c0,.14-.15.24-.2.24Z"/><path class="cls-7" d="M658.66,176.73c0,.13,0,.19-.07.18A1,1,0,0,1,658.66,176.73Z"/><path class="cls-7" d="M658.77,176.41s0,.09,0,.18C658.82,176.46,658.69,176.65,658.77,176.41Z"/><path class="cls-7" d="M659.39,177.06s.11-.1.07.06C659.48,177,659.31,177.26,659.39,177.06Z"/><path class="cls-7" d="M659.82,177s0,0,0,0a.33.33,0,0,1-.09.17Z"/><polygon class="cls-7" points="665.18 181.2 665.1 181.19 665.23 181.13 665.18 181.2"/><path class="cls-7" d="M666.35,184.22c.1,0-.13.06-.15.08S666.38,184.26,666.35,184.22Z"/><polygon class="cls-7" points="667.48 185.8 667.47 185.79 667.77 185.74 667.48 185.8"/><path class="cls-7" d="M621.47,179.77c-.51-.18.14.35-.37-.06C621.23,179.64,621.36,179.61,621.47,179.77Z"/><path class="cls-7" d="M611.79,199c.85,1.72.13,4.08.88,5.95.06.22-.43,0-.27.48a21.34,21.34,0,0,1,.87,7l-.15-.11c0,.45.55.87.61,1.33-.08,0-.15-.12-.22,0,.26.06.32.78.54.93,0,.2-.23.23-.27.49l.33.18c.76.53.51,1.71,1.17,2.54-.07,0-.15-.1-.18,0,.46.68.82,1.5,1.33,2.27a14,14,0,0,0,1.47,2.31c-.12,0-.3,0-.33.18.29-.08.67.32,1,.67-.09.33.63.52.93,1l-.08,0c.51.06.31.54.8.51l0,.34c.41-.19.27.6.68.63l0-.07c.32.09.34.34.62.45v.05c.63.28.85.7,1,.41.08.36-.61-.26-.48.27a13.25,13.25,0,0,0,6.74.94c.27.07.44.07.53.18.21-.12.84-.25,1-.46-.08,0,.19.13.31.11.45,0,.32-.49.8-.51-.14.15-.16.27-.07.36a4.05,4.05,0,0,1,1.19-.79c-.05.08-.14.15-.08.24.36-.43.87-.32,1.18-.71l-.06.24c.74-.15,0-.44.61-.63-.1.12,0,.16,0,.24.35-.57,1.21-.93,1.59-1.4a.11.11,0,0,0,0,.08,10.78,10.78,0,0,0,1.54-1.23c.24-.1.23.41.69-.09-.26-.27.75-.87.17-.93.46-.33,1.25-.8,1.4-1.18-.07.28.52.12.21.49l.41-.1c.07.15-.29.23-.08.29a6.87,6.87,0,0,1,.73-.92,3.52,3.52,0,0,1,.55-1.6c-.12.34.44.13.34.34l.08-1.24c.13-.19.26.15.4-.18-.09-.05,0-.2,0-.33s.54-.81.89-.67c.18,0-.18.35.09.23a7.59,7.59,0,0,0,.44-.79l.05,0c.21-.2.35-.79,0-.65-.12.16.22.07,0,.25a1.82,1.82,0,0,1,.42-1.1c0,.16.06.2.11.31a6.56,6.56,0,0,1,.64-1.8c-.14-.1.13.37,0,.4.66-.56.6-1.65,1.27-2.05,0,.11-.25-.07-.2-.06.22-.33.43-.18.48-.45.15,0,.13-.31.23-.56s.1,0,0,.18a7.29,7.29,0,0,1,1.15-2.49c-.1,0-.09-.63,0-.8l.18.17c.21-.1.28-.6.46-.55,0-.5-.51,1.57-.45,1,.24-.05,0-.87.26-.63.17-.36.08-.83.43-1.08-.07.08.16.43.28.12.19-.54,0-.19.08-.65l0-.3c-.2-.11.23-.45-.09-.36.2,0,.23-.8.55-.6l.24.19c.08-.24-.12-.49-.17-.72,0,0,.12-.05.16,0-.39-.2.24-.54,0-.94.32-.43.46-1.22.81-1.35a2.19,2.19,0,0,1,.22-1.2c0,.1,0,.22.06.27.22-.22.15-.32.15-.6,0,.08.41-.46.65-.71,0-.42-.28-.36-.41-.45.52-.21,0-1.14.55-1.46,0,.15.05.61.25.33.53-.23-.11-.79.25-1.29l-.39,0c.29-.19,0-.88.34-.73-.09-.22.27-.64-.09-.66.49-.86.35-2.28,1.07-2.73,0-.15.08-.48-.11-.44-.24.19.09.34-.06.4a.19.19,0,0,0-.13-.19c.13-.28.19-.5.44-.17.32-.62-.5-.78-.23-1.58.15.06.21,0,.23-.24l-.18-.5c.14-.52.38-.25.63-.23,0-.3.08-.65-.09-.8l.34-.31c-.25.23-.13-.26-.17-.4l0,.14c.12,0,.08-.38.07-.56-.16,0-.26.36-.32.54-.1-.16-.05-.38-.16-.59.24.09.22-.45.26-.68s-.19-.32-.17-.39.06-.43.22-.21-.15.19-.05.35c.11-.16.33-.12.2-.5s-.49,0-.28-.47c0,.14.14.17.22.29l.17-.48-.22,0c.06-.06.08,0,.11,0-.23-.16,0-.74-.27-.86,0-.24.17-.5.2-.73v0a1,1,0,0,0-.08-.9h0a1.32,1.32,0,0,0-.14-.72c.18-.39.86-.12.58-.56,0-.4-.4-.62-.54-.46.19-.72-.26-1.52.07-2.19-.1-.1-.15,0-.21-.24,0-1-.33-2.18,0-3,.13.29.23,0,.35,0-.23-.23.17-.33-.18-.38-.2,0-.3,0-.35.33a4.11,4.11,0,0,1-.16-1.91c-.07.18-.15.06-.22-.07.32,0,.32-.46.16-.79l-.2,0,.17-.26c-.08-.13-.43-.09-.26-.26a.75.75,0,0,0,.2-.1c-.19-.13-.46-.05-.34-.3a3,3,0,0,0,.22-.4s-.2.07-.25.26c.1-.42.08-.64.23-1.17a1.45,1.45,0,0,0-.56.76,1.47,1.47,0,0,1-.34.52l0-.2c-.12-.07,0,.35,0,.28s-.19-.25-.18-.53c-.24,0-.08.48-.09.6s0-.16.12,0c0,0,0,0-.08.07s-.21.27-.11.38c-.18,0-.27-.2-.31-.33l-.11.34c-.51.08.13-1.1-.46-1l-.16.25c-.42,0,.24-.82-.32-.32-.1.34,0,.83.33.7-.4.56.31.7-.21,1.23-.27,0,.37-.47.09-.52s-.37.59-.65.76c.32-.17.34.24.22.44-.35.19,0-.37-.42,0,.07.18-.18.63.2.4.14.41-.45.34-.46.75-.32-.07,0-.82-.56-.51.25.12-.28.76.22.82-.22.1-.38,0-.37-.26-.35.11-.25.9-.69.6l.1.28c-.13,0-.28.06-.5.07-.21.2-.46.9-.71.58,0,.09-.57.51-.19.55.43-.14.23-.46.66-.33-.43,0-.43.42-.55.66l-.13-.1c-.08.14-.35.33-.31.52,0-.14-.09-.19-.2-.14l0,.28c-.38.47-.37-.23-.77.18l.22-.42c-.05.09-.32.06-.5.27,0,.23,0,.56.07.74-.2.27-.26-.1-.39.26l.18-.45c0-.1-.44-.12-.78.13-.17.22-.34.73.08.57-.17.13-.49.2-.45,0-.35.35.19.16-.08.52-.21,0-.8.09-1.19.09l.18-.53-.25.15c.16-.45-.28-.09-.26-.46a1.08,1.08,0,0,0-.46.44c.75.11-.2.91.17,1.21-.64.53-1-.68-1.37.31.18,0,0,.53.37.18-.47.18-.1.56-.73.66.32-.36-.62-.2-.17-.72,0,.15.37-.06.44-.14-.27-.06-.17-.41-.62-.19-.26.18-.63.37-.48.56s.41-.24.34.08c-.52.36-.76.06-.83.56.36-.17.54,0,.61.17a2.55,2.55,0,0,1-.38.29v-.19c-.75.16-.09.37-.8.59l-.44-.19c.06-.33,1-.26.74-.65-.44.15-.5.43-1,.47.08-.07.2-.13.28-.21-.17.05-.53-.48-1,.1-.27.25,0,.19,0,.36-.72.25-.89.48-1.37.63,0-.36-.85.18-.4-.3a1.72,1.72,0,0,0,1.51-.54c-.38-.3.58-.12.59-.58-.56.19-.65-.19-.82-.42-.16,0-.28.17-.36.23,0,.25.21.2.29.44a2.74,2.74,0,0,0-1.53.72c-.24-.07-.22-.33,0-.41a8.5,8.5,0,0,1-2.33.32c.52.36-.82.19-.47.48.41.08.79.29.58.51-.26,0,0-.18-.12-.25-.31.28-.53-.32-.83,0,.73-.15.11-.5.23-.82-.5.19,0-.22-.49-.21a6.27,6.27,0,0,1-1.71.37c-.68-.39-1.8-.17-2.43-.3-.3-.24,0-.54-.34-.68s.22.45-.35.14l.08-.05c-.21,0-1-.5-1.36,0l.3-.33c-.1-.06-.24,0-.34,0s0-.27.14-.29c-.27-.38-.74-.23-1.13-.36l.17.3a7.31,7.31,0,0,1-1.75-.64l.11-.2-.41,0c.18-.16-.09-.45-.36-.38l1.15,0c.21.25-.38.11-.31.39s.67.42.84.26c-.21-.11-.24-.07-.45-.06,0-.31.38-.18.62-.31-.11,0-.24-.18-.3-.09a1.57,1.57,0,0,1,.89.13c-.3,0,.07.23-.06.28.13-.25.51-.2.94.05.24.45.95,0,1.46.26a1.87,1.87,0,0,1-1,.39c.32.22.39.09.72.31a1.4,1.4,0,0,1,.89-.46l0,.21c.43,0,.48-.31,1-.19a9.9,9.9,0,0,0,2.52.29l0,.21c.39-.45,1.29-.16,1.79-.46a4.85,4.85,0,0,0,1.33-.16,1.63,1.63,0,0,1,1-.12,14.9,14.9,0,0,0,2.08-.87c.68-.28,1.34-.61,2.08-1l-.11.39c.16-.32.25.07.49-.1-.41-.06.21-.45.3-.7a3.91,3.91,0,0,0,1.83-1.38l.13.16c.31-.7,1.12-.88,1.82-1.31a.57.57,0,0,0,.53-.1,3.53,3.53,0,0,1,.68-1.25,14.8,14.8,0,0,1,1.41-1,17.35,17.35,0,0,1,1.7-2.12l.91-1c.34-.47.68-.94,1.05-1.43l.27.05a30.26,30.26,0,0,1,2.9-4c1.29-2.4,1.21.65,1.63,1.45a4.47,4.47,0,0,0-.34.4c0,.88.41,1.49.61,1,.05.9.59,1.9.38,2.59a5.45,5.45,0,0,0,.48,1.4,8.4,8.4,0,0,0,.26,2.38v-.24c-.1-.1-.28-.09-.27.16s.05,1.33.5.93c-.16,1.06.37,2.42.05,3.45.13-.09.17.16.27.27a17.64,17.64,0,0,0,0,2.61c-.07.15-.22-.23-.24.14,0,.22.17,0,.24.28.24,1.5-.32,3-.42,4.33a34.87,34.87,0,0,1-.84,7.14l-.09,0c.2.83-.78,1.67-.36,2.4-.13.15-.2.66-.35.49.14.67-.7,1.58-.62,2.52a.36.36,0,0,0,0-.23c-.47.79-.38,1.64-.87,2.47,0-.1,0-.27-.06-.33-.31.28.1.94-.42,1-.07.2.17.22.2.1a26.79,26.79,0,0,0-1.11,3l-1.09,3.06c-.94,1.26-.76-.26-1,1-.13.05.13.15,0,.12-.1.48-.81.4-.73.81.32,0,0,.26.2.36-.61.74-.9.79-1.1,1.52l-.1-.12c-.08,1-.79,1.7-.75,2.6a39.44,39.44,0,0,1-9.24,11,25.07,25.07,0,0,1-6.51,3.53,13.09,13.09,0,0,1-7.89.13,6.48,6.48,0,0,0-2.45-1.29c.08,0,.16,0,.11-.1-.22.25-.82-.49-1.11-.3a13.69,13.69,0,0,1-2.18-1.86,11.58,11.58,0,0,1-1.82-2.17c.21.23.52.19.29-.08l-.4-.19,0-.1c-.18-.18-.48-.31-.42,0-2.93-4-3.43-8.72-4.32-13,0-1.06-.48-2.5-.62-3.63,0-1.7,0-3.3.07-4.89a31,31,0,0,0-.25-4.86A2.48,2.48,0,0,1,611.79,199Z"/><path class="cls-7" d="M622.06,180c0,.19.33.44,0,.51C622.05,180.38,622,180.14,622.06,180Z"/><path class="cls-7" d="M631.62,184c0-.05.16.06.19.09-.13,0-.25.16-.36.07C631.58,184.18,631.56,184.1,631.62,184Z"/><path class="cls-7" d="M634.39,183.84c0,.15-.59.35-.95.41Z"/><path class="cls-7" d="M637.08,183.8c.25,0,.22.14-.09.22C637,184,637,183.89,637.08,183.8Z"/><path class="cls-7" d="M637.15,183.42a.53.53,0,0,1,.45,0C637.55,183.31,637.16,183.68,637.15,183.42Z"/><path class="cls-7" d="M642.43,181.41c.11-.09.3-.34.49-.27C642.74,181.12,642.46,181.65,642.43,181.41Z"/><path class="cls-7" d="M644.47,179.78c.07,0,.12,0,.17-.13s.1.15,0,.23Z"/><polygon class="cls-7" points="651.89 197.62 651.9 197.35 652.03 197.43 651.89 197.62"/><path class="cls-7" d="M644,215c-.07.27-.21.07-.26.09C643.86,214.86,643.84,215.23,644,215Z"/><polygon class="cls-7" points="637.7 223.15 637.76 223.1 637.93 223.34 637.7 223.15"/><path class="cls-7" d="M653.27,174.89c0-.21-.28,0-.06-.16C653.31,174.79,653.39,174.86,653.27,174.89Z"/><path class="cls-7" d="M619.82,197.9c1,.14.78,1.27,1.57,1.6.07.05-.36.22-.17.31.92.19,1.22,1.25,1.44,2.2l-.13,0c.05.18.48,0,.56.21s-.12,0-.17.14c.2-.13.29.15.47.08,0,.11-.16.24-.17.38l.26-.12c.64-.28.41.52.92.5-.06,0-.12.06-.14.12.74.06,1.23.59,1.85.81a.8.8,0,0,0-.22.32.54.54,0,0,1,.58-.17c-.08.3.38-.1.47.14l0,0c.26-.21.12.26.38,0l0,.25c.22-.35.1.31.3.14l0-.08c.15-.06.13.15.25.11V205c.27,0,.33.23.42-.08,0,.28-.26,0-.24.44.88,0,1.69.09,2.51.09.1.12.16.15.19.27.08-.07.32-.09.37-.26,0,0,.08.15.12.17s.12-.37.3-.25a.39.39,0,0,0,0,.32c.1-.26.29-.25.43-.39a.32.32,0,0,0,0,.2c.11-.33.34,0,.45-.26v.2c.32.14,0-.4.22-.34,0,.07,0,.14,0,.21.09-.39.46-.34.6-.56,0,0,0,.08,0,.08.18-.14.44-.15.6-.39.12,0,.17.42.36.26-.17-.33.3-.32,0-.63.22,0,.55-.1.6-.27,0,.17.32.33.2.45l.23.13c.06.14-.15,0,0,.17.07-.06.2-.33.3-.32,0-.29-.1-.72.08-.9,0,.19.3.3.27.4,0-.26-.08-.52-.14-.79.06-.07.19.22.23.07s-.06-.16-.08-.25.21-.29.47,0c.12.08-.06.14.09.19.12-.11.05-.21.17-.31l0,0c.12,0,.14-.31-.08-.4-.07,0,.16.16,0,.14a.41.41,0,0,1,.13-.47c0,.08.07.15.12.24a2,2,0,0,1,.15-.82c-.12-.13.16.3.07.25.38,0,.2-.67.62-.59,0,.05-.19-.16-.15-.13s.29.1.29,0c.12.1,0-.12.09-.21s.07,0,0,.1c0-.18.19-.74.56-.82-.07-.06-.14-.39-.09-.43l.16.17c.15.05.14-.19.3-.07-.11-.3-.21.6-.24.3.18.09-.08-.46.12-.21.09-.12,0-.39.24-.35,0,0,.17.29.23.2s0-.12,0-.29v-.14c-.17-.15.13-.13-.11-.23.16.1.1-.3.37-.05l.21.21c0-.08-.15-.31-.2-.45a.45.45,0,0,1,.12.06c-.34-.29.16-.14,0-.44.24,0,.3-.36.58-.26,0-.19-.07-.39.11-.46a.22.22,0,0,0,.07.16c.17,0,.09-.09.08-.21,0,0,.34,0,.53,0,0-.2-.25-.3-.36-.4.44.15,0-.5.42-.39,0,.07.06.29.22.26.44.15-.12-.41.18-.45l-.33-.17c.24,0,0-.38.3-.14-.07-.14.24-.14-.07-.32.45-.12.31-.8,1-.63,0-.07.1-.14-.07-.22s.06.17-.07.12-.06-.1-.1-.13c.12,0,.19-.1.39.14.32-.08-.38-.54-.1-.71.12.09.18.1.21,0l-.12-.28c.16-.13.34.09.56.22,0-.12.1-.22,0-.36l.34.06c-.25,0-.09-.16-.11-.23l0,.07c.11,0,.11-.1.12-.17a.38.38,0,0,0-.34,0c-.06-.1,0-.16-.07-.29.2.15.24-.06.3-.12s-.13-.2-.11-.22.1-.13.22,0-.15,0-.08.1.3.12.23-.08-.43-.23-.2-.31a1.06,1.06,0,0,0,.16.21l.21-.08-.19-.12a.34.34,0,0,1,.1,0c-.18-.17.07-.27-.14-.44,0-.09.24-.08.3-.14v0c.17,0,.16-.19.07-.34l0,0a.26.26,0,0,0,0-.3c.22,0,.76.38.59.1.07-.14-.24-.41-.4-.43.26-.15.09-.59.51-.63-.06-.07-.12-.08-.13-.17.27-.3.15-.85.68-.91,0,.15.2.12.31.17-.13-.17.24,0,0-.19s-.27-.14-.39-.08c0-.26.17-.56.4-.59-.11,0-.15-.06-.18-.13.28.17.41,0,.36-.13l-.16-.1.22,0c0-.08-.35-.24-.12-.27a.56.56,0,0,0,.2.06c-.08-.19-.24-.48,0-.53l.31,0c0-.07-.11-.24-.23-.18.26-.14.35-.27.61-.23a1.55,1.55,0,0,1,.14-1.63l.13.08c.18-.06-.21-.18-.07-.22s.32,0,.43.21c.22-.1-.13-.33-.14-.47-.17-.1.07.14-.14,0-.05-.05.25-.17,0-.32a.93.93,0,0,1,.41.2l-.08-.16c.37,0,.42.55.86.59v-.11c.32,0,.19.4.4.2-.08-.17-.42-.44-.59-.4,0-.25-.58-.39-.45-.62.19,0,0,.21.19.26s0-.28.1-.34c-.15.06-.38-.15-.39-.25.18-.06.22.2.32,0-.14-.1-.19-.31-.36-.22-.32-.23.18-.14-.05-.35.27.05.49.43.7.3-.25-.08-.22-.38-.62-.44a.48.48,0,0,1,.42.16c.19,0-.32-.45.17-.27l-.23-.15h.33c0-.09-.19-.45.17-.27,0-.05.09-.25-.2-.29s.11.24-.26.16c.32,0,.05-.21,0-.33l.15.06c0-.07,0-.17-.1-.26a.23.23,0,0,0,.22.07l-.19-.14c0-.23.4.12.41-.08l.11.21s.21,0,.18-.14l-.54-.38c0-.14.24,0,.08-.13l.19.23c.05.05.36.05.42-.08s-.27-.38-.43-.29c0-.07.19-.11.31,0,0-.19-.23-.08-.29-.26.15,0,.42-.09.65-.1l.28.28,0-.1c.22.24.23,0,.48.22.07-.05,0-.16,0-.26-.53,0-.53-.47-1-.59,0-.3,1.07.27.53-.27-.12,0-.38-.26-.33-.05.11-.14-.37-.28-.12-.39.11.21.48,0,.64.33-.13-.07-.15.06-.12.11s.4.19.47,0,.05-.26-.17-.33,0,.16-.25,0c0-.23.37-.11,0-.37,0,.14-.28.07-.44,0l0-.18.15.09c.21-.18-.26-.19-.13-.39l.36,0c.25.16-.26.28.2.42.08-.14-.13-.28,0-.37s0,.09.05.14.63.13.38-.21c-.09-.17-.15-.1-.31-.16,0-.26-.09-.4-.06-.56.31.16.14-.25.4,0-.22,0-.33.35-.06.56s-.13.16.23.37c.09-.19.45,0,.71,0,0,0,0-.14-.07-.18-.22-.12-.24-.05-.48-.14a.5.5,0,0,0-.08-.65c.14,0,.36.09.35.18a1.67,1.67,0,0,1,.34-.74c-.44,0,0-.31-.34-.32a.55.55,0,0,1-.59,0c.06-.07.17.07.26.07-.17-.19.39,0,.11-.26,0,.28.44.22.72.38-.11-.23.2.09.27-.07a1.84,1.84,0,0,1-.15-.7c.37-.12.23-.58.3-.8.19-.05.5.15.6,0s-.4,0-.17-.18l.06,0c-.05-.09.37-.3-.09-.53l.34.19s0-.09-.05-.13.24,0,.29.12c.3,0,.06-.28.1-.42H652c-.09-.3.18-.38.19-.64l.21.08-.08-.18c.19.11.37,0,.22-.1l.4.54c-.16.05-.22-.2-.45-.21s-.22.22,0,.32c.05-.07,0-.09,0-.18.31.08.25.2.43.33,0-.05.11-.08,0-.12a.33.33,0,0,1,.06.37c-.08-.13-.2,0-.27-.08.26.11.29.27.15.42-.34,0,.07.39-.08.57a1.45,1.45,0,0,1-.47-.52c-.17.07,0,.14-.22.21.17.14.46.29.51.5l-.19-.06c0,.18.32.29.2.46a5.81,5.81,0,0,0-.47.86l-.19-.07c.36.3,0,.52.08.77-.3.25-.09.76-.48.79a4.27,4.27,0,0,1-.43,1.69l-.24-.21c.16.18-.19,0-.19.11.27,0,.23.26.37.4-.32.17-.22.59-.13.9l-.19-.08c.25.38-.17.52-.35.77-.1,0-.29,0-.31.07.24.28.18.36.27.66a1.24,1.24,0,0,1-.46.51c.15.8-.4,1.31-.45,2.06l-.24-.06c.17.84-.61,1.39-.64,2l-.34-.23c-.2.1-.09.41.19.5-.19.11,0,.5-.38.45-.15.14.07.3.05.46a1.13,1.13,0,0,0-.45.74l.07-.06c-.07-.08-.22-.16-.28-.1s-.33.38.17.49c-.43.2-.21.9-.73,1,.13,0,.11.13.17.21-.16.29-.57.46-.5.81-.08,0-.16-.19-.23-.08s.15.09.16.21c0,.6-.77.82-1,1.27a8.73,8.73,0,0,1-1.26,2.31l-.08-.06c.16.45-.67.34-.33.84-.12,0-.19.18-.32,0,.09.33-.57.36-.48.82t0-.09c-.37.14-.29.55-.65.71,0,0,0-.12-.08-.19-.23,0,.14.5-.28.27,0,.07.15.19.17.15-.63.47-.86,1.32-1.33,2-.6.24-.63-.51-.66.07-.09,0,.12.14,0,.08,0,.22-.57-.16-.47.1.25.16.07.17.2.29-.37.14-.61,0-.65.35l-.1-.12c.08.53-.36.63-.21,1.18a15.29,15.29,0,0,1-4.37,3.58c-1.8.72-3.95,1.37-6.06.7-.4-.51-.41-.52-1-.51,0-.06.07-.06.06-.13-.13.3-.36-.08-.52.2a18.37,18.37,0,0,1-2-.94c.12,0,.31-.17.18-.22L625,206l0-.09c-.11,0-.29.07-.26.21a6.36,6.36,0,0,1-2.12-1.79c-.51-.73-1.09-1.41-1.6-2.07a3.21,3.21,0,0,0-.9-1.09c-.43-1.28-.62-2.44-1.58-3.35C618.55,197.85,619.38,197.57,619.82,197.9Z"/><path class="cls-7" d="M653.23,175.13c-.17,0-.31.09-.48-.09A3.7,3.7,0,0,1,653.23,175.13Z"/><path class="cls-7" d="M650.34,178s-.08,0-.11,0-.11-.13,0-.14S650.28,178,650.34,178Z"/><path class="cls-7" d="M649.9,178.86c-.13-.07-.16-.3-.14-.42Z"/><path class="cls-7" d="M649,179.44c-.14,0-.2,0-.16-.11S649,179.39,649,179.44Z"/><path class="cls-7" d="M649.3,179.62c0,.07-.12.07-.21.08C649.21,179.74,649.08,179.51,649.3,179.62Z"/><path class="cls-7" d="M648.18,181.21s.07.19-.1.16C648.2,181.37,648,181.09,648.18,181.21Z"/><path class="cls-7" d="M648,182.11s0,0,0,.07a.14.14,0,0,1-.15-.12Z"/><polygon class="cls-7" points="640.99 196.42 640.98 196.31 641.09 196.4 640.99 196.42"/><path class="cls-7" d="M636.53,201.63c0,.13-.14-.06-.17-.07S636.46,201.72,636.53,201.63Z"/><polygon class="cls-7" points="633.96 204.32 633.98 204.3 634.11 204.58 633.96 204.32"/><rect class="cls-7" x="532.74" y="136.63" width="15.21" height="60.86" rx="4.78" transform="translate(-23.2 119.1) rotate(-12.32)"/><line class="cls-2" x1="539.19" y1="147.86" x2="547.02" y2="183.87"/><path class="cls-2" d="M547,185a.91.91,0,0,0,.23,0,1.1,1.1,0,0,0,.85-1.31l-7.84-36a1.1,1.1,0,1,0-2.15.47l7.83,36A1.11,1.11,0,0,0,547,185Z"/><path class="cls-6" d="M546,230.39c2.7-2.53,4.34-20,5.14-23.93.86-4.12-.8-8.68-3.17-12.39s-5.44-6.88-8-10.46a45.12,45.12,0,0,1-8.36-26.45c0-.92-1.14-1.41-1.56-.65-2.95,5.29-3,12.51-1.45,19,1.83,7.6,5.55,14.66,8.48,21.94.38,1,1.81,4.21,1.86,5.21.15,3-2.13,21.1-4.42,22.47"/><path class="cls-7" d="M704.42,240.34C703,233.75,695,191.7,657.53,191.7h0c-1.32,0-7.37-8.63-7.37-8.63l-20.62,36.85L612.39,183s-6,8.72-7.36,8.72c-5.95,0-15.91,2.92-15.91,2.92-28.46,9-34,52.51-39.88,63.42,1.79-24.15,4.38-47,4.38-47l-19.72-3.34s-18.27,87.87-.26,91.76c21.84,4.71,40-28.91,46.3-51.07h0c11.14,17.59,17.75,52.81,2.51,93.07-3.15,8.3-8.72,25.67-8.72,25.67l40.58,28.5L628.4,372.3l16.17,23.36L688.93,368s-7.1-18.12-10.14-26.81c-11.23-32.07-6-63.28-4-83.71,15.61,38.45,21.5,100.21,22.7,109,3.09,22.85,3.13,28.93,3.13,28.93,4.34.62,21,.11,21,.11C718.52,335,717.28,299.7,704.42,240.34Z"/><path class="cls-6" d="M628.94,220.28c.08-.56.28.31.13-.36C628.94,220,628.84,220.1,628.94,220.28Z"/><path class="cls-6" d="M628,370.45c.86-1.81,0-4.18.57-6.15,0-.23-.46.06-.34-.46.67-1.91.3-4.93-.19-7.25l-.13.14c-.09-.45.34-1,.29-1.46-.09,0-.13.15-.24,0,.26-.11.12-.85.32-1.05-.1-.18-.31-.16-.42-.4l.3-.27c.71-.75,0-1.82.33-2.84-.06.05-.12.15-.18.07a35.74,35.74,0,0,0,.54-5.52c-.1.07-.29.14-.41,0,.31-.09.4-.65.46-1.14-.32-.22.3-.84.13-1.42l-.08.05c.34-.43-.18-.63.22-1l-.25-.27c.45-.18-.23-.61,0-1h.1c.11-.34-.12-.51,0-.82l-.05,0c.12-.72-.12-1.14.23-1.13-.28-.25-.14.7-.54.31a49.54,49.54,0,0,0,.35-7.2c-.14-.27-.18-.45-.32-.51.08-.23.08-.89.26-1.11,0,.08-.18-.15-.2-.28-.13-.44.39-.47.24-.95-.1.19-.21.25-.34.19a3.61,3.61,0,0,0,.33-1.43c-.06.07-.1.19-.21.17.32-.52-.06-1,.14-1.42l-.2.17c-.24-.74.43-.21.29-.85-.07.15-.15.1-.23.12a6.79,6.79,0,0,0,.39-2.16.1.1,0,0,1-.09,0,13.25,13.25,0,0,1,.11-2.05c-.09-.26-.5.09-.42-.6.41,0,.18-1.17.64-.76a6.32,6.32,0,0,1-.07-1.91c-.15.26-.49-.29-.53.2l-.25-.37c-.17.05.06.38-.15.26a6.83,6.83,0,0,0,.12-1.17,3.69,3.69,0,0,0,.78-1.6c-.16.34-.45-.2-.52,0l.79-1c0-.24-.32-.05-.21-.41.11,0,.17-.13.26-.24s.11-1-.29-1.12c-.16-.11-.09.4-.23.13,0-.46.14-.48.15-.93h-.05c-.06-.29.18-.87.4-.55,0,.21-.24-.08-.13.23a1.78,1.78,0,0,0,.32-1.18c-.07.15-.18.13-.29.19a7,7,0,0,0,.56-1.92c.19,0-.35.25-.25.35-.26-.87.39-1.79,0-2.51,0,.11.27.06.22.05,0-.42-.3-.4-.2-.67-.16,0,.06-.34.11-.62s-.08-.08-.1.17a6.8,6.8,0,0,0,.17-2.86c.11,0,.4-.55.39-.76l-.25.08c-.15-.19,0-.69-.19-.73.31-.44-.27,1.71,0,1.11-.21-.16.41-.83.06-.71,0-.41.3-.82.07-1.22,0,.12-.35.34-.33,0,0-.59.12-.16.21-.64l.1-.3c.25,0,0-.53.24-.31-.2-.08.14-.86-.27-.8l-.32.08c0-.26.34-.42.48-.62,0,0-.09-.1-.14-.09.49,0,0-.61.34-.91-.17-.54,0-1.37-.31-1.63a2.16,2.16,0,0,0,.23-1.26c0,.1-.06.23-.17.25-.14-.29,0-.37.07-.64-.07.06-.28-.59-.45-.92.15-.41.41-.27.57-.31-.48-.37.33-1.15-.11-1.62-.07.14-.24.59-.36.25-.48-.38.36-.75.13-1.36l.4.15c-.24-.27.24-.89-.17-.83.15-.2-.12-.71.27-.64-.33-1,.22-2.42-.48-3,.06-.15,0-.5.2-.43.22.24-.16.33,0,.42,0-.13.12-.15.17-.17-.08-.31-.11-.55-.44-.26-.23-.69.67-.7.53-1.58-.16,0-.23,0-.2-.28l.28-.49c-.06-.56-.36-.32-.64-.34,0-.3,0-.67.25-.8l-.35-.37c.25.26.17-.25.24-.39l-.07.14c-.11-.06,0-.41,0-.58.17,0,.23.4.28.59.12-.15.1-.39.24-.6-.27.07-.19-.49-.21-.73s.24-.31.23-.39,0-.45-.22-.24c0,.1.14.22,0,.37-.1-.18-.34-.16-.16-.54s.53.08.36-.46c-.07.14-.17.17-.27.28l-.14-.51.25,0c-.06-.07-.08,0-.12-.05.26-.15.09-.77.38-.88,0-.26-.17-.54-.19-.78l0,0a1,1,0,0,1,.12-.94l-.05,0a1.33,1.33,0,0,1,.16-.75c-.18-.41-.92-.15-.61-.6,0-.41.46-.65.61-.48-.16-.75.25-1.59-.13-2.29.1-.1.16,0,.22-.26-.08-1.1.31-2.31-.16-3.19-.11.32-.25,0-.39,0,.22-.26-.23-.32.15-.41.22,0,.33,0,.42.32a4.15,4.15,0,0,0-.07-2c.1.18.17,0,.23-.1-.35.05-.4-.44-.27-.8l.21-.05-.22-.24c.07-.14.46-.15.25-.52a.43.43,0,0,1-.23-.1c.18-.38.49-.91.31-1.32l-.32-.34c0-.18.23-.47.32-.16-.18-.7-.2-1.15-.47-1.38a8.94,8.94,0,0,0,.67-4.35l-.16,0c-.15-.37.28-.19.17-.45-.15.12-.33-.29-.52,0-.17-.54.28-.69.36-1,.21,0-.14.28.13.22.08-.06-.16-.75.16-.83-.12-.14-.36,0-.49,0l.16-.33c-.37-.41-.68.91-1.14.48l.06-.3c-.34-.29-.39.8-.5,0,.16-.33.63-.61.77-.32.09-.68.77-.31.75-1-.19-.2-.05.6-.32.45-.25-.35.15-.7.06-1,.12.35.45.06.51-.16-.15-.38-.31.24-.33-.29.18-.09.32-.58.45-.15.42-.19-.11-.56.22-.84-.3-.18-.69.54-.84-.05.29.1.4-.72.82-.4a.28.28,0,0,0-.48-.1c-.18-.33.52-.78,0-.9l.29-.11c-.09-.1-.16-.25-.32-.42,0-.29.4-.92,0-.9,0-.1,0-.75.34-.5.18.42-.23.47.18.7-.33-.29,0-.59.16-.82l-.17,0c.07-.14,0-.47.22-.55a.15.15,0,0,1-.26-.07l.26-.14c.14-.57-.45-.14-.37-.7l-.2.42c0-.09-.2-.28-.12-.55.24-.1.52-.29.71-.38.1-.31-.27-.14,0-.45l-.29.4c-.08.06-.39-.27-.38-.69s.43-.68.55-.26c0-.21-.13-.51-.3-.34.08-.48.25.06.4-.35-.16-.17-.38-.69-.6-1l-.4.42v-.28c-.32.36-.24-.19-.58,0a1.1,1.1,0,0,1,.15-.62c.53.58.74-.63,1.23-.46.13-.78-1.19-.5-.42-1.3.13.13.5-.25.36.24,0-.49.49-.32.29-.9-.2.42-.49-.46-.78.15.16,0,.12.34.07.44-.19-.21-.49,0-.49-.47,0-.3.06-.71.32-.65s0,.46.25.27c.1-.6-.32-.71.17-.95a.4.4,0,0,0,.44.47l.12-.44-.19.08c-.13-.71.34-.2.3-.89l-.37-.33c-.31.16.14,1-.38.87,0-.44.25-.59.12-1,0,.1-.06.23-.11.32,0-.16-.69-.33-.29-1,.16-.32.18-.08.38-.09.06-.72.26-.93.29-1.39-.38.09,0-.82-.42-.32a1.5,1.5,0,0,1-.17,1.54c-.44-.27.06.56-.39.71,0-.58-.44-.55-.73-.65a.72.72,0,0,1,.15-.41c.27-.06.26.14.54.16a2.44,2.44,0,0,1,.35-1.62.23.23,0,0,0-.43.11,10.56,10.56,0,0,0,0-2.32c.44.48.11-.81.48-.49.09.4.4.73.6.52,0-.24-.19,0-.28-.1.24-.3-.39-.48,0-.78-.15.69-.54.13-.89.25.2-.5-.24,0-.24-.48a8.28,8.28,0,0,0,.43-1.68,5.91,5.91,0,0,1,0-2.41c-.17-.33-.56-.11-.62-.47s.42.32.24-.31l-.08.06c.09-.18-.25-1.14.31-1.31l-.43.18c0-.11.06-.22.11-.31-.14,0-.26-.15-.35,0-.29-.39,0-.8.06-1.22l.25.27a10.7,10.7,0,0,0,.05-1.87h-.24l.15-.4c-.24.09-.39-.28-.19-.5l-.61,1.06c.14.3.3-.32.54-.13a.69.69,0,0,1-.1.9c0-.25,0-.26.12-.45-.34-.08-.33.29-.56.47,0-.13-.09-.31,0-.34a1.55,1.55,0,0,0-.21.92c.14-.28.21.16.31,0-.3,0-.39.43-.31,1,.34.37-.23,1-.14,1.56a2,2,0,0,0,.67-.9c.15.37,0,.41.14.79-.22.18-.57.31-.71.79l.22,0c-.12.45-.45.44-.39,1,.1,1,.09,2,.12,2.71l.22,0c-.48.4-.19,1.37-.4,1.92.2.94-.23,2,.15,2.53a30.92,30.92,0,0,0-.3,4.84l.33-.29c-.24.31.19.2.14.51-.26-.36-.34.41-.54.62a4.27,4.27,0,0,1-.27,2.43l.22,0c-.42.68-.06,1.51,0,2.37a.62.62,0,0,1,.27.51,3.66,3.66,0,0,0-.57,1.38,8,8,0,0,0,.22,1.81c-.52,1.87-.21,3.78-.53,5.73l.26.14c-.58,1.88-.09,4.2-.39,5.81l.46-.15c.13.51-.13,1.15-.45,1,.13.51-.23,1.26.14,1.58.08.52-.21.64-.28,1.07a7.12,7.12,0,0,1,0,2.39l0-.24c.1-.11.29-.11.32.13-.13.36.11,1.34-.43,1,.31,1.05-.27,2.43.14,3.45-.14-.09-.17.17-.27.27a9.54,9.54,0,0,1,0,2.61c.07.15.25-.23.26.14s-.19,0-.27.28c-.29,1.48.26,3,.18,4.35-.3,2.39-.18,4.89-.24,7.19l.1,0c-.41.77.41,1.81-.21,2.42.1.18,0,.69.25.56-.3.61.26,1.71-.11,2.59a.34.34,0,0,1,.06-.22c.23.9-.11,1.68.1,2.63,0-.1.09-.27.19-.3.21.37-.46.86.06,1.06a.13.13,0,1,1-.25,0,43.61,43.61,0,0,1-.29,6.42c.3,1.54.87.1.48,1.31.09.1-.2.07-.1.09-.15.47.58.73.3,1.06-.31-.14-.18.22-.37.22.2.95.49,1.14.24,1.88l.17-.06c-.48.87-.24,1.88-.79,2.62-.14,4.8-.47,9.4-.57,14.09.07,4.63-.21,9.16,0,13.86a3.21,3.21,0,0,1,.24,2.4c.07,0,.08-.13.15,0-.36.06,0,.85-.39,1,.06,1.74-.05,3.34-.07,5.13,0-.29.34-.43.31-.09l-.23.35.1.06c-.06.23-.24.48-.35.24-.35,4.49.35,8.91.22,13.31a19.74,19.74,0,0,1-.08,3.67,39.83,39.83,0,0,1,.46,9.82A2.47,2.47,0,0,0,628,370.45Z"/><path class="cls-6" d="M628.9,221c.18.13.28.52.52.21C629.25,221.12,629.06,220.91,628.9,221Z"/><path class="cls-6" d="M630.68,231.42s.07.15.1.19c0-.13.17-.25.08-.35C630.84,231.39,630.76,231.37,630.68,231.42Z"/><path class="cls-6" d="M630.77,234.1c.16,0,.29-.61.32-.95Z"/><path class="cls-6" d="M631.42,236.59c.13.22.21.16.2-.13C631.54,236.44,631.49,236.53,631.42,236.59Z"/><path class="cls-6" d="M631.05,236.77a.53.53,0,0,0,.18.41C631.09,237.17,631.32,236.7,631.05,236.77Z"/><path class="cls-6" d="M631.48,242.17c0,.13-.15.41,0,.53C631.38,242.57,631.71,242.08,631.48,242.17Z"/><path class="cls-6" d="M631.21,244.68c0,.08,0,.11,0,.21s.19,0,.2-.13Z"/><polygon class="cls-6" points="630.23 290.38 630.31 290.1 630.15 290.14 630.23 290.38"/><path class="cls-6" d="M630.07,310.4c-.11.27.15.19.17.24C630.26,310.39,630,310.72,630.07,310.4Z"/><polygon class="cls-6" points="629.18 321.2 629.19 321.11 628.86 321.14 629.18 321.2"/><path class="cls-6" d="M604.44,191.89c.06-.22.29.1.12-.15C604.43,191.78,604.33,191.83,604.44,191.89Z"/><path class="cls-6" d="M624.76,219.53c.33-1.05-.88-1.39-.85-2.33,0-.09-.37.27-.39,0,.15-1-.82-1.78-1.73-2.29l-.08.12c-.18-.1.07-.51-.08-.63-.07,0-.07.11-.19.14.19-.18-.08-.35,0-.52-.12,0-.29.11-.44.09l.2-.24c.43-.63-.43-.58-.34-1.12,0,.06-.07.12-.14.13a5.91,5.91,0,0,0-.74-2.11.74.74,0,0,1-.34.23.52.52,0,0,0,.14-.62c-.32.1.07-.44-.2-.53l0,.05c.19-.32-.29-.09-.05-.46l-.27,0c.31-.36-.32-.07-.23-.35l.07-.07c0-.22-.2-.1-.22-.28l0,0c-.11-.39-.34-.29-.15-.65-.21.2.1.4-.23.66a8.09,8.09,0,0,0-1.09-2.29l-.49.64a2.86,2.86,0,0,0-.09.63c-.06,0-.22.18-.32,0a1.07,1.07,0,0,1,0,.34c-.06.29-.25-.32-.32,0,.09,0,.14.15.18.32-.2-.19-.33,0-.5.11.05,0,.1,0,.15.15-.3-.13-.2.36-.43.33l.17.12c0,.41-.33-.27-.4.05.09,0,.13.08.19.13-.41-.07-.58.34-.81.44,0,0,.07,0,.07,0-.2.17-.27.46-.57.58,0,.13.41.28.19.45-.32-.26-.42.25-.68-.16-.09.23-.2.61-.4.65.18,0,.32.39.47.26l.1.27c.15.09,0-.15.19,0-.07.07-.37.19-.37.3-.31,0-.78-.17-1,0,.21,0,.31.34.42.31l-.87-.16c-.07.06.25.21.08.26a.48.48,0,0,0-.27-.09c0,.06-.33.25,0,.53.1.13.17-.07.22.1-.12.14-.23.06-.34.2l0,0c0,.13-.35.17-.45-.07,0-.07.17.18.15,0a.45.45,0,0,0-.52.18c.09,0,.17.06.27.12a1.74,1.74,0,0,0-.9.26c-.15-.12.34.13.28,0,0,.43-.75.34-.52.69,0,0-.19-.21-.15-.17s.15.3,0,.27c.1.14-.09,0-.15,0s0,.08.08,0c-.16,0-.44-.07-.48.36,0-.13-.17-.41-.19-.38l.07.33c0,.23-.09.07-.05.38-.13-.33.3,0,.16-.17,0,.32-.21-.38-.12.05-.06.07-.14-.28-.17.13a1.11,1.11,0,0,1,0,.51c-.1.05,0-.15-.11-.19l0-.12c0-.4-.07.14,0-.35,0,.36-.09-.1-.13.62l0,.55a2.66,2.66,0,0,1,0-.75c0,.06,0,.18,0,.28.09-.92-.09.19,0-.51a6.61,6.61,0,0,0-.31.92c0-.25.06-.61,0-.3a1.57,1.57,0,0,1-.06.35c-.12.39-.06.1,0,0,0,.16-.26.8-.44,1.31,0-.28.26-1,.37-1.4-.15.49-.18.53-.17.44.05-.29.21-.86,0-.24a9.23,9.23,0,0,1-.29,1c-.4,1.08.28-1.08.08-.65l.33-.89c-.21.51.18-.67-.16.24.12-.35-.12.13.21-.67-.3.45.14-.71-.48.3a.94.94,0,0,1,.17-.4c.19-.29-.14.31,0,.1a2.1,2.1,0,0,1,.15-.31c-.09.09-.12.07-.4.62-.23.16.58-1.12.43-1s-.2.27-.18.19l.25-.41c-.07,0-.35.33-.6.63a.8.8,0,0,1,.21-.44l-.33.22c.23-.15.15-.21.21-.3l-.06.09c-.11.08-.05-.07,0-.14a.4.4,0,0,1,.29-.09c.11-.13.08-.15.21-.29-.25.21-.19,0-.22,0s.23-.2.22-.2,0-.07-.22.07.14,0,0,.07-.34.15-.17,0,.51-.24.34-.25l-.26.17-.14-.06.24-.1-.12,0c.25-.11.07-.18.35-.27,0,0-.17-.05-.21-.1h0c-.15-.07-.07-.26.09-.36H608a.28.28,0,0,1,.14-.31c-.2-.15-.93,0-.64-.18,0-.17.43-.3.59-.24-.18-.28.19-.65-.21-.89.09-.05.16,0,.21-.12-.13-.42.22-.93-.29-1.24-.09.14-.24,0-.38,0,.21-.12-.24-.11.13-.17.22,0,.33,0,.43.09.1-.27.07-.66-.15-.79.11.06.17,0,.23-.06-.35.05-.42-.14-.3-.29l.21,0-.23-.07c.07-.06.45-.1.23-.22a1.43,1.43,0,0,1-.23,0c.16-.16.44-.39.25-.54l-.33-.11c0-.07.21-.2.31-.08-.21-.26-.25-.44-.52-.51a1.74,1.74,0,0,0,.5-1.76l-.16,0c-.16-.13.28-.1.16-.19-.15.06-.34-.09-.52,0-.19-.19.25-.29.32-.43s-.13.12.14.07c.07,0-.19-.28.13-.34a1,1,0,0,0-.49.06l.14-.14c-.39-.13-.64.41-1.11.28l0-.12c-.35-.09-.35.34-.49.05.14-.14.6-.29.75-.18.07-.28.75-.19.7-.48-.19-.06,0,.24-.29.2s.12-.28,0-.4c.13.13.45,0,.5-.1-.16-.14-.3.12-.35-.09.19,0,.31-.25.45-.1.41-.1-.13-.2.18-.34-.3,0-.66.27-.83.05.29,0,.37-.32.8-.23a.51.51,0,0,0-.48,0c-.19-.12.49-.36-.08-.35l.29-.07c-.1,0-.17-.09-.33-.14s.36-.4-.08-.35c0,0,0-.3.32-.22s-.21.2.21.26c-.35-.09,0-.24.12-.34h-.17c.07-.06,0-.19.2-.24a.26.26,0,0,1-.26,0l.26-.08c.11-.23-.46,0-.4-.24l-.19.18s-.21-.09-.13-.2l.68-.21c.1-.13-.26,0,0-.18l-.27.18c-.08,0-.4-.07-.41-.24s.4-.3.54-.14c0-.09-.15-.19-.32-.11.07-.2.26,0,.39-.17-.16-.05-.4-.24-.64-.35l-.38.2v-.11c-.31.17-.25-.06-.57,0-.06-.07,0-.17.12-.25.55.18.71-.31,1.2-.28.11-.32-1.19-.1-.46-.48.13,0,.49-.14.37.06-.07-.18.47-.16.25-.37-.18.18-.5-.14-.77.12.16,0,.13.13.09.17-.19-.07-.49.05-.51-.15s0-.28.29-.28,0,.19.26.09c.08-.25-.35-.25.14-.39,0,.15.26.17.45.15l.11-.18-.19,0c-.15-.27.33-.1.26-.37l-.37-.1c-.31.09.17.38-.35.37,0-.17.22-.25.08-.4,0,0,0,.09-.1.13s-.7-.07-.32-.36c.14-.14.18,0,.37-.06,0-.29.22-.39.24-.58-.37.07-.06-.31-.43-.08.23.07.24.48-.11.61-.45-.07.08.22-.37.32,0-.23-.46-.19-.75-.2,0-.06.09-.13.13-.17.27-.05.27,0,.55,0a.57.57,0,0,1,.29-.66c-.14-.07-.41,0-.42.08a1.86,1.86,0,0,0-.11-.91c.45.15.07-.33.45-.23a.57.57,0,0,0,.62.15c0-.09-.19,0-.29,0,.23-.14-.4-.16,0-.31-.12.29-.53.1-.87.17.18-.21-.24,0-.26-.16a1.9,1.9,0,0,0,.37-.7c-.35-.25-.06-.7-.07-.94-.18-.12-.57,0-.65-.14s.43.09.24-.14l-.08,0c.09-.08-.3-.42.25-.54l-.41.11s.05-.09.09-.13c-.13,0-.26,0-.35,0-.3-.12,0-.31,0-.48l.26.09c.17-.3-.09-.47,0-.74l-.25,0,.14-.17c-.24.06-.4-.08-.21-.18l-.56.47c.15.1.28-.15.53-.1s.17.3-.07.36c0-.09,0-.1.11-.18-.35,0-.32.14-.54.23,0-.05-.1-.12,0-.14a.41.41,0,0,0-.17.38c.13-.12.22,0,.31,0-.3,0-.38.2-.28.39.36.12-.19.4-.07.63a1.52,1.52,0,0,0,.63-.41c.17.13,0,.16.17.3-.22.09-.56.16-.68.37h.22c-.1.18-.43.21-.35.43a5.34,5.34,0,0,1,.22,1.05h.23c-.47.2-.14.55-.33.79.24.35-.15.82.25,1a5,5,0,0,0-.11,1.92l.32-.14c-.23.14.19.06.15.18-.27-.11-.32.2-.51.29.27.29,0,.69-.18,1h.22c-.39.3,0,.6.09.93.1,0,.31.07.3.18-.35.21-.32.3-.52.59a1.45,1.45,0,0,0,.28.69c-.44.77-.06,1.5-.31,2.28l.27,0c-.5.78.08,1.65-.16,2.31l.45-.1c.15.19-.09.46-.41.44.15.19-.18.51.2.61.1.19-.19.26-.23.44a1.23,1.23,0,0,1,.12.93l0-.09c.1-.05.29-.07.32,0s.17.52-.38.42c.34.38-.18,1,.27,1.34-.15,0-.17.08-.26.13,0,.36.35.71.12,1,.08,0,.24-.11.27,0s-.19,0-.26.13c-.25.42.41,1.63.4,2.47a38.57,38.57,0,0,0,.22,5.12l.09-.2c-.31,1.3.45.38,0,2.06.1-.09.08.38.25-.17-.21,1.11.31.48.06,2,0,0,0-.12,0-.31,0,0,0,0,.07.06.38-.65.53-.47,1-1.36,0-.06-.06,0,0-.29.25-.65.1.61.44-.68.08-.09-.06.51-.11.55a15.64,15.64,0,0,1,2.64-3c.58-1.25-.15-1.22.42-1.33,0-.17.09.21.06.07.24-.07.07-1,.28-.86.09.41.16.09.25.29.28-.7.16-1,.58-1.16l-.12-.11a1.26,1.26,0,0,0,.75-.38.71.71,0,0,1,.67-.2c1.24-1.42,2.6-2.67,3.78-4.08l.54-.74,0,0s0,0,0-.08a.57.57,0,0,1,.07-.12c.18-.53.23-.43.18-.18,0-.07,0-.09.08-.16-.2.36,0,.1-.18.42.05,0,0,0,.09.12l.5.88c0-.11.2-.32.25-.19l-.12.24.09,0c0,.11-.09.29-.24.27.68,1.66,2.23,2.74,3.08,4.25a3.23,3.23,0,0,1,.72,1.25,6.31,6.31,0,0,1,2.52,3S624.88,220.11,624.76,219.53Z"/><path class="cls-6" d="M604.43,192.16c.18,0,.29.18.52,0A3.12,3.12,0,0,0,604.43,192.16Z"/><path class="cls-6" d="M606.61,196.12c-.06,0,.07,0,.1.06s.16-.11.07-.15S606.68,196.09,606.61,196.12Z"/><path class="cls-6" d="M606.8,197.15c.16,0,.26-.26.27-.39Z"/><path class="cls-6" d="M607.53,198.08c.15.07.22,0,.21-.07A.52.52,0,0,0,607.53,198.08Z"/><path class="cls-6" d="M607.17,198.18c0,.08.11.11.2.14C607.23,198.33,607.44,198.13,607.17,198.18Z"/><path class="cls-6" d="M607.81,200.26c0,.05-.14.17.05.21C607.73,200.42,608,200.2,607.81,200.26Z"/><path class="cls-6" d="M607.64,201.27s.05,0,0,.08a.16.16,0,0,0,.21-.07Z"/><polygon class="cls-6" points="608.19 216.46 608.25 216.22 608.12 216.6 608.19 216.46"/><path class="cls-6" d="M610.77,213.5c.15,0-.07-.15-.08-.18S610.87,213.42,610.77,213.5Z"/><polygon class="cls-6" points="614.02 210.65 614 210.67 614.27 210.86 614.02 210.65"/><path class="cls-6" d="M657,191.77c.11-.22.26.17.15-.14C657,191.65,656.89,191.68,657,191.77Z"/><path class="cls-6" d="M631.79,221.28c1.13,0,1.18-1.3,2.14-1.55.09,0-.36-.3-.13-.38,1-.15,1.61-1.35,1.9-2.41l-.14-.05c.06-.2.53-.08.62-.26s-.13,0-.19-.15c.23.14.34-.18.54-.11,0-.13-.18-.27-.2-.42l.3.12c.73.25.48-.6,1-.67-.07,0-.13,0-.16-.1a6.89,6.89,0,0,0,2-1.37.74.74,0,0,1-.31-.27.55.55,0,0,0,.66,0c-.18-.29.45-.06.49-.36l-.07,0c.37.1,0-.32.43-.16l-.11-.25c.39.25,0-.35.28-.3l.06.06c.18,0,.06-.23.2-.28l0,0c.3-.14.23-.44.49-.2-.14-.27-.3.13-.49-.27a8.89,8.89,0,0,0,2.28-2c0-.18,0-.26-.09-.38.12,0,.31-.23.46-.13,0,0-.05-.21,0-.27.07-.26.32.24.37-.05a.4.4,0,0,1-.19-.29c.23.15.35-.05.5-.08a.39.39,0,0,1-.1-.2c.22.23.26-.37.42-.26l-.07-.22c.2-.58.1.52.26.13,0-.05,0-.18,0-.29.13.25.28.11.41,0a1.69,1.69,0,0,1,.1.27v-.13c.11.27.29.33.37.76.09,0,.18-.65.3-.31-.18.47.17.58-.15.95.13.07.4.23.38.45.06-.2.41-.28.33-.48l.26,0c.11-.15-.14-.11,0-.23.06.13.12.53.22.57-.08.34-.4.71-.28,1,.06-.21.43-.17.44-.29l-.44.78c0,.1.29-.15.27,0s-.11.14-.16.23.14.41.5.24c.16-.05,0-.19.17-.17.09.17,0,.25.08.41l0,0c.12.07,0,.4-.21.4,0-.06.23-.1.06-.15a.51.51,0,0,0,0,.59c0-.09.11-.14.19-.22a1.93,1.93,0,0,0,0,1c-.16.1.24-.28.13-.26.42.17.08.84.57.89,0-.06-.24.12-.2.1.12.14.35,0,.32.13.15-.07,0,.15.06.28s.08,0,0-.11a1.28,1.28,0,0,0,.09.55,1.09,1.09,0,0,0,.17.32,1,1,0,0,0,.32.34,1,1,0,0,0,0,.69l.16-.24c.16,0,.21.39.37.23-.07.47-.36-1.06-.34-.58.2-.08,0,.73.19.4.12.21.08.69.35.68-.06,0,.1-.5.19-.32.15.33,0,.2.09.52l0,.27c-.11.29.19.24,0,.44.12-.2.25.63.39.08l.1-.45a8.76,8.76,0,0,1,0,.94.26.26,0,0,0,.07-.15c-.14.7.21.26.22,1,.22,0,.48.75.59.35.12.47.26,1,.42,1.08A1.62,1.62,0,0,1,652,220c.09-.12.12.16.21.47,0-.18.17-.27.24-.5a8.25,8.25,0,0,1,.19,1.4c0-.89.48,1.36.52.59a3.38,3.38,0,0,1-.2-1c0-1,.35,1.24.46,1l.13,1c0-.5.42,1.12.2,0,.14.5.16,0,.36,1.06a0,0,0,0,1,.06,0c0-1,.35-.94,0-2.79.06.07,0-.29.17.21.12.65-.13-.16,0,.24,0-.05.09.18.13.3a2.88,2.88,0,0,0-.27-1.18c-.11-.9.51,1.06.49.14-.12-.3-.15-.46-.11-.57l.25.22a3.65,3.65,0,0,0-.45-1.39c.06-.08.08-.31.25,0l-.23-.77c.17.55.15.13.21.15l-.06,0c-.09-.22,0-.3,0-.35a2.35,2.35,0,0,1,.17.79c.11.09.11-.1.24,0a1,1,0,0,1-.1-.77c0-.24.22.12.22.06s0-.32-.16-.43.1.31,0,.25c-.07-.25-.27-.53-.09-.54s.44.68.35.13c-.08,0-.17-.09-.26-.13l-.07-.46.21.25a.61.61,0,0,0-.1-.15c.24.17.14-.39.41-.2.05-.15-.1-.5-.1-.67h0c-.1-.3,0-.46.2-.52l0,0a.49.49,0,0,1,.22-.4c-.13-.36-.86-.5-.53-.63,0-.22.49-.24.63-.09-.08-.61.36-.85,0-1.19.11,0,.16,0,.23-.08,0-.47.44-.92,0-1.36-.12.12-.24,0-.38-.05.23-.08-.21-.17.17-.15.22,0,.33.05.4.19a.78.78,0,0,0,0-.85c.09.09.16,0,.24,0-.35,0-.38-.24-.23-.38l.22,0-.21-.14c.08-.05.46,0,.28-.18a.81.81,0,0,1-.22-.07c.19-.14.52-.31.37-.51l-.29-.19c0-.07.25-.16.32,0-.15-.32-.14-.51-.4-.64a2,2,0,0,0,.91-1.73H657c-.13-.18.29,0,.19-.17-.16,0-.31-.17-.51-.07-.14-.25.32-.25.41-.39s-.15.1.12.11c.08,0-.12-.33.2-.32a.89.89,0,0,0-.49,0l.18-.12c-.35-.22-.72.28-1.15,0l.07-.12c-.32-.17-.43.28-.49,0,.17-.12.65-.17.77,0,.13-.28.78,0,.8-.34-.17-.11-.08.24-.33.15s.18-.28.11-.42c.1.16.44.09.51,0-.13-.18-.32,0-.31-.17.18,0,.35-.2.45,0,.43,0-.08-.25.26-.32-.28-.12-.71.13-.82-.14.28.08.43-.24.83-.05a.48.48,0,0,0-.47-.11c-.15-.16.56-.26,0-.38h.3c-.09-.05-.15-.13-.3-.22,0-.12.45-.33,0-.38,0,0,.08-.31.36-.16s-.25.16.14.32c-.31-.17.08-.24.21-.32l-.17-.05c.08,0,.06-.19.25-.2a.23.23,0,0,1-.25-.06l.27,0c.16-.22-.45-.12-.34-.35l-.22.15s-.18-.15-.08-.25l.72-.05c.12-.12-.26-.1,0-.2l-.31.13c-.08,0-.37-.17-.33-.34s.46-.23.56,0c0-.09-.11-.23-.29-.19.11-.19.25.06.42-.09-.15-.09-.34-.34-.54-.51l-.42.12,0-.12c-.34.11-.23-.11-.57-.07,0-.09.08-.17.18-.24.49.32.76-.16,1.23,0,.18-.3-1.14-.37-.33-.6.11.07.51,0,.34.15,0-.21.5-.06.34-.33-.23.14-.46-.27-.79,0,.16,0,.1.16,0,.19s-.49-.06-.46-.26.1-.29.35-.23-.06.19.23.15c.14-.24-.28-.35.23-.38-.06.16.21.24.4.26l.15-.16h-.19c-.09-.31.34,0,.34-.33l-.34-.19c-.33,0,.07.44-.43.31,0-.19.28-.21.17-.41-.05,0-.07.09-.12.12s-.67-.24-.24-.44c.18-.12.19,0,.38,0,.1-.29.31-.35.37-.54-.38,0,0-.35-.4-.19.21.13.12.56-.25.62-.42-.18,0,.24-.43.24,0-.24-.41-.3-.69-.38,0-.07.12-.11.17-.15.28,0,.26.1.53.15A.63.63,0,0,1,658,198c-.12-.11-.39-.12-.43,0a2,2,0,0,0,.11-1c.4.26.15-.32.49-.14a.56.56,0,0,0,.57.31c0-.11-.19,0-.28-.08.26-.1-.35-.26,0-.33-.19.27-.54,0-.89,0,.22-.19-.25,0-.22-.24a1.93,1.93,0,0,0,.52-.64c-.28-.34.11-.74.16-1-.15-.17-.55-.13-.6-.29s.4.19.26-.09h-.08c.1-.06-.19-.51.38-.51l-.43,0s.07-.08.12-.12c-.14,0-.25-.09-.35,0-.27-.2.09-.33.13-.5l.23.15c.24-.27,0-.5.15-.78l-.24,0,.17-.15c-.24,0-.37-.18-.16-.24l-.66.36c.13.14.31-.09.54,0s.09.35-.15.36c0-.1,0-.1.15-.17-.34-.08-.35.08-.58.12,0,0-.07-.14,0-.14a.4.4,0,0,0-.26.36c.15-.1.2.09.3.06-.3,0-.41.12-.36.35.32.21-.28.37-.22.64a1.42,1.42,0,0,0,.71-.29c.13.18,0,.18.1.36-.24,0-.59,0-.75.23l.22,0c-.15.17-.47.12-.45.36a6,6,0,0,1,0,1.15l.22.05c-.5.1-.26.54-.5.74.15.43-.34.82,0,1.08a5.54,5.54,0,0,0-.56,2l.34-.07c-.25.09.17.11.11.23-.24-.18-.36.13-.57.19.2.35-.13.72-.4,1l.22,0c-.46.22-.15.62-.13,1,.08,0,.28.15.24.25-.39.14-.38.24-.64.5a1.68,1.68,0,0,0,.11.78c-.62.71-.41,1.56-.84,2.32l.26.1c-.68.7-.32,1.75-.7,2.37h.45c.11.23-.19.46-.49.36.1.23-.3.49,0,.68.05.23-.25.23-.33.4a1.39,1.39,0,0,1-.11,1v-.1c.11,0,.3,0,.31.1-.15.13,0,.57-.47.34.24.48-.4,1,0,1.46-.14,0-.19.05-.29.08-.08.49.21.57,0,.57.06.05.24.08.25.13a2.33,2.33,0,0,1-.27-.1c-.26-.09.22.49.12.65-.27-.11-.18.28-.25.42l.07.27c-.21-.73,0,.35,0,.31s-.07-.26-.16-.7a5.09,5.09,0,0,0,.1.65c-.15-.79,0,.49-.19-.49a1.3,1.3,0,0,1,0,.16c0,.43-.12-.35-.16,0l0,.4c0,.33-.07-1-.1,0a2,2,0,0,1,0-.44c-.19.07-.31-.75-.31-1-.31.1-.62.66-.44.21-.09,0,.14-.14.06-.07.08-.14-.54.23-.4-.06.3-.12.1-.17.26-.28-.38-.23-.67-.14-.63-.53l-.13.1c.21-.56-.23-.78.07-1.34-.5-.88-.94-1.78-1.38-2.66-.11-.28-.69-1.3-1.15-2.1l-1.49-2.55-.72-1.12-3.43,3.69-.82.89-.42.49c-.27.33-.54.67-.79,1,0,.64,0,.66-.5.91.07,0,.1,0,.13.09-.28-.22-.27.24-.56,0a19.75,19.75,0,0,1-1.49,1.56c.11-.06.37.1.26.19l-.27,0,0,.08c-.1,0-.3,0-.32-.16-1.51,1.19-2.24,3.05-3.57,4.35a3.57,3.57,0,0,1-1.09,1.1,7.3,7.3,0,0,1-2.41,3.4S631.22,221.57,631.79,221.28Z"/><path class="cls-6" d="M656.91,192c.17.08.24.26.5.16A3.6,3.6,0,0,0,656.91,192Z"/><path class="cls-6" d="M658.1,196.68c-.06,0,.06.07.09.09s.18-.08.09-.14S658.18,196.66,658.1,196.68Z"/><path class="cls-6" d="M658,197.81c.16,0,.32-.22.36-.36Z"/><path class="cls-6" d="M658.54,198.94c.12.11.2.1.21,0S658.62,198.93,658.54,198.94Z"/><path class="cls-6" d="M658.17,199c0,.09.07.14.15.2C658.19,199.14,658.44,199,658.17,199Z"/><path class="cls-6" d="M658.29,201.28c0,.06-.17.15,0,.23C658.18,201.44,658.53,201.28,658.29,201.28Z"/><path class="cls-6" d="M657.9,202.29s0,.06,0,.09a.14.14,0,0,0,.21,0Z"/><polygon class="cls-6" points="653.32 222.4 653.44 222.74 653.37 222.32 653.32 222.4"/><path class="cls-6" d="M647.36,212.84c0-.15-.17,0-.2,0S647.31,212.71,647.36,212.84Z"/><polygon class="cls-6" points="645.79 208.81 645.81 208.84 645.95 208.45 645.79 208.81"/><rect class="cls-9" x="516.77" y="18.59" width="111.57" height="83.03"/><rect class="cls-10" x="525.21" y="27.96" width="19.41" height="19.41"/><rect class="cls-2" x="528.64" y="39.98" width="9.55" height="4.08"/><rect class="cls-11" x="585.25" y="84.03" width="34.7" height="10.38" rx="2.88"/><polyline class="cls-12" points="622.38 46.73 608.94 59.08 594.97 65.05 580.97 46.93 567.23 52.79 553.62 77.32 540.23 69.62 526.02 70.69"/><circle class="cls-13" cx="526.02" cy="70.69" r="1.36"/><circle class="cls-13" cx="540.23" cy="69.75" r="1.36"/><circle class="cls-13" cx="553.78" cy="77.32" r="1.36"/><circle class="cls-13" cx="567.38" cy="52.93" r="1.36"/><circle class="cls-13" cx="580.75" cy="47.25" r="1.36"/><circle class="cls-13" cx="595.01" cy="64.75" r="1.36"/><circle class="cls-13" cx="608.87" cy="58.9" r="1.36"/><circle class="cls-13" cx="622.38" cy="46.73" r="1.36"/><rect class="cls-7" x="384.88" y="23.33" width="114.54" height="218.22" rx="5.35"/><rect class="cls-2" x="390.13" y="33.84" width="104.03" height="197.21" rx="5.35"/><rect class="cls-8" x="403.22" y="73.42" width="14.84" height="40.87"/><rect class="cls-14" x="423.41" y="48.87" width="14.84" height="65.41"/><rect class="cls-7" x="443.59" y="107.53" width="14.84" height="6.75"/><rect class="cls-11" x="463.78" y="65.64" width="14.84" height="48.64"/><path class="cls-11" d="M441.89,97.32l6.42-11.94a3.07,3.07,0,0,1,5.41,0l6.42,11.94a3.07,3.07,0,0,1-2.71,4.53H444.59A3.07,3.07,0,0,1,441.89,97.32Z"/><rect class="cls-2" x="449.79" y="88.28" width="2.45" height="7.52"/><circle class="cls-2" cx="451.01" cy="98.2" r="1.22"/><rect class="cls-15" x="401.96" y="124.45" width="15.99" height="15.99"/><rect class="cls-2" x="404.79" y="134.35" width="7.86" height="3.36"/><rect class="cls-6" x="423.41" y="124.45" width="57.13" height="3.66"/><rect class="cls-6" x="423.41" y="130.61" width="32.8" height="3.66"/><rect class="cls-14" x="401.96" y="146.48" width="15.99" height="15.99"/><rect class="cls-2" x="404.79" y="156.37" width="7.86" height="3.36"/><rect class="cls-6" x="423.41" y="146.48" width="57.13" height="3.66"/><rect class="cls-6" x="423.41" y="152.64" width="32.8" height="3.66"/><rect class="cls-16" x="401.96" y="168.5" width="15.99" height="15.99"/><rect class="cls-2" x="404.79" y="178.4" width="7.86" height="3.36"/><rect class="cls-6" x="423.41" y="168.5" width="57.13" height="3.66"/><rect class="cls-6" x="423.41" y="174.67" width="32.8" height="3.66"/><rect class="cls-17" x="401.96" y="190.53" width="15.99" height="15.99"/><rect class="cls-2" x="404.79" y="200.43" width="7.86" height="3.36"/><rect class="cls-6" x="423.41" y="190.53" width="57.13" height="3.66"/><rect class="cls-6" x="423.41" y="196.7" width="32.8" height="3.66"/><polyline class="cls-9" points="453.51 77.1 453.51 51.96 516.77 51.96"/></svg>