<svg xmlns="http://www.w3.org/2000/svg" width="522.71" height="359.037" viewBox="0 0 522.71 359.037"><defs><style>.a{fill:#147dc3;}.a,.d,.k{stroke:rgba(0,0,0,0);stroke-miterlimit:10;}.b{fill:rgba(209,209,209,0.29);}.c,.d{fill:#80d6fa;}.e,.k{fill:#1ae5be;}.f{fill:#0396fd;}.g{fill:#f0f0f0;}.h{fill:none;}.i{fill:#35234b;}.j{fill:#fd8483;}.l{fill:#ed7e81;}.m{fill:#df757b;}.n{fill:#4ddddb;}</style></defs><g transform="translate(-6437.454 -18325.865)"><path class="a" d="M4.744,190.733A6.451,6.451,0,0,1,0,189.15c.007-14.74.008-29.568.009-43.908,0-41.023,0-83.442.161-125.167a19.968,19.968,0,0,1,1.549-7.767,18.467,18.467,0,0,1,4.363-6.26C10.025,2.33,15.5.275,21.92.105,24.639.033,27.54,0,31.051,0c2.473,0,4.988.017,7.42.033h.007C40.91.049,43.424.066,45.9.066l52.821,0h1.609l57.92,0c40.2,0,72.669.005,102.187.017a25.124,25.124,0,0,1,13.123,3.258,22.122,22.122,0,0,1,8.726,10.345,26.06,26.06,0,0,1,1.836,10.594c-.008,44.914-.009,90.375-.009,134.34v30.532c-1.212,1.366-2.821,1.48-4.646,1.484-19.046.042-37.652.064-55.3.064-17.669,0-35.079-.021-51.745-.064a7.711,7.711,0,0,1-.962-.086c-.232-.031-.471-.062-.707-.078-9.956.173-19.8.261-29.251.261-9.509,0-18.947-.089-28.054-.263a39.451,39.451,0,0,1-4.611.233c-12.658-.007-25.485-.007-37.89-.008-20.751,0-42.209,0-63.353-.032H7.557c-.461,0-.935.019-1.395.037S5.217,190.733,4.744,190.733ZM23.367,19.045c-1.839,0-2.845.257-3.474.888s-.9,1.677-.89,3.5c.126,48.462.124,96.434,0,142.584-.005,1.973.261,3.047.919,3.707s1.724.927,3.682.927h.033c39.288-.057,79.13-.086,118.419-.086s79.132.029,118.42.086h.034c1.966,0,3.035-.268,3.69-.926s.924-1.731.918-3.7c-.146-51.517-.139-97.882.02-141.743.008-2.254-.294-3.481-1.042-4.232s-1.936-1.042-4.138-1.042h-.1c-23.411.1-46.688.113-66.37.113q-11.145,0-22.29,0h-.574q-11.059,0-22.118,0h-6.436l-21.677.006c-10.054,0-20.45.007-30.717.007-18.083,0-41.953-.009-66.235-.082Z" transform="translate(6555.937 18451.25)"/><path class="b" d="M-98.1,1653.391l-7.542-.047c-1.928-.991-4.115.218-6.05-.708l-6.789-.045c-1.4-.931-3.119.152-4.534-.7l-6.034-.054c-1.406-.928-3.124.158-4.54-.7l-5.28-.049c-1.4-.933-3.121.156-4.536-.706l-4.525-.049c-1.139-.885-2.63.112-3.781-.706-19.106-1.163-38.033-3.522-56.57-8.469a15.767,15.767,0,0,1-3.082-1.39c-1.643-.852-3.8-1.431-3.683-3.773.123-2.489,2.169-3.577,4.2-4.3,8.767-3.133,17.932-4.615,27.081-5.934,9.885-1.427,19.852-2.283,29.784-3.388,1.151-.818,2.642.181,3.78-.707l4.527-.049c1.152-.816,2.642.179,3.782-.7l5.279-.051c1.416-.861,3.134.225,4.539-.7l6.032-.049c1.414-.864,3.133.227,4.536-.707l6.791-.049c1.677-.893,3.626.259,5.294-.7l5.95-.045c1.222.927,1.305,2.376,1.682,3.685,2.426,8.446,7.437,12.38,16.135,12.383q118.22.042,236.44,0c8.9,0,14.187-4.417,16.188-13.226.277-1.219.35-2.507,1.334-3.448l5.384-.1c1.93.986,4.116-.217,6.053.706l6.793.045c1.925,1,4.111-.217,6.044.711l6.034.045c1.666.968,3.618-.193,5.293.709l5.279.046c1.4.933,3.122-.157,4.536.706l5.28.049c1.139.884,2.628-.11,3.78.7,6.573.162,13.035,1.72,19.633,1.559,1.137.892,2.632-.117,3.78.713,13.482,1.881,27.084,3.149,40.085,7.542,2.405.813,5.739,1.278,5.8,4.5.061,3.053-3.208,3.427-5.417,4.361-7.45,3.15-15.475,3.967-23.318,5.463-4.158.792-8.412,1.089-12.622,1.61-1.147.83-2.642-.182-3.776.714l-9.817.8c-1.15.824-2.643-.179-3.781.71l-4.529.053c-1.151.81-2.638-.184-3.775.7l-4.529.047c-1.155.815-2.645-.174-3.788.7l-5.272.048c-1.674.9-3.626-.26-5.291.711l-5.281.046c-1.674.9-3.626-.26-5.292.709l-6.791.049c-1.676.893-3.626-.258-5.294.7l-8.3.052c-2.2.911-4.611-.288-6.8.707l-8.3.044c-2.712.942-5.61-.3-8.315.709l-10.563.047c-3.478.966-7.106-.327-10.578.709l-14.343.051c-3.429.719-6.9.126-10.345.341-1.337.083-2.727-.358-4,.365l-24.161.045a5.541,5.541,0,0,1-2.948.325q-37.055.018-74.109,0a5.552,5.552,0,0,1-2.949-.326l-22.648-.046c-3.67-.817-7.391-.146-11.079-.381-1.345-.085-2.73.31-4.029-.327l-14.335-.049c-3.219-1.039-6.606.264-9.828-.706l-9.812-.045c-2.7-1.014-5.6.231-8.309-.707l-8.3-.049C-92.988,1653.075-95.648,1654.34-98.1,1653.391Z" transform="translate(6666.16 17028.125)"/><path class="c" d="M198.469,1618.364c.584,11.8-7.229,20.14-19.016,20.144q-131.949.027-263.9,0c-12.1,0-19.43-7.2-19.914-19.47-.067-2.853,1.893-3.693,4.177-3.985,1.741-.224,3.523-.14,5.287-.191l99.856.111q6.712.009,13.426.021c.439.349.993.652,1.214,1.147,2.943,6.6,8.486,7.729,14.964,7.554,8.537-.23,17.091-.2,25.632-.009,6.333.143,11.732-1.053,14.54-7.529.217-.5.76-.811,1.2-1.162q53.916-.012,107.83-.027c1.817,0,3.635-.07,5.451-.107C192.672,1615.049,196.466,1614.337,198.469,1618.364Z" transform="translate(6650.83 17025.531)"/><path class="d" d="M48.807,14.814c-8.271,4.135-17.2,5.009-26.3,4.745a47.955,47.955,0,0,1-16-3.071C3.693,15.4,1.227,13.867.213,10.77c-.854-3.525.939-5.438,3.96-6.737A54.246,54.246,0,0,1,18.62.5h0A45.807,45.807,0,0,1,31.729.447l.238.021c5.428,1.107,11.06,1.417,15.921,4.6,2.19,1.436,3.443,3.2,3.4,5.822-.063,4.055-.142,8.109-.214,12.162C47.791,21.124,50.129,17.692,48.807,14.814Z" transform="translate(6437.944 18518.633)"/><path class="e" d="M-150.012,1537.688c.09,4.938.945,9.9-.437,14.789-2.33-3.667-1.476-7.364-.744-9.976-.8,1.8-3.486,3.066-6.328,3.894a62.132,62.132,0,0,1-37.111-.47c-2.706-.868-5.178-2.19-6.164-5.186q.012-6.694.026-13.389a2.01,2.01,0,0,1,1.6.287c12.033,7.681,25.063,6.715,38.218,4.314a23.943,23.943,0,0,0,7.706-3.281c2.113-1.247,3.383-1.064,3.227,1.872C-150.146,1532.918-150.1,1535.307-150.012,1537.688Z" transform="translate(6638.948 17014.742)"/><path class="f" d="M-150.013,1539.074c-.171-2.9-.341-5.792-.522-8.862-12.842,7.637-26.5,7.147-40.325,4.233-3.814-.8-7.479-2.3-9.91-5.708q-.012-6.345-.022-12.691c5.108,5.663,12.2,6.572,19.066,7.326a59.129,59.129,0,0,0,23.182-2.039,21.92,21.92,0,0,0,7.66-4.112c1.137,3.814-.373,7.628.956,11.113Q-149.971,1533.7-150.013,1539.074Z" transform="translate(6638.949 17013.355)"/><g transform="translate(6518.905 18425.973)"><path class="f" d="M-104.323,1443.439c-1.191.017-2.173.663-2.081,1.657a3.887,3.887,0,0,0,2.671,2.934c.84.3,1.948-1.229,1.908-2.2C-101.879,1444.52-103.2,1443.911-104.323,1443.439Z" transform="translate(131.673 -1421.561)"/><path class="f" d="M-116.237,1432.686c-.768-.557-1.82-2-2.783-.871-1.856,2.179,1.192,2.85,1.842,5.117C-116.5,1435.091-114,1434.309-116.237,1432.686Z" transform="translate(130.046 -1423.046)"/><path class="f" d="M-113.614,1435.691c-.927.088-2.049.854-1.783,1.916a2.469,2.469,0,0,0,2.629,2.125,2.581,2.581,0,0,0,2.029-1.975C-111.661,1437.033-112.169,1435.555-113.614,1435.691Z" transform="translate(130.56 -1422.517)"/><path class="f" d="M-122.388,1427.683a1.653,1.653,0,0,0-2.014,1.569c.034,1.314,1.243,1.975,2.462,2.664.879-.617,2.181-1.251,2.008-2.271A2.853,2.853,0,0,0-122.388,1427.683Z" transform="translate(129.456 -1423.505)"/><path class="f" d="M-109.208,1439.662c-1.061.137-1.984.852-1.681,1.887a2.762,2.762,0,0,0,2.313,2.09c1.159.029,1.8-1.05,2.4-2.079C-107.15,1440.841-107.7,1439.467-109.208,1439.662Z" transform="translate(131.113 -1422.029)"/><path class="f" d="M-126.568,1423.966c-1.043-.053-2.363.363-2.333,1.652a2.656,2.656,0,0,0,2.116,2.226c1.158.243,1.86-.905,2.5-1.835C-124.817,1425.056-125.43,1424.023-126.568,1423.966Z" transform="translate(128.901 -1423.961)"/></g><g transform="translate(6847.097 18426.029)"><path class="f" d="M169.681,1439.754c-.855.828-2.082,1.472-1.894,2.973.128,1.01.646,2.118,1.82,1.62,1.055-.448,2.364-1.169,2.158-2.724C171.622,1440.553,170.789,1440.015,169.681,1439.754Z" transform="translate(-162.739 -1422.073)"/><path class="f" d="M183.315,1428.436a1.832,1.832,0,0,0-1.949,2.131c.051.973.447,2.159,1.687,1.75a3.864,3.864,0,0,0,2.489-2.58C185.219,1428.536,184.4,1428.366,183.315,1428.436Z" transform="translate(-161.064 -1423.469)"/><path class="f" d="M187.822,1424.071c-1.027.326-2.425,1.246-2.079,2.609.2.775,1.528,1.891,2.171,1.785,1.1-.182,2.069-1.2,3.017-1.821C189.61,1425.039,188.954,1423.713,187.822,1424.071Z" transform="translate(-160.531 -1424.012)"/><path class="f" d="M174.371,1435.906c-1.041.546-1.9,1.309-1.795,2.533.093,1.067.863,1.9,2,1.494.948-.341,2.209-.931,1.9-2.243A2.428,2.428,0,0,0,174.371,1435.906Z" transform="translate(-162.147 -1422.547)"/><path class="f" d="M179.094,1432.21a2.8,2.8,0,0,0-2.115,2.6c-.067.739.49,1.56,1.785,1.46.332-1.077,2.37-.759,2.253-2.288C180.95,1433.127,180.1,1432.029,179.094,1432.21Z" transform="translate(-161.605 -1423.005)"/><path class="f" d="M165.269,1444.266c-1.307.157-2.069.773-1.97,2.135.063.867.5,1.813,1.393,1.762,1.333-.075,2.023-1.222,2.638-2.325C166.983,1444.815,166.5,1444.119,165.269,1444.266Z" transform="translate(-163.29 -1421.519)"/></g><path class="f" d="M-150.432,1539.566c-2.371,1.252-3.681,2.64-5.531,3.4-9.36,3.833-19.082,3.522-28.77,2.527-5.781-.6-11.561-1.937-16.046-6.226-.039,3.36.015,6.726-.146,10.081-.119,2.506.865,3.879,3.08,5.211,4.817,2.895,10.071,3.625,15.446,4.15h0a65.625,65.625,0,0,0,11.176.179c.747-.045,1.495-.085,2.242-.149a60.279,60.279,0,0,0,7.293-1.2c4.258-1.227,8.907-1.949,11.256-6.531Z" transform="translate(6638.932 17016.219)"/><g transform="translate(6637.384 18401.598)"><path class="f" d="M-22.021,1431.651c-1.46-.029-1.262,1.091-1.31,2.014-.056,1.1.264,1.832,1.574,1.767s1.489-.908,1.444-2.2A1.6,1.6,0,0,0-22.021,1431.651Z" transform="translate(23.429 -1398.637)"/><path class="f" d="M-21.889,1406.157c1.179-.118,1.6-.952,1.654-2.023.053-1.162-.363-1.867-1.649-1.876-1.423-.01-1.5.937-1.489,1.97C-23.362,1405.241-23.345,1406.3-21.889,1406.157Z" transform="translate(23.424 -1402.258)"/><path class="f" d="M-21.778,1414.115c-1.761-.093-1.624,1.1-1.6,2.231.02.947-.2,2.095,1.351,2.014,1.495-.076,1.688-1.187,1.957-3.3C-20.014,1414.793-20.5,1414.183-21.778,1414.115Z" transform="translate(23.422 -1400.797)"/><path class="f" d="M-22.279,1425.854c-1.214-.114-1.059.984-1.1,1.785-.053,1.038.012,1.951,1.453,1.936,1.212-.014,1.83-.478,1.7-1.768C-19.968,1426.213-21.223,1425.952-22.279,1425.854Z" transform="translate(23.422 -1399.352)"/><path class="f" d="M-20.4,1409.083a1.322,1.322,0,0,0-1.993-.745c-1.723.957-.759,2.489-.7,3.963C-21.15,1411.918-19.854,1411.2-20.4,1409.083Z" transform="translate(23.418 -1401.533)"/><path class="f" d="M-23.367,1421.432c.017.932-.229,2.04,1.251,2.1,1.065.042,1.954-.155,1.886-1.54.112-1.106-.207-1.867-1.517-1.876C-22.678,1420.106-23.386,1420.316-23.367,1421.432Z" transform="translate(23.424 -1400.058)"/></g><g transform="translate(6501.031 18544.305)"><path class="f" d="M-140.5,1530.02c-1.508-1.034-2.963-1.115-4.111,1.01a1.657,1.657,0,0,0,.529,2.2c1.342.619,2.787,1,3.946-.193a1.265,1.265,0,0,0,.376-.442h0l.018-1.989A1.246,1.246,0,0,0-140.5,1530.02Z" transform="translate(144.815 -1529.312)"/><path class="f" d="M-131.187,1530.546h0l.018,2.1c1.105,1.664,2.69,1.186,4.1.735a1.6,1.6,0,0,0,.738-2.16C-127.52,1528.4-129.342,1529.179-131.187,1530.546Z" transform="translate(146.494 -1529.312)"/><path class="f" d="M-124.446,1530.546q.01,1.049.019,2.1c1.105,1.664,2.69,1.186,4.1.736a1.6,1.6,0,0,0,.738-2.16C-120.776,1528.4-122.6,1529.183-124.446,1530.546Z" transform="translate(147.325 -1529.312)"/><path class="f" d="M-117.723,1530.5l.021,2.177c1.136,1.6,2.709,1.159,4.124.7a1.6,1.6,0,0,0,.736-2.16C-114.02,1528.378-115.869,1529.23-117.723,1530.5Z" transform="translate(148.153 -1529.311)"/><path class="f" d="M-106.166,1530.824c-1.366-2.112-3.11-1.662-4.846-.4l.027,2.308c1.367,1.494,2.971,1.264,4.454.374A1.737,1.737,0,0,0-106.166,1530.824Z" transform="translate(148.98 -1529.306)"/><path class="f" d="M-137.957,1530.624l0,0,0,0q.008.977.017,1.953c1.666,1.7,3.3,1.816,4.9-.087h0l.016-1.757C-134.626,1528.824-136.274,1528.957-137.957,1530.624Z" transform="translate(145.66 -1529.308)"/></g><g transform="translate(6852.011 18543.463)"><path class="f" d="M187.867,1529.644q.013,1.183.027,2.365c1.384,1.446,2.984,1.246,4.467.347a1.741,1.741,0,0,0,.365-2.281C191.367,1527.95,189.611,1528.443,187.867,1529.644Z" transform="translate(-165.176 -1528.556)"/><path class="f" d="M174.409,1529.712q.012,1.122.024,2.244c1.349,1.542,2.956,1.283,4.439.4a1.731,1.731,0,0,0,.365-2.283C177.863,1527.979,176.132,1528.377,174.409,1529.712Z" transform="translate(-166.834 -1528.557)"/><path class="f" d="M168.389,1529.3a1.38,1.38,0,0,0-.723.492h0l.02,2.1h0v0a1.446,1.446,0,0,0,.209.247c1.106,1.316,2.586.916,3.927.488a1.6,1.6,0,0,0,.744-2.168C171.516,1528,169.989,1528.3,168.389,1529.3Z" transform="translate(-167.665 -1528.562)"/><path class="f" d="M181.125,1529.641l.027,2.37c1.384,1.443,2.985,1.245,4.468.346a1.742,1.742,0,0,0,.364-2.281C184.626,1527.948,182.869,1528.445,181.125,1529.641Z" transform="translate(-166.007 -1528.556)"/><path class="f" d="M201.162,1529.321c-.985.709-.7,1.949.317,2.786h0v-.009a2.68,2.68,0,0,0,4.141-.049q.012-1.233.022-2.465A3.445,3.445,0,0,0,201.162,1529.321Z" transform="translate(-163.613 -1528.556)"/><path class="f" d="M199.066,1529.318a3.374,3.374,0,0,0-4.468.3q.01,1.2.022,2.406c1.362,1.385,2.743,1.333,4.14.075v.01C199.768,1531.266,200.059,1530.021,199.066,1529.318Z" transform="translate(-164.347 -1528.556)"/></g><path class="g" d="M87.25,1342.915l-.085.109c.054.024.108.038.162.064l1-.184A.969.969,0,0,0,87.25,1342.915Z" transform="translate(6674.427 16992.006)"/><path class="g" d="M87.126,1343.049l.206.008c-.054-.026-.108-.04-.162-.064Z" transform="translate(6674.422 16992.035)"/><g transform="translate(6730.882 18325.865)"><path class="h" d="M90.488,1367.973c0,.024,0,.047.006.071h0l-.006-.071Z" transform="translate(-56.045 -1338.946)"/><path class="i" d="M90.49,1368l-.022-.268a1.536,1.536,0,0,1,.022.268Z" transform="translate(-56.048 -1338.979)"/><path class="j" d="M90.726,1368.027c-.08-.017-.159-.034-.238-.054l.006.071.074.021Z" transform="translate(-56.045 -1338.946)"/><path class="j" d="M90.9,1368.083c.148-.063.286-.13.425-.2l-.622.153C90.766,1368.053,90.831,1368.071,90.9,1368.083Z" transform="translate(-56.019 -1338.959)"/><path class="k" d="M0,13.873v0H0C1.289,7.876,4.828,3.462,9.728,0,8.636,2.829,7.08,5.46,7.084,8.564,7.08,5.46,8.636,2.829,9.728,0c.075,2.169.85,4.528-1.844,5.868C7.1,6.256,7.272,6.94,7.738,7.6c1.985,2.813,1.826,5.777-.634,7.932a2.924,2.924,0,0,1-1.953.838C3.339,16.371,1.768,14.366,0,13.873Zm5.022.727h0Zm-.043,0a4.83,4.83,0,0,1-1.345-.211A4.827,4.827,0,0,0,4.979,14.6Zm-1.4-.228Zm-.242-.079a7.548,7.548,0,0,0-2.278-.648A7.551,7.551,0,0,1,3.338,14.293ZM1,13.645H1Zm6.546-2.174c-.01-.036-.02-.072-.031-.108C7.529,11.4,7.539,11.435,7.549,11.471Z" transform="translate(1.762 6.063)"/><path class="e" d="M94.039,1344.6h0c-.262,1.933-2.036,1.6-3.222,2.109-.961.416-2.56.37-2.033,1.953.517,1.553,1.705.794,2.761.331,5.59-2.446,7.865-1.834,11.773,3.074.045-.014.066-.048.1-.071.35-.212.359-.738.776-.89A17.543,17.543,0,0,0,94.039,1344.6Z" transform="translate(-56.268 -1341.828)"/><path class="l" d="M101.8,1351.28c.018.039.038.073.055.114l-.012.01c1.07.417.5-.662.733-1.013C102.162,1350.542,102.153,1351.067,101.8,1351.28Z" transform="translate(-54.651 -1341.114)"/><path class="l" d="M101.869,1351.3c-.017-.04-.037-.074-.055-.113-.036.022-.057.057-.1.071.058.027.094.033.145.053Z" transform="translate(-54.663 -1341.014)"/><path class="e" d="M88.245,1342.99a.969.969,0,0,1,1.078-.011,7.035,7.035,0,0,0-6.654-.021h0c-1.193.371-2.631-.059-3.58,1.1h0c1.01.926,2.532,1.193,3.194,2.573,1.907,3.973,3.543,1.739,4.963-.338a12.267,12.267,0,0,0,1.074-3.129l-.206-.008.044-.056Z" transform="translate(-57.45 -1342.131)"/><path class="f" d="M116.256,1374.043a19.817,19.817,0,0,0-.015-6.62l-1.995-6.734c-1.106.814-2.7,1.39-3.234,2.484-2.7,5.574-8.744,5.864-13.171,8.67-1.18.748-2.412.047-3.552-.477l-.019-.231a1.449,1.449,0,0,1,.019.231c-1.735-.338-2.955,1.312-5.259,1.552,1.643-2.263,2.825-3.752,5.212-2.122,1.285-.448,2.936-.605,2.351-2.666-.45-1.586-2.123-2.141-5.533-1.812,2.181-3.583-.146-6.308-1.534-9.235-.625-1.314-2.17-2.788-.745-4.137s3.6-1.291,5.546-1.279c.727,0,1.462.59,1.24,1.35-1.045,3.56,1.494,3.49,3.492,3.138,3.093-.544,2.021-2.614,1.186-4.483a4.313,4.313,0,0,1-.029-1.591c2.677-.242,4.072,2.762,6.655,2.194-3.909-4.908-6.183-5.521-11.773-3.074-1.056.463-2.244,1.222-2.761-.331-.527-1.583,1.072-1.538,2.033-1.953,1.186-.512,2.961-.177,3.222-2.11l-5.9-1.92-1,.184a12.261,12.261,0,0,1-1.074,3.129c-1.421,2.077-3.056,4.311-4.963.338-.663-1.381-2.185-1.648-3.194-2.573h0c-3.9.114-7.035,2.1-10.148,4.137.075,2.169.85,4.529-1.844,5.867-.782.389-.612,1.073-.145,1.734,1.985,2.813,1.825,5.778-.635,7.932-2.717,2.379-4.733-1-7.1-1.661h0c-1.552.9-.325,2.64-1.128,3.768a11.891,11.891,0,0,1-.4,3.884,3.171,3.171,0,0,1-.23.7c.077.094.23.2.218.283a3.942,3.942,0,0,1-.21.666,5.481,5.481,0,0,1,.339,2.563q.128.976.258,1.953a27.142,27.142,0,0,0,22.9,22.9,15.616,15.616,0,0,0,10.053-.026c13.042-3.136,20.21-11.743,22.872-24.549h0Zm-36.144,14.311c-.358,2.335-.735,4.418-4.258,5.172,2.149-3.3,1.988-5.979.37-8.746a28.61,28.61,0,0,1-3.072-9.973c-.227-1.365-.427-3.343,1.425-3.355,2.863-.019,5.445-1.136,8.192-1.4,1.788-.17,3.914-.1,4.582,2.06.7,2.26.505,5.132-1.759,5.951C80.377,1379.948,80.727,1384.352,80.113,1388.353Z" transform="translate(-59.823 -1342.039)"/><path class="e" d="M81.323,1367.079c-2.746.262-5.328,1.379-8.192,1.4-1.852.012-1.652,1.99-1.425,3.355a28.612,28.612,0,0,0,3.072,9.973c1.619,2.767,1.779,5.443-.37,8.745,3.523-.754,3.9-2.836,4.258-5.171.614-4,.264-8.4,5.479-10.29,2.264-.819,2.459-3.691,1.759-5.951C85.237,1366.978,83.111,1366.91,81.323,1367.079Z" transform="translate(-58.377 -1339.065)"/><path class="m" d="M88.872,1367.864c-.626.049-.135.843-.21.289-.026-.192.253-.313.574-.334a4.241,4.241,0,0,1,1.5.251c0-.024,0-.047-.006-.071A3.078,3.078,0,0,0,88.872,1367.864Z" transform="translate(-56.284 -1338.972)"/><path class="e" d="M104.639,1350.527c-.23.351.337,1.43-.733,1.013-.051-.02-.086-.026-.145-.053-2.583.568-3.978-2.436-6.655-2.193a4.312,4.312,0,0,0,.029,1.59c.835,1.869,1.907,3.939-1.186,4.483-2,.352-4.537.422-3.492-3.138.222-.761-.513-1.346-1.24-1.35-1.945-.011-4.114-.077-5.546,1.279s.12,2.823.745,4.137c1.388,2.927,3.716,5.652,1.534,9.235,3.41-.328,5.083.227,5.533,1.813.585,2.06-1.066,2.217-2.351,2.666-2.387-1.63-3.568-.141-5.212,2.122,2.3-.239,3.524-1.889,5.259-1.551a1.446,1.446,0,0,0-.019-.231,4.241,4.241,0,0,0-1.5-.252c-.321.021-.6.143-.574.335.075.554-.416-.239.21-.289a3.077,3.077,0,0,1,1.854.135c.079.02.158.037.238.054l.622-.153c-.138.067-.276.135-.425.2-.066-.011-.131-.03-.2-.045l-.158.038-.074-.021.019.231c1.14.524,2.371,1.224,3.552.476,4.427-2.806,10.473-3.1,13.171-8.67.53-1.094,2.127-1.67,3.234-2.484h0C109.7,1356.272,107.983,1352.836,104.639,1350.527Z" transform="translate(-56.711 -1341.252)"/></g><g transform="translate(6607.162 18325.865)"><path class="f" d="M-1.325,1388.689c1.032.033,1.893.38,1.855,1.556a2.056,2.056,0,0,1-2.149,2c-1.239.1-2.222-.529-2.1-1.834C-3.6,1389.167-2.472,1388.788-1.325,1388.689Z" transform="translate(58.542 -1332.099)"/><path class="f" d="M-40.7,1390.38a2.092,2.092,0,0,1-2.473,1.74c-1.036-.127-1.126-.991-1.064-1.773.112-1.428,1.064-1.784,2.325-1.583C-40.951,1388.917-40.723,1389.616-40.7,1390.38Z" transform="translate(48.137 -1332.092)"/><path class="f" d="M-22.387,1391.727c1.022-.011,1.913.184,1.835,1.489-.06,1-.8,1.21-1.635,1.218-1.01.01-1.915-.171-1.835-1.476C-23.96,1391.963-23.23,1391.746-22.387,1391.727Z" transform="translate(53.33 -1331.319)"/><path class="e" d="M5.207,1360.026c-.829-.415-1.508-.553-1.91-1.669-2.7-7.5-8.4-11.677-15.854-13.775a4.839,4.839,0,0,0-5.6-.063c-7.829,1.155-13.933,4.679-16.5,12.6-.7,2.154-2.4,2.769-3.957,3.546-6.785,3.4-9.254,8.351-8.636,15.029.553,5.966,4.5,11.676,9.881,12.966,2.521.6,5.252.339,7.887.47,1.018,2.213.172,4.563.5,6.818.442,3.049-.71,4.346-3.815,3.849a4.447,4.447,0,0,0-2.282.229c-1.842,2.619-1.291,3.689,2.035,3.745,8.118.134,8.117.23,8.118-7.988v-.939c0-6.511,0-6.511,6.736-5.559,1.205,3.25-.038,6.669.694,9.952,1,1.438,2.041.206,3.066.058,1.348-3.238-.4-6.772.963-10.009,6.736-.965,6.736-.965,6.738,5.457,0,1.861-.075,3.726.026,5.582.079,1.417-.445,3.612,1.991,3.314,3.017-.367,6.546,1.694,8.946-1.626.221-.308-.519-1.31-.812-1.99-6.111-.515-6.139-.515-6.059-6.854.016-1.349-.426-2.781.46-4.043A7.022,7.022,0,0,1-.8,1388.9c10.247.309,14.7-6.166,16.177-12.434C16.872,1370.132,12.925,1363.885,5.207,1360.026Z" transform="translate(47.345 -1343.658)"/><path class="f" d="M-22.009,1378.805c-6.721.294-6.7.294-6.787-6.253-.028-2.061.671-4.28-2.566-5.117-1.934-.5-.975-2.267.079-3.338,3.184-3.233,6.433-6.4,9.611-9.641,1.639-1.669,2.968-1.13,4.378.313,2.954,3.021,5.992,5.959,8.94,8.986,1.428,1.465,2.776,3.078-.449,4.064-2.714.829-1.622,3.075-1.666,4.735-.17,6.542-.1,6.544-6.82,6.253-2.4-2.219-.441-5.714-2.364-8.3C-21.563,1373.093-19.614,1376.584-22.009,1378.805Z" transform="translate(51.162 -1341.151)"/><path class="n" d="M-24.147,1375.856c.1-2.914.116-5.837.366-8.739a2.154,2.154,0,0,1,1.994-2.2,2.153,2.153,0,0,1,1.992,2.206c.251,2.9.263,5.825.368,8.739Z" transform="translate(53.3 -1338.201)"/></g><g transform="translate(6895.66 18509.816)"><path class="f" d="M216.771,1545.96c.433,2.674.8,5.417-1.544,7.419s-5.138,2.675-7.812.772c-2.758-1.962-3.061-4.926-2.084-7.933.949-2.922,3.5-3.384,6.117-3.2a22.9,22.9,0,0,1,4.091,1.039C216.527,1544.319,216.692,1545.111,216.771,1545.96Z" transform="translate(-204.824 -1493.077)"/><path class="f" d="M245.7,1513.359c-.321-6.857,1.756-9.887,6.378-9.063a6.344,6.344,0,0,1,5.392,4.759c.7,2.52-.544,4.3-2.221,5.834-2.444,2.233-5.109,2.114-7.8.383C246.409,1515.046,245.686,1514.537,245.7,1513.359Z" transform="translate(-193.161 -1504.164)"/><path class="e" d="M214.391,1549.362q-.615-.951-1.232-1.9l16.045-16.391a2.6,2.6,0,0,1,2.444,2.609c-4.245,1.471-6.261,5.512-9.431,8.226C219.483,1544.245,216.99,1546.867,214.391,1549.362Z" transform="translate(-202.443 -1496.481)"/><path class="e" d="M248.524,1511.316q.872.956,1.746,1.914-6.406,6.412-12.812,12.826a2.318,2.318,0,0,1-1.661-2.594Q242.158,1517.389,248.524,1511.316Z" transform="translate(-195.987 -1502.12)"/><path class="e" d="M230.223,1523.6q-1.18,1.325-2.358,2.651-4.977-5.294-9.958-10.59c-.783-2.178.171-2.511,2.016-1.9Z" transform="translate(-201.166 -1501.499)"/><path class="e" d="M235.691,1533.71a2.7,2.7,0,0,1,1.779-2.738q4.989,5.249,9.979,10.5c.464,1.762-.738,1.761-1.9,1.8C241.821,1540.535,238.833,1537.044,235.691,1533.71Z" transform="translate(-196.009 -1496.507)"/><path class="e" d="M221.1,1514.98a1.842,1.842,0,0,0-2.016,1.9c-1.505.47-2.733-.262-3.972-.925-1.948-1.041-1.649-2.875-1.5-4.571.131-1.459,1.017-2.126,2.566-2.143,1.82-.02,3.579-.046,4.231,2.074A30.972,30.972,0,0,1,221.1,1514.98Z" transform="translate(-202.345 -1502.714)"/><path class="e" d="M243.356,1540.938l1.9-1.8c2.506-.032,4.907.283,5.627,3.2.594,2.4-1.247,3.475-3.011,4.217C245.063,1547.742,243.38,1545.593,243.356,1540.938Z" transform="translate(-193.82 -1494.175)"/><path class="c" d="M240.646,1523.666a2.87,2.87,0,0,0-1.661-2.6l-2.922-.44h0a3.524,3.524,0,0,0-4.7-.08h0c-1.075.345-2.467-.08-3.124,1.284a2.857,2.857,0,0,0-2.356,2.652c-2.107,3.291-1.273,6.563.062,9.832.341,1.313,1.553,1.813,2.444,2.611l2.9.4a5.634,5.634,0,0,0,1.009.561q-.015,6.356-.03,12.714a3.816,3.816,0,0,1-1.9,1.741,28.149,28.149,0,0,0-2.364,2.318c-2.354,2.9-1.509,5.9.865,7.919,2.6,2.209,5.876,2.419,8.577-.384,2.455-2.549,2.918-6.036.369-8.013-3.052-2.368-2.737-5.035-2.74-7.972,0-3.025.072-6.05.113-9.075l3.675-.21c1.324-.438,1.594-1.561,1.778-2.739A11.957,11.957,0,0,0,240.646,1523.666Z" transform="translate(-199.177 -1499.729)"/></g><g transform="translate(6889.312 18372.914)"><path class="e" d="M237.158,1416.032l-8.888.628c-2.481.7-5.017.181-7.522.341-9.6,0-13.743-3.874-12.639-11.806q5.707-8.941,11.412-17.879c2.07-1.269,3.228.32,4.032,1.634,4.909,8.022,9.744,16.093,13.929,24.528A2.118,2.118,0,0,1,237.158,1416.032Z" transform="translate(-190.76 -1380.68)"/><path class="f" d="M233.736,1418.074q-7.72-13.7-15.428-27.4a2.364,2.364,0,0,0-2.209-1.312c-.061-2.106-3.02-4.622.411-6.212,3.5-1.623,3.981,1.813,5.476,3.726,1.805,2.309,2.364,5.438,4.893,7.226,3.954,3.328,5.773,7.973,7.735,12.53-.368,3.587,2.615,5.733,3.809,8.657.873,2.133,3.188,3.978-.188,5.8C234.909,1422.883,234.909,1419.57,233.736,1418.074Z" transform="translate(-187.338 -1382.723)"/><path class="c" d="M212.322,1399.125c2.067,6.153,4.171,12.265,12.587,11.425a.673.673,0,0,1-.644.819c-2.832-.147-5.811-.79-7.7,2.261-1.934,2.695-4.708,4.23-7.652,5.527-1.786.551-3.058-.552-4.413-1.378-3-2.127-4-5.427-5.08-8.679.2-6.517,6.81-5.571,10.038-8.571A10.962,10.962,0,0,1,212.322,1399.125Z" transform="translate(-194.972 -1374.612)"/><path class="e" d="M217.333,1412.557c5.739,3.053,7.964,8.974,9.532,14.352,1.067,3.663-4.173,4.445-7.339,5.483-2.225-.641-3.083-2.472-3.678-4.422-.791-2.593-2.573-3.336-5.053-3-2.264.02-3.079-1.774-4.119-3.286-.25-2.392-5.456-5.555,1.075-6.89C211.066,1414.572,213.8,1411.84,217.333,1412.557Z" transform="translate(-192.472 -1368.031)"/><path class="f" d="M213.8,1434.776a11.166,11.166,0,0,0-3.161.808c-7.668,4.667-7.626,4.679-12.862-2.741-1.941-2.75-2-4.9,1.345-6.613,2.715-1.394,5.286-3.071,7.921-4.624C211.448,1424.892,214.567,1428.838,213.8,1434.776Z" transform="translate(-196.442 -1363.495)"/><path class="c" d="M210.295,1436.25c-1.172-4.944-4.624-8.719-6.757-13.169.5-2.053,3.865-1.789,3.6-4.458q2.139,1.152,4.274,2.306c1.58,3.337,3.812,6.405,4.244,10.219C215.6,1434.666,212.161,1434.632,210.295,1436.25Z" transform="translate(-192.934 -1364.969)"/><path class="f" d="M235.013,1402.706c3.573-2.443,5.767-5.707,3.661-9.908-2.07-4.13-5.707-5.621-10.324-3.815-.613.241-1.447-.081-2.176-.143,1.756-4.357,5.492-3.563,8.459-2.5,3.9,1.393,7.009,4.065,7.087,8.912a9.554,9.554,0,0,1-5.183,9.08C235.409,1404.957,235.143,1403.628,235.013,1402.706Z" transform="translate(-181.74 -1381.349)"/><path class="e" d="M225.375,1389.357c4.738,2.8,6.2,7.671,7.842,12.424l-2.578,1.565c-3.971-3.32-5.827-7.943-7.737-12.531C223.177,1389.4,224.6,1389.919,225.375,1389.357Z" transform="translate(-183.359 -1379.442)"/><path class="f" d="M216.692,1414.341c-3.053,1.354-5.7,4.47-9.584,2.236q-.668-1.109-1.339-2.219c1.4-3.438,4.738-4.186,7.65-5.527Z" transform="translate(-191.83 -1369.812)"/><path class="f" d="M213.136,1430.689c-1.874-3.216-5.491-5.709-4.243-10.221,2.678-1.4,4.717-1.545,5.718,2.11.6,2.2,1.891,4.207,2.863,6.3Q215.3,1429.779,213.136,1430.689Z" transform="translate(-190.413 -1364.512)"/><path class="f" d="M200.423,1405.8c2.914,2.179,4.05,5.4,5.08,8.68-2.169-.239-4.315,2.359-6.579-1.154C196.573,1409.678,196.779,1407.7,200.423,1405.8Z" transform="translate(-195.979 -1371.313)"/><path class="g" d="M216.043,1407.589c.223-.267.436-.541.646-.819l7.573.04C221.661,1408.537,218.8,1407.46,216.043,1407.589Z" transform="translate(-186.75 -1370.831)"/><path class="f" d="M232.308,1395.979a2.823,2.823,0,0,0,.6-3.866c-1.125-1.786-3.86-.481-3.86-.481l-.9-1.079s.837-1.212,1.42-1.417c2.7-.949,4.764.22,5.944,2.548,1.323,2.608-2.034,6.419-2.034,6.419Z" transform="translate(-180.765 -1379.715)"/></g><g transform="translate(6757.637 18401.516)"><path class="f" d="M85.868,1424.4c1.656-.013,2.11-.984,2.042-2.424.031-1.344-.181-2.472-1.909-2.547-1.912-.081-2.283,1.035-2.269,2.622C83.746,1423.519,84.248,1424.411,85.868,1424.4Z" transform="translate(-83.632 -1400.063)"/><path class="f" d="M87.91,1415.808c.073-1.476-.476-2.377-2.1-2.378-1.646,0-2.071.953-2.084,2.4-.015,1.617.432,2.676,2.319,2.569C87.789,1418.3,87.931,1417.127,87.91,1415.808Z" transform="translate(-83.633 -1400.802)"/><path class="f" d="M87.054,1429.587c1.029-1.051,1.8-2.3.73-3.606a2.372,2.372,0,0,0-3.1-.293c-1.539,1.1-1.211,2.573-.1,3.914Z" transform="translate(-83.643 -1399.345)"/><path class="f" d="M84.753,1406.327h0l2.148-.011c1.534-1.352,1.474-2.726.056-4.119l-2.26-.01c-1.378,1.4-1.438,2.78.056,4.14Z" transform="translate(-83.643 -1402.187)"/><path class="f" d="M86.851,1431.431h0l-2.037-.009c-1.614,1.317-1.442,2.706-.162,4.137h0l2.343-.011C88.331,1434.128,88.483,1432.748,86.851,1431.431Z" transform="translate(-83.643 -1398.585)"/><path class="f" d="M84.982,1412.3v0l0,0,1.716-.009c1.9-1.226,1.571-2.634.337-4.116l-2.436-.012C83.445,1409.657,83.078,1411.082,84.982,1412.3Z" transform="translate(-83.643 -1401.451)"/></g><path class="d" d="M2.713,59.9a2.712,2.712,0,0,1-2.027-.619,3.488,3.488,0,0,1-.653-2.595C.1,50.2.091,43.6.08,37.214v-.006c0-2.436-.009-4.954-.008-7.431,0-2.455.01-4.95.02-7.363C.118,16.282.144,9.942,0,3.71A3.979,3.979,0,0,1,.751.732,3.223,3.223,0,0,1,3.195,0c.2,0,.412.006.638.019,1.239.069,2.566.1,4.3.1.724,0,1.457-.005,2.167-.01C10.961.1,11.7.1,12.426.1c1.613,0,2.852.026,4.017.083A12.549,12.549,0,0,1,24.452,3.1a11.254,11.254,0,0,1,3.487,7.651,231.3,231.3,0,0,1,.1,37.355c-.529,7.449-4.832,11.384-12.79,11.695-.967.037-2,.055-3.244.055-.9,0-1.812-.009-2.7-.018-.838-.009-1.784-.019-2.7-.019-1.372,0-2.5.022-3.554.068C2.941,59.9,2.824,59.9,2.713,59.9ZM11.461,8.6A2.253,2.253,0,0,0,9.7,9.164a2.946,2.946,0,0,0-.3,2.3,7.827,7.827,0,0,1,.076,1.014c-.077,4.165-.064,8.4-.052,12.5,0,1.541.01,3.132.01,4.7q0,2.192,0,4.384v.157c0,4.148,0,8.438,0,12.656,0,3.507.367,4.6,2.62,4.6a17.454,17.454,0,0,0,2.435-.234c3.881-.571,4.4-3.362,4.391-6.018-.013-5.32-.012-10.719-.01-15.939,0-4.673,0-9.505-.007-14.261v-.05a11.671,11.671,0,0,0-.311-3.277c-.849-2.854-2.91-3.09-5.127-3.09-.2,0-.4,0-.608,0s-.415,0-.621,0-.4,0-.575-.007Z" transform="translate(6606.121 18498.828)"/><path class="c" d="M-6.271,1518.728c0-5.744-.146-11.494.035-17.232.274-8.75,5.157-13.347,13.849-13.347,8.653,0,13.587,4.695,13.99,13.316.026.56.015,1.121.019,1.681.037,4.814-3.076,6.864-7.651,5.12-1.189-.454-1.294-1.321-1.324-2.32-.046-1.54-.027-3.083-.118-4.62-.175-2.978-1.635-4.708-4.775-4.627s-4.484,1.967-4.626,4.865c-.1,2.1-.042,4.2-.042,6.3,0,8.968.027,17.934-.015,26.9-.016,3.308.836,6.075,4.657,6.165,3.8.089,4.928-2.543,4.9-5.914-.022-2.521-.034-5.044.02-7.566.046-2.2.111-3.643-3.058-4.146-3.185-.506-.96-3.982-1.457-6.074-.367-1.548.611-2.06,2.167-2.245,10.986-1.306,11.33-1.042,11.324,9.96,0,3.922.163,7.858-.083,11.766-.517,8.227-5.792,12.956-14.088,12.907s-13.384-4.861-13.668-13.242c-.2-5.878-.038-11.768-.038-17.652Z" transform="translate(6662.909 17009.92)"/><path class="d" d="M3.427,60.329a6.07,6.07,0,0,1-2.513-.554c-1.134-.512-.959-1.293-.79-2.048.032-.143.065-.29.088-.433,2.178-13.391,4.4-27,6.556-40.169l0-.021Q7.957,9.854,9.142,2.6C9.436.8,10.168,0,11.517,0a7.877,7.877,0,0,1,1.454.187l.04.008a7.306,7.306,0,0,0,1.333.181,1.448,1.448,0,0,0,.97-.3c.615,0,1.176.007,1.671.013C17.416.1,17.821.1,18.2.1c.587,0,1.043-.012,1.478-.039.168-.01.32-.015.465-.015,1.334,0,2.288.411,2.608,2.416C25.6,20.249,28.608,38.312,31.514,55.78l0,.011.226,1.358a2.525,2.525,0,0,1-.252,2.03,2.829,2.829,0,0,1-2.154.722l-.236.012c-1.186.062-2.122.111-2.912.111-3.6,0-3.738-1.044-4.5-6.837l-.018-.136c-.05-.379-.063-.8-.077-1.247-.046-1.482-.1-3.162-1.666-3.433a26.753,26.753,0,0,0-4.567-.443,11.95,11.95,0,0,0-4.5.757c-1.312.536-1.366,2.441-1.418,4.283a16.184,16.184,0,0,1-.172,2.311,6.178,6.178,0,0,1-2.079,3.662A5.827,5.827,0,0,1,3.427,60.329ZM15.962,13.3h0l-.791.052-.737,5.135c-.885,6.16-1.8,12.53-2.667,18.8-.016.118-.039.245-.063.379a2.265,2.265,0,0,0,.087,1.665,1.046,1.046,0,0,0,.769.376l.647.075a25.934,25.934,0,0,0,3.007.239,6.955,6.955,0,0,0,2.572-.413c1.283-.509.946-1.744.62-2.939a6.5,6.5,0,0,1-.3-1.535,28.927,28.927,0,0,0-.53-4.546c-.095-.555-.192-1.127-.276-1.692-.524-3.524-1.063-7.1-1.586-10.568q-.379-2.516-.757-5.029Z" transform="translate(6731.779 18498.828)"/><path class="c" d="M46.08,1523.142c0-7.421-.118-14.844.058-22.261.067-2.8-.872-3.845-3.575-3.464a11.637,11.637,0,0,1-1.679.01c-3.931-.017-6.147-3.951-4.306-7.562.591-1.159,1.6-.947,2.523-.95,7.842-.025,15.686.089,23.526-.061,3.656-.07,2.689,2.433,2.671,4.3-.018,1.835,1.048,4.244-2.632,4.35-6.922.2-6.917.392-6.917,7.537,0,13.3-.174,26.605.094,39.9.09,4.454-2.531,3.671-5.12,3.747-2.641.078-4.908.34-4.732-3.707C46.31,1537.714,46.082,1530.423,46.08,1523.142Z" transform="translate(6668.114 17010.008)"/><path class="c" d="M93.289,1518.556c0-8.687.231-17.383-.1-26.057-.16-4.195,2.24-3.645,4.767-3.605,2.446.038,4.89-.707,4.814,3.552-.264,14.568-.012,29.144-.172,43.713-.035,3.11.747,4.368,3.964,4.007,2.214-.248,4.511.192,6.715-.1,3.967-.53,4.993,1.1,4.826,4.87-.127,2.845-.755,3.926-3.77,3.806-5.736-.226-11.5-.271-17.23.011-3.358.165-3.933-1.172-3.876-4.134C93.4,1535.932,93.288,1527.243,93.289,1518.556Z" transform="translate(6675.169 17010.008)"/><path class="c" d="M23.886,1518.487c0-8.81.159-17.625-.072-26.43-.109-4.139,2.583-3.13,4.74-3.117,2.133.015,4.812-1.063,4.777,3.082-.154,17.9-.126,35.8-.018,53.7.026,4.249-2.919,2.817-4.948,2.892-1.986.073-4.615,1.065-4.537-2.86C24.011,1536.67,23.886,1527.578,23.886,1518.487Z" transform="translate(6666.622 17010.002)"/><path class="c" d="M-11.009,1518.812c0,8.821-.2,17.647.084,26.458.138,4.332-2.584,3.365-4.929,3.389-2.248.024-4.664.835-4.619-3.231q.295-26.667.01-53.341c-.046-4.55,2.945-2.958,5.089-3.154,2.426-.221,4.577-.421,4.454,3.421C-11.2,1501.165-11.009,1509.991-11.009,1518.812Z" transform="translate(6661.166 17010.002)"/><path class="e" d="M58.154,1563.867c-1.859,4.372-1.605,7.932-2.409,11.271-.321,1.334-.042,2.934-2.195,2.794-2.06-.135-1.842-1.772-2.059-3.077a64.487,64.487,0,0,0-2.438-11c0,3.787.026,7.575-.016,11.362-.012,1.174.364,2.673-1.654,2.694-1.993.02-1.734-1.424-1.738-2.644-.02-6.441.039-12.881-.037-19.321-.024-1.955.63-2.782,2.653-2.755,1.847.024,3.169.115,3.4,2.51a55.859,55.859,0,0,0,2.509,12.169c.505-3.589,1.086-7.169,1.493-10.769.281-2.492.866-4.2,4.019-3.934,3.362.283,2.257,2.662,2.292,4.345.12,5.458.129,10.921-.009,16.378-.038,1.505,1.177,4.124-2.013,4-3.166-.126-1.6-2.717-1.73-4.186C57.98,1570.839,58.154,1567.942,58.154,1563.867Z" transform="translate(6669.307 17017.926)"/><path class="e" d="M112.957,1565q0-4.827,0-9.655c0-1.051.194-1.975,1.53-2.048,1.47-.08,1.955.731,1.954,2.066q-.013,10.3.011,20.6c.006,1.426-.617,1.921-2.016,2-1.808.106-2.454-.829-2.837-2.372a90.313,90.313,0,0,0-4.108-13.257c0,4.2.036,8.394-.022,12.589-.018,1.262.551,3.047-1.794,2.967-2.33-.078-1.633-1.883-1.645-3.108-.064-6.027-.048-12.054-.016-18.081.008-1.576-.553-3.435,2.219-3.535,2.36-.086,3.182.985,3.625,3.064.631,2.971,1.505,5.891,2.276,8.833Z" transform="translate(6676.495 17017.932)"/><path class="e" d="M-12.274,1563.017c0,4.032.028,8.066-.018,12.1-.013,1.165.4,2.695-1.59,2.784-2.258.1-1.9-1.558-1.9-2.9q-.032-9.238,0-18.477c.007-1.458-.446-3.18,2.022-3.324,2.194-.129,3.327.584,3.782,2.842a33.1,33.1,0,0,0,3.1,8.967c0-3-.028-6,.015-9,.016-1.2-.254-2.673,1.7-2.7s1.778,1.381,1.78,2.634q.02,9.659,0,19.318c0,1.208.3,2.579-1.694,2.7-1.677.1-2.6-.445-3.017-2.1-1.072-4.313-2.221-8.606-3.339-12.907Z" transform="translate(6661.74 17017.932)"/><path class="k" d="M2.313,24.947a2.3,2.3,0,0,1-1.72-.521A2.277,2.277,0,0,1,.1,22.714c.039-2.467.029-4.975.02-7.4q-.005-1.335-.008-2.67c0-.772-.014-1.556-.027-2.315C.055,8.471.023,6.55.16,4.673A6.809,6.809,0,0,0,.086,3.41C-.084,1.977-.259.5,2.279.182A21.978,21.978,0,0,1,4.97,0,9.074,9.074,0,0,1,9.363.912a4.439,4.439,0,0,1,2.181,2.813,3.962,3.962,0,0,1,.178,2.069c-1.06,3.393-.674,6.829-.3,10.152a38.833,38.833,0,0,1,.363,6.28c-.011.219,0,.45.008.674.042,1,.082,1.938-1.592,2.031-.082,0-.163.007-.24.007-1.83,0-2.045-1.26-2.115-2.664-.044-.89-.055-1.8-.066-2.672-.011-.912-.022-1.854-.071-2.779-.077-1.46-.726-2.187-1.985-2.22H5.632a1.281,1.281,0,0,0-1.29.631,3.224,3.224,0,0,0-.184,1.362c0,.113,0,.228,0,.338-.039,1.884-.044,3.806-.015,5.874a2.365,2.365,0,0,1-.433,1.708,1.859,1.859,0,0,1-1.374.434ZM5.766,3.878l-.14,0a1.653,1.653,0,0,0-1.218.42,2.068,2.068,0,0,0-.265,1.555A3.353,3.353,0,0,1,4.077,7.1a2.9,2.9,0,0,1,.073,1.4,2.134,2.134,0,0,0,.231,1.634,1.747,1.747,0,0,0,1.332.428h.044a1.9,1.9,0,0,0,1.428-.483,3.529,3.529,0,0,0,.534-2.5c0-.139,0-.275-.005-.408s0-.267,0-.4a3.351,3.351,0,0,0-.526-2.409A1.905,1.905,0,0,0,5.766,3.878Z" transform="translate(6617.317 18570.941)"/><path class="k" d="M2.091,24.836H2a1.847,1.847,0,0,1-1.676-.71A3.264,3.264,0,0,1,0,22.379c.023-2.3.019-4.649.016-6.915v-.013c0-1.034,0-2.1,0-3.154q0-1.272,0-2.544c0-2.333.008-4.745-.009-7.119A2.963,2.963,0,0,1,.539.546,1.639,1.639,0,0,1,1.766.121c.069,0,.142,0,.216.007.208.013.425.02.663.02C3.209.148,3.8.11,4.368.074S5.534,0,6.106,0A4.99,4.99,0,0,1,10.6,1.987c1.711,2.416,1.773,5.536.173,8.785-.479.975-.72,1.577-.081,2.6,1.275,2.035,1.15,4.291,1.03,6.473a20.6,20.6,0,0,0,0,3.386,1.379,1.379,0,0,1-.242,1.1,2.173,2.173,0,0,1-1.626.478l-.111,0c-1.261,0-1.931-.685-1.989-2.037-.048-1.113-.06-2.246-.072-3.341-.009-.831-.019-1.69-.044-2.536-.046-1.6-.73-2.414-2.032-2.414-.066,0-.133,0-.2.006-1.41.087-1.362,1.039-1.316,1.959.011.215.021.418.013.609-.072,1.712-.076,3.5-.013,5.46a2.418,2.418,0,0,1-.462,1.837A2.047,2.047,0,0,1,2.091,24.836ZM5.867,3.755a3.456,3.456,0,0,0-.431.029,1.746,1.746,0,0,0-1.25.59,2.668,2.668,0,0,0-.143,1.991,5.126,5.126,0,0,1,.1,1.124c-.013.181-.043.385-.076.6a2.532,2.532,0,0,0,.183,1.961,1.467,1.467,0,0,0,1.176.409c.1,0,.2,0,.3-.012,1.815-.142,1.86-1.432,1.9-2.679.01-.282.02-.573.051-.844-.014-.161-.025-.33-.035-.494C7.57,5.115,7.483,3.755,5.867,3.755Z" transform="translate(6700.626 18571.063)"/><path class="k" d="M5.937,25.56a5.984,5.984,0,0,1-4.23-1.421A5.689,5.689,0,0,1,.08,19.917c-.108-5.173-.107-9.831,0-14.241C.175,2.021,2.258.006,5.948,0h.016A5.917,5.917,0,0,1,10.2,1.438a5.959,5.959,0,0,1,1.634,4.209c.071,1.617.055,3.265.039,4.859-.008.741-.015,1.507-.014,2.261,0,.706.006,1.421.011,2.113.012,1.642.025,3.34-.022,5.009-.1,3.644-2.189,5.658-5.873,5.672ZM6,3.891H5.906c-1.6.047-1.791,1.344-1.8,2.316-.033,4.817-.028,9.186.013,13.358.013,1.482.605,2.2,1.81,2.2h.087c1.527-.044,1.763-1.193,1.793-2.311.038-1.465.029-2.955.021-4.4,0-.612-.007-1.243-.007-1.865H7.812c0-.694,0-1.4.005-2.084C7.823,9.469,7.83,7.77,7.8,6.1,7.771,4.592,7.2,3.891,6,3.891Z" transform="translate(6766.079 18570.711)"/><path class="k" d="M5.885,25.566a6.133,6.133,0,0,1-3.9-1.2A4.87,4.87,0,0,1,.245,20.7,122.764,122.764,0,0,1,.269,4.818,4.825,4.825,0,0,1,2.042,1.185,6.269,6.269,0,0,1,5.97,0c.175,0,.354.005.533.015a5.79,5.79,0,0,1,3.821,1.458A5.467,5.467,0,0,1,11.856,5.29c.086,1.743.064,3.522.042,5.242-.009.75-.019,1.525-.02,2.29,0,.8.008,1.6.017,2.386.019,1.688.039,3.433-.044,5.144a5.26,5.26,0,0,1-1.595,3.8,6.047,6.047,0,0,1-3.839,1.4C6.238,25.561,6.059,25.566,5.885,25.566ZM6.15,3.755a2.7,2.7,0,0,0-.326.021c-1.488.183-1.69,1.342-1.692,2.451,0,1.492,0,3.009,0,4.476v.005q0,.9,0,1.793H4.15q0,1.04,0,2.079c0,1.65-.007,3.355.011,5.031.016,1.474.644,2.193,1.923,2.2H6.1A1.752,1.752,0,0,0,7.952,19.97c.087-5.114.092-9.759.017-14.2A1.822,1.822,0,0,0,6.15,3.755Z" transform="translate(6686.162 18570.711)"/><path class="k" d="M1.87,24.765h0c-.166,0-.348-.008-.573-.025a1.483,1.483,0,0,1-1.145-.454,1.788,1.788,0,0,1,0-1.425c.047-.189.1-.385.124-.569q.51-3.248,1.018-6.5l0-.017c.664-4.247,1.351-8.638,2.039-12.954C3.563,1.4,3.948,0,5.89,0c.1,0,.195,0,.3.01l.35.021C8.025.116,9.31.19,9.615,2.151,10.4,7.2,11.19,12.134,11.954,16.906c.276,1.722.543,3.393.8,5,.3,1.326.291,2.064-.032,2.468a1.289,1.289,0,0,1-1.084.385h-.058c-.114,0-.229,0-.344,0h-.109c-.9,0-1.913,0-2.083-1.444-.021-.183-.039-.369-.056-.549-.138-1.472-.268-2.862-2.545-2.9h-.08c-2.258,0-2.4,1.418-2.541,2.919-.014.143-.028.287-.044.431C3.627,24.581,2.729,24.765,1.87,24.765ZM6,6.512c-.136.951-.266,1.849-.391,2.71-.3,2.035-.55,3.79-.784,5.59a1.508,1.508,0,0,0,.26,1.227,1.608,1.608,0,0,0,1.258.431c.08,0,.155,0,.229-.007a1.6,1.6,0,0,0,1.267-.557,1.133,1.133,0,0,0,.092-1.02,13.767,13.767,0,0,1-.463-3A10.628,10.628,0,0,0,6,6.512H6Z" transform="translate(6630.963 18571.105)"/><path class="k" d="M10.838,24.755c-.737,0-1.525-.189-1.785-1.59-.038-.206-.069-.423-.1-.632C8.76,21.188,8.561,19.8,6.386,19.8H6.314c-2.164.03-2.365,1.383-2.559,2.692-.038.253-.076.515-.129.761-.221,1.031-.725,1.471-1.688,1.471a6.094,6.094,0,0,1-.811-.069,1.3,1.3,0,0,1-.937-.46A2.046,2.046,0,0,1,.1,22.661c.019-.1.036-.2.051-.292.425-2.693.878-5.427,1.316-8.071.658-3.975,1.338-8.082,1.939-12.133A2.161,2.161,0,0,1,5.881.007c.267,0,.543.016.778.032A5.268,5.268,0,0,1,7.269,0C8.6,0,9.266.661,9.5,2.211c.614,4.128,1.306,8.314,1.975,12.363.424,2.568.863,5.224,1.278,7.84.023.143.059.3.1.456a1.772,1.772,0,0,1-.009,1.378,1.237,1.237,0,0,1-.936.422l-.166.018A8.4,8.4,0,0,1,10.838,24.755ZM6.1,6.18C6,6.9,5.891,7.637,5.788,8.347v.006c-.262,1.8-.532,3.655-.742,5.489-.012.1-.026.21-.041.318a2.318,2.318,0,0,0,.18,1.75,1.442,1.442,0,0,0,1.1.428c.048,0,.1,0,.156,0a1.326,1.326,0,0,0,1.051-.366A2.454,2.454,0,0,0,7.7,14.122l-.016-.13c-.225-1.869-.5-3.762-.767-5.594V8.391C6.811,7.672,6.7,6.929,6.6,6.2Z" transform="translate(6733.273 18571.146)"/><path class="e" d="M3.141,1578.463a5.594,5.594,0,0,1-6.017-5.624c-.019-1.068.1-2.029,1.359-2.191,1.122-.144,2.361-.232,2.445,1.434.1,1.865.861,3.235,2.829,2.268,1.712-.841,1.218-2.624.622-4.087-.766-1.884-2.451-3.01-3.842-4.366-2.581-2.514-3.9-5.429-2.979-9.067.791-3.138,3.114-4.169,6.028-4a4.888,4.888,0,0,1,4.988,4.7c.113,1,.582,2.391-1.154,2.618-1.151.149-2.206.149-2.4-1.494-.163-1.371-.956-2.579-2.523-1.891-1.862.817-1.492,2.419-.815,3.941.828,1.863,2.445,3.037,3.877,4.345a9.245,9.245,0,0,1,3.135,8.256C8.345,1576.714,6.281,1578.137,3.141,1578.463Z" transform="translate(6663.334 17017.887)"/><path class="e" d="M9.523,1565.69c0-3.076.149-6.162-.049-9.225-.171-2.625.844-3.522,3.36-3.272,1.523.151,3.073.021,4.612.037,1.154.011,2.252.043,2.324,1.669.084,1.9-1.161,2.093-2.472,1.88-3.448-.559-3.859,1.244-3.793,4.1.055,2.333,1,2.9,3.034,2.725,1.05-.092,1.938.157,2,1.519.069,1.459-.664,2.131-2.009,1.981-3-.333-3.057,1.536-2.965,3.673.072,1.675-.042,3.357.017,5.032s-.755,2.155-2.307,2.145c-1.632-.01-1.754-.985-1.751-2.2C9.534,1572.4,9.527,1569.046,9.523,1565.69Z" transform="translate(6664.853 17017.928)"/><path class="e" d="M76.929,1567.046c0-2.095.029-4.19-.007-6.283-.033-1.849.623-4.135-2.577-4.051-1.09.028-1.242-.9-1.249-1.791-.009-1.275.762-1.681,1.875-1.687,2.654-.013,5.307-.022,7.96-.008,1,0,2,.039,2.084,1.439.076,1.291-.224,2.259-1.774,2.126-2.31-.2-2.34,1.276-2.324,2.944.044,4.468.192,8.948-.079,13.4-.1,1.641,1.732,4.848-1.982,4.7-3.515-.137-1.543-3.213-1.851-4.941A33.63,33.63,0,0,1,76.929,1567.046Z" transform="translate(6672.694 17017.936)"/><path class="e" d="M-49.36,1566.976c0-2.23-.025-4.46.008-6.691.027-1.863.257-3.762-2.616-3.54-1.373.105-1.45-.985-1.423-2.021.027-1.06.673-1.463,1.621-1.47,2.788-.02,5.577-.012,8.365-.016,1.109,0,1.861.354,1.887,1.65.024,1.153-.318,1.982-1.605,1.872-2.569-.22-2.511,1.435-2.5,3.223.038,5.017.029,10.036,0,15.054-.008,1.327.365,2.939-1.913,2.879s-1.777-1.708-1.806-2.995C-49.4,1572.274-49.36,1569.625-49.36,1566.976Z" transform="translate(6657.109 17017.939)"/><path class="e" d="M89.381,1565.688c0,3.361-.047,6.721.02,10.081.033,1.631-.614,2.243-2.234,2.189-1.5-.05-1.886-.8-1.881-2.128q.035-10.082,0-20.164c0-1.431.284-2.437,2.034-2.455s2.089.93,2.073,2.395C89.354,1558.968,89.38,1562.328,89.381,1565.688Z" transform="translate(6674.196 17017.936)"/><g transform="translate(6467.892 18376.688)"><path class="k" d="M18.525,16.524c-5.161,0-10.385-.12-15.527-.357-2.667-.246-3.016-2.151-3-4.173C.023,9.72.063,7.408.1,5.171V5.144Q.127,3.662.152,2.18A4.543,4.543,0,0,1,1.562.914,159.087,159.087,0,0,1,35.534.9a4.606,4.606,0,0,1,1.408,1.273,19.279,19.279,0,0,0,.147,4.487,16.77,16.77,0,0,1,.052,5.068,6.914,6.914,0,0,1-3.053,4.435C28.913,16.4,23.677,16.524,18.525,16.524ZM18.678,5.87c-.141,0-.287.006-.435.018a3.48,3.48,0,0,0-2.5,1.12,3.192,3.192,0,0,0-.589,2.487,3.238,3.238,0,0,0,3.25,3.177,4.149,4.149,0,0,0,.436-.024c1.962-.208,3.119-1.587,3.175-3.783A3.175,3.175,0,0,0,18.678,5.87Z" transform="translate(0.032 51.037)"/><path class="k" d="M18.466,8.17c-4.567,0-9.2-.011-13.764-.034-1.65-.008-3.356-.016-4.694-1.3-.049-2.9.1-4.662,1.05-5.632C1.983.256,3.7.058,6.341.037,9.465.012,12.83,0,16.63,0c4.129,0,8.327.014,12.387.028h.013l1.319,0c2.769.009,4.629.619,5.686,1.865.945,1.114,1.245,2.779.893,4.95-1.339,1.274-3.046,1.281-4.7,1.288C27.664,8.159,23.033,8.17,18.466,8.17Zm.084-5.543a10.539,10.539,0,0,0-4.465,1.186A15.068,15.068,0,0,0,18.5,4.7a7.265,7.265,0,0,0,3.854-1.145A9.322,9.322,0,0,0,18.549,2.627Z" transform="translate(0.105 0)"/><path class="d" d="M.293,46.382c-.041,0-.077,0-.109,0Q.135,23.767.091,1.154V.882A1,1,0,0,1,.114,0h.02l36.9.011Q37.018,11.6,37,23.195v.967q-.014,11.108-.028,22.216l-.027,0h-.056a1.2,1.2,0,0,1-.723-.239c0-3.69-.009-7.432-.016-11.051-.019-9.714-.039-19.759.077-29.638.022-1.853-.274-2.987-.957-3.679A4.443,4.443,0,0,0,31.984.818c-.1,0-.2,0-.309,0-5.782.127-11.505.154-18.32.154H9.6L6.08.972c-1.922,0-3.527,0-5.052.006q-.011,11.148-.022,22.3V24.5Q.994,35.322.983,46.142A1.1,1.1,0,0,1,.293,46.382Z" transform="translate(0 6.834)"/><path class="f" d="M-151.4,1418.678c2.669-.325,4.027.314,4.037,3.136.011,2.729-.769,3.931-3.688,3.879-2.611-.045-3.542-1-3.476-3.568C-154.466,1419.726-154.04,1418.05-151.4,1418.678Z" transform="translate(169.528 -1377.807)"/><path class="f" d="M-147.465,1400.273c.317,2.462-.462,3.714-3.226,3.74-2.748.024-3.891-.789-3.852-3.7.035-2.666,1.057-3.46,3.584-3.436C-148.494,1396.9-147.044,1397.536-147.465,1400.273Z" transform="translate(169.523 -1385.209)"/><path class="f" d="M-155.113,1414.849c.366,2.927-1.19,3.428-3.562,3.481-2.576.055-3.521-.9-3.475-3.466.043-2.364.557-3.708,3.309-3.674C-156.117,1411.225-154.731,1412.155-155.113,1414.849Z" transform="translate(166.923 -1380.322)"/><path class="f" d="M-143.454,1404.283c2.36-.278,3.774.4,3.687,3.164-.068,2.192-.187,3.9-3.082,3.889-2.555-.013-4.063-.656-4.053-3.592C-146.893,1405.258-146.1,1403.946-143.454,1404.283Z" transform="translate(172.134 -1382.699)"/><path class="f" d="M-139.85,1414.7c.311,2.415-.474,3.713-3.211,3.623-2.237-.072-3.864-.26-3.832-3.141.028-2.6.737-4,3.655-3.993C-140.674,1411.2-139.5,1412.1-139.85,1414.7Z" transform="translate(172.137 -1380.32)"/><path class="f" d="M-151.51,1404.319c2.553-.231,4.153.11,4.146,3.011-.005,2.634-.735,4.037-3.609,3.988-2.447-.043-3.608-.931-3.556-3.526C-154.482,1405.437-154.084,1403.759-151.51,1404.319Z" transform="translate(169.528 -1382.704)"/><path class="f" d="M-159.448,1425.607c-3.169.067-2.539-2.264-2.658-4.161-.193-3.07,1.905-2.829,3.943-2.865,3.285-.054,3.156,2.21,3.044,4.4C-155.266,1425.915-157.462,1425.628-159.448,1425.607Z" transform="translate(166.935 -1377.794)"/><path class="f" d="M-143.051,1425.606c-2.441.254-3.773-.585-3.827-3.229-.055-2.688.912-3.836,3.737-3.839,2.662,0,3.4,1.087,3.368,3.545C-139.805,1424.45-140.336,1425.994-143.051,1425.606Z" transform="translate(172.143 -1377.809)"/><path class="f" d="M-151.1,1418.224c-2.595.386-3.463-.824-3.433-3.376.03-2.473.856-3.6,3.446-3.639,2.826-.046,3.713,1.154,3.723,3.871C-147.352,1417.882-148.714,1418.507-151.1,1418.224Z" transform="translate(169.527 -1380.315)"/><path class="f" d="M-139.886,1400.406c.411,2.871-.918,3.616-3.405,3.608-2.528-.01-3.545-.991-3.592-3.5-.055-2.857,1.268-3.652,3.938-3.646C-140.14,1396.871-139.508,1398.229-139.886,1400.406Z" transform="translate(172.141 -1385.214)"/><path class="f" d="M-155.089,1400.583c.191,2.568-1.127,3.334-3.584,3.436-3.087.13-3.442-1.461-3.478-3.965-.04-2.827,1.44-3.154,3.733-3.179C-155.725,1396.849-154.923,1398.187-155.089,1400.583Z" transform="translate(166.924 -1385.211)"/><path class="f" d="M-162.073,1407.724c-.368-2.56.767-3.546,3.388-3.522,2.458.023,3.735.687,3.679,3.411-.051,2.473-.873,3.746-3.506,3.716C-160.966,1411.3-162.379,1410.444-162.073,1407.724Z" transform="translate(166.928 -1382.709)"/></g></g></svg>